<svg xmlns:xlink="http://www.w3.org/1999/xlink"  enable-background="new 0 0 160 240" height="240" viewBox="0 0 160 240" width="160" xmlns="http://www.w3.org/2000/svg"><path d="m53.9 223.9c18.3 11 31.5 4.1 51.5-4.6 22.1-9.7 34.2-25 23.3-31.5-10.9-6.4-28.5-1.5-47.4 6.2-17.3 7-39.1 22.8-27.4 29.9z" opacity=".2"/><path d="m102.4 192.4c-1.7 1.9-3.7 3.1-3.6 3.9s2.7.2 2.7.2-1 1.2.6 1.2 6.2-2.1 6.1-4.6c0-2.5-5.8-.7-5.8-.7z" fill="#2d3134"/><path d="m58.1 212.3c-1.7 1.9-3.7 3.1-3.6 3.9s2.7.2 2.7.2-1 1.2.6 1.2 6.2-2.1 6.1-4.6c0-2.5-5.8-.7-5.8-.7z" fill="#2d3134"/><path d="m59.5 205.3s-.7 4.7-1.4 6.3 2.3 3.1 5.7 1.7 2.5-10.2 2.5-10.2z" fill="#915645"/><path d="m104.6 182c.2 4.5-3.5 9.7-2.3 10.8s6.5 2.2 6.9-.8c.4-3.1 4-10.9 4-10.9z" fill="#915645"/><path d="m55.8 156.5c-.9 5.8 0 24.3.4 27.6s-.4 23.7 5.4 24 7.5-5 10.6-20.9 3.4-28.4 1.6-31.3-18 .6-18 .6z" fill="#cd9a83"/><path d="m55.8 156.5c-.9 5.8 0 24.3.4 27.6s-.4 23.7 5.4 24 7.5-5 10.6-20.9 3.4-28.4 1.6-31.3-18 .6-18 .6z" opacity=".2"/><path d="m96.6 154.7c1.7 3.3 6.5 24.9 6.7 29.1s7.8 6 10.9-2.2 8.8-38.2 4.7-43.4-22.3 16.5-22.3 16.5z" fill="#cd9a83"/><path d="m96.6 154.7c1.7 3.3 6.5 24.9 6.7 29.1s7.8 6 10.9-2.2 8.8-38.2 4.7-43.4-22.3 16.5-22.3 16.5z" opacity=".2"/><path d="m73 219s-3.3 3.5-3.4 4.8 2.6.1 2.6.1-1.2 2.1.6 2.1 5.6-1.1 5.9-5.3-5.7-1.7-5.7-1.7z" fill="#2d3134"/><path d="m120.4 198.6s-3.3 3.5-3.4 4.8 2.6.1 2.6.1-1.2 2.1.6 2.1 5.6-1.1 5.9-5.3c.4-4.3-5.7-1.7-5.7-1.7z" fill="#2d3134"/><g fill="#915645"><path d="m74.3 208.5c.1 4.3-.3 8.1-1.3 9.8s4.3 3.9 6.1 2.7 2.2-6.8 3.3-10.2c1-3.4-8.1-2.3-8.1-2.3z"/><path d="m121.6 188.3c.1 3.1-1.2 10.1-2.5 11.4s3.3 2.3 5.2 1.8c1.8-.5 2.5-.8 2.8-5.1s4-9.8 4-9.8z"/><path d="m27 72.5c-.4 3.1-2.9 6.3-4.5 8.3-1.7 2.1-1.5 8.3 3.6 8.4s11.2-2 12.3.6 10.7-.9 10.7-6.4c.1-5.5 2.4-20.2-8.7-19.4s-13.4 8.5-13.4 8.5z"/></g><path d="m22.7 85.3c1.9 0 4.7-1.4 4-3.1-.7-1.6-4.2-2.3-5.4-.6s.4 3.7 1.4 3.7z" fill="#2d3134"/><path d="m37 77.3s1.1-2.4 3-2.9 2.8 1 2.8 1-.2 2.1-1.7 2.4c-1.4.2-4.1-.5-4.1-.5z" fill="#2d3134"/><path d="m29 51.4s3.5 12.3 7.7 10.3c5.6-2.6-7.7-10.3-7.7-10.3z" fill="#915645"/><path d="m139 127.6c0-1-.4-2-1.1-2.6.6-.7 1-1.5 1-2.5 0-1.5-.9-2.8-2.2-3.3.4-.6.6-1.3.6-2.1 0-1.8-1.3-3.3-3-3.6.1-.3.2-.7.2-1.1 0-2-1.5-3.6-3.5-3.7 0-.2.1-.4.1-.6 0-2-1.6-3.7-3.7-3.7-.6 0-1.1.1-1.6.3-.2-1.8-1.8-3.2-3.6-3.2-.9 0-1.8.3-2.4.9-.7-1-1.8-1.6-3.1-1.6-1.1 0-2.1.5-2.8 1.3-.7-.9-1.7-1.4-2.9-1.4-1.5 0-2.8.9-3.3 2.2-.5-.2-1-.3-1.5-.3-1.8 0-3.3 1.3-3.6 3-.6-.4-1.3-.7-2.1-.7-1.7 0-3.1 1.2-3.5 2.8-.4-.2-.9-.3-1.4-.3-1.9 0-3.4 1.4-3.6 3.2-.5-.3-1.2-.5-1.8-.5-1.8 0-3.3 1.3-3.6 3.1-.6-.4-1.2-.6-2-.6-1.9 0-3.4 1.4-3.6 3.2-.6-.5-1.4-.8-2.3-.8-1.4 0-2.6.8-3.2 2-.6-.4-1.3-.7-2.1-.7-1.5 0-2.9 1-3.4 2.3-.7-.8-1.7-1.3-2.8-1.3-.1 0-.3 0-.4 0 .5-.6.9-1.5.9-2.4 0-1.5-.9-2.8-2.2-3.4.4-.6.6-1.2.6-2 0-1.4-.8-2.6-1.9-3.2.5-.6.8-1.4.8-2.3 0-1.4-.8-2.7-2-3.3.5-.6.8-1.4.8-2.3 0-1.5-.9-2.8-2.3-3.4.7-.7 1.2-1.6 1.2-2.7 0-1.2-.6-2.3-1.5-3 .9-.7 1.4-1.7 1.4-2.9 0-1.4-.8-2.7-2-3.3.5-.6.8-1.4.8-2.3 0-1.5-.9-2.8-2.3-3.4.7-.7 1.2-1.6 1.2-2.7 0-1.7-1.1-3.1-2.6-3.5.1-.3.1-.6.1-1 0-1.9-1.4-3.4-3.2-3.6.1-.3.1-.7.1-1 0-2-1.6-3.7-3.7-3.7-1.1 0-2 .5-2.7 1.2-.1 0-.1 0-.2-.1.1-.4.2-.7.2-1.1 0-2-1.6-3.7-3.7-3.7-1.1 0-2.1.5-2.8 1.3-.6-1.1-1.8-1.9-3.2-1.9-1.5 0-2.7.9-3.3 2.1-.6-.5-1.4-.8-2.2-.8-1.6 0-3 1.1-3.5 2.5-.5-.3-1.2-.5-1.8-.5-2 0-3.7 1.6-3.7 3.7 0 .6.1 1.1.4 1.6-.6.7-1 1.5-1 2.5 0 2 1.6 3.7 3.7 3.7 1.2 0 2.3-.6 2.9-1.5.6 1.1 1.8 1.9 3.2 1.9s2.7-.8 3.3-2c.6 1 1.8 1.7 3.1 1.7 1.6 0 2.9-1 3.5-2.4.7 1 1.8 1.6 3 1.6.3 0 .5 0 .8-.1v.4c0 1.4.8 2.6 2 3.2-.4.6-.6 1.2-.6 2s.3 1.6.8 2.2c-1 .4-1.8 1.3-2.1 2.4-.3 1-.1 2.1.4 3-.1 0-.2-.1-.3-.1-1.9-.5-3.9.6-4.5 2.5-.2-.1-.4-.2-.6-.2-1.9-.5-4 .6-4.5 2.5-.5 1.7.4 3.5 1.9 4.3-.5.6-.8 1.4-.8 2.3 0 1.7 1.1 3 2.6 3.5-.6.7-1 1.5-1 2.5 0 1.5.9 2.8 2.2 3.4-.8.7-1.3 1.7-1.3 2.8 0 1.2.6 2.3 1.6 3-.7.7-1.2 1.6-1.2 2.7 0 1.6 1.1 3 2.6 3.5-1.2.6-2 1.8-2 3.3s.9 2.8 2.2 3.4c-.8.7-1.3 1.7-1.3 2.8 0 1.2.6 2.3 1.6 3-.7.7-1.2 1.6-1.2 2.7 0 1.6 1 2.9 2.4 3.4-.6.7-.9 1.7-.8 2.7.2 1.5 1.2 2.7 2.6 3.1-.7.8-1.1 1.8-1 3 .2 1.7 1.5 3 3.1 3.2-.9.8-1.4 1.9-1.3 3.2.2 2 2 3.5 4 3.2h.1c-.2 1.3.3 2.6 1.4 3.4 1 .8 2.3.9 3.4.5v.6c0 2 1.6 3.7 3.7 3.7.9 0 1.8-.3 2.4-.9v.2c0 2 1.6 3.7 3.7 3.7.6 0 1.2-.2 1.7-.4 2.3 3.6 2.8 9.4 3.2 15.4.5 6.6-2.7 32.7 4.9 34 7 1.2 8.8-6.6 9.8-12.6.5-2.7 3.1-14.2 5-23.8 2.3-11.3 3.5-21.7 3.5-21.7s4.8-.5 9.2-4.5c4.3-4 6.2-6.6 6.2-6.6s4.7 13.9 6.9 18.6 1.5 26.4 5.3 28c3 1.2 7.8.9 10.8-8.2 3-9 1.5-16.6.4-24-.4-2.4-.5-5.4-.6-8.3.5-.6.8-1.4.8-2.3 0-.8-.3-1.6-.7-2.2 1.2-.6 2.1-1.8 2.1-3.3 0-1-.4-1.9-1-2.5 1.1-.6 1.9-1.8 1.9-3.2 0-.8-.3-1.5-.7-2.1.8-.7 1.3-1.7 1.3-2.8 0-.7-.2-1.4-.6-2 1.2-.4 2.4-1.9 2.4-3.6z" fill="#cd9a83"/><circle cx="53" cy="69.2" fill="none" r="3.7"/><path d="m49.3 63.8c.7 0 1.4.2 2 .6 1.1-4.1-1-11.2-1-11.2s-11.3 10.9-4.6 13.5c.4-1.6 1.9-2.9 3.6-2.9z" fill="#915645"/></svg>