<svg xmlns:xlink="http://www.w3.org/1999/xlink"  enable-background="new 0 0 160 240" height="240" viewBox="0 0 160 240" width="160" xmlns="http://www.w3.org/2000/svg"><path d="m44.4 223.5c18.3 11 31.5 4.1 51.5-4.6 22.1-9.7 34.2-25 23.3-31.5-10.9-6.4-28.5-1.5-47.4 6.2-17.3 7-39.1 22.8-27.4 29.9z" opacity=".2"/><path d="m93.5 193.3c1.3 1.6 5.7.7 5.7-.3 0-1.1-4-2.3-4-2.3z" fill="#2d3134"/><path d="m52.6 216.3c1.4 1.6 5.9.8 5.9-.3s-4.2-2.4-4.2-2.4z" fill="#2d3134"/><path d="m89.8 187.6c.6 3.5.8 5.9 1.2 6.3.6.6 1.9.3 2.6.2 3.8-.8 3.9-2.6 3-3s-1.9-5-1.9-5z" fill="#915645"/><path d="m48.8 210.4c.6 3.6.7 6.5 1.3 6.6s1.4.3 2.4 0c2.9-.8 4.9-2.5 3.4-3-1-.3-2-5.1-2-5.1z" fill="#915645"/><path d="m83.8 166.3c1.2 13.1 3.8 18.3 5.4 21s6.6 2.6 6.8-2.6 2.2-22.5 3-26.2c.7-3.7-2.3-18.3-9.5-14s-5.7 21.8-5.7 21.8z" fill="#cd9a83"/><path d="m83.8 166.3c1.2 13.1 3.8 18.3 5.4 21s6.6 2.6 6.8-2.6 2.2-22.5 3-26.2c.7-3.7-2.3-18.3-9.5-14s-5.7 21.8-5.7 21.8z" opacity=".2"/><path d="m40.9 160.9c.6 8.2-3.6 23.8-2.8 33.5.7 8.3 6.8 18.7 12.9 17 7.1-2 3.5-12.3 4.1-19 .8-9.9 4-21.5 8.3-26.3s-12.4-22-17.3-16.9c-4.8 5.2-5.2 11.7-5.2 11.7z" fill="#cd9a83"/><path d="m40.9 160.9c.6 8.2-3.6 23.8-2.8 33.5.7 8.3 6.8 18.7 12.9 17 7.1-2 3.5-12.3 4.1-19 .8-9.9 4-21.5 8.3-26.3s-12.4-22-17.3-16.9c-4.8 5.2-5.2 11.7-5.2 11.7z" opacity=".2"/><path d="m110.3 199s5.5 1.5 6.4-.3c.8-1.6-3.9-2.4-3.9-2.4z" fill="#2d3134"/><path d="m73.2 224.5s5.6.8 6.6-1c.9-1.7-4.3-2.1-4.3-2.1z" fill="#2d3134"/><g fill="#915645"><path d="m107.2 192.5c.2 3-.4 6.2.3 6.6s1.1.4 2.6.3c2.3-.3 3.9-2 3.9-2.7-.1-.7-1 0-1-1.8s-.7-5.2-.7-5.2z"/><path d="m69.2 218.1c.5 3.1.5 6.4 1.2 6.7s2.1 0 2.7-.1c2.5-.6 3.7-2.3 3.6-3-.2-.7-1 .1-1.2-1.8s-1.2-5.4-1.2-5.4z"/><path d="m109.3 34c-.9.2-1.7 13.8 3.9 11.7 5.6-2.2-2.4-12-3.9-11.7z"/><path d="m131.2 54.6c1.6 1.6 2.9 4 1.7 6-1.2 2.1-3.2 3.6-6.6 3.3s3.1-11 4.9-9.3z"/></g><path d="m133.3 47.2c0-2-1.6-3.7-3.7-3.7-.9 0-1.6.3-2.3.8 0-.1 0-.2 0-.4 0-2-1.6-3.7-3.7-3.7-1 0-2 .4-2.6 1.1-.7-.9-1.7-1.4-2.9-1.4-1.5 0-2.8.9-3.3 2.2-.4-.2-.8-.2-1.3-.2-1.9 0-3.5 1.5-3.6 3.4-1.8.2-3.2 1.8-3.2 3.6 0 1.1.5 2 1.2 2.7-1.3.6-2.3 1.9-2.3 3.4 0 1 .4 1.8 1 2.5-1 .7-1.6 1.8-1.6 3s.6 2.3 1.5 2.9c-1 .7-1.6 1.8-1.6 3 0 1.1.5 2.1 1.3 2.8-1.3.6-2.1 1.8-2.1 3.3 0 .9.3 1.7.8 2.3-1.2.6-2 1.8-2 3.3 0 1.2.5 2.2 1.4 2.8-1.7.3-3 1.8-3 3.6 0 1.3.7 2.4 1.7 3.1-1.3.5-2.3 1.9-2.3 3.4 0 .7.2 1.3.5 1.9-1.4.5-2.4 1.9-2.4 3.4 0 .8.3 1.5.7 2.1-1.9.2-3.4 1.7-3.4 3.6v.3c-.2 0-.4-.1-.6-.1-2 0-3.7 1.6-3.7 3.7v.4c-.6-.6-1.5-.9-2.5-.9-1.6 0-3 1.1-3.5 2.6-.7-.7-1.6-1.2-2.7-1.2-1.5 0-2.8.9-3.4 2.2-.7-.8-1.7-1.3-2.8-1.3-1.3 0-2.4.7-3.1 1.7-.6-.6-1.5-.9-2.4-.9-1.2 0-2.3.6-3 1.5-.7-.8-1.7-1.3-2.8-1.3-1.7 0-3.1 1.1-3.5 2.7-.6-.5-1.4-.8-2.3-.8-1.8 0-3.3 1.3-3.6 2.9-.5-.3-1.1-.4-1.7-.4-2 0-3.6 1.6-3.7 3.5-.3-.1-.6-.1-.8-.1-2 0-3.7 1.6-3.7 3.7 0 .3 0 .6.1.9-.4-.2-.8-.2-1.3-.2-2 0-3.7 1.6-3.7 3.7 0 .6.1 1.1.4 1.6-1.6.4-2.7 1.8-2.7 3.5 0 .6.1 1.1.4 1.6-1.4.5-2.4 1.9-2.4 3.4 0 1 .4 1.9 1 2.6-1.3.6-2.2 1.9-2.2 3.3 0 .9.3 1.7.9 2.4-1.2.6-2 1.8-2 3.3 0 1.4.8 2.6 1.9 3.2-1.1.6-1.8 1.8-1.8 3.1 0 1.9 1.4 3.4 3.2 3.6-.7.7-1.1 1.6-1.1 2.6 0 2 1.6 3.7 3.7 3.7h.3c.3 1.8 1.8 3.1 3.6 3.1 2 0 3.7-1.6 3.7-3.7 0-.9-.3-1.8-.9-2.4 1.6-.4 2.8-1.8 2.8-3.5 0-.3 0-.6-.1-.9.7-.1 1.3-.3 1.8-.7.5.8 1.3 1.3 2.2 1.5-.3.5-.5 1.1-.5 1.8 0 1.9 1.5 3.5 3.4 3.7-.6.6-.9 1.5-.9 2.4 0 1.8 1.3 3.3 3 3.6-.3.5-.4 1.1-.4 1.7 0 1.7 1.1 3.1 2.7 3.5-.4.6-.7 1.4-.7 2.2 0 1.2.5 2.2 1.4 2.8-1.3 7.8-3 23.6-.9 30.6 2.2 7.6 6.7 12.4 11.1 10.5 6.8-2.9 5-22.3 7.3-28.3 2.2-5.9 7.1-18.2 7.3-27s1.4-9.2 1.4-9.2l8.2-1.4s5 14.8 5.4 21.9c.3 4.5.9 18.6 7.6 18.3 5.8-.2 5.3-5.4 5.5-8.8.2-3.3 1.5-20.2 1.5-24.5 0-2.2 0-6.1 0-10.1.9-.7 1.4-1.7 1.4-2.9 0-1-.4-1.8-1-2.5 1.1-.6 1.8-1.8 1.8-3.2 0-1-.4-1.8-1-2.5.3-.1.5-.3.8-.4 1.6-1.2 2-3.5.7-5.1-.2-.3-.5-.5-.7-.7.9-.6 1.6-1.5 1.8-2.7.1-1.1-.2-2.1-.9-2.8.7-.6 1.1-1.4 1.2-2.4.1-1.3-.4-2.5-1.4-3.3 1.1-.5 1.9-1.6 2.1-2.9.1-1.1-.3-2.2-1-3 1.1-.6 1.8-1.8 1.8-3.2 0-1.1-.5-2-1.2-2.7 1-.7 1.6-1.8 1.6-3 0-1-.4-1.9-1.1-2.6 1.1-.6 1.9-1.8 1.9-3.2 0-.8-.3-1.6-.7-2.2 1.2-.6 2-1.8 2-3.2 0-1.1-.5-2-1.2-2.7 1-.7 1.6-1.8 1.6-3.1 0-1.2-.5-2.2-1.4-2.9 1.1-.6 1.8-1.8 1.8-3.1 0-1.1-.5-2.1-1.3-2.8.9-.7 1.5-1.7 1.5-3 0-1.1-.5-2.1-1.3-2.8 1-.6 1.7-1.8 1.7-3.1 0-.9-.4-1.8-.9-2.4 1.3-.6 2.2-1.9 2.2-3.4 0-.7-.2-1.4-.6-2 1.3-.9 1.9-2.5 1.5-4 0-.1-.1-.2-.1-.3 1.1-.6 1.8-1.8 1.8-3.1 0-.6-.1-1.1-.4-1.6 1.9-.1 3.5-1.7 3.5-3.7 0-.8-.3-1.5-.7-2.1.7-.1 1-.9 1-1.8z" fill="#cd9a83"/><path d="m123.9 43c.4.6 1.7 1.8 3.3 1.3s2.7-.8 2.7-.8 5.1-6.9 3.9-7.5-10.6 5.9-9.9 7z" fill="#915645"/></svg>