<svg xmlns:xlink="http://www.w3.org/1999/xlink"  enable-background="new 0 0 40 40" height="40" viewBox="0 0 40 40" width="40" xmlns="http://www.w3.org/2000/svg"><circle cx="20.1" cy="28" fill="#cc291f" r="10"/><ellipse cx="20.1" cy="20.2" opacity=".15" rx="2.1" ry="1.3"/><path d="m27.8 21.6c.2.8.3 1.6.3 2.4 0 5.5-4.5 10-10 10-3.1 0-5.9-1.4-7.7-3.6 1.1 4.4 5 7.6 9.7 7.6 5.5 0 10-4.5 10-10 0-2.4-.8-4.6-2.3-6.4z" opacity=".15"/><path d="m19.1 21c-.8-4.1 3-6.1 7-6s5-2 5-2-3.1 5.9-6 7-6 1-6 1z" fill="#539b00"/></svg>