<svg xmlns:xlink="http://www.w3.org/1999/xlink"  enable-background="new 0 0 16 56" height="56" viewBox="0 0 16 56" width="16" xmlns="http://www.w3.org/2000/svg"><path d="m2.4 5.7s5.7-.2 5.6 1.3c-.2 1.6-5.6-1.3-5.6-1.3z" fill="#9c3"/><path d="m14.8 36.3s-4.4-1-4.4.4 4.4-.4 4.4-.4z" fill="#9c3"/><path d="m7.1 28.7c0-1.3-6.8-.7-6.8-.7s6.8 2.5 6.8.7z" fill="#9c3"/><path d="m2.2 26.1s3.3 3.1 4 1.9-4-1.9-4-1.9z" fill="#539b00"/><path d="m.9 7.3s4.9 1.1 4.4 2.4-4.4-2.4-4.4-2.4z" fill="#9c3"/><path d="m1.1 10.5s4.8-1.5 5-.1c.3 1.4-5 .1-5 .1z" fill="#539b00"/><path d="m13.5 19.1s-5.3-.4-4.8 1.1 4.8-1.1 4.8-1.1z" fill="#539b00"/><path d="m3.5 13s3.1-4 3.8-2.4-3.8 2.4-3.8 2.4z" fill="#9c3"/><path d="m9.2 9.8s1.2 4.6-.2 4.5.2-4.5.2-4.5z" fill="#9c3"/><path d="m1.1 20.3s4.3-4.5 5.3-3.1-5.3 3.1-5.3 3.1z" fill="#539b00"/><path d="m4.1 6.8s3.6 2.1 2.3 3.5-2.3-3.5-2.3-3.5z" fill="#9c3"/><path d="m12 2.1s-4.6 2.2-3.8 4 3.8-4 3.8-4z" fill="#539b00"/><path d="m7 5h2v51h-2z" fill="#539b00"/><g fill="#9c3"><path d="m7 19h2v1h-2z"/><path d="m7 25h2v1h-2z"/><path d="m7 28h2v1h-2z"/><path d="m7 22h2v1h-2z"/><path d="m7 13h2v1h-2z"/><path d="m7 16h2v1h-2z"/><path d="m7 10h2v1h-2z"/><path d="m7 28h2v1h-2z"/><path d="m7 34h2v1h-2z"/><path d="m7 37h2v1h-2z"/><path d="m7 31h2v1h-2z"/><path d="m7 40h2v1h-2z"/><path d="m7 46h2v1h-2z"/><path d="m7 49h2v1h-2z"/><path d="m7 52h2v1h-2z"/><path d="m7 43h2v1h-2z"/></g><path d="m8.8 36.6c.6 1.1 6.2-2.9 6.2-2.9s-7.1 1.4-6.2 2.9z" fill="#539b00"/><path d="m13.8 39.4s-3.8-4.1-4.8-2.8 4.8 2.8 4.8 2.8z" fill="#9c3"/><path d="m10.3 40.4s-.7-4.1-1.9-3.6 1.9 3.6 1.9 3.6z" fill="#9c3"/><path d="m4.3 23.6s1.2 5.4 2.7 4.8c1.4-.6-2.7-4.8-2.7-4.8z" fill="#9c3"/><path d="m3.7 31s4.1-.7 3.6-1.9-3.6 1.9-3.6 1.9z" fill="#9c3"/><path d="m10.9 32.6s-3.3 2.7-2.2 3.4 2.2-3.4 2.2-3.4z" fill="#9c3"/><path d="m6.8 17.5c-.9 1.1-6.3-4.2-6.3-4.2s7.5 2.7 6.3 4.2z" fill="#9c3"/><path d="m.2 16.6s5.2-1.1 5.2.4-5.2-.4-5.2-.4z" fill="#9c3"/><path d="m4.5 21.5s.8-4.6 2.1-4c1.3.5-2.1 4-2.1 4z" fill="#9c3"/><path d="m12.8 8.9s-.3 6.2-2 5.8 2-5.8 2-5.8z" fill="#9c3"/><path d="m15.9 10.8s-3 4.1-4 2.9 4-2.9 4-2.9z" fill="#9c3"/><path d="m9.4 10.1s2.4 4 1 4.4c-1.3.5-1-4.4-1-4.4z" fill="#539b00"/><path d="m5.8 13s2.8 3.8 1.4 4.3-1.4-4.3-1.4-4.3z" fill="#9c3"/><path d="m15 22.5s-3.8-3.3-4.6-1.9c-.8 1.5 4.6 1.9 4.6 1.9z" fill="#9c3"/><path d="m11.3 25.2s-.1-5.6-1.9-4.7 1.9 4.7 1.9 4.7z" fill="#9c3"/><path d="m12.1 16.2s-4.1 2.4-3.1 3.6c1.1 1.3 3.1-3.6 3.1-3.6z" fill="#9c3"/><path d="m8.7 24s.9-4-.1-3.9.1 3.9.1 3.9z" fill="#9c3"/><path d="m14.6 15.2s-2.4-2.2-3.6-1.1 3.6 1.1 3.6 1.1z" fill="#9c3"/><path d="m7.1 11.3s3.9 2.9 2.5 3.7-2.5-3.7-2.5-3.7z" fill="#9c3"/><path d="m5.2 1s4.2 4.7 2.5 5.3-2.5-5.3-2.5-5.3z" fill="#9c3"/><path d="m12 17.4s-.7-3.9-2.3-2.7 2.3 2.7 2.3 2.7z" fill="#9c3"/><path d="m12.6 5.5s-4.6.2-4.7 1.9c-.1 1.8 4.7-1.9 4.7-1.9z" fill="#9c3"/><path d="m9.6.2s-3 3.5-1.7 4.8 1.7-4.8 1.7-4.8z" fill="#9c3"/><path d="m7.1 6s-2.2 4.9 0 5.3 0-5.3 0-5.3z" fill="#9c3"/></svg>