<svg xmlns:xlink="http://www.w3.org/1999/xlink"  enable-background="new 0 0 64 88" height="88" viewBox="0 0 64 88" width="64" xmlns="http://www.w3.org/2000/svg"><path d="m26.4 9.7s5.7-.2 5.6 1.3-5.6-1.3-5.6-1.3z" fill="#9c3"/><path d="m24.9 11.3s4.9 1.1 4.4 2.4-4.4-2.4-4.4-2.4z" fill="#9c3"/><path d="m25.1 14.5s4.8-1.5 5-.1-5 .1-5 .1z" fill="#539b00"/><path d="m27.5 17s3.1-4 3.8-2.4-3.8 2.4-3.8 2.4z" fill="#9c3"/><path d="m26.1 25.2s4.3-4.5 5.3-3.1c1.1 1.3-5.3 3.1-5.3 3.1z" fill="#539b00"/><path d="m28.8 10.9s3.6 2.1 2.3 3.5c-1.3 1.5-2.3-3.5-2.3-3.5z" fill="#9c3"/><path d="m36 6.1s-4.6 2.2-3.8 4 3.8-4 3.8-4z" fill="#539b00"/><path d="m31 9h2v9h-2z" fill="#539b00"/><path d="m31 19.7c-.9 1.1-6.3-4.2-6.3-4.2s7.6 2.7 6.3 4.2z" fill="#9c3"/><path d="m36.9 10.7s-.3 6.2-2 5.8 2-5.8 2-5.8z" fill="#9c3"/><path d="m40 12.6s-3 4.1-4 2.9 4-2.9 4-2.9z" fill="#9c3"/><path d="m33.6 11.9s2.4 4 1 4.4c-1.4.5-1-4.4-1-4.4z" fill="#539b00"/><path d="m29.2 5s4.2 4.7 2.5 5.3-2.5-5.3-2.5-5.3z" fill="#9c3"/><path d="m36 21.4s-.7-3.9-2.3-2.7 2.3 2.7 2.3 2.7z" fill="#9c3"/><path d="m36.6 9.5s-4.6.2-4.7 1.9 4.7-1.9 4.7-1.9z" fill="#9c3"/><path d="m33.6 4.2s-3 3.5-1.7 4.8 1.7-4.8 1.7-4.8z" fill="#9c3"/><path d="m18.4 13.7s5.7-.2 5.6 1.3c-.2 1.6-5.6-1.3-5.6-1.3z" fill="#9c3"/><path d="m16.9 15.3s4.9 1.1 4.4 2.4c-.5 1.4-4.4-2.4-4.4-2.4z" fill="#539b00"/><path d="m17.1 18.5s4.8-1.5 5-.1-5 .1-5 .1z" fill="#9c3"/><path d="m19.5 21s3.1-4 3.8-2.4c.7 1.5-3.8 2.4-3.8 2.4z" fill="#9c3"/><path d="m20.1 14.8s3.6 2.1 2.3 3.5-2.3-3.5-2.3-3.5z" fill="#9c3"/><path d="m28 10.1s-4.6 2.2-3.8 4 3.8-4 3.8-4z" fill="#539b00"/><path d="m23 13h2v11.6h-2z" fill="#539b00"/><path d="m28.8 16.9s-.3 6.2-2 5.8 2-5.8 2-5.8z" fill="#9c3"/><path d="m27.8 15.9s-2.1 4.2-3.2 3.3c-1.1-1 3.2-3.3 3.2-3.3z" fill="#539b00"/><path d="m21.2 9s4.2 4.7 2.5 5.3c-1.7.7-2.5-5.3-2.5-5.3z" fill="#9c3"/><path d="m28.6 13.5s-4.6.2-4.7 1.9c-.1 1.8 4.7-1.9 4.7-1.9z" fill="#9c3"/><path d="m25.6 8.2s-3 3.5-1.7 4.8 1.7-4.8 1.7-4.8z" fill="#9c3"/><path d="m26.3 20.9s4.8-1.5 5-.1-5 .1-5 .1z" fill="#539b00"/><path d="m36 14.1s-4.6 2.2-3.8 4 3.8-4 3.8-4z" fill="#539b00"/><path d="m31 17h2v10h-2z" fill="#539b00"/><path d="m29.2 13s4.2 4.7 2.5 5.3c-1.7.7-2.5-5.3-2.5-5.3z" fill="#9c3"/><path d="m33.6 12.2s-3 3.5-1.7 4.8 1.7-4.8 1.7-4.8z" fill="#9c3"/><path d="m34.4 13.7s5.7-.2 5.6 1.3c-.2 1.6-5.6-1.3-5.6-1.3z" fill="#9c3"/><path d="m32.9 15.3s4.9 1.1 4.4 2.4c-.5 1.4-4.4-2.4-4.4-2.4z" fill="#9c3"/><path d="m33.1 18.5s4.8-1.5 5-.1c.3 1.4-5 .1-5 .1z" fill="#539b00"/><path d="m35.5 21s3.1-4 3.8-2.4c.7 1.5-3.8 2.4-3.8 2.4z" fill="#9c3"/><path d="m36.1 14.8s3.6 2.1 2.3 3.5-2.3-3.5-2.3-3.5z" fill="#9c3"/><path d="m44 10.1s-4.6 2.2-3.8 4 3.8-4 3.8-4z" fill="#9c3"/><path d="m39 13h2v10.2h-2z" fill="#539b00"/><path d="m37.2 9s4.2 4.7 2.5 5.3-2.5-5.3-2.5-5.3z" fill="#539b00"/><path d="m44.6 13.5s-4.6.2-4.7 1.9c-.1 1.8 4.7-1.9 4.7-1.9z" fill="#9c3"/><path d="m41.6 8.2s-3 3.5-1.7 4.8 1.7-4.8 1.7-4.8z" fill="#9c3"/><path d="m39.1 14s-2.2 4.9 0 5.3 0-5.3 0-5.3z" fill="#9c3"/><path d="m10.4 17.7s5.7-.2 5.6 1.3c-.2 1.6-5.6-1.3-5.6-1.3z" fill="#9c3"/><path d="m15.1 40.7c0-1.3-6.8-.7-6.8-.7s6.8 2.5 6.8.7z" fill="#9c3"/><path d="m11.2 34.1s3.3 3.1 4 1.9-4-1.9-4-1.9z" fill="#539b00"/><path d="m8.9 19.3s4.9 1.1 4.4 2.4c-.5 1.4-4.4-2.4-4.4-2.4z" fill="#9c3"/><path d="m9.1 22.5s4.8-1.5 5-.1c.3 1.4-5 .1-5 .1z" fill="#539b00"/><path d="m11.5 25s3.1-4 3.8-2.4c.7 1.5-3.8 2.4-3.8 2.4z" fill="#9c3"/><path d="m12.8 18.9s3.6 2.1 2.3 3.5-2.3-3.5-2.3-3.5z" fill="#9c3"/><path d="m20 14.1s-4.6 2.2-3.8 4 3.8-4 3.8-4z" fill="#539b00"/><path d="m15 17h2v9h-2z" fill="#539b00"/><path d="m15 40h2v1h-2z" fill="#9c3"/><path d="m13.1 31.1s1.2 5.4 2.7 4.8c1.3-.5-2.7-4.8-2.7-4.8z" fill="#9c3"/><path d="m11.7 43s4.1-.7 3.6-1.9-3.6 1.9-3.6 1.9z" fill="#9c3"/><path d="m15 27.7c-.9 1.1-6.3-4.2-6.3-4.2s7.6 2.7 6.3 4.2z" fill="#9c3"/><path d="m8.2 28.6s5.2-1.1 5.2.4c0 1.6-5.2-.4-5.2-.4z" fill="#9c3"/><path d="m20.9 18.7s-.3 6.2-2 5.8 2-5.8 2-5.8z" fill="#9c3"/><path d="m24 20.6s-3 4.1-4 2.9 4-2.9 4-2.9z" fill="#9c3"/><path d="m17.6 19.9s2.4 4 1 4.4c-1.4.5-1-4.4-1-4.4z" fill="#539b00"/><path d="m13.8 25s2.8 3.8 1.4 4.3-1.4-4.3-1.4-4.3z" fill="#9c3"/><path d="m13.2 13s4.2 4.7 2.5 5.3c-1.7.7-2.5-5.3-2.5-5.3z" fill="#9c3"/><path d="m20 29.4s-.7-3.9-2.3-2.7 2.3 2.7 2.3 2.7z" fill="#9c3"/><path d="m20.6 17.5s-4.6.2-4.7 1.9c-.1 1.8 4.7-1.9 4.7-1.9z" fill="#9c3"/><path d="m17.6 12.2s-3 3.5-1.7 4.8 1.7-4.8 1.7-4.8z" fill="#9c3"/><path d="m2.4 21.7s5.7-.2 5.6 1.3c-.2 1.6-5.6-1.3-5.6-1.3z" fill="#9c3"/><path d="m14.8 52.3s-4.4-1-4.4.4 4.4-.4 4.4-.4z" fill="#9c3"/><path d="m7.1 44.7c0-1.3-6.8-.7-6.8-.7s6.8 2.5 6.8.7z" fill="#9c3"/><path d="m2.2 42.1s3.3 3.1 4 1.9-4-1.9-4-1.9z" fill="#539b00"/><path d="m.9 23.3s4.9 1.1 4.4 2.4c-.5 1.4-4.4-2.4-4.4-2.4z" fill="#539b00"/><path d="m1.1 26.5s4.8-1.5 5-.1c.3 1.4-5 .1-5 .1z" fill="#9c3"/><path d="m13.5 35.1s-5.3-.4-4.8 1.1c.5 1.6 4.8-1.1 4.8-1.1z" fill="#539b00"/><path d="m3.5 29s3.1-4 3.8-2.4c.7 1.5-3.8 2.4-3.8 2.4z" fill="#9c3"/><path d="m1.1 36.3s4.3-4.5 5.3-3.1c1.1 1.4-5.3 3.1-5.3 3.1z" fill="#539b00"/><path d="m4.1 22.8s3.6 2.1 2.3 3.5-2.3-3.5-2.3-3.5z" fill="#9c3"/><path d="m12 18.1s-4.6 2.2-3.8 4 3.8-4 3.8-4z" fill="#539b00"/><path d="m7 21h2v51h-2z" fill="#539b00"/><path d="m7 35h2v1h-2z" fill="#9c3"/><path d="m7 41h2v1h-2z" fill="#9c3"/><path d="m7 44h2v1h-2z" fill="#9c3"/><path d="m7 38h2v1h-2z" fill="#9c3"/><path d="m7 29h2v1h-2z" fill="#9c3"/><path d="m7 32h2v1h-2z" fill="#9c3"/><path d="m7 26h2v1h-2z" fill="#9c3"/><path d="m7 44h2v1h-2z" fill="#9c3"/><path d="m7 50h2v1h-2z" fill="#9c3"/><path d="m7 53h2v1h-2z" fill="#9c3"/><path d="m7 47h2v1h-2z" fill="#9c3"/><path d="m7 56h2v1h-2z" fill="#9c3"/><path d="m7 62h2v1h-2z" fill="#9c3"/><path d="m7 65h2v1h-2z" fill="#9c3"/><path d="m7 68h2v1h-2z" fill="#9c3"/><path d="m7 59h2v1h-2z" fill="#9c3"/><path d="m8.8 52.6c.6 1.1 6.2-2.9 6.2-2.9s-7.1 1.4-6.2 2.9z" fill="#539b00"/><path d="m13.8 55.4s-3.8-4.1-4.8-2.8 4.8 2.8 4.8 2.8z" fill="#9c3"/><path d="m10.3 56.4s-.7-4.1-1.9-3.6 1.9 3.6 1.9 3.6z" fill="#9c3"/><path d="m4.3 39.6s1.2 5.4 2.7 4.8c1.4-.6-2.7-4.8-2.7-4.8z" fill="#9c3"/><path d="m3.7 47s4.1-.7 3.6-1.9-3.6 1.9-3.6 1.9z" fill="#9c3"/><path d="m10.9 48.6s-3.3 2.7-2.2 3.4 2.2-3.4 2.2-3.4z" fill="#9c3"/><path d="m6.8 33.5c-.9 1.1-6.3-4.2-6.3-4.2s7.5 2.7 6.3 4.2z" fill="#9c3"/><path d="m.2 32.6s5.2-1.1 5.2.4-5.2-.4-5.2-.4z" fill="#9c3"/><path d="m4.5 37.5s.8-4.6 2.1-4-2.1 4-2.1 4z" fill="#9c3"/><path d="m12.8 24.9s-.3 6.2-2 5.8 2-5.8 2-5.8z" fill="#9c3"/><path d="m15.9 26.8s-3 4.1-4 2.9c-1.1-1.2 4-2.9 4-2.9z" fill="#9c3"/><path d="m9.4 26.1s2.4 4 1 4.4c-1.3.5-1-4.4-1-4.4z" fill="#539b00"/><path d="m5.8 29s2.8 3.8 1.4 4.3c-1.4.4-1.4-4.3-1.4-4.3z" fill="#9c3"/><path d="m11.3 41.2s-.1-5.6-1.9-4.7 1.9 4.7 1.9 4.7z" fill="#9c3"/><path d="m12.1 32.2s-4.1 2.4-3.1 3.6 3.1-3.6 3.1-3.6z" fill="#9c3"/><path d="m8.7 40s.9-4-.1-3.9.1 3.9.1 3.9z" fill="#9c3"/><path d="m14.6 31.2s-2.4-2.2-3.6-1.1 3.6 1.1 3.6 1.1z" fill="#9c3"/><path d="m7.1 27.3s3.9 2.9 2.5 3.7-2.5-3.7-2.5-3.7z" fill="#9c3"/><path d="m5.2 17s4.2 4.7 2.5 5.3c-1.7.7-2.5-5.3-2.5-5.3z" fill="#9c3"/><path d="m12 33.4s-.7-3.9-2.3-2.7 2.3 2.7 2.3 2.7z" fill="#9c3"/><path d="m12.6 21.5s-4.6.2-4.7 1.9c-.1 1.8 4.7-1.9 4.7-1.9z" fill="#9c3"/><path d="m9.6 16.2s-3 3.5-1.7 4.8 1.7-4.8 1.7-4.8z" fill="#9c3"/><path d="m7.1 22s-2.2 4.9 0 5.3 0-5.3 0-5.3z" fill="#9c3"/><path d="m10.4 25.7s5.7-.2 5.6 1.3c-.2 1.6-5.6-1.3-5.6-1.3z" fill="#9c3"/><path d="m22.8 56.3s-4.4-1-4.4.4 4.4-.4 4.4-.4z" fill="#539b00"/><path d="m15.1 48.7c0-1.3-6.8-.7-6.8-.7s6.8 2.5 6.8.7z" fill="#9c3"/><path d="m10.2 46.1s3.3 3.1 4 1.9-4-1.9-4-1.9z" fill="#539b00"/><path d="m9.1 30.5s4.8-1.5 5-.1c.3 1.4-5 .1-5 .1z" fill="#539b00"/><path d="m21.5 39.1s-5.3-.4-4.8 1.1c.5 1.6 4.8-1.1 4.8-1.1z" fill="#539b00"/><path d="m11.5 33s3.1-4 3.8-2.4c.7 1.5-3.8 2.4-3.8 2.4z" fill="#9c3"/><path d="m17.2 29.8s1.2 4.6-.2 4.5c-1.5-.1.2-4.5.2-4.5z" fill="#9c3"/><path d="m9.1 40.3s4.3-4.5 5.3-3.1c1.1 1.4-5.3 3.1-5.3 3.1z" fill="#539b00"/><path d="m20 22.1s-4.6 2.2-3.8 4 3.8-4 3.8-4z" fill="#539b00"/><path d="m15 25h2v51h-2z" fill="#539b00"/><path d="m15 39h2v1h-2z" fill="#9c3"/><path d="m15 45h2v1h-2z" fill="#9c3"/><path d="m15 48h2v1h-2z" fill="#9c3"/><path d="m15 42h2v1h-2z" fill="#9c3"/><path d="m15 33h2v1h-2z" fill="#9c3"/><path d="m15 36h2v1h-2z" fill="#9c3"/><path d="m15 30h2v1h-2z" fill="#9c3"/><path d="m15 48h2v1h-2z" fill="#9c3"/><path d="m15 54h2v1h-2z" fill="#9c3"/><path d="m15 57h2v1h-2z" fill="#9c3"/><path d="m15 51h2v1h-2z" fill="#9c3"/><path d="m15 60h2v1h-2z" fill="#9c3"/><path d="m15 66h2v1h-2z" fill="#9c3"/><path d="m15 69h2v1h-2z" fill="#9c3"/><path d="m15 72h2v1h-2z" fill="#9c3"/><path d="m15 63h2v1h-2z" fill="#9c3"/><path d="m16.8 56.6c.6 1.1 6.2-2.9 6.2-2.9s-7.1 1.4-6.2 2.9z" fill="#9c3"/><path d="m21.8 59.4s-3.8-4.1-4.8-2.8 4.8 2.8 4.8 2.8z" fill="#9c3"/><path d="m12.3 43.6s1.2 5.4 2.7 4.8c1.4-.6-2.7-4.8-2.7-4.8z" fill="#9c3"/><path d="m11.7 51s4.1-.7 3.6-1.9-3.6 1.9-3.6 1.9z" fill="#9c3"/><path d="m18.9 52.6s-3.3 2.7-2.2 3.4 2.2-3.4 2.2-3.4z" fill="#9c3"/><path d="m14.8 37.5c-.9 1.1-6.3-4.2-6.3-4.2s7.5 2.7 6.3 4.2z" fill="#9c3"/><path d="m8.2 36.6s5.2-1.1 5.2.4-5.2-.4-5.2-.4z" fill="#9c3"/><path d="m12.5 41.5s.8-4.6 2.1-4-2.1 4-2.1 4z" fill="#9c3"/><path d="m17.4 30.1s2.4 4 1 4.4c-1.3.5-1-4.4-1-4.4z" fill="#539b00"/><path d="m13.8 33s2.8 3.8 1.4 4.3c-1.4.4-1.4-4.3-1.4-4.3z" fill="#9c3"/><path d="m23 42.5s-3.8-3.3-4.6-1.9c-.8 1.5 4.6 1.9 4.6 1.9z" fill="#9c3"/><path d="m19.3 45.2s-.1-5.6-1.9-4.7 1.9 4.7 1.9 4.7z" fill="#9c3"/><path d="m20.1 36.2s-4.1 2.4-3.1 3.6c1.1 1.3 3.1-3.6 3.1-3.6z" fill="#9c3"/><path d="m16.7 44s.9-4-.1-3.9.1 3.9.1 3.9z" fill="#9c3"/><path d="m22.6 35.2s-2.4-2.2-3.6-1.1c-1.2 1.2 3.6 1.1 3.6 1.1z" fill="#9c3"/><path d="m15.1 31.3s3.9 2.9 2.5 3.7-2.5-3.7-2.5-3.7z" fill="#9c3"/><path d="m13.2 21s4.2 4.7 2.5 5.3c-1.7.7-2.5-5.3-2.5-5.3z" fill="#9c3"/><path d="m20 37.4s-.7-3.9-2.3-2.7 2.3 2.7 2.3 2.7z" fill="#9c3"/><path d="m20.6 25.5s-4.6.2-4.7 1.9c-.1 1.8 4.7-1.9 4.7-1.9z" fill="#9c3"/><path d="m17.6 20.2s-3 3.5-1.7 4.8 1.7-4.8 1.7-4.8z" fill="#9c3"/><path d="m15.1 26s-2.2 4.9 0 5.3 0-5.3 0-5.3z" fill="#9c3"/><path d="m18.4 21.7s5.7-.2 5.6 1.3c-.2 1.6-5.6-1.3-5.6-1.3z" fill="#9c3"/><path d="m30.8 48.9s-4.5-.3-4.3 1.1c.3 1.3 4.3-1.1 4.3-1.1z" fill="#9c3"/><path d="m23.1 45c0-1.3-6.8-.7-6.8-.7s6.8 2.4 6.8.7z" fill="#9c3"/><path d="m18.2 42.3s3.3 3.1 4 1.9c.7-1.1-4-1.9-4-1.9z" fill="#539b00"/><path d="m16.9 23.3s4.9 1.1 4.4 2.4c-.5 1.4-4.4-2.4-4.4-2.4z" fill="#9c3"/><path d="m17.1 26.5s4.8-1.5 5-.1-5 .1-5 .1z" fill="#539b00"/><path d="m29.6 33.6s-5.3-.4-4.8 1.1c.5 1.6 4.8-1.1 4.8-1.1z" fill="#539b00"/><path d="m19.5 29s3.1-4 3.8-2.4c.7 1.5-3.8 2.4-3.8 2.4z" fill="#9c3"/><path d="m17.1 36.3s4.3-4.5 5.3-3.1c1.1 1.4-5.3 3.1-5.3 3.1z" fill="#539b00"/><path d="m20.1 22.8s3.6 2.1 2.3 3.5-2.3-3.5-2.3-3.5z" fill="#9c3"/><path d="m28 18.1s-4.6 2.2-3.8 4 3.8-4 3.8-4z" fill="#9c3"/><path d="m23 21h2v25.5h-2z" fill="#539b00"/><path d="m25 50.1c.8 1 5.6-3.9 5.6-3.9s-6.7 2.6-5.6 3.9z" fill="#9c3"/><path d="m30.4 52.1s-4.4-3.4-5.1-2 5.1 2 5.1 2z" fill="#539b00"/><path d="m27.1 53.7s-1.4-4-2.4-3.3c-1.1.7 2.4 3.3 2.4 3.3z" fill="#9c3"/><path d="m19.7 47.2s4.1-.7 3.6-1.9-3.6 1.9-3.6 1.9z" fill="#9c3"/><path d="m22.8 33.5c-.9 1.1-6.3-4.2-6.3-4.2s7.5 2.7 6.3 4.2z" fill="#9c3"/><path d="m28.8 24.9s-.3 6.2-2 5.8 2-5.8 2-5.8z" fill="#9c3"/><path d="m31.9 26.8s-3 4.1-4 2.9c-1.1-1.2 4-2.9 4-2.9z" fill="#9c3"/><path d="m25.4 26.1s2.4 4 1 4.4c-1.3.5-1-4.4-1-4.4z" fill="#539b00"/><path d="m21.8 29s2.8 3.8 1.4 4.3c-1.4.4-1.4-4.3-1.4-4.3z" fill="#9c3"/><path d="m30.6 31.2s-2.4-2.2-3.6-1.1 3.6 1.1 3.6 1.1z" fill="#9c3"/><path d="m21.2 17s4.2 4.7 2.5 5.3c-1.7.7-2.5-5.3-2.5-5.3z" fill="#539b00"/><path d="m28 33.4s-.7-3.9-2.3-2.7 2.3 2.7 2.3 2.7z" fill="#9c3"/><path d="m28.6 21.5s-4.6.2-4.7 1.9c-.1 1.8 4.7-1.9 4.7-1.9z" fill="#9c3"/><path d="m25.6 16.2s-3 3.5-1.7 4.8 1.7-4.8 1.7-4.8z" fill="#9c3"/><path d="m42.4 17.7s5.7-.2 5.6 1.3c-.2 1.6-5.6-1.3-5.6-1.3z" fill="#9c3"/><path d="m47.1 40.7c0-1.3-6.8-.7-6.8-.7s6.8 2.5 6.8.7z" fill="#9c3"/><path d="m43.2 34.1s3.3 3.1 4 1.9-4-1.9-4-1.9z" fill="#539b00"/><path d="m40.9 19.3s4.9 1.1 4.4 2.4c-.5 1.4-4.4-2.4-4.4-2.4z" fill="#9c3"/><path d="m41.1 22.5s4.8-1.5 5-.1c.3 1.4-5 .1-5 .1z" fill="#539b00"/><path d="m43.5 25s3.1-4 3.8-2.4c.7 1.5-3.8 2.4-3.8 2.4z" fill="#9c3"/><path d="m41.1 32.3s4.3-4.5 5.3-3.1-5.3 3.1-5.3 3.1z" fill="#539b00"/><path d="m44.8 18.9s3.6 2.1 2.3 3.5-2.3-3.5-2.3-3.5z" fill="#9c3"/><path d="m52 14.1s-4.6 2.2-3.8 4 3.8-4 3.8-4z" fill="#539b00"/><path d="m47 17h2v9h-2z" fill="#539b00"/><path d="m47 40h2v1h-2z" fill="#9c3"/><path d="m45.1 31.1s1.2 5.4 2.7 4.8c1.3-.5-2.7-4.8-2.7-4.8z" fill="#9c3"/><path d="m43.7 43s4.1-.7 3.6-1.9-3.6 1.9-3.6 1.9z" fill="#9c3"/><path d="m47 27.7c-.9 1.1-6.3-4.2-6.3-4.2s7.6 2.7 6.3 4.2z" fill="#9c3"/><path d="m40.2 28.6s5.2-1.1 5.2.4c0 1.6-5.2-.4-5.2-.4z" fill="#9c3"/><path d="m44.5 33.5s.8-4.6 2.1-4c1.3.5-2.1 4-2.1 4z" fill="#9c3"/><path d="m52.9 18.7s-.3 6.2-2 5.8 2-5.8 2-5.8z" fill="#9c3"/><path d="m56 20.6s-3 4.1-4 2.9 4-2.9 4-2.9z" fill="#9c3"/><path d="m49.6 19.9s2.4 4 1 4.4c-1.4.5-1-4.4-1-4.4z" fill="#539b00"/><path d="m45.8 25s2.8 3.8 1.4 4.3c-1.4.4-1.4-4.3-1.4-4.3z" fill="#9c3"/><path d="m45.2 13s4.2 4.7 2.5 5.3c-1.7.7-2.5-5.3-2.5-5.3z" fill="#9c3"/><path d="m52 29.4s-.7-3.9-2.3-2.7 2.3 2.7 2.3 2.7z" fill="#9c3"/><path d="m52.6 17.5s-4.6.2-4.7 1.9c-.1 1.8 4.7-1.9 4.7-1.9z" fill="#9c3"/><path d="m49.6 12.2s-3 3.5-1.7 4.8 1.7-4.8 1.7-4.8z" fill="#9c3"/><path d="m34.4 21.7s5.7-.2 5.6 1.3c-.2 1.6-5.6-1.3-5.6-1.3z" fill="#9c3"/><path d="m45.3 49s-4.4-1-4.4.4 4.4-.4 4.4-.4z" fill="#9c3"/><path d="m39.1 44.7c0-1.3-6.8-.7-6.8-.7s6.8 2.5 6.8.7z" fill="#9c3"/><path d="m34.2 42.1s3.3 3.1 4 1.9-4-1.9-4-1.9z" fill="#539b00"/><path d="m35 23s4.9 1.1 4.4 2.4c-.5 1.4-4.4-2.4-4.4-2.4z" fill="#539b00"/><path d="m33.4 37.9s4.3-4.5 5.3-3.1-5.3 3.1-5.3 3.1z" fill="#539b00"/><path d="m44 18.1s-4.6 2.2-3.8 4 3.8-4 3.8-4z" fill="#539b00"/><path d="m39 21h2v11.5h-2z" fill="#539b00"/><path d="m46.2 52.6s-3.8-4.1-4.8-2.8 4.8 2.8 4.8 2.8z" fill="#9c3"/><path d="m42.7 53.7s-.7-4.1-1.9-3.6 1.9 3.6 1.9 3.6z" fill="#9c3"/><path d="m35.7 47s4.1-.7 3.6-1.9-3.6 1.9-3.6 1.9z" fill="#9c3"/><path d="m36.7 39.1s.8-4.6 2.1-4c1.3.5-2.1 4-2.1 4z" fill="#9c3"/><path d="m37.2 17s4.2 4.7 2.5 5.3c-1.7.7-2.5-5.3-2.5-5.3z" fill="#9c3"/><path d="m44.6 21.5s-4.6.2-4.7 1.9c-.1 1.8 4.7-1.9 4.7-1.9z" fill="#9c3"/><path d="m41.6 16.2s-3 3.5-1.7 4.8 1.7-4.8 1.7-4.8z" fill="#9c3"/><path d="m42.4 25.7s5.7-.2 5.6 1.3c-.2 1.6-5.6-1.3-5.6-1.3z" fill="#9c3"/><path d="m54.8 51.5s-4.4-1-4.4.4 4.4-.4 4.4-.4z" fill="#9c3"/><path d="m47.1 48.7c0-1.3-6.8-.7-6.8-.7s6.8 2.5 6.8.7z" fill="#9c3"/><path d="m42.2 46.1s3.3 3.1 4 1.9-4-1.9-4-1.9z" fill="#539b00"/><path d="m41.1 30.5s4.8-1.5 5-.1c.3 1.4-5 .1-5 .1z" fill="#539b00"/><path d="m53.5 39.1s-5.3-.4-4.8 1.1c.5 1.6 4.8-1.1 4.8-1.1z" fill="#539b00"/><path d="m43.5 33s3.1-4 3.8-2.4c.7 1.5-3.8 2.4-3.8 2.4z" fill="#9c3"/><path d="m49.2 29.8s1.2 4.6-.2 4.5.2-4.5.2-4.5z" fill="#9c3"/><path d="m41.1 40.3s4.3-4.5 5.3-3.1c1.1 1.4-5.3 3.1-5.3 3.1z" fill="#539b00"/><path d="m52 22.1s-4.6 2.2-3.8 4 3.8-4 3.8-4z" fill="#539b00"/><path d="m47 25h2v51h-2z" fill="#539b00"/><path d="m47 39h2v1h-2z" fill="#9c3"/><path d="m47 45h2v1h-2z" fill="#9c3"/><path d="m47 48h2v1h-2z" fill="#9c3"/><path d="m47 42h2v1h-2z" fill="#9c3"/><path d="m47 33h2v1h-2z" fill="#9c3"/><path d="m47 36h2v1h-2z" fill="#9c3"/><path d="m47 30h2v1h-2z" fill="#9c3"/><path d="m47 48h2v1h-2z" fill="#9c3"/><path d="m47 54h2v1h-2z" fill="#9c3"/><path d="m47 57h2v1h-2z" fill="#9c3"/><path d="m47 51h2v1h-2z" fill="#9c3"/><path d="m47 60h2v1h-2z" fill="#9c3"/><path d="m47 66h2v1h-2z" fill="#9c3"/><path d="m47 69h2v1h-2z" fill="#9c3"/><path d="m47 72h2v1h-2z" fill="#9c3"/><path d="m47 63h2v1h-2z" fill="#9c3"/><path d="m48.8 51.8c.6 1.1 6.2-2.9 6.2-2.9s-7.1 1.4-6.2 2.9z" fill="#539b00"/><path d="m53.8 54.6s-3.8-4.1-4.8-2.8 4.8 2.8 4.8 2.8z" fill="#9c3"/><path d="m44.3 43.6s1.2 5.4 2.7 4.8c1.4-.6-2.7-4.8-2.7-4.8z" fill="#9c3"/><path d="m43.7 51s4.1-.7 3.6-1.9-3.6 1.9-3.6 1.9z" fill="#9c3"/><path d="m50.9 47.9s-3.3 2.7-2.2 3.4 2.2-3.4 2.2-3.4z" fill="#9c3"/><path d="m46.8 37.5c-.9 1.1-6.3-4.2-6.3-4.2s7.5 2.7 6.3 4.2z" fill="#9c3"/><path d="m40.2 36.6s5.2-1.1 5.2.4-5.2-.4-5.2-.4z" fill="#9c3"/><path d="m44.5 41.5s.8-4.6 2.1-4-2.1 4-2.1 4z" fill="#9c3"/><path d="m55.9 30.8s-3 4.1-4 2.9c-1.1-1.2 4-2.9 4-2.9z" fill="#9c3"/><path d="m49.4 30.1s2.4 4 1 4.4c-1.3.5-1-4.4-1-4.4z" fill="#539b00"/><path d="m45.8 33s2.8 3.8 1.4 4.3c-1.4.4-1.4-4.3-1.4-4.3z" fill="#9c3"/><path d="m55 42.5s-3.8-3.3-4.6-1.9 4.6 1.9 4.6 1.9z" fill="#9c3"/><path d="m51.3 45.2s-.1-5.6-1.9-4.7 1.9 4.7 1.9 4.7z" fill="#9c3"/><path d="m52.1 36.2s-4.1 2.4-3.1 3.6c1.1 1.3 3.1-3.6 3.1-3.6z" fill="#9c3"/><path d="m48.7 44s.9-4-.1-3.9.1 3.9.1 3.9z" fill="#9c3"/><path d="m54.6 35.2s-2.4-2.2-3.6-1.1c-1.2 1.2 3.6 1.1 3.6 1.1z" fill="#9c3"/><path d="m47.1 31.3s3.9 2.9 2.5 3.7-2.5-3.7-2.5-3.7z" fill="#9c3"/><path d="m45.2 21s4.2 4.7 2.5 5.3c-1.7.7-2.5-5.3-2.5-5.3z" fill="#9c3"/><path d="m52 37.4s-.7-3.9-2.3-2.7 2.3 2.7 2.3 2.7z" fill="#9c3"/><path d="m52.6 25.5s-4.6.2-4.7 1.9c-.1 1.8 4.7-1.9 4.7-1.9z" fill="#9c3"/><path d="m49.6 20.2s-3 3.5-1.7 4.8 1.7-4.8 1.7-4.8z" fill="#9c3"/><path d="m47.1 26s-2.2 4.9 0 5.3 0-5.3 0-5.3z" fill="#9c3"/><path d="m50.4 21.7s5.7-.2 5.6 1.3c-.2 1.6-5.6-1.3-5.6-1.3z" fill="#9c3"/><path d="m62.9 51.8s-4.5-.3-4.3 1.1c.2 1.3 4.3-1.1 4.3-1.1z" fill="#9c3"/><path d="m55.1 44.7c0-1.3-6.8-.7-6.8-.7s6.8 2.5 6.8.7z" fill="#9c3"/><path d="m50.2 42.1s3.3 3.1 4 1.9-4-1.9-4-1.9z" fill="#539b00"/><path d="m48.9 23.3s4.9 1.1 4.4 2.4c-.5 1.4-4.4-2.4-4.4-2.4z" fill="#9c3"/><path d="m49.1 26.5s4.8-1.5 5-.1c.3 1.4-5 .1-5 .1z" fill="#539b00"/><path d="m61.5 35.1s-5.3-.4-4.8 1.1c.5 1.6 4.8-1.1 4.8-1.1z" fill="#539b00"/><path d="m51.5 29s3.1-4 3.8-2.4c.7 1.5-3.8 2.4-3.8 2.4z" fill="#9c3"/><path d="m57.2 25.8s1.2 4.6-.2 4.5c-1.5-.1.2-4.5.2-4.5z" fill="#9c3"/><path d="m49.1 36.3s4.3-4.5 5.3-3.1c1.1 1.4-5.3 3.1-5.3 3.1z" fill="#539b00"/><path d="m52.1 22.8s3.6 2.1 2.3 3.5-2.3-3.5-2.3-3.5z" fill="#9c3"/><path d="m60 18.1s-4.6 2.2-3.8 4 3.8-4 3.8-4z" fill="#9c3"/><path d="m55 21h2v51h-2z" fill="#539b00"/><path d="m55 35h2v1h-2z" fill="#9c3"/><path d="m55 41h2v1h-2z" fill="#9c3"/><path d="m55 44h2v1h-2z" fill="#9c3"/><path d="m55 38h2v1h-2z" fill="#9c3"/><path d="m55 29h2v1h-2z" fill="#9c3"/><path d="m55 32h2v1h-2z" fill="#9c3"/><path d="m55 26h2v1h-2z" fill="#9c3"/><path d="m55 44h2v1h-2z" fill="#9c3"/><path d="m55 50h2v1h-2z" fill="#9c3"/><path d="m55 53h2v1h-2z" fill="#9c3"/><path d="m55 47h2v1h-2z" fill="#9c3"/><path d="m55 56h2v1h-2z" fill="#9c3"/><path d="m55 62h2v1h-2z" fill="#9c3"/><path d="m55 65h2v1h-2z" fill="#9c3"/><path d="m55 68h2v1h-2z" fill="#9c3"/><path d="m55 59h2v1h-2z" fill="#9c3"/><path d="m57.1 53.1c.8 1 5.6-3.9 5.6-3.9s-6.7 2.5-5.6 3.9z" fill="#9c3"/><path d="m62.5 55s-4.4-3.4-5.1-2 5.1 2 5.1 2z" fill="#539b00"/><path d="m59.2 56.6s-1.4-4-2.4-3.3c-1.1.8 2.4 3.3 2.4 3.3z" fill="#9c3"/><path d="m52.3 39.6s1.2 5.4 2.7 4.8c1.4-.6-2.7-4.8-2.7-4.8z" fill="#9c3"/><path d="m51.7 47s4.1-.7 3.6-1.9-3.6 1.9-3.6 1.9z" fill="#9c3"/><path d="m58.5 48.8s-2.8 3.2-1.6 3.7 1.6-3.7 1.6-3.7z" fill="#9c3"/><path d="m54.8 33.5c-.9 1.1-6.3-4.2-6.3-4.2s7.5 2.7 6.3 4.2z" fill="#9c3"/><path d="m48.2 32.6s5.2-1.1 5.2.4-5.2-.4-5.2-.4z" fill="#9c3"/><path d="m52.5 37.5s.8-4.6 2.1-4-2.1 4-2.1 4z" fill="#9c3"/><path d="m60.8 24.9s-.3 6.2-2 5.8 2-5.8 2-5.8z" fill="#9c3"/><path d="m63.9 26.8s-3 4.1-4 2.9c-1.1-1.2 4-2.9 4-2.9z" fill="#9c3"/><path d="m57.4 26.1s2.4 4 1 4.4c-1.3.5-1-4.4-1-4.4z" fill="#539b00"/><path d="m53.8 29s2.8 3.8 1.4 4.3c-1.4.4-1.4-4.3-1.4-4.3z" fill="#9c3"/><path d="m63 38.5s-3.8-3.3-4.6-1.9 4.6 1.9 4.6 1.9z" fill="#9c3"/><path d="m59.3 41.2s-.1-5.6-1.9-4.7 1.9 4.7 1.9 4.7z" fill="#9c3"/><path d="m60.1 32.2s-4.1 2.4-3.1 3.6c1.1 1.3 3.1-3.6 3.1-3.6z" fill="#9c3"/><path d="m56.7 40s.9-4-.1-3.9.1 3.9.1 3.9z" fill="#9c3"/><path d="m62.6 31.2s-2.4-2.2-3.6-1.1 3.6 1.1 3.6 1.1z" fill="#9c3"/><path d="m55.1 27.3s3.9 2.9 2.5 3.7-2.5-3.7-2.5-3.7z" fill="#9c3"/><path d="m53.2 17s4.2 4.7 2.5 5.3c-1.7.7-2.5-5.3-2.5-5.3z" fill="#539b00"/><path d="m60 33.4s-.7-3.9-2.3-2.7 2.3 2.7 2.3 2.7z" fill="#9c3"/><path d="m60.6 21.5s-4.6.2-4.7 1.9c-.1 1.8 4.7-1.9 4.7-1.9z" fill="#9c3"/><path d="m57.6 16.2s-3 3.5-1.7 4.8 1.7-4.8 1.7-4.8z" fill="#9c3"/><path d="m55.1 22s-2.2 4.9 0 5.3 0-5.3 0-5.3z" fill="#9c3"/><path d="m26.4 25.7s5.7-.2 5.6 1.3c-.2 1.6-5.6-1.3-5.6-1.3z" fill="#9c3"/><path d="m27.2 42.1s3.3 3.1 4 1.9-4-1.9-4-1.9z" fill="#539b00"/><path d="m25.1 30.5s4.8-1.5 5-.1-5 .1-5 .1z" fill="#539b00"/><path d="m27.5 33s3.1-4 3.8-2.4c.7 1.5-3.8 2.4-3.8 2.4z" fill="#9c3"/><path d="m25.1 40.3s4.3-4.5 5.3-3.1c1.1 1.4-5.3 3.1-5.3 3.1z" fill="#539b00"/><path d="m28.8 26.9s3.6 2.1 2.3 3.5c-1.3 1.5-2.3-3.5-2.3-3.5z" fill="#9c3"/><path d="m36 22.1s-4.6 2.2-3.8 4 3.8-4 3.8-4z" fill="#539b00"/><path d="m31 25h2v9h-2z" fill="#539b00"/><path d="m31 48h2v1h-2z" fill="#9c3"/><path d="m29.1 39.1s1.2 5.4 2.7 4.8c1.3-.5-2.7-4.8-2.7-4.8z" fill="#9c3"/><path d="m27.7 51s4.1-.7 3.6-1.9-3.6 1.9-3.6 1.9z" fill="#9c3"/><path d="m31 35.7c-.9 1.1-6.3-4.2-6.3-4.2s7.6 2.7 6.3 4.2z" fill="#9c3"/><path d="m24.2 36.6s5.2-1.1 5.2.4-5.2-.4-5.2-.4z" fill="#9c3"/><path d="m28.5 41.5s.8-4.6 2.1-4-2.1 4-2.1 4z" fill="#9c3"/><path d="m36.9 26.7s-.3 6.2-2 5.8 2-5.8 2-5.8z" fill="#9c3"/><path d="m40 28.6s-3 4.1-4 2.9 4-2.9 4-2.9z" fill="#9c3"/><path d="m33.6 27.9s2.4 4 1 4.4c-1.4.5-1-4.4-1-4.4z" fill="#539b00"/><path d="m29.8 33s2.8 3.8 1.4 4.3c-1.4.4-1.4-4.3-1.4-4.3z" fill="#9c3"/><path d="m29.2 21s4.2 4.7 2.5 5.3c-1.7.7-2.5-5.3-2.5-5.3z" fill="#9c3"/><path d="m36 37.4s-.7-3.9-2.3-2.7 2.3 2.7 2.3 2.7z" fill="#9c3"/><path d="m36.6 25.5s-4.6.2-4.7 1.9 4.7-1.9 4.7-1.9z" fill="#9c3"/><path d="m33.6 20.2s-3 3.5-1.7 4.8 1.7-4.8 1.7-4.8z" fill="#9c3"/><path d="m18.4 29.7s5.7-.2 5.6 1.3c-.2 1.6-5.6-1.3-5.6-1.3z" fill="#9c3"/><path d="m30.8 62.8s-4.4-1-4.4.4 4.4-.4 4.4-.4z" fill="#9c3"/><path d="m23.1 52.7c0-1.3-6.8-.7-6.8-.7s6.8 2.5 6.8.7z" fill="#9c3"/><path d="m18.2 50.1s3.3 3.1 4 1.9-4-1.9-4-1.9z" fill="#539b00"/><path d="m16.9 31.3s4.9 1.1 4.4 2.4-4.4-2.4-4.4-2.4z" fill="#539b00"/><path d="m29.5 43.1s-5.3-.4-4.8 1.1c.5 1.6 4.8-1.1 4.8-1.1z" fill="#539b00"/><path d="m19.5 37s3.1-4 3.8-2.4c.7 1.5-3.8 2.4-3.8 2.4z" fill="#9c3"/><path d="m25.2 33.8s1.2 4.6-.2 4.5c-1.5-.1.2-4.5.2-4.5z" fill="#9c3"/><path d="m17.1 44.3s4.3-4.5 5.3-3.1c1.1 1.4-5.3 3.1-5.3 3.1z" fill="#539b00"/><path d="m28 26.1s-4.6 2.2-3.8 4 3.8-4 3.8-4z" fill="#539b00"/><path d="m23 29h2v51h-2z" fill="#539b00"/><path d="m23 43h2v1h-2z" fill="#9c3"/><path d="m23 49h2v1h-2z" fill="#9c3"/><path d="m23 52h2v1h-2z" fill="#9c3"/><path d="m23 46h2v1h-2z" fill="#9c3"/><path d="m23 37h2v1h-2z" fill="#9c3"/><path d="m23 40h2v1h-2z" fill="#9c3"/><path d="m23 34h2v1h-2z" fill="#9c3"/><path d="m23 52h2v1h-2z" fill="#9c3"/><path d="m23 58h2v1h-2z" fill="#9c3"/><path d="m23 61h2v1h-2z" fill="#9c3"/><path d="m23 55h2v1h-2z" fill="#9c3"/><path d="m23 64h2v1h-2z" fill="#9c3"/><path d="m23 70h2v1h-2z" fill="#9c3"/><path d="m23 73h2v1h-2z" fill="#9c3"/><path d="m23 76h2v1h-2z" fill="#9c3"/><path d="m23 67h2v1h-2z" fill="#9c3"/><path d="m24.9 63.1c.6 1.1 6.2-2.9 6.2-2.9s-7.1 1.4-6.2 2.9z" fill="#539b00"/><path d="m29.9 66s-3.8-4.1-4.8-2.8c-.9 1.2 4.8 2.8 4.8 2.8z" fill="#9c3"/><path d="m26.4 67s-.7-4.1-1.9-3.6 1.9 3.6 1.9 3.6z" fill="#9c3"/><path d="m20.3 47.6s1.2 5.4 2.7 4.8c1.4-.6-2.7-4.8-2.7-4.8z" fill="#9c3"/><path d="m19.7 55s4.1-.7 3.6-1.9-3.6 1.9-3.6 1.9z" fill="#9c3"/><path d="m27 59.2s-3.3 2.7-2.2 3.4c1.1.6 2.2-3.4 2.2-3.4z" fill="#9c3"/><path d="m22.8 41.5c-.9 1.1-6.3-4.2-6.3-4.2s7.5 2.7 6.3 4.2z" fill="#9c3"/><path d="m16.2 40.6s5.2-1.1 5.2.4-5.2-.4-5.2-.4z" fill="#9c3"/><path d="m20.5 45.5s.8-4.6 2.1-4-2.1 4-2.1 4z" fill="#9c3"/><path d="m28.8 32.9s-.3 6.2-2 5.8 2-5.8 2-5.8z" fill="#9c3"/><path d="m31.9 34.8s-3 4.1-4 2.9c-1.1-1.2 4-2.9 4-2.9z" fill="#9c3"/><path d="m25.4 34.1s2.4 4 1 4.4c-1.3.5-1-4.4-1-4.4z" fill="#539b00"/><path d="m21.8 37s2.8 3.8 1.4 4.3c-1.4.4-1.4-4.3-1.4-4.3z" fill="#9c3"/><path d="m27.3 49.2s-.1-5.6-1.9-4.7 1.9 4.7 1.9 4.7z" fill="#9c3"/><path d="m28.1 40.2s-4.1 2.4-3.1 3.6c1.1 1.3 3.1-3.6 3.1-3.6z" fill="#9c3"/><path d="m24.7 48s.9-4-.1-3.9.1 3.9.1 3.9z" fill="#9c3"/><path d="m30.6 39.2s-2.4-2.2-3.6-1.1c-1.2 1.2 3.6 1.1 3.6 1.1z" fill="#9c3"/><path d="m23.1 35.3s3.9 2.9 2.5 3.7-2.5-3.7-2.5-3.7z" fill="#9c3"/><path d="m21.2 25s4.2 4.7 2.5 5.3c-1.7.7-2.5-5.3-2.5-5.3z" fill="#9c3"/><path d="m28 41.4s-.7-3.9-2.3-2.7 2.3 2.7 2.3 2.7z" fill="#9c3"/><path d="m28.6 29.5s-4.6.2-4.7 1.9c-.1 1.8 4.7-1.9 4.7-1.9z" fill="#9c3"/><path d="m25.6 24.2s-3 3.5-1.7 4.8 1.7-4.8 1.7-4.8z" fill="#9c3"/><path d="m23.1 30s-2.2 4.9 0 5.3c2.2.5 0-5.3 0-5.3z" fill="#9c3"/><path d="m26.4 33.7s5.7-.2 5.6 1.3c-.2 1.6-5.6-1.3-5.6-1.3z" fill="#9c3"/><path d="m38.8 62.7s-4.4-1-4.4.4c-.1 1.3 4.4-.4 4.4-.4z" fill="#539b00"/><path d="m31.1 56.7c0-1.3-6.8-.7-6.8-.7s6.8 2.5 6.8.7z" fill="#9c3"/><path d="m26.2 54.1s3.3 3.1 4 1.9-4-1.9-4-1.9z" fill="#539b00"/><path d="m25.1 38.5s4.8-1.5 5-.1-5 .1-5 .1z" fill="#539b00"/><path d="m37.5 47.1s-5.3-.4-4.8 1.1c.5 1.6 4.8-1.1 4.8-1.1z" fill="#539b00"/><path d="m27.5 41s3.1-4 3.8-2.4c.7 1.5-3.8 2.4-3.8 2.4z" fill="#9c3"/><path d="m33.2 37.8s1.2 4.6-.2 4.5c-1.5-.1.2-4.5.2-4.5z" fill="#9c3"/><path d="m25.1 48.3s4.3-4.5 5.3-3.1c1.1 1.4-5.3 3.1-5.3 3.1z" fill="#539b00"/><path d="m36 30.1s-4.6 2.2-3.8 4 3.8-4 3.8-4z" fill="#539b00"/><path d="m31 33h2v51h-2z" fill="#539b00"/><g fill="#9c3"><path d="m31 47h2v1h-2z"/><path d="m31 53h2v1h-2z"/><path d="m31 56h2v1h-2z"/><path d="m31 50h2v1h-2z"/><path d="m31 41h2v1h-2z"/><path d="m31 44h2v1h-2z"/><path d="m31 38h2v1h-2z"/><path d="m31 56h2v1h-2z"/><path d="m31 62h2v1h-2z"/><path d="m31 65h2v1h-2z"/><path d="m31 59h2v1h-2z"/><path d="m31 68h2v1h-2z"/><path d="m31 74h2v1h-2z"/><path d="m31 77h2v1h-2z"/><path d="m31 80h2v1h-2z"/><path d="m31 71h2v1h-2z"/><path d="m32.8 63c.6 1.1 6.2-2.9 6.2-2.9s-7.1 1.4-6.2 2.9z"/><path d="m37.8 65.8s-3.8-4.1-4.8-2.8c-.9 1.2 4.8 2.8 4.8 2.8z"/><path d="m28.3 51.6s1.2 5.4 2.7 4.8c1.4-.6-2.7-4.8-2.7-4.8z"/><path d="m27.7 59s4.1-.7 3.6-1.9-3.6 1.9-3.6 1.9z"/><path d="m34.9 59s-3.3 2.7-2.2 3.4 2.2-3.4 2.2-3.4z"/><path d="m30.8 45.5c-.9 1.1-6.3-4.2-6.3-4.2s7.5 2.7 6.3 4.2z"/><path d="m24.2 44.6s5.2-1.1 5.2.4-5.2-.4-5.2-.4z"/><path d="m28.5 49.5s.8-4.6 2.1-4-2.1 4-2.1 4z"/><path d="m39.9 38.8s-3 4.1-4 2.9c-1.1-1.2 4-2.9 4-2.9z"/></g><path d="m33.4 38.1s2.4 4 1 4.4c-1.3.5-1-4.4-1-4.4z" fill="#539b00"/><path d="m29.8 41s2.8 3.8 1.4 4.3c-1.4.4-1.4-4.3-1.4-4.3z" fill="#9c3"/><path d="m39 50.5s-3.8-3.3-4.6-1.9 4.6 1.9 4.6 1.9z" fill="#9c3"/><path d="m35.3 53.2s-.1-5.6-1.9-4.7 1.9 4.7 1.9 4.7z" fill="#9c3"/><path d="m36.1 44.2s-4.1 2.4-3.1 3.6c1.1 1.3 3.1-3.6 3.1-3.6z" fill="#9c3"/><path d="m32.7 52s.9-4-.1-3.9.1 3.9.1 3.9z" fill="#9c3"/><path d="m31.1 39.3s3.9 2.9 2.5 3.7-2.5-3.7-2.5-3.7z" fill="#9c3"/><path d="m29.2 29s4.2 4.7 2.5 5.3c-1.7.7-2.5-5.3-2.5-5.3z" fill="#9c3"/><path d="m36 45.4s-.7-3.9-2.3-2.7 2.3 2.7 2.3 2.7z" fill="#9c3"/><path d="m36.6 33.5s-4.6.2-4.7 1.9c-.1 1.8 4.7-1.9 4.7-1.9z" fill="#9c3"/><path d="m33.6 28.2s-3 3.5-1.7 4.8c1.3 1.2 1.7-4.8 1.7-4.8z" fill="#9c3"/><path d="m31.1 34s-2.2 4.9 0 5.3c2.2.5 0-5.3 0-5.3z" fill="#9c3"/><path d="m34.4 29.7s5.7-.2 5.6 1.3c-.2 1.6-5.6-1.3-5.6-1.3z" fill="#9c3"/><path d="m46.8 57.9s-4.5-.3-4.3 1.1c.3 1.3 4.3-1.1 4.3-1.1z" fill="#9c3"/><path d="m39.1 52.7c0-1.3-6.8-.7-6.8-.7s6.8 2.5 6.8.7z" fill="#9c3"/><path d="m34.2 50.1s3.3 3.1 4 1.9-4-1.9-4-1.9z" fill="#539b00"/><path d="m32.9 31.3s4.9 1.1 4.4 2.4-4.4-2.4-4.4-2.4z" fill="#9c3"/><path d="m33.1 34.5s4.8-1.5 5-.1c.3 1.4-5 .1-5 .1z" fill="#539b00"/><path d="m45.5 43.1s-5.3-.4-4.8 1.1c.5 1.6 4.8-1.1 4.8-1.1z" fill="#539b00"/><path d="m35.5 37s3.1-4 3.8-2.4c.7 1.5-3.8 2.4-3.8 2.4z" fill="#9c3"/><path d="m41.2 33.8s1.2 4.6-.2 4.5.2-4.5.2-4.5z" fill="#9c3"/><path d="m33.1 44.3s4.3-4.5 5.3-3.1c1.1 1.4-5.3 3.1-5.3 3.1z" fill="#539b00"/><path d="m36.1 30.8s3.6 2.1 2.3 3.5-2.3-3.5-2.3-3.5z" fill="#9c3"/><path d="m44 26.1s-4.6 2.2-3.8 4 3.8-4 3.8-4z" fill="#9c3"/><path d="m39 29h2v51h-2z" fill="#539b00"/><path d="m39 43h2v1h-2z" fill="#9c3"/><path d="m39 49h2v1h-2z" fill="#9c3"/><path d="m39 52h2v1h-2z" fill="#9c3"/><path d="m39 46h2v1h-2z" fill="#9c3"/><path d="m39 37h2v1h-2z" fill="#9c3"/><path d="m39 40h2v1h-2z" fill="#9c3"/><path d="m39 34h2v1h-2z" fill="#9c3"/><path d="m39 52h2v1h-2z" fill="#9c3"/><path d="m39 58h2v1h-2z" fill="#9c3"/><path d="m39 61h2v1h-2z" fill="#9c3"/><path d="m39 55h2v1h-2z" fill="#9c3"/><path d="m39 64h2v1h-2z" fill="#9c3"/><path d="m39 70h2v1h-2z" fill="#9c3"/><path d="m39 73h2v1h-2z" fill="#9c3"/><path d="m39 76h2v1h-2z" fill="#9c3"/><path d="m39 67h2v1h-2z" fill="#9c3"/><path d="m41 59.1c.8 1 5.6-3.9 5.6-3.9s-6.7 2.6-5.6 3.9z" fill="#9c3"/><path d="m46.4 61.1s-4.4-3.4-5.1-2 5.1 2 5.1 2z" fill="#539b00"/><path d="m43.1 62.7s-1.4-4-2.4-3.3c-1.1.7 2.4 3.3 2.4 3.3z" fill="#9c3"/><path d="m36.3 47.6s1.2 5.4 2.7 4.8c1.4-.6-2.7-4.8-2.7-4.8z" fill="#9c3"/><path d="m35.7 55s4.1-.7 3.6-1.9-3.6 1.9-3.6 1.9z" fill="#9c3"/><path d="m42.4 54.9s-2.8 3.2-1.6 3.7 1.6-3.7 1.6-3.7z" fill="#9c3"/><path d="m38.8 41.5c-.9 1.1-6.3-4.2-6.3-4.2s7.5 2.7 6.3 4.2z" fill="#9c3"/><path d="m32.2 40.6s5.2-1.1 5.2.4-5.2-.4-5.2-.4z" fill="#9c3"/><path d="m36.5 45.5s.8-4.6 2.1-4-2.1 4-2.1 4z" fill="#9c3"/><path d="m41.4 34.1s2.4 4 1 4.4c-1.3.5-1-4.4-1-4.4z" fill="#539b00"/><path d="m37.8 37s2.8 3.8 1.4 4.3c-1.4.4-1.4-4.3-1.4-4.3z" fill="#9c3"/><path d="m47 46.5s-3.8-3.3-4.6-1.9 4.6 1.9 4.6 1.9z" fill="#9c3"/><path d="m43.3 49.2s-.1-5.6-1.9-4.7 1.9 4.7 1.9 4.7z" fill="#9c3"/><path d="m44.1 40.2s-4.1 2.4-3.1 3.6c1.1 1.3 3.1-3.6 3.1-3.6z" fill="#9c3"/><path d="m40.7 48s.9-4-.1-3.9.1 3.9.1 3.9z" fill="#9c3"/><path d="m46.6 39.2s-2.4-2.2-3.6-1.1c-1.2 1.2 3.6 1.1 3.6 1.1z" fill="#9c3"/><path d="m39.1 35.3s3.9 2.9 2.5 3.7-2.5-3.7-2.5-3.7z" fill="#9c3"/><path d="m37.2 25s4.2 4.7 2.5 5.3c-1.7.7-2.5-5.3-2.5-5.3z" fill="#539b00"/><path d="m44 41.4s-.7-3.9-2.3-2.7 2.3 2.7 2.3 2.7z" fill="#9c3"/><path d="m44.6 29.5s-4.6.2-4.7 1.9c-.1 1.8 4.7-1.9 4.7-1.9z" fill="#9c3"/><path d="m41.6 24.2s-3 3.5-1.7 4.8 1.7-4.8 1.7-4.8z" fill="#9c3"/><path d="m39.1 30s-2.2 4.9 0 5.3c2.2.5 0-5.3 0-5.3z" fill="#9c3"/></svg>