<svg xmlns:xlink="http://www.w3.org/1999/xlink"  enable-background="new 0 0 32 72" height="72" viewBox="0 0 32 72" width="32" xmlns="http://www.w3.org/2000/svg"><path d="m10.4 9.7s5.7-.2 5.6 1.3-5.6-1.3-5.6-1.3z" fill="#9c3"/><path d="m15.1 32.7c0-1.3-6.8-.7-6.8-.7s6.8 2.5 6.8.7z" fill="#9c3"/><path d="m11.2 26.1s3.3 3.1 4 1.9-4-1.9-4-1.9z" fill="#539b00"/><path d="m8.9 11.3s4.9 1.1 4.4 2.4c-.5 1.4-4.4-2.4-4.4-2.4z" fill="#9c3"/><path d="m9.1 14.5s4.8-1.5 5-.1c.3 1.4-5 .1-5 .1z" fill="#539b00"/><path d="m11.5 17s3.1-4 3.8-2.4-3.8 2.4-3.8 2.4z" fill="#9c3"/><path d="m9.1 24.3s4.3-4.5 5.3-3.1-5.3 3.1-5.3 3.1z" fill="#539b00"/><path d="m12.8 10.9s3.6 2.1 2.3 3.5-2.3-3.5-2.3-3.5z" fill="#9c3"/><path d="m20 6.1s-4.6 2.2-3.8 4 3.8-4 3.8-4z" fill="#539b00"/><path d="m15 9h2v9h-2z" fill="#539b00"/><path d="m15 32h2v1h-2z" fill="#9c3"/><path d="m13.1 23.1s1.2 5.4 2.7 4.8c1.3-.5-2.7-4.8-2.7-4.8z" fill="#9c3"/><path d="m11.7 35s4.1-.7 3.6-1.9-3.6 1.9-3.6 1.9z" fill="#9c3"/><path d="m15 19.7c-.9 1.1-6.3-4.2-6.3-4.2s7.6 2.7 6.3 4.2z" fill="#9c3"/><path d="m8.2 20.6s5.2-1.1 5.2.4c0 1.6-5.2-.4-5.2-.4z" fill="#9c3"/><path d="m12.5 25.5s.8-4.6 2.1-4c1.3.5-2.1 4-2.1 4z" fill="#9c3"/><path d="m20.9 10.7s-.3 6.2-2 5.8 2-5.8 2-5.8z" fill="#9c3"/><path d="m24 12.6s-3 4.1-4 2.9 4-2.9 4-2.9z" fill="#9c3"/><path d="m17.6 11.9s2.4 4 1 4.4c-1.4.5-1-4.4-1-4.4z" fill="#539b00"/><path d="m13.8 17s2.8 3.8 1.4 4.3-1.4-4.3-1.4-4.3z" fill="#9c3"/><path d="m22.6 19.2s-2.4-2.2-3.6-1.1 3.6 1.1 3.6 1.1z" fill="#9c3"/><path d="m13.2 5s4.2 4.7 2.5 5.3-2.5-5.3-2.5-5.3z" fill="#9c3"/><path d="m20 21.4s-.7-3.9-2.3-2.7 2.3 2.7 2.3 2.7z" fill="#9c3"/><path d="m20.6 9.5s-4.6.2-4.7 1.9c-.1 1.8 4.7-1.9 4.7-1.9z" fill="#9c3"/><path d="m17.6 4.2s-3 3.5-1.7 4.8 1.7-4.8 1.7-4.8z" fill="#9c3"/><path d="m2.4 13.7s5.7-.2 5.6 1.3c-.2 1.6-5.6-1.3-5.6-1.3z" fill="#9c3"/><path d="m14.8 44.3s-4.4-1-4.4.4 4.4-.4 4.4-.4z" fill="#9c3"/><path d="m7.1 36.7c0-1.3-6.8-.7-6.8-.7s6.8 2.5 6.8.7z" fill="#9c3"/><path d="m2.2 34.1s3.3 3.1 4 1.9-4-1.9-4-1.9z" fill="#539b00"/><path d="m.9 15.3s4.9 1.1 4.4 2.4c-.5 1.4-4.4-2.4-4.4-2.4z" fill="#539b00"/><path d="m1.1 18.5s4.8-1.5 5-.1c.3 1.4-5 .1-5 .1z" fill="#9c3"/><path d="m13.5 27.1s-5.3-.4-4.8 1.1 4.8-1.1 4.8-1.1z" fill="#539b00"/><path d="m3.5 21s3.1-4 3.8-2.4c.7 1.5-3.8 2.4-3.8 2.4z" fill="#9c3"/><path d="m9.2 17.8s1.2 4.6-.2 4.5c-1.5-.1.2-4.5.2-4.5z" fill="#9c3"/><path d="m1.1 28.3s4.3-4.5 5.3-3.1-5.3 3.1-5.3 3.1z" fill="#539b00"/><path d="m4.1 14.8s3.6 2.1 2.3 3.5-2.3-3.5-2.3-3.5z" fill="#9c3"/><path d="m12 10.1s-4.6 2.2-3.8 4 3.8-4 3.8-4z" fill="#539b00"/><path d="m7 13h2v51h-2z" fill="#539b00"/><path d="m7 27h2v1h-2z" fill="#9c3"/><path d="m7 33h2v1h-2z" fill="#9c3"/><path d="m7 36h2v1h-2z" fill="#9c3"/><path d="m7 30h2v1h-2z" fill="#9c3"/><path d="m7 21h2v1h-2z" fill="#9c3"/><path d="m7 24h2v1h-2z" fill="#9c3"/><path d="m7 18h2v1h-2z" fill="#9c3"/><path d="m7 36h2v1h-2z" fill="#9c3"/><path d="m7 42h2v1h-2z" fill="#9c3"/><path d="m7 45h2v1h-2z" fill="#9c3"/><path d="m7 39h2v1h-2z" fill="#9c3"/><path d="m7 48h2v1h-2z" fill="#9c3"/><path d="m7 54h2v1h-2z" fill="#9c3"/><path d="m7 57h2v1h-2z" fill="#9c3"/><path d="m7 60h2v1h-2z" fill="#9c3"/><path d="m7 51h2v1h-2z" fill="#9c3"/><path d="m8.8 44.6c.6 1.1 6.2-2.9 6.2-2.9s-7.1 1.4-6.2 2.9z" fill="#539b00"/><path d="m13.8 47.4s-3.8-4.1-4.8-2.8 4.8 2.8 4.8 2.8z" fill="#9c3"/><path d="m10.3 48.4s-.7-4.1-1.9-3.6 1.9 3.6 1.9 3.6z" fill="#9c3"/><path d="m4.3 31.6s1.2 5.4 2.7 4.8c1.4-.6-2.7-4.8-2.7-4.8z" fill="#9c3"/><path d="m3.7 39s4.1-.7 3.6-1.9-3.6 1.9-3.6 1.9z" fill="#9c3"/><path d="m10.9 40.6s-3.3 2.7-2.2 3.4 2.2-3.4 2.2-3.4z" fill="#9c3"/><path d="m6.8 25.5c-.9 1.1-6.3-4.2-6.3-4.2s7.5 2.7 6.3 4.2z" fill="#9c3"/><path d="m.2 24.6s5.2-1.1 5.2.4c0 1.6-5.2-.4-5.2-.4z" fill="#9c3"/><path d="m4.5 29.5s.8-4.6 2.1-4c1.3.5-2.1 4-2.1 4z" fill="#9c3"/><path d="m12.8 16.9s-.3 6.2-2 5.8 2-5.8 2-5.8z" fill="#9c3"/><path d="m15.9 18.8s-3 4.1-4 2.9c-1.1-1.2 4-2.9 4-2.9z" fill="#9c3"/><path d="m9.4 18.1s2.4 4 1 4.4c-1.3.5-1-4.4-1-4.4z" fill="#539b00"/><path d="m5.8 21s2.8 3.8 1.4 4.3-1.4-4.3-1.4-4.3z" fill="#9c3"/><path d="m11.3 33.2s-.1-5.6-1.9-4.7 1.9 4.7 1.9 4.7z" fill="#9c3"/><path d="m12.1 24.2s-4.1 2.4-3.1 3.6c1.1 1.3 3.1-3.6 3.1-3.6z" fill="#9c3"/><path d="m8.7 32s.9-4-.1-3.9.1 3.9.1 3.9z" fill="#9c3"/><path d="m7.1 19.3s3.9 2.9 2.5 3.7-2.5-3.7-2.5-3.7z" fill="#9c3"/><path d="m5.2 9s4.2 4.7 2.5 5.3-2.5-5.3-2.5-5.3z" fill="#9c3"/><path d="m12 25.4s-.7-3.9-2.3-2.7 2.3 2.7 2.3 2.7z" fill="#9c3"/><path d="m12.6 13.5s-4.6.2-4.7 1.9c-.1 1.8 4.7-1.9 4.7-1.9z" fill="#9c3"/><path d="m9.6 8.2s-3 3.5-1.7 4.8 1.7-4.8 1.7-4.8z" fill="#9c3"/><path d="m7.1 14s-2.2 4.9 0 5.3 0-5.3 0-5.3z" fill="#9c3"/><path d="m10.4 17.7s5.7-.2 5.6 1.3c-.2 1.6-5.6-1.3-5.6-1.3z" fill="#9c3"/><path d="m22.8 48.3s-4.4-1-4.4.4 4.4-.4 4.4-.4z" fill="#539b00"/><path d="m15.1 40.7c0-1.3-6.8-.7-6.8-.7s6.8 2.5 6.8.7z" fill="#9c3"/><path d="m10.2 38.1s3.3 3.1 4 1.9-4-1.9-4-1.9z" fill="#539b00"/><path d="m9.1 22.5s4.8-1.5 5-.1c.3 1.4-5 .1-5 .1z" fill="#539b00"/><path d="m21.5 31.1s-5.3-.4-4.8 1.1c.5 1.6 4.8-1.1 4.8-1.1z" fill="#539b00"/><path d="m11.5 25s3.1-4 3.8-2.4c.7 1.5-3.8 2.4-3.8 2.4z" fill="#9c3"/><path d="m17.2 21.8s1.2 4.6-.2 4.5c-1.5-.1.2-4.5.2-4.5z" fill="#9c3"/><path d="m9.1 32.3s4.3-4.5 5.3-3.1-5.3 3.1-5.3 3.1z" fill="#539b00"/><path d="m20 14.1s-4.6 2.2-3.8 4 3.8-4 3.8-4z" fill="#539b00"/><path d="m15 17h2v51h-2z" fill="#539b00"/><g fill="#9c3"><path d="m15 31h2v1h-2z"/><path d="m15 37h2v1h-2z"/><path d="m15 40h2v1h-2z"/><path d="m15 34h2v1h-2z"/><path d="m15 25h2v1h-2z"/><path d="m15 28h2v1h-2z"/><path d="m15 22h2v1h-2z"/><path d="m15 40h2v1h-2z"/><path d="m15 46h2v1h-2z"/><path d="m15 49h2v1h-2z"/><path d="m15 43h2v1h-2z"/><path d="m15 52h2v1h-2z"/><path d="m15 58h2v1h-2z"/><path d="m15 61h2v1h-2z"/><path d="m15 64h2v1h-2z"/><path d="m15 55h2v1h-2z"/><path d="m16.8 48.6c.6 1.1 6.2-2.9 6.2-2.9s-7.1 1.4-6.2 2.9z"/><path d="m21.8 51.4s-3.8-4.1-4.8-2.8 4.8 2.8 4.8 2.8z"/><path d="m12.3 35.6s1.2 5.4 2.7 4.8c1.4-.6-2.7-4.8-2.7-4.8z"/><path d="m11.7 43s4.1-.7 3.6-1.9-3.6 1.9-3.6 1.9z"/><path d="m18.9 44.6s-3.3 2.7-2.2 3.4 2.2-3.4 2.2-3.4z"/><path d="m14.8 29.5c-.9 1.1-6.3-4.2-6.3-4.2s7.5 2.7 6.3 4.2z"/><path d="m8.2 28.6s5.2-1.1 5.2.4c0 1.6-5.2-.4-5.2-.4z"/><path d="m12.5 33.5s.8-4.6 2.1-4c1.3.5-2.1 4-2.1 4z"/><path d="m23.9 22.8s-3 4.1-4 2.9c-1.1-1.2 4-2.9 4-2.9z"/></g><path d="m17.4 22.1s2.4 4 1 4.4c-1.3.5-1-4.4-1-4.4z" fill="#539b00"/><path d="m13.8 25s2.8 3.8 1.4 4.3-1.4-4.3-1.4-4.3z" fill="#9c3"/><path d="m23 34.5s-3.8-3.3-4.6-1.9c-.8 1.5 4.6 1.9 4.6 1.9z" fill="#9c3"/><path d="m19.3 37.2s-.1-5.6-1.9-4.7 1.9 4.7 1.9 4.7z" fill="#9c3"/><path d="m20.1 28.2s-4.1 2.4-3.1 3.6c1.1 1.3 3.1-3.6 3.1-3.6z" fill="#9c3"/><path d="m16.7 36s.9-4-.1-3.9.1 3.9.1 3.9z" fill="#9c3"/><path d="m22.6 27.2s-2.4-2.2-3.6-1.1 3.6 1.1 3.6 1.1z" fill="#9c3"/><path d="m15.1 23.3s3.9 2.9 2.5 3.7-2.5-3.7-2.5-3.7z" fill="#9c3"/><path d="m13.2 13s4.2 4.7 2.5 5.3c-1.7.7-2.5-5.3-2.5-5.3z" fill="#9c3"/><path d="m20 29.4s-.7-3.9-2.3-2.7 2.3 2.7 2.3 2.7z" fill="#9c3"/><path d="m20.6 17.5s-4.6.2-4.7 1.9c-.1 1.8 4.7-1.9 4.7-1.9z" fill="#9c3"/><path d="m17.6 12.2s-3 3.5-1.7 4.8 1.7-4.8 1.7-4.8z" fill="#9c3"/><path d="m15.1 18s-2.2 4.9 0 5.3 0-5.3 0-5.3z" fill="#9c3"/><path d="m18.4 13.7s5.7-.2 5.6 1.3c-.2 1.6-5.6-1.3-5.6-1.3z" fill="#9c3"/><path d="m30.8 41.9s-4.5-.3-4.3 1.1c.3 1.3 4.3-1.1 4.3-1.1z" fill="#9c3"/><path d="m23.1 36.7c0-1.3-6.8-.7-6.8-.7s6.8 2.5 6.8.7z" fill="#9c3"/><path d="m18.2 34.1s3.3 3.1 4 1.9-4-1.9-4-1.9z" fill="#539b00"/><path d="m16.9 15.3s4.9 1.1 4.4 2.4c-.5 1.4-4.4-2.4-4.4-2.4z" fill="#9c3"/><path d="m17.1 18.5s4.8-1.5 5-.1-5 .1-5 .1z" fill="#539b00"/><path d="m29.5 27.1s-5.3-.4-4.8 1.1c.5 1.6 4.8-1.1 4.8-1.1z" fill="#539b00"/><path d="m19.5 21s3.1-4 3.8-2.4c.7 1.5-3.8 2.4-3.8 2.4z" fill="#9c3"/><path d="m25.2 17.8s1.2 4.6-.2 4.5c-1.5-.1.2-4.5.2-4.5z" fill="#9c3"/><path d="m17.1 28.3s4.3-4.5 5.3-3.1c1.1 1.4-5.3 3.1-5.3 3.1z" fill="#539b00"/><path d="m20.1 14.8s3.6 2.1 2.3 3.5-2.3-3.5-2.3-3.5z" fill="#9c3"/><path d="m28 10.1s-4.6 2.2-3.8 4 3.8-4 3.8-4z" fill="#9c3"/><path d="m23 13h2v51h-2z" fill="#539b00"/><path d="m23 27h2v1h-2z" fill="#9c3"/><path d="m23 33h2v1h-2z" fill="#9c3"/><path d="m23 36h2v1h-2z" fill="#9c3"/><path d="m23 30h2v1h-2z" fill="#9c3"/><path d="m23 21h2v1h-2z" fill="#9c3"/><path d="m23 24h2v1h-2z" fill="#9c3"/><path d="m23 18h2v1h-2z" fill="#9c3"/><path d="m23 36h2v1h-2z" fill="#9c3"/><path d="m23 42h2v1h-2z" fill="#9c3"/><path d="m23 45h2v1h-2z" fill="#9c3"/><path d="m23 39h2v1h-2z" fill="#9c3"/><path d="m23 48h2v1h-2z" fill="#9c3"/><path d="m23 54h2v1h-2z" fill="#9c3"/><path d="m23 57h2v1h-2z" fill="#9c3"/><path d="m23 60h2v1h-2z" fill="#9c3"/><path d="m23 51h2v1h-2z" fill="#9c3"/><path d="m25 43.1c.8 1 5.6-3.9 5.6-3.9s-6.7 2.6-5.6 3.9z" fill="#9c3"/><path d="m30.4 45.1s-4.4-3.4-5.1-2 5.1 2 5.1 2z" fill="#539b00"/><path d="m27.1 46.7s-1.4-4-2.4-3.3c-1.1.7 2.4 3.3 2.4 3.3z" fill="#9c3"/><path d="m20.3 31.6s1.2 5.4 2.7 4.8c1.4-.6-2.7-4.8-2.7-4.8z" fill="#9c3"/><path d="m19.7 39s4.1-.7 3.6-1.9-3.6 1.9-3.6 1.9z" fill="#9c3"/><path d="m26.4 38.9s-2.8 3.2-1.6 3.7 1.6-3.7 1.6-3.7z" fill="#9c3"/><path d="m22.8 25.5c-.9 1.1-6.3-4.2-6.3-4.2s7.5 2.7 6.3 4.2z" fill="#9c3"/><path d="m16.2 24.6s5.2-1.1 5.2.4c0 1.6-5.2-.4-5.2-.4z" fill="#9c3"/><path d="m20.5 29.5s.8-4.6 2.1-4c1.3.5-2.1 4-2.1 4z" fill="#9c3"/><path d="m28.8 16.9s-.3 6.2-2 5.8 2-5.8 2-5.8z" fill="#9c3"/><path d="m31.9 18.8s-3 4.1-4 2.9c-1.1-1.2 4-2.9 4-2.9z" fill="#9c3"/><path d="m25.4 18.1s2.4 4 1 4.4c-1.3.5-1-4.4-1-4.4z" fill="#539b00"/><path d="m21.8 21s2.8 3.8 1.4 4.3c-1.4.4-1.4-4.3-1.4-4.3z" fill="#9c3"/><path d="m31 30.5s-3.8-3.3-4.6-1.9c-.8 1.5 4.6 1.9 4.6 1.9z" fill="#9c3"/><path d="m27.3 33.2s-.1-5.6-1.9-4.7 1.9 4.7 1.9 4.7z" fill="#9c3"/><path d="m28.1 24.2s-4.1 2.4-3.1 3.6c1.1 1.3 3.1-3.6 3.1-3.6z" fill="#9c3"/><path d="m24.7 32s.9-4-.1-3.9.1 3.9.1 3.9z" fill="#9c3"/><path d="m30.6 23.2s-2.4-2.2-3.6-1.1 3.6 1.1 3.6 1.1z" fill="#9c3"/><path d="m23.1 19.3s3.9 2.9 2.5 3.7-2.5-3.7-2.5-3.7z" fill="#9c3"/><path d="m21.2 9s4.2 4.7 2.5 5.3c-1.7.7-2.5-5.3-2.5-5.3z" fill="#539b00"/><path d="m28 25.4s-.7-3.9-2.3-2.7 2.3 2.7 2.3 2.7z" fill="#9c3"/><path d="m28.6 13.5s-4.6.2-4.7 1.9c-.1 1.8 4.7-1.9 4.7-1.9z" fill="#9c3"/><path d="m25.6 8.2s-3 3.5-1.7 4.8 1.7-4.8 1.7-4.8z" fill="#9c3"/><path d="m23.1 14s-2.2 4.9 0 5.3 0-5.3 0-5.3z" fill="#9c3"/></svg>