<svg xmlns:xlink="http://www.w3.org/1999/xlink"  enable-background="new 0 0 40 40" height="40" viewBox="0 0 40 40" width="40" xmlns="http://www.w3.org/2000/svg"><path d="m21.4 16.7c-8.5-1.9-14-9.5-16.8-7.2-4.4 3.6 5.4 12.9 15.1 15.1s22.4-2.3 20-7.4c-1-2.1-9.7 1.4-18.3-.5z" fill="#fc0"/><path d="m19.7 22.3c-7.3-1.6-14.6-7.3-15.9-11.6-1.6 4.2 7.2 12 15.9 13.9 9.6 2.1 22.2-2.2 20-7.3-1.7 4-11.9 6.8-20 5z" opacity=".15"/><path d="m18 20.6c-8-3.5-11.9-12.1-15-10.4-5.1 2.7 2.7 13.8 11.7 17.8s22.4 2.3 21-3.3c-.5-2.3-9.7-.5-17.7-4.1z" fill="#fc0"/><path d="m15.2 25.7c-6.8-3-12.9-10.1-13.3-14.5-2.5 3.8 4.6 13.2 12.8 16.8 9 4 22.2 2.3 21.1-3.1-2.5 3.5-13.1 4.2-20.6.8z" opacity=".15"/><path d="m15.1 24.1c-6.9-5.4-8.5-14.6-12-13.8-5.5 1.4-.8 14 7 20.1s21.2 7.7 21.2 2c.1-2.3-9.3-2.9-16.2-8.3z" fill="#fc0"/><path d="m11.2 28.4c-5.9-4.6-10-12.9-9.3-17.3-3.3 3 1.3 13.9 8.3 19.4 7.7 6.1 20.9 7.7 21.2 2.2-3.3 2.7-13.7.8-20.2-4.3z" opacity=".15"/><path d="m1.8 12.7 4.5-3.6-2.7-.9-1.8-2.7-1.8.9z" fill="#fc0"/></svg>