<svg xmlns:xlink="http://www.w3.org/1999/xlink"  enable-background="new 0 0 240 240" height="240" viewBox="0 0 240 240" width="240" xmlns="http://www.w3.org/2000/svg"><path d="m186 176.5c-30-21.5-53.9-11.4-89.5.9-39.4 13.7-62.4 38.6-44.5 51.2s49 6.5 82.5-4.2c31-9.8 70.7-34.1 51.5-47.9z" opacity=".2"/><path d="m123.9 149.1c.8 7.3 1 27.6 5.7 31.3 6 4.7 23.6-.2 23.8-4.9.2-4.8-4.9-6.2-6.8-6.3s-4.2 1.1-5-1 7.4-36.6 7.4-36.6z" fill="#762c07"/><path d="m123.9 149.1c.8 7.3 1 27.6 5.7 31.3 6 4.7 23.6-.2 23.8-4.9.2-4.8-4.9-6.2-6.8-6.3s-4.2 1.1-5-1 7.4-36.6 7.4-36.6z" opacity=".2"/><path d="m166 36.4s-.9-8.9 3.2-10.3 10.3 6.4 10.3 6.4-6.8 4.8-13.5 3.9z" fill="#762c07"/><path d="m166 36.4s-.9-8.9 3.2-10.3 10.3 6.4 10.3 6.4-6.8 4.8-13.5 3.9z" opacity=".2"/><path d="m196.8 31.4c-14.5-4.7-26 2.5-26 2.5s-10.8-6.3-26.8-1.6-13.7 7.7-29.2 7.6c-15.5 0-76.6 11.1-85.1 61.8s14.4 82.9 18.2 97.2c3.2 12.1-3 18.4 2.6 22.2 4.4 2.9 35.1.7 30.9-8.5-3.9-8.5-8-3.1-12-7.7-3.7-4.2 1.6-44.9 1.6-44.9s37 1.6 52.3-6c20-9.8 35-24.5 35-24.5s1.7 20 3.4 36.4c1.3 12.6-.2 20.2 7 23.9s17.8-2.4 19.7-4.7c2.3-2.9-1.1-6.7-3.4-7.4-2.4-.8-4 1.2-5-.9-.9-2.1 9.5-38.8 13.1-57.4s4.8-27 6.1-29.7 15.6-4.2 17-19.8c1.2-13-4.8-33.7-19.4-38.5z" fill="#762c07"/><path d="m64.2 146.7c6.2 21.3 18.3 60.5 19.9 67.9s-1.1 16.3 5.5 17.7 16.2-4 23.1-8c6.8-4 .2-8.8-2.8-9.9s-8.3 1.2-7.8-2.2 9.9-28.9 13.3-48.4 2.5-32.6 2.5-32.6z" fill="#762c07"/><path d="m81.4 212.6c-3.9-8.5-8-3.1-12-7.7-2.7-3.1-.6-25.8.7-37.7l-15.9-34.8s-2.9 37.7-.1 47.3c2.2 7.3 7.3 31.7 9.4 42.3 9.8-.7 20.5-3.7 17.9-9.4z" opacity=".2"/><path d="m45.1 105s-6.3 10.2.9 13.2 8.5-10.6 8.5-10.6z" opacity=".15"/><path d="m208.9 46.8c-2.6 1.1-13.2 3.4-13.5-6-.1-2.5 12.8-12.4 15.5-10.8s.8 15.7-2 16.8z" fill="#762c07"/><path d="m208.9 46.8c-2.6 1.1-13.2 3.4-13.5-6-.1-2.5 12.8-12.4 15.5-10.8s.8 15.7-2 16.8z" opacity=".15"/></svg>