<svg xmlns:xlink="http://www.w3.org/1999/xlink"  enable-background="new 0 0 240 240" height="240" viewBox="0 0 240 240" width="240" xmlns="http://www.w3.org/2000/svg"><path d="m67.1 224.1c30.1 21.4 53.9 11.2 89.4-1.3 39.3-13.8 62.3-38.7 44.3-51.3-18-12.5-49-6.3-82.5 4.5-30.8 10-70.5 34.4-51.2 48.1z" opacity=".2"/><path d="m49.6 69.2s-13.6-9.7-15.4-8.2c-1.8 1.6 2.7 20.9 2.7 20.9z" fill="#762c07"/><path d="m49.6 69.2s-13.6-9.7-15.4-8.2c-1.8 1.6 2.7 20.9 2.7 20.9z" opacity=".2"/><path d="m68.9 140.9c-1.4 14.7 9.5 58.7 7.7 63.9s-22 15.2-5 18.1 19.7-4.8 21.8-12.9c2-8.2 7.9-36.3 8.8-53.3s-31.7-32.2-33.3-15.8z" fill="#762c07"/><path d="m151.4 140.6c4 15 7.9 24 6.3 29.5s-16.3 12.2-7.5 15.9c8.8 3.6 19.3 1.6 21.1-5s9.7-43.8 12.5-52.6-34.6 3.9-32.4 12.2z" fill="#762c07"/><path d="m68.9 140.9c-1.4 14.7 9.5 58.7 7.7 63.9s-22 15.2-5 18.1 19.7-4.8 21.8-12.9c2-8.2 7.9-36.3 8.8-53.3s-31.7-32.2-33.3-15.8z" opacity=".2"/><path d="m151.4 140.6c4 15 7.9 24 6.3 29.5s-16.3 12.2-7.5 15.9c8.8 3.6 19.3 1.6 21.1-5s9.7-43.8 12.5-52.6-34.6 3.9-32.4 12.2z" opacity=".2"/><path d="m66.2 141.3c13.3 12.4 41.2 20.7 41.2 20.7s6 24.8 7 33.8 2.6 18.5-2.4 20.8c-5 2.4-22.3 7.7-9.6 14.2s23.7-1.3 27.6-7.1 11.3-20.2 13.4-39.9c2-19.7 2.7-33.6 2.7-33.6s14.5-1.1 25.6-5.9 17-11.3 17-11.3 1.1 39.9-1.4 44-22.3 11.9-8.4 15.6c15.9 4.3 23.6-1.6 24.9-5.9 1.4-4.3.7-7.3 5.2-17s11.3-29.2 12.9-51.9 1.8-59-27.9-72.6-46.7-1.4-60.8 1.4-21.3-2.3-37.2 5c-14.9 6.8-19.3 17-37.4 22s-10.7 50.7 7.6 67.7z" fill="#762c07"/><path d="m42.6 69.2c-11.4 7.8-19.5 22.9-19 30.6s1.8 10.2-1.4 13.8-13.2 14.1-6.3 23.1c6.8 9.1 22.9 12.2 35.1 6.3s26.5.7 41.3-16.6c11.8-13.8 5.2-49.7-9.3-56.5-20.8-9.5-34.7-4.5-40.4-.7z" fill="#762c07"/><path d="m91.4 131.8c3.3-3.8 5.1-9.4 5.8-15.5-1 4-2.6 7.6-4.9 10.3-9.5 11.1-18.8 12.3-27.5 13.4l1.4 1.4c1.1 1 2.3 2 3.6 3 6.9-1.3 14.2-4 21.6-12.6z" opacity=".2"/><path d="m66.8 83.6c-1.3-1.8-7.2-9.5-.8-12.4s15.4-5.9 18.9-.9 1.1 19.1-2.6 20c-3.8.9-15.5-6.7-15.5-6.7z" opacity=".15"/><path d="m83.4 74.2c.5.3 1 .6 1.4 1-.5-1.6-1.6-3.1-3.4-4.2-9-5.3-14.3 12.5-14.3 12.5s1.2-.6 3.4-.3c2-4.9 6.5-12.8 12.9-9z" opacity=".2"/><path d="m25.6 107s1.2-1.3-.1-3.3-1.7-2-1.7-2-.5 4 1.8 5.3z" fill="#2d3134"/><path d="m38.8 108.4s2-3 5.4-3.2c3.3-.2 5.5 1.4 5.5 1.4s-1.8 2.9-4.7 3.8c-2.8.9-6.2-2-6.2-2z" fill="#2d3134"/><path d="m41.9 117.7c-4.8-6.1-3.2-11.6-9.7-12.8-5.1-.9-6.3 1.8-8.1 5-.2 1.3-.8 2.5-1.9 3.8-3.2 3.6-13.2 14.1-6.3 23.1 5.2 6.9 15.8 10.4 25.9 9.1 4.7-2.3 8.3-5.5 9.3-9.8 3-13.7-4.5-12.3-9.2-18.4z" fill="#825012"/><path d="m14.7 123.3c-2 1.5-2.3 9.7.3 12.6 1.3 1.5 7.4 2 9.5-1.7 2-3.6 2.6-6.3 1.4-8s-9.3-4.4-11.2-2.9z" fill="#2d3134"/></svg>