<svg xmlns:xlink="http://www.w3.org/1999/xlink"  enable-background="new 0 0 56 48" height="48" viewBox="0 0 56 48" width="56" xmlns="http://www.w3.org/2000/svg"><path d="m31 20.5-21.9 11-2.1-1v-.5l22-11 2 1z" fill="#825012"/><path d="m9 31.5 22-11v-.5l-22 11z" opacity=".29"/><path d="m7 30.5 2 1v-.5l-2-1z" opacity=".11"/><path d="m28 21v23l24-12v-23z" fill="#825012"/><path d="m28 21v23l24-12v-23z" opacity=".29"/><path d="m30 25.5v15l20-10v-15z" fill="#f8ebcb"/><path d="m30 25.5v15l.5-.3v-4.2l6-3v4.2l.5-.2v-4.2l6-3v4.2l.5-.3v-4.2l6-3v4.2l.5-.3v-15zm13-6v4.8l-6 3v-4.8zm-12.5 6.3 6-3v4.8l-6 3zm0 9.8v-4.6l6-3v4.6zm6.5-3.2v-4.6l6-3v4.6zm12.5-6.3-6 3v-4.6l6-3zm-6-2v-4.8l6-3v4.7z" opacity=".2"/><path d="m8 34 20 10v-21l-20-10z" fill="#825012"/><path d="m8 14v.5l20 10v-.5z" opacity=".15"/><path d="m8 17v.5l20 10v-.5z" opacity=".15"/><path d="m8 20v.5l20 10v-.5z" opacity=".15"/><path d="m8 23v.5l20 10v-.5z" opacity=".15"/><path d="m8 26v.5l20 10v-.5z" opacity=".15"/><path d="m8 29v.5l20 10v-.5z" opacity=".15"/><path d="m8 32v.5l20 10v-.5z" opacity=".15"/><path d="m8 13v20.9l20 10.1v-21z" opacity=".11"/><path d="m21 39.5-6-3v-16l6 3z" opacity=".1"/><path d="m22 23-8-4v17l8 4z" fill="#baa794"/><path d="m16 36v-15l-1-.5v16l6 3v-1z" opacity=".3"/><g fill="#656565"><path d="m19 26 2 1v-3.5l-2-1z"/><path d="m21 28-2-1v3l1.7.8.3.2z"/><path d="m18 22-2-1v3.5l2 1z"/><path d="m18 26.5-2-1v3l2 1z"/></g><path d="m18 25.5-2-1v-.5l2 1z" opacity=".3"/><path d="m21 27-2-1v-.5l2 1z" opacity=".3"/><path d="m18 29.5-2-1v-.5l2 1z" opacity=".3"/><path d="m21 31-2-1v-.5l2 1z" opacity=".3"/><path d="m54 33-27.9 14-24.1-12v-1l6-3v2l20 10 24-12 2 1z" fill="#baa794"/><path d="m26 47 28-14v-1l-28 14z" opacity=".29"/><path d="m2 35 24 12v-1l-24-12z" opacity=".11"/><path d="m53 31.5-21.9 11-2.1-1v-.5l22-11 2 1z" fill="#825012"/><path d="m31 42.5 22-11v-.5l-22 11z" opacity=".29"/><path d="m29 41.5 2 1v-.5l-2-1z" opacity=".11"/><path d="m44 0h-10l-30 15v1h10l10 10 30-15v-1z" fill="#2d3134"/><path d="m24 25-10-10 30-15 10 10z" opacity=".2"/><path d="m24 25v1l30-15v-1z" opacity=".29"/><path d="m14 15h-10v1h10l10 10v-1z" opacity=".11"/><path d="m32.5 27.3v.3l2.5-1.2v-.4z" opacity=".5"/><path d="m32.5 32.3v.3l2.5-1.2v-.4z" opacity=".5"/><path d="m32.5 37.3v.3l2.5-1.2v-.4z" opacity=".5"/><path d="m39 24v.4l2.5-1.3v-.3z" opacity=".5"/><path d="m39 29v.4l2.5-1.3v-.3z" opacity=".5"/><path d="m39 34v.4l2.5-1.3v-.3z" opacity=".5"/><path d="m45.5 20.8v.3l2.5-1.2v-.4z" opacity=".5"/><path d="m45.5 25.8v.3l2.5-1.2v-.4z" opacity=".5"/><path d="m45.5 30.8v.3l2.5-1.2v-.4z" opacity=".5"/></svg>