<svg xmlns:xlink="http://www.w3.org/1999/xlink"  enable-background="new 0 0 16 24" height="24" viewBox="0 0 16 24" width="16" xmlns="http://www.w3.org/2000/svg"><path d="m7 19.5v-9l1-.5 1 .5v9l-1 .5z" fill="#825012"/><path d="m8 11 1-.5v9l-1 .5z" opacity=".29"/><path d="m7 10.5 1 .5v9l-1-.5z" opacity=".11"/><path d="m13 16.5v-9l1-.5 1 .5v9l-1 .5z" fill="#825012"/><path d="m14 8 1-.5v9l-1 .5z" opacity=".29"/><path d="m13 7.5 1 .5v9l-1-.5z" opacity=".11"/><path d="m1 16.5v-9l1-.5 1 .5v9l-1 .5z" fill="#825012"/><path d="m2 8 1-.5v9l-1 .5z" opacity=".29"/><path d="m1 7.5 1 .5v9l-1-.5z" opacity=".11"/><path d="m1 12.5v-8l7-3.5 7 3.5v8l-7 3.5z" fill="#baa794"/><path d="m1 8.5v.5l7 3.5 7-3.5v-.5l-7 3.5z" fill="#825012"/><path d="m8 8 7-3.5v8l-7 3.5z" opacity=".29"/><path d="m1 4.5 7 3.5v8l-7-3.5z" opacity=".11"/><path d="m0 4.5v-.5l8-4 8 4v.5l-8 4z" fill="#999"/><path d="m8 8 8-4v.5l-8 4z" opacity=".29"/><path d="m0 4 8 4v.5l-8-4z" opacity=".11"/><path d="m2.5 12v-.2l.5-.3 3 1.5v.3l-.5.2z" fill="#825012"/><path d="m5.5 13.2.5-.2v.3l-.5.2z" opacity=".29"/><path d="m2.5 11.8 3 1.5v.2l-3-1.5z" opacity=".11"/><path d="m3 11 3 1.5v.5l-3-1.5z" opacity=".4"/><path d="m2.5 8v-.2l.5-.3 3 1.5v.3l-.5.2z" fill="#825012"/><path d="m5.5 9.2.5-.2v.3l-.5.2z" opacity=".29"/><path d="m2.5 7.8 3 1.5v.2l-3-1.5z" opacity=".11"/><path d="m3 7 3 1.5v.5l-3-1.5z" opacity=".4"/></svg>