<svg xmlns:xlink="http://www.w3.org/1999/xlink"  enable-background="new 0 0 16 40" height="40" viewBox="0 0 16 40" width="16" xmlns="http://www.w3.org/2000/svg"><path d="m7 35.5v-9l1-.5 1 .5v9l-1 .5z" fill="#825012"/><path d="m8 27 1-.5v9l-1 .5z" opacity=".29"/><path d="m7 26.5 1 .5v9l-1-.5z" opacity=".11"/><path d="m13 32.5v-9l1-.5 1 .5v9l-1 .5z" fill="#825012"/><path d="m14 24 1-.5v9l-1 .5z" opacity=".29"/><path d="m13 23.5 1 .5v9l-1-.5z" opacity=".11"/><path d="m1 32.5v-9l1-.5 1 .5v9l-1 .5z" fill="#825012"/><path d="m2 24 1-.5v9l-1 .5z" opacity=".29"/><path d="m1 23.5 1 .5v9l-1-.5z" opacity=".11"/><path d="m1 29.5v-1l7-3.5 7 3.5v1l-7 3.5z" fill="#825012"/><path d="m1 28.5v-16l7-3.5 7 3.5v16l-7 3.5z" fill="#baa794"/><g fill="#825012"><path d="m1 24.5v.5l7 3.5 7-3.5v-.5l-7 3.5z"/><path d="m1 20.5v.5l7 3.5 7-3.5v-.5l-7 3.5z"/><path d="m1 16.5v.5l7 3.5 7-3.5v-.5l-7 3.5z"/><path d="m1 12.5v.5l7 3.5 7-3.5v-.5l-7 3.5z"/></g><path d="m8 16 7-3.5v17l-7 3.5z" opacity=".29"/><path d="m1 12.5 3.5-1.7 3.5 5.2v17l-7-3.5z" opacity=".11"/><path d="m0 30.5v-.5l1.5-.7 6 3v.5l-1.5.7z" fill="#825012"/><path d="m6 33 1.5-.7v.5l-1.5.7z" opacity=".29"/><path d="m0 30 6 3v.5l-6-3z" opacity=".11"/><path d="m3 29.5 3 1.5v.5l-3-1.5z" opacity=".5"/><path d="m3.5 15.5c0-.1 0-.1.1-.2-.3 0-.6.1-.6.5l3 1.5c0-.2-.1-.4-.2-.6z" fill="#baa794"/><path d="m5.3 16.2-1.7-.8h-.1c0 .1-.1.1-.1.2l2.3 1.2c0-.3-.1-.5-.4-.6z" opacity=".5"/><path d="m3.5 19.5c0-.1 0-.1.1-.2-.3 0-.6.1-.6.5l3 1.5c0-.2-.1-.4-.2-.6z" fill="#baa794"/><path d="m5.3 20.2-1.7-.8h-.1c0 .1-.1.1-.1.2l2.3 1.2c0-.3-.1-.5-.4-.6z" opacity=".5"/><path d="m3.5 23.5c0-.1 0-.1.1-.2-.3 0-.6.1-.6.5l3 1.5c0-.2-.1-.4-.2-.6z" fill="#baa794"/><path d="m5.3 24.2-1.7-.8h-.1c0 .1-.1.1-.1.2l2.3 1.2c0-.3-.1-.5-.4-.6z" opacity=".5"/><path d="m3.5 27.5c0-.1 0-.1.1-.2-.3 0-.6.1-.6.5l3 1.5c0-.2-.1-.4-.2-.6z" fill="#baa794"/><path d="m5.3 28.2-1.7-.8h-.1c0 .1-.1.1-.1.2l2.3 1.2c0-.3-.1-.5-.4-.6z" opacity=".5"/><path d="m11.4 6.8-6.9 3.4-4.5 2.4.4.2 4.1-1.9 3.7 5.9.7.2 6.9-3.4z" fill="#cc291f"/><path d="m11.4 6.8.2.3-6.9 3.4 4.2 6.5 6.9-3.4z" opacity=".29"/><path d="m8.9 17-4.4-6.8-4.5 2.4.4.2 4.1-1.9 3.7 5.9z" opacity=".11"/></svg>