<svg xmlns:xlink="http://www.w3.org/1999/xlink"  enable-background="new 0 0 56 48" height="48" viewBox="0 0 56 48" width="56" xmlns="http://www.w3.org/2000/svg"><path d="m29 21.5-21.9 11-2.1-1.1v-.5l22-10.9 2 1z" fill="#825012"/><path d="m7 32.5 22-11v-.5l-22 10.9z" opacity=".29"/><path d="m5 31.4 2 1.1v-.6l-2-1z" opacity=".11"/><path d="m26 22v23l24-12v-23z" fill="#825012"/><path d="m26 22v23l24-12v-23z" opacity=".29"/><path d="m28 26.5v15l20-10v-15z" fill="#f8ebcb"/><path d="m28 26.5v15l.5-.3v-4.2l6-3v4.2l.5-.2v-4.2l6-3v4.2l.5-.3v-4.2l6-3v4.2l.5-.3v-15zm13-6v4.8l-6 3v-4.8zm-12.5 6.3 6-3v4.8l-6 3zm0 9.8v-4.6l6-3v4.6zm6.5-3.2v-4.6l6-3v4.6zm12.5-6.3-6 3v-4.6l6-3zm-6-2v-4.8l6-3v4.7z" opacity=".2"/><path d="m6 35 20 10v-21l-12-10-8 1z" fill="#825012"/><path d="m6 15v.5l20 10v-.5z" opacity=".15"/><path d="m6 18v.5l20 10v-.5z" opacity=".15"/><path d="m6 21v.5l20 10v-.5z" opacity=".15"/><path d="m6 24v.5l20 10v-.5z" opacity=".15"/><path d="m6 27v.5l20 10v-.5z" opacity=".15"/><path d="m6 30v.5l20 10v-.5z" opacity=".15"/><path d="m6 33v.5l20 10v-.5z" opacity=".15"/><path d="m6 15v19.9l20 10.1v-21l-12-10z" opacity=".11"/><path d="m19 24.5-7-3.5v9.5l7 3.5z" fill="#baa794"/><g fill="#656565"><path d="m16 27.5 2 1v-3.5l-2-1z"/><path d="m18 29.5-2-1v3l1.7.8.3.2z"/><path d="m15 23.5-2-1v3.5l2 1z"/><path d="m15 28-2-1v3l2 1z"/></g><path d="m15 27-2-1v-.5l2 1z" opacity=".3"/><path d="m18 28.5-2-1v-.5l2 1z" opacity=".3"/><path d="m15 31-2-1v-.5l2 1z" opacity=".3"/><path d="m18 32.5-2-1v-.5l2 1z" opacity=".3"/><path d="m56 32-29.9 15-24.1-12v-1l4-2v2l20 10 24-12v-4l6 3z" fill="#baa794"/><path d="m26 47 30-15v-1l-30 15z" opacity=".29"/><path d="m2 35 24 12v-1l-24-12z" opacity=".11"/><path d="m51 32.5-21.9 11-2.1-1v-.5l22-11 2 1z" fill="#825012"/><path d="m29 43.5 22-11v-.5l-22 11z" opacity=".29"/><path d="m27 42.5 2 1v-.5l-2-1z" opacity=".11"/><path d="m44 0h-10l-30 15v1h10l10 10 30-15v-1z" fill="#2d3134"/><path d="m24 25-10-10 30-15 10 10z" opacity=".2"/><path d="m24 25v1l30-15v-1z" opacity=".29"/><path d="m14 15h-10v1h10l10 10v-1z" opacity=".11"/><path d="m30.5 28.3v.3l2.5-1.2v-.4z" opacity=".5"/><path d="m30.5 33.3v.3l2.5-1.2v-.4z" opacity=".5"/><path d="m30.5 38.3v.3l2.5-1.2v-.4z" opacity=".5"/><path d="m37 25v.4l2.5-1.3v-.3z" opacity=".5"/><path d="m37 30v.4l2.5-1.3v-.3z" opacity=".5"/><path d="m37 35v.4l2.5-1.3v-.3z" opacity=".5"/><path d="m43.5 21.8v.3l2.5-1.2v-.4z" opacity=".5"/><path d="m43.5 26.8v.3l2.5-1.2v-.4z" opacity=".5"/><path d="m43.5 31.8v.3l2.5-1.2v-.4z" opacity=".5"/></svg>