<svg xmlns:xlink="http://www.w3.org/1999/xlink"  enable-background="new 0 0 60 60" height="60" viewBox="0 0 60 60" width="60" xmlns="http://www.w3.org/2000/svg"><path d="m47.8 39.5c0 2.3.8 4.3 6 7.4-3.7 0-5.3-1.3-8.3-.1-3.1 1.2-5.4 1.7-6.7 1.7-5 0-9-4-9-9s4-9 9-9 9 4 9 9z" fill="#939"/><path d="m33.9 22.9c.5-1 .5-2.2 0-3.2-.7-1.3-2-1.9-3.5-1.9-.1-.2-.1-.3-.1-.5-1-1.9-3.4-2.5-5.4-1.5s-2.9 3.4-1.9 5.2c.1.2.2.3.3.4-.8 1.2-1.1 2.7-.4 3.9.5 1 1.5 1.6 2.6 1.9-.5 1-.5 2.2 0 3.2 1 1.9 3.4 2.5 5.4 1.5.7-.4 1.2-.9 1.6-1.5.7 0 1.4-.1 2.1-.4 2-1.1 2.9-3.4 1.9-5.3-.5-1-1.5-1.6-2.6-1.8z" fill="#539b00"/><ellipse cx="34.8" cy="36" opacity=".3" rx="4.3" ry="3" transform="matrix(.7071 -.7071 .7071 .7071 -15.2466 35.1291)"/><path d="m26.6 19.1 4.3 6.3 4.3 10-.8.2z" fill="#939"/><path d="m23 22.7c-.2-1.4-.9-2.7-2.2-3.5-1.6-1-3.5-.9-5-.1-.2-.1-.3-.3-.5-.5-2.3-1.3-5.4-.6-6.9 1.7s-.7 5.4 1.6 6.9c.2.1.4.1.6.2-.1 1.8.7 3.5 2.3 4.5 1.3.8 2.8.9 4.1.5.2 1.4.9 2.7 2.2 3.5 2.3 1.5 5.4.7 6.9-1.6.5-.8.7-1.7.7-2.5.8-.4 1.5-.9 2-1.7 1.5-2.3.7-5.4-1.6-6.9-1.3-.8-2.8-.9-4.2-.5z" fill="#539b00"/><path d="m12.7 23.6 7.7 3.1 13.3 8.6-.3.7z" fill="#939"/><path d="m22.8 32.4c-.8-.9-2-1.6-3.3-1.5-1.7 0-3 1-3.8 2.3-.2 0-.4-.1-.6-.1-2.4 0-4.4 2-4.4 4.4s2 4.4 4.4 4.4c.2 0 .4-.1.6-.1.7 1.4 2.1 2.3 3.8 2.3 1.3 0 2.5-.6 3.3-1.6.8.9 2 1.6 3.3 1.5 2.4 0 4.4-2 4.4-4.4 0-.8-.3-1.5-.7-2.2.4-.7.7-1.4.7-2.2 0-2.4-2-4.4-4.4-4.4-1.3 0-2.5.6-3.3 1.6z" fill="#539b00"/><path d="m14.6 38.3 7.9-1.6h11.7l-.2.8z" fill="#939"/></svg>