<svg xmlns:xlink="http://www.w3.org/1999/xlink"  enable-background="new 0 0 32 24" height="24" viewBox="0 0 32 24" width="32" xmlns="http://www.w3.org/2000/svg"><path d="m18.9 8.2c.1-.2 0-.5-.1-.7-.2-.3-.5-.4-.7-.3v-.1c-.3-.4-.8-.5-1.1-.2s-.6.7-.3 1.1c0 0 .1 0 .1.1-.1.3-.1.6 0 .8s.4.3.6.3c-.1.2 0 .5.1.7.3.4.8.5 1.1.2.1-.1.2-.2.3-.3.1 0 .3 0 .4-.1.4-.3.5-.8.2-1.1-.2-.3-.4-.4-.6-.4z" fill="#539b00"/><path d="m17.3 7.9 1.1.9 1.2 2.1z" fill="#939"/><path d="m20.9 7.8c.2-.1.3-.3.4-.6 0-.3-.1-.6-.4-.8v-.1c.1-.5-.3-.9-.7-.9-.5-.1-.9.3-.9.7v.1c-.3.1-.5.4-.5.7s.1.5.2.7c-.2.1-.3.3-.4.6-.1.5.3.9.7.9.2 0 .3 0 .4-.1.1.1.2.2.4.2.5.1.9-.3.9-.7.1-.3 0-.5-.1-.7z" fill="#539b00"/><path d="m19.8 6.5.2 1.4-.4 2.5z" fill="#939"/><path d="m21 11.7c0 .9-3 .9-3 0s.7-1.7 1.5-1.7 1.5.7 1.5 1.7z" fill="#939"/><path d="m20.9 10.3c.2 0 .4-.1.5-.2.2-.2.2-.4.1-.7 0 0 .1 0 .1-.1.2-.3.2-.7-.1-.9-.3-.3-.7-.2-.9 0v.1c-.2-.1-.5 0-.6.2-.1.1-.2.3-.1.5-.2 0-.4.1-.5.2-.2.3-.2.7.1.9.1.1.2.1.3.2 0 .1.1.2.2.3.3.3.7.2.9 0 0-.1 0-.3 0-.5z" fill="#539b00"/><path d="m14.9 10.2c.1-.2 0-.5-.1-.7-.2-.3-.5-.4-.7-.3v-.1c-.3-.4-.8-.5-1.1-.2s-.5.8-.2 1.1c0 0 .1 0 .1.1-.1.3-.1.6 0 .8s.4.3.6.3c-.1.2 0 .5.1.7.3.4.8.5 1.1.2l.3-.3c.1 0 .3 0 .4-.1.4-.3.5-.8.2-1.1s-.5-.4-.7-.4z" fill="#539b00"/><path d="m13.3 9.9 1 .9 1.3 2.1z" fill="#939"/><path d="m17 13.7c0 .9-3 .9-3 0s.7-1.7 1.5-1.7 1.5.7 1.5 1.7z" fill="#939"/><path d="m16.9 9.8c.2-.1.3-.3.4-.6 0-.3-.1-.6-.4-.8v-.1c.1-.5-.3-.9-.7-.9-.5-.1-.9.3-.9.7v.1c-.3.1-.5.4-.5.7s.1.5.2.7c-.2.1-.3.3-.4.6-.1.5.3.9.7.9.2 0 .3 0 .4-.1.1.1.2.2.4.2.5.1.9-.3.9-.7.1-.3 0-.5-.1-.7z" fill="#539b00"/><path d="m15.8 8.5.3 1.4-.5 2.5z" fill="#939"/><path d="m10.9 12.2c.1-.2 0-.5-.1-.7-.2-.3-.5-.4-.7-.3v-.1c-.3-.4-.8-.5-1.1-.2s-.6.7-.3 1.1c0 0 .1 0 .1.1-.1.3-.1.6 0 .8s.4.3.6.3c-.1.2 0 .5.1.7.3.4.8.5 1.1.2.1-.1.2-.2.3-.3.1 0 .3 0 .4-.1.4-.3.5-.8.2-1.1-.2-.3-.4-.4-.6-.4z" fill="#539b00"/><path d="m12.9 11.8c.2-.1.3-.3.4-.6 0-.3-.1-.6-.4-.8v-.1c.1-.5-.3-.9-.7-.9-.5-.1-.9.3-.9.7v.1c-.3.1-.5.4-.5.7s.1.5.2.7c-.2.1-.3.3-.4.6-.1.5.3.9.7.9.2 0 .3 0 .4-.1.1.1.2.2.4.2.5.1.9-.3.9-.7.1-.3 0-.5-.1-.7z" fill="#539b00"/><path d="m11.8 10.5.3 1.4-.5 2.5z" fill="#939"/><path d="m13 15.7c0 .9-3 .9-3 0s.7-1.7 1.5-1.7 1.5.7 1.5 1.7z" fill="#939"/><path d="m12.9 14.3c.2 0 .4-.1.5-.2.2-.2.2-.4.1-.7 0 0 .1 0 .1-.1.2-.3.2-.7-.1-.9-.3-.3-.7-.2-.9 0v.1c-.2-.1-.5 0-.6.2-.1.1-.2.3-.1.5-.2 0-.4.1-.5.2-.2.3-.2.7.1.9.1.1.2.1.3.2 0 .1.1.2.2.3.3.3.7.2.9 0 0-.1 0-.3 0-.5z" fill="#539b00"/><path d="m8 14.4c-.1-.2 0-.5.1-.7.2-.3.5-.4.7-.3v-.1c.3-.4.8-.5 1.1-.2s.5.8.2 1.1c0 0-.1 0-.1.1.1.3.1.6 0 .8s-.4.3-.6.3c.1.2 0 .5-.1.7-.3.4-.8.5-1.1.2-.1-.1-.2-.2-.3-.3-.1 0-.3 0-.4-.1-.4-.3-.5-.8-.2-1.1s.5-.4.7-.4z" fill="#539b00"/><path d="m9.6 14.1-1.1.8-1.2 2.1z" fill="#939"/><path d="m8.5 13.7c.2-.2.3-.4.2-.7 0-.3-.3-.6-.5-.7v-.1c-.1-.5-.5-.8-.9-.7-.5.1-.8.5-.7.9v.1c-.2.2-.4.5-.4.8s.2.5.4.6c-.2.2-.3.4-.2.7.1.5.5.8.9.7.2 0 .3-.1.4-.2.1.1.3.1.4.1.5-.1.8-.5.7-.9.1-.3-.1-.5-.3-.6z" fill="#539b00"/><path d="m7.1 12.5.6 1.4.1 2.5z" fill="#939"/><path d="m9 17.7c0 .9-3 .9-3 0 0-1 .7-1.7 1.5-1.7s1.5.7 1.5 1.7z" fill="#939"/><path d="m6.1 16.1c-.2 0-.4-.1-.5-.2-.2-.2-.2-.4-.1-.7 0 0-.1 0-.1-.1-.2-.3-.2-.7.1-.9.3-.3.7-.2.9 0v.1c.2-.1.5 0 .6.2.1.1.2.3.1.5.2 0 .4.1.5.2.2.3.2.7-.1.9-.1.1-.2.1-.3.2 0 .1-.1.2-.2.3-.3.3-.7.2-.9 0 0-.1 0-.3 0-.5z" fill="#539b00"/><path d="m26.9 12.2c.1-.2 0-.5-.1-.7-.2-.3-.5-.4-.7-.3v-.1c-.3-.4-.8-.5-1.1-.2s-.5.8-.2 1.1c0 0 .1 0 .1.1-.1.3-.1.6 0 .8s.4.3.6.3c-.1.2 0 .5.1.7.3.4.8.5 1.1.2.1-.1.2-.2.3-.3.1 0 .3 0 .4-.1.4-.3.5-.8.2-1.1s-.5-.4-.7-.4z" fill="#539b00"/><path d="m25.3 11.9 1.1.9 1.2 2.1z" fill="#939"/><path d="m28.9 11.8c.2-.1.3-.3.4-.6 0-.3-.1-.6-.4-.8v-.1c.1-.5-.3-.9-.7-.9s-.9.3-.9.7v.1c-.3.1-.5.4-.5.7s.1.5.2.7c-.2.1-.3.3-.4.6-.1.5.3.9.7.9.2 0 .3 0 .4-.1.1.1.2.2.4.2.5.1.9-.3.9-.7.1-.3 0-.5-.1-.7z" fill="#539b00"/><path d="m27.8 10.5.2 1.4-.4 2.5z" fill="#939"/><path d="m29 15.7c0 .9-3 .9-3 0s.7-1.7 1.5-1.7 1.5.7 1.5 1.7z" fill="#939"/><path d="m28.9 14.3c.2 0 .4-.1.5-.2.2-.2.2-.4.1-.7 0 0 .1 0 .1-.1.2-.3.2-.7-.1-.9-.3-.3-.7-.2-.9 0v.1c-.2-.1-.5 0-.6.2-.1.1-.2.3-.1.5-.2 0-.4.1-.5.2-.2.3-.2.7.1.9.1.1.2.1.3.2 0 .1.1.2.2.3.3.3.7.2.9 0 0-.1 0-.3 0-.5z" fill="#539b00"/><path d="m22.9 14.2c.1-.2 0-.5-.1-.7-.2-.3-.5-.4-.7-.3v-.1c-.3-.4-.8-.5-1.1-.2s-.5.8-.2 1.1c0 0 .1 0 .1.1-.1.3-.1.6 0 .8s.4.3.6.3c-.1.2 0 .5.1.7.3.4.8.5 1.1.2l.3-.3c.1 0 .3 0 .4-.1.4-.3.5-.8.2-1.1s-.5-.4-.7-.4z" fill="#539b00"/><path d="m21.3 13.9 1 .9 1.3 2.1z" fill="#939"/><path d="m25 17.7c0 .9-3 .9-3 0s.7-1.7 1.5-1.7 1.5.7 1.5 1.7z" fill="#939"/><path d="m24.9 13.8c.2-.1.3-.3.4-.6 0-.3-.1-.6-.4-.8v-.1c.1-.5-.3-.9-.7-.9s-.9.3-.9.7v.1c-.3.1-.5.4-.5.7s.1.5.2.7c-.2.1-.3.3-.4.6-.1.5.3.9.7.9.2 0 .3 0 .4-.1.1.1.2.2.4.2.5.1.9-.3.9-.7.1-.3 0-.5-.1-.7z" fill="#539b00"/><path d="m23.8 12.5.3 1.4-.5 2.5z" fill="#939"/><path d="m18.9 16.2c.1-.2 0-.5-.1-.7-.2-.3-.5-.4-.7-.3v-.1c-.3-.4-.8-.5-1.1-.2s-.5.8-.2 1.1c0 0 .1 0 .1.1-.1.3-.1.6 0 .8s.4.3.6.3c-.1.2 0 .5.1.7.3.4.8.5 1.1.2l.3-.3c.1 0 .3 0 .4-.1.4-.3.5-.8.2-1.1s-.5-.4-.7-.4z" fill="#539b00"/><path d="m20.9 15.8c.2-.1.3-.3.4-.6 0-.3-.1-.6-.4-.8v-.1c.1-.5-.3-.9-.7-.9s-.9.3-.9.7v.1c-.3.1-.5.4-.5.7s.1.5.2.7c-.2.1-.3.3-.4.6-.1.5.3.9.7.9.2 0 .3 0 .4-.1.1.1.2.2.4.2.5.1.9-.3.9-.7.1-.3 0-.5-.1-.7z" fill="#539b00"/><path d="m19.8 14.5.3 1.4-.5 2.5z" fill="#939"/><path d="m21 19.7c0 .9-3 .9-3 0s.7-1.7 1.5-1.7 1.5.7 1.5 1.7z" fill="#939"/><path d="m20.9 18.3c.2 0 .4-.1.5-.2.2-.2.2-.4.1-.7 0 0 .1 0 .1-.1.2-.3.2-.7-.1-.9-.3-.3-.7-.2-.9 0v.1c-.2-.1-.5 0-.6.2-.1.1-.2.3-.1.5-.2 0-.4.1-.5.2-.2.3-.2.7.1.9.1.1.2.1.3.2 0 .1.1.2.2.3.3.3.7.2.9 0 0-.1 0-.3 0-.5z" fill="#539b00"/><path d="m16 18.4c-.1-.2 0-.5.1-.7.2-.3.5-.4.7-.3v-.1c.3-.4.8-.5 1.1-.2.4.3.5.8.2 1.1 0 0-.1 0-.1.1.1.3.1.6 0 .8s-.4.3-.6.3c.1.2 0 .5-.1.7-.3.4-.8.5-1.1.2-.1-.1-.2-.2-.3-.3-.1 0-.3 0-.4-.1-.4-.3-.5-.8-.2-1.1s.5-.4.7-.4z" fill="#539b00"/><path d="m17.6 18.1-1.1.8-1.2 2.1z" fill="#939"/><path d="m16.5 17.7c.2-.2.3-.4.2-.7 0-.3-.3-.6-.5-.7v-.1c-.1-.5-.5-.8-.9-.7-.5.1-.8.5-.7.9v.1c-.2.2-.4.5-.4.8s.2.5.4.6c-.2.2-.3.4-.2.7.1.5.5.8.9.7.2 0 .3-.1.4-.2.1.1.3.1.4.1.5-.1.8-.5.7-.9.1-.3-.1-.5-.3-.6z" fill="#539b00"/><path d="m15.1 16.5.6 1.4.1 2.5z" fill="#939"/><path d="m17 21.7c0 .9-3 .9-3 0s.7-1.7 1.5-1.7 1.5.7 1.5 1.7z" fill="#939"/><path d="m14.1 20.1c-.2 0-.4-.1-.5-.2-.2-.2-.2-.4-.1-.7 0 0-.1 0-.1-.1-.2-.3-.2-.7.1-.9.3-.3.7-.2.9 0v.1c.2-.1.5 0 .6.2.1.1.2.3.1.5.2 0 .4.1.5.2.2.3.2.7-.1.9-.1.1-.2.1-.3.2 0 .1-.1.2-.2.3-.3.3-.7.2-.9 0 0-.1 0-.3 0-.5z" fill="#539b00"/></svg>