<svg xmlns:xlink="http://www.w3.org/1999/xlink"  enable-background="new 0 0 64 40" height="40" viewBox="0 0 64 40" width="64" xmlns="http://www.w3.org/2000/svg"><path d="m34.9 8.2c.1-.2 0-.5-.1-.7-.2-.3-.5-.4-.7-.3v-.1c-.3-.4-.8-.5-1.1-.2-.4.3-.5.8-.2 1.1 0 0 .1 0 .1.1-.1.3-.1.6 0 .8s.4.3.6.3c-.1.2 0 .5.1.7.3.4.8.5 1.1.2.1-.1.2-.2.3-.3.1 0 .3 0 .4-.1.4-.3.5-.8.2-1.1s-.5-.4-.7-.4z" fill="#539b00"/><path d="m33.3 7.9 1.1.9 1.2 2.1z" fill="#939"/><path d="m36.9 7.8c.2-.1.3-.3.4-.6 0-.3-.1-.6-.4-.8v-.1c.1-.5-.3-.9-.7-.9-.5-.1-.9.3-.9.7v.1c-.3.1-.5.4-.5.7s.1.5.2.7c-.2.1-.3.3-.4.6-.1.5.3.9.7.9.2 0 .3 0 .4-.1.1.1.2.2.4.2.5.1.9-.3.9-.7.1-.3 0-.5-.1-.7z" fill="#539b00"/><path d="m35.8 6.5.2 1.4-.4 2.5z" fill="#939"/><path d="m37 11.7c0 .9-3 .9-3 0s.7-1.7 1.5-1.7 1.5.7 1.5 1.7z" fill="#939"/><path d="m36.9 10.3c.2 0 .4-.1.5-.2.2-.2.2-.4.1-.7 0 0 .1 0 .1-.1.2-.3.2-.7-.1-.9-.3-.3-.7-.2-.9 0v.1c-.2-.1-.5 0-.6.2-.1.1-.2.3-.1.5-.2 0-.4.1-.5.2-.2.3-.2.7.1.9.1.1.2.1.3.2 0 .1.1.2.2.3.3.3.7.2.9 0 0-.1 0-.3 0-.5z" fill="#539b00"/><path d="m30.9 10.2c.1-.2 0-.5-.1-.7-.2-.3-.5-.4-.7-.3v-.1c-.3-.4-.8-.5-1.1-.2s-.5.8-.2 1.1c0 0 .1 0 .1.1-.1.3-.1.6 0 .8s.4.3.6.3c-.1.2 0 .5.1.7.3.4.8.5 1.1.2.1-.1.2-.2.3-.3.1 0 .3 0 .4-.1.4-.3.5-.8.2-1.1s-.5-.4-.7-.4z" fill="#539b00"/><path d="m29.3 9.9 1 .9 1.3 2.1z" fill="#939"/><path d="m33 13.7c0 .9-3 .9-3 0s.7-1.7 1.5-1.7 1.5.7 1.5 1.7z" fill="#939"/><path d="m32.9 9.8c.2-.1.3-.3.4-.6 0-.3-.1-.6-.4-.8v-.1c.1-.5-.3-.9-.7-.9-.5-.1-.9.3-.9.7v.1c-.3.1-.5.4-.5.7s.1.5.2.7c-.2.1-.3.3-.4.6-.1.5.3.9.7.9.2 0 .3 0 .4-.1.1.1.2.2.4.2.5.1.9-.3.9-.7.1-.3 0-.5-.1-.7z" fill="#539b00"/><path d="m31.8 8.5.3 1.4-.5 2.5z" fill="#939"/><path d="m26.9 12.2c.1-.2 0-.5-.1-.7-.2-.3-.5-.4-.7-.3v-.1c-.3-.4-.8-.5-1.1-.2s-.5.8-.2 1.1c0 0 .1 0 .1.1-.1.3-.1.6 0 .8s.4.3.6.3c-.1.2 0 .5.1.7.3.4.8.5 1.1.2.1-.1.2-.2.3-.3.1 0 .3 0 .4-.1.4-.3.5-.8.2-1.1s-.5-.4-.7-.4z" fill="#539b00"/><path d="m28.9 11.8c.2-.1.3-.3.4-.6 0-.3-.1-.6-.4-.8v-.1c.1-.5-.3-.9-.7-.9s-.9.3-.9.7v.1c-.3.1-.5.4-.5.7s.1.5.2.7c-.2.1-.3.3-.4.6-.1.5.3.9.7.9.2 0 .3 0 .4-.1.1.1.2.2.4.2.5.1.9-.3.9-.7.1-.3 0-.5-.1-.7z" fill="#539b00"/><path d="m27.8 10.5.3 1.4-.5 2.5z" fill="#939"/><path d="m29 15.7c0 .9-3 .9-3 0s.7-1.7 1.5-1.7 1.5.7 1.5 1.7z" fill="#939"/><path d="m28.9 14.3c.2 0 .4-.1.5-.2.2-.2.2-.4.1-.7 0 0 .1 0 .1-.1.2-.3.2-.7-.1-.9-.3-.3-.7-.2-.9 0v.1c-.2-.1-.5 0-.6.2-.1.1-.2.3-.1.5-.2 0-.4.1-.5.2-.2.3-.2.7.1.9.1.1.2.1.3.2 0 .1.1.2.2.3.3.3.7.2.9 0 0-.1 0-.3 0-.5z" fill="#539b00"/><path d="m24 14.4c-.1-.2 0-.5.1-.7.2-.3.5-.4.7-.3v-.1c.3-.4.8-.5 1.1-.2s.5.8.2 1.1c0 0-.1 0-.1.1.1.3.1.6 0 .8s-.4.3-.6.3c.1.2 0 .5-.1.7-.3.4-.8.5-1.1.2-.1-.1-.2-.2-.3-.3-.1 0-.3 0-.4-.1-.4-.3-.5-.8-.2-1.1s.5-.4.7-.4z" fill="#539b00"/><path d="m25.6 14.1-1.1.8-1.2 2.1z" fill="#939"/><path d="m24.5 13.7c.2-.2.3-.4.2-.7 0-.3-.3-.6-.5-.7v-.1c-.1-.5-.5-.8-.9-.7-.5.1-.8.5-.7.9v.1c-.2.2-.4.5-.4.8s.2.5.4.6c-.2.2-.3.4-.2.7.1.5.5.8.9.7.2 0 .3-.1.4-.2.1.1.3.1.4.1.5-.1.8-.5.7-.9.1-.3-.1-.5-.3-.6z" fill="#539b00"/><path d="m23.1 12.5.6 1.4.1 2.5z" fill="#939"/><path d="m25 17.7c0 .9-3 .9-3 0s.7-1.7 1.5-1.7 1.5.7 1.5 1.7z" fill="#939"/><path d="m22.1 16.1c-.2 0-.4-.1-.5-.2-.2-.2-.2-.4-.1-.7 0 0-.1 0-.1-.1-.2-.3-.2-.7.1-.9.3-.3.7-.2.9 0v.1c.2-.1.5 0 .6.2.1.1.2.3.1.5.2 0 .4.1.5.2.2.3.2.7-.1.9-.1.1-.2.1-.3.2 0 .1-.1.2-.2.3-.3.3-.7.2-.9 0 0-.1 0-.3 0-.5z" fill="#539b00"/><path d="m42.9 12.2c.1-.2 0-.5-.1-.7-.2-.3-.5-.4-.7-.3v-.1c-.3-.4-.8-.5-1.1-.2-.4.3-.5.8-.2 1.1 0 0 .1 0 .1.1-.1.3-.1.6 0 .8s.4.3.6.3c-.1.2 0 .5.1.7.3.4.8.5 1.1.2.1-.1.2-.2.3-.3.1 0 .3 0 .4-.1.4-.3.5-.8.2-1.1s-.5-.4-.7-.4z" fill="#539b00"/><path d="m41.3 11.9 1.1.9 1.2 2.1z" fill="#939"/><path d="m44.9 11.8c.2-.1.3-.3.4-.6 0-.3-.1-.6-.4-.8v-.1c.1-.5-.3-.9-.7-.9-.5-.1-.9.3-.9.7v.1c-.3.1-.5.4-.5.7s.1.5.2.7c-.2.1-.3.3-.4.6-.1.5.3.9.7.9.2 0 .3 0 .4-.1.1.1.2.2.4.2.5.1.9-.3.9-.7.1-.3 0-.5-.1-.7z" fill="#539b00"/><path d="m43.8 10.5.2 1.4-.4 2.5z" fill="#939"/><path d="m45 15.7c0 .9-3 .9-3 0s.7-1.7 1.5-1.7 1.5.7 1.5 1.7z" fill="#939"/><path d="m44.9 14.3c.2 0 .4-.1.5-.2.2-.2.2-.4.1-.7 0 0 .1 0 .1-.1.2-.3.2-.7-.1-.9-.3-.3-.7-.2-.9 0v.1c-.2-.1-.5 0-.6.2-.1.1-.2.3-.1.5-.2 0-.4.1-.5.2-.2.3-.2.7.1.9.1.1.2.1.3.2 0 .1.1.2.2.3.3.3.7.2.9 0 0-.1 0-.3 0-.5z" fill="#539b00"/><path d="m38.9 14.2c.1-.2 0-.5-.1-.7-.2-.3-.5-.4-.7-.3v-.1c-.3-.4-.8-.5-1.1-.2-.4.3-.5.8-.2 1.1 0 0 .1 0 .1.1-.1.3-.1.6 0 .8s.4.3.6.3c-.1.2 0 .5.1.7.3.4.8.5 1.1.2.1-.1.2-.2.3-.3.1 0 .3 0 .4-.1.4-.3.5-.8.2-1.1s-.5-.4-.7-.4z" fill="#539b00"/><path d="m37.3 13.9 1 .9 1.3 2.1z" fill="#939"/><path d="m41 17.7c0 .9-3 .9-3 0s.7-1.7 1.5-1.7 1.5.7 1.5 1.7z" fill="#939"/><path d="m40.9 13.8c.2-.1.3-.3.4-.6 0-.3-.1-.6-.4-.8v-.1c.1-.5-.3-.9-.7-.9-.5-.1-.9.3-.9.7v.1c-.3.1-.5.4-.5.7s.1.5.2.7c-.2.1-.3.3-.4.6-.1.5.3.9.7.9.2 0 .3 0 .4-.1.1.1.2.2.4.2.5.1.9-.3.9-.7.1-.3 0-.5-.1-.7z" fill="#539b00"/><path d="m39.8 12.5.3 1.4-.5 2.5z" fill="#939"/><path d="m34.9 16.2c.1-.2 0-.5-.1-.7-.2-.3-.5-.4-.7-.3v-.1c-.3-.4-.8-.5-1.1-.2-.4.3-.5.8-.2 1.1 0 0 .1 0 .1.1-.1.3-.1.6 0 .8s.4.3.6.3c-.1.2 0 .5.1.7.3.4.8.5 1.1.2.1-.1.2-.2.3-.3.1 0 .3 0 .4-.1.4-.3.5-.8.2-1.1s-.5-.4-.7-.4z" fill="#539b00"/><path d="m36.9 15.8c.2-.1.3-.3.4-.6 0-.3-.1-.6-.4-.8v-.1c.1-.5-.3-.9-.7-.9-.5-.1-.9.3-.9.7v.1c-.3.1-.5.4-.5.7s.1.5.2.7c-.2.1-.3.3-.4.6-.1.5.3.9.7.9.2 0 .3 0 .4-.1.1.1.2.2.4.2.5.1.9-.3.9-.7.1-.3 0-.5-.1-.7z" fill="#539b00"/><path d="m35.8 14.5.3 1.4-.5 2.5z" fill="#939"/><path d="m37 19.7c0 .9-3 .9-3 0s.7-1.7 1.5-1.7 1.5.7 1.5 1.7z" fill="#939"/><path d="m36.9 18.3c.2 0 .4-.1.5-.2.2-.2.2-.4.1-.7 0 0 .1 0 .1-.1.2-.3.2-.7-.1-.9-.3-.3-.7-.2-.9 0v.1c-.2-.1-.5 0-.6.2-.1.1-.2.3-.1.5-.2 0-.4.1-.5.2-.2.3-.2.7.1.9.1.1.2.1.3.2 0 .1.1.2.2.3.3.3.7.2.9 0 0-.1 0-.3 0-.5z" fill="#539b00"/><path d="m32 18.4c-.1-.2 0-.5.1-.7.2-.3.5-.4.7-.3v-.1c.3-.4.8-.5 1.1-.2.4.3.5.8.2 1.1 0 0-.1 0-.1.1.1.3.1.6 0 .8s-.4.3-.6.3c.1.2 0 .5-.1.7-.3.4-.8.5-1.1.2-.1-.1-.2-.2-.3-.3-.1 0-.3 0-.4-.1-.4-.3-.5-.8-.2-1.1s.5-.4.7-.4z" fill="#539b00"/><path d="m33.6 18.1-1.1.8-1.2 2.1z" fill="#939"/><path d="m32.5 17.7c.2-.2.3-.4.2-.7 0-.3-.3-.6-.5-.7v-.1c-.1-.5-.5-.8-.9-.7-.5.1-.8.5-.7.9v.1c-.2.2-.4.5-.4.8s.2.5.4.6c-.2.2-.3.4-.2.7.1.5.5.8.9.7.2 0 .3-.1.4-.2.1.1.3.1.4.1.5-.1.8-.5.7-.9.1-.3-.1-.5-.3-.6z" fill="#539b00"/><path d="m31.1 16.5.6 1.4.1 2.5z" fill="#939"/><path d="m33 21.7c0 .9-3 .9-3 0s.7-1.7 1.5-1.7 1.5.7 1.5 1.7z" fill="#939"/><path d="m30.1 20.1c-.2 0-.4-.1-.5-.2-.2-.2-.2-.4-.1-.7 0 0-.1 0-.1-.1-.2-.3-.2-.7.1-.9.3-.3.7-.2.9 0v.1c.2-.1.5 0 .6.2.1.1.2.3.1.5.2 0 .4.1.5.2.2.3.2.7-.1.9-.1.1-.2.1-.3.2 0 .1-.1.2-.2.3-.3.3-.7.2-.9 0 0-.1 0-.3 0-.5z" fill="#539b00"/><path d="m18.9 16.2c.1-.2 0-.5-.1-.7-.2-.3-.5-.4-.7-.3v-.1c-.3-.4-.8-.5-1.1-.2s-.5.8-.2 1.1c0 0 .1 0 .1.1-.1.3-.1.6 0 .8s.4.3.6.3c-.1.2 0 .5.1.7.3.4.8.5 1.1.2l.3-.3c.1 0 .3 0 .4-.1.4-.3.5-.8.2-1.1s-.5-.4-.7-.4z" fill="#539b00"/><path d="m17.3 15.9 1.1.9 1.2 2.1z" fill="#939"/><path d="m20.9 15.8c.2-.1.3-.3.4-.6 0-.3-.1-.6-.4-.8v-.1c.1-.5-.3-.9-.7-.9s-.9.3-.9.7v.1c-.3.1-.5.4-.5.7s.1.5.2.7c-.2.1-.3.3-.4.6-.1.5.3.9.7.9.2 0 .3 0 .4-.1.1.1.2.2.4.2.5.1.9-.3.9-.7.1-.3 0-.5-.1-.7z" fill="#539b00"/><path d="m19.8 14.5.2 1.4-.4 2.5z" fill="#939"/><path d="m21 19.7c0 .9-3 .9-3 0s.7-1.7 1.5-1.7 1.5.7 1.5 1.7z" fill="#939"/><path d="m20.9 18.3c.2 0 .4-.1.5-.2.2-.2.2-.4.1-.7 0 0 .1 0 .1-.1.2-.3.2-.7-.1-.9-.3-.3-.7-.2-.9 0v.1c-.2-.1-.5 0-.6.2-.1.1-.2.3-.1.5-.2 0-.4.1-.5.2-.2.3-.2.7.1.9.1.1.2.1.3.2 0 .1.1.2.2.3.3.3.7.2.9 0 0-.1 0-.3 0-.5z" fill="#539b00"/><path d="m14.9 18.2c.1-.2 0-.5-.1-.7-.2-.3-.5-.4-.7-.3v-.1c-.3-.4-.8-.5-1.1-.2-.4.3-.5.8-.2 1.1 0 0 .1 0 .1.1-.1.3-.1.6 0 .8s.4.3.6.3c-.1.2 0 .5.1.7.3.4.8.5 1.1.2.1-.1.2-.2.3-.3.1 0 .3 0 .4-.1.4-.3.5-.8.2-1.1s-.5-.4-.7-.4z" fill="#539b00"/><path d="m13.3 17.9 1 .9 1.3 2.1z" fill="#939"/><path d="m17 21.7c0 .9-3 .9-3 0s.7-1.7 1.5-1.7 1.5.7 1.5 1.7z" fill="#939"/><path d="m16.9 17.8c.2-.1.3-.3.4-.6 0-.3-.1-.6-.4-.8v-.1c.1-.5-.3-.9-.7-.9-.5-.1-.9.3-.9.7v.1c-.3.1-.5.4-.5.7s.1.5.2.7c-.2.1-.3.3-.4.6-.1.5.3.9.7.9.2 0 .3 0 .4-.1.1.1.2.2.4.2.5.1.9-.3.9-.7.1-.3 0-.5-.1-.7z" fill="#539b00"/><path d="m15.8 16.5.3 1.4-.5 2.5z" fill="#939"/><path d="m10.9 20.2c.1-.2 0-.5-.1-.7-.2-.3-.5-.4-.7-.3v-.1c-.3-.4-.8-.5-1.1-.2-.4.3-.5.8-.2 1.1 0 0 .1 0 .1.1-.1.3-.1.6 0 .8s.4.3.6.3c-.1.2 0 .5.1.7.3.4.8.5 1.1.2.1-.1.2-.2.3-.3.1 0 .3 0 .4-.1.4-.3.5-.8.2-1.1s-.5-.4-.7-.4z" fill="#539b00"/><path d="m12.9 19.8c.2-.1.3-.3.4-.6 0-.3-.1-.6-.4-.8v-.1c.1-.5-.3-.9-.7-.9-.5-.1-.9.3-.9.7v.1c-.3.1-.5.4-.5.7s.1.5.2.7c-.2.1-.3.3-.4.6-.1.5.3.9.7.9.2 0 .3 0 .4-.1.1.1.2.2.4.2.5.1.9-.3.9-.7.1-.3 0-.5-.1-.7z" fill="#539b00"/><path d="m11.8 18.5.3 1.4-.5 2.5z" fill="#939"/><path d="m13 23.7c0 .9-3 .9-3 0s.7-1.7 1.5-1.7 1.5.7 1.5 1.7z" fill="#939"/><path d="m12.9 22.3c.2 0 .4-.1.5-.2.2-.2.2-.4.1-.7 0 0 .1 0 .1-.1.2-.3.2-.7-.1-.9-.3-.3-.7-.2-.9 0v.1c-.2-.1-.5 0-.6.2-.1.1-.2.3-.1.5-.2 0-.4.1-.5.2-.2.3-.2.7.1.9.1.1.2.1.3.2 0 .1.1.2.2.3.3.3.7.2.9 0 0-.1 0-.3 0-.5z" fill="#539b00"/><path d="m8 22.4c-.1-.2 0-.5.1-.7.2-.3.5-.4.7-.3v-.1c.3-.4.8-.5 1.1-.2.4.3.5.8.2 1.1 0 0-.1 0-.1.1.1.3.1.6 0 .8s-.4.3-.6.3c.1.2 0 .5-.1.7-.3.4-.8.5-1.1.2-.1-.1-.2-.2-.3-.3-.1 0-.3 0-.4-.1-.4-.3-.5-.8-.2-1.1s.5-.4.7-.4z" fill="#539b00"/><path d="m9.6 22.1-1.1.8-1.2 2.1z" fill="#939"/><path d="m8.5 21.7c.2-.2.3-.4.2-.7 0-.3-.3-.6-.5-.7v-.1c-.1-.5-.5-.8-.9-.7-.5.1-.8.5-.7.9v.1c-.2.2-.4.5-.4.8s.2.5.4.6c-.2.2-.3.4-.2.7.1.5.5.8.9.7.2 0 .3-.1.4-.2.1.1.3.1.4.1.5-.1.8-.5.7-.9.1-.3-.1-.5-.3-.6z" fill="#539b00"/><path d="m7.1 20.5.6 1.4.1 2.5z" fill="#939"/><path d="m9 25.7c0 .9-3 .9-3 0 0-1 .7-1.7 1.5-1.7s1.5.7 1.5 1.7z" fill="#939"/><path d="m6.1 24.1c-.2 0-.4-.1-.5-.2-.2-.2-.2-.4-.1-.7 0 0-.1 0-.1-.1-.2-.3-.2-.7.1-.9.3-.3.7-.2.9 0v.1c.2-.1.5 0 .6.2.1.1.2.3.1.5.2 0 .4.1.5.2.2.3.2.7-.1.9-.1.1-.2.1-.3.2 0 .1-.1.2-.2.3-.3.3-.7.2-.9 0 0-.1 0-.3 0-.5z" fill="#539b00"/><path d="m26.9 20.2c.1-.2 0-.5-.1-.7-.2-.3-.5-.4-.7-.3v-.1c-.3-.4-.8-.5-1.1-.2-.4.3-.5.8-.2 1.1 0 0 .1 0 .1.1-.1.3-.1.6 0 .8s.4.3.6.3c-.1.2 0 .5.1.7.3.4.8.5 1.1.2l.3-.3c.1 0 .3 0 .4-.1.4-.3.5-.8.2-1.1s-.5-.4-.7-.4z" fill="#539b00"/><path d="m25.3 19.9 1.1.9 1.2 2.1z" fill="#939"/><path d="m28.9 19.8c.2-.1.3-.3.4-.6 0-.3-.1-.6-.4-.8v-.1c.1-.5-.3-.9-.7-.9-.5-.1-.9.3-.9.7v.1c-.3.1-.5.4-.5.7s.1.5.2.7c-.2.1-.3.3-.4.6-.1.5.3.9.7.9.2 0 .3 0 .4-.1.1.1.2.2.4.2.5.1.9-.3.9-.7.1-.3 0-.5-.1-.7z" fill="#539b00"/><path d="m27.8 18.5.2 1.4-.4 2.5z" fill="#939"/><path d="m29 23.7c0 .9-3 .9-3 0s.7-1.7 1.5-1.7 1.5.7 1.5 1.7z" fill="#939"/><path d="m28.9 22.3c.2 0 .4-.1.5-.2.2-.2.2-.4.1-.7 0 0 .1 0 .1-.1.2-.3.2-.7-.1-.9-.3-.3-.7-.2-.9 0v.1c-.2-.1-.5 0-.6.2-.1.1-.2.3-.1.5-.2 0-.4.1-.5.2-.2.3-.2.7.1.9.1.1.2.1.3.2 0 .1.1.2.2.3.3.3.7.2.9 0 0-.1 0-.3 0-.5z" fill="#539b00"/><path d="m22.9 22.2c.1-.2 0-.5-.1-.7-.2-.3-.5-.4-.7-.3v-.1c-.3-.4-.8-.5-1.1-.2-.4.3-.5.8-.2 1.1 0 0 .1 0 .1.1-.1.3-.1.6 0 .8s.4.3.6.3c-.1.2 0 .5.1.7.3.4.8.5 1.1.2l.3-.3c.1 0 .3 0 .4-.1.4-.3.5-.8.2-1.1s-.5-.4-.7-.4z" fill="#539b00"/><path d="m21.3 21.9 1 .9 1.3 2.1z" fill="#939"/><path d="m25 25.7c0 .9-3 .9-3 0s.7-1.7 1.5-1.7 1.5.7 1.5 1.7z" fill="#939"/><path d="m24.9 21.8c.2-.1.3-.3.4-.6 0-.3-.1-.6-.4-.8v-.1c.1-.5-.3-.9-.7-.9-.5-.1-.9.3-.9.7v.1c-.3.1-.5.4-.5.7s.1.5.2.7c-.2.1-.3.3-.4.6-.1.5.3.9.7.9.2 0 .3 0 .4-.1.1.1.2.2.4.2.5.1.9-.3.9-.7.1-.3 0-.5-.1-.7z" fill="#539b00"/><path d="m23.8 20.5.3 1.4-.5 2.5z" fill="#939"/><path d="m18.9 24.2c.1-.2 0-.5-.1-.7-.2-.3-.5-.4-.7-.3v-.1c-.3-.4-.8-.5-1.1-.2-.4.3-.5.8-.2 1.1 0 0 .1 0 .1.1-.1.3-.1.6 0 .8s.4.3.6.3c-.1.2 0 .5.1.7.3.4.8.5 1.1.2l.3-.3c.1 0 .3 0 .4-.1.4-.3.5-.8.2-1.1s-.5-.4-.7-.4z" fill="#539b00"/><path d="m20.9 23.8c.2-.1.3-.3.4-.6 0-.3-.1-.6-.4-.8v-.1c.1-.5-.3-.9-.7-.9-.5-.1-.9.3-.9.7v.1c-.3.1-.5.4-.5.7s.1.5.2.7c-.2.1-.3.3-.4.6-.1.5.3.9.7.9.2 0 .3 0 .4-.1.1.1.2.2.4.2.5.1.9-.3.9-.7.1-.3 0-.5-.1-.7z" fill="#539b00"/><path d="m19.8 22.5.3 1.4-.5 2.5z" fill="#939"/><path d="m21 27.7c0 .9-3 .9-3 0s.7-1.7 1.5-1.7 1.5.7 1.5 1.7z" fill="#939"/><path d="m20.9 26.3c.2 0 .4-.1.5-.2.2-.2.2-.4.1-.7 0 0 .1 0 .1-.1.2-.3.2-.7-.1-.9-.3-.3-.7-.2-.9 0v.1c-.2-.1-.5 0-.6.2-.1.1-.2.3-.1.5-.2 0-.4.1-.5.2-.2.3-.2.7.1.9.1.1.2.1.3.2 0 .1.1.2.2.3.3.3.7.2.9 0 0-.1 0-.3 0-.5z" fill="#539b00"/><path d="m16 26.4c-.1-.2 0-.5.1-.7.2-.3.5-.4.7-.3v-.1c.3-.4.8-.5 1.1-.2.4.3.5.8.2 1.1 0 0-.1 0-.1.1.1.3.1.6 0 .8s-.4.3-.6.3c.1.2 0 .5-.1.7-.3.4-.8.5-1.1.2-.1-.1-.2-.2-.3-.3-.1 0-.3 0-.4-.1-.4-.3-.5-.8-.2-1.1s.5-.4.7-.4z" fill="#539b00"/><path d="m17.6 26.1-1.1.8-1.2 2.1z" fill="#939"/><path d="m16.5 25.7c.2-.2.3-.4.2-.7 0-.3-.3-.6-.5-.7v-.1c-.1-.5-.5-.8-.9-.7-.5.1-.8.5-.7.9v.1c-.2.2-.4.5-.4.8s.2.5.4.6c-.2.2-.3.4-.2.7.1.5.5.8.9.7.2 0 .3-.1.4-.2.1.1.3.1.4.1.5-.1.8-.5.7-.9.1-.3-.1-.5-.3-.6z" fill="#539b00"/><path d="m15.1 24.5.6 1.4.1 2.5z" fill="#939"/><path d="m17 29.7c0 .9-3 .9-3 0s.7-1.7 1.5-1.7 1.5.7 1.5 1.7z" fill="#939"/><path d="m14.1 28.1c-.2 0-.4-.1-.5-.2-.2-.2-.2-.4-.1-.7 0 0-.1 0-.1-.1-.2-.3-.2-.7.1-.9.3-.3.7-.2.9 0v.1c.2-.1.5 0 .6.2.1.1.2.3.1.5.2 0 .4.1.5.2.2.3.2.7-.1.9-.1.1-.2.1-.3.2 0 .1-.1.2-.2.3-.3.3-.7.2-.9 0 0-.1 0-.3 0-.5z" fill="#539b00"/><path d="m50.9 16.2c.1-.2 0-.5-.1-.7-.2-.3-.5-.4-.7-.3v-.1c-.3-.4-.8-.5-1.1-.2-.4.3-.5.8-.2 1.1 0 0 .1 0 .1.1-.1.3-.1.6 0 .8s.4.3.6.3c-.1.2 0 .5.1.7.3.4.8.5 1.1.2.1-.1.2-.2.3-.3.1 0 .3 0 .4-.1.4-.3.5-.8.2-1.1s-.5-.4-.7-.4z" fill="#539b00"/><path d="m49.3 15.9 1.1.9 1.2 2.1z" fill="#939"/><path d="m52.9 15.8c.2-.1.3-.3.4-.6 0-.3-.1-.6-.4-.8v-.1c.1-.5-.3-.9-.7-.9-.5-.1-.9.3-.9.7v.1c-.3.1-.5.4-.5.7s.1.5.2.7c-.2.1-.3.3-.4.6-.1.5.3.9.7.9.2 0 .3 0 .4-.1.1.1.2.2.4.2.5.1.9-.3.9-.7.1-.3 0-.5-.1-.7z" fill="#539b00"/><path d="m51.8 14.5.2 1.4-.4 2.5z" fill="#939"/><path d="m53 19.7c0 .9-3 .9-3 0s.7-1.7 1.5-1.7 1.5.7 1.5 1.7z" fill="#939"/><path d="m52.9 18.3c.2 0 .4-.1.5-.2.2-.2.2-.4.1-.7 0 0 .1 0 .1-.1.2-.3.2-.7-.1-.9-.3-.3-.7-.2-.9 0v.1c-.2-.1-.5 0-.6.2-.1.1-.2.3-.1.5-.2 0-.4.1-.5.2-.2.3-.2.7.1.9.1.1.2.1.3.2 0 .1.1.2.2.3.3.3.7.2.9 0 0-.1 0-.3 0-.5z" fill="#539b00"/><path d="m46.9 18.2c.1-.2 0-.5-.1-.7-.2-.3-.5-.4-.7-.3v-.1c-.3-.4-.8-.5-1.1-.2-.4.3-.5.8-.2 1.1 0 0 .1 0 .1.1-.1.3-.1.6 0 .8s.4.3.6.3c-.1.2 0 .5.1.7.3.4.8.5 1.1.2.1-.1.2-.2.3-.3.1 0 .3 0 .4-.1.4-.3.5-.8.2-1.1s-.5-.4-.7-.4z" fill="#539b00"/><path d="m45.3 17.9 1 .9 1.3 2.1z" fill="#939"/><path d="m49 21.7c0 .9-3 .9-3 0s.7-1.7 1.5-1.7 1.5.7 1.5 1.7z" fill="#939"/><path d="m48.9 17.8c.2-.1.3-.3.4-.6 0-.3-.1-.6-.4-.8v-.1c.1-.5-.3-.9-.7-.9-.5-.1-.9.3-.9.7v.1c-.3.1-.5.4-.5.7s.1.5.2.7c-.2.1-.3.3-.4.6-.1.5.3.9.7.9.2 0 .3 0 .4-.1.1.1.2.2.4.2.5.1.9-.3.9-.7.1-.3 0-.5-.1-.7z" fill="#539b00"/><path d="m47.8 16.5.3 1.4-.5 2.5z" fill="#939"/><path d="m42.9 20.2c.1-.2 0-.5-.1-.7-.2-.3-.5-.4-.7-.3v-.1c-.3-.4-.8-.5-1.1-.2-.4.3-.5.8-.2 1.1 0 0 .1 0 .1.1-.1.3-.1.6 0 .8s.4.3.6.3c-.1.2 0 .5.1.7.3.4.8.5 1.1.2.1-.1.2-.2.3-.3.1 0 .3 0 .4-.1.4-.3.5-.8.2-1.1s-.5-.4-.7-.4z" fill="#539b00"/><path d="m44.9 19.8c.2-.1.3-.3.4-.6 0-.3-.1-.6-.4-.8v-.1c.1-.5-.3-.9-.7-.9-.5-.1-.9.3-.9.7v.1c-.3.1-.5.4-.5.7s.1.5.2.7c-.2.1-.3.3-.4.6-.1.5.3.9.7.9.2 0 .3 0 .4-.1.1.1.2.2.4.2.5.1.9-.3.9-.7.1-.3 0-.5-.1-.7z" fill="#539b00"/><path d="m43.8 18.5.3 1.4-.5 2.5z" fill="#939"/><path d="m45 23.7c0 .9-3 .9-3 0s.7-1.7 1.5-1.7 1.5.7 1.5 1.7z" fill="#939"/><path d="m44.9 22.3c.2 0 .4-.1.5-.2.2-.2.2-.4.1-.7 0 0 .1 0 .1-.1.2-.3.2-.7-.1-.9-.3-.3-.7-.2-.9 0v.1c-.2-.1-.5 0-.6.2-.1.1-.2.3-.1.5-.2 0-.4.1-.5.2-.2.3-.2.7.1.9.1.1.2.1.3.2 0 .1.1.2.2.3.3.3.7.2.9 0 0-.1 0-.3 0-.5z" fill="#539b00"/><path d="m40 22.4c-.1-.2 0-.5.1-.7.2-.3.5-.4.7-.3v-.1c.3-.4.8-.5 1.1-.2.4.3.5.8.2 1.1 0 0-.1 0-.1.1.1.3.1.6 0 .8s-.4.3-.6.3c.1.2 0 .5-.1.7-.3.4-.8.5-1.1.2-.1-.1-.2-.2-.3-.3-.1 0-.3 0-.4-.1-.4-.3-.5-.8-.2-1.1s.5-.4.7-.4z" fill="#539b00"/><path d="m41.6 22.1-1.1.8-1.2 2.1z" fill="#939"/><path d="m40.5 21.7c.2-.2.3-.4.2-.7 0-.3-.3-.6-.5-.7v-.1c-.1-.5-.5-.8-.9-.7-.5.1-.8.5-.7.9v.1c-.2.2-.4.5-.4.8s.2.5.4.6c-.2.2-.3.4-.2.7.1.5.5.8.9.7.2 0 .3-.1.4-.2.1.1.3.1.4.1.5-.1.8-.5.7-.9.1-.3-.1-.5-.3-.6z" fill="#539b00"/><path d="m39.1 20.5.6 1.4.1 2.5z" fill="#939"/><path d="m41 25.7c0 .9-3 .9-3 0s.7-1.7 1.5-1.7 1.5.7 1.5 1.7z" fill="#939"/><path d="m38.1 24.1c-.2 0-.4-.1-.5-.2-.2-.2-.2-.4-.1-.7 0 0-.1 0-.1-.1-.2-.3-.2-.7.1-.9.3-.3.7-.2.9 0v.1c.2-.1.5 0 .6.2.1.1.2.3.1.5.2 0 .4.1.5.2.2.3.2.7-.1.9-.1.1-.2.1-.3.2 0 .1-.1.2-.2.3-.3.3-.7.2-.9 0 0-.1 0-.3 0-.5z" fill="#539b00"/><path d="m58.9 20.2c.1-.2 0-.5-.1-.7-.2-.3-.5-.4-.7-.3v-.1c-.3-.4-.8-.5-1.1-.2-.4.3-.5.8-.2 1.1 0 0 .1 0 .1.1-.1.3-.1.6 0 .8s.4.3.6.3c-.1.2 0 .5.1.7.3.4.8.5 1.1.2.1-.1.2-.2.3-.3.1 0 .3 0 .4-.1.4-.3.5-.8.2-1.1s-.5-.4-.7-.4z" fill="#539b00"/><path d="m57.3 19.9 1.1.9 1.2 2.1z" fill="#939"/><path d="m60.9 19.8c.2-.1.3-.3.4-.6 0-.3-.1-.6-.4-.8v-.1c.1-.5-.3-.9-.7-.9-.5-.1-.9.3-.9.7v.1c-.3.1-.5.4-.5.7s.1.5.2.7c-.2.1-.3.3-.4.6-.1.5.3.9.7.9.2 0 .3 0 .4-.1.1.1.2.2.4.2.5.1.9-.3.9-.7.1-.3 0-.5-.1-.7z" fill="#539b00"/><path d="m59.8 18.5.2 1.4-.4 2.5z" fill="#939"/><path d="m61 23.7c0 .9-3 .9-3 0s.7-1.7 1.5-1.7 1.5.7 1.5 1.7z" fill="#939"/><path d="m60.9 22.3c.2 0 .4-.1.5-.2.2-.2.2-.4.1-.7 0 0 .1 0 .1-.1.2-.3.2-.7-.1-.9-.3-.3-.7-.2-.9 0v.1c-.2-.1-.5 0-.6.2-.1.1-.2.3-.1.5-.2 0-.4.1-.5.2-.2.3-.2.7.1.9.1.1.2.1.3.2 0 .1.1.2.2.3.3.3.7.2.9 0 0-.1 0-.3 0-.5z" fill="#539b00"/><path d="m54.9 22.2c.1-.2 0-.5-.1-.7-.2-.3-.5-.4-.7-.3v-.1c-.3-.4-.8-.5-1.1-.2-.4.3-.5.8-.2 1.1 0 0 .1 0 .1.1-.1.3-.1.6 0 .8s.4.3.6.3c-.1.2 0 .5.1.7.3.4.8.5 1.1.2.1-.1.2-.2.3-.3.1 0 .3 0 .4-.1.4-.3.5-.8.2-1.1s-.5-.4-.7-.4z" fill="#539b00"/><path d="m53.3 21.9 1 .9 1.3 2.1z" fill="#939"/><path d="m57 25.7c0 .9-3 .9-3 0s.7-1.7 1.5-1.7 1.5.7 1.5 1.7z" fill="#939"/><path d="m56.9 21.8c.2-.1.3-.3.4-.6 0-.3-.1-.6-.4-.8v-.1c.1-.5-.3-.9-.7-.9-.5-.1-.9.3-.9.7v.1c-.3.1-.5.4-.5.7s.1.5.2.7c-.2.1-.3.3-.4.6-.1.5.3.9.7.9.2 0 .3 0 .4-.1.1.1.2.2.4.2.5.1.9-.3.9-.7.1-.3 0-.5-.1-.7z" fill="#539b00"/><path d="m55.8 20.5.3 1.4-.5 2.5z" fill="#939"/><path d="m50.9 24.2c.1-.2 0-.5-.1-.7-.2-.3-.5-.4-.7-.3v-.1c-.3-.4-.8-.5-1.1-.2-.4.3-.5.8-.2 1.1 0 0 .1 0 .1.1-.1.3-.1.6 0 .8s.4.3.6.3c-.1.2 0 .5.1.7.3.4.8.5 1.1.2.1-.1.2-.2.3-.3.1 0 .3 0 .4-.1.4-.3.5-.8.2-1.1s-.5-.4-.7-.4z" fill="#539b00"/><path d="m52.9 23.8c.2-.1.3-.3.4-.6 0-.3-.1-.6-.4-.8v-.1c.1-.5-.3-.9-.7-.9-.5-.1-.9.3-.9.7v.1c-.3.1-.5.4-.5.7s.1.5.2.7c-.2.1-.3.3-.4.6-.1.5.3.9.7.9.2 0 .3 0 .4-.1.1.1.2.2.4.2.5.1.9-.3.9-.7.1-.3 0-.5-.1-.7z" fill="#539b00"/><path d="m51.8 22.5.3 1.4-.5 2.5z" fill="#939"/><path d="m53 27.7c0 .9-3 .9-3 0s.7-1.7 1.5-1.7 1.5.7 1.5 1.7z" fill="#939"/><path d="m52.9 26.3c.2 0 .4-.1.5-.2.2-.2.2-.4.1-.7 0 0 .1 0 .1-.1.2-.3.2-.7-.1-.9-.3-.3-.7-.2-.9 0v.1c-.2-.1-.5 0-.6.2-.1.1-.2.3-.1.5-.2 0-.4.1-.5.2-.2.3-.2.7.1.9.1.1.2.1.3.2 0 .1.1.2.2.3.3.3.7.2.9 0 0-.1 0-.3 0-.5z" fill="#539b00"/><path d="m48 26.4c-.1-.2 0-.5.1-.7.2-.3.5-.4.7-.3v-.1c.3-.4.8-.5 1.1-.2.4.3.5.8.2 1.1 0 0-.1 0-.1.1.1.3.1.6 0 .8s-.4.3-.6.3c.1.2 0 .5-.1.7-.3.4-.8.5-1.1.2-.1-.1-.2-.2-.3-.3-.1 0-.3 0-.4-.1-.4-.3-.5-.8-.2-1.1s.5-.4.7-.4z" fill="#539b00"/><path d="m49.6 26.1-1.1.8-1.2 2.1z" fill="#939"/><path d="m48.5 25.7c.2-.2.3-.4.2-.7 0-.3-.3-.6-.5-.7v-.1c-.1-.5-.5-.8-.9-.7-.5.1-.8.5-.7.9v.1c-.2.2-.4.5-.4.8s.2.5.4.6c-.2.2-.3.4-.2.7.1.5.5.8.9.7.2 0 .3-.1.4-.2.1.1.3.1.4.1.5-.1.8-.5.7-.9.1-.3-.1-.5-.3-.6z" fill="#539b00"/><path d="m47.1 24.5.6 1.4.1 2.5z" fill="#939"/><path d="m49 29.7c0 .9-3 .9-3 0s.7-1.7 1.5-1.7 1.5.7 1.5 1.7z" fill="#939"/><path d="m46.1 28.1c-.2 0-.4-.1-.5-.2-.2-.2-.2-.4-.1-.7 0 0-.1 0-.1-.1-.2-.3-.2-.7.1-.9.3-.3.7-.2.9 0v.1c.2-.1.5 0 .6.2.1.1.2.3.1.5.2 0 .4.1.5.2.2.3.2.7-.1.9-.1.1-.2.1-.3.2 0 .1-.1.2-.2.3-.3.3-.7.2-.9 0 0-.1 0-.3 0-.5z" fill="#539b00"/><path d="m34.9 24.2c.1-.2 0-.5-.1-.7-.2-.3-.5-.4-.7-.3v-.1c-.3-.4-.8-.5-1.1-.2-.4.3-.5.8-.2 1.1 0 0 .1 0 .1.1-.1.3-.1.6 0 .8s.4.3.6.3c-.1.2 0 .5.1.7.3.4.8.5 1.1.2.1-.1.2-.2.3-.3.1 0 .3 0 .4-.1.4-.3.5-.8.2-1.1s-.5-.4-.7-.4z" fill="#539b00"/><path d="m33.3 23.9 1.1.9 1.2 2.1z" fill="#939"/><path d="m36.9 23.8c.2-.1.3-.3.4-.6 0-.3-.1-.6-.4-.8v-.1c.1-.5-.3-.9-.7-.9-.5-.1-.9.3-.9.7v.1c-.3.1-.5.4-.5.7s.1.5.2.7c-.2.1-.3.3-.4.6-.1.5.3.9.7.9.2 0 .3 0 .4-.1.1.1.2.2.4.2.5.1.9-.3.9-.7.1-.3 0-.5-.1-.7z" fill="#539b00"/><path d="m35.8 22.5.2 1.4-.4 2.5z" fill="#939"/><path d="m37 27.7c0 .9-3 .9-3 0s.7-1.7 1.5-1.7 1.5.7 1.5 1.7z" fill="#939"/><path d="m36.9 26.3c.2 0 .4-.1.5-.2.2-.2.2-.4.1-.7 0 0 .1 0 .1-.1.2-.3.2-.7-.1-.9-.3-.3-.7-.2-.9 0v.1c-.2-.1-.5 0-.6.2-.1.1-.2.3-.1.5-.2 0-.4.1-.5.2-.2.3-.2.7.1.9.1.1.2.1.3.2 0 .1.1.2.2.3.3.3.7.2.9 0 0-.1 0-.3 0-.5z" fill="#539b00"/><path d="m30.9 26.2c.1-.2 0-.5-.1-.7-.2-.3-.5-.4-.7-.3v-.1c-.3-.4-.8-.5-1.1-.2-.4.3-.5.8-.2 1.1 0 0 .1 0 .1.1-.1.3-.1.6 0 .8s.4.3.6.3c-.1.2 0 .5.1.7.3.4.8.5 1.1.2l.3-.3c.1 0 .3 0 .4-.1.4-.3.5-.8.2-1.1s-.5-.4-.7-.4z" fill="#539b00"/><path d="m29.3 25.9 1 .9 1.3 2.1z" fill="#939"/><path d="m33 29.7c0 .9-3 .9-3 0s.7-1.7 1.5-1.7 1.5.7 1.5 1.7z" fill="#939"/><path d="m32.9 25.8c.2-.1.3-.3.4-.6 0-.3-.1-.6-.4-.8v-.1c.1-.5-.3-.9-.7-.9-.5-.1-.9.3-.9.7v.1c-.3.1-.5.4-.5.7s.1.5.2.7c-.2.1-.3.3-.4.6-.1.5.3.9.7.9.2 0 .3 0 .4-.1.1.1.2.2.4.2.5.1.9-.3.9-.7.1-.3 0-.5-.1-.7z" fill="#539b00"/><path d="m31.8 24.5.3 1.4-.5 2.5z" fill="#939"/><path d="m26.9 28.2c.1-.2 0-.5-.1-.7-.2-.3-.5-.4-.7-.3v-.1c-.3-.4-.8-.5-1.1-.2-.4.3-.5.8-.2 1.1 0 0 .1 0 .1.1-.1.3-.1.6 0 .8s.4.3.6.3c-.1.2 0 .5.1.7.3.4.8.5 1.1.2l.3-.3c.1 0 .3 0 .4-.1.4-.3.5-.8.2-1.1s-.5-.4-.7-.4z" fill="#539b00"/><path d="m28.9 27.8c.2-.1.3-.3.4-.6 0-.3-.1-.6-.4-.8v-.1c.1-.5-.3-.9-.7-.9-.5-.1-.9.3-.9.7v.1c-.3.1-.5.4-.5.7s.1.5.2.7c-.2.1-.3.3-.4.6-.1.5.3.9.7.9.2 0 .3 0 .4-.1.1.1.2.2.4.2.5.1.9-.3.9-.7.1-.3 0-.5-.1-.7z" fill="#539b00"/><path d="m27.8 26.5.3 1.4-.5 2.5z" fill="#939"/><path d="m29 31.7c0 .9-3 .9-3 0s.7-1.7 1.5-1.7 1.5.7 1.5 1.7z" fill="#939"/><path d="m28.9 30.3c.2 0 .4-.1.5-.2.2-.2.2-.4.1-.7 0 0 .1 0 .1-.1.2-.3.2-.7-.1-.9-.3-.3-.7-.2-.9 0v.1c-.2-.1-.5 0-.6.2-.1.1-.2.3-.1.5-.2 0-.4.1-.5.2-.2.3-.2.7.1.9.1.1.2.1.3.2 0 .1.1.2.2.3.3.3.7.2.9 0 0-.1 0-.3 0-.5z" fill="#539b00"/><path d="m24 30.4c-.1-.2 0-.5.1-.7.2-.3.5-.4.7-.3v-.1c.3-.4.8-.5 1.1-.2.4.3.5.8.2 1.1 0 0-.1 0-.1.1.1.3.1.6 0 .8s-.4.3-.6.3c.1.2 0 .5-.1.7-.3.4-.8.5-1.1.2-.1-.1-.2-.2-.3-.3-.1 0-.3 0-.4-.1-.4-.3-.5-.8-.2-1.1s.5-.4.7-.4z" fill="#539b00"/><path d="m25.6 30.1-1.1.8-1.2 2.1z" fill="#939"/><path d="m24.5 29.7c.2-.2.3-.4.2-.7 0-.3-.3-.6-.5-.7v-.1c-.1-.5-.5-.8-.9-.7-.5.1-.8.5-.7.9v.1c-.2.2-.4.5-.4.8s.2.5.4.6c-.2.2-.3.4-.2.7.1.5.5.8.9.7.2 0 .3-.1.4-.2.1.1.3.1.4.1.5-.1.8-.5.7-.9.1-.3-.1-.5-.3-.6z" fill="#539b00"/><path d="m23.1 28.5.6 1.4.1 2.5z" fill="#939"/><path d="m25 33.7c0 .9-3 .9-3 0s.7-1.7 1.5-1.7 1.5.7 1.5 1.7z" fill="#939"/><path d="m22.1 32.1c-.2 0-.4-.1-.5-.2-.2-.2-.2-.4-.1-.7 0 0-.1 0-.1-.1-.2-.3-.2-.7.1-.9.3-.3.7-.2.9 0v.1c.2-.1.5 0 .6.2.1.1.2.3.1.5.2 0 .4.1.5.2.2.3.2.7-.1.9-.1.1-.2.1-.3.2 0 .1-.1.2-.2.3-.3.3-.7.2-.9 0 0-.1 0-.3 0-.5z" fill="#539b00"/><path d="m42.9 28.2c.1-.2 0-.5-.1-.7-.2-.3-.5-.4-.7-.3v-.1c-.3-.4-.8-.5-1.1-.2-.4.3-.5.8-.2 1.1 0 0 .1 0 .1.1-.1.3-.1.6 0 .8s.4.3.6.3c-.1.2 0 .5.1.7.3.4.8.5 1.1.2.1-.1.2-.2.3-.3.1 0 .3 0 .4-.1.4-.3.5-.8.2-1.1s-.5-.4-.7-.4z" fill="#539b00"/><path d="m41.3 27.9 1.1.9 1.2 2.1z" fill="#939"/><path d="m44.9 27.8c.2-.1.3-.3.4-.6 0-.3-.1-.6-.4-.8v-.1c.1-.5-.3-.9-.7-.9-.5-.1-.9.3-.9.7v.1c-.3.1-.5.4-.5.7s.1.5.2.7c-.2.1-.3.3-.4.6-.1.5.3.9.7.9.2 0 .3 0 .4-.1.1.1.2.2.4.2.5.1.9-.3.9-.7.1-.3 0-.5-.1-.7z" fill="#539b00"/><path d="m43.8 26.5.2 1.4-.4 2.5z" fill="#939"/><path d="m45 31.7c0 .9-3 .9-3 0s.7-1.7 1.5-1.7 1.5.7 1.5 1.7z" fill="#939"/><path d="m44.9 30.3c.2 0 .4-.1.5-.2.2-.2.2-.4.1-.7 0 0 .1 0 .1-.1.2-.3.2-.7-.1-.9-.3-.3-.7-.2-.9 0v.1c-.2-.1-.5 0-.6.2-.1.1-.2.3-.1.5-.2 0-.4.1-.5.2-.2.3-.2.7.1.9.1.1.2.1.3.2 0 .1.1.2.2.3.3.3.7.2.9 0 0-.1 0-.3 0-.5z" fill="#539b00"/><path d="m38.9 30.2c.1-.2 0-.5-.1-.7-.2-.3-.5-.4-.7-.3v-.1c-.3-.4-.8-.5-1.1-.2-.4.3-.5.8-.2 1.1 0 0 .1 0 .1.1-.1.3-.1.6 0 .8s.4.3.6.3c-.1.2 0 .5.1.7.3.4.8.5 1.1.2.1-.1.2-.2.3-.3.1 0 .3 0 .4-.1.4-.3.5-.8.2-1.1s-.5-.4-.7-.4z" fill="#539b00"/><path d="m37.3 29.9 1 .9 1.3 2.1z" fill="#939"/><path d="m41 33.7c0 .9-3 .9-3 0s.7-1.7 1.5-1.7 1.5.7 1.5 1.7z" fill="#939"/><path d="m40.9 29.8c.2-.1.3-.3.4-.6 0-.3-.1-.6-.4-.8v-.1c.1-.5-.3-.9-.7-.9-.5-.1-.9.3-.9.7v.1c-.3.1-.5.4-.5.7s.1.5.2.7c-.2.1-.3.3-.4.6-.1.5.3.9.7.9.2 0 .3 0 .4-.1.1.1.2.2.4.2.5.1.9-.3.9-.7.1-.3 0-.5-.1-.7z" fill="#539b00"/><path d="m39.8 28.5.3 1.4-.5 2.5z" fill="#939"/><path d="m34.9 32.2c.1-.2 0-.5-.1-.7-.2-.3-.5-.4-.7-.3v-.1c-.3-.4-.8-.5-1.1-.2-.4.3-.5.8-.2 1.1 0 0 .1 0 .1.1-.1.3-.1.6 0 .8s.4.3.6.3c-.1.2 0 .5.1.7.3.4.8.5 1.1.2l.3-.3c.1 0 .3 0 .4-.1.4-.3.5-.8.2-1.1s-.5-.4-.7-.4z" fill="#539b00"/><path d="m36.9 31.8c.2-.1.3-.3.4-.6 0-.3-.1-.6-.4-.8v-.1c.1-.5-.3-.9-.7-.9-.5-.1-.9.3-.9.7v.1c-.3.1-.5.4-.5.7s.1.5.2.7c-.2.1-.3.3-.4.6-.1.5.3.9.7.9.2 0 .3 0 .4-.1.1.1.2.2.4.2.5.1.9-.3.9-.7.1-.3 0-.5-.1-.7z" fill="#539b00"/><path d="m35.8 30.5.3 1.4-.5 2.5z" fill="#939"/><path d="m37 35.7c0 .9-3 .9-3 0s.7-1.7 1.5-1.7 1.5.7 1.5 1.7z" fill="#939"/><path d="m36.9 34.3c.2 0 .4-.1.5-.2.2-.2.2-.4.1-.7 0 0 .1 0 .1-.1.2-.3.2-.7-.1-.9-.3-.3-.7-.2-.9 0v.1c-.2-.1-.5 0-.6.2-.1.1-.2.3-.1.5-.2 0-.4.1-.5.2-.2.3-.2.7.1.9.1.1.2.1.3.2 0 .1.1.2.2.3.3.3.7.2.9 0 0-.1 0-.3 0-.5z" fill="#539b00"/><path d="m32 34.4c-.1-.2 0-.5.1-.7.2-.3.5-.4.7-.3v-.1c.3-.4.8-.5 1.1-.2.4.3.5.8.2 1.1 0 0-.1 0-.1.1.1.3.1.6 0 .8s-.4.3-.6.3c.1.2 0 .5-.1.7-.3.4-.8.5-1.1.2-.1-.1-.2-.2-.3-.3-.1 0-.3 0-.4-.1-.4-.3-.5-.8-.2-1.1s.5-.4.7-.4z" fill="#539b00"/><path d="m33.6 34.1-1.1.8-1.2 2.1z" fill="#939"/><path d="m32.5 33.7c.2-.2.3-.4.2-.7 0-.3-.3-.6-.5-.7v-.1c-.1-.5-.5-.8-.9-.7-.5.1-.8.5-.7.9v.1c-.2.2-.4.5-.4.8s.2.5.4.6c-.2.2-.3.4-.2.7.1.5.5.8.9.7.2 0 .3-.1.4-.2.1.1.3.1.4.1.5-.1.8-.5.7-.9.1-.3-.1-.5-.3-.6z" fill="#539b00"/><path d="m31.1 32.5.6 1.4.1 2.5z" fill="#939"/><path d="m33 37.7c0 .9-3 .9-3 0s.7-1.7 1.5-1.7 1.5.7 1.5 1.7z" fill="#939"/><path d="m30.1 36.1c-.2 0-.4-.1-.5-.2-.2-.2-.2-.4-.1-.7 0 0-.1 0-.1-.1-.2-.3-.2-.7.1-.9.3-.3.7-.2.9 0v.1c.2-.1.5 0 .6.2.1.1.2.3.1.5.2 0 .4.1.5.2.2.3.2.7-.1.9-.1.1-.2.1-.3.2 0 .1-.1.2-.2.3-.3.3-.7.2-.9 0 0-.1 0-.3 0-.5z" fill="#539b00"/></svg>