<svg xmlns:xlink="http://www.w3.org/1999/xlink"  enable-background="new 0 0 80 40" height="40" viewBox="0 0 80 40" width="80" xmlns="http://www.w3.org/2000/svg"><path d="m38 5-38 19v1l30 15 16-8h2l4-2 2-2 14-7v-1z" fill="#cc291f"/><path d="m30 40-30-15v-1l30 15z" opacity=".11"/><path d="m30 39v1l16-8h2l4-2 2-2 14-7v-1l-16 8-2 2h-2z" opacity=".29"/><path d="m2 21v3l28 14 36-18v-3l-28-14h-.2c-6.3.7-12.3 4.5-16.8 9l-1 1c-6.5.6-12.5 2.5-17.1 7.1z" fill="#e5e5e5"/><path d="m30 38-28-14v-3l28 14z" opacity=".11"/><path d="m30 35v3l36-18v-3h-.2c-6.3.7-12.3 4.5-16.8 9l-1 1c-6.5.6-12.5 2.5-17.1 7.1z" opacity=".29"/><path d="m20 13c-6.5.6-12.5 2.5-17.1 7.1l-.9.9 28 14 .9-.9c4.6-4.6 10.6-6.5 17.1-7.1z" opacity=".05"/></svg>