<svg xmlns:xlink="http://www.w3.org/1999/xlink"  enable-background="new 0 0 800 560" height="560" viewBox="0 0 800 560" width="800" xmlns="http://www.w3.org/2000/svg"><path d="m583.4 521.1c32.8-17.8 138-62.5 89.1-92.4-45.6-27.9-142.8 24.9-174.9 42-47.4 25.2-95.1 59.4-66.1 77.6 29.7 18.7 90.1 6.3 151.9-27.2z" opacity=".2"/><g fill="#2d3134"><path d="m536.6 530.7c-1.8-4.1 4.3-2.4 4.8-1.5.5.8-3 5.4-4.8 1.5z"/><path d="m535.7 536.8c-2.2-7.3 9.5-5.1 10.1-3.6s-9.2 6.5-10.1 3.6z"/><path d="m486.9 520.7c-3.8-6.6 8.1-7.1 9-5.8 1 1.3-7.4 8.5-9 5.8z"/><path d="m482.9 519c-5.2-5.5 6.2-8.8 7.4-7.8 1.1 1.1-5.3 10.1-7.4 7.8z"/><path d="m600.3 449.2c-2.5-8.3 8.5-.8 8.5-.8s-7.5 4-8.5.8z"/><path d="m595.4 446.1c-4.1-7.1 7.6-2.6 7.6-2.6s-6 5.4-7.6 2.6z"/></g><path d="m552.3 395.1c3.8 6.3 15.5 25.1 14.4 33.7-1 8.6-7.9 17.7-4.8 22.1s18.3 4.8 27.6 3.3c8.9-1.4 16-3.3 13.4-7.4-2.5-4.1-10.4-9.4-9.6-15s-.2-12.8-2.7-21.4c-2.6-8.7-8.5-30.6-8.5-30.6z" fill="#558055"/><path d="m552.3 395.1c3.8 6.3 15.5 25.1 14.4 33.7-1 8.6-7.9 17.7-4.8 22.1s18.3 4.8 27.6 3.3c8.9-1.4 16-3.3 13.4-7.4-2.5-4.1-10.4-9.4-9.6-15s-.2-12.8-2.7-21.4c-2.6-8.7-8.5-30.6-8.5-30.6z" opacity=".2"/><path d="m431.7 394.8c4.1 6.1 17.3 27.2 15.2 42.8-2.2 15.8-2.8 26.4 1 37.5 3.8 11.2 3.5 27.6-1.3 38s1.8 19.5 15.7 18.8 30.7-10.5 29.7-14.6-7.6-5.2-10.9-16.1-3.8-28.4.5-47.9 9.4-62.6 9.4-62.6z" fill="#558055"/><path d="m431.7 394.8c4.1 6.1 17.3 27.2 15.2 42.8-2.2 15.8-2.8 26.4 1 37.5 3.8 11.2 3.5 27.6-1.3 38s1.8 19.5 15.7 18.8 30.7-10.5 29.7-14.6-7.6-5.2-10.9-16.1-3.8-28.4.5-47.9 9.4-62.6 9.4-62.6z" opacity=".2"/><path d="m796.4 72c2.9-5.2-.3-12.1-5.9-16.4s-7.7-6.9-8.9-9.9-13-9.1-25-1.6-20.9 31.3-30.3 54.9-23.3 73.5-39.5 96.3-47.7 40.7-72.8 30.8-50.1-25.9-99.8 6.7-64.6 67.1-85.9 86.3-112.3 109.4-199 158.1c-86.6 48.7-225.3 63.7-226.8 68.8s149.1-6.1 260.8-48.5c68.1-25.8 156-81 182.5-86.5 16.4-3.4 26.4-2.2 40.6 1.4 14.2 3.5 22.8 3.5 22.8 3.5s5.3 12.4 1.5 21.5-12.4 31.7-12.2 49.7c.3 18-9.1 42.8-5.8 49.9s18.3 8.1 27.6 6.6c9.4-1.5 21-3.8 20-10.4s-15.2-19.3-12.9-34 16.5-45.9 22.1-59.3 10.1-29.7 10.1-29.7 20.3.5 37.8-13.7 26.4-29.4 26.4-29.4-2.8 32.3-.8 39.9 10.4 28.6 9.1 36-9.1 21.5-.8 25.1c8.4 3.5 32.7 2 33.5-5.6s-4.6-12.9-4.8-21.3c-.3-8.4-.3-24.3-2.8-37s-3.8-30.2-1.3-46.9-2.8-58.8 16.5-77.1 49.4-68.4 66.7-124.2c17.2-55.8 23.3-69.6 40.1-75.5s13.7-2.2 17.2-8.5z" fill="#558055"/><path d="m796.4 72c.2-.4.4-.9.6-1.4-6.5 1.4-14.2.5-14.2.5s4.1 1.9 8.4 1.9c1.6 0 3.2-.1 5-.4-.1-.2 0-.4.2-.6z" opacity=".3"/><path d="m774.5 56.1s1.1-3.9 3.6-4.5 4.5 2.7 4.5 2.7-.7 1.8-2.9 2.5-5.2-.7-5.2-.7z" opacity=".3"/><path d="m778.1 53.2c2-.7 3.3 2.5 1.1 3s-2.8-2.5-1.1-3z" fill="#2d3134"/><path d="m597.4 396.6c7.3-5.9 13-12 17.3-17-4.4.9-11.2 1.5-19.2 0-13.9-2.7-28.4-29.4-28.4-29.4s1 4.1 1 22.6c0 18.6-8.5 37.5-8.5 37.5s20.4.5 37.8-13.7z" opacity=".15"/><path d="m793.4 60.5s-1.4-2.5-2.5-1.4c-1 1.1 2.5 1.4 2.5 1.4z" opacity=".3"/></svg>