<svg xmlns:xlink="http://www.w3.org/1999/xlink"  enable-background="new 0 0 800 400" height="400" viewBox="0 0 800 400" width="800" xmlns="http://www.w3.org/2000/svg"><path d="m412.6 361.8c33-17.9 138.6-62.9 89.6-92.8-45.8-28-143.5 25-175.8 42.2-47.6 25.4-95.6 59.7-66.5 78 29.9 18.7 90.6 6.3 152.7-27.4z" opacity=".2"/><path d="m269.5 227.8c3.6 26.5 7.9 35.2 6.6 43.3-1.3 8.2-4.8 28.5-5.9 35.7-1 7.1 1 31.6.8 34.1-.3 2.5-7.4 17.3-7.4 17.3l7.4.3 1 3.6 9.2-.8 2 3.1 7.6-3.1 7.1 3.3s7.9-7.4 8.2-11.5-5.6-16.8-5.4-24.7c.3-7.9 9.9-29.3 12.2-45.4s-.5-51.7-.5-51.7z" fill="#558055"/><path d="m269.5 227.8c3.6 26.5 7.9 35.2 6.6 43.3-1.3 8.2-4.8 28.5-5.9 35.7-1 7.1 1 31.6.8 34.1-.3 2.5-7.4 17.3-7.4 17.3l7.4.3 1 3.6 9.2-.8 2 3.1 7.6-3.1 7.1 3.3s7.9-7.4 8.2-11.5-5.6-16.8-5.4-24.7c.3-7.9 9.9-29.3 12.2-45.4s-.5-51.7-.5-51.7z" opacity=".2"/><path d="m413.2 234.9c3.6 11.2 6.9 29.8.5 38.5s-9.4 11.5-9.4 11.5l2.8.8-.5 4.1 6.6 1 1.8 3.6 6.4-1.3 2.3 4.1s4.6.3 13.2-3.6c8.7-3.8 15-3.3 13-15s-7.6-27.8-6.1-38.7c2-15.2-.9-26.5-4.3-35.2-3.2-8.1-26.3 30.2-26.3 30.2z" fill="#558055"/><path d="m413.2 234.9c3.6 11.2 6.9 29.8.5 38.5s-9.4 11.5-9.4 11.5l2.8.8-.5 4.1 6.6 1 1.8 3.6 6.4-1.3 2.3 4.1s4.6.3 13.2-3.6c8.7-3.8 15-3.3 13-15s-7.6-27.8-6.1-38.7c2-15.2-.9-26.5-4.3-35.2-3.2-8.1-26.3 30.2-26.3 30.2z" opacity=".2"/><path d="m7.2 93.5c-8.1-5.9-3.2-13.4 4.1-20.7s15.8-15.8 17.6-22.5 8.3-7.1 20.2-8.2c11.9-1 36.7-8.5 70.5 25.3s58.1 96.3 105 89.5 77.8-32.2 121.1-83.7 87.1-43.1 152.6-22.2 181.9-4.1 230.8-21c48.9-16.8 67.9-29.5 69.9-28.5s-48.6 41.5-124.6 72.1-159.2 53.8-159.2 53.8 2.5 30.7-9.8 57.2-10.9 36.3-10.9 50.6-8.2 24.1-4.1 37.7 7.8 22.8 4.4 27.2-6.8 5.4-6.8 5.4l-6.5-1.7-7.5 3.7-5.4-4.1-8.2 2.4-1-5.1s-9.5 4.8-9.9 1c-.3-3.7 5.8-8.8 9.2-17s6.5-26.8 2.7-46.5c-3.7-19.7-5.4-30.9-5.4-30.9s-7.2 8.3-23.5 21c-20.6 16.1-39.3 20.8-39.3 20.8s3.1 29.9-2.7 47.6-19.6 38.6-18.7 52.7c.7 9.9 8.5 21.7 3.4 27.2-5.1 5.4-18.7 7.8-18.7 7.8l-5.4-4.1-8.5 2.4-1.4-4.8-7.8.3-1-3.1-7.5-3.7s14.9-8.5 14.9-13.2c0-4.8-1.6-15.7 2.5-32 3.8-15.3 14.5-35.9 12.8-43.1-1.7-7.1-5.4-23.8-5.4-23.8s-141.3 13.6-199.1-71c-40.6-59.7-56.3-97.5-94.3-96.5-8.4.2-18.3-.6-23.7 1.4-10.1 4-13.5 9-25.4.3z" fill="#558055"/><path d="m23.2 92.6c9.3-3.1 15.7-7.3 15.7-7.3-.1 0-7.4 3.4-16.4 6.1-8.8 2.5-13.1 1.6-18.5-1.3.7 1.1 1.7 2.3 3.1 3.3 2.1.6 4.2.9 6.6.9 2.6 0 5.9-.5 9.5-1.7z" opacity=".3"/><path d="m18.4 79.2s-.7-4.6 1.9-4.4c2.5.2-1.9 4.4-1.9 4.4z" opacity=".3"/><path d="m46.1 66.3s-.3-9 4.8-12.1 11.2.5 11.2.5.5 8.8-4.1 10.9-11.9.7-11.9.7z" opacity=".3"/><g fill="#2d3134"><path d="m51.7 56.6c4.8-3.8 8.2 3.2 3.7 6.6-4.4 3.4-8-3.2-3.7-6.6z"/><path d="m322.3 372.7s7.7-9.7 9.8-3.1c2.1 6.8-9.8 3.1-9.8 3.1z"/><path d="m332.4 380.6s-2.3-11.9 3.8-7.6c5.9 4-3.8 7.6-3.8 7.6z"/><path d="m342.5 384s-4.3-9.9 2-7.2-2 7.2-2 7.2z"/><path d="m355.9 386.3s-4.8-7.3 1.1-6.1c5.8 1.3-1.1 6.1-1.1 6.1z"/><path d="m301.1 367.9s4-13.4-4.8-10.1c-8.9 3.3 4.8 10.1 4.8 10.1z"/><path d="m283.6 367.3s9.9-7.9 1.6-8.5-1.6 8.5-1.6 8.5z"/><path d="m271.1 364.8s9.7-4 3.7-6.6c-6.2-2.7-3.7 6.6-3.7 6.6z"/><path d="m262.6 359.1s9.5.8 5.1-3.8-5.1 3.8-5.1 3.8z"/><path d="m448.1 305.1s9.4-1.6 5.8-6.2c-3.6-4.7-5.8 6.2-5.8 6.2z"/><path d="m460.2 307.5s9.5-3.9 3.3-7.4-3.3 7.4-3.3 7.4z"/><path d="m474.2 309.9s9.9-7.6.6-7.9c-9.3-.1-.6 7.9-.6 7.9z"/><path d="m490.3 308.3s4.9-9.9-3.2-7.4 3.2 7.4 3.2 7.4z"/><path d="m419.6 298.6s13 .2 8.5-4.9c-4.6-5.2-8.5 4.9-8.5 4.9z"/><path d="m411.9 295.5s12.1-.2 7.4-4.5c-4.7-4.4-7.4 4.5-7.4 4.5z"/><path d="m404.5 290.9s10.5.7 6.8-3.7-6.8 3.7-6.8 3.7z"/><path d="m402.6 285.6s7.5 1 5.3-2.4c-2.2-3.3-5.3 2.4-5.3 2.4z"/></g><path d="m497 81.8s9.4 7.1 13.2 20.9c3.8 13.6 4.8 24.7 4.8 24.7s37.9-10.6 85.9-26.8c-.8 0-1.7 0-2.6.1-44.2 2-101.3-18.9-101.3-18.9z" opacity=".15"/><path d="m456.1 207.3s0 .1.1.4c.1-24.8 1.9-45.4 1.9-45.4s-17.5 38.1-39.5 52c-19.4 12.2-27 11.7-27 11.7l1.7 23.1s18.7-4.8 39.3-20.8c16.3-12.7 23.5-21 23.5-21z" opacity=".15"/></svg>