<svg xmlns:xlink="http://www.w3.org/1999/xlink"  enable-background="new 0 0 20 20" height="20" viewBox="0 0 20 20" width="20" xmlns="http://www.w3.org/2000/svg"><g fill="#656565"><path d="m18.5 6.9c-.1-.2-.3-.3-.5-.2l-1.4.6c-.5-.6-1.1-1-1.9-1-.1 0-.2 0-.3 0l-.6-1.1c0-.2-.2-.2-.4-.1s-.3.3-.2.6l.5 1c-.8.5-1.4 1.5-1.4 2.6 0 .6.9 1.1 2.5 1.4 1.3.3 2.5.2 2.5-1.4 0-.4-.1-.8-.2-1.2l1.3-.6c.1-.1.2-.4.1-.6z"/><path d="m5.6 9.6c-.1 0-.1 0-.2 0l-2.7-1.4-1.3.6h-.9c-.2 0-.4-.2-.4-.4s.2-.4.4-.4h.6l1.5-.8 3.1 1.5c.3.2.4.4.3.6s-.2.3-.4.3z"/><path d="m7.5 8c-.1 0-.1 0-.2-.1l-2.6-1.6-1.5.5-.8-.1c-.3 0-.4-.2-.4-.4 0-.3.2-.4.5-.4l.6.1 1.6-.5 3 1.8c.2 0 .3.3.2.5-.1.1-.2.2-.4.2z"/><path d="m10.5 7.3c-.1 0-.2 0-.3-.1l-2.4-1.8-1.5.2-.8-.3c-.2 0-.3-.2-.3-.5.1-.2.3-.4.5-.3l.6.2 1.7-.2 2.7 2c.2.1.2.4.1.6-.1.1-.2.2-.3.2z"/></g><path d="m15.9 10.9c0 1.9-3.1 3.4-7 3.4s-7-1.5-7-3.4 2.5-5.7 7-5.7c5.5 0 7 3.8 7 5.7z" fill="#cc291f"/><path d="m5.7 8.1c-1.6 1-2.8 2.3-3.6 3.6.2.4.5.7.9 1 .6-1.4 1.5-2.8 3.4-4 2.3-1.4 4.5-1.7 6-1.7-1.5-.4-3.9-.5-6.7 1.1z" opacity=".2"/><path d="m14.7 17c-.1 0-.2 0-.3-.1l-.9-.9-.8-1.5-3.2-1.6c-.2-.1-.3-.4-.2-.6s.3-.3.6-.2l3.4 1.7.9 1.7.8.8c.2.2.2.4 0 .6-.1.1-.2.1-.3.1z" fill="#656565"/><path d="m17.2 16.2c-.1 0-.2 0-.3-.1l-.9-1-.8-1.5-3.2-1.6c-.2-.1-.3-.4-.2-.6s.3-.3.6-.2l3.4 1.7.9 1.7.8.8c.2.2.2.4 0 .6-.1.1-.2.2-.3.2z" fill="#656565"/><path d="m19.4 14.9c-.1 0-.2 0-.3-.1l-.8-.8-.6-1.2-2.6-1.3c-.2-.1-.3-.3-.2-.6.1-.2.3-.3.6-.2l2.9 1.4.7 1.4.6.6c.2.2.2.4 0 .6-.1.1-.2.2-.3.2z" fill="#656565"/></svg>