<svg xmlns:xlink="http://www.w3.org/1999/xlink"  enable-background="new 0 0 20 20" height="20" viewBox="0 0 20 20" width="20" xmlns="http://www.w3.org/2000/svg"><path d="m5.8 10.1c-.1 0-.1 0-.2 0l-2.7-1.3-1.3.6h-.8c-.2 0-.4-.2-.4-.4s.2-.4.4-.4h.6l1.5-.8 3 1.5c.2.1.3.3.2.5 0 .3-.2.3-.3.3z" fill="#656565"/><path d="m7.7 8.6c-.1 0-.1 0-.2-.1l-2.6-1.6-1.5.5-.8-.1c-.2 0-.4-.2-.4-.5 0-.2.2-.4.5-.4l.6.1 1.7-.4 2.9 1.8c.2 0 .3.3.1.5 0 .1-.2.2-.3.2z" fill="#656565"/><path d="m10.6 7.9c-.1 0-.2 0-.2-.1l-2.4-1.8-1.5.2-.8-.2c-.2-.1-.4-.3-.3-.5s.3-.3.5-.3l.6.2 1.7-.2 2.7 2c.2.1.2.4.1.6-.2 0-.3.1-.4.1z" fill="#656565"/><path d="m18.1 11.3c0 1.8-3.1 3.3-7 3.3s-7-1.5-7-3.3 2.5-5.7 7-5.7c5.4 0 7 3.8 7 5.7z" fill="#cc291f"/><path d="m15.6 6.9c-.6-.1-1.2-.3-2-.3-3.3-.3-5.7 1.2-6.6 2.7 1.2-1.2 3.6-2.2 6.9-1.9 1.1.1 2.1.3 2.9.5-.4-.4-.8-.7-1.2-1z" opacity=".2"/><g fill="#656565"><path d="m14.8 17.5c-.1 0-.2 0-.3-.1l-.9-.9-.8-1.5-3.1-1.6c-.2-.1-.3-.3-.2-.5s.3-.3.5-.2l3.4 1.7.8 1.7.8.8c.2.2.2.4 0 .6 0 0-.1 0-.2 0z"/><path d="m17.2 16.7c-.1 0-.2 0-.3-.1l-.9-.9-.8-1.5-3.1-1.6c-.1-.2-.2-.4-.1-.6s.3-.3.5-.2l3.4 1.7.8 1.7.8.8c.2.2.2.4 0 .6 0 0-.2.1-.3.1z"/><path d="m19.4 15.4c-.1 0-.2 0-.3-.1l-.8-.8-.6-1.2-2.6-1.2c-.1-.1-.2-.4-.1-.6s.3-.3.5-.2l2.8 1.4.7 1.4.6.6c.2.2.2.4 0 .6 0 0-.1.1-.2.1z"/><path d="m9.1 10.9c-.1-.2-.3-.3-.5-.2l-1.2.5c-.4-.7-1.1-1.2-1.9-1.3-.5 0-.9.1-1.2.4l-.5-1c-.1-.3-.4-.3-.6-.2s-.3.3-.2.5l.6 1.2c-.4.5-.7 1.2-.7 1.9 0 .6.9 1.1 2.4 1.5 1.3.3 2.4.2 2.5-1.4 0-.3 0-.6-.1-.9l1.2-.6c.2 0 .3-.2.2-.4z"/></g></svg>