<svg xmlns:xlink="http://www.w3.org/1999/xlink"  enable-background="new 0 0 320 240" height="240" viewBox="0 0 320 240" width="320" xmlns="http://www.w3.org/2000/svg"><path d="m206.9 203.6c23.9-12.9 89.2-40.2 53.7-61.9-33.1-20.3-92.7 12.8-116.1 25.3-34.5 18.4-69.2 43.2-48.1 56.4 21.6 13.6 65.6 4.6 110.5-19.8z" opacity=".2"/><path d="m94.3 130.5c-1.4 6.5.4 16.5 5.5 28.1s7.6 12.8 4.2 25.1-5.1 23.5-5.1 23.5 2.2 2.3 11.8.8c4.1-.6 5.1-2.8 5.1-2.8s-2.3-7.8-1.5-10.5 3.2-3.9 2.8-5.8c-.4-2-2.9-12.7-1.5-20.9s7.2-37.9 7.2-37.9z" fill="#762c07"/><path d="m209.7 98.6c1.2 11.5 0 33.7-3 43s-4.6 17.4-4.6 17.4 2.3 1.5 7.7 1.1 8.9-1.9 8.8-2.8-1.6-7.6.3-10.1c1.9-2.6 3.8-3 3-7.6s-2.3-17.5-.7-29.3 2.4-23.4 2.4-23.4z" fill="#762c07"/><path d="m209.7 98.6c1.2 11.5 0 33.7-3 43s-4.6 17.4-4.6 17.4 2.3 1.5 7.7 1.1 8.9-1.9 8.8-2.8-1.6-7.6.3-10.1c1.9-2.6 3.8-3 3-7.6s-2.3-17.5-.7-29.3 2.4-23.4 2.4-23.4z" opacity=".15"/><path d="m204 150.2c-1.4 5.4-2.2 9.3-2.2 9.3s2.4 1.5 8 1.1 9.2-2 9.1-2.9c-.1-.6-.6-3.1-.7-5.6-3.9.2-10.4-.1-14.2-1.9z" fill="#2d3134"/><path d="m94.3 130.5c-1.4 6.5.4 16.5 5.5 28.1s7.6 12.8 4.2 25.1-5.1 23.5-5.1 23.5 2.2 2.3 11.8.8c4.1-.6 5.1-2.8 5.1-2.8s-2.3-7.8-1.5-10.5 3.2-3.9 2.8-5.8c-.4-2-2.9-12.7-1.5-20.9s7.2-37.9 7.2-37.9z" opacity=".15"/><path d="m100.4 197.8c-1.2 5.8-1.8 9.7-1.8 9.7s2.3 2.4 12.2.8c4.2-.7 5.3-2.9 5.3-2.9s-1.2-4.1-1.6-7.5c-6.4 3.1-10.6 2.1-14.1-.1z" fill="#2d3134"/><path d="m245.6 9.7c3.1-.8 8.8-2 14.5 5.5 5.7 7.4.7 21.2.9 31.1.4 15.7 7.3 25.2 5 28.7s-9-5.4-10.1-17.2c-1.1-11.9 0-37.8 0-37.8z" fill="#762c07"/><path d="m245.6 9.7c3.1-.8 8.8-2 14.5 5.5 5.7 7.4.7 21.2.9 31.1.4 15.7 7.3 25.2 5 28.7s-9-5.4-10.1-17.2c-1.1-11.9 0-37.8 0-37.8z" opacity=".15"/><path d="m265.9 69.1-6.5 1s-2.3 6.1.5 12.5c2.4 5.5 9.1 15.9 16.1 17.3-3.5-5.5-2.5-15.8-3.9-20.1-2.3-6.7-6.2-10.7-6.2-10.7z" fill="#2d3134"/><path d="m27.8 76.7s-3.1-13.8 8.8-20.2c13.6-7.4 26.2-3.5 23.9 4.4s-12.7 2.5-19.9 4.5c-6.1 1.6-9.2 3.8-12.8 11.3z" fill="#baa794"/><path d="m54.3 74.3s-15.1-.6-17 3.3 5.7 14.8 17.1 8-.1-11.3-.1-11.3z" fill="#762c07"/><path d="m54.9 78.7s-14.9-5.7-16.3-.8c-1.8 6.3 6.8 11.3 16.4 7.7s-.1-6.9-.1-6.9z" opacity=".15"/><path d="m259 137.9c-.4-5.7 2.9-18 .8-23.2s-2.9-9.2-2.3-19.1 6.5-51.8 1.5-67.3-8.6-21-25.2-22.9-23.7 4-37.5 9.9-24.7 17.8-42.2 26.4c-23 11.2-64.6 6.6-64.6 6.6s-21.2-4.7-34.8 7.8c-7.2 6.6-7.4 28.7-3.4 34.4 3.9 5.6 8.3 12.7 6.9 24.6s2 22.6 10.9 21.6c8.9-1.1 15.2-5.3 15.2-5.3s15.8 32.7 31.4 38.3c4.4 2.1 9.5 3 12.8-.1 3.9-3.6 10.5-12.5 12.6-5.6s4.4 27 3.1 33.9-5 14.9-3.8 16.8c1.1 1.9 5.2 3.1 8.4 3.1s7.8-2.3 8.1-4c.4-2-.2-6.1-1.3-11.7-.6-2.8 1.5-5.6 1.3-8-.8-6-1.2-12.2.8-20.8 2.2-9.3 4.8-18.3 5.6-21.1 1.5-5.4 25.8-14.6 41.4-26.1 17-12.6 26-32.7 26-32.7s9 20.5 10 25.1 7.8 8.5 9.2 18.6c1.3 10.1-4.4 26.6-4.6 28.3s2.1 4.6 8.4 4.6 8.4-2.9 8.4-4.6c-.1-1.7-2.8-21.7-3.1-27.5z" fill="#762c07"/><path d="m82 94s2-3.3 5.3-4.9 4.6.3 4.6.3-1.6 4-3.8 4.9-6.1-.3-6.1-.3z" fill="#2d3134"/><path d="m105.5 76.2c1.1-1.6 19.1-1.4 18.6 6-.4 7.4-13 7-17 3-4-4.1-3.8-5.8-1.6-9z" fill="#762c07"/><path d="m80.2 124.9c-4.7-4.4-15.4-1.1-22.1-.3.1 7.3 3.6 12.6 10.1 12.5 7.9-.1 13.3-3.7 14.2-4 1.2-3.2.8-5.3-2.2-8.2z" fill="#656565"/><path d="m69.9 133.3c-.8-.8 1-1.7 3-3.3s1.9-2.9 3.1-2.6 1.4 2.7-.5 4.5-4 2.8-5.6 1.4z" fill="#2d3134"/><path d="m62 132.5c.1-1-2.5-4.5-2.7-3.2s2.5 4.5 2.7 3.2z" fill="#2d3134"/><path d="m109.1 103.5c-2.2 4.5-13.1 9.7-16.4 17.4s-8.3 10.5-8.3 10.5 2.8 6.4 7.6 14.1c3.9-2.8 6.6-6 10.2-10.6 10.8-13.9 11.5-38.9 11.5-38.9s-2.5 3-4.6 7.5z" opacity=".15"/><path d="m105 78.4s16.6-4.3 18 3.6-12.2 5.6-16.2 2.3c-4.1-3.2-1.8-5.9-1.8-5.9z" opacity=".15"/><path d="m100.5 89.6s16.3-8.6 9.3-22.4c-8.7-17.1-18.9-11.5-20.9-6.8-2 4.6-1.5 7.6 4.1 9.6s14.9 3.1 7.5 19.6z" fill="#baa794"/><g fill="#2d3134"><path d="m244.8 166.2c-.2 1.7 2.2 4.5 8.9 4.5s8.9-2.8 8.9-4.5c0-.7-.4-4.2-1-8.5-4.9 2.3-9.8 2.7-14.1-1-1.3 4.9-2.6 8.7-2.7 9.5z"/><path d="m148.7 218.2c3.4 0 7.7-2.6 8.7-4 .5-.7-.4-4.3-1.3-8.5-6.4 2.3-11.1 1.8-14.2-.5-1.4 4.6-2.7 8.6-2 9.9 1.3 2 5.4 3.1 8.8 3.1z"/></g></svg>