<svg xmlns:xlink="http://www.w3.org/1999/xlink"  enable-background="new 0 0 240 240" height="240" viewBox="0 0 240 240" width="240" xmlns="http://www.w3.org/2000/svg"><path d="m72.6 169.4c-22.2 11.2-92.9 39-61 59.8 29.8 19.4 75.8 1.6 117-24.7 30.1-19.2 64.4-37.8 45.4-50.4-19.3-12.9-59.7-5.8-101.4 15.3z" opacity=".2"/><path d="m106.2 112.8c2.5 8.6 5.9 22.1 5.1 28.1-.9 6-3.4 12-2.7 13.5s1.5-.2.8 3.5c-.8 3.7-1.5 7.1.7 8.4 2.2 1.4 13.6 1.1 13.7-1.8s-5.6-10.6-5-19.2c.6-8.5 6.3-29.3 6.3-29.3z" fill="#762c07"/><path d="m106.2 112.8c2.5 8.6 5.9 22.1 5.1 28.1-.9 6-3.4 12-2.7 13.5s1.5-.2.8 3.5c-.8 3.7-1.5 7.1.7 8.4 2.2 1.4 13.6 1.1 13.7-1.8s-5.6-10.6-5-19.2c.6-8.5 6.3-29.3 6.3-29.3z" opacity=".2"/><path d="m109.9 166.4c2.3 1.4 14 1.2 14.1-1.8.1-1.4-1.2-3.9-2.5-7-3.3.7-8.6 1.4-12.5.8-.7 3.5-1.3 6.7.9 8z" fill="#2d3134"/><path d="m86.4 136c-2.8 4.9-7.8 13.4-7.8 13.4h.1c1.3-2.3 2.6-3.6 4-3.1 3.8 1.4 13.6 2.5 24.1 1.4-15-5.4-17.6-16.6-20.4-11.7z" opacity=".15"/><path d="m173.8 8.2s-5.3.8-7.4-.8-.7-4.1-2-4-7.7 6.9.7 10.5 8.7-5.7 8.7-5.7z" fill="#baa794"/><path d="m214.3 18.7c-2-9-8.2-12.4-22.9-13.7s-21 5.3-26.5 9.2c-20.1 14.5-59.6 35.6-78.9 40.2-20.8 4.9-51.6-.5-67.5 17.1s-6.5 68.6-7.9 80.3c-1.4 11.6-2.7 25-3.5 34-.5 5.7-4.7 13.3-1.4 15.8 3.8 2.9-.1 6.7 0 8.2.2 3.7 3.5 5.8 9.2 4.9 5.6-.9 8.8-3.7 8.5-4.9-.4-1.2-5.8-12.7-5.6-19.8s7.2-16.3 7.5-20.4c.4-4.1.9-12 1.6-16.4s7.3-11.5 7.3-11.5 5.5 8.4 9.1 18.7c3.5 10.2 2.6 31.4 3 39 .5 8.6-.7 13.1-.7 20 0 2.9 2.9 3.8 2.7 5-.7 4.4-.7 5.1-.3 7.2s2.9 5 7.9 4.2c4.9-.7 8.1-3.9 8.5-5.6.4-1.8-6.7-11.5-7-16.9-.4-5.5 2.1-24.8 9.9-37.5s11-31.2 15.8-29.4 18.9 3.1 32.3 0c22.8-5.3 27.9-13.5 32.9-13 4.9.5.9 5.6 2.5 14.5 2.3 12.4-1.5 16.1-.8 19.8 1.1 6-.8 7.6-.1 9.5s5.6 3.5 9.2 2.8c3.5-.7 6.5-3.4 6.3-6.4s-3-7.9-2.8-14.4 6.4-24.4 10-33.6c3.5-9.2 3.3-11.6 4.2-15.5s6-9.7 7-16.9c0-.1 0-.2 0-.4 3.5-9.1 7.2-18 11.2-22.3 1.2-1.3 9.3.7 9.3.7s1.6.3 6.1-2.1 3.7-9.7 2.7-15.2-.7-8.7 1.1-13.3c1.5-4.4 2.1-12.9.1-21.9z" fill="#762c07"/><path d="m209.9 10.7c2.2-.6 12.9 4.7 20.1 2.4s7.8-5.3 9-5.9.6 9.5-9 14c-9.4 4.4-16.7 3.1-18.9 2.7s-5.6-12-1.2-13.2z" fill="#baa794"/><path d="m212.8 28.2c1.9.2 16-2.3 17.9 3s-2.7 9.3-7.5 9.8-11.4-6.2-12.6-6.5c-1.2-.2-1.2-6.7 2.2-6.3z" fill="#762c07"/><path d="m213.7 60.5s.9 6.4-1.6 9.1c-3.4 3.8-8.2 1.7-8.2 1.7s2.8-8.2 5.5-9.7 4.3-1.1 4.3-1.1z" fill="#656565"/><g fill="#2d3134"><path d="m14.8 214.9c5.8-.9 9.1-3.8 8.7-5.1-.2-.6-1.4-3.3-2.7-6.8-5.4 1.7-10.4 1.7-13.7 1.4 0 2.2-1.8 4.3-1.8 5.4.3 3.8 3.7 6 9.5 5.1z"/><path d="m47.8 225.2c-.6 3.7-.5 4.4-.2 6.5.4 2.2 3 5.1 8.1 4.4s8.3-4 8.7-5.8c.2-.8-1.1-3.1-2.7-6-5 1.8-9.9 2.3-13.9.9z"/><path d="m165.1 173.7c-.1-1.1-.5-2.4-.9-3.9-4.6 1.4-10.2 1.5-14.6.2.3 4.2-1.1 5.7-.4 7.4.7 2 5.8 3.6 9.4 2.9 3.6-.8 6.7-3.5 6.5-6.6z"/></g><path d="m25 92.3s-2 33.1 1.8 61c.7-4.4 7.3-11.5 7.3-11.5s-7.6-20.2-8.1-30.8-1-18.7-1-18.7z" opacity=".15"/><path d="m14.1 133.9c-.7.2-1.5.2-2.3 0-2-.6-3.2-2.8-2.5-4.8.2-.5.4-1.2.7-2.1 1.6-4.5 5.3-15.1 4.4-22.1-1.1-8.2.5-17.9 4.8-29.6.7-2 2.9-3 4.9-2.3s3 2.9 2.3 4.9c-3.9 10.5-5.3 19-4.4 26 1.1 8.8-2.8 20.1-4.7 25.6-.3.8-.5 1.4-.6 1.8-.4 1.3-1.4 2.2-2.6 2.6z" fill="#762c07"/><path d="m14.1 133.9c-.7.2-1.5.2-2.3 0-2-.6-3.2-2.8-2.5-4.8.2-.5.4-1.2.7-2.1 1.6-4.5 5.3-15.1 4.4-22.1-1.1-8.2.5-17.9 4.8-29.6.7-2 2.9-3 4.9-2.3s3 2.9 2.3 4.9c-3.9 10.5-5.3 19-4.4 26 1.1 8.8-2.8 20.1-4.7 25.6-.3.8-.5 1.4-.6 1.8-.4 1.3-1.4 2.2-2.6 2.6z" opacity=".15"/><path d="m9.7 128.3 7.1 2.2s2.3 9.5-2 17.1c-9.6 17.1-4.6 29.6-4.6 29.6s-13.8-15.4-8.6-34.5c2.2-8 8.1-14.4 8.1-14.4z" fill="#2d3134"/></svg>