<svg xmlns:xlink="http://www.w3.org/1999/xlink"  enable-background="new 0 0 48 48" height="48" viewBox="0 0 48 48" width="48" xmlns="http://www.w3.org/2000/svg"><ellipse cx="24" cy="39" opacity=".3" rx="9" ry="4"/><path d="m33.9 26.2-1.2 2c-.7 1.1-1.6 2-2.8 2.6l-.3.2.4-1.1c.4-1 .5-2.2.4-3.2l-.5-3.2-1.3.2.5 3.2c.1.9 0 1.7-.3 2.6l-1 2.5c-.6.4-1.2.8-1.7 1.3-.4.4-.8.9-1.1 1.3v-.5c0-.5-.1-1.1-.2-1.6l1.6-5.8-1.2-.3-1.2 4.1-2.5-5.5-1.2.6.1-.9-1.2-.1-.5 5.4c-.7-1.8-1.2-3.6-1.6-5.6l-1.7.3c.2 1.5.6 2.9 1.1 4.4l-1.1-.7c-1-.6-1.9-1.4-2.5-2.4l-1.5-2.4-1 .7 1.5 2.4c.7 1.2 1.7 2.1 2.9 2.8l2.4 1.4c.2.6.5 1.2.8 1.8l.5.9c.6 1.2 2 2.8 3.3 3.3.6.2 1 .8 1 1.5v1.1c0 .3.3.6.6.6h1.4c.3 0 .6-.3.6-.6 0-.8.1-1.6.4-2.4.6-1.7 1.8-3.1 3.4-3.8l1.6-.8c1.5-.7 2.7-1.9 3.5-3.3l1.2-2zm-11.5 9c-1-.4-1.8-1.1-2.2-2l-.5-1.1.5-5.3 2.3 4.8c.4.8.5 1.6.5 2.4v1.5c-.2 0-.4-.2-.6-.3z" fill="#825012"/><path d="m44.6 19.5c0-1.2-.5-2.2-1.2-2.9-.2-2.5-1.6-4.7-3.7-5.8.1-.2.1-.5.1-.8 0-1.4-.8-2.6-2-3.2-1.4-1.7-3.5-2.8-5.8-2.8-1 0-2 .2-2.8.6-.8-1-1.9-1.6-3.2-1.6-1.5 0-2.8.8-3.5 2-1.2.2-2.4.6-3.4 1.3-.6-.2-1.4-.3-2.1-.3-3.7 0-6.7 2.8-7 6.4-1.7 0-3 1.4-3 3.1 0 .2 0 .4.1.6-2.3.5-4 2.5-4 4.9 0 2.8 2.2 5 5 5 1.2 0 2.3-.4 3.1-1.1.6.8 1.5 1.4 2.6 1.4.3 0 .6-.1.9-.2.5 1.6 1.9 2.8 3.7 2.8 1 0 1.9-.4 2.6-1 1.2.7 2.6 1.1 4.1 1.1s2.8-.4 4-1.1c.5.4 1.1.6 1.8.6s1.3-.2 1.8-.6c1 .7 2.1 1.1 3.4 1.1 1.4 0 2.6-.5 3.6-1.2.4.1.9.2 1.4.2 2.8 0 5-2.2 5-5-.1-1.4-.7-2.6-1.5-3.5z" fill="#539b00"/><path d="m41.1 25.8c-.8 0-1.5-.1-2.2-.4-1.1 1.6-3 2.6-5.1 2.6-.4 0-.8 0-1.1-.1 1 .7 2.1 1.1 3.4 1.1 1.4 0 2.6-.5 3.6-1.2.4.1.9.2 1.4.2 2.6 0 4.7-2 4.9-4.5-1.2 1.4-2.9 2.3-4.9 2.3z" opacity=".2"/><path d="m27.3 25.2c-1.3 0-2.5-.3-3.5-.9-1.3 1.1-2.9 1.9-4.8 1.9-1.7 0-3.3-.6-4.5-1.7-.6.3-1.2.5-2 .5-.6 0-1.1-.1-1.6-.3.5.9 1.5 1.6 2.7 1.6.3 0 .6-.1.9-.2.5 1.6 1.9 2.8 3.7 2.8 1 0 1.9-.4 2.6-1 1.2.7 2.6 1.1 4.1 1.1 3.9 0 7.1-2.8 7.8-6.4-1.1 1.6-3.1 2.6-5.4 2.6z" opacity=".2"/><path d="m24.2 19.9c-2.2 0-4.3-.9-5.7-2.4-.2 0-.3 0-.5 0-3.8 0-7-2.6-7.8-6.2-.1.6-.2 1.1-.2 1.7 0 3.9 3.1 7 7 7 .8 0 1.5-.1 2.2-.4.9.8 2.1 1.3 3.4 1.3s2.5-.5 3.4-1.3c-.6.2-1.2.3-1.8.3z" opacity=".2"/><path d="m10.4 23.3c-.9.7-2 1.2-3.2 1.2-1.6 0-3-.8-3.9-1.9.6 2 2.5 3.4 4.7 3.4 1.2 0 2.3-.5 3.2-1.2-.4-.4-.6-.9-.8-1.5z" opacity=".2"/><g fill="#fff"><path d="m38.6 18.1h.3c.7-1.2 1.9-2 3.3-2 .2 0 .4 0 .7.1-.6-.4-1.3-.6-2.1-.6-1.5 0-2.7.8-3.4 2.1-1 .3-1.8 1.1-2.1 2.1.7-1 1.9-1.7 3.3-1.7z" opacity=".2"/><path d="m11.6 20.1c0 .3 0 .6-.1.8 1.6.1 3.2.6 4.4 1.5-.3-1.4-1.5-2.4-3-2.4-.4-.6-.9-1-1.6-1.3.2.5.3.9.3 1.4z" opacity=".2"/><path d="m24.4 8.5c.2 0 .4 0 .5.1.7-1.7 2.1-3 3.8-3.6-.2 0-.3-.1-.5-.1-1.7 0-3.2.9-4.1 2.3-1 .3-1.8 1.1-2.1 2.1.7-.5 1.5-.8 2.4-.8z" opacity=".2"/></g><path d="m37.8 11.3c-.1 0-.2 0-.3 0-1.2 1.3-3 2.2-4.9 2.2-.3 0-.6 0-.9-.1.4.6 1.1 1.1 1.9 1.1s1.5-.4 1.9-1c.3.1.5.1.8.1 1.6 0 3-1.1 3.4-2.7-.7.2-1.3.4-1.9.4z" opacity=".2"/></svg>