<?xml version="1.0" encoding="utf-8"?>
<!-- Generator: Adobe Illustrator 18.1.0, SVG Export Plug-In . SVG Version: 6.00 Build 0)  -->
<svg version="1.1" id="Layer_1" xmlns="http://www.w3.org/2000/svg" xmlns:xlink="http://www.w3.org/1999/xlink" x="0px" y="0px"
	 viewBox="0 0 32 48" enable-background="new 0 0 32 48" xml:space="preserve">
<g>
	<g>
		<ellipse opacity="0.3" cx="15.5" cy="39" rx="5.6" ry="3"/>
		<path fill="#825012" d="M16,26L16,26c0.6,0,1,0.4,1,1v12c0,0.6-0.4,1-1,1h0c-0.6,0-1-0.4-1-1V27C15,26.4,15.4,26,16,26z"/>
		<path fill="#539B00" d="M17.5,36L17.5,36c-1.4,0-2.5-1.1-2.5-2.5v-16c0-1.4,1.1-2.5,2.5-2.5h0c1.4,0,2.5,1.1,2.5,2.5v16
			C20,34.9,18.9,36,17.5,36z"/>
		<path fill="#539B00" d="M20.5,31L20.5,31c-1.4,0-2.5-1.1-2.5-2.5V14.2c0-1.4,1.1-2.5,2.5-2.5h0c1.4,0,2.5,1.1,2.5,2.5v14.3
			C23,29.9,21.9,31,20.5,31z"/>
		<path fill="#539B00" d="M19.5,28.2L19.5,28.2c-1.4,0-2.5-1.1-2.5-2.5V11.5c0-1.4,1.1-2.5,2.5-2.5h0c1.4,0,2.5,1.1,2.5,2.5v14.3
			C22,27.1,20.9,28.2,19.5,28.2z"/>
		<path fill="#FFFFFF" d="M20.5,10c-1.4,0-2.5,1.1-2.5,2.5v14.1c0,1.4,1.1,2.5,2.5,2.5s2.5-1.1,2.5-2.5V12.5
			C23,11.1,21.9,10,20.5,10z"/>
		<path fill="#539B00" d="M17.5,27L17.5,27c-1.4,0-2.5-1.1-2.5-2.5v-16C15,7.1,16.1,6,17.5,6h0C18.9,6,20,7.1,20,8.5v16
			C20,25.9,18.9,27,17.5,27z"/>
		<path fill="#FFFFFF" d="M19.5,7C18.1,7,17,8.1,17,9.5v10c0,1.4,1.1,2.5,2.5,2.5s2.5-1.1,2.5-2.5v-10C22,8.1,20.9,7,19.5,7z"/>
		<path fill="#539B00" d="M17.2,2C15.9,2.1,15,3.3,15,4.6c0,0.3-0.2,0.5-0.5,0.4C14,5,13.5,5,12.9,5.2C11.7,5.8,11,7,11,8.3l0,1.3
			c0,0.2-0.2,0.4-0.4,0.4c-0.2,0-0.4,0-0.6,0.1C8.8,10.3,8,11.4,8,12.6l0,14.8c0,0.8,0.4,1.6,1,2.1c0.6,0.5,1,1.3,1,2.1v0.9
			c0,1.4,1.1,2.5,2.5,2.5h1c1.4,0,2.5-1.1,2.5-2.5v-5.1c0.6-0.6,1-1.5,1-2.4v-8.1c0.3,0.1,0.6,0.1,1,0c1.2-0.2,2-1.4,2-2.6l0-9.8
			C20,3,18.7,1.9,17.2,2z"/>
		<path fill="#FFFFFF" d="M13.5,29.5h-1c-1.4,0-2.5-1.1-2.5-2.5l0-0.9c0-0.8-0.3-1.6-1-2.1c-0.6-0.5-1-1.2-1-2v3.4
			c0,0.8,0.4,1.6,1,2.1c0.6,0.5,1,1.3,1,2.1l0,0.9c0,1.4,1.1,2.5,2.5,2.5h1c1.4,0,2.5-1.1,2.5-2.5v0c-0.9-0.7-0.5-2.1-0.7-1.8
			C14.8,29.2,14.2,29.5,13.5,29.5z"/>
		<path fill="#FFFFFF" d="M17.2,1C15.9,1.1,15,2.3,15,3.6c0,0.3-0.2,0.5-0.5,0.4c-0.5-0.1-1-0.1-1.6,0.2C11.7,4.7,11,6,11,7.3l0,1.3
			C11,8.8,10.8,9,10.6,9c-0.2,0-0.4,0-0.6,0.1C8.8,9.3,8,10.4,8,11.6L8,16c0,0.8,0.4,1.6,1,2.1c0.6,0.5,1,1.3,1,2.1v0.9
			c0,1.4,1.1,2.5,2.5,2.5h1c1.4,0,2.5-1.1,2.5-2.5c0,0,1-0.2,1-1.1v-3.1c0.3,0.1,0.6,0.1,1,0c1.2-0.2,2-1.4,2-2.6l0-10.9
			C20,2,18.7,0.8,17.2,1z"/>
		<path fill="#539B00" d="M16,27.4c0.6-0.6,1-1.5,1-2.4v-2c0,0.9-0.4,1.8-1,2.4V27.4z"/>
		<g opacity="0.3">
			<path d="M17.5,34c-1.1,0-2-0.7-2.3-1.6c-0.4,0.4-1,0.6-1.7,0.6h-1c-1.4,0-2.5-1.1-2.5-2.5v2c0,1.4,1.1,2.5,2.5,2.5h1
				c0.6,0,1.2-0.2,1.7-0.6c0.4,1,1.3,1.6,2.3,1.6c1.4,0,2.5-1.1,2.5-2.5v-2C20,32.9,18.9,34,17.5,34z"/>
			<path d="M20.5,29c-0.2,0-0.3,0-0.5-0.1v2c0.2,0,0.3,0.1,0.5,0.1c1.4,0,2.5-1.1,2.5-2.5v-2C23,27.9,21.9,29,20.5,29z"/>
		</g>
		<path opacity="0.3" d="M17.5,25h-1c0,0,0,0,0,0c-0.5,0.6-1.2,1-2,1c-1.4,0-2.5-1.1-2.5-2.5v2c0,1.4,1.1,2.5,2.5,2.5
			c0.8,0,1.5-0.4,2-1c0,0,0,0,0,0h1c1.4,0,2.5-1.1,2.5-2.5v-2C20,23.9,18.9,25,17.5,25z"/>
		<path fill="#539B00" d="M17.5,17c-0.2,0-0.3,0-0.5-0.1v2c0.2,0,0.3,0.1,0.5,0.1c1.4,0,2.5-1.1,2.5-2.5v-2C20,15.9,18.9,17,17.5,17
			z"/>
		<path fill="#539B00" d="M14.3,12.3c0.2,0,0.5,0,0.7-0.1v2.7c-0.2,0-0.4,0.1-0.7,0.1c-1.8,0-3.3-1.5-3.3-3.3V9
			C11,10.8,12.5,12.3,14.3,12.3z"/>
		<path opacity="0.3" d="M10,30.5v-0.9c0-0.8-0.3-1.6-1-2.1c-0.6-0.5-1-1.3-1-2.1v2c0,0.8,0.4,1.6,1,2.1c0.6,0.5,1,1.3,1,2.1V30.5z"
			/>
		<path fill="#FFFFFF" d="M17.5,31c-0.4,0-0.9-0.1-1.2-0.3c-0.6-0.3-1.3,0.1-1.3,0.7v0c0,1.3,0.9,2.5,2.2,2.6c1.5,0.1,2.8-1,2.8-2.5
			v-3C20,29.9,18.9,31,17.5,31z"/>
		<path fill="#FFFFFF" d="M14,26L14,26c-1.1,0-2-0.9-2-2v-3h4v3C16,25.1,15.1,26,14,26z"/>
	</g>
</g>
</svg>
