<?xml version="1.0" encoding="utf-8"?>
<!-- Generator: Adobe Illustrator 18.1.0, SVG Export Plug-In . SVG Version: 6.00 Build 0)  -->
<svg version="1.1" id="Layer_1" xmlns="http://www.w3.org/2000/svg" xmlns:xlink="http://www.w3.org/1999/xlink" x="0px" y="0px"
	 viewBox="0 0 32 24" enable-background="new 0 0 32 24" xml:space="preserve">
<g>
	<g>
		<ellipse opacity="0.3" cx="15.5" cy="17" rx="6.5" ry="2"/>
		<rect x="14" y="14" fill="#825012" width="3" height="4"/>
		<circle fill="#539B00" cx="13.6" cy="10.6" r="5.3"/>
		<circle fill="#539B00" cx="12.9" cy="11.9" r="5.7"/>
		<path opacity="0.3" d="M12.9,16.2c-2.9,0-5.3-2.2-5.7-5c0,0.2,0,0.5,0,0.7c0,3.2,2.6,5.7,5.7,5.7s5.7-2.6,5.7-5.7
			c0-0.2,0-0.5,0-0.7C18.2,14,15.8,16.2,12.9,16.2z"/>
		<circle fill="#FFFFFF" cx="18.6" cy="3.2" r="2.6"/>
		<circle fill="#539B00" cx="18.2" cy="12.2" r="5.4"/>
		<path opacity="0.3" d="M18.8,16.5c-2.2,0-4.1-1.2-5.2-3c-0.2,0-0.2,4.1,4.6,4.1c2.1,0,3.9-1.2,4.8-2.9
			C21.9,15.8,20.4,16.5,18.8,16.5z"/>
		<circle fill="#FFFFFF" cx="18.9" cy="7.1" r="5.3"/>
		<circle fill="#FFFFFF" cx="11.3" cy="8.8" r="4.1"/>
		<circle fill="#FFFFFF" cx="14.8" cy="4.7" r="4.7"/>
		<path opacity="0.3" d="M24.2,7.9c-1,1.1-2.4,1.8-4,1.8c-0.1,0-0.2,0-0.4,0c0.6,0.6,0.9,1.4,1,2.3C22.6,11.4,23.9,9.8,24.2,7.9z"/>
		<path fill="#825012" d="M20,5.7c0,2-1.5,2.6-3,2.6V9h0.6c2,0,2.4-0.9,2.4-2.9V3.7c0,0,0-0.1,0-0.2V5.7z"/>
		<path fill="#825012" d="M13,10.3c-1,0-1.8-0.3-1.8-1.2V7.5h-0.6v1.8c0,1,0.8,1.8,1.8,1.8H13L13,10.3z"/>
		<path fill="#825012" d="M14.8,5.5c0.1,0.1,0.3,0.2,0.4,0.3h0.2V4.1c-0.2,0-0.4,0-0.6-0.1V5.5z"/>
		<circle fill="#539B00" cx="21" cy="12.2" r="3.7"/>
		<path fill="#FFFFFF" d="M21,8.2c-1.1,0-2.1,0.5-2.8,1.2c0,0.2-0.1,0.4-0.1,0.6c0,2.1,1.7,3.8,3.8,3.8c1.1,0,2.1-0.5,2.8-1.2
			c0-0.2,0.1-0.4,0.1-0.6C24.8,9.9,23.1,8.2,21,8.2z"/>
		<g>
			<path opacity="0.3" d="M22.7,14c0.1,0.4,0.2,0.9,0.3,1.3c1-0.6,1.6-1.7,1.7-2.9C24.3,13.2,23.5,13.7,22.7,14z"/>
		</g>
		<path fill="#825012" d="M16,13.8c1,0,1.8-0.3,1.8-1.2V11h0.6v1.8c0,1-0.8,1.8-1.8,1.8H16L16,13.8z"/>
		<path fill="#825012" d="M15,14.5c0,0.1,0.4,0.5,0.5,0.5H16v-2.2c0,0-1,0-1-0.1V14.5z"/>
	</g>
</g>
</svg>
