<svg xmlns:xlink="http://www.w3.org/1999/xlink"  enable-background="new 0 0 16 64" height="64" viewBox="0 0 16 64" width="16" xmlns="http://www.w3.org/2000/svg"><ellipse cx="8" cy="56" opacity=".3" rx="6" ry="3"/><path d="m8 43c.6 0 1 .4 1 1v12c0 .6-.4 1-1 1-.6 0-1-.4-1-1v-12c0-.6.4-1 1-1z" fill="#825012"/><path d="m13.8 14c-.2 0-.3 0-.4.1v-2.1c0-1.2-.8-2.2-1.8-2.4v-3c0-1.4-1-2.5-2.2-2.5-.9 0-1.7.6-2 1.5-.6.4-.8 1.2-.8 2 0 .3-.2.5-.4.4-.5 0-1.3 0-1.8.2-1.1.6-1.7 1.8-1.7 3.1v5.2c-.5.5-.9 1.2-.9 2v4.5s0 0-.1 0c-1 .3-1.7 1.4-1.7 2.6v15.8c0 .8.4 1.6.9 2.1.6.5.8 1.3.8 2.1v.9c0 1.4 1 2.5 2.2 2.5h.4v1.2c0 1 .7 1.8 1.6 1.8h3.9c.9 0 1.6-.8 1.6-1.8v-2.2c.1 0 .3.1.4.1 1.2 0 2.2-1.1 2.2-2.5v-4.6c1-.2 1.8-1.2 1.8-2.4v-22c.2-1.5-.8-2.6-2-2.6z" fill="#539b00"/><path d="m9.9 50h-3.8c-.9 0-1.6-.8-1.6-1.8v-1.2h-.5c-1.2 0-2.2-1.1-2.2-2.5v-.9c0-.8-.3-1.6-.8-2.1-.6-.4-1-1.2-1-2.1v2c0 .8.4 1.6.9 2.1.6.5.8 1.3.8 2.1v.9c0 1.4 1 2.5 2.2 2.5h.4v1.2c0 1 .7 1.8 1.6 1.8h3.9c.9 0 1.6-.8 1.6-1.8v-2c.2 1-.6 1.8-1.5 1.8z" opacity=".3"/><path d="m12 46c-.2 0-.3 0-.4-.1v2c.1 0 .3.1.4.1 1.2 0 2.2-1.1 2.2-2.5v-2c0 1.4-1 2.5-2.2 2.5z" opacity=".3"/><path d="m8 44.4c.6-.6.9-1.5.9-2.4v-2c0 .9-.3 1.8-.9 2.4z" fill="#539b00"/><g opacity=".3"><path d="m10.2 41.5h-.9c-.4.6-1 1-1.8 1-1.2 0-2.2-1.1-2.2-2.5v2c0 1.4 1 2.5 2.2 2.5.7 0 1.4-.4 1.8-1h.9c1.2 0 2.2-1.1 2.2-2.5v-2c0 1.4-1 2.5-2.2 2.5z"/><path d="m12 32.5c-.2 0-.3 0-.4-.1v2c.1 0 .3.1.4.1 1.2 0 2.2-1.1 2.2-2.5v-2c0 1.4-1 2.5-2.2 2.5z"/></g><g fill="#fff"><path d="m4.1 16.7c0-1.1.8-2 1.8-2h.7.4v-.3c0-1.1.8-2 1.8-2s1.8.9 1.8 2v-2c0-1.1-.8-2-1.8-2s-1.8.9-1.8 2v.3c-.1 0-.2 0-.4 0h-.7c-1 0-1.8.9-1.8 2v1.4z" opacity=".2"/><path d="m1.6 32.8c0-1.1.8-2 1.8-2h.7.4v-.3c0-1.1.8-2 1.8-2s1.8.9 1.8 2v-2c0-1.1-.8-2-1.8-2s-1.8.9-1.8 2v.3c-.1 0-.2 0-.4 0h-.7c-1 0-1.8.9-1.8 2v1.4z" opacity=".2"/><path d="m12.6 18.3c-1.2 0-2.2 1.1-2.2 2.5v1.3c0-1.4 1-2.5 2.2-2.5s2.2 1.1 2.2 2.5v-1.3c0-1.4-1-2.5-2.2-2.5z" opacity=".2"/></g></svg>