<svg xmlns:xlink="http://www.w3.org/1999/xlink"  enable-background="new 0 0 40 40" height="40" viewBox="0 0 40 40" width="40" xmlns="http://www.w3.org/2000/svg"><circle cx="20.1" cy="20.5" fill="#9c3" r="16.7"/><g fill="#539b00"><path d="m31.9 8.7c2.3 2.3 3.8 5.2 4.5 8.1 1.2 5.4-9-5.8-19.5 3.7-4.8 4.3-14.6.8-12.8-4.9.8-2.5 2.2-4.9 4.2-6.9 6.5-6.6 17.1-6.6 23.6 0z" opacity=".4"/><path d="m18 16.9c6.8 6.8 10.1 18.5 8 19.4-6.2 2.4-13.6 1.1-18.6-3.9-5.6-5.6-6.6-14.2-2.8-20.8.8-1.3 3.1-5.1 13.4 5.3z"/></g></svg>