<svg xmlns:xlink="http://www.w3.org/1999/xlink"  enable-background="new 0 0 64 56" height="56" viewBox="0 0 64 56" width="64" xmlns="http://www.w3.org/2000/svg"><path d="m34 50 28-14v-22l-28 14z" fill="#999"/><path d="m34 51 28-14v-2l-28 14z" fill="#825012"/><path d="m37 47.5-1 .5v-21l1-.5z" opacity=".1"/><path d="m40 46-1 .5v-21l1-.5z" opacity=".1"/><path d="m43 44.5-1 .5v-21l1-.5z" opacity=".1"/><path d="m46 43-1 .5v-21l1-.5z" opacity=".1"/><path d="m49 41.5-1 .5v-21l1-.5z" opacity=".1"/><path d="m52 40-1 .5v-21l1-.5z" opacity=".1"/><path d="m55 38.5-1 .5v-21l1-.5z" opacity=".1"/><path d="m58 37-1 .5v-21l1-.5z" opacity=".1"/><path d="m61 35.5-1 .5v-21l1-.5z" opacity=".1"/><path d="m44 39.5 7-3.5v-11l-7 3.5z" fill="#e5e5e5"/><path d="m45 38 5-2.5v-9l-5 2.5z" fill="#39c"/><path d="m45 34.5v-5.5l4-2z" opacity=".1"/><path d="m51 28.5v-1l-3 1.5v-2l-1 .5v2l-2 1v1l2-1v1.5l-2 1v1l2-1v1.5l-2 1v1l2-1v2l1-.5v-2l3-1.5v-1l-3 1.5v-1.5l3-1.5v-1l-3 1.5v-1.5z" fill="#e5e5e5" opacity=".6"/><path d="m34 28v23l28-14v-23z" opacity=".29"/><path d="m10 39 24 12v-22l-24-12z" fill="#999"/><path d="m11 17.5-1-.5v22l1 .5z" opacity=".1"/><path d="m33 28.5v22l1 .5v-22z" opacity=".2"/><path d="m32 50-1-.5v-22l1 .5z" opacity=".1"/><path d="m29 48.5-1-.5v-22l1 .5z" opacity=".1"/><path d="m26 47-1-.5v-22l1 .5z" opacity=".1"/><path d="m23 45.5-1-.5v-22l1 .5z" opacity=".1"/><path d="m20 44-1-.5v-22l1 .5z" opacity=".1"/><path d="m17 42.5-1-.5v-22l1 .5z" opacity=".1"/><path d="m14 41-1-.5v-22l1 .5z" opacity=".1"/><path d="m10 17v1l24 12v-1z" opacity=".11"/><path d="m32 31-9-4.5v17l9 4.5z" fill="#e5e5e5"/><path d="m31 47.5-7-3.5v-16l7 3.5z" opacity=".1"/><path d="m25 43.5v-15l-1-.5v16l7 3.5v-1z" opacity=".3"/><path d="m27 33.5-2-1v-1l2 1z" opacity=".3"/><path d="m30 35-2-1v-1l2 1z" opacity=".3"/><path d="m27 37.5-2-1v-1l2 1z" opacity=".3"/><path d="m30 39-2-1v-1l2 1z" opacity=".3"/><path d="m27 41.5-2-1v-1l2 1z" opacity=".3"/><path d="m30 43-2-1v-1l2 1z" opacity=".3"/><path d="m20 37.5-7-3.5v-11l7 3.5z" fill="#e5e5e5"/><path d="m19 36-5-2.5v-9l5 2.5z" fill="#39c"/><path d="m19 32.5v-5.5l-4-2z" opacity=".1"/><path d="m13 26.5v-1l3 1.5v-2l1 .5v2l2 1v1l-2-1v1.5l2 1v1l-2-1v1.5l2 1v1l-2-1v2l-1-.5v-2l-3-1.5v-1l3 1.5v-1.5l-3-1.5v-1l3 1.5v-1.5z" fill="#e5e5e5" opacity=".6"/><path d="m10 17v21.9l24 12.1v-22z" opacity=".11"/><path d="m10 17v11.9l24 12.1v-12z" opacity=".15"/><path d="m0 23 12-3 36.2-18.2-24.1 12.2z" opacity=".06"/><path d="m34 51-9.9 5-24.1-12v-2l10-5 24 12z" fill="#825012"/><path d="m24 56 10-5v-2l-10 5z" opacity=".29"/><path d="m0 44 24 12v-2l-24-12z" opacity=".11"/><path d="m4 33-1 .5v7l1 .5 1-.5v-7z" fill="#825012"/><path d="m5 40.5-1 .5v-7l1-.5z" opacity=".29"/><path d="m4 41-1-.5v-7l1 .5z" opacity=".11"/><path d="m10 30-1 .5v7l1 .5 1-.5v-7z" fill="#825012"/><path d="m11 37.5-1 .5v-7l1-.5z" opacity=".29"/><path d="m10 38-1-.5v-7l1 .5z" opacity=".11"/><path d="m7 31.5-1 .5v7l1 .5 1-.5v-7z" fill="#825012"/><path d="m8 39-1 .5v-7l1-.5z" opacity=".29"/><path d="m7 39.5-1-.5v-7l1 .5z" opacity=".11"/><path d="m27 44.5-1 .5v7l1 .5 1-.5v-7z" fill="#825012"/><path d="m28 52-1 .5v-7l1-.5z" opacity=".29"/><path d="m27 52.5-1-.5v-7l1 .5z" opacity=".11"/><path d="m10 39-1 .5v7l1 .5 1-.5v-7z" fill="#825012"/><path d="m11 46.5-1 .5v-7l1-.5z" opacity=".29"/><path d="m10 47-1-.5v-7l1 .5z" opacity=".11"/><path d="m7 37.5-1 .5v7l1 .5 1-.5v-7z" fill="#825012"/><path d="m8 45-1 .5v-7l1-.5z" opacity=".29"/><path d="m7 45.5-1-.5v-7l1 .5z" opacity=".11"/><path d="m4 36-1 .5v7l1 .5 1-.5v-7z" fill="#825012"/><path d="m5 43.5-1 .5v-7l1-.5z" opacity=".29"/><path d="m4 44-1-.5v-7l1 .5z" opacity=".11"/><path d="m33 41.5-1 .5v7l1 .5 1-.5v-7z" fill="#825012"/><path d="m34 49-1 .5v-7l1-.5z" opacity=".29"/><path d="m33 49.5-1-.5v-7l1 .5z" opacity=".11"/><path d="m30 43-1 .5v7l1 .5 1-.5v-7z" fill="#825012"/><path d="m31 50.5-1 .5v-7l1-.5z" opacity=".29"/><path d="m30 51-1-.5v-7l1 .5z" opacity=".11"/><path d="m34 42.5-10 5-1-.5v-1l10-5 1 .5z" fill="#825012"/><path d="m24 47.5 10-5v-1l-10 5z" opacity=".29"/><path d="m11 31-10 5-1-.5v-1l10-5 1 .5z" fill="#825012"/><path d="m1 36 10-5v-1l-10 5z" opacity=".29"/><path d="m24 30-1 .5v23l1 .5 1-.5v-23z" fill="#825012"/><path d="m25 53.5-1 .5v-23l1-.5z" opacity=".29"/><path d="m24 54-1-.5v-23l1 .5z" opacity=".11"/><path d="m1 21.5-1 .5v20l1 .5 1-.5v-20z" fill="#825012"/><path d="m2 42-1 .5v-20l1-.5z" opacity=".29"/><path d="m1 42.5-1-.5v-20l1 .5z" opacity=".11"/><path d="m1 36 12 6 1-.5v-1l-12-6-1 .5z" fill="#825012"/><path d="m13 42-12-6v-1l12 6z" opacity=".11"/><path d="m13 24.5-1 .5v23l1 .5 1-.5v-23z" fill="#825012"/><path d="m14 48-1 .5v-23l1-.5z" opacity=".29"/><path d="m13 48.5-1-.5v-23l1 .5z" opacity=".11"/><path d="m52 2h-12l-40 20h12l12 12 40-20z" fill="#2d3134"/><path d="m24 34-12-12 40-20 12 12z" opacity=".29"/><path d="m24 34-24-12h12z" fill="#999"/><path d="m24 34-24-12v1l24 12 40-20v-1z" fill="#e5e5e5"/><path d="m24 34v1l40-20v-1z" opacity=".29"/><path d="m0 22v1l24 12v-1l-12-12z" opacity=".11"/><path d="m50 2h-1l-2 1h-9l-1 .5h9l-3 1.5h-9l-1 .5h9l-3 1.5h-9l-1 .5h9l-3 1.5h-9l-1 .5h9l-3 1.5h-9l-1 .5h9l-3 1.5h-9l-1 .5h9l-3 1.5h-9l-1 .5h9l-3 1.5h-9l-1 .5h9l-4 2h-9l-1 .5h9l-4 2h1z" opacity=".2"/><path d="m61 15.5 1-.5-9-9 2-1-1-1-40 20 1 1 4-2 9 9 1-.5-9-9 4-2 9 9 1-.5-9-9 3-1.5 9 9 1-.5-9-9 3-1.5 9 9 1-.5-9-9 3-1.5 9 9 1-.5-9-9 3-1.5 9 9 1-.5-9-9 3-1.5 9 9 1-.5-9-9 3-1.5 9 9 1-.5-9-9 3-1.5z" opacity=".2"/></svg>