<svg xmlns:xlink="http://www.w3.org/1999/xlink"  enable-background="new 0 0 64 56" height="56" viewBox="0 0 64 56" width="64" xmlns="http://www.w3.org/2000/svg"><path d="m64 36-9.9 5-24.1-12v-2l10-5 24 12z" fill="#825012"/><path d="m54 41 10-5v-2l-10 5z" opacity=".29"/><path d="m30 29 24 12v-2l-24-12z" opacity=".11"/><path d="m57 29.5-1 .5v7l1 .5 1-.5v-7z" fill="#825012"/><path d="m58 37-1 .5v-7l1-.5z" opacity=".29"/><path d="m57 37.5-1-.5v-7l1 .5z" opacity=".11"/><path d="m54 31-1 .5v7l1 .5 1-.5v-7z" fill="#825012"/><path d="m55 38.5-1 .5v-7l1-.5z" opacity=".29"/><path d="m54 39-1-.5v-7l1 .5z" opacity=".11"/><path d="m60 28-1 .5v7l1 .5 1-.5v-7z" fill="#825012"/><path d="m61 35.5-1 .5v-7l1-.5z" opacity=".29"/><path d="m60 36-1-.5v-7l1 .5z" opacity=".11"/><path d="m63 14-1 .5v19.5l1 .5 1-.5v-19.5z" fill="#825012"/><path d="m64 34-1 .5v-19.5l1-.5z" opacity=".29"/><path d="m63 34.5-1-.5v-19.5l1 .5z" opacity=".11"/><path d="m63 28-10 5-1-.5v-1l10-5 1 .5z" fill="#825012"/><path d="m53 33 10-5v-1l-10 5z" opacity=".29"/><path d="m26 54 28-14v-22l-28 14z" fill="#999"/><path d="m26 55 28-14v-2l-28 14z" fill="#825012"/><path d="m29 51.5-1 .5v-21l1-.5z" opacity=".1"/><path d="m32 50-1 .5v-21l1-.5z" opacity=".1"/><path d="m35 48.5-1 .5v-21l1-.5z" opacity=".1"/><path d="m38 47-1 .5v-21l1-.5z" opacity=".1"/><path d="m41 45.5-1 .5v-21l1-.5z" opacity=".1"/><path d="m44 44-1 .5v-21l1-.5z" opacity=".1"/><path d="m47 42.5-1 .5v-21l1-.5z" opacity=".1"/><path d="m50 41-1 .5v-21l1-.5z" opacity=".1"/><path d="m53 39.5-1 .5v-21l1-.5z" opacity=".1"/><path d="m36 43.5 7-3.5v-11l-7 3.5z" fill="#e5e5e5"/><path d="m37 42 5-2.5v-9l-5 2.5z" fill="#39c"/><path d="m37 38.5v-5.5l4-2z" opacity=".1"/><path d="m43 32.5v-1l-3 1.5v-2l-1 .5v2l-2 1v1l2-1v1.5l-2 1v1l2-1v1.5l-2 1v1l2-1v2l1-.5v-2l3-1.5v-1l-3 1.5v-1.5l3-1.5v-1l-3 1.5v-1.5z" fill="#e5e5e5" opacity=".6"/><path d="m26 32v23l28-14v-23z" opacity=".29"/><path d="m2 42 24 12v-20l-24-12z" fill="#999"/><path d="m2 43 24 12v-2l-24-12z" fill="#825012"/><path d="m3 22.5-1-.5v19l1 .5z" opacity=".1"/><path d="m24 52-1-.5v-19l1 .5z" opacity=".1"/><path d="m21 50.5-1-.5v-19l1 .5z" opacity=".1"/><path d="m18 49-1-.5v-19l1 .5z" opacity=".1"/><path d="m15 47.5-1-.5v-19l1 .5z" opacity=".1"/><path d="m12 46-1-.5v-19l1 .5z" opacity=".1"/><path d="m9 44.5-1-.5v-19l1 .5z" opacity=".1"/><path d="m6 43-1-.5v-19l1 .5z" opacity=".1"/><path d="m2 22v20.9l24 12.1v-21z" opacity=".11"/><path d="m0 23 12-3 36.2-18.2-24.1 12.2z" opacity=".06"/><path d="m52 2h-12l-40 20h12l12 12 40-20z" fill="#2d3134"/><path d="m24 34-12-12 40-20 12 12z" opacity=".29"/><path d="m24 34-24-12h12z" fill="#999"/><path d="m24 34-24-12v1l24 12 40-20v-1z" fill="#e5e5e5"/><path d="m24 34v1l40-20v-1z" opacity=".29"/><path d="m0 22v1l24 12v-1l-12-12z" opacity=".11"/><path d="m50 2h-1l-2 1h-9l-1 .5h9l-3 1.5h-9l-1 .5h9l-3 1.5h-9l-1 .5h9l-3 1.5h-9l-1 .5h9l-3 1.5h-9l-1 .5h9l-3 1.5h-9l-1 .5h9l-3 1.5h-9l-1 .5h9l-3 1.5h-9l-1 .5h9l-4 2h-9l-1 .5h9l-4 2h1z" opacity=".2"/><path d="m61 15.5 1-.5-9-9 2-1-1-1-40 20 1 1 4-2 9 9 1-.5-9-9 4-2 9 9 1-.5-9-9 3-1.5 9 9 1-.5-9-9 3-1.5 9 9 1-.5-9-9 3-1.5 9 9 1-.5-9-9 3-1.5 9 9 1-.5-9-9 3-1.5 9 9 1-.5-9-9 3-1.5 9 9 1-.5-9-9 3-1.5z" opacity=".2"/></svg>