<svg xmlns:xlink="http://www.w3.org/1999/xlink"  enable-background="new 0 0 64 56" height="56" viewBox="0 0 64 56" width="64" xmlns="http://www.w3.org/2000/svg"><path d="m64 36-5.9 3-24.1-12v-2l6-3 24 12z" fill="#baa794"/><path d="m58 39 6-3v-2l-6 3z" opacity=".29"/><path d="m34 27 24 12v-2l-24-12z" opacity=".11"/><path d="m58 37-24-12v.5l24 12 6-3v-.5z" opacity=".15"/><path d="m26 32v23l32-16v-23z" fill="#baa794"/><path d="m26 35v.5l32-16v-.5z" opacity=".15"/><path d="m26 38v.5l32-16v-.5z" opacity=".15"/><path d="m26 41v.5l32-16v-.5z" opacity=".15"/><path d="m26 44v.5l32-16v-.5z" opacity=".15"/><path d="m26 47v.5l32-16v-.5z" opacity=".15"/><path d="m26 50v.5l32-16v-.5z" opacity=".15"/><path d="m26 53v.5l32-16v-.5z" opacity=".15"/><path d="m45 39 7-3.5v-11l-7 3.5z" fill="#e5e5e5"/><path d="m46 37.5 5-2.5v-9l-5 2.5z" fill="#656565"/><path d="m46 34v-5.5l4-2z" opacity=".1"/><path d="m49 26.5-1 .5v4.5l-2 1v1l2-1v4.5l1-.5v-4.5l3-1.5v-1l-3 1.5z" fill="#e5e5e5"/><path d="m32 45.5 7-3.5v-11l-7 3.5z" fill="#e5e5e5"/><path d="m33 44 5-2.5v-9l-5 2.5z" fill="#656565"/><path d="m33 40.5v-5.5l4-2z" opacity=".1"/><path d="m36 33-1 .5v4.5l-2 1v1l2-1v4.5l1-.5v-4.5l3-1.5v-1l-3 1.5z" fill="#e5e5e5"/><path d="m26 32v23l32-16v-23z" opacity=".29"/><path d="m26 34v21l-24-12v-21h11z" fill="#baa794"/><path d="m26 35v.5l-24-12v-.5z" opacity=".15"/><path d="m20 29v.5l-14-7v-.5z" opacity=".15"/><path d="m26 38v.5l-24-12v-.5z" opacity=".15"/><path d="m26 41v.5l-24-12v-.5z" opacity=".15"/><path d="m26 44v.5l-24-12v-.5z" opacity=".15"/><path d="m26 47v.5l-24-12v-.5z" opacity=".15"/><path d="m26 50v.5l-24-12v-.5z" opacity=".15"/><path d="m26 53v.5l-24-12v-.5z" opacity=".15"/><path d="m17 44-7-3.5v-11l7 3.5z" fill="#e5e5e5"/><path d="m16 42.5-5-2.5v-9l5 2.5z" fill="#656565"/><path d="m16 39v-5.5l-4-2z" opacity=".1"/><path d="m13 31.5 1 .5v4.5l2 1v1l-2-1v4.5l-1-.5v-4.5l-3-1.5v-1l3 1.5z" fill="#e5e5e5"/><path d="m26 34v21l-24-12v-21h11z" opacity=".11"/><path d="m0 23 12-3 36.2-18.2-24.1 12.2z" opacity=".06"/><path d="m63 14-1 .5v19.5l1 .5 1-.5v-19.5z" fill="#baa794"/><path d="m64 34-1 .5v-19.5l1-.5z" opacity=".29"/><path d="m63 34.5-1-.5v-19.5l1 .5z" opacity=".11"/><path d="m52 2h-12l-40 20v1h12l12 12 40-20v-1z" fill="#28896d"/><path d="m24 34-12-12 40-20 12 12z" opacity=".2"/><path d="m24 34v1l40-20v-1z" opacity=".29"/><path d="m12 22h-12v1h12l12 12v-1z" opacity=".11"/></svg>