<svg xmlns:xlink="http://www.w3.org/1999/xlink"  enable-background="new 0 0 64 56" height="56" viewBox="0 0 64 56" width="64" xmlns="http://www.w3.org/2000/svg"><path d="m30 30v23l32-16v-23z" fill="#baa794"/><path d="m30 33v.5l32-16v-.5z" opacity=".15"/><path d="m30 36v.5l32-16v-.5z" opacity=".15"/><path d="m30 39v.5l32-16v-.5z" opacity=".15"/><path d="m30 42v.5l32-16v-.5z" opacity=".15"/><path d="m30 45v.5l32-16v-.5z" opacity=".15"/><path d="m30 48v.5l32-16v-.5z" opacity=".15"/><path d="m30 51v.5l32-16v-.5z" opacity=".15"/><path d="m49 37 7-3.5v-11l-7 3.5z" fill="#e5e5e5"/><path d="m50 35.5 5-2.5v-9l-5 2.5z" fill="#656565"/><path d="m50 32v-5.5l4-2z" opacity=".1"/><path d="m53 24.5-1 .5v4.5l-2 1v1l2-1v4.5l1-.5v-4.5l3-1.5v-1l-3 1.5z" fill="#e5e5e5"/><path d="m36 43.5 7-3.5v-11l-7 3.5z" fill="#e5e5e5"/><path d="m37 42 5-2.5v-9l-5 2.5z" fill="#656565"/><path d="m37 38.5v-5.5l4-2z" opacity=".1"/><path d="m40 31-1 .5v4.5l-2 1v1l2-1v4.5l1-.5v-4.5l3-1.5v-1l-3 1.5z" fill="#e5e5e5"/><path d="m30 30v23l32-16v-23z" opacity=".29"/><path d="m6 41 24 12v-22l-24-12z" fill="#baa794"/><path d="m6 21v.5l24 12v-.5z" opacity=".15"/><path d="m6 24v.5l24 12v-.5z" opacity=".15"/><path d="m6 27v.5l24 12v-.5z" opacity=".15"/><path d="m6 30v.5l24 12v-.5z" opacity=".15"/><path d="m6 33v.5l24 12v-.5z" opacity=".15"/><path d="m6 36v.5l24 12v-.5z" opacity=".15"/><path d="m21 29.5-8-4v17l8 4z" fill="#825012"/><path d="m15 42.5v-15l-1-.5v16l6 3v-1z" opacity=".3"/><g fill="#656565"><path d="m18 32.5 2 1v-3.5l-2-1z"/><path d="m20 34.5-2-1v3l1.7.8.3.2z"/><path d="m17 28.5-2-1v3.5l2 1z"/><path d="m17 33-2-1v3l2 1z"/></g><path d="m6 19v21.9l24 12.1v-22z" opacity=".11"/><path d="m17 32-2-1v-.5l2 1z" opacity=".3"/><path d="m20 33.5-2-1v-.5l2 1z" opacity=".3"/><path d="m17 36-2-1v-.5l2 1z" opacity=".3"/><path d="m20 37.5-2-1v-.5l2 1z" opacity=".3"/><path d="m20 46-6-3v-16l6 3z" opacity=".1"/><path d="m0 23 12-3 36.2-18.2-24.1 12.2z" opacity=".06"/><path d="m30 53-5.9 3-24.1-12v-2l6-3 24 12z" fill="#baa794"/><path d="m24 56 6-3v-2l-6 3z" opacity=".29"/><path d="m0 44 24 12v-2l-24-12z" opacity=".11"/><path d="m24 54-24-12v.5l24 12 6-3v-.5z" opacity=".15"/><path d="m24 30-1 .5v23l1 .5 1-.5v-23z" fill="#baa794"/><path d="m25 53.5-1 .5v-23l1-.5z" opacity=".29"/><path d="m24 54-1-.5v-23l1 .5z" opacity=".11"/><path d="m1 21.5-1 .5v20l1 .5 1-.5v-20z" fill="#baa794"/><path d="m2 42-1 .5v-20l1-.5z" opacity=".29"/><path d="m1 42.5-1-.5v-20l1 .5z" opacity=".11"/><path d="m52 2h-12l-40 20v1h12l12 12 40-20v-1z" fill="#28896d"/><path d="m24 34-12-12 40-20 12 12z" opacity=".2"/><path d="m24 34v1l40-20v-1z" opacity=".29"/><path d="m12 22h-12v1h12l12 12v-1z" opacity=".11"/><path d="m13 42.5-4 2 9 4.5 4-2z" opacity=".15"/></svg>