<svg xmlns:xlink="http://www.w3.org/1999/xlink"  enable-background="new 0 0 32 56" height="56" viewBox="0 0 32 56" width="32" xmlns="http://www.w3.org/2000/svg"><ellipse cx="16" cy="48.3" opacity=".3" rx="5" ry="2.3"/><path d="m12.8 36.5c-.3-.2-.5-.5-.5-.8v-2.7c0-.9-.7-1.6-1.6-1.6s-1.6.7-1.6 1.6v3.3c0 1 .6 1.9 1.4 2.3l2.8 1.4 1.6-2.4z" fill="#539b00"/><path d="m12.4 37.6c-.9-.4-1.4-1.3-1.4-2.3v-2.5c0-.4.1-.7.4-1-.8.1-1.4.7-1.4 1.5v2.5c0 1 .6 1.9 1.4 2.3l2.8 1.4.5-.8z" opacity=".15"/><path d="m16 4c-1.7 0-3 1.3-3 3v41c0 .8 1.3 1.5 3 1.5s3-.7 3-1.5v-41c0-1.7-1.3-3-3-3z" fill="#539b00"/><path d="m8.9 16.4c-.1-.1-.2-.2-.2-.4v-1.3c0-.4-.3-.7-.7-.7s-.7.3-.7.7v1.6c0 .5.3.9.7 1.1l1.3.7.7-1.1z" fill="#539b00"/><path d="m8.6 16.8c-.4-.2-.7-.6-.7-1.1v-1.6-.1c-.4 0-.7.3-.7.7v1.6c0 .5.3.9.7 1.1l1.3.7.5-.7z" opacity=".15"/><path d="m17 33.8c-.3-.1-.6-.2-1-.2v15.9c.4 0 .7 0 1-.1z" opacity=".15"/><path d="m18 4.8v44.3c.6-.3 1-.7 1-1.1v-41c0-.9-.4-1.7-1-2.2z" opacity=".2"/><path d="m24.4 25.1c.3-.2.5-.5.5-.8v-2.7c0-.9.7-1.6 1.6-1.6s1.6.7 1.6 1.6v3.3c0 1-.6 1.9-1.4 2.3l-2.8 1.4-1.6-2.4z" fill="#539b00"/><path d="m26.4 20c-.3 0-.5.1-.7.2.2.2.3.5.3.8v3.3c0 1-.6 1.9-1.4 2.3l-1.6.8.8 1.1 2.8-1.4c.9-.4 1.4-1.3 1.4-2.3v-3.3c0-.8-.7-1.5-1.6-1.5z" opacity=".1"/><path d="m16.2 4c.5.6.8 1.2.8 2v43.4c1.2-.2 2-.8 2-1.4v-41c0-1.6-1.2-2.9-2.8-3z" opacity=".1"/><path d="m21.5 18.8c-1.2.1-2 1.2-2 2.4v10.1c0 .2-.2.3-.4.2l-.4-.2c-.3-.1-.7-.1-1.1.1-.9.4-1.6 1.5-1.6 2.4 0 .5.2.8.5.9l2.7 1.4c2.2 1.1 4.7-.5 4.7-2.9v-12.2c.1-1.3-1-2.4-2.4-2.2z" fill="#539b00"/><path d="m21.9 18.8c0 .2.1.3.1.5v13.1c0 2-2.1 3.4-4 2.4l-2-1v.1c0 .5.2.8.5.9l2.7 1.4c2.2 1.1 4.7-.5 4.7-2.9v-12.3c.1-1.2-.8-2.1-2-2.2z" opacity=".1"/><path d="m22.6 18.9c.3.4.4.8.4 1.3v12.2c0 2.4-2.6 4-4.7 2.9l-2.2-1.1c.1.2.2.4.4.5l2.7 1.4c2.2 1.1 4.7-.5 4.7-2.9v-12.2c.1-1-.5-1.7-1.3-2.1z" opacity=".15"/><path d="m11.3 12c1 .2 1.6 1.1 1.6 2v3.9c0 .2.2.3.3.2l.3-.2c.3-.1.6-.1 1 .1.8.4 1.4 1.3 1.4 2.1 0 .4-.2.7-.5.8l-1.9.9c-2 1.2-4.5-.3-4.5-2.7v-5.1c0-1.2 1.1-2.2 2.3-2z" fill="#539b00"/><path d="m15.3 18.6c-.2-.2-.5-.4-.7-.6-.4-.2-.7-.2-1-.1l-.3.2c-.1.1-.3 0-.3-.2v-3.9c0-.7-.4-1.4-.9-1.8v5.4c0 1.2 1.3 2 2.3 1.4z" opacity=".1"/><path d="m11 19v-6c0-.3.1-.5.2-.8-.7.3-1.2 1-1.2 1.8v5c0 2.1 2.2 3.4 4.1 2.5l.9-.5c0-.1 0-.2 0-.3s0-.1 0-.2l-.8.4c-1.5.7-3.2-.3-3.2-1.9z" opacity=".15"/><path d="m14.5 16.3c-.3 0-.5-.2-.5-.5v-9.3c0-.3.2-.5.5-.5.3 0 .5.2.5.5v9.3c0 .3-.2.5-.5.5z" opacity=".15"/><path d="m21.5 29c-.3 0-.5-.2-.5-.5v-7c0-.3.2-.5.5-.5.3 0 .5.2.5.5v7c0 .3-.2.5-.5.5z" opacity=".15"/><path d="m26.5 25c-.3 0-.5-.2-.5-.5v-3c0-.3.2-.5.5-.5.3 0 .5.2.5.5v3c0 .3-.2.5-.5.5z" opacity=".1"/><path d="m14.5 47c-.3 0-.5-.2-.5-.5v-7c0-.3.2-.5.5-.5.3 0 .5.2.5.5v7c0 .3-.2.5-.5.5z" opacity=".15"/><path d="m14.5 37c-.3 0-.5-.2-.5-.5v-13c0-.3.2-.5.5-.5.3 0 .5.2.5.5v13c0 .3-.2.5-.5.5z" opacity=".15"/><path d="m16.5 30c-.3 0-.5-.2-.5-.5v-16c0-.3.2-.5.5-.5.3 0 .5.2.5.5v16c0 .3-.2.5-.5.5z" opacity=".15"/><path d="m16.5 11c-.3 0-.5-.2-.5-.5v-3c0-.3.2-.5.5-.5.3 0 .5.2.5.5v3c0 .3-.2.5-.5.5z" opacity=".15"/><path d="m21.5 30c-.3 0-.5.2-.5.5v.7c0 1.6-1.6 2.6-3 2v.5c1.8.9 4-.4 4-2.5v-.8c0-.2-.2-.4-.5-.4z" opacity=".15"/></svg>