<svg xmlns:xlink="http://www.w3.org/1999/xlink"  enable-background="new 0 0 40 40" height="40" viewBox="0 0 40 40" width="40" xmlns="http://www.w3.org/2000/svg"><path d="m2 20v2l22 11 16-8v-2l-22-11z" fill="#999"/><path d="m24 33-22-11v-2l22 11z" opacity=".11"/><path d="m24 33 16-8v-2l-16 8z" opacity=".29"/><path d="m16 21v1l2 1 2-1v-1l-2 1z" opacity=".2"/><path d="m18 22 2-1-2-1-2 1z" fill="#fff" opacity=".1"/><path d="m13 22.5v1l2 1 2-1v-1l-2 1z" opacity=".2"/><path d="m15 23.5 2-1-2-1-2 1z" fill="#fff" opacity=".1"/><path d="m19 19.5v1l2 1 2-1v-1l-2 1z" opacity=".2"/><path d="m21 20.5 2-1-2-1-2 1z" fill="#fff" opacity=".1"/><path d="m19 22.5v1l2 1 2-1v-1l-2 1z" opacity=".2"/><path d="m21 23.5 2-1-2-1-2 1z" fill="#fff" opacity=".1"/><path d="m16 24v1l2 1 2-1v-1l-2 1z" opacity=".2"/><path d="m18 25 2-1-2-1-2 1z" fill="#fff" opacity=".1"/><path d="m22 21v1l2 1 2-1v-1l-2 1z" opacity=".2"/><path d="m24 22 2-1-2-1-2 1z" fill="#fff" opacity=".1"/><path d="m22 18v1l2 1 2-1v-1l-2 1z" opacity=".2"/><path d="m24 19 2-1-2-1-2 1z" fill="#fff" opacity=".1"/><path d="m25 19.5v1l2 1 2-1v-1l-2 1z" opacity=".2"/><path d="m27 20.5 2-1-2-1-2 1z" fill="#fff" opacity=".1"/><path d="m22 24v1l2 1 2-1v-1l-2 1z" opacity=".2"/><path d="m24 25 2-1-2-1-2 1z" fill="#fff" opacity=".1"/><path d="m19 25.5v1l2 1 2-1v-1l-2 1z" opacity=".2"/><path d="m21 26.5 2-1-2-1-2 1z" fill="#fff" opacity=".1"/><path d="m25 25.5v1l2 1 2-1v-1l-2 1z" opacity=".2"/><path d="m27 26.5 2-1-2-1-2 1z" fill="#fff" opacity=".1"/><path d="m22 27v1l2 1 2-1v-1l-2 1z" opacity=".2"/><path d="m24 28 2-1-2-1-2 1z" fill="#fff" opacity=".1"/><path d="m25 22.5v1l2 1 2-1v-1l-2 1z" opacity=".2"/><path d="m27 23.5 2-1-2-1-2 1z" fill="#fff" opacity=".1"/><path d="m28 21v1l5 2.5 2-1v-1l-2 1z" opacity=".2"/><path d="m33 23.5 2-1-5-2.5-2 1z" fill="#fff" opacity=".1"/><path d="m28 24v1l2 1 2-1v-1l-2 1z" opacity=".2"/><path d="m30 25 2-1-2-1-2 1z" fill="#fff" opacity=".1"/><path d="m10 22-4-2 12-6 4 2z" fill="#36c"/></svg>