<svg xmlns:xlink="http://www.w3.org/1999/xlink"  enable-background="new 0 0 240 320" height="320" viewBox="0 0 240 320" width="240" xmlns="http://www.w3.org/2000/svg"><path d="m71.5 260.7c-19.9 8.8-62.5 23.8-35.6 43.4 25.1 18.3 63.5-1.7 82.9-10.1 28.7-12.4 57.9-29.9 42-41.9-16.3-12.2-51.9-7.9-89.3 8.6z" opacity=".2"/><g fill="#4a2121"><path d="m149.4 270.3s-4.3-1.5-3.5.7c.9 2.2 3.5-.7 3.5-.7z"/><path d="m145.4 267.4s-2.4-.8-2.1 0 2.1 0 2.1 0z"/><path d="m75.6 298.1s-4.3-1.5-3.5.7c.9 2.3 3.5-.7 3.5-.7z"/><path d="m71.5 295.9s-2.4-.8-2.1 0c.2.8 2.1 0 2.1 0z"/><path d="m52.4 289.1s-4.3-1.5-3.5.7 3.5-.7 3.5-.7z"/><path d="m48.3 286s-2.4-.8-2.1 0 2.1 0 2.1 0z"/><path d="m128.3 261.5s-4.3-1.5-3.5.7 3.5-.7 3.5-.7z"/></g><path d="m16 128.9c-1.7 14.7 5.8 60.9 6.1 73 .4 12.1-1.7 35.8-.9 39 .7 3.2 6.5 16 8.9 27.7s3.2 17.3 2.4 20.2.2 6.3 6.5 6.9 12.1-2.4 11.7-5-3.7-3.2-3.7-3.2.7-2.2-1.3-2.6-4.8-2.8-5.8-4.8-6.1-26.4-6.9-38.1.2-32.7 8.7-45.7-13-63.1-13-63.1z" fill="#825012"/><path d="m109.5 166.7s-.7 37.9.3 45 1.4 31.9 1.1 37.5-.4 10.2-1.3 12.5c-.8 2.4-.4 7.8 5.2 7.4s13.5-3.3 11.8-6.7c-1.7-3.3-5.4-1.5-7-5.7-1.5-4.2-3.3-25.5-.1-35.8s3.2-14.5 3.3-23 5.6-42.2 5.6-42.2z" fill="#825012"/><path d="m16 128.9c-1.7 14.7 5.8 60.9 6.1 73 .4 12.1-1.7 35.8-.9 39 .7 3.2 6.5 16 8.9 27.7s3.2 17.3 2.4 20.2.2 6.3 6.5 6.9 12.1-2.4 11.7-5-3.7-3.2-3.7-3.2.7-2.2-1.3-2.6-4.8-2.8-5.8-4.8-6.1-26.4-6.9-38.1.2-32.7 8.7-45.7-13-63.1-13-63.1z" opacity=".15"/><path d="m109.5 166.7s-.7 37.9.3 45 1.4 31.9 1.1 37.5-.4 10.2-1.3 12.5c-.8 2.4-.4 7.8 5.2 7.4s13.5-3.3 11.8-6.7c-1.7-3.3-5.4-1.5-7-5.7-1.5-4.2-3.3-25.5-.1-35.8s3.2-14.5 3.3-23 5.6-42.2 5.6-42.2z" opacity=".15"/><path d="m190.2 51.1c-1.3 5-5.1 27.4-9.1 36.8s-13.1 15.6-13.1 15.6-7.1-15.2-15.8-21.3c-8.6-6-27.1-8.5-27.1-8.5s-11.1-32.2-34.5-25.2-30.3 30-40.2 38.7-30.3 24.3-33.5 36c-5.4 20.1 10 45.1 16.9 60.9s12.7 26.5 12.8 32.6-3.9 30.5-3.2 34.3c.6 3.7 10.6 28.8 10.6 36.4 0 7.7-4 11-.8 14.8s19.9 1.9 20.5-1.9c.6-3.6-2.9-3.1-2.9-3.1s-.6-2.2-2.4-2.5-4 .4-6.4-6.4-7-29-5.2-42.3c1.8-13.4 5.8-30.9 9.9-38.7 4-7.8 4.5-42.1 4.5-42.1s19.4 9.3 37.6 4.3 29.2-11.6 29.2-11.6.3 24.1-1.9 35.1-3.9 23.3-3.2 32.7c.7 9.5-.6 31.5-1.8 36.8-1.3 5.3-4 9.1-2.2 12s9.7 3.3 13.9 1.7c4.2-1.7 5.7-3.3 4.9-5s-2.9-2.1-2.9-2.1.4-1.8-1.1-2.2-3.1 1-3.6-1c-.6-1.9-1.3-23.4.1-32s3.3-13.1 4.3-22.3 8.2-39.5 14.9-49.4 9.7-12.4 11.8-17.3 13.9-8.4 21.3-20.2 14.2-47.1 18.2-52.6 4.7-3.9 8.4-6.3c3.6-2.4 4.9-6 7.4-6.3s6.8-.3 6.8-4.3-.3-8.8-1.9-10c-1.7-1.3-8.8-3.5-13.4-3.3-4.6.1-13.6-5.7-20.2-1.5-6.6 4-6.4 6.6-7.6 10.7z" fill="#825012"/><path d="m192.5 49.6s-5.4-2.7-6.1-6c-1.1-4.7-1.9-8.4-.3-8.9 1.7-.6 4.9 1 7.1 4.7 2.2 3.8 4 6.4 4 6.4z" fill="#825012"/><path d="m210.4 52.3s-3.8-4.7-3.3-9.3 2.6-7.5 3.2-7.5 4.5 3.1 4.5 8.2-4.4 8.6-4.4 8.6z" fill="#825012"/><path d="m212.4 49.4c-2.5 1.4-1-9.5-1-9.5s5.6 6.9 1 9.5z" opacity=".15"/><path d="m220.8 49.9 3.7-1.9s.1 2.9-1.1 3.5-2.6-1.6-2.6-1.6z" fill="#2d3134"/><path d="m113.6 55.1s-10.7-11.3-23.2-4.9c-14.4 7.5-14.9 14.3-25.8 26.5s-23.4 18.3-23.4 18.3 14.3-13.3 23.4-30.4 17.2-20 26-21.9c6.6-1.4 19.2 2.1 23 12.4z" fill="#4a2121"/><path d="m15.6 156.5c-4.6 15.9-6.8 22.1-4.6 36.8 2.2 14.6 7.4 28.3 7.4 28.3s4.5-10.9 4.9-26.2-4.9-25.3-4-34.5-.1-28-.1-28l-1.4-.1c-.1-.1.5 14.7-2.2 23.7z" fill="#4a2121"/><path d="m208.6 63.8s.7 4 3.7 6.2c1.3-1.5 2.2-2.1 3.1-2.5-3.4.5-6.8-3.7-6.8-3.7z" opacity=".15"/><path d="m228.6 48.7c1.1 1 3.8 5.5 3.6 6.8s-3.7-.4-3.7-.4 1 2.3 3.4 3c.8-.6 1.4-1.5 1.4-3 0-4-.3-8.8-1.9-10-2.8 1.3-3.9 2.6-2.8 3.6z" opacity=".15"/><path d="m230.2 46.6c0-.5 1-1 1.2-.8s.3 3.1.3 3.1-1.6-1.8-1.5-2.3z" fill="#2d3134"/></svg>