<svg xmlns:xlink="http://www.w3.org/1999/xlink"  enable-background="new 0 0 40 40" height="40" viewBox="0 0 40 40" width="40" xmlns="http://www.w3.org/2000/svg"><path d="m10 26-8 4v1l6 3 2-1 14 7 6-3v-1z" fill="#2d3134"/><path d="m10 12-8 4v14l6 3 2-1 14 7 6-3v-14z" fill="#656565"/><path d="m10 11-8 4v2l6 3 2-1 14 7 6-3v-2z" fill="#999"/><path d="m24 40-14-7v-16l14 7z" opacity=".11"/><path d="m24 40 6-3v-16l-6 3z" opacity=".29"/><path d="m8 34-6-3v-16l6 3z" opacity=".11"/><path d="m8 34 2-1v-16l-2 1z" opacity=".29"/><path d="m17.3 23.9c-1.3-.7-2.5-.7-3.4-.3l-1 .5c-.9.4-1.5 1.4-1.5 2.8 0 2.7 2.2 6 4.9 7.4 1.3.7 2.6.7 3.5.3 0 0 1-.5 1.2-.6.8-.5 1.3-1.4 1.3-2.7-.1-2.8-2.3-6.1-5-7.4z" fill="#2d3134"/><path d="m19.8 34.5 1.2-.6c.8-.5 1.3-1.4 1.3-2.7 0-1.1-.4-2.3-1-3.4l-1 .5c.6 1.1 1 2.3 1 3.4-.1 1.4-.7 2.4-1.5 2.8z" opacity=".29"/><path d="m21.2 31.8c0 2.7-2.2 3.8-4.9 2.5-2.7-1.4-4.9-4.7-4.9-7.4s2.2-3.8 4.9-2.5 4.9 4.7 4.9 7.4z" opacity=".11"/><path d="m15.8 24.9c-1.2-.6-2.4-.7-3.2-.3l-5.1 2.5c-.9.4-1.5 1.3-1.5 2.6 0 2.6 2.1 5.7 4.7 7 1.3.6 2.4.7 3.3.3 0 0 5-2.5 5.2-2.6.8-.4 1.2-1.3 1.2-2.5 0-2.6-2-5.7-4.6-7z" fill="#2d3134"/><path d="m14.1 37c.3-.2 5-2.5 5.2-2.6.8-.4 1.2-1.3 1.2-2.5 0-1-.3-2.2-.9-3.2l-5.1 2.5c.6 1.1.9 2.2.9 3.2 0 1.3-.5 2.2-1.3 2.6z" opacity=".29"/><path d="m14.2 33.8c0 1.9-1.6 2.7-3.5 1.7s-3.5-3.3-3.5-5.2 1.6-2.7 3.5-1.7 3.5 3.3 3.5 5.2z" opacity=".3"/><path d="m10.7 28.6c-.3-.1-.5-.2-.7-.3-.7.2-1.2.9-1.2 1.8 0 1.7 1.4 3.8 3.1 4.7.7.4 1.4.4 1.9.3.2-.3.4-.8.4-1.3 0-1.9-1.5-4.3-3.5-5.2z" fill="#36c"/><path d="m11.5 31c0 .6-.4.8-1 .5s-1-1-1-1.5c0-.6.4-.8 1-.5s1 .9 1 1.5z" fill="#fff" opacity=".3"/><path d="m15.4 34.4c0 2.6-2.1 3.6-4.7 2.3s-4.7-4.4-4.7-7 2.1-3.6 4.7-2.3 4.7 4.4 4.7 7z" opacity=".11"/><path d="m12 16-2 1 12 6 6-3-2-3-8-4z" fill="#999"/><path d="m22 23-12-6 2-1 8 4z" opacity=".11"/><path d="m22 23 6-3-2-3-6 3z" opacity=".29"/><path d="m14 18v1l4 2v-1z" opacity=".2"/><path d="m8 13c1.1 0 2 .4 2 1v1c0 .6-.9 1-2 1s-2-.4-2-1v-1c0-.6.9-1 2-1z" fill="#656565"/><path d="m8 15c1.1 0 2-.4 2-1v1c0 .6-.9 1-2 1s-2-.4-2-1v-1c0 .6.9 1 2 1z" opacity=".2"/></svg>