<svg xmlns:xlink="http://www.w3.org/1999/xlink"  enable-background="new 0 0 320 320" height="320" viewBox="0 0 320 320" width="320" xmlns="http://www.w3.org/2000/svg"><path d="m255.2 297.2c20.7-9 65-24.4 37.1-44.9-26-19.1-65.9 1.5-86.1 10.2-29.8 12.7-60.3 30.9-43.8 43.3 16.9 12.7 53.9 8.4 92.8-8.6z" opacity=".2"/><path d="m299.8 133.4c1.7 10.6 6.1 24.5 2.2 33.4s-11.1 15.6-11.1 15.6z" fill="#4a2121"/><path d="m247.3 155.6c.3 12.3 4.6 18.7 7 27.3s8.4 30.6 6 44.8-5.8 30.9-8.6 33.3c-2.2 1.9-7.9 5.3-6.1 8.2s3.9.8 3.9.8.7 1.9 3.3 2.4c2.6.4 12.4-1 12.1-4-.3-3.1-3.4-11.6-1.8-20.7s7.5-30.2 7.9-34.5-3.9-19.1-3.2-27.2 18.7-37.6 19.8-47.1-13.2-26.9-13.2-26.9z" fill="#825012"/><path d="m151.9 168.4c5 13.2 17.3 40.1 18.4 50s4 20.9 5.2 30.5c1.1 9.6 2.8 33.4.4 35.5s-9.2 6.3-7.4 8.9 3.5 1.5 3.5 1.5.1 1.3 2.6 2.2c2.5 1 14.8.5 15.3-3.9.7-5.4-1.3-6.4-2.6-13.3-1.4-7.2-2.9-39.7-2.8-46.4s-2.6-20.3-3.3-26.9-1.7-46-1.7-46z" fill="#825012"/><path d="m247.3 155.6c.3 12.3 4.6 18.7 7 27.3s8.4 30.6 6 44.8-5.8 30.9-8.6 33.3c-2.2 1.9-7.9 5.3-6.1 8.2s3.9.8 3.9.8.7 1.9 3.3 2.4c2.6.4 12.4-1 12.1-4-.3-3.1-3.4-11.6-1.8-20.7s7.5-30.2 7.9-34.5-3.9-19.1-3.2-27.2 18.7-37.6 19.8-47.1-13.2-26.9-13.2-26.9z" opacity=".15"/><path d="m151.9 168.4c5 13.2 17.3 40.1 18.4 50s4 20.9 5.2 30.5c1.1 9.6 2.8 33.4.4 35.5s-9.2 6.3-7.4 8.9 3.5 1.5 3.5 1.5.1 1.3 2.6 2.2c2.5 1 14.8.5 15.3-3.9.7-5.4-1.3-6.4-2.6-13.3-1.4-7.2-2.9-39.7-2.8-46.4s-2.6-20.3-3.3-26.9-1.7-46-1.7-46z" opacity=".15"/><path d="m85.1 72.2c-13.6 1.6-15.6 6.5-27.3 10.6s-17.5 6.1-17.7 14.1c-.1 7.9.7 16.7 10 13.5s25.5.8 28.8 7.2 13.8 53.2 39.8 57.7 54.9-2.4 66.7 14.8 6.7 40.9 9.3 51.1 7.1 38.9 1.1 48.2c-7 10.7-7.3 12.1-5.4 13.7 1.9 1.7 5.6.6 5.6.6s2.2 2 5.7 2 9.7-2.2 9-6c-.7-4.2-3.2-4.9-3.1-10.8s-1-26.2-1-34 2.6-16.4 2.2-22.8-1.9-33.6-.1-41.6 3.9-13.8 3.9-13.8 26.7-4.3 38.4-13.1 19.8-18.7 19.8-18.7.4 25.3 2.1 30.5 9.3 16.3 9.3 25.6-2.8 47.5-5.2 56.7-14.2 15.7-11.8 18.9 5 .6 5 .6.7 2.5 3.9 2.5 11.1-.8 10.9-4c-.3-3.2-2.7-13.4-.2-25.5s8.4-30.8 8.4-33.4-1.9-20.5 1.7-39.4 13.8-47.1 7-68.7-31.8-33.8-36.9-37c-5.2-3.2-18.9-35.8-40-27s-23.7 32.6-41.2 40.5-27.4 16.4-36.2 30.9-15.5 25.1-23.4 16.4c-7.9-8.6-14.6-24.4-18.1-37.7s-11.7-23.8-21-22.6z" fill="#825012"/><path d="m77 76.8c-1-3.1 2.9-13.2 5.3-13 2.4.3 2.6 11.7 2.6 11.7z" fill="#825012"/><path d="m97.3 85.3c-2.2-6.2 3.2-17.4 8.9-16.7s3 12.3-.6 15.6c-2.2 2.1-7.3 3.8-8.3 1.1z" fill="#825012"/><path d="m100.3 84.6s1.3-13.6 5.4-12.7-.7 11.4-5.4 12.7z" opacity=".15"/><path d="m75.6 92.1s2.4-2.5 4.7-2.6 4.9.4 4.9.4-1.5 3.3-4.5 3.8c-2.5.3-5.1-1.6-5.1-1.6z" fill="#2d3134"/><g fill="#4a2121"><path d="m182.5 86.1s20.4-7.6 30.3-23.3c8.1-12.8 15.4-19.9 23-18.1 7.5 1.8 17.5 11.8 17.5 11.8s-9-22-26-18.5-24.5 32.4-44.8 48.1z"/><path d="m243 270.7s6.2-.5 4.8-3.6-4.8 3.6-4.8 3.6z"/><path d="m249 272.3s4.1.2 3.2-1.8c-.9-1.9-3.2 1.8-3.2 1.8z"/><path d="m265.1 278.5s5.8-1.1 3.4-4c-2.4-2.8-3.4 4-3.4 4z"/><path d="m272.2 279.9s4.5-1.2 2.9-3.4-2.9 3.4-2.9 3.4z"/><path d="m197 306.2s5.6-1.9 3.3-3.9c-2.1-1.9-3.3 3.9-3.3 3.9z"/><path d="m189.4 304.5s6.4-.6 3.5-4c-2.8-3.4-3.5 4-3.5 4z"/><path d="m171.3 297.8s6.4-.5 4.5-3.8c-1.8-3.4-4.5 3.8-4.5 3.8z"/><path d="m166.9 294.8s5.3-.4 3.8-3-3.8 3-3.8 3z"/></g><path d="m43.6 100.2c1.5-3.2 10.8-3.2 10-6.9-.7-3.7-5.9-.6-9.3-1.3-.9-.2-1.7-.7-2.4-1.2-1.2 1.6-1.8 3.5-1.8 6-.1 4.3.1 8.9 1.9 11.7 1.1.4 5.4 1.8 9.6-.7 4.8-2.8 8.4-6.5 8.4-6.5s-7.6 5.9-11.9 5.8c-4.3-.2-6-3.7-4.5-6.9z" opacity=".15"/><path d="m91.7 109.7c-4.5 3.5-13.5 3.3-18.7 2.9 2.8 1.4 5 3.1 6 5 .3.6.7 1.5 1.1 2.8 1.5-1.2 3.4-2.4 5.8-3.4 13.4-5.6 14.5-17.1 14.5-17.1s-2.2 4.8-8.7 9.8z" opacity=".15"/><path d="m44.8 96.8s2.1-3.5 4.2-3.8 3.3.6 3.3.6-2.7 3.2-7.5 3.2z" fill="#2d3134"/></svg>