<svg xmlns:xlink="http://www.w3.org/1999/xlink"  enable-background="new 0 0 40 40" height="40" viewBox="0 0 40 40" width="40" xmlns="http://www.w3.org/2000/svg"><path d="m30.8 17c-1.3-.7-2.5-.7-3.4-.3l-6.5 3.3c-.9.4-1.5 1.4-1.5 2.8 0 2.7 2.2 6 4.9 7.4 1.3.7 2.6.7 3.5.3 0 0 6.5-3.3 6.7-3.4.8-.5 1.3-1.4 1.3-2.7 0-2.8-2.3-6.1-5-7.4z" fill="#2d3134"/><path d="m27.8 30.4c.4-.2 6.5-3.3 6.7-3.4.8-.5 1.3-1.4 1.3-2.7 0-1.1-.4-2.3-1-3.4l-6.5 3.3c.6 1.1 1 2.3 1 3.4-.1 1.4-.6 2.3-1.5 2.8z" opacity=".29"/><path d="m29.2 27.6c0 2.7-2.2 3.8-4.9 2.5s-4.9-4.7-4.9-7.4 2.2-3.8 4.9-2.5 4.9 4.7 4.9 7.4z" opacity=".11"/><path d="m10 26-6 3v1l6 3 14 7 8-4v-1l-6-3-2 1z" fill="#2d3134"/><path d="m10 12-6 3v14l20 10 8-4v-14l-6-3-2 1z" fill="#656565"/><path d="m10 11-6 3v2l20 10 8-4v-2l-6-3-2 1z" fill="#999"/><path d="m24 40 8-4v-16l-8 4z" opacity=".29"/><path d="m8 14-2 1 12 6 6-3-2-3-8-4z" fill="#999"/><path d="m18 21-12-6 2-1 8 4z" opacity=".11"/><path d="m18 21 6-3-2-3-6 3z" opacity=".29"/><path d="m10 16v1l4 2v-1z" opacity=".2"/><path d="m26 18c1.1 0 2 .4 2 1v1c0 .6-.9 1-2 1s-2-.4-2-1v-1c0-.6.9-1 2-1z" fill="#656565"/><path d="m26 20c1.1 0 2-.4 2-1v1c0 .6-.9 1-2 1s-2-.4-2-1v-1c0 .6.9 1 2 1z" opacity=".2"/><path d="m6 20v8l8 4v-8z" fill="#36c"/><path d="m7 27.5v-7l-1-.5v8l8 4v-1z" opacity=".2"/><path d="m22 28.4c0 .6-.4.8-1 .5s-1-.9-1-1.5.4-.8 1-.5 1 .9 1 1.5z" opacity=".2"/><path d="m19 28.6c-1.7-.8-3-.2-3 1.5s1.3 3.7 3 4.5 3 .2 3-1.5c0-1.6-1.3-3.6-3-4.5z" opacity=".2"/><g fill="#999"><path d="m19 29.6c.4.2.8.5 1.1.9l-.7.4c-.1-.1-.2-.2-.4-.3s-.4-.1-.6-.1l-.9-1c.4-.2.9-.2 1.5.1z"/><path d="m17 30.6c0-.2 0-.3.1-.5l.9 1c0 .1 0 .2.1.4l-.7.4c-.3-.4-.4-.8-.4-1.3z"/><path d="m19 33.6c-.5-.2-.9-.6-1.3-1.1l.7-.4c.2.2.3.4.6.5.2.1.3.1.4.1l.9 1c-.3.2-.8.2-1.3-.1z"/><path d="m20.9 33.3-.9-1v-.1c0-.2-.1-.4-.2-.7l.7-.4c.3.5.5 1 .5 1.5 0 .3 0 .5-.1.7z"/></g><path d="m4 14v16l20 10v-16z" opacity=".11"/></svg>