<svg xmlns:xlink="http://www.w3.org/1999/xlink"  enable-background="new 0 0 40 40" height="40" viewBox="0 0 40 40" width="40" xmlns="http://www.w3.org/2000/svg"><path d="m21.1 20.1c2 1.1 18.4 13.6 16.8 16.3s-20.5-5.3-22.5-6.4-2.3-4.3-.7-7 4.4-4 6.4-2.9z" fill="#f90"/><path d="m15.4 28.8c-1-.6-1.6-1.8-1.7-3.1-.2 1.8.3 3.5 1.7 4.2 2 1.1 20.9 9.2 22.5 6.5.2-.3.1-.6 0-1.1-2 2.5-20.5-5.3-22.5-6.5z" opacity=".2"/><ellipse cx="16" cy="22.9" opacity=".2" rx="2.5" ry="1.1" transform="matrix(.6158 -.7879 .7879 .6158 -11.9172 21.4404)"/><path d="m21.5 23.1c-.7.9-1.4 1.6-2.1 2.2.6 0 1.5-.6 2.3-1.5.7-.8 1-1.7 1-2.3-.4.5-.8 1-1.2 1.6z" opacity=".2"/><path d="m25.2 28.7c-.6.8-1.3 1.5-2 2 .6 0 1.4-.5 2.1-1.4.6-.8.9-1.6.9-2.1-.3.5-.6 1-1 1.5z" opacity=".2"/><path d="m32.7 29.8c.1-.1.1-.2.2-.2-.1-.1-.2-.2-.3-.3-.5.7-1.1 1.2-1.7 1.7.5 0 1.2-.5 1.8-1.2z" opacity=".2"/><path d="m16.4 23.3c-.3.5-.7.7-1.3.7h-5.1l2.6-.4-7.5-1.2 6.6-.1-8.7-3.8 9.9 3.3-9.7-6.6 9.5 5.2-3.9-5.1 6 5.7-2.3-3.7 3.7 4.4c.4.4.5 1.1.2 1.6z" fill="#539b00"/></svg>