<svg xmlns:xlink="http://www.w3.org/1999/xlink"  enable-background="new 0 0 320 1040" height="1040" viewBox="0 0 320 1040" width="320" xmlns="http://www.w3.org/2000/svg"><path d="m239.8 844.9v-10l-79.8-39.9-79.8 39.9v10l10 5 52.8-26.5-89.4 116.8v13.3l13.3 6.6 93.1-135.2 93.1 135.2 13.3-6.6v-13.3l-89.4-116.8 52.8 26.5z" fill="#cc291f"/><path d="m66.9 960.1 93.1-135.2v-9.9l-93.1 131.8z" opacity=".29"/><path d="m90.2 839.9 9.9 5 59.9-29.9v-10z" opacity=".29"/><path d="m160 824.9 93.1 135.2v-13.3l-93.1-131.8z" opacity=".11"/><path d="m229.8 839.9-69.8-34.9v10l59.9 29.9z" opacity=".11"/><path d="m40.3 960.1 13.3 6.7 13.3-6.7 23.3-120.2-10-5-10 5z" fill="#cc291f"/><path d="m40.3 960.1 13.3 6.7 26.6-121.9-10-5z" opacity=".11"/><path d="m53.6 966.8 13.3-6.7 17.6-91.3-4.3-23.9z" opacity=".29"/><path d="m160 993.4v13.3l-13.3 6.6-66.5-148.5v-9.9l10-5z" fill="#cc291f"/><path d="m146.7 1013.3-66.5-148.5v-9.9l66.5 145.1z" opacity=".11"/><path d="m80.2 854.9 69.8 34.9 10-5v-10l-69.8-34.9-10 5z" fill="#cc291f"/><path d="m80.2 854.9 69.8 34.9v-10l-69.8-34.9z" opacity=".11"/><path d="m279.7 960.1-13.3 6.7-13.3-6.7-23.3-120.2 10-5 10 5z" fill="#cc291f"/><path d="m279.7 960.1-13.3 6.7-26.6-121.9 10-5z" opacity=".29"/><path d="m266.4 966.8-13.3-6.7-17.5-90.8 4.2-24.4z" opacity=".11"/><path d="m160 993.4v13.3l13.3 6.6 66.5-148.5v-9.9l-10-5z" fill="#cc291f"/><path d="m173.3 1013.3 66.5-148.5v-9.9l-66.5 145.1z" opacity=".29"/><path d="m239.8 854.9-69.8 34.9-10-5v-10l69.8-34.9 10 5z" fill="#cc291f"/><path d="m239.8 854.9-69.8 34.9v-10l69.8-34.9z" opacity=".29"/><path d="m146.7 1013.3 13.3 6.7 13.3-6.7-3.3-133.5-10-5-10 5z" fill="#cc291f"/><path d="m146.7 1013.3 13.3 6.7v-135.2l-10-5z" opacity=".11"/><path d="m160 1020 13.3-6.7-3.3-133.5-10 5z" opacity=".29"/><path d="m220 753.5v-7.5l-60-30-60 30v7.5l7.5 3.8 39.7-19.9-67.2 87.7v10l10 5 70-101.6 70 101.6 10-5v-10l-67.2-87.7 39.7 19.9z" fill="#cc291f"/><path d="m90 840.1 70-101.6v-7.5l-70 99.1z" opacity=".29"/><path d="m107.5 749.8 7.5 3.7 45-22.5v-7.5z" opacity=".29"/><path d="m160 738.5 70 101.6v-10l-70-99.1z" opacity=".11"/><path d="m212.5 749.8-52.5-26.3v7.5l45 22.5z" opacity=".11"/><path d="m70 840.1 10 5 10-5 17.5-90.3-7.5-3.8-7.5 3.8z" fill="#cc291f"/><path d="m70 840.1 10 5 20-91.6-7.5-3.7z" opacity=".11"/><path d="m80 845.1 10-5 13-67.3-3-19.3z" opacity=".29"/><path d="m160 865.1v10l-10 5-50-111.6v-7.5l7.5-3.7z" fill="#cc291f"/><path d="m150 880.1-50-111.6v-7.5l50 109.1z" opacity=".11"/><path d="m100 761 52.5 26.3 7.5-3.8v-7.5l-52.5-26.2-7.5 3.7z" fill="#cc291f"/><path d="m100 761 52.5 26.3v-7.5l-52.5-26.3z" opacity=".11"/><path d="m250 840.1-10 5-10-5-17.5-90.3 7.5-3.8 7.5 3.8z" fill="#cc291f"/><path d="m250 840.1-10 5-20-91.6 7.5-3.7z" opacity=".29"/><path d="m240 845.1-10-5-13.2-68.8 3.2-17.8z" opacity=".11"/><path d="m160 865.1v10l10 5 50-111.6v-7.5l-7.5-3.7z" fill="#cc291f"/><path d="m170 880.1 50-111.6v-7.5l-50 109.1z" opacity=".29"/><path d="m220 761-52.5 26.3-7.5-3.8v-7.5l52.5-26.2 7.5 3.7z" fill="#cc291f"/><path d="m220 761-52.5 26.3v-7.5l52.5-26.3z" opacity=".29"/><path d="m150 880.1 10 5 10-5-2.5-100.3-7.5-3.8-7.5 3.8z" fill="#cc291f"/><path d="m150 880.1 10 5v-101.6l-7.5-3.7z" opacity=".11"/><path d="m160 885.1 10-5-2.5-100.3-7.5 3.7z" opacity=".29"/><path d="m231.7 256.7-6.6 30.4.4.1 7.7-31.4-.5-.1z" fill="#999"/><path d="m232.7 255.7-1 1-6.6 30.4z" opacity=".2"/><path d="m227.8 250.1-30-8.1.1-.5 31.4 7.7-.2.5z" fill="#999"/><path d="m229.1 249.7-1.3.4-30-8.1z" opacity=".2"/><path d="m232.2 251.9c-1.2-2-2.8-3.1-3.6-2.7l-3.9 2.4 4.3 7.1 3.9-2.4c.8-.5.4-2.5-.7-4.4z" fill="#999"/><path d="m232.2 251.9c-1.2-2-2.8-3.1-3.6-2.7l-3.9 2.4c.8-.5 2.4.7 3.6 2.7s1.5 3.9.7 4.4l3.9-2.4c.8-.5.4-2.5-.7-4.4z" opacity=".2"/><ellipse cx="226.9" cy="255.1" fill="#999" rx="1.7" ry="4.1" transform="matrix(.8537 -.5207 .5207 .8537 -99.6417 155.4537)"/><path d="m230.3 256.3-21.2 34.6.7.5 23.4-35.9-.1-1.3z" fill="#999"/><path d="m233.1 254.2-2.8 2.1-21.2 34.6z" opacity=".2"/><path d="m227.2 251.5-40.4 2.8-.1-.8 42.7-4.3 1 .7z" fill="#999"/><path d="m230.4 249.9-3.2 1.6-40.4 2.8z" opacity=".2"/><path d="m233.4 297.2c2.4-21.4-12-49.4-32.1-62.5-12.1-7.9-23.5-8.6-31.2-3.3-20.8 13.6-25.5 43.2-10.5 66.3 14.1 21.7 40.5 29.8 60.9 19.5 1.4-.6 2.7-1.3 3.9-2.2 0 0 .1 0 .1-.1 4.7-3.5 7.9-9.6 8.9-17.7z" fill="#e5e5e5"/><ellipse cx="181.8" cy="282.4" fill="#fff" opacity=".15" rx="24.5" ry="38" transform="matrix(.8537 -.5207 .5207 .8537 -120.4473 135.9771)"/><path d="m77.3 156.1 3.7 36.4h-.6l-4.7-37.6.6-.1z" fill="#999"/><path d="m76.3 154.8 1 1.3 3.7 36.4z" opacity=".2"/><path d="m82.7 148.9 36.2-5.5-.1-.5-37.7 4.7.1.6z" fill="#999"/><path d="m81.2 148.2 1.5.7 36.2-5.5z" opacity=".2"/><path d="m77.4 150.4c1.6-2.1 3.7-3.3 4.5-2.6l4.2 3.3-6 7.7-4.2-3.3c-.8-.7-.2-3 1.5-5.1z" fill="#999"/><path d="m77.4 150.4c1.6-2.1 3.7-3.3 4.5-2.6l4.2 3.3c-.9-.7-2.9.5-4.5 2.6s-2.3 4.4-1.4 5l-4.2-3.3c-.9-.6-.3-2.9 1.4-5z" opacity=".2"/><ellipse cx="83.1" cy="154.8" fill="#999" rx="2" ry="4.9" transform="matrix(-.7899 -.6133 .6133 -.7899 53.8375 328.132)"/><path d="m79 155.8 20.1 43.2-.8.5-22.7-45.1.4-1.4z" fill="#999"/><path d="m76 153 3 2.8 20.1 43.2z" opacity=".2"/><path d="m83.2 150.6 46.8 8.7.3-1-49.3-10.6-1.3.6z" fill="#999"/><path d="m79.7 148.3 3.5 2.3 46.8 8.7z" opacity=".2"/><path d="m70 203.1c0-25.3 20.5-56.1 45.7-68.7 15.2-7.6 28.6-6.9 36.9.3 22.5 18.6 24.1 53.8 3.5 78.8-19.3 23.4-51.2 29.5-73.7 14.8-1.5-.9-2.9-1.9-4.2-3.1 0 0-.1-.1-.1-.1-5.1-4.8-8.1-12.3-8.1-22z" fill="#e5e5e5"/><ellipse cx="132.2" cy="192.7" fill="#fff" opacity=".15" rx="28.8" ry="44.6" transform="matrix(-.7899 -.6133 .6133 -.7899 118.408 425.9044)"/><path d="m200 222.6v-5l-40-20-40 20v5l5 2.5 26.5-13.3-31.5 60.8v5l5 2.5 35-67.5 35 67.5 5-2.5v-5l-31.5-60.8 26.5 13.3z" fill="#cc291f"/><path d="m125 280.1 35-67.5v-5l-35 67.5z" opacity=".29"/><path d="m125 220.1 5 2.5 30-15v-5z" opacity=".29"/><path d="m160 212.6 35 67.5v-5l-35-67.5z" opacity=".11"/><path d="m195 220.1-35-17.5v5l30 15z" opacity=".11"/><path d="m115 280.1 5 2.5 5-2.5v-60l-5-2.5-5 2.5z" fill="#cc291f"/><path d="m115 280.1 5 2.5v-60l-5-2.5z" opacity=".11"/><path d="m120 282.6 5-2.5v-37.5l-5-10z" opacity=".29"/><path d="m160 292.6v5l-5 2.5-35-67.5v-5l5-2.5z" fill="#cc291f"/><path d="m155 300.1-35-67.5v-5l35 67.5z" opacity=".11"/><path d="m120 227.6 35 17.5 5-2.5v-5l-35-17.5-5 2.5z" fill="#cc291f"/><path d="m120 227.6 35 17.5v-5l-35-17.5z" opacity=".11"/><path d="m205 280.1-5 2.5-5-2.5v-60l5-2.5 5 2.5z" fill="#cc291f"/><path d="m205 280.1-5 2.5v-60l5-2.5z" opacity=".29"/><path d="m200 282.6-5-2.5v-37.5l5-10z" opacity=".11"/><path d="m160 292.6v5l5 2.5 35-67.5v-5l-5-2.5z" fill="#cc291f"/><path d="m165 300.1 35-67.5v-5l-35 67.5z" opacity=".29"/><path d="m200 227.6-35 17.5-5-2.5v-5l35-17.5 5 2.5z" fill="#cc291f"/><path d="m200 227.6-35 17.5v-5l35-17.5z" opacity=".29"/><path d="m155 300.1 5 2.5 5-2.5v-60l-5-2.5-5 2.5z" fill="#cc291f"/><path d="m155 300.1 5 2.5v-60l-5-2.5z" opacity=".11"/><path d="m160 302.6 5-2.5v-60l-5 2.5z" opacity=".29"/><path d="m200 162v-5l-40-20-40 20v5l5 2.5 26.5-13.3-31.5 60.8v5l5 2.5 35-67.5 35 67.5 5-2.5v-5l-31.5-60.8 26.5 13.3z" fill="#cc291f"/><path d="m125 219.5 35-67.5v-5l-35 67.5z" opacity=".29"/><path d="m125 159.5 5 2.5 30-15v-5z" opacity=".29"/><path d="m160 152 35 67.5v-5l-35-67.5z" opacity=".11"/><path d="m195 159.5-35-17.5v5l30 15z" opacity=".11"/><path d="m115 219.5 5 2.5 5-2.5v-60l-5-2.5-5 2.5z" fill="#cc291f"/><path d="m115 219.5 5 2.5v-60l-5-2.5z" opacity=".11"/><path d="m120 222 5-2.5v-37.5l-5-10z" opacity=".29"/><path d="m160 232v5l-5 2.5-35-67.5v-5l5-2.5z" fill="#cc291f"/><path d="m155 239.5-35-67.5v-5l35 67.5z" opacity=".11"/><path d="m120 167 35 17.5 5-2.5v-5l-35-17.5-5 2.5z" fill="#cc291f"/><path d="m120 167 35 17.5v-5l-35-17.5z" opacity=".11"/><path d="m205 219.5-5 2.5-5-2.5v-60l5-2.5 5 2.5z" fill="#cc291f"/><path d="m205 219.5-5 2.5v-60l5-2.5z" opacity=".29"/><path d="m200 222-5-2.5v-37.5l5-10z" opacity=".11"/><path d="m160 232v5l5 2.5 35-67.5v-5l-5-2.5z" fill="#cc291f"/><path d="m165 239.5 35-67.5v-5l-35 67.5z" opacity=".29"/><path d="m200 167-35 17.5-5-2.5v-5l35-17.5 5 2.5z" fill="#cc291f"/><path d="m200 167-35 17.5v-5l35-17.5z" opacity=".29"/><path d="m155 239.5 5 2.5 5-2.5v-60l-5-2.5-5 2.5z" fill="#cc291f"/><path d="m155 239.5 5 2.5v-60l-5-2.5z" opacity=".11"/><path d="m160 242 5-2.5v-60l-5 2.5z" opacity=".29"/><path d="m200 102v-5l-40-20-40 20v5l5 2.5 26.5-13.3-31.5 60.8v5l5 2.5 35-67.5 35 67.5 5-2.5v-5l-31.5-60.8 26.5 13.3z" fill="#cc291f"/><path d="m125 159.5 35-67.5v-5l-35 67.5z" opacity=".29"/><path d="m125 99.5 5 2.5 30-15v-5z" opacity=".29"/><path d="m160 92 35 67.5v-5l-35-67.5z" opacity=".11"/><path d="m195 99.5-35-17.5v5l30 15z" opacity=".11"/><path d="m115 159.5 5 2.5 5-2.5v-60l-5-2.5-5 2.5z" fill="#cc291f"/><path d="m115 159.5 5 2.5v-60l-5-2.5z" opacity=".11"/><path d="m120 162 5-2.5v-37.5l-5-10z" opacity=".29"/><path d="m160 172v5l-5 2.5-35-67.5v-5l5-2.5z" fill="#cc291f"/><path d="m155 179.5-35-67.5v-5l35 67.5z" opacity=".11"/><path d="m120 107 35 17.5 5-2.5v-5l-35-17.5-5 2.5z" fill="#cc291f"/><path d="m120 107 35 17.5v-5l-35-17.5z" opacity=".11"/><path d="m205 159.5-5 2.5-5-2.5v-60l5-2.5 5 2.5z" fill="#cc291f"/><path d="m205 159.5-5 2.5v-60l5-2.5z" opacity=".29"/><path d="m200 162-5-2.5v-37.5l5-10z" opacity=".11"/><path d="m160 172v5l5 2.5 35-67.5v-5l-5-2.5z" fill="#cc291f"/><path d="m165 179.5 35-67.5v-5l-35 67.5z" opacity=".29"/><path d="m200 107-35 17.5-5-2.5v-5l35-17.5 5 2.5z" fill="#cc291f"/><path d="m200 107-35 17.5v-5l35-17.5z" opacity=".29"/><path d="m155 179.5 5 2.5 5-2.5v-60l-5-2.5-5 2.5z" fill="#cc291f"/><path d="m155 179.5 5 2.5v-60l-5-2.5z" opacity=".11"/><path d="m160 182 5-2.5v-60l-5 2.5z" opacity=".29"/><path d="m200 42v-5l-40-20-40 20v5l5 2.5 26.5-13.3-31.5 60.8v5l5 2.5 35-67.5 35 67.5 5-2.5v-5l-31.5-60.8 26.5 13.3z" fill="#cc291f"/><path d="m125 99.5 35-67.5v-5l-35 67.5z" opacity=".29"/><path d="m125 39.5 5 2.5 30-15v-5z" opacity=".29"/><path d="m160 32 35 67.5v-5l-35-67.5z" opacity=".11"/><path d="m195 39.5-35-17.5v5l30 15z" opacity=".11"/><path d="m115 99.5 5 2.5 5-2.5v-60l-5-2.5-5 2.5z" fill="#cc291f"/><path d="m115 99.5 5 2.5v-60l-5-2.5z" opacity=".11"/><path d="m120 102 5-2.5v-37.5l-5-10z" opacity=".29"/><path d="m160 112v5l-5 2.5-35-67.5v-5l5-2.5z" fill="#cc291f"/><path d="m155 119.5-35-67.5v-5l35 67.5z" opacity=".11"/><path d="m120 47 35 17.5 5-2.5v-5l-35-17.5-5 2.5z" fill="#cc291f"/><path d="m120 47 35 17.5v-5l-35-17.5z" opacity=".11"/><path d="m205 99.5-5 2.5-5-2.5v-60l5-2.5 5 2.5z" fill="#cc291f"/><path d="m205 99.5-5 2.5v-60l5-2.5z" opacity=".29"/><path d="m200 102-5-2.5v-37.5l5-10z" opacity=".11"/><path d="m160 112v5l5 2.5 35-67.5v-5l-5-2.5z" fill="#cc291f"/><path d="m165 119.5 35-67.5v-5l-35 67.5z" opacity=".29"/><path d="m200 47-35 17.5-5-2.5v-5l35-17.5 5 2.5z" fill="#cc291f"/><path d="m200 47-35 17.5v-5l35-17.5z" opacity=".29"/><path d="m155 119.5 5 2.5 5-2.5v-60l-5-2.5-5 2.5z" fill="#cc291f"/><path d="m155 119.5 5 2.5v-60l-5-2.5z" opacity=".11"/><path d="m160 122 5-2.5v-60l-5 2.5z" opacity=".29"/><path d="m220.4 662.8v-7.6l-60.4-30.2-60.4 30.2v7.6l7.5 3.8 40.1-20.1-47.6 91.8v7.6l7.5 3.8 52.9-102 52.9 102 7.5-3.8v-7.6l-47.6-91.8 40.1 20.1z" fill="#cc291f"/><path d="m107.1 749.7 52.9-102v-7.6l-52.9 102z" opacity=".29"/><path d="m107.1 659 7.6 3.8 45.3-22.7v-7.5z" opacity=".29"/><path d="m160 647.7 52.9 102v-7.6l-52.9-102z" opacity=".11"/><path d="m212.9 659-52.9-26.4v7.5l45.3 22.7z" opacity=".11"/><path d="m92 749.7 7.6 3.7 7.5-3.7v-90.7l-7.5-3.8-7.6 3.8z" fill="#cc291f"/><path d="m92 749.7 7.6 3.7v-90.6l-7.6-3.8z" opacity=".11"/><path d="m99.6 753.4 7.5-3.7v-56.7l-7.5-15.1z" opacity=".29"/><path d="m160 768.6v7.5l-7.6 3.8-52.8-102v-7.6l7.5-3.7z" fill="#cc291f"/><path d="m152.4 779.9-52.8-102v-7.6l52.8 102z" opacity=".11"/><path d="m99.6 670.3 52.8 26.5 7.6-3.8v-7.6l-52.9-26.4-7.5 3.8z" fill="#cc291f"/><path d="m99.6 670.3 52.8 26.5v-7.6l-52.8-26.4z" opacity=".11"/><path d="m228 749.7-7.6 3.7-7.5-3.7v-90.7l7.5-3.8 7.6 3.8z" fill="#cc291f"/><path d="m228 749.7-7.6 3.7v-90.6l7.6-3.8z" opacity=".29"/><path d="m220.4 753.4-7.5-3.7v-56.7l7.5-15.1z" opacity=".11"/><path d="m160 768.6v7.5l7.6 3.8 52.8-102v-7.6l-7.5-3.7z" fill="#cc291f"/><path d="m167.6 779.9 52.8-102v-7.6l-52.8 102z" opacity=".29"/><path d="m220.4 670.3-52.8 26.5-7.6-3.8v-7.6l52.9-26.4 7.5 3.8z" fill="#cc291f"/><path d="m220.4 670.3-52.8 26.5v-7.6l52.8-26.4z" opacity=".29"/><path d="m152.4 779.9 7.6 3.8 7.6-3.8v-90.7l-7.6-3.8-7.6 3.8z" fill="#cc291f"/><path d="m152.4 779.9 7.6 3.8v-90.7l-7.6-3.8z" opacity=".11"/><path d="m160 783.7 7.6-3.8v-90.7l-7.6 3.8z" opacity=".29"/><path d="m220.4 571.8v-7.6l-60.4-30.2-60.4 30.2v7.6l7.5 3.8 40.1-20.1-47.6 91.8v7.6l7.5 3.8 52.9-102 52.9 102 7.5-3.8v-7.6l-47.6-91.8 40.1 20.1z" fill="#e5e5e5"/><path d="m107.1 658.7 52.9-102v-7.6l-52.9 102z" opacity=".29"/><path d="m107.1 568 7.6 3.8 45.3-22.7v-7.5z" opacity=".29"/><path d="m160 556.7 52.9 102v-7.6l-52.9-102z" opacity=".11"/><path d="m212.9 568-52.9-26.4v7.5l45.3 22.7z" opacity=".11"/><path d="m92 658.7 7.6 3.7 7.5-3.7v-90.7l-7.5-3.8-7.6 3.8z" fill="#e5e5e5"/><path d="m92 658.7 7.6 3.7v-90.6l-7.6-3.8z" opacity=".11"/><path d="m99.6 662.4 7.5-3.7v-56.7l-7.5-15.1z" opacity=".29"/><path d="m160 677.6v7.5l-7.6 3.8-52.8-102v-7.6l7.5-3.7z" fill="#e5e5e5"/><path d="m152.4 688.9-52.8-102v-7.6l52.8 102z" opacity=".11"/><path d="m99.6 579.3 52.8 26.5 7.6-3.8v-7.6l-52.9-26.4-7.5 3.8z" fill="#e5e5e5"/><path d="m99.6 579.3 52.8 26.5v-7.6l-52.8-26.4z" opacity=".11"/><path d="m228 658.7-7.6 3.7-7.5-3.7v-90.7l7.5-3.8 7.6 3.8z" fill="#e5e5e5"/><path d="m228 658.7-7.6 3.7v-90.6l7.6-3.8z" opacity=".29"/><path d="m220.4 662.4-7.5-3.7v-56.7l7.5-15.1z" opacity=".11"/><path d="m160 677.6v7.5l7.6 3.8 52.8-102v-7.6l-7.5-3.7z" fill="#e5e5e5"/><path d="m167.6 688.9 52.8-102v-7.6l-52.8 102z" opacity=".29"/><path d="m220.4 579.3-52.8 26.5-7.6-3.8v-7.6l52.9-26.4 7.5 3.8z" fill="#e5e5e5"/><path d="m220.4 579.3-52.8 26.5v-7.6l52.8-26.4z" opacity=".29"/><path d="m152.4 688.9 7.6 3.8 7.6-3.8v-90.7l-7.6-3.8-7.6 3.8z" fill="#e5e5e5"/><path d="m152.4 688.9 7.6 3.8v-90.7l-7.6-3.8z" opacity=".11"/><path d="m160 692.7 7.6-3.8v-90.7l-7.6 3.8z" opacity=".29"/><path d="m220.4 480.8v-7.6l-60.4-30.2-60.4 30.2v7.6l7.5 3.8 40.1-20.1-47.6 91.8v7.6l7.5 3.8 52.9-102 52.9 102 7.5-3.8v-7.6l-47.6-91.8 40.1 20.1z" fill="#e5e5e5"/><path d="m107.1 567.7 52.9-102v-7.6l-52.9 102z" opacity=".29"/><path d="m107.1 477 7.6 3.8 45.3-22.7v-7.5z" opacity=".29"/><path d="m160 465.7 52.9 102v-7.6l-52.9-102z" opacity=".11"/><path d="m212.9 477-52.9-26.4v7.5l45.3 22.7z" opacity=".11"/><path d="m92 567.7 7.6 3.7 7.5-3.7v-90.7l-7.5-3.8-7.6 3.8z" fill="#e5e5e5"/><path d="m92 567.7 7.6 3.7v-90.6l-7.6-3.8z" opacity=".11"/><path d="m99.6 571.4 7.5-3.7v-56.7l-7.5-15.1z" opacity=".29"/><path d="m160 586.6v7.5l-7.6 3.8-52.8-102v-7.6l7.5-3.7z" fill="#e5e5e5"/><path d="m152.4 597.9-52.8-102v-7.6l52.8 102z" opacity=".11"/><path d="m99.6 488.3 52.8 26.5 7.6-3.8v-7.6l-52.9-26.4-7.5 3.8z" fill="#e5e5e5"/><path d="m99.6 488.3 52.8 26.5v-7.6l-52.8-26.4z" opacity=".11"/><path d="m228 567.7-7.6 3.7-7.5-3.7v-90.7l7.5-3.8 7.6 3.8z" fill="#e5e5e5"/><path d="m228 567.7-7.6 3.7v-90.6l7.6-3.8z" opacity=".29"/><path d="m220.4 571.4-7.5-3.7v-56.7l7.5-15.1z" opacity=".11"/><path d="m160 586.6v7.5l7.6 3.8 52.8-102v-7.6l-7.5-3.7z" fill="#e5e5e5"/><path d="m167.6 597.9 52.8-102v-7.6l-52.8 102z" opacity=".29"/><path d="m220.4 488.3-52.8 26.5-7.6-3.8v-7.6l52.9-26.4 7.5 3.8z" fill="#e5e5e5"/><path d="m220.4 488.3-52.8 26.5v-7.6l52.8-26.4z" opacity=".29"/><path d="m152.4 597.9 7.6 3.8 7.6-3.8v-90.7l-7.6-3.8-7.6 3.8z" fill="#e5e5e5"/><path d="m152.4 597.9 7.6 3.8v-90.7l-7.6-3.8z" opacity=".11"/><path d="m160 601.7 7.6-3.8v-90.7l-7.6 3.8z" opacity=".29"/><path d="m200.5 402.5v-5l-40.5-20.3-40.5 20.3v5l5.1 2.6 26.8-13.4-51.4 74.3v7.5l7.5 3.8 52.5-84.9 52.5 84.9 7.5-3.8v-7.5l-51.4-74.3 26.8 13.4z" fill="#e5e5e5"/><path d="m107.5 477.3 52.5-84.9v-5l-52.5 82.4z" opacity=".29"/><path d="m124.6 400 5 2.5 30.4-15.1v-5.1z" opacity=".29"/><path d="m160 392.4 52.5 84.9v-7.5l-52.5-82.4z" opacity=".11"/><path d="m195.4 400-35.4-17.7v5.1l30.4 15.1z" opacity=".11"/><path d="m92.5 477.3 7.5 3.7 7.5-3.7 17.1-77.3-5.1-2.5-5.1 2.5z" fill="#e5e5e5"/><path d="m92.5 477.3 7.5 3.7 19.5-78.5-5.1-2.5z" opacity=".11"/><path d="m100 481 7.5-3.7 13.3-60.5-1.2-13.9z" opacity=".29"/><path d="m160 496v7.5l-7.5 3.8-33-94.6v-5.1l5.1-2.5z" fill="#e5e5e5"/><path d="m152.5 507.3-33-94.6v-5.1l33 92.2z" opacity=".11"/><path d="m119.5 407.6 35.4 17.7 5.1-2.5v-5.1l-35.4-17.7-5.1 2.5z" fill="#e5e5e5"/><path d="m119.5 407.6 35.4 17.7v-5l-35.4-17.8z" opacity=".11"/><path d="m227.5 477.3-7.5 3.7-7.5-3.7-17.1-77.3 5.1-2.5 5.1 2.5z" fill="#e5e5e5"/><path d="m227.5 477.3-7.5 3.7-19.5-78.5 5.1-2.5z" opacity=".29"/><path d="m220 481-7.5-3.7-13.5-60.5 1.6-13.9z" opacity=".11"/><path d="m160 496v7.5l7.5 3.8 33-94.6v-5.1l-5.1-2.5z" fill="#e5e5e5"/><path d="m167.5 507.3 33-94.6v-5.1l-33 92.2z" opacity=".29"/><path d="m200.5 407.6-35.4 17.7-5.1-2.5v-5.1l35.4-17.7 5.1 2.5z" fill="#e5e5e5"/><path d="m200.5 407.6-35.4 17.7v-5l35.4-17.8z" opacity=".29"/><path d="m152.5 507.3 7.5 3.7 7.5-3.7-2.4-87-5.1-2.6-5.1 2.6z" fill="#e5e5e5"/><path d="m152.5 507.3 7.5 3.7v-88.2l-5.1-2.5z" opacity=".11"/><path d="m160 511 7.5-3.7-2.4-87-5.1 2.5z" opacity=".29"/><path d="m200 343v-5l-40-20-40 20v5l5 2.5 26.5-13.3-31.5 60.8v5l5 2.5 35-67.5 35 67.5 5-2.5v-5l-31.5-60.8 26.5 13.3z" fill="#cc291f"/><path d="m125 400.5 35-67.5v-5l-35 67.5z" opacity=".29"/><path d="m125 340.5 5 2.5 30-15v-5z" opacity=".29"/><path d="m160 333 35 67.5v-5l-35-67.5z" opacity=".11"/><path d="m195 340.5-35-17.5v5l30 15z" opacity=".11"/><path d="m115 400.5 5 2.5 5-2.5v-60l-5-2.5-5 2.5z" fill="#cc291f"/><path d="m115 400.5 5 2.5v-60l-5-2.5z" opacity=".11"/><path d="m120 403 5-2.5v-37.5l-5-10z" opacity=".29"/><path d="m160 413v5l-5 2.5-35-67.5v-5l5-2.5z" fill="#cc291f"/><path d="m155 420.5-35-67.5v-5l35 67.5z" opacity=".11"/><path d="m120 348 35 17.5 5-2.5v-5l-35-17.5-5 2.5z" fill="#cc291f"/><path d="m120 348 35 17.5v-5l-35-17.5z" opacity=".11"/><path d="m205 400.5-5 2.5-5-2.5v-60l5-2.5 5 2.5z" fill="#cc291f"/><path d="m205 400.5-5 2.5v-60l5-2.5z" opacity=".29"/><path d="m200 403-5-2.5v-37.5l5-10z" opacity=".11"/><path d="m160 413v5l5 2.5 35-67.5v-5l-5-2.5z" fill="#cc291f"/><path d="m165 420.5 35-67.5v-5l-35 67.5z" opacity=".29"/><path d="m200 348-35 17.5-5-2.5v-5l35-17.5 5 2.5z" fill="#cc291f"/><path d="m200 348-35 17.5v-5l35-17.5z" opacity=".29"/><path d="m155 420.5 5 2.5 5-2.5v-60l-5-2.5-5 2.5z" fill="#cc291f"/><path d="m155 420.5 5 2.5v-60l-5-2.5z" opacity=".11"/><path d="m160 423 5-2.5v-60l-5 2.5z" opacity=".29"/><path d="m200 282.8v-5l-40-20-40 20v5l5 2.5 26.5-13.3-31.5 60.8v5l5 2.5 35-67.5 35 67.5 5-2.5v-5l-31.5-60.8 26.5 13.3z" fill="#cc291f"/><path d="m125 340.3 35-67.5v-5l-35 67.5z" opacity=".29"/><path d="m125 280.3 5 2.5 30-15v-5z" opacity=".29"/><path d="m160 272.8 35 67.5v-5l-35-67.5z" opacity=".11"/><path d="m195 280.3-35-17.5v5l30 15z" opacity=".11"/><path d="m115 340.3 5 2.5 5-2.5v-60l-5-2.5-5 2.5z" fill="#cc291f"/><path d="m115 340.3 5 2.5v-60l-5-2.5z" opacity=".11"/><path d="m120 342.8 5-2.5v-37.5l-5-10z" opacity=".29"/><path d="m160 352.8v5l-5 2.5-35-67.5v-5l5-2.5z" fill="#cc291f"/><path d="m155 360.3-35-67.5v-5l35 67.5z" opacity=".11"/><path d="m120 287.8 35 17.5 5-2.5v-5l-35-17.5-5 2.5z" fill="#cc291f"/><path d="m120 287.8 35 17.5v-5l-35-17.5z" opacity=".11"/><path d="m205 340.3-5 2.5-5-2.5v-60l5-2.5 5 2.5z" fill="#cc291f"/><path d="m205 340.3-5 2.5v-60l5-2.5z" opacity=".29"/><path d="m200 342.8-5-2.5v-37.5l5-10z" opacity=".11"/><path d="m160 352.8v5l5 2.5 35-67.5v-5l-5-2.5z" fill="#cc291f"/><path d="m165 360.3 35-67.5v-5l-35 67.5z" opacity=".29"/><path d="m200 287.8-35 17.5-5-2.5v-5l35-17.5 5 2.5z" fill="#cc291f"/><path d="m200 287.8-35 17.5v-5l35-17.5z" opacity=".29"/><path d="m155 360.3 5 2.5 5-2.5v-60l-5-2.5-5 2.5z" fill="#cc291f"/><path d="m155 360.3 5 2.5v-60l-5-2.5z" opacity=".11"/><path d="m160 362.8 5-2.5v-60l-5 2.5z" opacity=".29"/><path d="m84.6 291.1c28-11.3 60.8 4.6 73.4 35.6s.1 65.3-27.9 76.6" fill="#e5e5e5"/><path d="m145.8 383.7c-7.8 24.9-31.2 28.7-52.2 8.4s-31.6-56.9-23.8-81.9c7.8-24.9 31.2-28.7 52.2-8.4s31.6 56.9 23.8 81.9z" fill="#e5e5e5"/><path d="m157.9 326.7c-11.8-29.1-41.4-44.9-68.1-37.4 9.7-2.1 21.2 2 32.1 12.5 21 20.3 31.6 56.9 23.8 81.9-3.1 10-8.7 16.5-15.7 19.6 28-11.4 40.5-45.7 27.9-76.6z" opacity=".2"/><path d="m84.4 358.9-.9-1.3-15.2 2.8.9 1.3z" fill="#999"/><path d="m118.6 386.6-15.3-26.6c.1-.2.2-.5.3-.8.5-1.7.4-3.9-.3-6l24.3-16.8-.9-.4-24.3 15.1c-.5-.8-1.1-1.6-1.7-2.2-.9-.9-1.9-1.4-2.8-1.6l-10-32.8h-1.2l8.9 33.3c-.6.5-1.1 1.1-1.4 2.1-.4 1.4-.4 3 0 4.6l-10.6 3.1.4 1.1 10.9-2.1c.6 1.3 1.4 2.5 2.3 3.5 1.6 1.6 3.4 2 4.7 1.3l15.6 24.9z" opacity=".1"/><path d="m76.5 352.9c-1.4-1.3-2.9-1.9-4.1-1.8l-12.7 2.1c-1.4.2-2.5 1.2-3.1 2.9-1.1 3.4.4 8.5 3.3 11.3 1.4 1.4 2.9 2 4.2 1.8 0 0 12.7-2.1 13-2.1 1.2-.3 2.2-1.3 2.7-2.9 1.1-3.5-.4-8.5-3.3-11.3z" fill="#999"/><path d="m64.2 369.1c.5-.1 12.6-2.1 12.9-2.1 1.2-.3 2.2-1.3 2.7-2.9.4-1.4.4-3 .1-4.7l-12.7 2.1c.3 1.7.3 3.3-.1 4.7-.5 1.7-1.6 2.7-2.9 2.9z" opacity=".29"/><path d="m67.1 366.2c-1.1 3.4-4.3 4-7.2 1.2s-4.4-7.8-3.3-11.3c1.1-3.4 4.3-4 7.2-1.2s4.4 7.9 3.3 11.3z" opacity=".11"/><path d="m74.2 364.8 44.5 21.5-.1 1.3-49.5-21.3.1-1.2z" fill="#999"/><path d="m69.2 365.1 5-.3 44.5 21.5z" opacity=".2"/><path d="m72.4 357.5 55.6-20.9-.8-1-60.6 22.4.8 1z" fill="#999"/><path d="m67.4 359 5-1.5 55.6-20.9z" opacity=".2"/><path d="m67.6 353.1 20.3-38.7-.8-.9-23.1 39.3.9 1z" fill="#999"/><path d="m64.9 353.8 2.7-.7 20.3-38.7z" opacity=".2"/><ellipse cx="190.5" cy="128.5" fill="#e5e5e5" rx="60.3" ry="76.1" transform="matrix(.9038 -.428 .428 .9038 -36.6591 93.8986)"/><ellipse cx="190.5" cy="128.5" opacity=".2" rx="60.3" ry="76.1" transform="matrix(.9038 -.428 .428 .9038 -36.6591 93.8986)"/><ellipse cx="192.5" cy="127.6" fill="#e5e5e5" rx="60" ry="75.7" transform="matrix(.9038 -.428 .428 .9038 -36.0986 94.6589)"/><path d="m234.2 158.9-38.7-27.5c.1-.9-.1-1.9-.5-2.8-.3-.7-.7-1.2-1.2-1.7l11.6-44.5-1.1.3-12.5 43c-.8-.2-1.6-.2-2.3.2-.3.2-.6.4-.9.7l-43-30.1-.3 1.2 42.3 30.9c-.2 1 0 2.1.5 3.2.3.6.6 1 1 1.5l-16.3 38.7.8.6 17.4-38.1c.9.3 1.8.3 2.6 0 .5-.2.8-.5 1.1-.9l38.6 25.4z" opacity=".15"/><ellipse cx="180.7" cy="133.2" fill="#fff" opacity=".15" rx="40.9" ry="51.7" transform="matrix(.9038 -.428 .428 .9038 -39.6221 90.1655)"/><path d="m234 115.7-.8 43.3 1.1.1 4.4-45.4h-1.1z" fill="#999"/><path d="m237.6 113.7-3.6 2-.8 43.3z" opacity=".2"/><path d="m230 106.4-25.9-23.7 1.2-.4 29.1 22.7-.8.8z" fill="#999"/><path d="m233.6 105.8-3.6.6-25.9-23.7z" opacity=".2"/><path d="m236.2 117.5c2.9-1.4 3.8-5.4 2.1-9.1-1.6-3.4-4.9-5.2-7.7-4.4 0 0-6.9 2.5-7 2.5-2.9 1.4-3.8 5.4-2.1 9.1 1.5 3.3 4.7 5.1 7.4 4.4.1.1 7.1-2.4 7.3-2.5z" fill="#999"/><path d="m227.9 113.3c-1.7-3.6-.8-7.7 2.1-9.1.2-.1.4-.2.7-.2 0 0-6.9 2.5-7 2.5-2.9 1.4-3.8 5.4-2.1 9.1 1.5 3.3 4.7 5.1 7.4 4.4l6.6-2.4c-2.8.9-6.1-.9-7.7-4.3z" opacity=".2"/><path d="m238.1 113.5c1.7-.8 2.3-3.3 1.3-5.5-1-2-3-3.2-4.7-2.6 0 0-2.5.9-2.5.9-1.7.8-2.3 3.3-1.3 5.5.9 2 2.9 3.1 4.5 2.7.1 0 2.6-.9 2.7-1z" fill="#656565"/><path d="m233.1 111c-1-2.2-.5-4.7 1.3-5.5.1-.1.3-.1.4-.1 0 0-2.5.9-2.5.9-1.7.8-2.3 3.3-1.3 5.5.9 2 2.9 3.1 4.5 2.7l2.2-.8c-1.7.4-3.7-.7-4.6-2.7z" opacity=".2"/><path d="m223.1 117.7-50.4 54.2 1 1.1 56.2-56.8-1-1.1z" fill="#999"/><path d="m228.9 115.1-5.8 2.6-50.4 54.2z" opacity=".2"/><path d="m220.7 111-75.5-13.2.1-1.5 81.8 11.8-.2 1.5z" fill="#999"/><path d="m226.9 109.6-6.2 1.4-75.5-13.2z" opacity=".2"/></svg>