<svg xmlns:xlink="http://www.w3.org/1999/xlink"  enable-background="new 0 0 160 160" height="160" viewBox="0 0 160 160" width="160" xmlns="http://www.w3.org/2000/svg"><path d="m54 138 46-23-42-21-46 23z" opacity=".2"/><path d="m14 100 2 1 36-18v-4l-2-1-36 18z" fill="#39c"/><path d="m14 100 2 1v-4l-2-1z" opacity=".11"/><path d="m16 101 36-18v-4l-36 18z" opacity=".29"/><path d="m92 115 4 2 4-2v-42l-4-2-4 2z" fill="#39c"/><path d="m92 115 4 2v-42l-4-2z" opacity=".11"/><path d="m96 117 4-2v-42l-4 2z" opacity=".29"/><path d="m54 96 4 2 4-2v-42l-4-2-4 2z" fill="#39c"/><path d="m54 96 4 2v-42l-4-2z" opacity=".11"/><path d="m58 98 4-2v-42l-4 2z" opacity=".29"/><path d="m50 52 48 24 4-2v-2l-48-24-4 2z" fill="#39c"/><path d="m50 52 48 24v-2l-48-24z" opacity=".11"/><path d="m102 72v2l-4 2v-2z" opacity=".29"/><path d="m20 86v4l38 19 36-18v-4l-38-19z" fill="#39c"/><path d="m58 109-38-19v-4l38 19z" opacity=".11"/><path d="m58 109 36-18v-4l-36 18z" opacity=".29"/><path d="m16 82v2l4 2 38-19v-2l-4-2z" fill="#39c"/><path d="m20 86-4-2v-2l4 2z" opacity=".11"/><path d="m20 86 38-19v-2l-38 19z" opacity=".29"/><path d="m22 85v2l4 2 38-19v-2l-4-2z" fill="#39c"/><path d="m26 89-4-2v-2l4 2z" opacity=".11"/><path d="m26 89 38-19v-2l-38 19z" opacity=".29"/><path d="m28 88v2l4 2 38-19v-2l-4-2z" fill="#39c"/><path d="m32 92-4-2v-2l4 2z" opacity=".11"/><path d="m32 92 38-19v-2l-38 19z" opacity=".29"/><path d="m34 91v2l4 2 38-19v-2l-4-2z" fill="#39c"/><path d="m38 95-4-2v-2l4 2z" opacity=".11"/><path d="m38 95 38-19v-2l-38 19z" opacity=".29"/><path d="m40 94v2l4 2 38-19v-2l-4-2z" fill="#39c"/><path d="m44 98-4-2v-2l4 2z" opacity=".11"/><path d="m44 98 38-19v-2l-38 19z" opacity=".29"/><path d="m46 97v2l4 2 38-19v-2l-4-2z" fill="#39c"/><path d="m50 101-4-2v-2l4 2z" opacity=".11"/><path d="m50 101 38-19v-2l-38 19z" opacity=".29"/><path d="m52 100v2l4 2 38-19v-2l-4-2z" fill="#39c"/><path d="m56 104-4-2v-2l4 2z" opacity=".11"/><path d="m56 104 38-19v-2l-38 19z" opacity=".29"/><path d="m88 88 2 1 4-2v-46l-2-1h-4z" fill="#39c"/><path d="m88 88 2 1v-48l-2-1z" opacity=".11"/><path d="m90 89 4-2v-46h-4z" opacity=".29"/><path d="m82 91 2 1 4-2v-48l-2-1h-4z" fill="#39c"/><path d="m82 91 2 1v-50l-2-1z" opacity=".11"/><path d="m84 92 4-2v-48h-4z" opacity=".29"/><path d="m70 97 2 1 4-2v-52l-2-1-4 4z" fill="#39c"/><path d="m70 97 2 1v-50l-2-1z" opacity=".11"/><path d="m72 98 4-2v-52l-4 4z" opacity=".29"/><path d="m76 94 2 1 4-2v-50l-2-1h-4z" fill="#39c"/><path d="m76 94 2 1v-52l-2-1z" opacity=".11"/><path d="m78 95 4-2v-50h-4z" opacity=".29"/><path d="m64 100 2 1 4-2v-50l-2-1-4 4z" fill="#39c"/><path d="m64 100 2 1v-48l-2-1z" opacity=".11"/><path d="m66 101 4-2v-50l-4 4z" opacity=".29"/><path d="m58 103 2 1 4-2v-48l-2-1-4 4z" fill="#39c"/><path d="m58 103 2 1v-46l-2-1z" opacity=".11"/><path d="m60 104 4-2v-48l-4 4z" opacity=".29"/><path d="m50 136 4 2 4-2v-42l-4-2-4 2z" fill="#39c"/><path d="m50 136 4 2v-42l-4-2z" opacity=".11"/><path d="m54 138 4-2v-42l-4 2z" opacity=".29"/><path d="m12 117 4 2 4-2v-42l-4-2-4 2z" fill="#39c"/><path d="m12 117 4 2v-42l-4-2z" opacity=".11"/><path d="m16 119 4-2v-42l-4 2z" opacity=".29"/><path d="m8 73 48 24 4-2v-2l-48-24-4 2z" fill="#39c"/><path d="m8 73 48 24v-2l-48-24z" opacity=".11"/><path d="m60 93v2l-4 2v-2z" opacity=".29"/></svg>