<svg xmlns:xlink="http://www.w3.org/1999/xlink"  enable-background="new 0 0 160 160" height="160" viewBox="0 0 160 160" width="160" xmlns="http://www.w3.org/2000/svg"><path d="m54 138 46-23-42-21-46 23z" opacity=".2"/><path d="m92 115 4 2 4-2v-42l-4-2-4 2z" fill="#39c"/><path d="m92 115 4 2v-42l-4-2z" opacity=".11"/><path d="m96 117 4-2v-42l-4 2z" opacity=".29"/><path d="m54 96 4 2 4-2v-42l-4-2-4 2z" fill="#39c"/><path d="m54 96 4 2v-42l-4-2z" opacity=".11"/><path d="m58 98 4-2v-42l-4 2z" opacity=".29"/><path d="m52 53 48 24 4-2v-2l-48-24-4 2z" fill="#39c"/><path d="m52 53 48 24v-2l-48-24z" opacity=".11"/><path d="m104 73v2l-4 2v-2z" opacity=".29"/><path d="m50 67 2 1 4-2v-46l-2-1h-4z" fill="#39c"/><path d="m50 67 2 1v-48l-2-1z" opacity=".11"/><path d="m52 68 4-2v-46h-4z" opacity=".29"/><path d="m44 70 2 1 4-2v-48l-2-1h-4z" fill="#39c"/><path d="m44 70 2 1v-50l-2-1z" opacity=".11"/><path d="m46 71 4-2v-48h-4z" opacity=".29"/><path d="m32 76 2 1 4-2v-52l-2-1-4 4z" fill="#39c"/><path d="m32 76 2 1v-50l-2-1z" opacity=".11"/><path d="m34 77 4-2v-52l-4 4z" opacity=".29"/><path d="m38 73 2 1 4-2v-50l-2-1h-4z" fill="#39c"/><path d="m38 73 2 1v-52l-2-1z" opacity=".11"/><path d="m40 74 4-2v-50h-4z" opacity=".29"/><path d="m26 79 2 1 4-2v-50l-2-1-4 4z" fill="#39c"/><path d="m26 79 2 1v-48l-2-1z" opacity=".11"/><path d="m28 80 4-2v-50l-4 4z" opacity=".29"/><path d="m20 82 2 1 4-2v-48l-2-1-4 4z" fill="#39c"/><path d="m20 82 2 1v-46l-2-1z" opacity=".11"/><path d="m22 83 4-2v-48l-4 4z" opacity=".29"/><path d="m20 86v4l38 19 36-18v-4l-38-19z" fill="#39c"/><path d="m58 109-38-19v-4l38 19z" opacity=".11"/><path d="m58 109 36-18v-4l-36 18z" opacity=".29"/><path d="m18 83v2l4 2 38-19v-2l-4-2z" fill="#39c"/><path d="m22 87-4-2v-2l4 2z" opacity=".11"/><path d="m22 87 38-19v-2l-38 19z" opacity=".29"/><path d="m24 86v2l4 2 38-19v-2l-4-2z" fill="#39c"/><path d="m28 90-4-2v-2l4 2z" opacity=".11"/><path d="m28 90 38-19v-2l-38 19z" opacity=".29"/><path d="m30 89v2l4 2 38-19v-2l-4-2z" fill="#39c"/><path d="m34 93-4-2v-2l4 2z" opacity=".11"/><path d="m34 93 38-19v-2l-38 19z" opacity=".29"/><path d="m36 92v2l4 2 38-19v-2l-4-2z" fill="#39c"/><path d="m40 96-4-2v-2l4 2z" opacity=".11"/><path d="m40 96 38-19v-2l-38 19z" opacity=".29"/><path d="m42 95v2l4 2 38-19v-2l-4-2z" fill="#39c"/><path d="m46 99-4-2v-2l4 2z" opacity=".11"/><path d="m46 99 38-19v-2l-38 19z" opacity=".29"/><path d="m48 98v2l4 2 38-19v-2l-4-2z" fill="#39c"/><path d="m52 102-4-2v-2l4 2z" opacity=".11"/><path d="m52 102 38-19v-2l-38 19z" opacity=".29"/><path d="m54 101v2l4 2 38-19v-2l-4-2z" fill="#39c"/><path d="m58 105-4-2v-2l4 2z" opacity=".11"/><path d="m58 105 38-19v-2l-38 19z" opacity=".29"/><path d="m56 121 2 1 36-18v-4l-2-1-36 18z" fill="#39c"/><path d="m56 121 2 1v-4l-2-1z" opacity=".11"/><path d="m58 122 36-18v-4l-36 18z" opacity=".29"/><path d="m50 136 4 2 4-2v-42l-4-2-4 2z" fill="#39c"/><path d="m50 136 4 2v-42l-4-2z" opacity=".11"/><path d="m54 138 4-2v-42l-4 2z" opacity=".29"/><path d="m12 117 4 2 4-2v-42l-4-2-4 2z" fill="#39c"/><path d="m12 117 4 2v-42l-4-2z" opacity=".11"/><path d="m16 119 4-2v-42l-4 2z" opacity=".29"/><path d="m10 74 48 24 4-2v-2l-48-24-4 2z" fill="#39c"/><path d="m10 74 48 24v-2l-48-24z" opacity=".11"/><path d="m62 94v2l-4 2v-2z" opacity=".29"/></svg>