<svg xmlns:xlink="http://www.w3.org/1999/xlink"  enable-background="new 0 0 160 160" height="160" viewBox="0 0 160 160" width="160" xmlns="http://www.w3.org/2000/svg"><path d="m87.3 126.1c-10.5 4.6-48.3 16.9-34.1 27.3 13.3 9.7 48.9-5.2 59.2-9.7 15.2-6.6 38.3-18.7 29.9-25-8.7-6.4-35.2-1.3-55 7.4z" opacity=".2"/><path d="m128.1.9c-.4.8-.6 7.4 4.1 9.7 4.8 2.2 13.5-9.2 8.1-9s-11.5-2.1-12.2-.7z" fill="#baa794"/><path d="m128.1.9c-.4.8-.6 7.4 4.1 9.7 4.8 2.2 13.5-9.2 8.1-9s-11.5-2.1-12.2-.7z" opacity=".15"/><path d="m48.4 81.9c2 5.4 7.3 16 4.9 25.6s-5.1 15.8-5.1 18c0 2.3 3 7.6 3.7 12.9s-.7 8 2.5 9.6 11 .6 12.8-2c1.5-2.2.2-8.1-3.2-7.6-2.2.3-3 1.1-3.3.6s-3.2-10.4-2.2-14.1 10-25 12.4-34.8-12.4-28.4-12.4-28.4z" fill="#baa794"/><path d="m110.6 80.8c1.5 7.3 4.8 36.2 4.4 39.6s2.6 4.9 5.8 4.4c3.3-.5 7.6-1.8 6.4-5-1.2-3.3-4.1-1.6-5-2.4s.8-33.8 3.7-43.8c3-10-15.3 7.2-15.3 7.2z" fill="#baa794"/><path d="m48.4 81.9c2 5.4 7.3 16 4.9 25.6s-5.1 15.8-5.1 18c0 2.3 3 7.6 3.7 12.9s-.7 8 2.5 9.6 11 .6 12.8-2c1.5-2.2.2-8.1-3.2-7.6-2.2.3-3 1.1-3.3.6s-3.2-10.4-2.2-14.1 10-25 12.4-34.8-12.4-28.4-12.4-28.4z" opacity=".15"/><path d="m110.6 80.8c1.5 7.3 4.8 36.2 4.4 39.6s2.6 4.9 5.8 4.4c3.3-.5 7.6-1.8 6.4-5-1.2-3.3-4.1-1.6-5-2.4s.8-33.8 3.7-43.8c3-10-15.3 7.2-15.3 7.2z" opacity=".15"/><path d="m135.5 3.3c-6 3.8-8.3 20.5-10.9 21.9-2.6 1.5-7.5 1.3-11.8 5.6-4.4 4.3-5.3 7.8-7.4 8.1s-36.9-8.1-50.8 6.8-9.2 27.3-9.2 27.3 9-5.8 11.8-1.9 11.2 26.2 9.8 36.9-5.6 19.1-4.6 22.3c1 3.3 4.6 12.6 5.2 17.6s4.4 5.9 7.8 5.8 8.7-1 8.6-4.1-3.3-5.8-5-5.9-3 1.3-3.5-.4c-.6-1.8-4-11.5-.4-17 3.5-5.5 10.2-18.2 13-27.6s3.3-18 3.3-18 11.7 6.5 23.5.9 13.9-8.6 13.6-6.1-.9 14-.4 22.8c.4 8.7.1 23.5-.3 26.3s2.2 4.4 5 4.1 8.7-1.2 8.4-3.5c-.3-2.4-3.5-4-4.3-3.8-.7.1-1.3 0-1.3-1.2s1.9-21.3 2.4-24.4.6-9.2 2.4-13.9 4.9-12.1 5.8-21.6 1.8-32.7 3.3-34.7c1.5-2.1 6.1-1.6 7.4-3.1s2.6-3.9 2.4-7.2c-.1-1.1-1.1-2.8-1.3-4.4-.4-3.3-.9-6-4-7.9-5-2.9-12.1-3.6-18.5.3z" fill="#baa794"/><path d="m144.8 6.7c-.1-1.9 5.6-6.3 7-4.9s.2 2.5 0 4.9-.1 7.3-1.4 7.3-5.5-5.1-5.6-7.3z" fill="#baa794"/><path d="m144.8 6.7c-.1-1.9 5.6-6.3 7-4.9s.2 2.5 0 4.9-.1 7.3-1.4 7.3-5.5-5.1-5.6-7.3z" opacity=".15"/><path d="m45.1 64.1c-1.5 6.8-5.7 35.4-15.8 53.4s-16 26.2-23.1 31.1c-7.1 4.9-1.3 16.3 8.6 6 9.9-10.2 20.6-25.9 27.2-42 7.3-18 12.4-43.4 14-43.1 2.8.3-10.9-5.4-10.9-5.4z" fill="#baa794"/><path d="m158.9 15.1c0-.4-.2-.9-.4-1.5-.2.3-.5.8-.7 1.2-.4.7.4 1.8-.2 3.8s-2.9 2.2-2.9 2.2.3.6 1.8 1.5h.1c1.3-1.5 2.6-3.9 2.3-7.2z" fill="#4a2121"/><path d="m156.1 9.4c-1.6.1-1.8 3.3-1.8 3.3s1 .1 2.5-.5c.5-.2.9-.2 1.2 0-.2-.5-.3-1-.4-1.5 0-.4-.1-.8-.2-1.1-.5-.2-.9-.2-1.3-.2z" fill="#4a2121"/><path d="m11.5 147s3.2 2 5 5.8l2.7-3c-3.2-2.4-7.7-2.8-7.7-2.8z" fill="#4a2121"/><path d="m11.5 157.3c-.1-2.6-.9-6.4-4.5-9.3-.2.2-.5.4-.7.5-6.3 4.4-2.5 13.7 5.2 8.8z" fill="#4a2121"/><path d="m17.5 138.9s3.5-.4 7 4c1-1.3 2-2.7 2.9-4.1 0 0 0 0-.1 0-5.3-3.3-9.8.1-9.8.1z" fill="#4a2121"/><path d="m28.6 134.5s-2-4.8-5.3-6.7c-.9 1.4-1.7 2.7-2.5 4 3.7.8 7.8 2.7 7.8 2.7z" fill="#4a2121"/><path d="m14.5 140.5c-.7.8-1.3 1.6-1.9 2.3 3 .8 5.7 2.2 5.7 2.2s-2-2.7-3.8-4.5z" fill="#4a2121"/><path d="m27.9 119.9c-.8 1.3-1.5 2.6-2.2 3.9 2.8 1.5 6.2 5.9 6.2 5.9s.7-7-4-9.8z" fill="#4a2121"/><path d="m155.2 12.3s1.1-3.3 1.7-1.6-1.7 1.6-1.7 1.6z" fill="#2d3134"/><path d="m158.9 16.4s-1.7-1.5-.4-1.9.4 1.9.4 1.9z" fill="#2d3134"/><g fill="#4a2121"><path d="m101.5 62c1.1.1 2.2 4.7-.3 4s-1.5-4.2.3-4z"/><path d="m46.4 72.3c1.1.1 2.2 4.7-.3 4-2.5-.6-1.5-4.1.3-4z"/><path d="m86.8 38.4c.5-1 5.1-.4 3.6 1.7s-4.4 0-3.6-1.7z"/><path d="m78.1 67.5c2.4.5.9 4.1-.9 3.6s-1.8-4.2.9-3.6z"/><path d="m46.6 91.2c2.4.5.9 4.1-.9 3.6s-1.8-4.2.9-3.6z"/><path d="m69.1 50.4c2.4.5.9 4.1-.9 3.6s-1.9-4.2.9-3.6z"/><path d="m81.8 58.7c2.4.5.9 4.1-.9 3.6s-1.8-4.2.9-3.6z"/><path d="m66.1 59.1c2.4.5.9 4.1-.9 3.6s-1.8-4.2.9-3.6z"/><path d="m87 76.5c2.4.5.9 4.1-.9 3.6s-1.9-4.2.9-3.6z"/><path d="m41.2 95.3c2.4.5.9 4.1-.9 3.6-1.9-.5-1.9-4.2.9-3.6z"/><path d="m133 61.9c2.4.5.9 4.1-.9 3.6s-1.8-4.2.9-3.6z"/><path d="m101.1 43.2c2.4.5.9 4.1-.9 3.6s-1.8-4.2.9-3.6z"/><path d="m122.6 27.6c2.4.5.9 4.1-.9 3.6s-1.9-4.2.9-3.6z"/><path d="m127.3 34.4c2.4.5.9 4.1-.9 3.6s-1.8-4.2.9-3.6z"/><path d="m125.4 43.7c2.4.5.9 4.1-.9 3.6s-1.8-4.2.9-3.6z"/><path d="m91.8 56c.9 1.3-2.9 3.1-3.6 1-.8-2 2.5-2.6 3.6-1z"/><path d="m64.3 44.8c.9 1.3-2.9 3.1-3.6 1-.8-2.1 2.5-2.6 3.6-1z"/><path d="m95.2 48.6c.9 1.3-2.9 3.1-3.6 1-.8-2 2.5-2.5 3.6-1z"/><path d="m129.7 29.4c.9 1.3-2.9 3.1-3.6 1-.8-2 2.5-2.5 3.6-1z"/><path d="m101.6 39.8c.9 1.3-2.9 3.1-3.6 1-.8-2 2.5-2.6 3.6-1z"/><path d="m47.1 82.1c.9 1.3-2.9 3.1-3.6 1s2.5-2.5 3.6-1z"/><path d="m99.7 51.3c1.1.1 2.2 4.7-.3 4-2.5-.6-1.5-4.1.3-4z"/><path d="m107.4 42.9c1.1.1 2.2 4.7-.3 4s-1.5-4.2.3-4z"/><path d="m135.9 26c1.1.1 2.2 4.7-.3 4s-1.6-4.1.3-4z"/><path d="m120.6 67.8c1.1.1 2.2 4.7-.3 4s-1.6-4.2.3-4z"/><path d="m139.8 69.6c1.1.1 2.2 4.7-.3 4s-1.6-4.2.3-4z"/><path d="m71.5 91.4c1.1.1 2.2 4.7-.3 4s-1.5-4.1.3-4z"/><path d="m112.8 44.3c1.1.1 2.2 4.7-.3 4s-1.5-4.2.3-4z"/><path d="m92.7 67.6c1.1.1 2.2 4.7-.3 4s-1.5-4.2.3-4z"/><path d="m95.3 42.3c.9 1.3-2.9 3.1-3.6 1-.8-2.1 2.5-2.6 3.6-1z"/><path d="m139.5 4.9c.9 1.3-2.9 3.1-3.6 1s2.5-2.6 3.6-1z"/><path d="m112.5 75c2.4.5.9 4.1-.9 3.6s-1.9-4.2.9-3.6z"/><path d="m110.7 64.6c.9 1.3-2.9 3.1-3.6 1-.8-2 2.5-2.5 3.6-1z"/><path d="m112.2 38.6c.9 1.3-2.9 3.1-3.6 1-.8-2.1 2.5-2.6 3.6-1z"/><path d="m143.8 24.5c.9 1.3-2.9 3.1-3.6 1-.7-2 2.5-2.5 3.6-1z"/><path d="m80.1 85.6c.9 1.3-2.9 3.1-3.6 1s2.5-2.6 3.6-1z"/><path d="m59.3 57.5c.9 1.3-2.9 3.1-3.6 1-.8-2 2.4-2.5 3.6-1z"/><path d="m52.6 68.6c.9 1.3-2.9 3.1-3.6 1-.8-2 2.5-2.5 3.6-1z"/><path d="m122 33.2c.9 1.3-2.9 3.1-3.6 1-.8-2 2.4-2.5 3.6-1z"/><path d="m105.2 72.1c.9 1.3-2.9 3.1-3.6 1-.8-2 2.5-2.5 3.6-1z"/><path d="m78 101.4c.9 1.3-2.9 3.1-3.6 1-.8-2.1 2.5-2.6 3.6-1z"/><path d="m134.9 75.2c.9 1.3-2.9 3.1-3.6 1-.8-2 2.5-2.5 3.6-1z"/><path d="m80.6 110.1c.9 1.3-2.9 3.1-3.6 1s2.5-2.6 3.6-1z"/><path d="m74.5 78.1c.9 1.3-2.9 3.1-3.6 1s2.5-2.6 3.6-1z"/><path d="m57.6 65.5c-.8-1.4 3.2-2.8 3.7-.6.5 2.1-2.8 2.3-3.7.6z"/><path d="m144 17.9c.3-1.1-4.3-3.3-4.7-1.5s3.9 4.8 4.7 1.5z"/><path d="m81.8 51.3c.3-1.1-4.3-3.3-4.7-1.5s3.9 4.8 4.7 1.5z"/><path d="m94.4 62.5c.6-1.3-3.6-2.3-3.8-.6s2.8 2.7 3.8.6z"/><path d="m138.3 12.5c.6-1.3-3.6-2.3-3.8-.6s2.8 2.7 3.8.6z"/><path d="m55.1 50.8c.6-1.3-3.6-2.3-3.8-.6s2.8 2.7 3.8.6z"/><path d="m71.1 41.1c.6-1.3-3.6-2.3-3.8-.6s2.8 2.6 3.8.6z"/><path d="m83 45.2c.9 1.3-2.9 3.1-3.6 1-.7-2 2.5-2.5 3.6-1z"/><path d="m89.7 51c.6-1.3-3.6-2.3-3.8-.6-.3 1.7 2.8 2.6 3.8.6z"/><path d="m136.2 36.2c.6-1.3-3.6-2.3-3.8-.6s2.8 2.7 3.8.6z"/><path d="m76.2 60.1c1.9-1.5-2.3-3.6-3.1-2.4s1.6 3.6 3.1 2.4z"/><path d="m62.9 53.6c1.9-1.5-2.3-3.6-3.1-2.4s1.6 3.6 3.1 2.4z"/><path d="m72.8 48.7c1.9-1.5-2.3-3.6-3.1-2.4-.7 1.3 1.6 3.6 3.1 2.4z"/><path d="m88.3 46.8c1.9-1.5-2.3-3.6-3.1-2.4-.7 1.3 1.7 3.6 3.1 2.4z"/><path d="m76.5 42.9c1.9-1.5-2.3-3.6-3.1-2.4-.7 1.4 1.6 3.6 3.1 2.4z"/><path d="m132.5 23c1.9-1.5-2.3-3.6-3.1-2.4-.8 1.3 1.6 3.6 3.1 2.4z"/><path d="m87.8 67.2c-.4-1.7-5.2-.5-3.3 2.1s3.6-.8 3.3-2.1z"/><path d="m41 107.8c-.4-1.7-5.2-.5-3.3 2.1 1.8 2.5 3.6-.8 3.3-2.1z"/><path d="m68.7 68.2c-.4-1.7-5.2-.5-3.3 2.1 1.9 2.5 3.6-.8 3.3-2.1z"/><path d="m52.2 59.5c-.4-1.7-5.2-.5-3.3 2.1 1.8 2.5 3.6-.8 3.3-2.1z"/><path d="m107.7 54.9c-.4-1.7-5.2-.5-3.3 2.1 1.9 2.5 3.6-.8 3.3-2.1z"/><path d="m85.2 93.6c-.4-1.7-5.2-.5-3.3 2.1 1.8 2.5 3.6-.8 3.3-2.1z"/><path d="m134.1 42.7c-.4-1.7-5.2-.5-3.3 2.1 1.8 2.6 3.6-.8 3.3-2.1z"/><path d="m84.6 38.2c-.4-1.7-5.2-.5-3.3 2.1 1.8 2.5 3.6-.8 3.3-2.1z"/><path d="m115.6 59.5c1.1.1 2.2 4.7-.3 4s-1.5-4.1.3-4z"/><path d="m140.6 57c1.1.1 2.2 4.7-.3 4s-1.6-4.1.3-4z"/><path d="m124.3 54.2c.9 1.3-2.9 3.1-3.6 1-.8-2.1 2.5-2.6 3.6-1z"/><path d="m120 42.8c.3-1.1-4.3-3.3-4.7-1.5s3.8 4.7 4.7 1.5z"/><path d="m145.3 36.9c.3-1.1-4.3-3.3-4.7-1.5s3.8 4.7 4.7 1.5z"/><path d="m135.1 55.2c.8-.7-1.7-5.1-3.1-3.9s.5 6.1 3.1 3.9z"/><path d="m115.8 35.8c.3-1-3.9-2.9-4.2-1.3-.4 1.5 3.4 4.2 4.2 1.3z"/><path d="m151.3 17.1c.3-1-3.9-2.9-4.2-1.3s3.4 4.3 4.2 1.3z"/><path d="m115.7 53.2c.6-1.3-3.6-2.3-3.8-.6s2.8 2.7 3.8.6z"/><path d="m141.7 46.4c-.3-1.4-4.3.4-3.4 1.9s3.9.4 3.4-1.9z"/><path d="m126.9 63c-.4-1.7-5.2-.5-3.3 2.1 1.8 2.5 3.6-.8 3.3-2.1z"/><path d="m135.8 83.7c-.4-1.7-5.2-.5-3.3 2.1s3.6-.8 3.3-2.1z"/></g></svg>