<svg xmlns:xlink="http://www.w3.org/1999/xlink"  enable-background="new 0 0 160 160" height="160" viewBox="0 0 160 160" width="160" xmlns="http://www.w3.org/2000/svg"><path d="m79.3 148.1c11-4.8 61-23.3 43.4-33.3-19.8-11.2-58.7 10.2-69.5 14.8-15.9 6.8-32.1 16.5-23.3 23.1 9 6.8 28.7 4.5 49.4-4.6z" opacity=".2"/><path d="m88.5 72.6s14.1 21.6 14.2 24.2c.1 2.7-1.3 15-3 15.8s-7.6 1.7-6.7 6.2c.9 4.6 10 3.2 11.7 1.7s2.7-3 2.7-6.6c0-3.7 4.6-17.1 4.6-18.9s-4.2-8.6-3.7-17.4-.3-20.8-.3-20.8z" fill="#baa794"/><path d="m88.5 72.6s14.1 21.6 14.2 24.2c.1 2.7-1.3 15-3 15.8s-7.6 1.7-6.7 6.2c.9 4.6 10 3.2 11.7 1.7s2.7-3 2.7-6.6c0-3.7 4.6-17.1 4.6-18.9s-4.2-8.6-3.7-17.4-.3-20.8-.3-20.8z" opacity=".15"/><path d="m4 25.7s-2.8-9.6 8.6-13.8 17.2-2 23.1 5.6 7.9 16.1 9.7 16.2 7.5.3 10.9 1.3 5.7 2.9 8.7 2.5 35.5-24.9 52.3-15.9c18.5 10 11.8 27.9 9.3 38.8s-5.3 17.2-3.9 24.5c1.5 7.3 4.6 9.7 3.7 13.8s-3 15.4-2.9 19.9-1.3 9.2-8.6 7.8-4.8-6.1-2.1-7.8 3.2-4.4 3.4-6.1c.2-1.8 2-9.6 1.2-11.4s-7.9-16.2-9.1-21.6c-1.2-5.3 0-14.9-3.1-15.5s-10.1 6.4-19.2 13.4c-9.1 6.9-19.6 10-19.6 10s-4.6 28.9-5 35.6c-.5 6.7-1.9 22.9-2.3 26.1-.4 3.3-6.5 6.6-12.4 4.6s-1.1-6.8 1.1-7.4 3.7-2.8 3.6-7.4c-.1-4.7-4.6-39.2-4.6-39.2s-1.1 29.2-1.3 35.3 2 10.9-2.8 13.3c-3.5 1.7-10.9 3.6-12.2-.8-1.6-5.5 6.2-4.4 6.5-6.7.3-2.4-.9-34.6-3.6-39s-9.3-12.5-10.6-26.8-3.8-33.3-6.1-34.1-10.3 5-14.4-2.6c-4.1-7.4 1.1-9 1.7-12.6z" fill="#baa794"/><path d="m7.9 32.8c.3 1-1.2 1-2.7 2.5s-1.8 2.2-1.8 2.2-2.8-4.4-2.7-5.1 6.9-.5 7.2.4z" fill="#2d3134"/><path d="m4.5 23.9s1.1-3.9.1-4.3-.7 4.5-.1 4.3z" fill="#2d3134"/><path d="m18.5 37.8c-.2 2.8-6.6 3.3-6.6 3.3s2.4-1.2 1.5-4-3.7-7.1-3.4-9.5 3.3-6.5 6.8-6.3c3.6.2 4 1.6 4 1.6s-1.5 2.7-4 2.7-5.8-.3-5.5 2.8c.3 3 7.2 9.4 7.2 9.4" fill="#4a2121"/><path d="m17.6 11.4s-2.7-3.6-5.2-2.6-1.9 5.1-1.9 5.1z" fill="#baa794"/><path d="m13.5 24.2s.9-2.4 3.2-2.4 3.4 1.2 3.4 1.2-1 1.7-2.8 1.9-3.8-.7-3.8-.7z" fill="#2d3134"/><path d="m29.3 18.5c-1-2.2 7.1-7.9 11-5.5s-3.4 11-3.4 11-3.3 3.9-7.6-5.5z" fill="#baa794"/><path d="m39.1 15.4s-7.1 1-5 4.8c2 3.7 5-4.8 5-4.8z" fill="#4a2121"/><path d="m129.3 37.8c2.8 17.7 9.2 44 22.9 47 13 2.9 7.3 12-3.4 7.5s-20.9-22-23.7-40c-2.7-17.9 4.2-14.5 4.2-14.5z" fill="#baa794"/><g fill="#4a2121"><path d="m143.7 79.2c-.8-.9-1.5-1.9-2.2-3-.2.2-.3.3-.5.5-2.9 1.9-4.9 2.5-5.6 2.7 0 .1.1.1.1.2 1.1.3 4.4 1.1 7.6-.1.2-.2.4-.2.6-.3z"/><path d="m149.9 84c-.7-.3-1.4-.7-2.1-1.1 0 .3-.1.5-.2.8-.8 2.4-3.2 4.5-4.2 5.2.1.1.2.2.3.3 1.4-.1 4.4-.7 5.3-3.7.3-.8.6-1.3.9-1.5z"/><path d="m152.8 84.9c.5.4.8.8.8.8s1 2.6-.1 5.1c-.4.9-1 1.7-1.7 2.3 8.5 1.9 12-5.5 1-8.2z"/><path d="m136.2 65.6c-2.2 2.5-5.2 5.1-5.2 5.1s4.4-.9 6.4-2.1c-.4-1-.8-2-1.2-3z"/><path d="m133.7 76.8c1.5-1.4 2.7-3.1 2.7-3.1s-.7.3-2.8.8c-.3.1-.7.1-1 .2.4.7.7 1.4 1.1 2.1z"/><path d="m139.8 85.3c.9-1.7 1.5-3.4 1.5-3.4s-1.2.9-2.9 1.8c.4.5.9 1.1 1.4 1.6z"/><path d="m148.8 92.3c.4.2.8.3 1.1.4 1.3-2.6.6-5.7.6-5.7s0 .5-1.4 2.8c-.4.7-1 1.3-1.7 1.7.5.3 1 .6 1.4.8z"/><path d="m81 50.3c-1.1.1-2.2 4.7.3 4 2.5-.6 1.5-4.1-.3-4z"/><path d="m130.3 54.2c-1.1.1-2.2 4.7.3 4s1.5-4.2-.3-4z"/><path d="m72.2 34.7c-1.1.1-2.2 4.7.3 4 2.5-.6 1.6-4.1-.3-4z"/><path d="m98.4 49.4c-2.4.5-.9 4.2.9 3.6s1.9-4.2-.9-3.6z"/><path d="m122.2 60.5c-2.4.5-.9 4.2.9 3.6 1.8-.5 1.8-4.2-.9-3.6z"/><path d="m107.5 32.2c-2.4.5-.9 4.2.9 3.6 1.8-.5 1.8-4.2-.9-3.6z"/><path d="m94.7 40.5c-2.4.5-.9 4.2.9 3.6 1.8-.5 1.8-4.2-.9-3.6z"/><path d="m110.4 40.9c-2.4.5-.9 4.2.9 3.6s1.9-4.2-.9-3.6z"/><path d="m89.5 58.4c-2.4.5-.9 4.2.9 3.6s1.9-4.2-.9-3.6z"/><path d="m113.4 59.3c-2.4.5-.9 4.2.9 3.6 1.8-.5 1.9-4.2-.9-3.6z"/><path d="m31.7 64.7c-2.4.5-.9 4.2.9 3.6 1.8-.5 1.9-4.2-.9-3.6z"/><path d="m64.2 48.8c-2.4.5-.9 4.2.9 3.6 1.8-.5 1.8-4.2-.9-3.6z"/><path d="m57.3 37.5c-2.4.5-.9 4.2.9 3.6 1.9-.5 1.9-4.2-.9-3.6z"/><path d="m37.4 37.1c-2.4.5-.9 4.2.9 3.6 1.8-.5 1.8-4.2-.9-3.6z"/><path d="m39.3 46.5c-2.4.5-.9 4.2.9 3.6 1.8-.5 1.9-4.2-.9-3.6z"/><path d="m84.7 37.8c-.9 1.3 2.9 3.1 3.6 1 .8-2-2.5-2.6-3.6-1z"/><path d="m111.3 24c-.9 1.3 2.9 3.1 3.6 1s-2.5-2.6-3.6-1z"/><path d="m81.3 30.4c-.9 1.3 2.9 3.1 3.6 1s-2.5-2.6-3.6-1z"/><path d="m35 32.1c-.9 1.3 2.9 3.1 3.6 1s-2.4-2.6-3.6-1z"/><path d="m62.9 41.3c-.9 1.3 2.9 3.1 3.6 1 .7-2-2.5-2.6-3.6-1z"/><path d="m129.5 64c-.9 1.3 2.9 3.1 3.6 1 .8-2-2.5-2.5-3.6-1z"/><path d="m61.9 56.8c-1.1.1-2.2 4.7.3 4s1.5-4.2-.3-4z"/><path d="m56.5 44.7c-1.1.1-2.2 4.7.3 4s1.6-4.2-.3-4z"/><path d="m28.8 28.7c-1.1.1-2.2 4.7.3 4s1.6-4.2-.3-4z"/><path d="m44.2 70.6c-1.1.1-2.2 4.7.3 4 2.5-.6 1.6-4.1-.3-4z"/><path d="m24.9 72.4c-1.1.1-2.2 4.7.3 4s1.6-4.1-.3-4z"/><path d="m62.8 80.1c-1.1.1-2.2 4.7.3 4 2.5-.6 1.5-4.1-.3-4z"/><path d="m47.2 90.6c-1.1.1-2.2 4.7.3 4 2.5-.6 1.6-4.1-.3-4z"/><path d="m72.2 70.4c-1.1.1-2.2 4.7.3 4 2.5-.6 1.5-4.1-.3-4z"/><path d="m69.6 45c-.9 1.3 2.9 3.1 3.6 1 .8-2.1-2.5-2.6-3.6-1z"/><path d="m18.1 12c-.9 1.3 2.9 3.1 3.6 1 .8-2-2.5-2.5-3.6-1z"/><path d="m52.3 77.9c-2.4.5-.9 4.2.9 3.6 1.9-.5 1.9-4.2-.9-3.6z"/><path d="m54.1 67.4c-.9 1.3 2.9 3.1 3.6 1s-2.4-2.5-3.6-1z"/><path d="m66.4 64.6c-.9 1.3 2.9 3.1 3.6 1 .8-2.1-2.5-2.6-3.6-1z"/><path d="m54.5 112.5c-.9 1.3 2.9 3.1 3.6 1 .8-2-2.4-2.5-3.6-1z"/><path d="m116.4 79.4c-.9 1.3 2.9 3.1 3.6 1 .8-2-2.4-2.5-3.6-1z"/><path d="m117.3 39.3c-.9 1.3 2.9 3.1 3.6 1 .8-2-2.4-2.5-3.6-1z"/><path d="m124 50.5c-.9 1.3 2.9 3.1 3.6 1 .8-2.1-2.5-2.6-3.6-1z"/><path d="m42.8 35.9c-.9 1.3 2.9 3.1 3.6 1 .8-2-2.5-2.5-3.6-1z"/><path d="m59.7 75c-.9 1.3 2.9 3.1 3.6 1 .8-2.1-2.5-2.6-3.6-1z"/><path d="m58.8 94.7c-.9 1.3 2.9 3.1 3.6 1 .8-2-2.5-2.6-3.6-1z"/><path d="m39.5 81.6c-.9 1.3 2.9 3.1 3.6 1 .8-2-2.5-2.5-3.6-1z"/><path d="m54.2 87.3c-.9 1.3 2.9 3.1 3.6 1s-2.5-2.6-3.6-1z"/><path d="m112.1 69.2c-.9 1.3 2.9 3.1 3.6 1s-2.5-2.6-3.6-1z"/><path d="m119 47.3c.8-1.4-3.2-2.8-3.7-.6s2.8 2.3 3.7.6z"/><path d="m76.7 37.7c-.3-1.1 4.4-3.3 4.8-1.5.3 1.8-3.9 4.8-4.8 1.5z"/><path d="m94.7 33.1c-.3-1.1 4.4-3.3 4.8-1.5.3 1.8-4 4.8-4.8 1.5z"/><path d="m82 44.3c-.6-1.3 3.7-2.3 3.9-.6s-2.9 2.7-3.9.6z"/><path d="m26.4 15.1c-.6-1.3 3.7-2.3 3.9-.6.1 1.7-2.9 2.7-3.9.6z"/><path d="m121.5 32.6c-.6-1.3 3.7-2.3 3.9-.6s-2.9 2.7-3.9.6z"/><path d="m76.5 42.7c-.6-1.3 3.7-2.3 3.9-.6s-2.9 2.7-3.9.6z"/><path d="m93.4 27c-.9 1.3 2.9 3.1 3.6 1 .8-2.1-2.4-2.6-3.6-1z"/><path d="m86.8 32.7c-.6-1.3 3.7-2.3 3.9-.6s-2.9 2.7-3.9.6z"/><path d="m28.5 38.9c-.6-1.3 3.7-2.3 3.9-.6.1 1.7-2.9 2.7-3.9.6z"/><path d="m100.3 41.9c-1.9-1.6 2.3-3.7 3.1-2.4s-1.6 3.6-3.1 2.4z"/><path d="m113.7 35.4c-1.9-1.6 2.3-3.7 3.1-2.4.7 1.3-1.7 3.6-3.1 2.4z"/><path d="m103.7 30.5c-1.9-1.6 2.3-3.7 3.1-2.4s-1.6 3.6-3.1 2.4z"/><path d="m88.1 28.5c-1.9-1.6 2.3-3.7 3.1-2.4.8 1.4-1.6 3.6-3.1 2.4z"/><path d="m100 24.7c-1.9-1.6 2.3-3.7 3.1-2.4s-1.6 3.6-3.1 2.4z"/><path d="m32.3 25.6c-1.9-1.6 2.3-3.7 3.1-2.4s-1.7 3.6-3.1 2.4z"/><path d="m88.7 49c.4-1.7 5.2-.5 3.4 2.1-2 2.6-3.7-.8-3.4-2.1z"/><path d="m117.2 53.5c.4-1.7 5.2-.5 3.4 2.1-1.9 2.5-3.7-.8-3.4-2.1z"/><path d="m107.8 50.1c.4-1.7 5.2-.5 3.4 2.1-1.9 2.5-3.7-.8-3.4-2.1z"/><path d="m124.4 41.3c.4-1.7 5.2-.5 3.4 2.1-1.9 2.6-3.7-.8-3.4-2.1z"/><path d="m78.4 61.6c.4-1.7 5.2-.5 3.4 2.1-1.9 2.6-3.7-.8-3.4-2.1z"/><path d="m53.5 100.7c.4-1.7 5.2-.5 3.4 2.1-1.9 2.5-3.7-.8-3.4-2.1z"/><path d="m32.5 77.1c.4-1.7 5.2-.5 3.4 2.1-1.9 2.5-3.6-.8-3.4-2.1z"/><path d="m69.7 53.8c.4-1.7 5.2-.5 3.4 2.1-2 2.6-3.7-.8-3.4-2.1z"/><path d="m49.2 62.3c-1.1.1-2.2 4.7.3 4s1.6-4.1-.3-4z"/><path d="m24.1 59.8c-1.1.1-2.2 4.7.3 4s1.6-4.2-.3-4z"/><path d="m40.5 56.9c-.9 1.3 2.9 3.1 3.6 1 .8-2-2.5-2.5-3.6-1z"/><path d="m44.8 45.5c-.3-1.1 4.4-3.3 4.8-1.5.3 1.8-3.9 4.8-4.8 1.5z"/><path d="m19.4 39.6c-.3-1.1 4.4-3.3 4.8-1.5.3 1.8-3.9 4.7-4.8 1.5z"/><path d="m29.6 58c-.8-.7 1.7-5.2 3.1-3.9 1.3 1.2-.5 6.1-3.1 3.9z"/><path d="m49 38.4c-.3-1 3.9-2.9 4.3-1.3.3 1.6-3.5 4.3-4.3 1.3z"/><path d="m10.2 14.7c-.3-1 3.9-2.9 4.3-1.3s-3.5 4.2-4.3 1.3z"/><path d="m50.3 56.3c-.6-1.3 3.7-2.3 3.9-.6.1 1.7-2.9 2.7-3.9.6z"/><path d="m23 49.2c.3-1.4 4.3.4 3.4 1.9s-3.9.3-3.4-1.9z"/><path d="m37.9 65.8c.4-1.7 5.2-.5 3.4 2.1s-3.7-.8-3.4-2.1z"/><path d="m38.7 87.1c.4-1.7 5.2-.5 3.4 2.1-1.9 2.5-3.7-.8-3.4-2.1z"/></g><path d="m45.5 135c.2-6.1 1.3-35.3 1.3-35.3l-10.7-13s2 6.3 4 15.2 2.4 35.6 1.4 38.8c-.9 2.8-4 7.4-11.1 5.5 0 .4.1.8.2 1.2 1.3 4.4 8.7 2.5 12.2.8 4.7-2.3 2.5-7.1 2.7-13.2z" opacity=".15"/></svg>