<svg xmlns:xlink="http://www.w3.org/1999/xlink"  enable-background="new 0 0 100 60" height="60" viewBox="0 0 100 60" width="100" xmlns="http://www.w3.org/2000/svg"><path d="m60 8-60 30v2l40 20 60-30v-2z" fill="#39c"/><path d="m40 58-40-20v2l40 20z" opacity=".11"/><path d="m40 58v2l60-30v-2z" opacity=".29"/><path d="m4 38 36 18 56-28-36-18z" opacity=".2"/><path d="m4 38 36 18 56-29-36-17z" fill="#e5e5e5"/><path d="m4 37 36 18 53-28-35-17z" opacity=".2"/><path d="m4 37 36 18 53-29-35-16z" fill="#e5e5e5"/><path d="m89 22-2.5-2.5c-.3-.3-.5-.8-.5-1.2v-.2c0-.7-.4-1.3-1-1.6l-3.8-1.9c-.8-.4-1.7-.6-2.6-.6h-2.5c-.1 0-.2 0-.3 0l-5-.8c-.5-.1-1.1 0-1.6.2l-2.1 1.1c-.2.1-.3.3-.3.4v.7c0 .2.1.4.3.5l17.9 8.9c.7.3 1.4.3 2.1 0l1.7-.9c.3-.2.5-.5.5-.8 0-.1 0-.5 0-.6 0-.3-.1-.5-.3-.7zm-6-3.5-.5.2c-.3.2-.7.2-1.1 0l-2.4-1.2c-.1-.1-.2-.1-.2-.3.1-.1.1-.2.2-.3l.5-.2c.3-.2.7-.2 1.1 0l2.4 1.3c.1.1.2.1.2.3 0 .1-.1.1-.2.2z" fill="#999"/><path d="m89.3 22.7c0 .4-.2.7-.5.9l-1.8.9c-.7.3-1.4.3-2.1 0l-17.8-8.9c-.2-.1-.3-.3-.3-.5v.5c0 .2.1.4.3.5l17.9 8.9c.7.3 1.4.3 2.1 0l1.7-.9c.3-.2.5-.5.5-.8 0-.1 0-.5 0-.6z" opacity=".2"/><path d="m83 17.5-2.5-1.2c-.3-.2-.7-.2-1.1 0l-.4.2c-.3.2-.4.6-.2.8 0 0 0 0 0-.1.1-.1.1-.2.2-.3l.5-.2c.3-.2.7-.2 1.1 0l2.4 1.3c.1.1.2.1.2.3v.1c.2-.3.1-.7-.2-.9z" opacity=".2"/></svg>