<svg xmlns:xlink="http://www.w3.org/1999/xlink"  enable-background="new 0 0 60 60" height="60" viewBox="0 0 60 60" width="60" xmlns="http://www.w3.org/2000/svg"><path d="m30.8 6.7c-6.2-3.1-12.8-3.1-16.9-1.3l1-.4-2.6 1.2c-4.5 2.1-7.3 6.6-7.3 13.3 0 12.8 10.4 28.4 23.2 34.8 6.3 3.2 12.1 3.5 16.3 1.5 0 0 2.6-1.2 3.5-1.7 3.7-2.2 6-6.6 6-12.6 0-12.9-10.4-28.4-23.2-34.8z" fill="#cc291f"/><path d="m47.2 40.6c0 10.5-8.5 14.7-19 9.5s-19-18-19-28.5 8.5-14.7 19-9.5 19 18 19 28.5z" fill="#fff"/><path d="m29.5 49.6c-10.5-5.2-19-18-19-28.5 0-5.4 2.3-9.1 5.9-10.8-4.4 1.3-7.2 5.2-7.2 11.3 0 10.5 8.5 23.3 19 28.5 5.1 2.5 9.7 2.8 13.1 1.3-3.2.9-7.3.4-11.8-1.8z" opacity=".2"/><path d="m51.4 42.7c0 12.8-10.4 18-23.2 11.6s-23.2-22-23.2-34.8 10.4-18 23.2-11.6 23.2 22 23.2 34.8z" opacity=".29"/><path d="m26 14v18l18 9v-2l-16-8v-16z" fill="#2d3134"/></svg>