<svg xmlns:xlink="http://www.w3.org/1999/xlink"  enable-background="new 0 0 80 48" height="48" viewBox="0 0 80 48" width="80" xmlns="http://www.w3.org/2000/svg"><g fill="#999"><path d="m69.9 14.2c-2.7-4.9-7.9-8.2-13.9-8.2-2.2 0-4.2.4-6.1 1.2-2.2-3.1-5.8-5.2-9.9-5.2-3.7 0-6.9 1.6-9.1 4.2-1-.1-1.9-.2-2.9-.2-8.3 0-15.4 5.1-18.4 12.2-5.5 1.2-9.6 6-9.6 11.8 0 6.6 5.4 12 12 12 1.2 0 2.3-.2 3.4-.5 3.4 2.8 7.8 4.5 12.6 4.5 4.3 0 8.2-1.3 11.4-3.6 2.2 2.2 5.2 3.6 8.6 3.6 5.4 0 9.9-3.5 11.4-8.4 1-.2 2.1-.6 3-1 1.7.9 3.6 1.4 5.6 1.4 6.6 0 12-5.4 12-12 0-6-4.4-10.9-10.1-11.8z" opacity=".5"/><path d="m61 17.4c-1.6-5.4-6.6-9.3-12.5-9.3-4.4 0-8.3 2.2-10.7 5.5-1.6-3.9-5.4-6.6-9.9-6.6-5.7 0-10.3 4.3-10.8 9.9-.4 0-.8-.1-1.1-.1-6.1 0-11 4.9-11 10.9s4.9 10.9 10.9 10.9c1.7 0 3.3-.4 4.7-1.1 2.6 3.9 7.1 6.5 12.2 6.5 5.7 0 10.6-3.2 13-7.9 2.2 4.1 6.5 6.8 11.5 6.8 7.2 0 13.1-5.8 13.1-13.1-.1-5.8-4-10.8-9.4-12.4z" opacity=".3"/><path d="m35.4 19.7c.1-.4.1-.7.1-1.1 0-4.1-3.3-7.5-7.5-7.5-2.3 0-4.4 1.1-5.8 2.8-1.1-.5-2.4-.9-3.7-.9-4.7 0-8.5 3.8-8.5 8.5s3.8 8.5 8.5 8.5c1.7 0 3.2-.5 4.5-1.3.3 4.7 4.2 8.3 9 8.3 5 0 9-4 9-9 0-3.8-2.3-7-5.6-8.3z" opacity=".3"/></g></svg>