<svg xmlns:xlink="http://www.w3.org/1999/xlink"  enable-background="new 0 0 120 160" height="160" viewBox="0 0 120 160" width="120" xmlns="http://www.w3.org/2000/svg"><path d="m20 147v1l20 11 60-30-20-12z" fill="#656565"/><path d="m20 147v3l20 10 60-30v-1l-60 30z" fill="#2d3134"/><path d="m40 160-20-10v-3l20 12z" opacity=".11"/><path d="m40 160 60-30v-1l-60 30z" opacity=".29"/><path d="m29 147.5v1l2 1 2-1v-1l-2 1z" opacity=".2"/><path d="m31 148.5 2-1-2-1-2 1z" fill="#fff" opacity=".1"/><path d="m26 149v1l2 1 2-1v-1l-2 1z" opacity=".2"/><path d="m28 150 2-1-2-1-2 1z" fill="#fff" opacity=".1"/><path d="m35 144.5v1l2 1 2-1v-1l-2 1z" opacity=".2"/><path d="m37 145.5 2-1-2-1-2 1z" fill="#fff" opacity=".1"/><path d="m32 146v1l2 1 2-1v-1l-2 1z" opacity=".2"/><path d="m34 147 2-1-2-1-2 1z" fill="#fff" opacity=".1"/><path d="m41 141.5v1l2 1 2-1v-1l-2 1z" opacity=".2"/><path d="m43 142.5 2-1-2-1-2 1z" fill="#fff" opacity=".1"/><path d="m38 143v1l2 1 2-1v-1l-2 1z" opacity=".2"/><path d="m40 144 2-1-2-1-2 1z" fill="#fff" opacity=".1"/><path d="m47 138.5v1l2 1 2-1v-1l-2 1z" opacity=".2"/><path d="m49 139.5 2-1-2-1-2 1z" fill="#fff" opacity=".1"/><path d="m44 140v1l2 1 2-1v-1l-2 1z" opacity=".2"/><path d="m46 141 2-1-2-1-2 1z" fill="#fff" opacity=".1"/><path d="m53 135.5v1l2 1 2-1v-1l-2 1z" opacity=".2"/><path d="m55 136.5 2-1-2-1-2 1z" fill="#fff" opacity=".1"/><path d="m50 137v1l2 1 2-1v-1l-2 1z" opacity=".2"/><path d="m52 138 2-1-2-1-2 1z" fill="#fff" opacity=".1"/><path d="m59 132.5v1l2 1 4-2v-1l-4 2z" opacity=".2"/><path d="m61 133.5 4-2-2-1-4 2z" fill="#fff" opacity=".1"/><path d="m56 134v1l2 1 2-1v-1l-2 1z" opacity=".2"/><path d="m58 135 2-1-2-1-2 1z" fill="#fff" opacity=".1"/><path d="m33 148.5v1l2 1 2-1v-1l-2 1z" opacity=".2"/><path d="m35 149.5 2-1-2-1-2 1z" fill="#fff" opacity=".1"/><path d="m29 150.5v1l2 1 3-1.5v-1l-3 1.5z" opacity=".2"/><path d="m31 151.5 3-1.5-2-1-3 1.5z" fill="#fff" opacity=".1"/><path d="m39 145.5v1l2 1 2-1v-1l-2 1z" opacity=".2"/><path d="m41 146.5 2-1-2-1-2 1z" fill="#fff" opacity=".1"/><path d="m36 147v1l2 1 2-1v-1l-2 1z" opacity=".2"/><path d="m38 148 2-1-2-1-2 1z" fill="#fff" opacity=".1"/><path d="m45 142.5v1l2 1 2-1v-1l-2 1z" opacity=".2"/><path d="m47 143.5 2-1-2-1-2 1z" fill="#fff" opacity=".1"/><path d="m42 144v1l2 1 2-1v-1l-2 1z" opacity=".2"/><path d="m44 145 2-1-2-1-2 1z" fill="#fff" opacity=".1"/><path d="m51 139.5v1l2 1 2-1v-1l-2 1z" opacity=".2"/><path d="m53 140.5 2-1-2-1-2 1z" fill="#fff" opacity=".1"/><path d="m48 141v1l2 1 2-1v-1l-2 1z" opacity=".2"/><path d="m50 142 2-1-2-1-2 1z" fill="#fff" opacity=".1"/><path d="m57 136.5v1l2 1 2-1v-1l-2 1z" opacity=".2"/><path d="m59 137.5 2-1-2-1-2 1z" fill="#fff" opacity=".1"/><path d="m54 138v1l2 1 2-1v-1l-2 1z" opacity=".2"/><path d="m56 139 2-1-2-1-2 1z" fill="#fff" opacity=".1"/><path d="m60 135v1l2 1 2-1v-1l-2 1z" opacity=".2"/><path d="m62 136 2-1-2-1-2 1z" fill="#fff" opacity=".1"/><path d="m37 149.5v1l2 1 2-1v-1l-2 1z" opacity=".2"/><path d="m39 150.5 2-1-2-1-2 1z" fill="#fff" opacity=".1"/><path d="m32 152v1l2 1 4-2v-1l-4 2z" opacity=".2"/><path d="m34 153 4-2-2-1-4 2z" fill="#fff" opacity=".1"/><path d="m43 146.5v1l2 1 2-1v-1l-2 1z" opacity=".2"/><path d="m45 147.5 2-1-2-1-2 1z" fill="#fff" opacity=".1"/><path d="m40 148v1l2 1 2-1v-1l-2 1z" opacity=".2"/><path d="m42 149 2-1-2-1-2 1z" fill="#fff" opacity=".1"/><path d="m49 143.5v1l2 1 2-1v-1l-2 1z" opacity=".2"/><path d="m51 144.5 2-1-2-1-2 1z" fill="#fff" opacity=".1"/><path d="m46 145v1l2 1 2-1v-1l-2 1z" opacity=".2"/><path d="m48 146 2-1-2-1-2 1z" fill="#fff" opacity=".1"/><path d="m55 140.5v1l2 1 2-1v-1l-2 1z" opacity=".2"/><path d="m57 141.5 2-1-2-1-2 1z" fill="#fff" opacity=".1"/><path d="m42 153v1l2 1 2-1v-1l-2 1z" opacity=".2"/><path d="m44 154 2-1-2-1-2 1z" fill="#fff" opacity=".1"/><path d="m38 155v1l2 1 3-1.5v-1l-3 1.5z" opacity=".2"/><path d="m40 156 3-1.5-2-1-3 1.5z" fill="#fff" opacity=".1"/><path d="m45 151.5v1l2 1 2-1v-1l-2 1z" opacity=".2"/><path d="m47 152.5 2-1-2-1-2 1z" fill="#fff" opacity=".1"/><path d="m64 142v1l2 1 2-1v-1l-2 1z" opacity=".2"/><path d="m66 143 2-1-2-1-2 1z" fill="#fff" opacity=".1"/><path d="m48 150v1l2 1 15-7.5v-1l-15 7.5z" opacity=".2"/><path d="m50 151 15-7.5-2-1-15 7.5z" fill="#fff" opacity=".1"/><path d="m67 140.5v1l2 1 2-1v-1l-2 1z" opacity=".2"/><path d="m69 141.5 2-1-2-1-2 1z" fill="#fff" opacity=".1"/><path d="m70 139v1l2 1 2-1v-1l-2 1z" opacity=".2"/><path d="m72 140 2-1-2-1-2 1z" fill="#fff" opacity=".1"/><path d="m52 142v1l2 1 2-1v-1l-2 1z" opacity=".2"/><path d="m54 143 2-1-2-1-2 1z" fill="#fff" opacity=".1"/><path d="m61 137.5v1l2 1 2-1v-1l-2 1z" opacity=".2"/><path d="m63 138.5 2-1-2-1-2 1z" fill="#fff" opacity=".1"/><path d="m58 139v1l2 1 2-1v-1l-2 1z" opacity=".2"/><path d="m60 140 2-1-2-1-2 1z" fill="#fff" opacity=".1"/><path d="m69 135.5-3-1.5-1 .5-2-1v1l2 1 1-.5 3 1.5 2-1v-1z" opacity=".2"/><path d="m68 133-2-1-3 1.5 2 1 1-.5 3 1.5 2-1z" fill="#fff" opacity=".1"/><path d="m64 136v1l2 1 2-1v-1l-2 1z" opacity=".2"/><path d="m66 137 2-1-2-1-2 1z" fill="#fff" opacity=".1"/><path d="m38 152v1l2 1 2-1v-1l-2 1z" opacity=".2"/><path d="m40 153 2-1-2-1-2 1z" fill="#fff" opacity=".1"/><path d="m35 153.5v1l2 1 2-1v-1l-2 1z" opacity=".2"/><path d="m37 154.5 2-1-2-1-2 1z" fill="#fff" opacity=".1"/><path d="m44 149v1l2 1 2-1v-1l-2 1z" opacity=".2"/><path d="m46 150 2-1-2-1-2 1z" fill="#fff" opacity=".1"/><path d="m41 150.5v1l2 1 2-1v-1l-2 1z" opacity=".2"/><path d="m43 151.5 2-1-2-1-2 1z" fill="#fff" opacity=".1"/><path d="m50 146v1l2 1 2-1v-1l-2 1z" opacity=".2"/><path d="m52 147 2-1-2-1-2 1z" fill="#fff" opacity=".1"/><path d="m47 147.5v1l2 1 2-1v-1l-2 1z" opacity=".2"/><path d="m49 148.5 2-1-2-1-2 1z" fill="#fff" opacity=".1"/><path d="m56 143v1l2 1 2-1v-1l-2 1z" opacity=".2"/><path d="m58 144 2-1-2-1-2 1z" fill="#fff" opacity=".1"/><path d="m53 144.5v1l2 1 2-1v-1l-2 1z" opacity=".2"/><path d="m55 145.5 2-1-2-1-2 1z" fill="#fff" opacity=".1"/><path d="m62 140v1l2 1 2-1v-1l-2 1z" opacity=".2"/><path d="m64 141 2-1-2-1-2 1z" fill="#fff" opacity=".1"/><path d="m59 141.5v1l2 1 2-1v-1l-2 1z" opacity=".2"/><path d="m61 142.5 2-1-2-1-2 1z" fill="#fff" opacity=".1"/><path d="m65 138.5v1l2 1 7-3.5v-1l-7 3.5z" opacity=".2"/><path d="m67 139.5 7-3.5-2-1-7 3.5z" fill="#fff" opacity=".1"/><path d="m68 128v1l2 1 2-1v-1l-2 1z" opacity=".2"/><path d="m70 129 2-1-2-1-2 1z" fill="#fff" opacity=".1"/><path d="m65 129.5v1l2 1 2-1v-1l-2 1z" opacity=".2"/><path d="m67 130.5 2-1-2-1-2 1z" fill="#fff" opacity=".1"/><path d="m62 128v1l1 .5 2-1v-1l-2 1z" opacity=".2"/><path d="m63 128.5 2-1-1-.5-2 1z" fill="#fff" opacity=".1"/><path d="m65 126.5v1l1 .5 2-1v-1l-2 1z" opacity=".2"/><path d="m66 127 2-1-1-.5-2 1z" fill="#fff" opacity=".1"/><path d="m68 125v1l1 .5 2-1v-1l-2 1z" opacity=".2"/><path d="m69 125.5 2-1-1-.5-2 1z" fill="#fff" opacity=".1"/><path d="m52 133v1l1 .5 2-1v-1l-2 1z" opacity=".2"/><path d="m53 133.5 2-1-1-.5-2 1z" fill="#fff" opacity=".1"/><path d="m49 134.5v1l1 .5 2-1v-1l-2 1z" opacity=".2"/><path d="m50 135 2-1-1-.5-2 1z" fill="#fff" opacity=".1"/><path d="m55 131.5v1l1 .5 2-1v-1l-2 1z" opacity=".2"/><path d="m56 132 2-1-1-.5-2 1z" fill="#fff" opacity=".1"/><path d="m58 130v1l1 .5 2-1v-1l-2 1z" opacity=".2"/><path d="m59 130.5 2-1-1-.5-2 1z" fill="#fff" opacity=".1"/><path d="m39 139.5v1l1 .5 2-1v-1l-2 1z" opacity=".2"/><path d="m40 140 2-1-1-.5-2 1z" fill="#fff" opacity=".1"/><path d="m36 141v1l1 .5 2-1v-1l-2 1z" opacity=".2"/><path d="m37 141.5 2-1-1-.5-2 1z" fill="#fff" opacity=".1"/><path d="m42 138v1l1 .5 2-1v-1l-2 1z" opacity=".2"/><path d="m43 138.5 2-1-1-.5-2 1z" fill="#fff" opacity=".1"/><path d="m45 136.5v1l1 .5 2-1v-1l-2 1z" opacity=".2"/><path d="m46 137 2-1-1-.5-2 1z" fill="#fff" opacity=".1"/><path d="m26 146v1l1 .5 2-1v-1l-2 1z" opacity=".2"/><path d="m27 146.5 2-1-1-.5-2 1z" fill="#fff" opacity=".1"/><path d="m23 147.5v1l1 .5 2-1v-1l-2 1z" opacity=".2"/><path d="m24 148 2-1-1-.5-2 1z" fill="#fff" opacity=".1"/><path d="m29 144.5v1l1 .5 2-1v-1l-2 1z" opacity=".2"/><path d="m30 145 2-1-1-.5-2 1z" fill="#fff" opacity=".1"/><path d="m32 143v1l1 .5 2-1v-1l-2 1z" opacity=".2"/><path d="m33 143.5 2-1-1-.5-2 1z" fill="#fff" opacity=".1"/><path d="m71 129.5v1l2 1 2-1v-1l-2 1z" opacity=".2"/><path d="m73 130.5 2-1-2-1-2 1z" fill="#fff" opacity=".1"/><path d="m68 131v1l2 1 2-1v-1l-2 1z" opacity=".2"/><path d="m70 132 2-1-2-1-2 1z" fill="#fff" opacity=".1"/><path d="m74 131v1l2 1 2-1v-1l-2 1z" opacity=".2"/><path d="m76 132 2-1-2-1-2 1z" fill="#fff" opacity=".1"/><path d="m71 132.5v1l2 1 2-1v-1l-2 1z" opacity=".2"/><path d="m73 133.5 2-1-2-1-2 1z" fill="#fff" opacity=".1"/><path d="m81 134.5v1l2 1 2-1v-1l-2 1z" opacity=".2"/><path d="m83 135.5 2-1-2-1-2 1z" fill="#fff" opacity=".1"/><path d="m78 136v1l2 1 2-1v-1l-2 1z" opacity=".2"/><path d="m80 137 2-1-2-1-2 1z" fill="#fff" opacity=".1"/><path d="m75 137.5v1l2 1 2-1v-1l-2 1z" opacity=".2"/><path d="m77 138.5 2-1-2-1-2 1z" fill="#fff" opacity=".1"/><path d="m75 134.5v1l2 1 2-1v-1l-2 1z" opacity=".2"/><path d="m77 135.5 2-1-2-1-2 1z" fill="#fff" opacity=".1"/><path d="m75 124.5v1l2 1 2-1v-1l-2 1z" opacity=".2"/><path d="m77 125.5 2-1-2-1-2 1z" fill="#fff" opacity=".1"/><path d="m72 126v1l2 1 2-1v-1l-2 1z" opacity=".2"/><path d="m74 127 2-1-2-1-2 1z" fill="#fff" opacity=".1"/><path d="m81 121.5v1l2 1 2-1v-1l-2 1z" opacity=".2"/><path d="m83 122.5 2-1-2-1-2 1z" fill="#fff" opacity=".1"/><path d="m78 123v1l2 1 2-1v-1l-2 1z" opacity=".2"/><path d="m80 124 2-1-2-1-2 1z" fill="#fff" opacity=".1"/><path d="m78 126v1l2 1 2-1v-1l-2 1z" opacity=".2"/><path d="m80 127 2-1-2-1-2 1z" fill="#fff" opacity=".1"/><path d="m75 127.5v1l2 1 2-1v-1l-2 1z" opacity=".2"/><path d="m77 128.5 2-1-2-1-2 1z" fill="#fff" opacity=".1"/><path d="m81 124.5v1l2 1 2-1v-1l-2 1z" opacity=".2"/><path d="m83 125.5 2-1-2-1-2 1z" fill="#fff" opacity=".1"/><path d="m81 127.5v1l2 1 2-1v-1l-2 1z" opacity=".2"/><path d="m83 128.5 2-1-2-1-2 1z" fill="#fff" opacity=".1"/><path d="m78 129v1l2 1 2-1v-1l-2 1z" opacity=".2"/><path d="m80 130 2-1-2-1-2 1z" fill="#fff" opacity=".1"/><path d="m84 126v1l2 1 2-1v-1l-2 1z" opacity=".2"/><path d="m86 127 2-1-2-1-2 1z" fill="#fff" opacity=".1"/><path d="m84 129v1l2 1 2-1v-1l-2 1z" opacity=".2"/><path d="m86 130 2-1-2-1-2 1z" fill="#fff" opacity=".1"/><path d="m81 130.5v1l2 1 2-1v-1l-2 1z" opacity=".2"/><path d="m83 131.5 2-1-2-1-2 1z" fill="#fff" opacity=".1"/><path d="m87 127.5v1l2 1 2-1v-1l-2 1z" opacity=".2"/><path d="m89 128.5 2-1-2-1-2 1z" fill="#fff" opacity=".1"/><path d="m84 132v1l2 1 5-2.5v-1l-5 2.5z" opacity=".2"/><path d="m86 133 5-2.5-2-1-5 2.5z" fill="#fff" opacity=".1"/><path d="m90 126v1l5 2.5 2-1v-1l-2 1z" opacity=".2"/><path d="m95 128.5 2-1-5-2.5-2 1z" fill="#fff" opacity=".1"/><path d="m84 123v1l5 2.5 2-1v-1l-2 1z" opacity=".2"/><path d="m89 125.5 2-1-5-2.5-2 1z" fill="#fff" opacity=".1"/><path d="m90 129v1l2 1 2-1v-1l-2 1z" opacity=".2"/><path d="m92 130 2-1-2-1-2 1z" fill="#fff" opacity=".1"/><path d="m73 124.5-1-.5 9-4.5 1 .5z" opacity=".2"/><path d="m73.5 123.8.5.2.5-.2-.5-.3z" fill="#9c3" opacity=".8"/><path d="m75.5 122.8.5.2.5-.2-.5-.3z" fill="#9c3" opacity=".6"/><path d="m120 35v55l-20 10-50-25v-55l20-10z" fill="#2d3134"/><path d="m100 100 20-10v-55l-20 10z" opacity=".29"/><path d="m100 100-50-25v-55l50 25z" opacity=".11"/><path d="m120 43v4l-20 10v-4z" opacity=".2"/><path d="m120 46v1l-20 10v-1z" opacity=".5"/><path d="m120 37v4l-20 10v-4z" opacity=".2"/><path d="m120 40v1l-20 10v-1z" opacity=".5"/><g fill="#9c3"><path d="m109 71 2-1v2l-2 1z" opacity=".8"/><path d="m109 75 2-1v2l-2 1z" opacity=".6"/><path d="m109 79 2-1v2l-2 1z" opacity=".4"/><path d="m109 83 2-1v2l-2 1z" opacity=".2"/></g><path d="m107 64.9c0 1.7 1.3 2.3 3 1.5s3-2.8 3-4.5-1.3-2.3-3-1.5-3 2.8-3 4.5z" opacity=".5"/><path d="m108.8 64c0 .7.5.9 1.2.6s1.2-1.1 1.2-1.8-.5-.9-1.2-.6-1.2 1.1-1.2 1.8z" fill="#39c" opacity=".7"/><path d="m24 116 12.5 6.3c4.7 2.3 10.2 2.3 14.9 0l4.3-2.1c1.3-.6 1.9-1.9 1.9-3.1 0-3.1-.3-4.2-1.9-5l-13.7-6.9-18 8.8z" fill="#2d3134"/><path d="m55.7 118.1-4.3 2.1c-4.7 2.3-10.2 2.3-14.9 0l-12.5-6.2v2l12.5 6.3c4.7 2.3 10.2 2.3 14.9 0l4.3-2.1c1.3-.6 1.9-1.9 1.9-3.1 0-.6 0-1 0-1.5-.1 1-.8 2-1.9 2.5z" opacity=".2"/><path d="m34 110v7l2 1 14-7v-7l-2-1z" fill="#2d3134"/><path d="m34 110v7l2 1v-7z" opacity=".11"/><path d="m50 104-14 7v7l14-7z" opacity=".29"/><path d="m0 62v68l2 1 78-39v-68l-2-1z" fill="#2d3134"/><path d="m4 64 74-37v60l-74 37z" fill="#36c"/><path d="m4 64 74-37v51z" fill="#fff" opacity=".15"/><path d="m80 24-78 39v68l78-39z" opacity=".29"/><path d="m0 62v68l2 1v-68z" opacity=".11"/><path d="m44 106.8c0 1.1-.9 2.4-2 3s-2 .1-2-1 .9-2.4 2-3 2-.1 2 1z" opacity=".2"/><path d="m104.3 114.2c-3.8 2-4.4 6.4-.5 9.1s11 5.2 14.4 2.7c4.9-3.6-4.1-17.1-13.9-11.8z" fill="#656565"/><path d="m105 115.1 4.7 2.4c.5.2 1.1.2 1.5 0 .3-.2.3-.7 0-.8l-4.7-2.4c-.5-.2-1.1-.2-1.5 0-.3.2-.3.6 0 .8z" opacity=".2"/><path d="m119.4 121.7c0 1.3-.4 2.4-1.4 3.1-2.3 1.7-4.8 1.3-8.3 0-1.7-.7-1.8-2.2-3.3-2.9-1.3-.6-3-.4-4.2-1.2-.4-.2-.7-.5-.9-.8.3 1.3 1.1 2.5 2.6 3.5 3.9 2.7 11 5.2 14.4 2.7 1.2-1 1.5-2.6 1.1-4.4z" fill="#2d3134"/><path d="m105.8 115.1 3.2 1.6.8-.4s-.4-1.1-1.2-1.5-2-.1-2-.1z" fill="#2d3134"/><path d="m107.8 115.2c-.7-.4-2-.1-2-.1l3.2 1.6s-.4-1.1-1.2-1.5z" opacity=".11"/></svg>