<svg xmlns:xlink="http://www.w3.org/1999/xlink"  enable-background="new 0 0 20 20" height="20" viewBox="0 0 20 20" width="20" xmlns="http://www.w3.org/2000/svg"><path d="m4.3 4.2c-3.8 2-4.4 6.4-.5 9.1s11 5.2 14.4 2.7c4.9-3.6-4.1-17.1-13.9-11.8z" fill="#656565"/><path d="m5 5.1 4.7 2.4c.5.2 1.1.2 1.5 0 .3-.2.3-.7 0-.8l-4.6-2.4c-.5-.2-1.1-.2-1.6 0-.3.2-.3.6 0 .8z" opacity=".2"/><path d="m19.4 11.7c0 1.3-.4 2.4-1.4 3.1-2.3 1.7-4.8 1.3-8.3 0-1.7-.8-1.8-2.3-3.3-3-1.3-.6-3-.4-4.2-1.2-.4-.2-.7-.5-.9-.8.3 1.3 1.1 2.5 2.6 3.5 3.9 2.7 11 5.2 14.4 2.7 1.2-.9 1.5-2.5 1.1-4.3z" fill="#2d3134"/><path d="m5.8 5.1 3.2 1.6.8-.4s-.4-1.1-1.2-1.5-2-.1-2-.1z" fill="#2d3134"/><path d="m7.8 5.2c-.7-.4-2-.1-2-.1l3.2 1.6s-.4-1.1-1.2-1.5z" opacity=".11"/></svg>