<svg xmlns:xlink="http://www.w3.org/1999/xlink"  enable-background="new 0 0 120 140" height="140" viewBox="0 0 120 140" width="120" xmlns="http://www.w3.org/2000/svg"><path d="m20 127v1l20 11 60-30-20-12z" fill="#656565"/><path d="m20 127v3l20 10 60-30v-1l-60 30z" fill="#2d3134"/><path d="m40 140-20-10v-3l20 12z" opacity=".11"/><path d="m40 140 60-30v-1l-60 30z" opacity=".29"/><path d="m29 127.5v1l2 1 2-1v-1l-2 1z" opacity=".2"/><path d="m31 128.5 2-1-2-1-2 1z" fill="#fff" opacity=".1"/><path d="m26 129v1l2 1 2-1v-1l-2 1z" opacity=".2"/><path d="m28 130 2-1-2-1-2 1z" fill="#fff" opacity=".1"/><path d="m35 124.5v1l2 1 2-1v-1l-2 1z" opacity=".2"/><path d="m37 125.5 2-1-2-1-2 1z" fill="#fff" opacity=".1"/><path d="m32 126v1l2 1 2-1v-1l-2 1z" opacity=".2"/><path d="m34 127 2-1-2-1-2 1z" fill="#fff" opacity=".1"/><path d="m41 121.5v1l2 1 2-1v-1l-2 1z" opacity=".2"/><path d="m43 122.5 2-1-2-1-2 1z" fill="#fff" opacity=".1"/><path d="m38 123v1l2 1 2-1v-1l-2 1z" opacity=".2"/><path d="m40 124 2-1-2-1-2 1z" fill="#fff" opacity=".1"/><path d="m47 118.5v1l2 1 2-1v-1l-2 1z" opacity=".2"/><path d="m49 119.5 2-1-2-1-2 1z" fill="#fff" opacity=".1"/><path d="m44 120v1l2 1 2-1v-1l-2 1z" opacity=".2"/><path d="m46 121 2-1-2-1-2 1z" fill="#fff" opacity=".1"/><path d="m53 115.5v1l2 1 2-1v-1l-2 1z" opacity=".2"/><path d="m55 116.5 2-1-2-1-2 1z" fill="#fff" opacity=".1"/><path d="m50 117v1l2 1 2-1v-1l-2 1z" opacity=".2"/><path d="m52 118 2-1-2-1-2 1z" fill="#fff" opacity=".1"/><path d="m59 112.5v1l2 1 4-2v-1l-4 2z" opacity=".2"/><path d="m61 113.5 4-2-2-1-4 2z" fill="#fff" opacity=".1"/><path d="m56 114v1l2 1 2-1v-1l-2 1z" opacity=".2"/><path d="m58 115 2-1-2-1-2 1z" fill="#fff" opacity=".1"/><path d="m33 128.5v1l2 1 2-1v-1l-2 1z" opacity=".2"/><path d="m35 129.5 2-1-2-1-2 1z" fill="#fff" opacity=".1"/><path d="m29 130.5v1l2 1 3-1.5v-1l-3 1.5z" opacity=".2"/><path d="m31 131.5 3-1.5-2-1-3 1.5z" fill="#fff" opacity=".1"/><path d="m39 125.5v1l2 1 2-1v-1l-2 1z" opacity=".2"/><path d="m41 126.5 2-1-2-1-2 1z" fill="#fff" opacity=".1"/><path d="m36 127v1l2 1 2-1v-1l-2 1z" opacity=".2"/><path d="m38 128 2-1-2-1-2 1z" fill="#fff" opacity=".1"/><path d="m45 122.5v1l2 1 2-1v-1l-2 1z" opacity=".2"/><path d="m47 123.5 2-1-2-1-2 1z" fill="#fff" opacity=".1"/><path d="m42 124v1l2 1 2-1v-1l-2 1z" opacity=".2"/><path d="m44 125 2-1-2-1-2 1z" fill="#fff" opacity=".1"/><path d="m51 119.5v1l2 1 2-1v-1l-2 1z" opacity=".2"/><path d="m53 120.5 2-1-2-1-2 1z" fill="#fff" opacity=".1"/><path d="m48 121v1l2 1 2-1v-1l-2 1z" opacity=".2"/><path d="m50 122 2-1-2-1-2 1z" fill="#fff" opacity=".1"/><path d="m57 116.5v1l2 1 2-1v-1l-2 1z" opacity=".2"/><path d="m59 117.5 2-1-2-1-2 1z" fill="#fff" opacity=".1"/><path d="m54 118v1l2 1 2-1v-1l-2 1z" opacity=".2"/><path d="m56 119 2-1-2-1-2 1z" fill="#fff" opacity=".1"/><path d="m60 115v1l2 1 2-1v-1l-2 1z" opacity=".2"/><path d="m62 116 2-1-2-1-2 1z" fill="#fff" opacity=".1"/><path d="m37 129.5v1l2 1 2-1v-1l-2 1z" opacity=".2"/><path d="m39 130.5 2-1-2-1-2 1z" fill="#fff" opacity=".1"/><path d="m32 132v1l2 1 4-2v-1l-4 2z" opacity=".2"/><path d="m34 133 4-2-2-1-4 2z" fill="#fff" opacity=".1"/><path d="m43 126.5v1l2 1 2-1v-1l-2 1z" opacity=".2"/><path d="m45 127.5 2-1-2-1-2 1z" fill="#fff" opacity=".1"/><path d="m40 128v1l2 1 2-1v-1l-2 1z" opacity=".2"/><path d="m42 129 2-1-2-1-2 1z" fill="#fff" opacity=".1"/><path d="m49 123.5v1l2 1 2-1v-1l-2 1z" opacity=".2"/><path d="m51 124.5 2-1-2-1-2 1z" fill="#fff" opacity=".1"/><path d="m46 125v1l2 1 2-1v-1l-2 1z" opacity=".2"/><path d="m48 126 2-1-2-1-2 1z" fill="#fff" opacity=".1"/><path d="m55 120.5v1l2 1 2-1v-1l-2 1z" opacity=".2"/><path d="m57 121.5 2-1-2-1-2 1z" fill="#fff" opacity=".1"/><path d="m42 133v1l2 1 2-1v-1l-2 1z" opacity=".2"/><path d="m44 134 2-1-2-1-2 1z" fill="#fff" opacity=".1"/><path d="m38 135v1l2 1 3-1.5v-1l-3 1.5z" opacity=".2"/><path d="m40 136 3-1.5-2-1-3 1.5z" fill="#fff" opacity=".1"/><path d="m45 131.5v1l2 1 2-1v-1l-2 1z" opacity=".2"/><path d="m47 132.5 2-1-2-1-2 1z" fill="#fff" opacity=".1"/><path d="m64 122v1l2 1 2-1v-1l-2 1z" opacity=".2"/><path d="m66 123 2-1-2-1-2 1z" fill="#fff" opacity=".1"/><path d="m48 130v1l2 1 15-7.5v-1l-15 7.5z" opacity=".2"/><path d="m50 131 15-7.5-2-1-15 7.5z" fill="#fff" opacity=".1"/><path d="m67 120.5v1l2 1 2-1v-1l-2 1z" opacity=".2"/><path d="m69 121.5 2-1-2-1-2 1z" fill="#fff" opacity=".1"/><path d="m70 119v1l2 1 2-1v-1l-2 1z" opacity=".2"/><path d="m72 120 2-1-2-1-2 1z" fill="#fff" opacity=".1"/><path d="m52 122v1l2 1 2-1v-1l-2 1z" opacity=".2"/><path d="m54 123 2-1-2-1-2 1z" fill="#fff" opacity=".1"/><path d="m61 117.5v1l2 1 2-1v-1l-2 1z" opacity=".2"/><path d="m63 118.5 2-1-2-1-2 1z" fill="#fff" opacity=".1"/><path d="m58 119v1l2 1 2-1v-1l-2 1z" opacity=".2"/><path d="m60 120 2-1-2-1-2 1z" fill="#fff" opacity=".1"/><path d="m69 115.5-3-1.5-1 .5-2-1v1l2 1 1-.5 3 1.5 2-1v-1z" opacity=".2"/><path d="m68 113-2-1-3 1.5 2 1 1-.5 3 1.5 2-1z" fill="#fff" opacity=".1"/><path d="m64 116v1l2 1 2-1v-1l-2 1z" opacity=".2"/><path d="m66 117 2-1-2-1-2 1z" fill="#fff" opacity=".1"/><path d="m38 132v1l2 1 2-1v-1l-2 1z" opacity=".2"/><path d="m40 133 2-1-2-1-2 1z" fill="#fff" opacity=".1"/><path d="m35 133.5v1l2 1 2-1v-1l-2 1z" opacity=".2"/><path d="m37 134.5 2-1-2-1-2 1z" fill="#fff" opacity=".1"/><path d="m44 129v1l2 1 2-1v-1l-2 1z" opacity=".2"/><path d="m46 130 2-1-2-1-2 1z" fill="#fff" opacity=".1"/><path d="m41 130.5v1l2 1 2-1v-1l-2 1z" opacity=".2"/><path d="m43 131.5 2-1-2-1-2 1z" fill="#fff" opacity=".1"/><path d="m50 126v1l2 1 2-1v-1l-2 1z" opacity=".2"/><path d="m52 127 2-1-2-1-2 1z" fill="#fff" opacity=".1"/><path d="m47 127.5v1l2 1 2-1v-1l-2 1z" opacity=".2"/><path d="m49 128.5 2-1-2-1-2 1z" fill="#fff" opacity=".1"/><path d="m56 123v1l2 1 2-1v-1l-2 1z" opacity=".2"/><path d="m58 124 2-1-2-1-2 1z" fill="#fff" opacity=".1"/><path d="m53 124.5v1l2 1 2-1v-1l-2 1z" opacity=".2"/><path d="m55 125.5 2-1-2-1-2 1z" fill="#fff" opacity=".1"/><path d="m62 120v1l2 1 2-1v-1l-2 1z" opacity=".2"/><path d="m64 121 2-1-2-1-2 1z" fill="#fff" opacity=".1"/><path d="m59 121.5v1l2 1 2-1v-1l-2 1z" opacity=".2"/><path d="m61 122.5 2-1-2-1-2 1z" fill="#fff" opacity=".1"/><path d="m65 118.5v1l2 1 7-3.5v-1l-7 3.5z" opacity=".2"/><path d="m67 119.5 7-3.5-2-1-7 3.5z" fill="#fff" opacity=".1"/><path d="m68 108v1l2 1 2-1v-1l-2 1z" opacity=".2"/><path d="m70 109 2-1-2-1-2 1z" fill="#fff" opacity=".1"/><path d="m65 109.5v1l2 1 2-1v-1l-2 1z" opacity=".2"/><path d="m67 110.5 2-1-2-1-2 1z" fill="#fff" opacity=".1"/><path d="m62 108v1l1 .5 2-1v-1l-2 1z" opacity=".2"/><path d="m63 108.5 2-1-1-.5-2 1z" fill="#fff" opacity=".1"/><path d="m65 106.5v1l1 .5 2-1v-1l-2 1z" opacity=".2"/><path d="m66 107 2-1-1-.5-2 1z" fill="#fff" opacity=".1"/><path d="m68 105v1l1 .5 2-1v-1l-2 1z" opacity=".2"/><path d="m69 105.5 2-1-1-.5-2 1z" fill="#fff" opacity=".1"/><path d="m52 113v1l1 .5 2-1v-1l-2 1z" opacity=".2"/><path d="m53 113.5 2-1-1-.5-2 1z" fill="#fff" opacity=".1"/><path d="m49 114.5v1l1 .5 2-1v-1l-2 1z" opacity=".2"/><path d="m50 115 2-1-1-.5-2 1z" fill="#fff" opacity=".1"/><path d="m55 111.5v1l1 .5 2-1v-1l-2 1z" opacity=".2"/><path d="m56 112 2-1-1-.5-2 1z" fill="#fff" opacity=".1"/><path d="m58 110v1l1 .5 2-1v-1l-2 1z" opacity=".2"/><path d="m59 110.5 2-1-1-.5-2 1z" fill="#fff" opacity=".1"/><path d="m39 119.5v1l1 .5 2-1v-1l-2 1z" opacity=".2"/><path d="m40 120 2-1-1-.5-2 1z" fill="#fff" opacity=".1"/><path d="m36 121v1l1 .5 2-1v-1l-2 1z" opacity=".2"/><path d="m37 121.5 2-1-1-.5-2 1z" fill="#fff" opacity=".1"/><path d="m42 118v1l1 .5 2-1v-1l-2 1z" opacity=".2"/><path d="m43 118.5 2-1-1-.5-2 1z" fill="#fff" opacity=".1"/><path d="m45 116.5v1l1 .5 2-1v-1l-2 1z" opacity=".2"/><path d="m46 117 2-1-1-.5-2 1z" fill="#fff" opacity=".1"/><path d="m26 126v1l1 .5 2-1v-1l-2 1z" opacity=".2"/><path d="m27 126.5 2-1-1-.5-2 1z" fill="#fff" opacity=".1"/><path d="m23 127.5v1l1 .5 2-1v-1l-2 1z" opacity=".2"/><path d="m24 128 2-1-1-.5-2 1z" fill="#fff" opacity=".1"/><path d="m29 124.5v1l1 .5 2-1v-1l-2 1z" opacity=".2"/><path d="m30 125 2-1-1-.5-2 1z" fill="#fff" opacity=".1"/><path d="m32 123v1l1 .5 2-1v-1l-2 1z" opacity=".2"/><path d="m33 123.5 2-1-1-.5-2 1z" fill="#fff" opacity=".1"/><path d="m71 109.5v1l2 1 2-1v-1l-2 1z" opacity=".2"/><path d="m73 110.5 2-1-2-1-2 1z" fill="#fff" opacity=".1"/><path d="m68 111v1l2 1 2-1v-1l-2 1z" opacity=".2"/><path d="m70 112 2-1-2-1-2 1z" fill="#fff" opacity=".1"/><path d="m74 111v1l2 1 2-1v-1l-2 1z" opacity=".2"/><path d="m76 112 2-1-2-1-2 1z" fill="#fff" opacity=".1"/><path d="m71 112.5v1l2 1 2-1v-1l-2 1z" opacity=".2"/><path d="m73 113.5 2-1-2-1-2 1z" fill="#fff" opacity=".1"/><path d="m81 114.5v1l2 1 2-1v-1l-2 1z" opacity=".2"/><path d="m83 115.5 2-1-2-1-2 1z" fill="#fff" opacity=".1"/><path d="m78 116v1l2 1 2-1v-1l-2 1z" opacity=".2"/><path d="m80 117 2-1-2-1-2 1z" fill="#fff" opacity=".1"/><path d="m75 117.5v1l2 1 2-1v-1l-2 1z" opacity=".2"/><path d="m77 118.5 2-1-2-1-2 1z" fill="#fff" opacity=".1"/><path d="m75 114.5v1l2 1 2-1v-1l-2 1z" opacity=".2"/><path d="m77 115.5 2-1-2-1-2 1z" fill="#fff" opacity=".1"/><path d="m75 104.5v1l2 1 2-1v-1l-2 1z" opacity=".2"/><path d="m77 105.5 2-1-2-1-2 1z" fill="#fff" opacity=".1"/><path d="m72 106v1l2 1 2-1v-1l-2 1z" opacity=".2"/><path d="m74 107 2-1-2-1-2 1z" fill="#fff" opacity=".1"/><path d="m81 101.5v1l2 1 2-1v-1l-2 1z" opacity=".2"/><path d="m83 102.5 2-1-2-1-2 1z" fill="#fff" opacity=".1"/><path d="m78 103v1l2 1 2-1v-1l-2 1z" opacity=".2"/><path d="m80 104 2-1-2-1-2 1z" fill="#fff" opacity=".1"/><path d="m78 106v1l2 1 2-1v-1l-2 1z" opacity=".2"/><path d="m80 107 2-1-2-1-2 1z" fill="#fff" opacity=".1"/><path d="m75 107.5v1l2 1 2-1v-1l-2 1z" opacity=".2"/><path d="m77 108.5 2-1-2-1-2 1z" fill="#fff" opacity=".1"/><path d="m81 104.5v1l2 1 2-1v-1l-2 1z" opacity=".2"/><path d="m83 105.5 2-1-2-1-2 1z" fill="#fff" opacity=".1"/><path d="m81 107.5v1l2 1 2-1v-1l-2 1z" opacity=".2"/><path d="m83 108.5 2-1-2-1-2 1z" fill="#fff" opacity=".1"/><path d="m78 109v1l2 1 2-1v-1l-2 1z" opacity=".2"/><path d="m80 110 2-1-2-1-2 1z" fill="#fff" opacity=".1"/><path d="m84 106v1l2 1 2-1v-1l-2 1z" opacity=".2"/><path d="m86 107 2-1-2-1-2 1z" fill="#fff" opacity=".1"/><path d="m84 109v1l2 1 2-1v-1l-2 1z" opacity=".2"/><path d="m86 110 2-1-2-1-2 1z" fill="#fff" opacity=".1"/><path d="m81 110.5v1l2 1 2-1v-1l-2 1z" opacity=".2"/><path d="m83 111.5 2-1-2-1-2 1z" fill="#fff" opacity=".1"/><path d="m87 107.5v1l2 1 2-1v-1l-2 1z" opacity=".2"/><path d="m89 108.5 2-1-2-1-2 1z" fill="#fff" opacity=".1"/><path d="m84 112v1l2 1 5-2.5v-1l-5 2.5z" opacity=".2"/><path d="m86 113 5-2.5-2-1-5 2.5z" fill="#fff" opacity=".1"/><path d="m90 106v1l5 2.5 2-1v-1l-2 1z" opacity=".2"/><path d="m95 108.5 2-1-5-2.5-2 1z" fill="#fff" opacity=".1"/><path d="m84 103v1l5 2.5 2-1v-1l-2 1z" opacity=".2"/><path d="m89 105.5 2-1-5-2.5-2 1z" fill="#fff" opacity=".1"/><path d="m90 109v1l2 1 2-1v-1l-2 1z" opacity=".2"/><path d="m92 110 2-1-2-1-2 1z" fill="#fff" opacity=".1"/><path d="m73 104.5-1-.5 9-4.5 1 .5z" opacity=".2"/><path d="m73.5 103.8.5.2.5-.2-.5-.3z" fill="#9c3" opacity=".8"/><path d="m75.5 102.8.5.2.5-.2-.5-.3z" fill="#9c3" opacity=".6"/><path d="m24 96 12.5 6.3c4.7 2.3 10.2 2.3 14.9 0l4.3-2.1c1.3-.6 1.9-1.9 1.9-3.1 0-3.1-.3-4.2-1.9-5l-13.7-6.9-18 8.8z" fill="#2d3134"/><path d="m55.7 98.1-4.3 2.1c-4.7 2.3-10.2 2.3-14.9 0l-12.5-6.2v2l12.5 6.3c4.7 2.3 10.2 2.3 14.9 0l4.3-2.1c1.3-.6 1.9-1.9 1.9-3.1 0-.6 0-1 0-1.5-.1 1-.8 2-1.9 2.5z" opacity=".2"/><path d="m34 90v7l2 1 14-7v-7l-2-1z" fill="#2d3134"/><path d="m34 90v7l2 1v-7z" opacity=".11"/><path d="m50 84-14 7v7l14-7z" opacity=".29"/><path d="m0 42v68l2 1 78-39v-68l-2-1z" fill="#2d3134"/><path d="m4 44 74-37v60l-74 37z" fill="#36c"/><path d="m4 44 74-37v51z" fill="#fff" opacity=".15"/><path d="m80 4-78 39v68l78-39z" opacity=".29"/><path d="m0 42v68l2 1v-68z" opacity=".11"/><path d="m44 86.8c0 1.1-.9 2.4-2 3s-2 .1-2-1 .9-2.4 2-3 2-.1 2 1z" opacity=".2"/><path d="m94.3 94.2c-3.8 2-4.4 6.4-.5 9.1s11 5.2 14.4 2.7c4.9-3.6-4.1-17.1-13.9-11.8z" fill="#656565"/><path d="m95 95.1 4.7 2.4c.5.2 1.1.2 1.5 0 .3-.2.3-.7 0-.8l-4.7-2.4c-.5-.2-1.1-.2-1.5 0-.3.2-.3.6 0 .8z" opacity=".2"/><path d="m109.4 101.7c0 1.3-.4 2.4-1.4 3.1-2.3 1.7-4.8 1.3-8.3 0-1.7-.7-1.8-2.2-3.3-2.9-1.3-.6-3-.4-4.2-1.2-.4-.2-.7-.5-.9-.8.3 1.3 1.1 2.5 2.6 3.5 3.9 2.7 11 5.2 14.4 2.7 1.2-1 1.5-2.6 1.1-4.4z" fill="#2d3134"/><path d="m95.8 95.1 3.2 1.6.8-.4s-.4-1.1-1.2-1.5-2-.1-2-.1z" fill="#2d3134"/><path d="m97.8 95.2c-.7-.4-2-.1-2-.1l3.2 1.6s-.4-1.1-1.2-1.5z" opacity=".11"/></svg>