<svg xmlns:xlink="http://www.w3.org/1999/xlink"  enable-background="new 0 0 20 20" height="20" viewBox="0 0 20 20" width="20" xmlns="http://www.w3.org/2000/svg"><path d="m20 12c0 2.7-4.4 5-10 5s-10-2.2-10-4.8c0-.6.3-1.2.8-1.9.1-.3 1.6-1.1 1.7-1.3 1.5-.8.8-.9 2.5-1.6.3-.1 1.4-.5 1.7-.6 3.3-.8 6.1-1.3 8.8.4.3.2 2.4.9 2.6 1.1 1 .8 1.1 1.5 1.8 2.7.1.4.1.7.1 1z" fill="#762c07"/><path d="m10 16c-5.2 0-9.4-1.9-10-4.3v.5c0 2.6 4.5 4.8 10 4.8s10-2.3 10-5c0-.2 0-.4 0-.6-.5 2.5-4.7 4.6-10 4.6z" opacity=".2"/><g fill="#4a2121"><path d="m4 10.3c.2-.1.4-.4.6-.3.1 0 .2.1.2 0v-.1c0-.2-.1-.4-.2-.5-.2-.1-.4-.1-.5 0 0 .1 0 .1-.1.1s-.1 0-.2 0-.3 0-.4-.1c-.1.2-.1.5 0 .7.1.3.4.3.6.2z"/><path d="m8.7 7.4c-.2.2-.1.5.1.6h.5c.1 0 .2.1.3.2s.3 0 .4-.1.1-.3 0-.4c0-.2-.4-.1-.5-.4 0-.1 0-.3-.1-.4 0 0-.1 0-.2 0-.2 0-.4 0-.3.2 0 .1 0 .1.1.2 0 0-.1.2-.2.2 0-.1 0-.1-.1-.1z"/><path d="m10.3 10.6c.1 0 .1.1.1.1.1.1.1.2.2.2s.2-.1.2-.2 0-.2 0-.3 0-.2-.1-.2-.1-.1-.2 0c-.2 0-.4 0-.6 0-.1 0-.1 0-.2-.1v-.1c0-.2 0-.4 0-.5-.1-.1-.2 0-.3.1v.3c.1.1-.1.2-.3.1 0 .1-.1.3 0 .4 0 .1.1.1.2.1.3.1.6.1.9.1z"/><path d="m4.8 13.5c.1 0 .1.1.1.1.1.1.1.2.2.2s.2-.1.2-.2 0-.2 0-.3 0-.2-.1-.2-.1-.1-.2 0c-.2 0-.4 0-.6 0-.1 0-.1 0-.2-.1v-.1c0-.2 0-.4 0-.5-.1-.1-.2 0-.3.1v.3c-.1.2-.3.3-.5.2 0 .1-.1.3 0 .4 0 .1.1.1.2.1.3.1.6.1.9.1.2-.1.3-.1.3-.1z"/><path d="m8.2 12.8v.1c0 .2 0 .4.2.5.2.2.4.2.6.2h.6.2c.1-.1 0-.3 0-.4-.2 0-.4-.1-.5-.2s-.1-.1-.2-.2c-.2-.1-.5-.1-.7 0-.1-.1-.2-.1-.2 0z"/><path d="m13.2 7.9v.1c0 .2 0 .4.2.5.2.2.4.2.6.2h.6.2c.1-.1 0-.3 0-.4-.2 0-.4-.1-.5-.2s-.1-.1-.2-.2c-.2-.1-.5-.1-.7 0-.1 0-.1 0-.2 0z"/><path d="m16.1 9.8c-.2.2-.2.6.1.8.2.2.6.2.9.2.2 0 .4 0 .4-.2.1-.1-.1-.3-.2-.4s-.3-.1-.5-.2-.4-.3-.6-.4z"/><path d="m16.2 14.1c-.2.1-.4.1-.6 0s-.3-.3-.3-.5c-.3 0-.6-.2-.8-.4.7.1 1.4.2 2.1.2-.1.3-.3.5-.4.7z"/></g></svg>