<svg xmlns:xlink="http://www.w3.org/1999/xlink"  enable-background="new 0 0 40 60" height="60" viewBox="0 0 40 60" width="40" xmlns="http://www.w3.org/2000/svg"><path d="m0 45v5l20 10 10-5v-3l-20-10-2-1z" fill="#2d3134"/><path d="m20 55v5l-20-10v-5z" opacity=".11"/><path d="m20 55v5l10-5v-3l-2-1z" opacity=".29"/><path d="m10 42 16 8-6 3-16-8z" opacity=".5"/><path d="m2 9 4 36 14 7 4-2-4-36-14-7z" fill="#2d3134"/><path d="m20 52-14-7-4-36 14 7z" opacity=".11"/><path d="m20 52 4-2-4-36-4 2z" opacity=".29"/><path d="m8 51v2l4 2v-2z" opacity=".5"/></svg>