<svg xmlns:xlink="http://www.w3.org/1999/xlink"  enable-background="new 0 0 40 60" height="60" viewBox="0 0 40 60" width="40" xmlns="http://www.w3.org/2000/svg"><path d="m2 44-2 3v3l20 10 10-5v-5l-20-10z" fill="#2d3134"/><path d="m20 57v3l-20-10v-3z" opacity=".11"/><path d="m20 57v3l10-5v-5l-8 4z" opacity=".29"/><path d="m10 42 16 8-6 3-16-8z" opacity=".5"/><path d="m10 5-4 40 14 7 4-2 4-40-14-7z" fill="#2d3134"/><path d="m20 52-14-7 4-40 14 7z" opacity=".11"/><path d="m20 52 4-2 4-40-4 2z" opacity=".29"/><path d="m9.5 22.4-.2 2.4 2.4 1.2 1-.4.2-2.5-2.4-1.2z" fill="#2d3134"/><path d="m11.7 26-2.4-1.2.2-2.4 2.5 1.2z" fill="#fff" opacity=".1"/><path d="m11.7 26 1-.4.2-2.5-.9.5z" opacity=".3"/><path d="m13.4 24.4-.2 2.4 2.4 1.2.9-.5.3-2.4-2.4-1.2z" fill="#2d3134"/><path d="m15.6 28-2.4-1.2.2-2.4 2.4 1.2z" fill="#fff" opacity=".1"/><path d="m15.6 28 .9-.5.3-2.4-1 .5z" opacity=".3"/><path d="m17.3 26.3-.3 2.4 2.4 1.2 1-.5.2-2.4-2.4-1.2z" fill="#2d3134"/><path d="m19.4 29.9-2.4-1.2.3-2.4 2.4 1.2z" fill="#fff" opacity=".1"/><path d="m19.4 29.9 1-.5.2-2.4-.9.5z" opacity=".3"/><path d="m9.1 27.2-.3 2.5 2.4 1.2 1-.5.2-2.4-2.4-1.2z" fill="#2d3134"/><path d="m11.2 30.9-2.4-1.2.3-2.5 2.4 1.3z" fill="#fff" opacity=".1"/><path d="m11.2 30.9 1-.5.2-2.4-.9.5z" opacity=".3"/><path d="m12.9 29.2-.2 2.4 2.4 1.2 1-.5.2-2.4-2.4-1.2z" fill="#2d3134"/><path d="m15.1 32.8-2.4-1.2.2-2.4 2.4 1.2z" fill="#fff" opacity=".1"/><path d="m15.1 32.8 1-.5.2-2.4-1 .5z" opacity=".3"/><path d="m16.8 31.1-.3 2.4 2.4 1.2 1-.5.2-2.4-2.4-1.2z" fill="#2d3134"/><path d="m18.9 34.7-2.4-1.2.3-2.4 2.4 1.2z" fill="#fff" opacity=".1"/><path d="m18.9 34.7 1-.5.2-2.4-.9.5z" opacity=".3"/><path d="m8.6 32.1-.3 2.4 2.5 1.2.9-.5.3-2.4-2.5-1.2z" fill="#2d3134"/><path d="m10.8 35.7-2.5-1.2.3-2.4 2.4 1.2z" fill="#fff" opacity=".1"/><path d="m10.8 35.7.9-.5.3-2.4-1 .5z" opacity=".3"/><path d="m12.4 34-.2 2.4 2.4 1.2 1-.5.2-2.4-2.4-1.2z" fill="#2d3134"/><path d="m14.6 37.6-2.4-1.2.2-2.4 2.4 1.2z" fill="#fff" opacity=".1"/><path d="m14.6 37.6 1-.5.2-2.4-1 .5z" opacity=".3"/><path d="m16.3 35.9-.2 2.4 2.4 1.2.9-.4.3-2.5-2.4-1.2z" fill="#2d3134"/><path d="m18.5 39.5-2.4-1.2.2-2.4 2.4 1.2z" fill="#fff" opacity=".1"/><path d="m18.5 39.5.9-.4.3-2.5-1 .5z" opacity=".3"/><path d="m8.1 36.9-.2 2.4 2.4 1.2.9-.5.3-2.4-2.4-1.2z" fill="#2d3134"/><path d="m10.3 40.5-2.4-1.2.2-2.4 2.4 1.2z" fill="#fff" opacity=".1"/><path d="m10.3 40.5.9-.5.3-2.4-1 .5z" opacity=".3"/><path d="m12 38.8-.3 2.4 2.4 1.2 1-.5.2-2.4-2.4-1.2z" fill="#2d3134"/><path d="m14.1 42.4-2.4-1.2.3-2.4 2.4 1.2z" fill="#fff" opacity=".1"/><path d="m14.1 42.4 1-.5.2-2.4-.9.5z" opacity=".3"/><path d="m15.8 40.7-.2 2.4 2.4 1.3.9-.5.3-2.4-2.4-1.2z" fill="#2d3134"/><path d="m18 44.4-2.4-1.3.2-2.4 2.4 1.2z" fill="#fff" opacity=".1"/><path d="m18 44.4.9-.5.3-2.4-1 .4z" opacity=".3"/><path d="m21 24-10-5 1-10 10 5z" fill="#36c"/><path d="m21 24-5-13 6 3z" fill="#fff" opacity=".1"/></svg>