<svg xmlns:xlink="http://www.w3.org/1999/xlink"  enable-background="new 0 0 32 40" height="40" viewBox="0 0 32 40" width="32" xmlns="http://www.w3.org/2000/svg"><path d="m7.8 32h.7l-.4-18.6-.4-.1z" fill="#539b00"/><path d="m8.1 26.7c-1.2.6-3.3-4.8-2.7-5.1.7-.4 4.1 4.3 2.7 5.1z" fill="#fc0"/><path d="m6.9 22.5s.1 1.5.3 2.7c-.7-.5-1.5-.8-1.5-.8s1.8 3.3 2.5 2.5c0 0 .1-.1.1-.1 1-.8-1.4-4.3-1.4-4.3z" fill="#9c3"/><path d="m8 21.1c-1.3-.5 1.5-5.6 2.1-5.4.8.3-.6 6-2.1 5.4z" fill="#fc0"/><path d="m8.7 19.4c-.1-.9-.3-1.7-.3-1.7s-1.5 3.5-.4 3.5h.2c1.2.4 2.3-3.7 2.3-3.7s-1.1.9-1.8 1.9z" fill="#9c3"/><path d="m8.1 14.1 2.3-4.1-2.4 3.4.9-5-1.1 4.5-.6-3.8.4 4.2-1.3-1.7 1.5 2.5z" fill="#baa794"/><path d="m4 19.5s-.7-.7-.3-1.5c.5-.8 1.3-.4 1.3-.4s-.9.3-1 1.9z" fill="#539b00"/><path d="m4 19.5s-.7-.7-.3-1.5c.5-.8 1.3-.4 1.3-.4s-.9.3-1 1.9z" opacity=".2"/><path d="m8 21.7s-2-4.3-4.2-3.7c.7-1.3 1.8-1.7 3-.7 1.6 1.3 1.3 3.7 1.2 4.4z" fill="#539b00"/><path d="m2.9 27.8s-1-.7-.4-1.6 1.8-.4 1.8-.4-1.3.3-1.4 2z" fill="#539b00"/><path d="m2.9 27.8s-1-.7-.4-1.6 1.8-.4 1.8-.4-1.3.3-1.4 2z" opacity=".2"/><g fill="#539b00"><path d="m8.3 30.2s-2.7-4.6-5.7-4c1-1.4 2.4-1.8 4.1-.8 2.2 1.5 1.7 4 1.6 4.8z"/><path d="m7.8 15.9s1.7-3.3 3.4-2.4c-.6-.8-1.4-1.1-2.4-.5-1.3.9-1.1 2.4-1 2.9z"/><path d="m7.8 14.7s-1.2-2.3-2.4-1.7c.4-.6 1-.8 1.7-.3.9.6.7 1.6.7 2z"/><path d="m8.4 27.6s.4-4.6 3.1-5.3c-.9-.3-2.7-.2-3.4 1.3-.9 2.1-.1 3.5.3 4z"/><path d="m15.8 28h.7l-.4-18.6-.4-.1z"/></g><path d="m16.1 22.7c-1.2.6-3.3-4.8-2.7-5.1.7-.4 4.1 4.3 2.7 5.1z" fill="#fc0"/><path d="m14.9 18.5s.1 1.5.3 2.7c-.7-.5-1.5-.8-1.5-.8s1.8 3.3 2.5 2.5c0 0 .1-.1.1-.1 1-.8-1.4-4.3-1.4-4.3z" fill="#9c3"/><path d="m16 17.1c-1.3-.5 1.5-5.6 2.1-5.4.8.3-.6 6-2.1 5.4z" fill="#fc0"/><path d="m16.7 15.4c-.1-.9-.3-1.7-.3-1.7s-1.4 3.5-.3 3.5h.2c1.2.4 2.3-3.7 2.3-3.7s-1.2.9-1.9 1.9z" fill="#9c3"/><path d="m16.1 10.1 2.3-4.1-2.4 3.4.9-5-1.1 4.5-.6-3.8.4 4.2-1.3-1.7 1.5 2.5z" fill="#baa794"/><path d="m12 15.5s-.7-.7-.3-1.5c.5-.8 1.3-.4 1.3-.4s-.9.3-1 1.9z" fill="#539b00"/><path d="m12 15.5s-.7-.7-.3-1.5c.5-.8 1.3-.4 1.3-.4s-.9.3-1 1.9z" opacity=".2"/><path d="m16 17.7s-2-4.3-4.2-3.7c.7-1.3 1.8-1.7 3-.7 1.6 1.3 1.3 3.7 1.2 4.4z" fill="#539b00"/><path d="m21.4 20.8s1-.7.4-1.6-1.8-.5-1.8-.5 1.3.4 1.4 2.1z" fill="#539b00"/><path d="m21.4 20.8s1-.7.4-1.6-1.8-.5-1.8-.5 1.3.4 1.4 2.1z" opacity=".2"/><path d="m16.1 23.1s2.7-4.6 5.7-4c-1-1.4-2.4-1.8-4.1-.8-2.2 1.5-1.8 4.1-1.6 4.8z" fill="#539b00"/><path d="m15.8 12.1s1.9-3.7 3.8-2.7c-.6-.9-1.5-1.2-2.6-.5-1.6 1-1.3 2.6-1.2 3.2z" fill="#539b00"/><path d="m15.8 10.9s-1.4-2.8-2.9-2c.5-.7 1.2-.9 2-.4 1.2.7.9 2 .9 2.4z" fill="#539b00"/><path d="m15.8 36h.7l-.4-18.6-.4-.1z" fill="#539b00"/><path d="m16.1 31.5c-1.2.6-3.3-4.8-2.7-5.1.7-.5 4.1 4.3 2.7 5.1z" fill="#fc0"/><path d="m14.9 27.2s.1 1.5.3 2.7c-.7-.5-1.5-.8-1.5-.8s1.8 3.3 2.5 2.5c0 0 .1-.1.1-.1 1-.8-1.4-4.3-1.4-4.3z" fill="#9c3"/><path d="m16 26.2c-1.3-.5 1.5-5.6 2.1-5.4.8.3-.6 6-2.1 5.4z" fill="#fc0"/><path d="m16.7 24.5c-.1-.9-.3-1.7-.3-1.7s-1.4 3.5-.3 3.5h.2c1.2.4 2.3-3.7 2.3-3.7s-1.2.9-1.9 1.9z" fill="#9c3"/><path d="m16.1 18.1 2.3-4.1-2.4 3.4.9-5-1.1 4.5-.6-3.8.4 4.2-1.3-1.7 1.5 2.5z" fill="#baa794"/><path d="m12 24.6s-.7-.7-.3-1.5c.5-.8 1.3-.4 1.3-.4s-.9.3-1 1.9z" fill="#539b00"/><path d="m12 24.6s-.7-.7-.3-1.5c.5-.8 1.3-.4 1.3-.4s-.9.3-1 1.9z" opacity=".2"/><path d="m16 26.8s-2-4.3-4.2-3.7c.7-1.3 1.8-1.7 3-.7 1.6 1.3 1.3 3.7 1.2 4.4z" fill="#539b00"/><path d="m21.4 29.5s1-.7.4-1.6-1.8-.4-1.8-.4 1.3.3 1.4 2z" fill="#539b00"/><path d="m21.4 29.5s1-.7.4-1.6-1.8-.4-1.8-.4 1.3.3 1.4 2z" opacity=".2"/><path d="m16.1 31.9s2.7-4.6 5.7-4c-1-1.4-2.4-1.8-4.1-.8-2.2 1.5-1.8 4-1.6 4.8z" fill="#539b00"/><path d="m16.2 19.2s-1.6-3-3.1-2.1c.5-.8 1.3-1 2.2-.4 1.2.7 1 2.1.9 2.5z" fill="#539b00"/><path d="m16 34.8s-2.5-4.7-4.9-3.4c.9-1.2 2-1.6 3.4-.7 2 1.3 1.7 3.5 1.5 4.1z" fill="#539b00"/><path d="m23.8 32h.7l-.4-18.6-.4-.1z" fill="#539b00"/><path d="m24.1 26.7c-1.2.6-3.3-4.8-2.7-5.1.7-.4 4.1 4.3 2.7 5.1z" fill="#fc0"/><path d="m22.9 22.5s.1 1.5.3 2.7c-.7-.5-1.5-.8-1.5-.8s1.8 3.3 2.5 2.5c0 0 .1-.1.1-.1 1-.8-1.4-4.3-1.4-4.3z" fill="#9c3"/><path d="m23.8 20.6c-1.2-.6 2.1-5.4 2.6-5.2.8.4-1.1 6-2.6 5.2z" fill="#fc0"/><path d="m24.8 18.8c0-.9-.2-1.9-.2-1.9s-1.3 2.6-.9 3.3c0 .2 0 .3.1.4 1.2 1 2.8-3.4 2.8-3.4s-1 .8-1.8 1.6z" fill="#9c3"/><path d="m24.1 14.1 2.3-4.1-2.4 3.4.9-5-1.1 4.5-.6-3.8.4 4.2-1.3-1.7 1.5 2.5z" fill="#baa794"/><path d="m29.4 24.8s1-.7.4-1.6-1.8-.5-1.8-.5 1.3.4 1.4 2.1z" fill="#539b00"/><path d="m29.4 24.8s1-.7.4-1.6-1.8-.5-1.8-.5 1.3.4 1.4 2.1z" opacity=".2"/><path d="m24.1 27.1s2.7-4.6 5.7-4c-1-1.4-2.4-1.8-4.1-.8-2.2 1.5-1.8 4.1-1.6 4.8z" fill="#539b00"/><path d="m24 15.9s-1.9-3.7-3.8-2.7c.7-.9 1.6-1.2 2.7-.5 1.5 1 1.2 2.6 1.1 3.2z" fill="#539b00"/><path d="m24.1 14.7s1.4-2.8 2.9-2c-.5-.7-1.2-.9-2-.4-1.2.7-1 2-.9 2.4z" fill="#539b00"/><path d="m24 29.5s-2.5-4.7-4.9-3.4c.9-1.2 2-1.6 3.4-.7 2 1.3 1.7 3.4 1.5 4.1z" fill="#539b00"/><path d="m24 21.5s-1.5-5.7-4.5-4.8c1.2-1.1 2.6-1.2 3.9.1 1.8 1.8.9 4 .6 4.7z" fill="#539b00"/></svg>