<svg xmlns:xlink="http://www.w3.org/1999/xlink"  enable-background="new 0 0 64 56" height="56" viewBox="0 0 64 56" width="64" xmlns="http://www.w3.org/2000/svg"><path d="m23.8 32h.7l-.4-18.6-.4-.1z" fill="#539b00"/><path d="m24.1 26.7c-1.2.6-3.3-4.8-2.7-5.1.7-.4 4.1 4.3 2.7 5.1z" fill="#fc0"/><path d="m24.2 26.8c-.7.8-2.5-2.5-2.5-2.5s3.3 1.5 2.5 2.5z" fill="#9c3"/><path d="m24.1 26.7c1.5-.4-1.2-4.3-1.2-4.3s.1 4.6 1.2 4.3z" fill="#9c3"/><path d="m24 21.1c-1.3-.5 1.5-5.6 2.1-5.4.8.3-.6 6-2.1 5.4z" fill="#fc0"/><path d="m24.7 19.4c-.1-.9-.3-1.7-.3-1.7s-1.4 3.5-.3 3.5h.2c1.2.4 2.3-3.7 2.3-3.7s-1.2.9-1.9 1.9z" fill="#9c3"/><path d="m24.1 14.1 2.3-4.1-2.4 3.4.9-5-1.1 4.5-.6-3.8.4 4.2-1.3-1.7 1.5 2.5z" fill="#baa794"/><path d="m20 19.5s-.7-.7-.3-1.5c.5-.8 1.3-.4 1.3-.4s-.9.3-1 1.9z" fill="#539b00"/><path d="m20 19.5s-.7-.7-.3-1.5c.5-.8 1.3-.4 1.3-.4s-.9.3-1 1.9z" opacity=".2"/><path d="m24 21.7s-2-4.3-4.2-3.7c.7-1.3 1.8-1.7 3-.7 1.6 1.3 1.3 3.7 1.2 4.4z" fill="#539b00"/><path d="m23.8 15.9s1.7-3.3 3.4-2.4c-.6-.8-1.4-1.1-2.4-.5-1.3.9-1.1 2.4-1 2.9z" fill="#539b00"/><path d="m23.8 14.7s-1.2-2.3-2.4-1.7c.4-.6 1-.8 1.7-.3.9.6.7 1.6.7 2z" fill="#539b00"/><path d="m24.4 27.6s.4-4.6 3.1-5.3c-.9-.3-2.7-.2-3.4 1.3-.9 2.1-.1 3.5.3 4z" fill="#539b00"/><path d="m31.8 28h.7l-.4-18.6-.4-.1z" fill="#539b00"/><path d="m32.1 22.7c-1.2.6-3.3-4.8-2.7-5.1.7-.4 4.1 4.3 2.7 5.1z" fill="#fc0"/><path d="m30.9 18.5s.1 1.5.3 2.7c-.7-.5-1.5-.8-1.5-.8s1.8 3.3 2.5 2.5c0 0 .1-.1.1-.1 1-.8-1.4-4.3-1.4-4.3z" fill="#9c3"/><path d="m32 17.1c-1.3-.5 1.5-5.6 2.1-5.4.8.3-.6 6-2.1 5.4z" fill="#fc0"/><path d="m32.7 15.4c-.1-.9-.3-1.7-.3-1.7s-1.4 3.5-.3 3.5h.2c1.2.4 2.3-3.7 2.3-3.7s-1.2.9-1.9 1.9z" fill="#9c3"/><path d="m32.1 10.1 2.3-4.1-2.4 3.4.9-5-1.1 4.5-.6-3.8.4 4.2-1.3-1.7 1.5 2.5z" fill="#baa794"/><path d="m28 15.5s-.7-.7-.3-1.5c.5-.8 1.3-.4 1.3-.4s-.9.3-1 1.9z" fill="#539b00"/><path d="m28 15.5s-.7-.7-.3-1.5c.5-.8 1.3-.4 1.3-.4s-.9.3-1 1.9z" opacity=".2"/><path d="m32 17.7s-2-4.3-4.2-3.7c.7-1.3 1.8-1.7 3-.7 1.6 1.3 1.3 3.7 1.2 4.4z" fill="#539b00"/><path d="m32.1 23.1s2.7-4.6 5.7-4c-1-1.4-2.4-1.8-4.1-.8-2.2 1.5-1.8 4.1-1.6 4.8z" fill="#539b00"/><path d="m31.8 12.1s1.9-3.7 3.8-2.7c-.6-.9-1.5-1.2-2.6-.5-1.6 1-1.3 2.6-1.2 3.2z" fill="#539b00"/><path d="m31.8 10.9s-1.4-2.8-2.9-2c.5-.7 1.2-.9 2-.4 1.2.7.9 2 .9 2.4z" fill="#539b00"/><path d="m31.8 36h.7l-.4-18.6-.4-.1z" fill="#539b00"/><path d="m32.1 31.5c-1.2.6-3.3-4.8-2.7-5.1.7-.5 4.1 4.3 2.7 5.1z" fill="#fc0"/><path d="m32.1 31.5c1.5-.4-1.2-4.3-1.2-4.3s.1 4.5 1.2 4.3z" fill="#9c3"/><path d="m32 26.2c-1.3-.5 1.5-5.6 2.1-5.4.8.3-.6 6-2.1 5.4z" fill="#fc0"/><path d="m32.7 24.5c-.1-.9-.3-1.7-.3-1.7s-1.4 3.5-.3 3.5h.2c1.2.4 2.3-3.7 2.3-3.7s-1.2.9-1.9 1.9z" fill="#9c3"/><path d="m32.1 18.1 2.3-4.1-2.4 3.4.9-5-1.1 4.5-.6-3.8.4 4.2-1.3-1.7 1.5 2.5z" fill="#baa794"/><path d="m28 24.6s-.7-.7-.3-1.5c.5-.8 1.3-.4 1.3-.4s-.9.3-1 1.9z" fill="#539b00"/><path d="m28 24.6s-.7-.7-.3-1.5c.5-.8 1.3-.4 1.3-.4s-.9.3-1 1.9z" opacity=".2"/><path d="m32 26.8s-2-4.3-4.2-3.7c.7-1.3 1.8-1.7 3-.7 1.6 1.3 1.3 3.7 1.2 4.4z" fill="#539b00"/><path d="m32.1 31.9s2.7-4.6 5.7-4c-1-1.4-2.4-1.8-4.1-.8-2.2 1.5-1.8 4-1.6 4.8z" fill="#539b00"/><path d="m32.2 19.2s-1.6-3-3.1-2.1c.5-.8 1.3-1 2.2-.4 1.2.7 1 2.1.9 2.5z" fill="#539b00"/><path d="m39.8 32h.7l-.4-18.6-.4-.1z" fill="#539b00"/><path d="m40.1 26.7c-1.2.6-3.3-4.8-2.7-5.1.7-.4 4.1 4.3 2.7 5.1z" fill="#fc0"/><path d="m38.9 22.5s.1 1.5.3 2.7c-.7-.5-1.5-.8-1.5-.8s1.8 3.3 2.5 2.5c0 0 .1-.1.1-.1 1-.8-1.4-4.3-1.4-4.3z" fill="#9c3"/><path d="m39.8 20.6c-1.2-.6 2.1-5.4 2.6-5.2.8.4-1.1 6-2.6 5.2z" fill="#fc0"/><path d="m40.8 18.8c0-.9-.2-1.9-.2-1.9s-1.3 2.6-.9 3.3c0 .2 0 .3.1.4 1.2 1 2.8-3.4 2.8-3.4s-1 .8-1.8 1.6z" fill="#9c3"/><path d="m40.1 14.1 2.3-4.1-2.4 3.4.9-5-1.1 4.5-.6-3.8.4 4.2-1.3-1.7 1.5 2.5z" fill="#baa794"/><g fill="#539b00"><path d="m40.1 27.1s2.7-4.6 5.7-4c-1-1.4-2.4-1.8-4.1-.8-2.2 1.5-1.8 4.1-1.6 4.8z"/><path d="m40 15.9s-1.9-3.7-3.8-2.7c.7-.9 1.6-1.2 2.7-.5 1.5 1 1.2 2.6 1.1 3.2z"/><path d="m40.1 14.7s1.4-2.8 2.9-2c-.5-.7-1.2-.9-2-.4-1.2.7-1 2-.9 2.4z"/><path d="m40 29.5s-2.5-4.7-4.9-3.4c.9-1.2 2-1.6 3.4-.7 2 1.3 1.7 3.4 1.5 4.1z"/><path d="m40 21.5s-1.5-5.7-4.5-4.8c1.2-1.1 2.6-1.2 3.9.1 1.8 1.8.9 4 .6 4.7z"/><path d="m7.8 40h.7l-.4-18.6-.4-.1z"/></g><path d="m8.1 34.7c-1.2.6-3.3-4.8-2.7-5.1.7-.4 4.1 4.3 2.7 5.1z" fill="#fc0"/><path d="m6.9 30.5s.1 1.5.3 2.7c-.7-.5-1.5-.8-1.5-.8s1.8 3.3 2.5 2.5c0 0 .1-.1.1-.1 1-.8-1.4-4.3-1.4-4.3z" fill="#9c3"/><path d="m8 29.1c-1.3-.5 1.5-5.6 2.1-5.4.8.3-.6 6-2.1 5.4z" fill="#fc0"/><path d="m8.7 27.4c-.1-.9-.3-1.7-.3-1.7s-1.5 3.5-.4 3.5h.2c1.2.4 2.3-3.7 2.3-3.7s-1.1.9-1.8 1.9z" fill="#9c3"/><path d="m8.1 22.1 2.3-4.1-2.4 3.4.9-5-1.1 4.5-.6-3.8.4 4.2-1.3-1.7 1.5 2.5z" fill="#baa794"/><path d="m4 27.5s-.7-.7-.3-1.5c.5-.8 1.3-.4 1.3-.4s-.9.3-1 1.9z" fill="#539b00"/><path d="m4 27.5s-.7-.7-.3-1.5c.5-.8 1.3-.4 1.3-.4s-.9.3-1 1.9z" opacity=".2"/><path d="m8 29.7s-2-4.3-4.2-3.7c.7-1.3 1.8-1.7 3-.7 1.6 1.3 1.3 3.7 1.2 4.4z" fill="#539b00"/><path d="m2.9 35.8s-1-.7-.4-1.6 1.8-.4 1.8-.4-1.3.3-1.4 2z" fill="#539b00"/><path d="m2.9 35.8s-1-.7-.4-1.6 1.8-.4 1.8-.4-1.3.3-1.4 2z" opacity=".2"/><path d="m8.3 38.2s-2.7-4.6-5.7-4c1-1.4 2.4-1.8 4.1-.8 2.2 1.5 1.7 4 1.6 4.8z" fill="#539b00"/><path d="m7.8 23.9s1.7-3.3 3.4-2.4c-.6-.8-1.4-1.1-2.4-.5-1.3.9-1.1 2.4-1 2.9z" fill="#539b00"/><path d="m7.8 22.7s-1.2-2.3-2.4-1.7c.4-.6 1-.8 1.7-.3.9.6.7 1.6.7 2z" fill="#539b00"/><path d="m8.4 35.6s.4-4.6 3.1-5.3c-.9-.3-2.7-.2-3.4 1.3-.9 2.1-.1 3.5.3 4z" fill="#539b00"/><path d="m15.8 36h.7l-.4-18.6-.4-.1z" fill="#539b00"/><path d="m16.1 30.7c-1.2.6-3.3-4.8-2.7-5.1.7-.4 4.1 4.3 2.7 5.1z" fill="#fc0"/><path d="m14.9 26.5s.1 1.5.3 2.7c-.7-.5-1.5-.8-1.5-.8s1.8 3.3 2.5 2.5c0 0 .1-.1.1-.1 1-.8-1.4-4.3-1.4-4.3z" fill="#9c3"/><path d="m16 25.1c-1.3-.5 1.5-5.6 2.1-5.4.8.3-.6 6-2.1 5.4z" fill="#fc0"/><path d="m16.7 23.4c-.1-.9-.3-1.7-.3-1.7s-1.4 3.5-.3 3.5h.2c1.2.4 2.3-3.7 2.3-3.7s-1.2.9-1.9 1.9z" fill="#9c3"/><path d="m16.1 18.1 2.3-4.1-2.4 3.4.9-5-1.1 4.5-.6-3.8.4 4.2-1.3-1.7 1.5 2.5z" fill="#baa794"/><path d="m12 23.5s-.7-.7-.3-1.5c.5-.8 1.3-.4 1.3-.4s-.9.3-1 1.9z" fill="#539b00"/><path d="m12 23.5s-.7-.7-.3-1.5c.5-.8 1.3-.4 1.3-.4s-.9.3-1 1.9z" opacity=".2"/><path d="m16 25.7s-2-4.3-4.2-3.7c.7-1.3 1.8-1.7 3-.7 1.6 1.3 1.3 3.7 1.2 4.4z" fill="#539b00"/><path d="m21 28.2s.8-.8.1-1.5-1.7-.2-1.7-.2 1.3.2 1.6 1.7z" fill="#539b00"/><path d="m21 28.2s.8-.8.1-1.5-1.7-.2-1.7-.2 1.3.2 1.6 1.7z" opacity=".2"/><path d="m16.2 31.2s2-4.7 4.9-4.5c-1.1-1.2-2.5-1.4-3.9-.2-2 1.6-1.2 3.9-1 4.7z" fill="#539b00"/><path d="m15.8 20.1s1.9-3.7 3.8-2.7c-.7-.9-1.6-1.2-2.7-.5-1.5 1-1.2 2.6-1.1 3.2z" fill="#539b00"/><path d="m15.8 18.9s-1.4-2.8-2.9-2c.5-.7 1.2-.9 2-.4 1.2.7.9 2 .9 2.4z" fill="#539b00"/><path d="m15.8 44h.7l-.4-18.6-.4-.1z" fill="#539b00"/><path d="m16.1 39.5c-1.2.6-3.3-4.8-2.7-5.1.7-.5 4.1 4.3 2.7 5.1z" fill="#fc0"/><path d="m14.9 35.2s.1 1.5.3 2.7c-.7-.5-1.5-.8-1.5-.8s1.8 3.3 2.5 2.5c0 0 .1-.1.1-.1 1-.8-1.4-4.3-1.4-4.3z" fill="#9c3"/><path d="m16 34.2c-1.3-.5 1.5-5.6 2.1-5.4.8.3-.6 6-2.1 5.4z" fill="#fc0"/><path d="m16.7 32.5c-.1-.9-.3-1.7-.3-1.7s-1.4 3.5-.3 3.5h.2c1.2.4 2.3-3.7 2.3-3.7s-1.2.9-1.9 1.9z" fill="#9c3"/><path d="m16.1 26.1 2.3-4.1-2.4 3.4.9-5-1.1 4.5-.6-3.8.4 4.2-1.3-1.7 1.5 2.5z" fill="#baa794"/><path d="m12 32.6s-.7-.7-.3-1.5c.5-.8 1.3-.4 1.3-.4s-.9.3-1 1.9z" fill="#539b00"/><path d="m12 32.6s-.7-.7-.3-1.5c.5-.8 1.3-.4 1.3-.4s-.9.3-1 1.9z" opacity=".2"/><path d="m16 34.8s-2-4.3-4.2-3.7c.7-1.3 1.8-1.7 3-.7 1.6 1.3 1.3 3.7 1.2 4.4z" fill="#539b00"/><path d="m16.1 39.9s2.7-4.6 5.7-4c-1-1.4-2.4-1.8-4.1-.8-2.2 1.5-1.8 4-1.6 4.8z" fill="#539b00"/><path d="m16.2 27.2s-1.6-3-3.1-2.1c.5-.8 1.3-1 2.2-.4 1.2.7 1 2.1.9 2.5z" fill="#539b00"/><path d="m16 42.8s-2.5-4.7-4.9-3.4c.9-1.2 2-1.6 3.4-.7 2 1.3 1.7 3.5 1.5 4.1z" fill="#539b00"/><path d="m23.8 40h.7l-.4-18.6-.4-.1z" fill="#539b00"/><path d="m24.1 34.7c-1.2.6-3.3-4.8-2.7-5.1.7-.4 4.1 4.3 2.7 5.1z" fill="#fc0"/><path d="m22.9 30.5s.1 1.5.3 2.7c-.7-.5-1.5-.8-1.5-.8s1.8 3.3 2.5 2.5c0 0 .1-.1.1-.1 1-.8-1.4-4.3-1.4-4.3z" fill="#9c3"/><path d="m23.8 28.6c-1.2-.6 2.1-5.4 2.6-5.2.8.4-1.1 6-2.6 5.2z" fill="#fc0"/><path d="m24.8 26.8c0-.9-.2-1.9-.2-1.9s-1.3 2.6-.9 3.3c0 .2 0 .3.1.4 1.2 1 2.8-3.4 2.8-3.4s-1 .8-1.8 1.6z" fill="#9c3"/><path d="m24.1 22.1 2.3-4.1-2.4 3.4.9-5-1.1 4.5-.6-3.8.4 4.2-1.3-1.7 1.5 2.5z" fill="#baa794"/><path d="m24.1 35.1s2.7-4.6 5.7-4c-1-1.4-2.4-1.8-4.1-.8-2.2 1.5-1.8 4.1-1.6 4.8z" fill="#539b00"/><path d="m24 23.9s-1.9-3.7-3.8-2.7c.7-.9 1.6-1.2 2.7-.5 1.5 1 1.2 2.6 1.1 3.2z" fill="#539b00"/><path d="m24.1 22.7s1.4-2.8 2.9-2c-.5-.7-1.2-.9-2-.4-1.2.7-1 2-.9 2.4z" fill="#539b00"/><path d="m24 29.5s-1.5-5.7-4.5-4.8c1.2-1.1 2.6-1.2 3.9.1 1.8 1.8.9 4 .6 4.7z" fill="#539b00"/><path d="m39.8 40h.7l-.4-18.6-.4-.1z" fill="#539b00"/><path d="m40.1 34.7c-1.2.6-3.3-4.8-2.7-5.1.7-.4 4.1 4.3 2.7 5.1z" fill="#fc0"/><path d="m40.1 34.7c1.5-.4-1.2-4.3-1.2-4.3s.1 4.6 1.2 4.3z" fill="#9c3"/><path d="m40 29.1c-1.3-.5 1.5-5.6 2.1-5.4.8.3-.6 6-2.1 5.4z" fill="#fc0"/><path d="m40.7 27.4c-.1-.9-.3-1.7-.3-1.7s-1.4 3.5-.3 3.5h.2c1.2.4 2.3-3.7 2.3-3.7s-1.2.9-1.9 1.9z" fill="#9c3"/><path d="m40.1 22.1 2.3-4.1-2.4 3.4.9-5-1.1 4.5-.6-3.8.4 4.2-1.3-1.7 1.5 2.5z" fill="#baa794"/><path d="m39.8 23.9s1.7-3.3 3.4-2.4c-.6-.8-1.4-1.1-2.4-.5-1.3.9-1.1 2.4-1 2.9z" fill="#539b00"/><path d="m39.8 22.7s-1.2-2.3-2.4-1.7c.4-.6 1-.8 1.7-.3.9.6.7 1.6.7 2z" fill="#539b00"/><path d="m40.4 35.6s.4-4.6 3.1-5.3c-.9-.3-2.7-.2-3.4 1.3-.9 2.1-.1 3.5.3 4z" fill="#539b00"/><path d="m47.8 36h.7l-.4-18.6-.4-.1z" fill="#539b00"/><path d="m48.1 30.7c-1.2.6-3.3-4.8-2.7-5.1.7-.4 4.1 4.3 2.7 5.1z" fill="#fc0"/><path d="m46.9 26.5s.1 1.5.3 2.7c-.7-.5-1.5-.8-1.5-.8s1.8 3.3 2.5 2.5c0 0 .1-.1.1-.1 1-.8-1.4-4.3-1.4-4.3z" fill="#9c3"/><path d="m48 25.1c-1.3-.5 1.5-5.6 2.1-5.4.8.3-.6 6-2.1 5.4z" fill="#fc0"/><path d="m48.7 23.4c-.1-.9-.3-1.7-.3-1.7s-1.4 3.5-.3 3.5h.2c1.2.4 2.3-3.7 2.3-3.7s-1.2.9-1.9 1.9z" fill="#9c3"/><path d="m48.1 18.1 2.3-4.1-2.4 3.4.9-5-1.1 4.5-.6-3.8.4 4.2-1.3-1.7 1.5 2.5z" fill="#baa794"/><path d="m48 25.7s-1-4.8-3.2-4.1c.4-.9 1.8-.9 2.3-.3 1.4 1.7 1 3.7.9 4.4z" fill="#539b00"/><path d="m53.4 28.8s1-.7.4-1.6-1.8-.5-1.8-.5 1.3.4 1.4 2.1z" fill="#539b00"/><path d="m53.4 28.8s1-.7.4-1.6-1.8-.5-1.8-.5 1.3.4 1.4 2.1z" opacity=".2"/><path d="m48.1 31.1s2.7-4.6 5.7-4c-1-1.4-2.4-1.8-4.1-.8-2.2 1.5-1.8 4.1-1.6 4.8z" fill="#539b00"/><path d="m47.9 19.8s1.6-3.1 3.2-2.2c-.6-.8-1.3-1-2.3-.4-1.2.7-1 2.1-.9 2.6z" fill="#539b00"/><path d="m47.8 18.9s-1.2-2.3-2.4-1.7c.4-.6 1-.8 1.7-.3.9.6.7 1.7.7 2z" fill="#539b00"/><path d="m55.8 40h.7l-.4-18.6-.4-.1z" fill="#539b00"/><path d="m56.1 34.7c-1.2.6-3.3-4.8-2.7-5.1.7-.4 4.1 4.3 2.7 5.1z" fill="#fc0"/><path d="m54.9 30.5s.1 1.5.3 2.7c-.7-.5-1.5-.8-1.5-.8s1.8 3.3 2.5 2.5c0 0 .1-.1.1-.1 1-.8-1.4-4.3-1.4-4.3z" fill="#9c3"/><path d="m55.8 28.6c-1.2-.6 2.1-5.4 2.6-5.2.8.4-1.1 6-2.6 5.2z" fill="#fc0"/><path d="m56.8 26.8c0-.9-.2-1.9-.2-1.9s-1.3 2.6-.9 3.3c0 .2 0 .3.1.4 1.2 1 2.8-3.4 2.8-3.4s-1 .8-1.8 1.6z" fill="#9c3"/><path d="m56.1 22.1 2.3-4.1-2.4 3.4.9-5-1.1 4.5-.6-3.8.4 4.2-1.3-1.7 1.5 2.5z" fill="#baa794"/><path d="m61.4 32.8s1-.7.4-1.6-1.8-.4-1.8-.4 1.3.3 1.4 2z" fill="#539b00"/><path d="m61.4 32.8s1-.7.4-1.6-1.8-.4-1.8-.4 1.3.3 1.4 2z" opacity=".2"/><path d="m56.1 35.1s2.7-4.6 5.7-4c-1-1.4-2.4-1.8-4.1-.8-2.2 1.5-1.8 4.1-1.6 4.8z" fill="#539b00"/><path d="m56 23.9s-1.9-3.7-3.8-2.7c.7-.9 1.6-1.2 2.7-.5 1.5 1 1.2 2.6 1.1 3.2z" fill="#539b00"/><path d="m56.1 22.7s1.4-2.8 2.9-2c-.5-.7-1.2-.9-2-.4-1.2.7-1 2-.9 2.4z" fill="#539b00"/><path d="m56 37.5s-2.5-4.7-4.9-3.4c.9-1.2 2-1.6 3.4-.7 2 1.3 1.7 3.4 1.5 4.1z" fill="#539b00"/><path d="m56 29.5s-1.5-5.7-4.5-4.8c1.2-1.1 2.6-1.2 3.9.1 1.8 1.8.9 4 .6 4.7z" fill="#539b00"/><path d="m31.8 44h.7l-.4-18.6-.4-.1z" fill="#539b00"/><path d="m32.1 38.7c-1.2.6-3.3-4.8-2.7-5.1.7-.4 4.1 4.3 2.7 5.1z" fill="#fc0"/><path d="m30.9 34.5s.1 1.5.3 2.7c-.7-.5-1.5-.8-1.5-.8s1.8 3.3 2.5 2.5c0 0 .1-.1.1-.1 1-.8-1.4-4.3-1.4-4.3z" fill="#9c3"/><path d="m32 33.1c-1.3-.5 1.5-5.6 2.1-5.4.8.3-.6 6-2.1 5.4z" fill="#fc0"/><path d="m37.4 36.8s1-.7.4-1.6-1.8-.5-1.8-.5 1.3.4 1.4 2.1z" fill="#539b00"/><path d="m37.4 36.8s1-.7.4-1.6-1.8-.5-1.8-.5 1.3.4 1.4 2.1z" opacity=".2"/><path d="m32.1 39.1s2.7-4.6 5.7-4c-1-1.4-2.4-1.8-4.1-.8-2.2 1.5-1.8 4.1-1.6 4.8z" fill="#539b00"/><path d="m31.8 28.1s1.9-3.7 3.8-2.7c-.7-.9-1.6-1.2-2.7-.5-1.5 1-1.2 2.6-1.1 3.2z" fill="#539b00"/><path d="m31.7 32.6s-2-4.4-4-3.1c.7-1.1 1.7-1.4 2.9-.6 1.6 1.1 1.2 3 1.1 3.7z" fill="#539b00"/><path d="m32.7 31.4c-.1-.9-.3-1.7-.3-1.7s-1.4 3.5-.3 3.5h.2c1.2.4 2.3-3.7 2.3-3.7s-1.2.9-1.9 1.9z" fill="#9c3"/><path d="m47.8 44h.7l-.4-18.6-.4-.1z" fill="#539b00"/><path d="m48.1 39.5c-1.2.6-3.3-4.8-2.7-5.1.7-.5 4.1 4.3 2.7 5.1z" fill="#fc0"/><path d="m46.9 35.2s.1 1.5.3 2.7c-.7-.5-1.5-.8-1.5-.8s1.8 3.3 2.5 2.5c0 0 .1-.1.1-.1 1-.8-1.4-4.3-1.4-4.3z" fill="#9c3"/><path d="m48 34.2c-1.3-.5 1.5-5.6 2.1-5.4.8.3-.6 6-2.1 5.4z" fill="#fc0"/><path d="m48.7 32.5c-.1-.9-.3-1.7-.3-1.7s-1.4 3.5-.3 3.5h.2c1.2.4 2.3-3.7 2.3-3.7s-1.2.9-1.9 1.9z" fill="#9c3"/><path d="m48.1 26.1 2.3-4.1-2.4 3.4.9-5-1.1 4.5-.6-3.8.4 4.2-1.3-1.7 1.5 2.5z" fill="#baa794"/><path d="m44 32.6s-.7-.7-.3-1.5c.5-.8 1.3-.4 1.3-.4s-.9.3-1 1.9z" fill="#539b00"/><path d="m44 32.6s-.7-.7-.3-1.5c.5-.8 1.3-.4 1.3-.4s-.9.3-1 1.9z" opacity=".2"/><path d="m48 34.8s-2-4.3-4.2-3.7c.7-1.3 1.8-1.7 3-.7 1.6 1.3 1.3 3.7 1.2 4.4z" fill="#539b00"/><path d="m48.1 39.9s2.7-4.6 5.7-4c-1-1.4-2.4-1.8-4.1-.8-2.2 1.5-1.8 4-1.6 4.8z" fill="#539b00"/><path d="m48.2 27.2s-1.6-3-3.1-2.1c.5-.8 1.3-1 2.2-.4 1.2.7 1 2.1.9 2.5z" fill="#539b00"/><path d="m31.8 52h.7l-.4-18.6-.4-.1z" fill="#539b00"/><path d="m32.1 47.5c-1.2.6-3.3-4.8-2.7-5.1.7-.5 4.1 4.3 2.7 5.1z" fill="#fc0"/><path d="m30.9 43.2s.1 1.5.3 2.7c-.7-.5-1.5-.8-1.5-.8s1.8 3.3 2.5 2.5c0 0 .1-.1.1-.1 1-.8-1.4-4.3-1.4-4.3z" fill="#9c3"/><path d="m32 42.2c-1.3-.5 1.5-5.6 2.1-5.4.8.3-.6 6-2.1 5.4z" fill="#fc0"/><path d="m32.7 40.5c-.1-.9-.3-1.7-.3-1.7s-1.4 3.5-.3 3.5h.2c1.2.4 2.3-3.7 2.3-3.7s-1.2.9-1.9 1.9z" fill="#9c3"/><path d="m32.1 34.1 2.3-4.1-2.4 3.4.9-5-1.1 4.5-.6-3.8.4 4.2-1.3-1.7 1.5 2.5z" fill="#baa794"/><path d="m28 40.6s-.7-.7-.3-1.5c.5-.8 1.3-.4 1.3-.4s-.9.3-1 1.9z" fill="#539b00"/><path d="m28 40.6s-.7-.7-.3-1.5c.5-.8 1.3-.4 1.3-.4s-.9.3-1 1.9z" opacity=".2"/><path d="m32 42.8s-2-4.3-4.2-3.7c.7-1.3 1.8-1.7 3-.7 1.6 1.3 1.3 3.7 1.2 4.4z" fill="#539b00"/><path d="m32.1 47.9s2.7-4.6 5.7-4c-1-1.4-2.4-1.8-4.1-.8-2.2 1.5-1.8 4-1.6 4.8z" fill="#539b00"/><path d="m32.2 35.2s-1.6-3-3.1-2.1c.5-.8 1.3-1 2.2-.4 1.2.7 1 2.1.9 2.5z" fill="#539b00"/><path d="m32 50.8s-2.5-4.7-4.9-3.4c.9-1.2 2-1.6 3.4-.7 2 1.3 1.7 3.5 1.5 4.1z" fill="#539b00"/><path d="m39.8 48h.7l-.4-18.6-.4-.1z" fill="#539b00"/><path d="m40.1 42.7c-1.2.6-3.3-4.8-2.7-5.1.7-.4 4.1 4.3 2.7 5.1z" fill="#fc0"/><path d="m38.9 38.5s.1 1.5.3 2.7c-.7-.5-1.5-.8-1.5-.8s1.8 3.3 2.5 2.5c0 0 .1-.1.1-.1 1-.8-1.4-4.3-1.4-4.3z" fill="#9c3"/><path d="m39.8 36.6c-1.2-.6 2.1-5.4 2.6-5.2.8.4-1.1 6-2.6 5.2z" fill="#fc0"/><path d="m40.8 34.8c0-.9-.2-1.9-.2-1.9s-1.3 2.6-.9 3.3c0 .2 0 .3.1.4 1.2 1 2.8-3.4 2.8-3.4s-1 .8-1.8 1.6z" fill="#9c3"/><path d="m40.1 30.1 2.3-4.1-2.4 3.4.9-5-1.1 4.5-.6-3.8.4 4.2-1.3-1.7 1.5 2.5z" fill="#baa794"/><path d="m45.4 40.8s1-.7.4-1.6-1.8-.5-1.8-.5 1.3.4 1.4 2.1z" fill="#539b00"/><path d="m45.4 40.8s1-.7.4-1.6-1.8-.5-1.8-.5 1.3.4 1.4 2.1z" opacity=".2"/><path d="m40.1 43.1s2.7-4.6 5.7-4c-1-1.4-2.4-1.8-4.1-.8-2.2 1.5-1.8 4.1-1.6 4.8z" fill="#539b00"/><path d="m40 31.9s-1.9-3.7-3.8-2.7c.7-.9 1.6-1.2 2.7-.5 1.5 1 1.2 2.6 1.1 3.2z" fill="#539b00"/><path d="m40.1 30.7s1.4-2.8 2.9-2c-.5-.7-1.2-.9-2-.4-1.2.7-1 2-.9 2.4z" fill="#539b00"/><path d="m40 45.5s-2.5-4.7-4.9-3.4c.9-1.2 2-1.6 3.4-.7 2 1.3 1.7 3.4 1.5 4.1z" fill="#539b00"/><path d="m40 37.5s-1.5-5.7-4.5-4.8c1.2-1.1 2.6-1.2 3.9.1 1.8 1.8.9 4 .6 4.7z" fill="#539b00"/><path d="m23.8 48h.7l-.4-18.6-.4-.1z" fill="#539b00"/><path d="m24.1 42.7c-1.2.6-3.3-4.8-2.7-5.1.7-.4 4.1 4.3 2.7 5.1z" fill="#fc0"/><path d="m22.9 38.5s.1 1.5.3 2.7c-.7-.5-1.5-.8-1.5-.8s1.8 3.3 2.5 2.5c0 0 .1-.1.1-.1 1-.8-1.4-4.3-1.4-4.3z" fill="#9c3"/><path d="m24 37.1c-1.3-.5 1.5-5.6 2.1-5.4.8.3-.6 6-2.1 5.4z" fill="#fc0"/><path d="m24.7 35.4c-.1-.9-.3-1.7-.3-1.7s-1.4 3.5-.3 3.5h.2c1.2.4 2.3-3.7 2.3-3.7s-1.2.9-1.9 1.9z" fill="#9c3"/><path d="m24.1 30.1 2.3-4.1-2.4 3.4.9-5-1.1 4.5-.6-3.8.4 4.2-1.3-1.7 1.5 2.5z" fill="#baa794"/><path d="m20 35.5s-.7-.7-.3-1.5c.5-.8 1.3-.4 1.3-.4s-.9.3-1 1.9z" fill="#539b00"/><path d="m20 35.5s-.7-.7-.3-1.5c.5-.8 1.3-.4 1.3-.4s-.9.3-1 1.9z" opacity=".2"/><path d="m24 37.7s-2-4.3-4.2-3.7c.7-1.3 1.8-1.7 3-.7 1.6 1.3 1.3 3.7 1.2 4.4z" fill="#539b00"/><path d="m18.9 43.8s-1-.7-.4-1.6 1.8-.4 1.8-.4-1.3.3-1.4 2z" fill="#539b00"/><path d="m18.9 43.8s-1-.7-.4-1.6 1.8-.4 1.8-.4-1.3.3-1.4 2z" opacity=".2"/><path d="m24.3 46.2s-2.7-4.6-5.7-4c1-1.4 2.4-1.8 4.1-.8 2.2 1.5 1.7 4 1.6 4.8z" fill="#539b00"/><path d="m23.8 31.9s1.7-3.3 3.4-2.4c-.6-.8-1.4-1.1-2.4-.5-1.3.9-1.1 2.4-1 2.9z" fill="#539b00"/><path d="m23.8 30.7s-1.2-2.3-2.4-1.7c.4-.6 1-.8 1.7-.3.9.6.7 1.6.7 2z" fill="#539b00"/><path d="m24.4 43.6s.4-4.6 3.1-5.3c-.9-.3-2.7-.2-3.4 1.3-.9 2.1-.1 3.5.3 4z" fill="#539b00"/></svg>