<svg xmlns:xlink="http://www.w3.org/1999/xlink"  enable-background="new 0 0 40 24" height="24" viewBox="0 0 40 24" width="40" xmlns="http://www.w3.org/2000/svg"><g fill="#825012"><path d="m36 18-8 3-9 1-8-1-7-3-4-5v-3l5-5 7.1-2.7 8.4.1 4.3-.5 8.6 2.7 6.6 4.4v4z"/><path d="m11.3 20-6.7-2.8-3.6-4.6v-2.2l4.6-4.5 6.7-2.6 8.3.1 4.1-.5 8.2 2.6 6.1 4v3.1l-3.6 4.6-7.6 2.8-8.8 1z"/><path d="m11.3 20-6.7-2.8-3.6-4.6v-2.2l4.6-4.5 6.7-2.6 8.3.1 4.1-.5 8.2 2.6 6.1 4v3.1l-3.6 4.6-7.6 2.8-8.8 1z"/></g><path d="m38.1 10.1-2-1.4-2 .2-3.8 1.1 2.5-2.7-3.6-1.5-1.8.3-1.9 1.8-.4-3.1-3.2-.5-3.5.8-.8 1.9-2.2-1.7-2.8-.5-2.8.8.8 1.7-3.6-.4-2.5 1.2-1.4 2.2 2.7 1.6-3.7-.1-1.1.8 3.6 4.6 6.7 2.8 7.7 1 8.8-1 7.6-2.8 3.6-4.6v-.3l-2.3-.2z" fill="#baa794"/><path d="m32.9 5.5-8.2-2.6-4.2.5-8.3-.2-6.6 2.7-4.6 4.5v2.2l3.6 4.5 6.6 2.8 7.7 1 8.8-1 7.6-2.9 3.6-4.5v-3zm.3 10-4.6.6 1.9 1.9-1.6.4-2.6-1.6-.2 2.9-1.5-1.3-.8 1.5-3 .3-1.2-1.4-2.6 1.3-2-.2.5-1.8-3.5.5 1.8-1.4-5.1.6-.9-.8 2.6-1.9-6.4-1.2 5.6-1-1.1-2.3.3-1.1 4.1.9-.2-2.2h1.3l2.1 2.5 1.8-3.1 1.6-1.3 1 2.7 1.1-1.6 1.8-.8 1.3 2.8 1.9.1 3.3-.5-.9 3.3 4.9.5-1 1.8z" opacity=".1"/><path d="m32.9 5.5-8.2-2.6-4.1.5-8.3-.1-6.7 2.6-4.6 4.5v2.2l1.1-.8 3.7.1-2.7-1.6 1.4-2.2 2.5-1.2 3.6.4-.8-1.7 2.8-.8 2.8.5 2.2 1.7.8-1.9 3.5-.8 3.2.5.4 3.1 1.9-1.8 1.8-.3 3.6 1.5-2.5 2.7 3.8-1.1 2-.2 2 1.4-1.4 2 2.3.2v-2.8z" opacity=".1"/></svg>