<svg xmlns:xlink="http://www.w3.org/1999/xlink"  enable-background="new 0 0 40 24" height="24" viewBox="0 0 40 24" width="40" xmlns="http://www.w3.org/2000/svg"><path d="m37.1 19.2-6.6 3.1-11.3 1.7-6.8-.6-9.1-4.2-3.3-5.8 1.6-6.2 5.1-4.8 7.5-1.9 11.7.2 6.5 1.5 6.3 4 1.3 7.5z" fill="#baa794"/><path d="m37.1 19.2-6.6 3.1-11.3 1.7-6.8-.6-9.1-4.2-3.3-5.8 1.6-6.2 5.1-4.8 7.5-1.9 11.7.2 6.5 1.5 6.3 4 1.3 7.5z" opacity=".1"/><path d="m33.3 15.3-4.8 2.3-9.1 1.4-4.8-.4-7.5-3.3-2.5-4.5v-3.7l3.3-3.7 5.9-2 6 .1 4.9-.3 5.6 1.4 3.1 2.1 2.4 1.7v5.2z" fill="#baa794"/><path d="m32.1 14.4-5.9 2.3-6.7.8-6-.8-5.2-2.3-3-3.8v-2.4l3.8-3.8 5.3-2.2 6.2.2 3.2-.4 6.4 2.1 4.9 3.4v3.1z" fill="#825012"/><path d="m30.2 4.1-6.4-2.1-3.2.4-6.2-.2-5.3 2.2-3.8 3.8v2.4l3 3.8 4.8 2.1v-.9l1.8-1.8 2.5-1 4.5-.2 3.1 1.1 2.3 1.6v1l4.8-1.9 3-3.8v-3.1z" opacity=".1"/><path d="m30.2 4.1-6.4-2.1-3.2.4-6.2-.2-5.3 2.2-3.8 3.8v2.4l3 3.8.9.4v-.8l2.8-2.8 3.9-1.6 4.6.1 2.4-.3 4.7 1.6 3.6 2.5v1.3l.9-.4 3-3.8v-3.1z" opacity=".1"/><path d="m30.2 4.1-6.4-2.1-3.2.4-6.2-.2-5.3 2.2-3.8 3.8v2.4l1.6 2v-1.8l3.3-3.4 4.8-1.9 8.4-.3 5.7 1.9 4.4 3v2.5l1.6-2v-3.1z" opacity=".1"/><path d="m4.6 10.8-4.6 2.6 3.3 5.8 3.8-3.9z" opacity=".1"/><path d="m14.6 18.6-2.2 4.8 6.8.6.2-5z" opacity=".05"/><path d="m28.5 17.6 2 4.7 6.6-3.1-3.8-3.9z" opacity=".1"/><path d="m38.7 6.2 1.3 7.5-4.2-2.1v-5.2z" opacity=".05"/><path d="m1.6 7.2 3-.1 3.3-3.7-1.2-1z" opacity=".05"/><path d="m25.9.7-1.2.5-4.9.3-6-.1.4-.9z" opacity=".05"/></svg>