<svg xmlns:xlink="http://www.w3.org/1999/xlink"  enable-background="new 0 0 32 24" height="24" viewBox="0 0 32 24" width="32" xmlns="http://www.w3.org/2000/svg"><g fill="#539b00"><path d="m17 11.9h1.9s-.2-4.2 2.1-5.8c-2.6 1.2-2.7 4.9-2.7 4.9s.4-5.7-2.1-7c1.6 2.4 1.3 6.8 1.3 6.8s.2-2.9-1.9-3.2c1.4.7 1.4 4.3 1.4 4.3z"/><path d="m13 13.9h1.9s-.2-4.2 2.1-5.8c-2.6 1.2-2.7 4.9-2.7 4.9s.4-5.7-2.1-7c1.6 2.4 1.3 6.8 1.3 6.8s.2-2.9-1.9-3.2c1.4.7 1.4 4.3 1.4 4.3z"/><path d="m9 15.9h1.9s-.2-4.2 2.1-5.8c-2.6 1.2-2.7 4.9-2.7 4.9s.4-5.7-2.1-7c1.6 2.4 1.3 6.8 1.3 6.8s.2-2.9-1.9-3.2c1.4.7 1.4 4.3 1.4 4.3z"/><path d="m5 17.9h1.9s-.2-4.2 2.1-5.8c-2.6 1.2-2.7 4.9-2.7 4.9s.4-5.7-2.1-7c1.6 2.4 1.3 6.8 1.3 6.8s.2-2.9-1.9-3.2c1.4.7 1.4 4.3 1.4 4.3z"/><path d="m25 15.9h1.9s-.2-4.2 2.1-5.8c-2.6 1.2-2.7 4.9-2.7 4.9s.4-5.7-2.1-7c1.6 2.4 1.3 6.8 1.3 6.8s.2-2.9-1.9-3.2c1.4.7 1.4 4.3 1.4 4.3z"/><path d="m21 17.9h1.9s-.2-4.2 2.1-5.8c-2.6 1.2-2.7 4.9-2.7 4.9s.4-5.7-2.1-7c1.6 2.4 1.3 6.8 1.3 6.8s.2-2.9-1.9-3.2c1.4.7 1.4 4.3 1.4 4.3z"/><path d="m17 19.9h1.9s-.2-4.2 2.1-5.8c-2.6 1.2-2.7 4.9-2.7 4.9s.4-5.7-2.1-7c1.6 2.4 1.3 6.8 1.3 6.8s.2-2.9-1.9-3.2c1.4.7 1.4 4.3 1.4 4.3z"/><path d="m13 21.9h1.9s-.2-4.2 2.1-5.8c-2.6 1.2-2.7 4.9-2.7 4.9s.4-5.7-2.1-7c1.6 2.4 1.3 6.8 1.3 6.8s.2-2.9-1.9-3.2c1.4.7 1.4 4.3 1.4 4.3z"/></g></svg>