<svg xmlns:xlink="http://www.w3.org/1999/xlink"  enable-background="new 0 0 64 40" height="40" viewBox="0 0 64 40" width="64" xmlns="http://www.w3.org/2000/svg"><g fill="#539b00"><path d="m33 11.9h1.9s-.2-4.2 2.1-5.8c-2.6 1.2-2.7 4.9-2.7 4.9s.4-5.7-2.1-7c1.6 2.4 1.3 6.8 1.3 6.8s.2-2.9-1.9-3.2c1.4.7 1.4 4.3 1.4 4.3z"/><path d="m29 13.9h1.9s-.2-4.2 2.1-5.8c-2.6 1.2-2.7 4.9-2.7 4.9s.4-5.7-2.1-7c1.6 2.4 1.3 6.8 1.3 6.8s.2-2.9-1.9-3.2c1.4.7 1.4 4.3 1.4 4.3z"/><path d="m25 15.9h1.9s-.2-4.2 2.1-5.8c-2.6 1.2-2.7 4.9-2.7 4.9s.4-5.7-2.1-7c1.6 2.4 1.3 6.8 1.3 6.8s.2-2.9-1.9-3.2c1.4.7 1.4 4.3 1.4 4.3z"/><path d="m21 17.9h1.9s-.2-4.2 2.1-5.8c-2.6 1.2-2.7 4.9-2.7 4.9s.4-5.7-2.1-7c1.6 2.4 1.3 6.8 1.3 6.8s.2-2.9-1.9-3.2c1.4.7 1.4 4.3 1.4 4.3z"/><path d="m41 15.9h1.9s-.2-4.2 2.1-5.8c-2.6 1.2-2.7 4.9-2.7 4.9s.4-5.7-2.1-7c1.6 2.4 1.3 6.8 1.3 6.8s.2-2.9-1.9-3.2c1.4.7 1.4 4.3 1.4 4.3z"/><path d="m37 17.9h1.9s-.2-4.2 2.1-5.8c-2.6 1.2-2.7 4.9-2.7 4.9s.4-5.7-2.1-7c1.6 2.4 1.3 6.8 1.3 6.8s.2-2.9-1.9-3.2c1.4.7 1.4 4.3 1.4 4.3z"/><path d="m33 19.9h1.9s-.2-4.2 2.1-5.8c-2.6 1.2-2.7 4.9-2.7 4.9s.4-5.7-2.1-7c1.6 2.4 1.3 6.8 1.3 6.8s.2-2.9-1.9-3.2c1.4.7 1.4 4.3 1.4 4.3z"/><path d="m29 21.9h1.9s-.2-4.2 2.1-5.8c-2.6 1.2-2.7 4.9-2.7 4.9s.4-5.7-2.1-7c1.6 2.4 1.3 6.8 1.3 6.8s.2-2.9-1.9-3.2c1.4.7 1.4 4.3 1.4 4.3z"/><path d="m17 19.9h1.9s-.2-4.2 2.1-5.8c-2.6 1.2-2.7 4.9-2.7 4.9s.4-5.7-2.1-7c1.6 2.4 1.3 6.8 1.3 6.8s.2-2.9-1.9-3.2c1.4.7 1.4 4.3 1.4 4.3z"/><path d="m13 21.9h1.9s-.2-4.2 2.1-5.8c-2.6 1.2-2.7 4.9-2.7 4.9s.4-5.7-2.1-7c1.6 2.4 1.3 6.8 1.3 6.8s.2-2.9-1.9-3.2c1.4.7 1.4 4.3 1.4 4.3z"/><path d="m9 23.9h1.9s-.2-4.2 2.1-5.8c-2.6 1.2-2.7 4.9-2.7 4.9s.4-5.7-2.1-7c1.6 2.4 1.3 6.8 1.3 6.8s.2-2.9-1.9-3.2c1.4.7 1.4 4.3 1.4 4.3z"/><path d="m5 25.9h1.9s-.2-4.2 2.1-5.8c-2.6 1.2-2.7 4.9-2.7 4.9s.4-5.7-2.1-7c1.6 2.4 1.3 6.8 1.3 6.8s.2-2.9-1.9-3.2c1.4.7 1.4 4.3 1.4 4.3z"/><path d="m25 23.9h1.9s-.2-4.2 2.1-5.8c-2.6 1.2-2.7 4.9-2.7 4.9s.4-5.7-2.1-7c1.6 2.4 1.3 6.8 1.3 6.8s.2-2.9-1.9-3.2c1.4.7 1.4 4.3 1.4 4.3z"/><path d="m21 25.9h1.9s-.2-4.2 2.1-5.8c-2.6 1.2-2.7 4.9-2.7 4.9s.4-5.7-2.1-7c1.6 2.4 1.3 6.8 1.3 6.8s.2-2.9-1.9-3.2c1.4.7 1.4 4.3 1.4 4.3z"/><path d="m17 27.9h1.9s-.2-4.2 2.1-5.8c-2.6 1.2-2.7 4.9-2.7 4.9s.4-5.7-2.1-7c1.6 2.4 1.3 6.8 1.3 6.8s.2-2.9-1.9-3.2c1.4.7 1.4 4.3 1.4 4.3z"/><path d="m13 29.9h1.9s-.2-4.2 2.1-5.8c-2.6 1.2-2.7 4.9-2.7 4.9s.4-5.7-2.1-7c1.6 2.4 1.3 6.8 1.3 6.8s.2-2.9-1.9-3.2c1.4.7 1.4 4.3 1.4 4.3z"/><path d="m49 20h1.9s-.2-4.2 2.1-5.8c-2.6 1.2-2.7 4.9-2.7 4.9s.4-5.7-2.1-7c1.6 2.4 1.3 6.8 1.3 6.8s.2-2.9-1.9-3.2c1.4.7 1.4 4.3 1.4 4.3z"/><path d="m45 22h1.9s-.2-4.2 2.1-5.8c-2.6 1.2-2.7 4.9-2.7 4.9s.4-5.7-2.1-7c1.6 2.4 1.3 6.8 1.3 6.8s.2-2.9-1.9-3.2c1.4.7 1.4 4.3 1.4 4.3z"/><path d="m41 24h1.9s-.2-4.2 2.1-5.8c-2.6 1.2-2.7 4.9-2.7 4.9s.4-5.7-2.1-7c1.6 2.4 1.3 6.8 1.3 6.8s.2-2.9-1.9-3.2c1.4.7 1.4 4.3 1.4 4.3z"/><path d="m37 26h1.9s-.2-4.2 2.1-5.8c-2.6 1.2-2.7 4.9-2.7 4.9s.4-5.7-2.1-7c1.6 2.4 1.3 6.8 1.3 6.8s.2-2.9-1.9-3.2c1.4.7 1.4 4.3 1.4 4.3z"/><path d="m57 24h1.9s-.2-4.2 2.1-5.8c-2.6 1.2-2.7 4.9-2.7 4.9s.4-5.7-2.1-7c1.6 2.4 1.3 6.8 1.3 6.8s.2-2.9-1.9-3.2c1.4.7 1.4 4.3 1.4 4.3z"/><path d="m53 26h1.9s-.2-4.2 2.1-5.8c-2.6 1.2-2.7 4.9-2.7 4.9s.4-5.7-2.1-7c1.6 2.4 1.3 6.8 1.3 6.8s.2-2.9-1.9-3.2c1.4.7 1.4 4.3 1.4 4.3z"/><path d="m49 28h1.9s-.2-4.2 2.1-5.8c-2.6 1.2-2.7 4.9-2.7 4.9s.4-5.7-2.1-7c1.6 2.4 1.3 6.8 1.3 6.8s.2-2.9-1.9-3.2c1.4.7 1.4 4.3 1.4 4.3z"/><path d="m45 30h1.9s-.2-4.2 2.1-5.8c-2.6 1.2-2.7 4.9-2.7 4.9s.4-5.7-2.1-7c1.6 2.4 1.3 6.8 1.3 6.8s.2-2.9-1.9-3.2c1.4.7 1.4 4.3 1.4 4.3z"/><path d="m33 28h1.9s-.2-4.2 2.1-5.8c-2.6 1.2-2.7 4.9-2.7 4.9s.4-5.7-2.1-7c1.6 2.4 1.3 6.8 1.3 6.8s.2-2.9-1.9-3.2c1.4.7 1.4 4.3 1.4 4.3z"/><path d="m29 30h1.9s-.2-4.2 2.1-5.8c-2.6 1.2-2.7 4.9-2.7 4.9s.4-5.7-2.1-7c1.6 2.4 1.3 6.8 1.3 6.8s.2-2.9-1.9-3.2c1.4.7 1.4 4.3 1.4 4.3z"/><path d="m25 32h1.9s-.2-4.2 2.1-5.8c-2.6 1.2-2.7 4.9-2.7 4.9s.4-5.7-2.1-7c1.6 2.4 1.3 6.8 1.3 6.8s.2-2.9-1.9-3.2c1.4.7 1.4 4.3 1.4 4.3z"/><path d="m21 34h1.9s-.2-4.2 2.1-5.8c-2.6 1.2-2.7 4.9-2.7 4.9s.4-5.7-2.1-7c1.6 2.4 1.3 6.8 1.3 6.8s.2-2.9-1.9-3.2c1.4.7 1.4 4.3 1.4 4.3z"/><path d="m41 32h1.9s-.2-4.2 2.1-5.8c-2.6 1.2-2.7 4.9-2.7 4.9s.4-5.7-2.1-7c1.6 2.4 1.3 6.8 1.3 6.8s.2-2.9-1.9-3.2c1.4.7 1.4 4.3 1.4 4.3z"/><path d="m37 34h1.9s-.2-4.2 2.1-5.8c-2.6 1.2-2.7 4.9-2.7 4.9s.4-5.7-2.1-7c1.6 2.4 1.3 6.8 1.3 6.8s.2-2.9-1.9-3.2c1.4.7 1.4 4.3 1.4 4.3z"/><path d="m33 36h1.9s-.2-4.2 2.1-5.8c-2.6 1.2-2.7 4.9-2.7 4.9s.4-5.7-2.1-7c1.6 2.4 1.3 6.8 1.3 6.8s.2-2.9-1.9-3.2c1.4.7 1.4 4.3 1.4 4.3z"/><path d="m29 38h1.9s-.2-4.2 2.1-5.8c-2.6 1.2-2.7 4.9-2.7 4.9s.4-5.7-2.1-7c1.6 2.4 1.3 6.8 1.3 6.8s.2-2.9-1.9-3.2c1.4.7 1.4 4.3 1.4 4.3z"/></g></svg>