<svg xmlns:xlink="http://www.w3.org/1999/xlink"  enable-background="new 0 0 160 240" height="240" viewBox="0 0 160 240" width="160" xmlns="http://www.w3.org/2000/svg"><path d="m59.3 196.6c-13.3 7.2-42.2 20.1-22.3 32.2 18.5 11.3 47.9-7.1 61-14 19.3-10.3 38.7-24.2 26.9-31.6-12.2-7.5-40.5-.2-65.6 13.4z" opacity=".2"/><path d="m105.3 183.7c0 1.1-.6 2.8 1.8 3.6 2.3.8 5.9-1.5 6.2-2.3s-2-2.9-2-2.9z" fill="#2d3134"/><path d="m98.9 143.3c1.5 4.9 4 22.2 4.4 26.1s1.2 14.4 2.1 15.2c.9.9 3.8.8 5-.1s1.7-1.1 1.4-2.3-2.4-17.4-2.7-21.2 1.7-28 1.7-28z" fill="#825012"/><path d="m98.9 143.3c1.5 4.9 4 22.2 4.4 26.1s1.2 14.4 2.1 15.2c.9.9 3.8.8 5-.1s1.7-1.1 1.4-2.3-2.4-17.4-2.7-21.2 1.7-28 1.7-28z" opacity=".2"/><path d="m116.9 190.7c-.1.8 0 2.8 2.6 3.4s5.4-1.4 5.4-2.5-2.2-2.9-2.2-2.9z" fill="#2d3134"/><path d="m50.5 228.4c-.1.8-.8 2.2 0 3 1.3 1.2 5.3 1.3 6.9.6 1.6-.8 1.8-1.3 1.6-2s-.9-2.3-.9-2.3z" fill="#2d3134"/><path d="m31.9 216.2c-.7 1.9-.1 3.3 1 3.6 3.8 1.3 7.6-.2 7.5-1.4 0-.5-1.7-3-1.7-3z" fill="#2d3134"/><path d="m122.9 53c3.4-4.1 12.8-4.5 16.8-1.1 3.9 3.4 8 5.1 9.7 6s3.9 5.9.6 8.9c-3.4 3-10.5 5.7-11.8 8.3s-3.5 8.9-5.3 16.3-3.8 15.5-3.6 18.1.2 13.1-1.2 20.9c-1.5 7.8-6.9 27.4-7 31.1s1.1 20.5 2 24.2 1.1 4.2.5 5.2c-.6 1.1-5.7 2.8-6.5 1.1-.8-1.8-.9-7.8-1-12s-3.6-27.3-4.5-30.5-3.6-8-3.6-8-6.7 6-9.8 7.5c-4.2 2-15.6 9.3-15.6 9.3s-4.6 13.2-9.8 20.3-12 17.3-13.9 24.5c-1.9 7.3.2 23.7-.3 25.4-.6 1.7-4.7 2.8-7 1.8s-1-5.4-1.1-8.7c-.1-3.4-2.4-24.7-2.1-26.6s7.1-14.9 6.4-19.4-7.1-17.1-8.4-18.1c-1.2-1-8.7-11.1-8.7-20.8s2.8-19.8 11.1-25.4c4.5-3.1 19.2-5.8 29.2-7.9 9.9-2.1 28.1-10.1 31.8-17.6 3.4-7.7 8.1-26.8 13.1-32.8z" fill="#825012"/><path d="m128 55c2.2-4.9-6.9-9.8-15.3-10.4 1.9 5.8 11.2 19.7 15.3 10.4z" fill="#825012"/><path d="m149.4 57.9c-.3-.1-.6-.3-1-.5.9 2.6 1.2 6.7 1.1 9.8.2-.1.3-.3.5-.4 3.3-3 1.1-8-.6-8.9z" fill="#baa794"/><path d="m39.1 133.3c-2.3 7.7-4.1 30-5.2 35.3s-2.2 7-2.5 8.9c-.2 1.9.5 23.7.4 27.1s-.9 12 .6 12.7c1.5.8 6.8 1.6 7.1-.4.2-2-1-13.3-.9-17.3s2.3-21.6 8.4-32.6c6.1-10.9 9.2-17 9.2-17z" fill="#825012"/><path d="m39.1 133.3c-2.3 7.7-4.1 30-5.2 35.3s-2.2 7-2.5 8.9c-.2 1.9.5 23.7.4 27.1s-.9 12 .6 12.7c1.5.8 6.8 1.6 7.1-.4.2-2-1-13.3-.9-17.3s2.3-21.6 8.4-32.6c6.1-10.9 9.2-17 9.2-17z" opacity=".2"/><path d="m43.7 159c3-2 4.5-1.2 4.5-1.2l1.2 4.7c4.5-8.1 6.7-12.5 6.7-12.5l-17-16.8c-2.3 7.7-4.1 30-5.2 35.3-1.1 5.2-2.2 7-2.5 8.9-.2 1.9.5 23.7.4 27.1s-.9 12 .6 12.7c.5.3 1.6.7 2.7.9-.2-9.4-.9-32.3.2-37.6 1.6-6.9 5.4-19.5 8.4-21.5z" fill="#baa794"/><path d="m64.9 135.9c-9.7-15.6-18.8-16.1-24.9-13.8-1.7 4.4-2.5 9.4-2.5 14.3 0 9.7 7.5 19.8 8.7 20.8.1.1.3.3.5.6 1-.2 1.6.1 1.6.1l1.1 4.6c2.2 4.3 4.8 10 5.2 12.8.8 4.6-6 17.5-6.4 19.4-.3 1.9 2 23.3 2.1 26.6.1 3.4-1.2 7.7 1.1 8.7.6.3 1.4.4 2.1.4-.5-8.1-2.2-31.1-.5-34.6 2.3-4.3 22.2-43.1 11.9-59.9z" fill="#baa794"/><path d="m49.9 115.9c-2.9-2.3-10 .6-13.7 7.8-1.6 3.1-3.1 11.3.1 11.1s8-9 9.8-10.7c3.6-3.5 4.8-7.4 3.8-8.2z" fill="#825012"/><path d="m148 57.4c-.6.1.2 1.3 1.3 1.7s1.5.6 1.5.6-.5-2.5-2.8-2.3z" fill="#2d3134"/><g fill="#baa794"><ellipse cx="107.9" cy="94" rx="2.3" ry="1.2" transform="matrix(.7959 -.6054 .6054 .7959 -34.9 84.5223)"/><ellipse cx="68.4" cy="109.3" rx="2.3" ry="1.2" transform="matrix(.9523 -.3052 .3052 .9523 -30.0935 26.1008)"/><ellipse cx="53.7" cy="112.6" rx="2.3" ry="1.2" transform="matrix(.9054 -.4246 .4246 .9054 -42.7361 33.4678)"/><ellipse cx="80.2" cy="110.2" rx="2.3" ry="1.2" transform="matrix(.9331 -.3595 .3595 .9331 -34.2621 36.1855)"/><ellipse cx="93.2" cy="101.2" rx="2.3" ry="1.2" transform="matrix(.9331 -.3595 .3595 .9331 -30.1665 40.257)"/><ellipse cx="90.7" cy="109.5" rx="2.3" ry="1.2" transform="matrix(.9331 -.3595 .3595 .9331 -33.2891 39.9158)"/><ellipse cx="100.4" cy="111.7" rx="2.3" ry="1.2" transform="matrix(.8507 -.5257 .5257 .8507 -43.7303 69.4865)"/><ellipse cx="110.1" cy="103.9" rx="2.3" ry="1.2" transform="matrix(.7203 -.6936 .6936 .7203 -41.2647 105.408)"/><ellipse cx="100.8" cy="104" rx="2.3" ry="1.2" transform="matrix(.9331 -.3595 .3595 .9331 -30.6299 43.2033)"/><ellipse cx="75.1" cy="118.6" rx="2.3" ry="1.2" transform="matrix(.9536 -.301 .301 .9536 -32.2234 28.0895)"/><ellipse cx="82.3" cy="128.1" rx="2.3" ry="1.2" transform="matrix(.9331 -.3595 .3595 .9331 -40.5483 38.1368)"/><ellipse cx="90.7" cy="119.2" rx="2.3" ry="1.2" transform="matrix(.9331 -.3595 .3595 .9331 -36.7995 40.5686)"/><ellipse cx="67.5" cy="127.3" rx="2.3" ry="1.2" transform="matrix(.9427 -.3338 .3338 .9427 -38.6046 29.8291)"/><ellipse cx="59.9" cy="120.6" rx="2.3" ry="1.2" transform="matrix(.9171 -.3986 .3986 .9171 -43.0981 33.8585)"/></g><path d="m130.8 57.8c2.1-4.6 4.9-6.9 8.5-7.9 3.6-1.1 7-.7 7-.7s-3.1 8.7-7.1 10.7c-6.3 3.2-8.4-2.1-8.4-2.1z" fill="#825012"/><path d="m130.8 57.8c2.1-4.6 4.9-6.9 8.5-7.9 3.6-1.1 7-.7 7-.7s-3.1 8.7-7.1 10.7c-6.3 3.2-8.4-2.1-8.4-2.1z" opacity=".2"/></svg>