<?xml version="1.0" encoding="utf-8"?>
<!-- Generator: Adobe Illustrator 18.1.0, SVG Export Plug-In . SVG Version: 6.00 Build 0)  -->
<svg version="1.1" id="Layer_1" xmlns="http://www.w3.org/2000/svg" xmlns:xlink="http://www.w3.org/1999/xlink" x="0px" y="0px"
	 viewBox="0 0 240 320" enable-background="new 0 0 240 320" xml:space="preserve">
<g>
	<path opacity="0.2" d="M90.3,262.8c-17.4,9.4-55.1,26.3-29.2,42.1c24.2,14.8,57.6-6.3,74.7-15.4c25.2-13.4,50.5-31.6,35.1-41.2
		C155.2,238.4,123.1,245,90.3,262.8z"/>
	<path fill="#2D3134" d="M145.4,248.9c0,1.5-0.8,3.6,2.3,4.7c3.1,1,7.7-1.9,8.1-3c0.4-1-2.7-3.8-2.7-3.8L145.4,248.9z"/>
	<path fill="#762C07" d="M137.8,199.5c1.9,6.4,5.3,29,5.7,34.1c0.4,5.1,0.9,15.5,2,16.6c1.2,1.2,4.9,1,6.5-0.1
		c1.6-1.2,2.2-1.5,1.8-3.1s-2.5-19.4-2.8-24.4c-0.3-5,2.2-36.6,2.2-36.6L137.8,199.5z"/>
	<path opacity="0.2" d="M137.8,199.5c1.9,6.4,5.3,29,5.7,34.1c0.4,5.1,0.9,15.5,2,16.6c1.2,1.2,4.9,1,6.5-0.1
		c1.6-1.2,2.2-1.5,1.8-3.1s-2.5-19.4-2.8-24.4c-0.3-5,2.2-36.6,2.2-36.6L137.8,199.5z"/>
	<path fill="#2D3134" d="M160.6,258.1c-0.1,1,0,3.6,3.4,4.4c3.4,0.7,7.1-1.9,7.1-3.3c0-1.4-2.8-3.8-2.8-3.8L160.6,258.1z"/>
	<path fill="#2D3134" d="M78.8,304.3c-0.1,1-1,2.9,0,3.9c1.6,1.6,7,1.8,9,0.7c2-1,2.3-1.8,2-2.6c-0.3-0.9-1.2-3.1-1.2-3.1
		L78.8,304.3z"/>
	<path fill="#2D3134" d="M54.6,288.4c-0.9,2.5-0.1,4.3,1.3,4.7c4.9,1.6,10-0.2,9.8-1.8c-0.1-0.6-2.2-3.9-2.2-3.9L54.6,288.4z"/>
	<path fill="#762C07" d="M169.1,81.5c4.5-5.4,16.8-5.8,21.9-1.5c5.1,4.4,10.5,6.7,12.7,7.9c2.2,1.2,5.1,7.7,0.7,11.7
		s-13.7,7.4-15.5,10.8c-1.8,3.4-4.6,11.6-7,21.3c-2.3,9.6-5,20.3-4.7,23.6c0.3,3.4,0.3,17.1-1.6,27.3c-1.9,10.2-9,35.7-9.2,40.5
		c-0.1,4.8,0.7,23.5,1.9,28.3c1.2,4.8,1.4,5.5,0.7,6.8c-0.8,1.4-7.4,3.7-8.4,1.4s-1.2-10.2-1.3-15.6c-0.1-5.4-3.9-32.4-5.1-36.6
		c-1.2-4.2-4.7-10.5-4.7-10.5s-8.7,7.8-12.8,9.8c-5.5,2.6-15.5,9.2-15.5,9.2s-6,17.2-12.8,26.5c-6.9,9.3-16.3,19.3-18.8,28.7
		c-2.5,9.5,0.3,30.9-0.4,33.1c-0.7,2.2-6.1,3.6-9.2,2.3c-3.1-1.3-1.3-7-1.5-11.4c-0.1-4.4-2.5-29-2-31.5c0.4-2.5,9.3-19.4,8.3-25.4
		s-9.3-22.3-10.9-23.6s-11.4-14.4-11.4-27.1s3.6-25.8,14.4-33.1c5.9-4,25.1-7.6,38.1-10.4s31.8-10.2,36.6-20S162.6,89.3,169.1,81.5z
		"/>
	<path fill="#762C07" d="M169.7,87.3c1-4.8-9.3-9-17-5.2C156,84,168,96.3,169.7,87.3z"/>
	<path fill="#825012" d="M203.7,87.9c-0.3-0.2-0.8-0.4-1.3-0.7c1.2,3.4,1.6,8.7,1.4,12.9c0.2-0.2,0.4-0.4,0.6-0.5
		C208.8,95.6,205.9,89.1,203.7,87.9z"/>
	<path fill="#762C07" d="M64.6,183.4c-3.1,10.1-5.4,39.2-6.9,46.1c-1.5,6.9-2.9,9.2-3.2,11.7c-0.3,2.5,0,27.7-0.1,32.1
		s-1.2,15.6,0.7,16.6s8.9,2.1,9.2-0.5s-1.3-17.4-1.2-22.6s3.6-24.9,11.7-39.2c8-14.3,12-22.2,12-22.2L64.6,183.4z"/>
	<path opacity="0.2" d="M64.6,183.4c-3.1,10.1-5.4,39.2-6.9,46.1c-1.5,6.9-2.9,9.2-3.2,11.7c-0.3,2.5,0,27.7-0.1,32.1
		s-1.2,15.6,0.7,16.6s8.9,2.1,9.2-0.5s-1.3-17.4-1.2-22.6s3.6-24.9,11.7-39.2c8-14.3,12-22.2,12-22.2L64.6,183.4z"/>
	<path fill="#825012" d="M70.7,217c3.9-2.6,5.9-1.5,5.9-1.5l1.5,6.1c5.8-10.6,8.7-16.3,8.7-16.3l-22.2-21.9
		c-3.1,10.1-5.4,39.2-6.9,46.1s-2.9,9.2-3.2,11.7c-0.3,2.5,0,27.7-0.1,32.1c-0.1,4.4-1.2,15.6,0.7,16.6c0.7,0.4,2.1,0.9,3.6,1.2
		c-0.2-12.2-0.5-38.8,1-45.9C61.7,236.1,66.7,219.7,70.7,217z"/>
	<path fill="#825012" d="M98.2,186.8c-12.6-20.4-24.5-21-32.5-18c-2.3,5.8-3.2,12.3-3.2,18.6c0,12.7,9.8,25.8,11.4,27.1
		c0.1,0.1,0.4,0.4,0.6,0.7c1.3-0.2,2,0.2,2,0.2l1.5,6c2.9,5.6,6.2,13.1,6.8,16.7c1,6-7.9,22.9-8.3,25.4c-0.4,2.5,1.9,27.1,2,31.5
		c0.1,4.4-1.6,10.1,1.5,11.4c0.8,0.3,1.8,0.5,2.8,0.5c-0.7-10.6-2.2-37.3,0.1-41.8C85.8,259.5,111.8,208.7,98.2,186.8z"/>
	<path fill="#825012" d="M174.1,79.6c-1.4-1.1-19.1-12.1-31.3-21.8c-0.3-1.8-0.4-4-0.2-6.3c0.8-8.7,8.8-16.8,8.8-16.8
		s-4.1,2.3-8.1,6.8c-3.1,3.5-5.1,9.2-5.8,11.7c-2.4-2.2-4.3-4.3-5.3-5.9c-1.3-5.9,1.4-11.5,2.6-13.6c-2.1,1.4-4.5,5.1-5.4,8.1
		c-3.4-7.4-5-15-0.8-29c-3.9,6.6-13.4,27.1,8.6,46c4.4,3.8,8.2,7,11.6,9.8c-3-0.5-13-2.5-18.2-6.6c-6.2-4.8-10.6-12.3-10.6-12.3
		s2,15,17.8,20.6c7.1,2.5,13.7,3.8,18.4,4.4c8.5,6.9,12.6,9.8,14.2,10.5C172.7,86.6,176.2,81.2,174.1,79.6z"/>
	<path fill="#825012" d="M186.2,85.5c-1.2-1.4-16.6-15.3-26.8-27.1c0.1-1.8,0.3-4,0.9-6.3c2.3-8.4,11.7-14.9,11.7-14.9
		s-4.4,1.5-9.2,5.2c-3.7,2.8-6.6,8.1-7.9,10.5c-2-2.6-3.5-5-4.2-6.8c-0.2-6,3.4-11,5-12.9c-2.3,1-5.4,4.2-6.8,7
		c-2-7.9-2.2-15.6,4.4-28.7c-5,5.8-18.1,24.2,0.1,46.8c3.6,4.5,6.8,8.4,9.6,11.8c-2.9-1.1-12.3-4.8-16.8-9.8
		c-5.2-5.9-8.2-14.1-8.2-14.1s-0.7,15.1,13.8,23.5c6.6,3.8,12.8,6.2,17.3,7.6c7.1,8.3,10.6,11.9,12.1,13
		C183.6,92.1,187.9,87.5,186.2,85.5z"/>
	<path fill="#762C07" d="M79.9,162.9c-3.8-3-13.1,0.8-17.9,10.1c-2.1,4-4.1,14.7,0.1,14.4s10.5-11.8,12.8-14
		C79.6,169,81.2,163.9,79.9,162.9z"/>
	<path fill="#2D3134" d="M202,87.3c-0.8,0.1,0.3,1.7,1.8,2.2s2,0.7,2,0.7S204.9,87,202,87.3z"/>
</g>
</svg>
