<svg xmlns:xlink="http://www.w3.org/1999/xlink"  enable-background="new 0 0 160 240" height="240" viewBox="0 0 160 240" width="160" xmlns="http://www.w3.org/2000/svg"><path d="m136.6 86.3c6.8 3.1 6.5-14.6 6.7-16-3.3 1.8-15.9 11.8-6.7 16z" fill="#825012"/><path d="m54.5 216.6c-13.7-7.4-46.4-22.1-26-34.6 19-11.6 48.4 6.4 61.9 13.6 19.8 10.5 39.7 24.8 27.6 32.4-12.5 7.7-37.7 2.5-63.5-11.4z" opacity=".2"/><path d="m45.5 182s-.7 3.4.8 4.4 4.9 2.2 6.8 1.2-.8-5.7-.8-5.7z" fill="#2d3134"/><path d="m42.8 145.8s1.6 26.4 2 30.2-.5 7.9 1.3 8.6c1.7.7 6.8-1.1 6.5-2.2-.9-2.9-2.3-19.6-1.8-24s5.1-19.6 5.1-19.6z" fill="#825012"/><path d="m42.8 145.8s1.6 26.4 2 30.2-.5 7.9 1.3 8.6c1.7.7 6.8-1.1 6.5-2.2-.9-2.9-2.3-19.6-1.8-24s5.1-19.6 5.1-19.6z" opacity=".2"/><path d="m38.1 94c-5.5-2.3-12.1.7-12.9 6.6s9.2-1.4 9.2-1.4z" fill="#825012"/><path d="m112.5 218.6s.2 3.2.9 3.5 5.7 1.1 7 .5c1.2-.6-1-5.1-1-5.1z" fill="#2d3134"/><path d="m94 223.5s-.5 2.7 1 3.4c1.6.7 5.7 1 6.6.5s-.6-4.4-.6-4.4z" fill="#2d3134"/><path d="m23.5 192.9c-.1.7-.4 2.5 2.1 3.9s4.4 1.4 5.7.7c1.2-.7-.7-5.1-.7-5.1l-6.7.4h-.4z" fill="#2d3134"/><path d="m106.9 109c-3.1 2.9-17.1.7-26.7-6.3s-28-20.6-43.2-9.8-6.3 26.3-8 38.3-3.5 18.6-4.5 20.9-1.5 4.8-1.5 10.4-.5 30 .2 31.1c.7 1 7.2 1.4 7.8-.3.4-1.1-.7-9.6-.1-15.7.3-3.3-.2-13.6 5.3-19.7s9.6-12.7 9.6-12.7 10.5 5.6 18.5 8.5c8 3 16 6.2 16 6.2s7.7 20.2 8.4 22.3 3.4 19 3.9 27 0 14.3.9 15 7.5.7 7.5-1.2-2.4-18.6-2.1-27.2c.3-8.5 3.5-27 4.1-28.4s15.7-4 18.8-13.1 4.2-22.3 6.1-27 5.7-12.9 5.7-12.9 7.9 4.4 13.3 3.2 4.9-8.2 1.6-13.1-5.4-11.4-6.1-12.8-.3-9.2-6.4-11c-6.1-1.7-16.6.3-18.8 6.8s-6.3 17.9-10.3 21.5z" fill="#825012"/><path d="m119.9 90.6c3-7.6-16.3-6.3-17.8-6.5 2.1 3.5 13.7 16.8 17.8 6.5z" fill="#825012"/><path d="m126.2 98s1-1.7 3.1-1.6c2.2.1 3.3 2.2 3.3 2.2s-1.4 1.9-3.2 1.7c-1.8-.1-3.2-2.3-3.2-2.3z" fill="#2d3134"/><path d="m138.8 116.8c2.7 1 5.9 1.8 8.4 1.2 5.5-1.3 5-8.4 1.6-13.4-.1-.1-.2-.3-.3-.5-3.1.4-7 1.2-8.5 5.6-.9 2.3-1.1 4.8-1.2 7.1z" fill="#baa794"/><path d="m148.7 108c-1.5.4-3.9 0-3.5 1.9s2.5 1.5 3.5 1.8c.5.2 1.2 1.7 1.2 1.7s.3-1.8 1-2.5.5-3.2 0-3.4c-.6-.2-1.6.3-2.2.5z" fill="#2d3134"/><path d="m104 163.9s5.8 28.4 6.6 37.1 1.3 18 2.1 18.7 7.6.2 7.4-1.3-2-13.5-2.8-20.7.6-24.7.9-29.6c.2-4.9 3.4-14.5 3.4-14.5z" fill="#825012"/><path d="m104 163.9s5.8 28.4 6.6 37.1 1.3 18 2.1 18.7 7.6.2 7.4-1.3-2-13.5-2.8-20.7.6-24.7.9-29.6c.2-4.9 3.4-14.5 3.4-14.5z" opacity=".2"/><g fill="#baa794"><path d="m121.9 154.3c3.1-9.1 4.2-22.3 6.1-27s5.7-12.9 5.7-12.9l-8.5-6.3s-10.7 17.9-13.7 25.3-8.4 15.6-8.8 22.1.3 11.9.3 11.9c.6-1.4 15.8-4 18.9-13.1z"/><ellipse cx="57" cy="92.3" rx="2.3" ry="1.2" transform="matrix(.9865 .1639 -.1639 .9865 15.8907 -8.097)"/><ellipse cx="59.6" cy="98.5" rx="2.3" ry="1.2" transform="matrix(.9865 .1639 -.1639 .9865 16.9446 -8.4283)"/><ellipse cx="49.7" cy="96" rx="2.3" ry="1.2" transform="matrix(.9987 -.0507727 .0507727 .9987 -4.8082 2.6447)"/><ellipse cx="39.7" cy="97.3" rx="2.3" ry="1.2" transform="matrix(.9952 -.09743626 .09743626 .9952 -9.2958 4.3354)"/><ellipse cx="63.2" cy="107" rx="2.3" ry="1.2" transform="matrix(.9865 .1639 -.1639 .9865 18.3917 -8.9173)"/><ellipse cx="70.4" cy="100.2" rx="2.3" ry="1.2" transform="matrix(.9865 .1639 -.1639 .9865 17.3742 -10.1799)"/><ellipse cx="72" cy="106.1" rx="2.3" ry="1.2" transform="matrix(.9865 .1639 -.1639 .9865 18.359 -10.3648)"/><ellipse cx="78.8" cy="114.4" rx="2.3" ry="1.2" transform="matrix(.9865 .1639 -.1639 .9865 19.8104 -11.3667)"/><ellipse cx="92.3" cy="113.5" rx="2.3" ry="1.2" transform="matrix(.9865 .1639 -.1639 .9865 19.8416 -13.5884)"/><ellipse cx="84.1" cy="108.8" rx="2.3" ry="1.2" transform="matrix(.9865 .1639 -.1639 .9865 18.9568 -12.3116)"/><ellipse cx="52.5" cy="104.8" rx="2.3" ry="1.2" transform="matrix(.9999 .01100141 -.01100141 .9999 1.1565 -.5716)"/><ellipse cx="54.8" cy="113.4" rx="2.3" ry="1.2" transform="matrix(.9865 .1639 -.1639 .9865 19.326 -7.4525)"/><ellipse cx="68" cy="113.5" rx="2.3" ry="1.2" transform="matrix(.9865 .1639 -.1639 .9865 19.5224 -9.6035)"/><ellipse cx="42.5" cy="104" rx="2.3" ry="1.2" transform="matrix(.9984 -.05583098 .05583098 .9984 -5.7417 2.5355)"/></g></svg>