<?xml version="1.0" encoding="utf-8"?>
<!-- Generator: Adobe Illustrator 18.1.0, SVG Export Plug-In . SVG Version: 6.00 Build 0)  -->
<svg version="1.1" id="Layer_1" xmlns="http://www.w3.org/2000/svg" xmlns:xlink="http://www.w3.org/1999/xlink" x="0px" y="0px"
	 viewBox="0 0 240 320" enable-background="new 0 0 240 320" xml:space="preserve">
<g>
	<path opacity="0.2" d="M85.1,290.8c-17.5-9.5-55.3-26.4-29.3-42.3c24.3-14.8,57.8,6.3,75,15.4c25.3,13.4,50.7,31.7,35.2,41.4
		C150.3,315.3,118.1,308.7,85.1,290.8z"/>
	<path fill="#2D3134" d="M77.6,248.6c0,0-0.9,4.3,1,5.6c1.9,1.2,6.2,2.8,8.7,1.6s-1-7.3-1-7.3L77.6,248.6z"/>
	<path fill="#762C07" d="M74.6,207.7c0,0,1.7,28.3,2.2,33.2c0.5,4.9-0.6,10.1,1.6,11c2.2,0.9,8.7-1.4,8.3-2.8
		c-1.1-3.7-2.5-19.7-1.9-25.4c0.6-5.6,6.5-25.1,6.5-25.1L74.6,207.7z"/>
	<path opacity="0.2" d="M74.6,207.7c0,0,1.7,28.3,2.2,33.2c0.5,4.9-0.6,10.1,1.6,11c2.2,0.9,8.7-1.4,8.3-2.8
		c-1.1-3.7-2.5-19.7-1.9-25.4c0.6-5.6,6.5-25.1,6.5-25.1L74.6,207.7z"/>
	<path fill="#762C07" d="M68.5,141.6c-7-3-15.5,0.9-16.4,8.4s11.7-1.8,11.7-1.8L68.5,141.6z"/>
	<path fill="#2D3134" d="M159.2,293.5c0,0,0.2,4.1,1.1,4.4c0.9,0.3,7.3,1.4,8.9,0.7c1.6-0.8-1.2-6.5-1.2-6.5L159.2,293.5z"/>
	<path fill="#2D3134" d="M135.6,299.7c0,0-0.7,3.4,1.3,4.3c2,0.9,7.3,1.2,8.5,0.7c1.1-0.6-0.8-5.7-0.8-5.7L135.6,299.7z"/>
	<path fill="#2D3134" d="M49.6,262.5c-0.1,0.9-0.6,3.2,2.7,5s5.7,1.8,7.2,0.9s-0.9-6.5-0.9-6.5l-8.6,0.6H49.6z"/>
	<path fill="#762C07" d="M152.4,158.9c-4,3.7-21.8,0.9-34-8c-12.2-8.9-31.8-24.5-51.2-10.7s-8,33.6-10.2,48.9
		c-2.2,15.3-4.4,23.8-5.8,26.7s-1.9,6.2-1.9,13.3s-1,33-0.1,34.3c0.9,1.3,9.2,1.8,10-0.4c0.5-1.4-0.9-12.2-0.1-20
		c0.4-4.2,0.1-12,7.2-19.8c7.1-7.8,12.2-16.2,12.2-16.2s13.3,7.1,23.6,10.9c10.2,3.8,16.5,6,16.5,6s9.8,25.8,10.7,28.5
		c0.9,2.7,4,18.9,4.7,29.1c0.7,10.2,0,18.2,1.1,19.1c1.1,0.9,9.6,0.9,9.6-1.6c0-2.4-3.1-23.8-2.7-34.7c0.4-10.9,4.9-29.1,5.6-30.9
		c0.7-1.8,20-5.1,24-16.7c4-11.6,5.3-28.5,7.8-34.5c2.4-6,7.3-16.5,7.3-16.5s10,5.6,16.9,4.1s6.2-10.5,2-16.7s-6.9-14.5-7.8-16.3
		c-0.9-1.8-0.4-11.8-8.2-14c-7.8-2.2-21.1,0.4-24,8.7S157.5,154.3,152.4,158.9z"/>
	<path fill="#762C07" d="M169,137.8c3.1-7.9-16.9-6.6-18.4-6.7C152.8,134.7,164.8,148.5,169,137.8z"/>
	<path fill="#762C07" d="M190.5,129.9c6.3,2.9,6-13.6,6.2-14.9C193.6,116.8,181.9,126.1,190.5,129.9z"/>
	<path fill="#2D3134" d="M177,144.8c0,0,1.2-2.1,4-2c2.8,0.1,4.2,2.8,4.2,2.8s-1.8,2.4-4.1,2.2C178.8,147.6,177,144.8,177,144.8z"/>
	<path fill="#825012" d="M193.1,168.4c3.4,1.3,7.4,2.2,10.5,1.5c6.9-1.6,6.2-10.5,2-16.7c-0.1-0.2-0.2-0.4-0.4-0.6
		c-3.9,0.5-8.7,1.5-10.6,6.9C193.6,162.4,193.2,165.6,193.1,168.4z"/>
	<path fill="#2D3134" d="M205.7,157.6c-1.9,0.5-5,0-4.5,2.4s3.1,1.9,4.4,2.3c0.6,0.2,1.6,2.2,1.6,2.2s0.3-2.3,1.2-3.2
		c0.9-0.9,0.7-4,0-4.4S206.5,157.4,205.7,157.6z"/>
	<path fill="#762C07" d="M148.6,229c0,0,7,30.9,8.1,42c1,11.1,1.6,23,2.7,23.9c1,0.9,9.6,0.3,9.5-1.6c-0.1-1.9-2.5-17.3-3.6-26.5
		c-1-9.2,1.2-26.2,1.5-32.4c0.3-6.2,4.3-18.5,4.3-18.5L148.6,229z"/>
	<path opacity="0.2" d="M148.6,229c0,0,7,30.9,8.1,42c1,11.1,1.6,23,2.7,23.9c1,0.9,9.6,0.3,9.5-1.6c-0.1-1.9-2.5-17.3-3.6-26.5
		c-1-9.2,1.2-26.2,1.5-32.4c0.3-6.2,4.3-18.5,4.3-18.5L148.6,229z"/>
	<path fill="#825012" d="M174.6,127.4c-1.5-1.4-20.1-15-32.8-26.8c-0.1-2-0.1-4.5,0.3-7c1.6-9.5,11.2-17.8,11.2-17.8
		s-4.7,2.2-9.6,6.9c-3.7,3.6-6.4,9.7-7.5,12.5c-2.5-2.7-4.4-5.1-5.4-7c-0.9-6.6,2.5-12.6,4.1-14.8c-2.4,1.4-5.4,5.3-6.7,8.5
		c-3.1-8.5-4.2-17,1.6-32.2c-4.9,7-17.2,28.8,5.5,51.7c4.5,4.5,8.5,8.5,11.9,11.9c-3.3-0.9-14.2-3.9-19.6-8.9
		c-6.5-5.9-10.7-14.6-10.7-14.6S118,106.5,135,114c7.7,3.4,14.8,5.4,20,6.4c8.8,8.4,13.1,11.9,14.8,12.9
		C172.5,135,176.8,129.4,174.6,127.4z"/>
	<path fill="#825012" d="M186.6,123c-0.9-1.7-13.6-19.3-21.5-33.6c0.5-1.8,1.2-4,2.3-6.2c4.2-8,15.2-12.6,15.2-12.6
		s-4.8,0.6-10.6,3.3c-4.4,2.1-8.6,6.8-10.3,9c-1.5-3.1-2.5-5.8-2.8-7.9c1.1-6.2,5.9-10.5,8-12.1c-2.6,0.6-6.4,3.2-8.5,5.7
		c-0.3-8.5,1.2-16.4,10.8-28.4c-6.4,4.9-23.8,20.7-10.2,47.9c2.7,5.4,5.1,10.1,7.2,14.1c-2.7-1.7-11.6-7.7-15-13.7
		c-4.1-7.1-5.3-16.2-5.3-16.2s-4.1,15.3,9,27c5.9,5.3,11.7,9.1,16,11.6c5.4,10.1,8.2,14.5,9.5,15.9C182.5,129.2,188,125.4,186.6,123
		z"/>
	<path fill="#825012" d="M171.6,216.8c4-11.6,5.3-28.5,7.8-34.5c2.4-6,7.3-16.5,7.3-16.5l-10.8-8.1c0,0-13.6,22.8-17.5,32.3
		c-3.9,9.5-10.7,19.9-11.3,28.2c-0.6,8.3,0.4,15.2,0.4,15.2C148.2,231.7,167.6,228.3,171.6,216.8z"/>
</g>
</svg>
