<svg xmlns:xlink="http://www.w3.org/1999/xlink"  enable-background="new 0 0 320 320" height="320" viewBox="0 0 320 320" width="320" xmlns="http://www.w3.org/2000/svg"><ellipse cx="167.9" cy="291.4" opacity=".2" rx="53.3" ry="26.6"/><path d="m160.9 265.6c-.3-1.1-.6-2.4-1-3.5 0-2.4-.4-4.3-1.2-5.6-3.7-5.8-6.5-5.7-6.8-11.3-.4-5.6-.4-14.3-2.8-17.4-2.4-3-7.1-4.2-6-8.4s10.1-22.8 10.1-22.8l-27.1 9.4s-7.2 18-1.4 25.1 18.6 15.1 18.4 20.3c-.3 5.2-2.2 21.1-7.9 26.9s-12.5 8.5-9.5 12.8c1.4 2 5.3 1.1 5.3 1.1s-.9 3.4 2.3 3.7 6-1.6 6-1.6-.4 3.8 4.1 2.7 10.7-7.4 11.8-10.5c.5-1.5 2.1-6.6 3.3-12.4.7 1.1 1.3 1.5 1.3 1.5s2-6.3 1.1-10z" fill="#baa794"/><path d="m160.9 265.6c-.3-1.1-.6-2.4-1-3.5 0-2.4-.4-4.3-1.2-5.6-3.7-5.8-6.5-5.7-6.8-11.3-.4-5.6-.4-14.3-2.8-17.4-2.4-3-7.1-4.2-6-8.4s10.1-22.8 10.1-22.8l-27.1 9.4s-7.2 18-1.4 25.1 18.6 15.1 18.4 20.3c-.3 5.2-2.2 21.1-7.9 26.9s-12.5 8.5-9.5 12.8c1.4 2 5.3 1.1 5.3 1.1s-.9 3.4 2.3 3.7 6-1.6 6-1.6-.4 3.8 4.1 2.7 10.7-7.4 11.8-10.5c.5-1.5 2.1-6.6 3.3-12.4.7 1.1 1.3 1.5 1.3 1.5s2-6.3 1.1-10z" opacity=".15"/><path d="m95.9 197s.3 14.3-.6 15.8c-.8 1.5-9.5 8.3-15.4 18.1s-9.8 16.2-12 22.7c-2.2 6.6.3 14 .3 14s0 5.2.8 5.3 1.5-.9 1.5-.9.1 2.6 1.1 2.6 2.1-8.6 3.4-11.6 2-7.8 3.2-7.4 1.9 8.4 3.5 7.9c1.6-.4-.2-8.5.3-10.4s1.7-4.7 1.7-7.8.9-7.7 4.6-10.2c3.6-2.5 17.3-13.3 19.1-18.6 1.9-5.3 3.9-13.4 3.9-13.4z" fill="#baa794"/><path d="m95.9 197s.3 14.3-.6 15.8c-.8 1.5-9.5 8.3-15.4 18.1s-9.8 16.2-12 22.7c-2.2 6.6.3 14 .3 14s0 5.2.8 5.3 1.5-.9 1.5-.9.1 2.6 1.1 2.6 2.1-8.6 3.4-11.6 2-7.8 3.2-7.4 1.9 8.4 3.5 7.9c1.6-.4-.2-8.5.3-10.4s1.7-4.7 1.7-7.8.9-7.7 4.6-10.2c3.6-2.5 17.3-13.3 19.1-18.6 1.9-5.3 3.9-13.4 3.9-13.4z" opacity=".15"/><path d="m8 184.9s1-26.6 14.7-35.5 18.8 1 18.8 1z" fill="#cc291f"/><path d="m8 184.9s1-26.6 14.7-35.5 18.8 1 18.8 1z" opacity=".15"/><path d="m286.4.5c-1.9-1.4-17.3 44.5-34.8 63.9-17.6 19.5-41.3 42.5-60.2 51.4-18.9 9-37.7 12.5-58.2 23.7s-27.7 20.3-35.5 15.9-26.9-25.4-60.2-2.5c-8.7 5.9-22.8 20.1-28.9 29.9s-7.9 18.3-4.1 20.8c3.9 2.5 5.1 3.2 12.7 0s25-9.5 34-13.7 17.9-11.3 24.9-5.1c6.9 6.3 19.3 19.5 33 24.4s50.7-10.1 50.7-10.1-6.1 37.5 5.6 47.2c11.7 9.6 21.1 14 20.8 24.9-.1 1.7-.2 3.4-.4 5.1-2 2.1-3.1 6.4-3.1 6.4s1-1.1 2.4-1.8c-1.4 7-4.2 13-8 16.3-5.6 4.7-10.1 8-7.1 10.1s6.1-.5 6.1-.5-1.8 4.2 1 5.1c2.8.8 6.1-1.5 6.1-1.5s.2 2.7 3.7 2.3c3.6-.4 12.8-5 13.9-18.4s3.2-21.8.8-24.9c-2.5-3.1-5.6-6.7-6.3-10.8s-2.5-12.5-6.2-17.1c-3.6-4.6-7.3-8.5-7.3-8.5s9.9-23.9 11.8-44.6c1.9-20.6-.2-33.2 8.6-42s39.2-31.8 57.8-68.3c18.7-36.8 28.3-76.2 26.4-77.6z" fill="#baa794"/><path d="m13 193.1s3.2-7 6.2-6.6-2.1 5.9-6.2 6.6z" opacity=".15"/><path d="m20.7 197.1c-2.4 1-4.9 2-7.6 3-7.3 2.8-8.9.7-10.6-1.5 0 0-.1-.1-.1-.1v.8c1.1 1.5 2.4 3.3 5 3.3 1.5 0 3.4-.4 5.9-1.3 2.6-1 5.2-2 7.6-3 5.3-2.1 10.2-4.9 15.5-6.4 7.8-2.1 13.7-8 13.7-8-.1.1-6.1 5.4-13.9 7.6-5.2 1.5-10.2 3.5-15.5 5.6z" opacity=".2"/><path d="m52.1 164.5c1.3 3.5-4.6 9-8 6s5.3-13.1 8-6z" opacity=".15"/><g fill="#2d3134"><path d="m50.8 165.2c1 4.1-3.3 6.3-5.8 4.3-1.5-1.1 5.4-5.9 5.8-4.3z"/><path d="m166.9 308.1s3.4-8.7 6.3-6.6-6.3 6.6-6.3 6.6z"/><path d="m173.6 312.4s1.8-10 5.7-8.1-5.7 8.1-5.7 8.1z"/><path d="m184 314s-.8-8 3.2-6.6-3.2 6.6-3.2 6.6z"/><path d="m122.1 293.1s2.6-9.1 5.1-6.3c2.6 2.8-5.1 6.3-5.1 6.3z"/><path d="m128.7 297.4s1.4-8.6 4.6-7.4-4.6 7.4-4.6 7.4z"/><path d="m139 299.4s-.9-8.5 2.6-7.5-2.6 7.5-2.6 7.5z"/><path d="m160.3 276.6s-3.8-4.8-1.6-5.5c2.1-.7 1.6 5.5 1.6 5.5z"/><path d="m182.2 284.1s.8-6.7 2.5-5.1c1.8 1.7-2.5 5.1-2.5 5.1z"/></g><path d="m146.5 185.2c-1.5 5 .2 27.7.3 32.3.2 4.6 1.2 11.2-.5 14-1.7 2.9-17.3 16-18.7 20.2s-3.6 9.8-5.6 14.7-2.5 5.4-2.9 10.2-1.1 5.2-1.9 5.2-1.4-9.7-1.4-9.7-1.4 4.4-1.9 7.7-1.8 6.2-2.6 6.2-.7-6-.2-8.3.8-3.6.8-3.6-2.1 4.1-3 7.5-2.9 4.1-3.3 3.3 1.4-10.9 2-12.3c.7-1.4-.6-3.2.1-4.8s4.3-8.5 6.3-12.6 7.6-13.3 10.8-17.1 8.8-9.8 8.8-9.8-2.7-7.9-3.3-11.8c-.6-3.8-3.9-8.3-3.9-8.3s2-6.3 5.1-13.9c3.1-7.5 17.6-18.2 15-9.1z" fill="#baa794"/><path d="m110.9 289.9s3.1-7.6 1.3-7.9c-1.9-.4-1.3 7.9-1.3 7.9z" fill="#2d3134"/><path d="m105 288.7s3.8-7.5 2-7.8-2 7.8-2 7.8z" fill="#2d3134"/><path d="m117.3 284.1s2.4-6.6.6-6.7-.6 6.7-.6 6.7z" fill="#2d3134"/><path d="m107 273.4s2.6-4.2 1.5-5.1c-1-.8-1.5 5.1-1.5 5.1z" fill="#2d3134"/><path d="m81.3 266.4s2.5-6.2 1.2-6.3c-1.3-.2-1.2 6.3-1.2 6.3z" fill="#2d3134"/><path d="m286.4.5c-1.9-1.4-17.3 44.5-34.8 63.9-17.6 19.5-41.3 42.5-60.2 51.4-18.9 9-37.7 12.5-58.2 23.7s-27.7 20.3-35.5 15.9c-7.3-4.1-24.7-22.9-54.4-6.2 5.5 4.3 12.7 12.1 15.9 20.7 1.8-5.3-.2-14.4-2.8-21.6 2.4 4.8 4.9 11.2 6.2 17.3 1.5-2.7 1.8-7.1 1.4-11.6 1 4.3 1.8 9.1 1.9 13.5 3.2-3.1 4.4-9.9 4.5-16.2 1 5 1.7 11 1.3 16.4 4.4-3.6 6.3-12.9 6.6-19.6.8 5.1 1.1 13.4-.6 20.8 4.1-3 7.1-9.6 8.7-15.4-.8 5.4-2.1 11.5-4.1 16.9 4.4-2.6 7.3-6.9 10.1-13.7-1.1 5.5-1.7 9.4-4.4 15 3.3-1.5 6.6-5.5 9.4-10-.1 4-2.2 11.2-3 15.4 2.3-2.3 6-9.6 7.3-14.1.1 4.7.1 13.1-.7 17.9 3.2-2.7 5.3-11.9 6.8-17.7 1.2 4.3 2.4 9.4.1 23.6 6.1-6.8 5-18.1 4.9-23.4 1.9 4.8 5.3 18.7 6.3 23.9 4.1-12.7.8-21.1-.1-28.4 4 6.3 9.8 20.3 12.3 33.2 4.1-12.7-1.6-31.1-5-40.5 5.9 6.2 13.6 23.3 18.5 41 1.9-8.9-1.1-34.5-6.6-43.2 6.1 5.6 14.7 17.1 19.8 41.4 6.1-19.5-4.6-39.5-9.6-48.5 6.3 5.6 16.7 14.8 22.3 39.2 2-20.3-4.9-35-11.2-43.2 6.7 5.4 14.5 14.3 22.1 28.8 1-12.9-7.5-26.6-12.7-34.8 5.7 5.4 14.4 13.3 20.5 25.4 1.3-10.4-5-19.1-10.3-27.5 5.5 1.6 11 10.4 16.4 18.8.7-5.8-3-16.2-7-23.6 5.7 2.4 8.7 8.5 11.5 17.2 2.2-4.2.6-16.6-1-23.2 3.4 2.2 5.6 13.2 6.4 17.6 2.9-5.5 2.5-13 1.3-20.6 1.6 4.9 2.9 10.4 3.3 15.5 4.2-4.9 5-15.2 4.3-23.4 1.7 5.3 3.1 11.1 3.6 16.7 4.4-5.2 5.1-16.4 4.2-24.9 1.9 5.2 3.5 11.2 4.1 16.8 5.1-5.6 5.5-15.7 4.1-23.9 1.5 5 2.2 8.1 2.3 13.5 4.7-4.1 6.3-13.1 6.4-20.4.7 3.4 1.1 7 1.1 10.4 5.2-4.8 6.7-13.9 6.4-21.9 1.2 4.3 2 7 2.1 11.4 5.5-4.5 6.9-13.2 6.3-20.2.6 4 .8 6.3.4 10.4 4.5-3.2 7.3-11.5 8.5-18.9 0 2.1 0 4.3-.2 6.3 6.5-5.7 8.6-18 8.5-26.7 1 2.6 1.2 5.1 1.1 9 .9-.9 1.8-2 2.5-3.3 1.2-3.2 2.3-6.3 3.3-9.3.4-1.8.7-3.7.9-5.6 0 .9.1 1.8.1 2.7 5-17 7.5-29.3 6.4-30.1z" fill="#915645"/><path d="m12.6 186.4s2.3-18 14.2-29.9 19-9.1 20.3-4.6-21.8 29.4-34.5 34.5z" fill="#cc291f"/><path d="m72.2 278s.4-6.3-1.2-6.3 1.2 6.3 1.2 6.3z" fill="#2d3134"/><path d="m69.1 275.8s1.3-5.1 0-5.3c-1.4-.2 0 5.3 0 5.3z" fill="#2d3134"/><path d="m68.3 267.6s.4-3.6-.7-3.3.7 3.3.7 3.3z" fill="#2d3134"/></svg>