<svg xmlns:xlink="http://www.w3.org/1999/xlink"  enable-background="new 0 0 400 320" height="320" viewBox="0 0 400 320" width="400" xmlns="http://www.w3.org/2000/svg"><ellipse cx="237.1" cy="291.3" opacity=".2" rx="52.9" ry="26.4"/><path d="m206.8 185.3s12.2 24.7 11.9 25.7-10.1 12.2-12.9 26.2-4.4 19-7.5 22.5-1 26.2 1.5 29.7 9.1 6 18.3 3.5 14.3-5 12.8-8.1c-1.5-3-5.9-1.8-5.9-1.8s2.7-1.5.5-3-7.9 0-7.9 0 .7-1-.7-1.8c-1.3-.8-2.9-1.2-2.9-1.2s-4.2-10.7-2-16.6 22.8-39.8 26.3-47.5 3.4-28.4 3.4-28.4z" fill="#baa794"/><path d="m279.1 165.1c2.4 3.3 7.3 14 8.1 16.9s1.4 9.6-.2 9.8c-1.6.3-2.1-3.2-2.3-4.7s-1.5-3.4-1.5-3.4.8 7.6-.8 7.7-1.4-4.3-1.7-6.6-1.5-4.9-1.5-4.9.6 5.3-1 5.4-1-4.1-1.8-6.8-6.5-7.2-6.5-7.2z" fill="#baa794"/><path d="m206.8 185.3s12.2 24.7 11.9 25.7-10.1 12.2-12.9 26.2-4.4 19-7.5 22.5-1 26.2 1.5 29.7 9.1 6 18.3 3.5 14.3-5 12.8-8.1c-1.5-3-5.9-1.8-5.9-1.8s2.7-1.5.5-3-7.9 0-7.9 0 .7-1-.7-1.8c-1.3-.8-2.9-1.2-2.9-1.2s-4.2-10.7-2-16.6 22.8-39.8 26.3-47.5 3.4-28.4 3.4-28.4z" opacity=".15"/><path d="m279.1 165.1c2.4 3.3 7.3 14 8.1 16.9s1.4 9.6-.2 9.8c-1.6.3-2.1-3.2-2.3-4.7s-1.5-3.4-1.5-3.4.8 7.6-.8 7.7-1.4-4.3-1.7-6.6-1.5-4.9-1.5-4.9.6 5.3-1 5.4-1-4.1-1.8-6.8-6.5-7.2-6.5-7.2z" opacity=".15"/><path d="m395.7 49.9c.7-4-.1-5.5-1.4-7.2-1.3-1.8-1.8-5-9.6-7.2s-30.6-8.4-50.8 5.4-33 49.3-45.9 58-31.2 12.9-62.1 32-62.6 37.9-91.4 40.6-82.7-12.9-84.4-10.2 51.5 37.6 89.3 33.7c37.7-3.9 60.9-12.2 70.5-5.7s30.5 9.1 36.6 20.1 9.2 16.4 9.2 16.4-9.1 10.1-10.2 23.5c-1.2 13.4-2 24.3-5.9 28.2s-5.9 12.4-4.4 13.4 4.2 14.3 7 16.8 8.1 5.4 16.4 2.7c8.4-2.7 12.8-4.4 12.2-7.5s-4.7-2.5-4.7-2.5 1.3-1.7-.3-2.9-4.7-.2-6.4 0-2.7-1.5-3-2-1.8-1.2-1.8-1.2-3.2-7.7-2.2-16.8 8.2-17.1 13.9-29.7 8.7-15.6 8.4-23.5-.3-24.3-1-32.9-4-15.1-4-15.1l16.3-11.1s5.4 13.1 6.5 18.1c1.2 5 9.7 4.5 14.8 3.7 5-.8 7.7-1.8 8.1-.5.3 1.3 1.7 2.1 1.4 4.4s.1 2.9.8 3 1.3-.5 1.6-1.5.8-2 1.4-1.3c.7.7 4 3.6 4.7 6.7s1.4 4.8 2.5 5.3c1.1.6.9.3.9.3s.5 2 1.6 1.8.9-3.1.9-3.1.9.2 1.4-.5c.4-.7 0-6.3-1.6-9.5s-5.3-10.8-9.9-12.8-17.7-3.8-17.7-3.8.4-16 .1-22.8-2.2-12.8-2.2-12.8 10.4-28.2 19.9-41.2 20.4-20.7 28.8-24.2 16.4-6.3 27.3-13.3c10.7-7.2 17.4-5.5 18.4-11.3z" fill="#baa794"/><path d="m347.8 34.8s3.4-15.9 19.2-15.3c15.9.6 18.6 13.9 18 15.2-.8 1.3-25.8-4.3-37.2.1z" fill="#cc291f"/><path d="m347.8 34.8s3.4-15.9 19.2-15.3c15.9.6 18.6 13.9 18 15.2-.8 1.3-25.8-4.3-37.2.1z" opacity=".15"/><path d="m353.6 35.5s7.4-14.1 22-13.6 14.1 13.3 13.5 14.9c-.6 1.8-19.7-3.6-35.5-1.3z" fill="#cc291f"/><path d="m363.4 43.5c.1 1.6 5.5 6.5 6.1-1 .6-7.6-6.2-1-6.1 1z" opacity=".15"/><path d="m364.2 44.3c.4 1.6 4.5 2.1 4.9-1.1.5-3.2-5.1.2-4.9 1.1z" fill="#2d3134"/><path d="m389.3 41.1c-.2-2.3 3.5-.3 3.4.5-.1.7-3.3.6-3.4-.5z" opacity=".15"/><path d="m396 47.1c-2 1.1-3.8 1.8-5.6 2.5-2.6 1-5.2 2-8.4 4.4-5.4 4-17.3 5.9-17.4 5.9 0 0 12.1-1.1 17.6-5.1 3.1-2.3 6.2-3.1 8.8-4.2 1.6-.6 3.2-1.2 5-2.2 0-.5 0-.9 0-1.3z" opacity=".2"/><g fill="#2d3134"><path d="m316.7 196.9s3-5.1 1.8-5.4-1.8 5.4-1.8 5.4z"/><path d="m332 205.8s1.5-5.8.2-5.9c-1.4 0-.2 5.9-.2 5.9z"/><path d="m331.1 207.5s1.4-6-.2-6c-1.6.1.2 6 .2 6z"/><path d="m328.8 206.1s.2-4.4-.8-4.4.8 4.4.8 4.4z"/><path d="m287.6 195s1.3-7.5.1-7.5c-1.3.1-.1 7.5-.1 7.5z"/><path d="m282 193.9s2.3-6.1.9-6.2c-1.3-.1-.9 6.2-.9 6.2z"/><path d="m276.5 188.6s3.3-4.7 2-5.1-2 5.1-2 5.1z"/><path d="m274.4 303.4s-6.6-4.7-6.5-1.8 6.5 1.8 6.5 1.8z"/><path d="m271.2 299.3s-8-4.3-6.5-1.3c1.6 3 6.5 1.3 6.5 1.3z"/><path d="m260.1 296.5s-5.7-3.1-4.6-.9c1.2 2.3 4.6.9 4.6.9z"/><path d="m233.4 285.3s-7.1-4.5-5.5-1.3c1.6 3.1 5.5 1.3 5.5 1.3z"/><path d="m229.7 281.8s-7.6-4.1-5.9-1.5 5.9 1.5 5.9 1.5z"/><path d="m219.9 278.9s-5.4-2.8-4.7-.9c.6 1.9 4.7.9 4.7.9z"/></g><path d="m347.5 34.4c-4.5 1.3-9.1 3.4-13.6 6.5-20.2 13.8-33 49.3-45.9 58s-31.2 12.9-62.1 32-62.6 37.9-91.4 40.6c-28.9 2.7-82.7-12.9-84.4-10.2-.7 1.2 8.8 8.3 22.9 15.8-2-3-3.8-5.6-5.3-7.9 4.3 3.7 10.7 8 21.1 13.5-2.6-3.6-4.7-6.7-6.6-9.5 4.2 4.1 11 9.1 23.5 15.8-4-5.6-7.1-10.2-9.6-14 4.2 4 11 8.9 22.9 15.2-3.6-5-6.4-9.1-8.7-12.6 4.3 3.6 10.6 7.8 20.5 13.1-3.6-5-6.5-9.2-8.8-12.8 4.3 3.5 10.5 7.7 20.1 12.8-3.7-5.2-6.7-9.5-9-13.2 4.2 3.2 10 6.9 18.4 11.3-5-7-6.8-9.7-9.5-14.1 4.1 4.2 9.1 6.8 22.4 13.8-4.4-6.1-7.7-11-10.3-15 4.3 3.8 10.8 8.3 21.6 14-3.6-5-6.4-9.1-8.7-12.7 4.2 3.3 10.2 7.2 19.1 11.9-6-8.3-9.9-14.3-12.8-19.1 4.3 3.5 10.4 7.5 19.8 12.5-4-5.5-7-10-9.5-13.8 4.3 3.7 10.7 8 21.1 13.5-6.2-8.6-10.2-14.8-13.2-19.7 4.2 4.1 13.7 11.7 24.6 18.1-5.8-8.9-12.6-18-15.6-23.3 4.2 4.3 18.6 17.2 29.1 23.9-5.2-9.1-14.3-23.1-17.4-28.7 4.2 4.4 15.4 18.3 25.4 25.4-4.6-9.2-11.2-22.7-14.3-28.7 4.2 4.6 18.5 21.9 27.9 29.4-3.8-9.3-15-28.6-18.4-35 4.3 4.8 19 22.8 27.7 30.7-3-9.3-12.4-30.1-16.1-37.2 4.6 5 17.9 19 25.7 35.2-.9-8.2-10.1-36.7-13.4-43.6 5.7 7.4 13.6 23.6 19.5 37.2-.2-14.8-4.1-30.5-9.8-40.9 5.6 6 10 12.4 16.8 31 .5-14.9-4.2-29.9-9.8-40.1 5.4 5.3 13.5 20.2 17.6 29.9 2.2-8.4-3.2-25.7-7.8-34 5.3 5.3 10.6 13.6 13.4 23.1 3-7.3 1-17-2.9-25.1 3.5 4.8 6.6 10.7 8.5 17.2 3.1-7.4.8-17.4-3.3-25.5 3.7 4.8 7 10.9 8.9 17.7 3.1-7.6.6-17.9-3.8-26 3.8 4.8 7.4 11.1 9.4 18.1 3.2-7.7.4-18.3-4.3-26.4 4 4.8 7.8 11.3 9.9 18.6 3.3-7.9.1-18.8-4.8-26.8 4.2 4.7 8.2 11.4 10.4 19 3.3-8-.2-19.4-5.3-27.2 4.4 4.6 8.7 11.5 10.9 19.4 3.4-8.2-.5-19.9-5.9-27.6 4.6 4.5 9.1 11.6 11.5 19.8 3.5-8.4-.9-20.5-6.5-28 4.8 4.3 9.7 11.6 12.1 20.1 2.6-6.4.6-15-3-21.9 3.7 4.2 7.2 10.1 9.1 16.8 2.3-5.6.9-13-2-19.3 3.1 4 5.8 9.1 7.5 14.8 3.2-7.9-.5-18.7-5.5-25.8z" fill="#915645"/></svg>