<svg xmlns:xlink="http://www.w3.org/1999/xlink"  enable-background="new 0 0 160 240" height="240" viewBox="0 0 160 240" width="160" xmlns="http://www.w3.org/2000/svg"><path d="m117.7 219.4c15.4-7.1 48.6-19.5 27.3-34.5-19.9-14-49.7 2.2-64.8 9.1-22.3 10.1-45 24.3-32.3 33.4 12.9 9.3 40.7 5.4 69.8-8z" opacity=".2"/><path d="m117 149.4c2 4.4 5.9 11.5 6.6 15.9s.5 18.8-1.9 22.7-6.9 9.8-2.5 10.3 7.4-1.2 7.4-3 1.9-6.6 3.2-8.5c1.4-1.9.2-3.7.2-5.9s.7-15.1 1.4-18.3 1.9-5.1 0-8.6c-1.9-3.6-2.5-15.6-2.5-15.6z" fill="#656565"/><path d="m117 149.4c2 4.4 5.9 11.5 6.6 15.9s.5 18.8-1.9 22.7-6.9 9.8-2.5 10.3 7.4-1.2 7.4-3 1.9-6.6 3.2-8.5c1.4-1.9.2-3.7.2-5.9s.7-15.1 1.4-18.3 1.9-5.1 0-8.6c-1.9-3.6-2.5-15.6-2.5-15.6z" opacity=".15"/><path d="m146.4 122.1c2.2 12.9.5 21.8 2.4 26.6s-.5 11.3-.5 11.3-6.4-8.5-5.4-18.3 3.5-19.6 3.5-19.6z" fill="#2d3134"/><path d="m32.9 89.5c-4.9.2-7.1.7-10 3s-9.6 7.6-9.8 10.2c-.2 2.5.5 3.7 0 5.2s-10.7 17.9-9.5 23.5 5.6 12.2 11.5 9.6 6.3-6.1 9.6-8.1c3.4-2 9.5-5.4 9.5-5.4s3 6.9 6.1 9.8c3 2.9 4.6 2.7 5.6 5.8 1 3 7.1 19.1 8.3 25.7s4.9 33.9 3 38.6-6.6 10.3-4.6 11.8 9.6.8 10.7-2.7.2-6.9 1.2-8.5c1-1.5 1.4-4.6.7-6.6s2-33.2 2-33.2 6.4 23.5 6.9 29.8.2 15.9-1.4 18.6c-1.5 2.7-6.3 8.1-2.5 9.5 3.7 1.4 9.1-1 9.8-3.4s.8-6.8.8-7.8 2-2.5 1.9-4.6c-.2-2-1-8-.5-15.4s3.9-31.8 3.9-31.8 14.9-.3 26.9-8.3 14.9-10.7 14.9-10.7 9 13.9 10.3 20.1c1.4 6.3 1.4 23.9-1.2 28.3s-6.8 10.2-2.9 11.3c3.9 1.2 8.5-.8 8.5-2.9s1.4-6.8 2.7-8.3.3-5.8.3-7.8.9-13.4 2-16.6c1-2.9 1.7-5.8.3-8.8s-2.7-6.6-2.4-12.4 11-36.1-5.4-47.9-28.1 2.7-41.1 6.6-25.2 2.7-32.2 1.2c-6.7-1.2-23.1-17.8-33.9-17.4z" fill="#656565"/><path d="m17.1 126.6c-2.1-1.5-8.4-.7-11.7-3.4-1.4 2-2.3 7.1-2.1 8.2 1.2 5.6 5.6 12.8 12.2 9.7 3.5-1.6 6.7-5.3 8.3-7.6-1.9-2.5-5-5.8-6.7-6.9z" fill="#999"/><path d="m24.1 92.3c0-3.9-7.6-21.3-6.1-23.5s6.9 6.4 9.3 11.8 5.6 8.8 5.6 8.8z" fill="#656565"/><path d="m22.5 93.7c1.8 2.6 8.6-4.1 17.3-1.9 5.7 1.5 24.5 14.7 24.5 14.7s-3.2-4.6-5.9-7.3c-2.7-2.6-8.4-8.8-15.4-12.3-9.3-4.6-24.2 1.2-20.5 6.8z" fill="#2d3134"/><path d="m24.7 108.3 5-.5s.2 2-2.3 2.3c-2.4.3-2.7-1.8-2.7-1.8z" fill="#2d3134"/><path d="m55.4 149.2c-5.9-13.7-13.7-26.2-13.7-26.2l-7.4 4.6s3 6.9 6.1 9.8c3 2.9 4.6 2.7 5.6 5.8 1 3 7.1 19.1 8.3 25.7s4.9 33.9 3 38.6-6.6 10.3-4.6 11.8 9.6.8 10.7-2.7c1-3.6.2-6.9 1.2-8.5 1-1.5 1.4-4.6.7-6.6s2-33.2 2-33.2-6-5.4-11.9-19.1z" opacity=".15"/><path d="m8.5 135.9s5.6-1.9 3.9-5.1-3.9 5.1-3.9 5.1z" fill="#2d3134"/><path d="m5 134.7s-2.7-3.2-1.7-4.7 1.7 4.7 1.7 4.7z" fill="#2d3134"/><path d="m36.4 97.1c3.6 2 4.4-1.5 4.4-5.6s.5-12.5-3.7-16.8c-4.2-4.2-8-4.9-7.3 1.7s2.9 18.6 6.6 20.7z" fill="#656565"/><path d="m35.6 94.5s5.1-13.5-.5-19c-8-7.7.5 19 .5 19z" opacity=".15"/><g fill="#2d3134"><path d="m143.5 197.7c-2.4-.2-5.5-.8-8.1-2.6-2.4 4-4.7 8.1-1.4 9.2 4.1 1.2 8.9-.9 8.9-3 .1-.9.3-2.2.6-3.6z"/><path d="m127.4 192.7c-1.9-.3-4.8-.9-7.5-2.2-2.3 3.6-4.5 7.6-.9 8 4.6.5 7.8-1.2 7.8-3.2.1-.6.2-1.6.6-2.6z"/><path d="m52.4 219.4c2.1 1.6 10.1.9 11.2-2.8.3-1.1.5-2.2.5-3.2-2.4 0-6.3-.2-9.2-1.8-2 3.5-4 6.7-2.5 7.8z"/><path d="m71.6 218.2c-2 3-4.8 7-1.6 8.2 3.9 1.4 9.6-1.1 10.3-3.6.3-1.1.5-2.5.6-3.9-2.9.2-6.6.1-9.3-.7z"/></g><path d="m86.8 156.1-.7 7.2s14.9-.3 26.9-8.3 14.9-10.7 14.9-10.7-10.5 5-19.4 8c-8.8 3.1-21.7 3.8-21.7 3.8z" fill="#999"/></svg>