<svg xmlns:xlink="http://www.w3.org/1999/xlink"  enable-background="new 0 0 160 240" height="240" viewBox="0 0 160 240" width="160" xmlns="http://www.w3.org/2000/svg"><path d="m61.3 194.8c-14.7 7-46.2 19.1-25.7 33.2 19.2 13.2 47.5-2.7 61.8-9.4 21.2-9.9 42.7-23.7 30.5-32.2-12.4-8.8-38.9-4.8-66.6 8.4z" opacity=".2"/><path d="m92.6 149.6s.5 27.4 0 30.9.7 4.3 1.1 7.1c.5 2.8-.5 4.6 1.4 5.9 1.8 1.2 8.5.5 8.8-1.5.3-1.9-2.9-3.9-3.8-8.2s0-16.7 1-21.4 2-19 2-19z" fill="#656565"/><path d="m92.6 149.6s.5 27.4 0 30.9.7 4.3 1.1 7.1c.5 2.8-.5 4.6 1.4 5.9 1.8 1.2 8.5.5 8.8-1.5.3-1.9-2.9-3.9-3.8-8.2s0-16.7 1-21.4 2-19 2-19z" opacity=".15"/><path d="m127.3 59.3c8.5-1.8 13.9 5.2 16 7 2.1 1.9 3.4 3.1 2.5 6.4-.8 3.3 2.5 11.7 3.6 14.1s-.8 11.2-6.2 11-10.6-6.1-10.6-6.1-2.9 10.2-5 15.5c-2.1 5.2-1 27.2-4 41.7-3 14.4-5.1 36.2-3.7 40.3s4.5 6.3 3.9 8.3-9.1 2.8-10 1.2-.7-4.6-.9-6.4-2.1-2.8-1.7-6.2c.5-3.4 1-6.4.9-14.2s-2.3-28.2-2.3-28.2-6.7 7.2-17.6 9.9-15.5 1.9-15.5 1.9-9 14.6-13.4 26.4-4.9 30-2.5 34c2.4 3.9 7.7 7.6 6.3 9.8-1.4 2.3-9.4 3.7-10.6 1.8s-.5-4.5-1.9-6c-1.5-1.5-3.6-1.9-3.2-5.5.5-3.6.6-20.5-.2-23.9s-1.8-5.4.9-11.5-3.3-24.9-3.3-24.9-8.2 23.8-8.7 28.4 0 24.8 1.7 27.3 6.7 5.3 5.6 8.1c-1 2.8-9.1 3.3-10.2 2.4-1-.9-.5-5-2-6.1s-3.9-3-3.4-5.5c.6-2.5.7-16.4-.8-20.4-1.5-4.1-3.8-6.8-2.4-11.3 1.5-4.5 3.8-17.3 2.6-27.9s-8.2-33.9 9.8-46 35.5 4 57.2-11.2c22.7-15.7 19-32 29.1-34.2z" fill="#656565"/><path d="m123.3 63.2c0-1.4-.3-6.4-1.5-11.3s3.2-11.6 5.5-11.6.7 11.7 1.1 16.6-5.1 6.3-5.1 6.3z" fill="#656565"/><path d="m106.9 86.5s10.2-8.1 17.5-18.1c3-4.1 6.2-9.6 9.5-8.8 3.2.8 6.9 4.3 6.9 4.3s-.1-8.6-8.2-9.3c-6-.5-9.1 4.4-12.8 10.6-3.5 6.2-9.5 17.2-12.9 21.3z" fill="#2d3134"/><path d="m35.8 216.2c1.1 1.5.7 4.9 1.6 5.7 1 .9 9.1.5 10.2-2.4 1-2.8-3.9-5.6-5.6-8.1s-2.1-22.7-1.7-27.3c.5-4.6 8.7-28.4 8.7-28.4l-6-13.9s-7.8 37-7.9 38.4 1.4 26.9 1.1 29.3c-.1 1-.3 3.8-.4 6.7z" opacity=".15"/><g fill="#2d3134"><path d="m104.2 192.1c.2-1.2-1-2.5-2.1-4.3-2.2 1-5.3 1.8-8.4.8.1 2.3-.3 3.9 1.3 5 1.8 1.3 8.8.5 9.2-1.5z"/><path d="m112.7 193.1c.1 1.9.1 4.4.9 5.8.9 1.7 10 .8 10.5-1.3.4-1.5-1.1-3.1-2.5-5.4-2.2 1.1-5.5 2.1-8.9.9z"/><path d="m35.7 216.5c.8 1.7.6 4.8 1.5 5.6 1.1.9 9.6.5 10.7-2.5.6-1.5-.6-3.1-2.1-4.6-2 1.2-6.1 2.9-10.1 1.5z"/><path d="m55 222.2c.7 1.6.3 3.8 1.4 5.5 1.3 2 9.7.5 11.1-1.9.7-1.2-.3-2.8-1.9-4.5-2.3 1.2-6.6 2.9-10.6.9z"/><path d="m144.3 73.5 1.7-1.4s.2 1-.3 1.6c-.6.5-1.4-.2-1.4-.2z"/></g><path d="m134.6 93.7c2.1 2 5.6 4.4 8.8 4.3 5.7-.3 7.2-7.3 6-11.1-.2-.6-.8-2.8-1.5-3.8-.5 1.3-4.2 6-4.9 6.7-2.3 2.2-5.7 3.6-8.4 3.9z" fill="#999"/><path d="m39.2 116.4s-5.5 7.4-6.9 24c-.9 10.8-2.8 26.2-2.3 34.8.6 8.6 4.9 14.9 4.9 14.9s.3-12.2 2.9-21c2.5-8.6-2.7-25.8-3.3-29.9-.8-6.4 2.9-20.3 4.7-22.8z" fill="#2d3134"/><path d="m132.7 61.6s3.5-3.4 3.7-6.4 5.6-13.5 7.2-13.1c1.6.5.6 9.5-1.4 13.4s-3.4 5.8-3 8.1c.4 2.4-6.2.5-6.5-2z" fill="#656565"/><path d="m79.2 151.2-2.4 4.4s4.5.8 15.5-1.9c10.9-2.7 17.6-9.9 17.6-9.9s-8.5 4.2-15.6 5.9c-7 1.6-15.1 1.5-15.1 1.5z" fill="#999"/></svg>