<svg xmlns:xlink="http://www.w3.org/1999/xlink"  enable-background="new 0 0 80 60" height="60" viewBox="0 0 80 60" width="80" xmlns="http://www.w3.org/2000/svg"><circle cx="40" cy="44" fill="#999" r="6"/><path d="m39.6 46.8c0 1.5-1.2 2.1-2.7 1.4-1.5-.8-2.7-2.6-2.7-4.1s1.2-2.1 2.7-1.4 2.7 2.6 2.7 4.1z" opacity=".3"/><path d="m36.9 42.7c-.2-.1-.4-.2-.6-.2-.5.2-.9.7-.9 1.4 0 1.4 1.1 3 2.5 3.7.6.3 1.1.3 1.5.2.2-.3.3-.6.3-1-.1-1.5-1.3-3.4-2.8-4.1z" fill="#36c"/><path d="m37.5 44.6c0 .4-.4.6-.8.4s-.8-.7-.8-1.2c0-.4.4-.6.8-.4.5.2.8.7.8 1.2z" fill="#fff" opacity=".3"/><path d="m38 35v4l2 1 2-1v-4l-2-1z" fill="#999"/><path d="m40 40-2-1v-4l2 1z" opacity=".11"/><path d="m40 40 2-1v-4l-2 1z" opacity=".29"/><path d="m21 16.5c0-1.4-2.2-2.5-5-2.5s-5 1.1-5 2.5v5.5c0 2.8 4.9 7 5 7s5-4.2 5-7c0-.1 0-5.5 0-5.5z" fill="#999"/><path d="m16 20c-2.8 0-5-1.1-5-2.5v3c0 1.4 2.2 2.5 5 2.5s5-1.1 5-2.5v-3c0 1.4-2.2 2.5-5 2.5z" fill="#cc291f"/><path d="m21 16.5c0 1.4-2.2 2.5-5 2.5s-5-1.1-5-2.5v5.5c0 2.8 4.9 7 5 7s5-4.2 5-7c0-.1 0-5.5 0-5.5z" opacity=".2"/><path d="m16 11c-1.1 0-2 .4-2 1v4c0 .6.9 1 2 1s2-.4 2-1v-4c0-.6-.9-1-2-1z" fill="#656565"/><path d="m16 13c-1.1 0-2-.4-2-1v4c0 .6.9 1 2 1s2-.4 2-1v-4c0 .6-.9 1-2 1z" opacity=".2"/><path d="m59 16.5c0-1.4 2.2-2.5 5-2.5s5 1.1 5 2.5v5.5c0 2.8-4.9 7-5 7s-5-4.2-5-7c0-.1 0-5.5 0-5.5z" fill="#999"/><path d="m64 20c2.8 0 5-1.1 5-2.5v3c0 1.4-2.2 2.5-5 2.5s-5-1.1-5-2.5v-3c0 1.4 2.2 2.5 5 2.5z" fill="#cc291f"/><path d="m59 16.5c0 1.4 2.2 2.5 5 2.5s5-1.1 5-2.5v5.5c0 2.8-4.9 7-5 7s-5-4.2-5-7c0-.1 0-5.5 0-5.5z" opacity=".2"/><path d="m64 11c1.1 0 2 .4 2 1v4c0 .6-.9 1-2 1s-2-.4-2-1v-4c0-.6.9-1 2-1z" fill="#656565"/><path d="m64 13c1.1 0 2-.4 2-1v4c0 .6-.9 1-2 1s-2-.4-2-1v-4c0 .6.9 1 2 1z" opacity=".2"/><path d="m63 20-4-2-2 1c-10.7 5.4-23.4 5.4-34.1 0l-2-1-4 2v3l9.3 4.6c2.8 1.4 2.8 5.4 0 6.8l-9.2 4.6v3l4 2 2-1c10.7-5.4 23.4-5.4 34.1 0l2 1 4-2v-3l-9.3-4.6c-2.8-1.4-2.8-5.4 0-6.8l9.2-4.6z" fill="#999"/><path d="m26.3 34.4.6-.3c3.8-1.9 3.8-7.3 0-9.1l-9.9-5v3l9.3 4.6c2.7 1.4 2.7 5.4 0 6.8z" opacity=".2"/><path d="m53 24.7c-3.9 1.8-3.9 7.3-.1 9.2l.9.4c-2.8-1.3-2.8-5.3 0-6.7l9.2-4.6v-3z" opacity=".2"/><path d="m23 40-2 1v3l2-1c10.7-5.4 23.4-5.4 34.1 0l2 1v-3l-2-1c-10.8-5.3-23.4-5.3-34.1 0z" opacity=".2"/><path d="m11 39.5c0-1.4 2.2-2.5 5-2.5s5 1.1 5 2.5v5.5c0 2.8-4.9 7-5 7s-5-4.2-5-7c0-.1 0-5.5 0-5.5z" fill="#999"/><path d="m16 43c2.8 0 5-1.1 5-2.5v3c0 1.4-2.2 2.5-5 2.5s-5-1.1-5-2.5v-3c0 1.4 2.2 2.5 5 2.5z" fill="#cc291f"/><path d="m11 39.5c0 1.4 2.2 2.5 5 2.5s5-1.1 5-2.5v5.5c0 2.8-4.9 7-5 7s-5-4.2-5-7c0-.1 0-5.5 0-5.5z" opacity=".2"/><path d="m16 34c1.1 0 2 .4 2 1v4c0 .6-.9 1-2 1s-2-.4-2-1v-4c0-.6.9-1 2-1z" fill="#656565"/><path d="m16 36c1.1 0 2-.4 2-1v4c0 .6-.9 1-2 1s-2-.4-2-1v-4c0 .6.9 1 2 1z" opacity=".2"/><path d="m69 39.5c0-1.4-2.2-2.5-5-2.5s-5 1.1-5 2.5v5.5c0 2.8 4.9 7 5 7s5-4.2 5-7c0-.1 0-5.5 0-5.5z" fill="#999"/><path d="m64 43c-2.8 0-5-1.1-5-2.5v3c0 1.4 2.2 2.5 5 2.5s5-1.1 5-2.5v-3c0 1.4-2.2 2.5-5 2.5z" fill="#cc291f"/><path d="m69 39.5c0 1.4-2.2 2.5-5 2.5s-5-1.1-5-2.5v5.5c0 2.8 4.9 7 5 7s5-4.2 5-7c0-.1 0-5.5 0-5.5z" opacity=".2"/><path d="m64 34c-1.1 0-2 .4-2 1v4c0 .6.9 1 2 1s2-.4 2-1v-4c0-.6-.9-1-2-1z" fill="#656565"/><path d="m64 36c-1.1 0-2-.4-2-1v4c0 .6.9 1 2 1s2-.4 2-1v-4c0 .6-.9 1-2 1z" opacity=".2"/><path d="m40 24.2c-5 0-9 2-9 4.5v1.3c0 2.5 4 4.5 9 4.5s9-2 9-4.5v-1.3c0-2.5-4-4.5-9-4.5z" fill="#999"/><path d="m40 33.2c-5 0-9-2-9-4.5v1.3c0 2.5 4 4.5 9 4.5s9-2 9-4.5v-1.3c0 2.5-4 4.5-9 4.5z" opacity=".2"/><path d="m40 24.8c-3.3 0-6 1.3-6 3v.7c0 1.7 2.7 3 6 3s6-1.3 6-3v-.7c0-1.7-2.7-3-6-3z" fill="#656565"/><path d="m40 30.8c-3.3 0-6-1.3-6-3v.7c0 1.7 2.7 3 6 3s6-1.3 6-3v-.7c0 1.7-2.7 3-6 3z" opacity=".2"/><g fill="#cc291f"><path d="m76.5 7.8c-2.9-2.3-7.4-3.8-12.5-3.8s-9.6 1.5-12.5 3.8l12.5 6.2z" opacity=".1"/><path d="m51.5 20.2c2.9 2.3 7.4 3.8 12.5 3.8s9.6-1.5 12.5-3.8l-12.5-6.2z" opacity=".1"/><path d="m80 14c0-2.4-1.3-4.5-3.5-6.2l-12.5 6.2 12.5 6.2c2.2-1.7 3.5-3.8 3.5-6.2z" opacity=".4"/><path d="m51.5 7.8c-2.2 1.7-3.5 3.8-3.5 6.2s1.3 4.5 3.5 6.2l12.5-6.2z" opacity=".4"/></g><path d="m64 11c1.1 0 2 .4 2 1v2c0 .6-.9 1-2 1s-2-.4-2-1v-2c0-.6.9-1 2-1z" fill="#656565"/><path d="m64 13c1.1 0 2-.4 2-1v2c0 .6-.9 1-2 1s-2-.4-2-1v-2c0 .6.9 1 2 1z" opacity=".2"/><path d="m76.5 30.8c-2.9-2.3-7.4-3.8-12.5-3.8s-9.6 1.5-12.5 3.8l12.5 6.2z" fill="#cc291f" opacity=".1"/><path d="m51.5 43.2c2.9 2.3 7.4 3.8 12.5 3.8s9.6-1.5 12.5-3.8l-12.5-6.2z" fill="#cc291f" opacity=".1"/><path d="m80 37c0-2.4-1.3-4.5-3.5-6.2l-12.5 6.2 12.5 6.2c2.2-1.7 3.5-3.8 3.5-6.2z" fill="#cc291f" opacity=".4"/><path d="m51.5 30.8c-2.2 1.7-3.5 3.8-3.5 6.2s1.3 4.5 3.5 6.2l12.5-6.2z" fill="#cc291f" opacity=".4"/><path d="m64 34c1.1 0 2 .4 2 1v2c0 .6-.9 1-2 1s-2-.4-2-1v-2c0-.6.9-1 2-1z" fill="#656565"/><path d="m64 36c1.1 0 2-.4 2-1v2c0 .6-.9 1-2 1s-2-.4-2-1v-2c0 .6.9 1 2 1z" opacity=".2"/><path d="m28.5 7.8c-2.9-2.3-7.4-3.8-12.5-3.8s-9.6 1.5-12.5 3.8l12.5 6.2z" fill="#cc291f" opacity=".1"/><path d="m3.5 20.2c2.9 2.3 7.4 3.8 12.5 3.8s9.6-1.5 12.5-3.8l-12.5-6.2z" fill="#cc291f" opacity=".1"/><path d="m32 14c0-2.4-1.3-4.5-3.5-6.2l-12.5 6.2 12.5 6.2c2.2-1.7 3.5-3.8 3.5-6.2z" fill="#cc291f" opacity=".4"/><path d="m3.5 7.8c-2.2 1.7-3.5 3.8-3.5 6.2s1.3 4.5 3.5 6.2l12.5-6.2z" fill="#cc291f" opacity=".4"/><path d="m16 11c1.1 0 2 .4 2 1v2c0 .6-.9 1-2 1s-2-.4-2-1v-2c0-.6.9-1 2-1z" fill="#656565"/><path d="m16 13c1.1 0 2-.4 2-1v2c0 .6-.9 1-2 1s-2-.4-2-1v-2c0 .6.9 1 2 1z" opacity=".2"/><path d="m28.5 30.8c-2.9-2.3-7.4-3.8-12.5-3.8s-9.6 1.5-12.5 3.8l12.5 6.2z" fill="#cc291f" opacity=".1"/><path d="m3.5 43.2c2.9 2.3 7.4 3.8 12.5 3.8s9.6-1.5 12.5-3.8l-12.5-6.2z" fill="#cc291f" opacity=".1"/><path d="m32 37c0-2.4-1.3-4.5-3.5-6.2l-12.5 6.2 12.5 6.2c2.2-1.7 3.5-3.8 3.5-6.2z" fill="#cc291f" opacity=".4"/><path d="m3.5 30.8c-2.2 1.7-3.5 3.8-3.5 6.2s1.3 4.5 3.5 6.2l12.5-6.2z" fill="#cc291f" opacity=".4"/><path d="m16 34c1.1 0 2 .4 2 1v2c0 .6-.9 1-2 1s-2-.4-2-1v-2c0-.6.9-1 2-1z" fill="#656565"/><path d="m16 36c1.1 0 2-.4 2-1v2c0 .6-.9 1-2 1s-2-.4-2-1v-2c0 .6.9 1 2 1z" opacity=".2"/></svg>