<svg xmlns:xlink="http://www.w3.org/1999/xlink"  enable-background="new 0 0 80 80" height="80" viewBox="0 0 80 80" width="80" xmlns="http://www.w3.org/2000/svg"><path d="m20.8 67.1c9.2 4.8 16.9 3.4 26.9-1 11.1-4.8 16.1-13.9 10.6-17.1s-14.3-.8-23.7 3.1c-8.7 3.5-19.9 11.8-13.8 15z" opacity=".2"/><path d="m32.9 39.3c-6.6 3.2-9.2 8.9-10.2 13-.7 2.7 1.2 5.4 4 5.6 3.8.4 9.5.1 15-2.9 9.3-5.3 12.3-9.7 13.1-13.2.6-2.7.4-5.6.2-6.1-3.1.5-11-1.8-22.1 3.6z" fill="#825012"/><path d="m20.1 46s-7.5 15.7 1.9 20.3c9.9 4.8 30.1 1.5 37.8-13.7s3.7-22.5 3.7-22.5-1.9 3-4.8 4.2c-2.9 1.3-13.8 1.5-22.8 5.8s-14.2 8.6-15.8 5.9z" fill="#762c07"/><path d="m13.7 43.1c.9-3.3 1-8.9 5.2-10.3s7.3 1.4 7.9 5.1c.7 3.7 1 7.4 1.7 9.1s-1.9 6.3-7 5.6c-4.6-.6-3.5-2-2.9-3.6.4-1.3.8-2.2.5-2.9s-2.3.4-2.3.4z" fill="#28896d"/><path d="m17 43.5s-1.1.6-1.9.3c-.7-.4-1.1-1.8-1.1-1.8s-1.3 3.3-2.5 4.4-5.5 3.1-2.5 5.4c3 2.2 5.3-1.8 6.1-3s3.1-2.9 3.1-2.9z" fill="#f90"/><path d="m19.6 41.3s-.1-1.2.8-1.6c.8-.4 1.4.4 1.4.4s-.3.8-.8 1c-.6.2-1.4.2-1.4.2z" fill="#2d3134"/><path d="m28.6 46.9c-.9 1.9-3.4 4.7-7.2 4.2-1.9-.3-2.9-.6-3.3-1.1-.6 1.5-1.2 3 3.3 3.1 5.1.2 7.9-4.4 7.2-6.1.1-.1 0-.1 0-.1z" fill="#e5e5e5"/><path d="m41.9 44c-6.6 3.2-9.2 8.9-10.2 13-.7 2.7 1.2 5.4 4 5.6 3.8.4 9.5.1 15-2.9 9.4-5.3 12.3-9.7 13.1-13.2.6-2.7.4-5.6.2-6.1-3 .5-10.9-1.8-22.1 3.6z" fill="#825012"/><path d="m64 40.6c0 .7-.1 3.7-.7 4.2s-1.2-.1-1.2-.1 1.1 3.8-.9 4.8c-1.5.7-1.6-1.5-1.6-1.5s-1 4.9-5.2 8.2c-10.2 7.8-19.3 5.8-21.4 5.2.7.7 1.6 1.1 2.7 1.2 3.8.4 9.5.1 15-2.9 9.4-5.3 12.3-9.7 13.1-13.2.5-2.5.4-5.1.2-5.9z" opacity=".2"/></svg>