<svg xmlns:xlink="http://www.w3.org/1999/xlink"  enable-background="new 0 0 40 40" height="40" viewBox="0 0 40 40" width="40" xmlns="http://www.w3.org/2000/svg"><path d="m30.3 22.6s-7.2-.9-11.2-2.5c-2.8-1.1-6.4-3.9-8.2-4.2-2.5-.4-4.9.9-6 3 0 .1-.1.1-.1.1-.4.7-.6 1.5-.5 2.4 0 1.2.4 2.4 1.1 3.3 1.7 3.1 5.3 6.5 10 9.2 4.8 2.8 9.1 3.8 13.3 3.8s7.2-2.5 7.9-6.3c.7-4.1-2.1-8-6.3-8.8z" fill="#939"/><path d="m29.5 35.8c-4.5 0-9-1.1-14.1-4-5-2.8-8.7-6.4-10.5-9.7-.3-.4-.5-.8-.7-1.2v.7c0 1.2.4 2.4 1.1 3.3 1.7 3.1 5.3 6.5 10 9.2 4.8 2.8 9.1 3.8 13.3 3.8 3.7 0 6.4-1.9 7.5-4.9-1.5 1.8-3.7 2.8-6.6 2.8z" opacity=".15"/><path d="m5.5 26.3c0 .2.5-2.6.5-2.6l5.8 1.3-1.1-5.1 3.8-2.8s-2.1-.8-3.1-1.2c-.9-.4-2-.5-3.2-.3s-3.1-2.4-4-3.8-1-1.4-1-1.4-1.1.4-1 1.2c0 .8 2.6 4.8 2.4 6.5s-.8 1.9-.5 4.5c.2 1.8 1.5 2.8 1.4 3.7z" fill="#9c3"/></svg>