<svg xmlns:xlink="http://www.w3.org/1999/xlink"  enable-background="new 0 0 160 160" height="160" viewBox="0 0 160 160" width="160" xmlns="http://www.w3.org/2000/svg"><path d="m60 87-34 17v29l14 7 34-17v-29z" fill="#558055"/><path d="m26 133v-29l14 7v29z" opacity=".11"/><path d="m74 123v-29l-34 17v29z" opacity=".29"/><path d="m39 28.9c-1.7 0-3 .7-3 1.5v74.1c0 .8 1.3 1.5 3 1.5s3-.7 3-1.5v-74.1c0-.8-1.3-1.5-3-1.5z" fill="#2d3134"/><path d="m39 31.9c-1.7 0-3-.7-3-1.5v74.1c0 .8 1.3 1.5 3 1.5s3-.7 3-1.5v-74.1c0 .8-1.3 1.5-3 1.5z" opacity=".2"/><path d="m39 26c-1.9 0-3.4.8-3.4 1.7v2.6c0 .9 1.5 1.7 3.4 1.7s3.4-.8 3.4-1.7v-2.6c0-.9-1.5-1.7-3.4-1.7z" fill="#2d3134"/><path d="m39 29.4c-1.9 0-3.4-.8-3.4-1.7v2.6c0 .9 1.5 1.7 3.4 1.7s3.4-.8 3.4-1.7v-2.6c0 1-1.5 1.7-3.4 1.7z" opacity=".1"/><path d="m51 22.9c-1.7 0-3 .7-3 1.5v74.1c0 .8 1.3 1.5 3 1.5s3-.7 3-1.5v-74.1c0-.8-1.3-1.5-3-1.5z" fill="#2d3134"/><path d="m51 25.9c-1.7 0-3-.7-3-1.5v74.1c0 .8 1.3 1.5 3 1.5s3-.7 3-1.5v-74.1c0 .8-1.3 1.5-3 1.5z" opacity=".2"/><path d="m51 20c-1.9 0-3.4.8-3.4 1.7v2.6c0 .9 1.5 1.7 3.4 1.7s3.4-.8 3.4-1.7v-2.6c0-.9-1.5-1.7-3.4-1.7z" fill="#2d3134"/><path d="m51 23.4c-1.9 0-3.4-.8-3.4-1.7v2.6c0 .9 1.5 1.7 3.4 1.7s3.4-.8 3.4-1.7v-2.6c0 1-1.5 1.7-3.4 1.7z" opacity=".1"/><path d="m63 16.9c-1.7 0-3 .7-3 1.5v74.1c0 .8 1.3 1.5 3 1.5s3-.7 3-1.5v-74.1c0-.8-1.3-1.5-3-1.5z" fill="#2d3134"/><path d="m63 19.9c-1.7 0-3-.7-3-1.5v74.1c0 .8 1.3 1.5 3 1.5s3-.7 3-1.5v-74.1c0 .8-1.3 1.5-3 1.5z" opacity=".2"/><path d="m63 14c-1.9 0-3.4.8-3.4 1.7v2.6c0 .9 1.5 1.7 3.4 1.7s3.4-.8 3.4-1.7v-2.6c0-.9-1.5-1.7-3.4-1.7z" fill="#2d3134"/><path d="m63 17.4c-1.9 0-3.4-.8-3.4-1.7v2.6c0 .9 1.5 1.7 3.4 1.7s3.4-.8 3.4-1.7v-2.6c0 1-1.5 1.7-3.4 1.7z" opacity=".1"/><path d="m72 97-30 15v27l38 19 30-15v-27z" fill="#558055"/><path d="m42 139v-27l38 19v27z" opacity=".11"/><path d="m44 140v-27l30-15 2 1-30 15v27z" opacity=".2"/><path d="m48 142v-27l30-15 2 1-30 15v27z" opacity=".2"/><path d="m52 144v-27l30-15 2 1-30 15v27z" opacity=".2"/><path d="m56 146v-27l30-15 2 1-30 15v27z" opacity=".2"/><path d="m60 148v-27l30-15 2 1-30 15v27z" opacity=".2"/><path d="m64 150v-27l30-15 2 1-30 15v27z" opacity=".2"/><path d="m100 107-34 17v29l14 7 34-17v-29z" fill="#558055"/><path d="m66 153v-29l14 7v29z" opacity=".11"/><path d="m114 143v-29l-34 17v29z" opacity=".29"/><path d="m79 48.9c-1.7 0-3 .7-3 1.5v74.1c0 .8 1.3 1.5 3 1.5s3-.7 3-1.5v-74.1c0-.8-1.3-1.5-3-1.5z" fill="#2d3134"/><path d="m79 51.9c-1.7 0-3-.7-3-1.5v74.1c0 .8 1.3 1.5 3 1.5s3-.7 3-1.5v-74.1c0 .8-1.3 1.5-3 1.5z" opacity=".2"/><path d="m79 46c-1.9 0-3.4.8-3.4 1.7v2.6c0 .9 1.5 1.7 3.4 1.7s3.4-.8 3.4-1.7v-2.6c0-.9-1.5-1.7-3.4-1.7z" fill="#2d3134"/><path d="m79 49.4c-1.9 0-3.4-.8-3.4-1.7v2.6c0 .9 1.5 1.7 3.4 1.7s3.4-.8 3.4-1.7v-2.6c0 1-1.5 1.7-3.4 1.7z" opacity=".1"/><path d="m91 42.9c-1.7 0-3 .7-3 1.5v74.1c0 .8 1.3 1.5 3 1.5s3-.7 3-1.5v-74.1c0-.8-1.3-1.5-3-1.5z" fill="#2d3134"/><path d="m91 45.9c-1.7 0-3-.7-3-1.5v74.1c0 .8 1.3 1.5 3 1.5s3-.7 3-1.5v-74.1c0 .8-1.3 1.5-3 1.5z" opacity=".2"/><path d="m91 40c-1.9 0-3.4.8-3.4 1.7v2.6c0 .9 1.5 1.7 3.4 1.7s3.4-.8 3.4-1.7v-2.6c0-.9-1.5-1.7-3.4-1.7z" fill="#2d3134"/><path d="m91 43.4c-1.9 0-3.4-.8-3.4-1.7v2.6c0 .9 1.5 1.7 3.4 1.7s3.4-.8 3.4-1.7v-2.6c0 1-1.5 1.7-3.4 1.7z" opacity=".1"/><path d="m103 36.9c-1.7 0-3 .7-3 1.5v74.1c0 .8 1.3 1.5 3 1.5s3-.7 3-1.5v-74.1c0-.8-1.3-1.5-3-1.5z" fill="#2d3134"/><path d="m103 39.9c-1.7 0-3-.7-3-1.5v74.1c0 .8 1.3 1.5 3 1.5s3-.7 3-1.5v-74.1c0 .8-1.3 1.5-3 1.5z" opacity=".2"/><path d="m103 34c-1.9 0-3.4.8-3.4 1.7v2.6c0 .9 1.5 1.7 3.4 1.7s3.4-.8 3.4-1.7v-2.6c0-.9-1.5-1.7-3.4-1.7z" fill="#2d3134"/><path d="m103 37.4c-1.9 0-3.4-.8-3.4-1.7v2.6c0 .9 1.5 1.7 3.4 1.7s3.4-.8 3.4-1.7v-2.6c0 1-1.5 1.7-3.4 1.7z" opacity=".1"/><path d="m67.1 127.5.9-.5c.2-.1.5-.1.9.1.7.3 1.3 1.2 1.3 1.9 0 .4-.2.6-.4.7l-.8.4c-.2.1-.6.1-.9-.1-.7-.3-1.3-1.2-1.3-1.9 0-.2.1-.4.3-.6z" fill="#656565"/><path d="m69.3 129.5c0-.7-.6-1.5-1.3-1.9-.3-.2-.6-.2-.9-.1l.8-.4c.2-.1.5-.1.9.1.7.3 1.3 1.2 1.3 1.9 0 .4-.2.6-.4.7l-.8.4c.3-.2.4-.4.4-.7z" opacity=".29"/><path d="m66.8 128.2c0 .7.6 1.5 1.3 1.9.7.3 1.3.1 1.3-.6s-.6-1.5-1.3-1.9-1.3-.1-1.3.6z" opacity=".11"/><path d="m67.1 150.2.9-.5c.2-.1.5-.1.9.1.7.3 1.3 1.2 1.3 1.9 0 .4-.2.6-.4.7l-.8.4c-.2.1-.6.1-.9-.1-.7-.3-1.3-1.2-1.3-1.9 0-.2.1-.4.3-.6z" fill="#656565"/><path d="m69.3 152.2c0-.7-.6-1.5-1.3-1.9-.3-.2-.6-.2-.9-.1l.8-.4c.2-.1.5-.1.9.1.7.3 1.3 1.2 1.3 1.9 0 .4-.2.6-.4.7l-.8.4c.3-.2.4-.4.4-.7z" opacity=".29"/><path d="m66.8 150.9c0 .7.6 1.5 1.3 1.9s1.3.1 1.3-.6-.6-1.5-1.3-1.9-1.3-.1-1.3.6z" opacity=".11"/><path d="m75.6 131.7.9-.5c.2-.1.5-.1.9.1.7.3 1.3 1.2 1.3 1.9 0 .4-.2.6-.4.7l-.8.4c-.2.1-.6.1-.9-.1-.7-.3-1.3-1.2-1.3-1.9 0-.2.1-.4.3-.6z" fill="#656565"/><path d="m77.8 133.7c0-.7-.6-1.5-1.3-1.9-.3-.2-.6-.2-.9-.1l.8-.4c.2-.1.5-.1.9.1.7.3 1.3 1.2 1.3 1.9 0 .4-.2.6-.4.7l-.8.4c.2-.2.4-.4.4-.7z" opacity=".29"/><path d="m75.3 132.4c0 .7.6 1.5 1.3 1.9s1.3.1 1.3-.6-.6-1.5-1.3-1.9c-.8-.4-1.3-.1-1.3.6z" opacity=".11"/><path d="m75.6 154.5.9-.5c.2-.1.5-.1.9.1.7.3 1.3 1.2 1.3 1.9 0 .4-.2.6-.4.7l-.8.4c-.2.1-.6.1-.9-.1-.7-.3-1.3-1.2-1.3-1.9 0-.3.1-.5.3-.6z" fill="#656565"/><path d="m77.8 156.4c0-.7-.6-1.5-1.3-1.9-.3-.2-.6-.2-.9-.1l.8-.4c.2-.1.5-.1.9.1.7.3 1.3 1.2 1.3 1.9 0 .4-.2.6-.4.7l-.8.4c.2-.2.4-.4.4-.7z" opacity=".29"/><path d="m75.3 155.1c0 .7.6 1.5 1.3 1.9.7.3 1.3.1 1.3-.6s-.6-1.5-1.3-1.9c-.8-.4-1.3-.1-1.3.6z" opacity=".11"/><path d="m27.1 107.5.9-.5c.2-.1.5-.1.9.1.7.3 1.3 1.2 1.3 1.9 0 .4-.2.6-.4.7l-.8.4c-.2.1-.6.1-.9-.1-.7-.3-1.3-1.2-1.3-1.9 0-.2.1-.4.3-.6z" fill="#656565"/><path d="m29.3 109.5c0-.7-.6-1.5-1.3-1.9-.3-.2-.6-.2-.9-.1l.8-.4c.2-.1.5-.1.9.1.7.3 1.3 1.2 1.3 1.9 0 .4-.2.6-.4.7l-.8.4c.3-.2.4-.4.4-.7z" opacity=".29"/><path d="m26.8 108.2c0 .7.6 1.5 1.3 1.9.7.3 1.3.1 1.3-.6s-.6-1.5-1.3-1.9-1.3-.1-1.3.6z" opacity=".11"/><path d="m27.1 130.2.9-.5c.2-.1.5-.1.9.1.7.3 1.3 1.2 1.3 1.9 0 .4-.2.6-.4.7l-.8.4c-.2.1-.6.1-.9-.1-.7-.3-1.3-1.2-1.3-1.9 0-.2.1-.4.3-.6z" fill="#656565"/><path d="m29.3 132.2c0-.7-.6-1.5-1.3-1.9-.3-.2-.6-.2-.9-.1l.8-.4c.2-.1.5-.1.9.1.7.3 1.3 1.2 1.3 1.9 0 .4-.2.6-.4.7l-.8.4c.3-.2.4-.4.4-.7z" opacity=".29"/><path d="m26.8 130.9c0 .7.6 1.5 1.3 1.9s1.3.1 1.3-.6-.6-1.5-1.3-1.9-1.3-.1-1.3.6z" opacity=".11"/><path d="m35.6 111.7.9-.5c.2-.1.5-.1.9.1.7.3 1.3 1.2 1.3 1.9 0 .4-.2.6-.4.7l-.8.4c-.2.1-.6.1-.9-.1-.7-.3-1.3-1.2-1.3-1.9 0-.2.1-.4.3-.6z" fill="#656565"/><path d="m37.8 113.7c0-.7-.6-1.5-1.3-1.9-.3-.2-.6-.2-.9-.1l.8-.4c.2-.1.5-.1.9.1.7.3 1.3 1.2 1.3 1.9 0 .4-.2.6-.4.7l-.8.4c.2-.2.4-.4.4-.7z" opacity=".29"/><path d="m35.3 112.4c0 .7.6 1.5 1.3 1.9.7.3 1.3.1 1.3-.6s-.6-1.5-1.3-1.9c-.8-.4-1.3-.1-1.3.6z" opacity=".11"/><path d="m35.6 134.5.9-.5c.2-.1.5-.1.9.1.7.3 1.3 1.2 1.3 1.9 0 .4-.2.6-.4.7l-.8.4c-.2.1-.6.1-.9-.1-.7-.3-1.3-1.2-1.3-1.9 0-.3.1-.5.3-.6z" fill="#656565"/><path d="m37.8 136.4c0-.7-.6-1.5-1.3-1.9-.3-.2-.6-.2-.9-.1l.8-.4c.2-.1.5-.1.9.1.7.3 1.3 1.2 1.3 1.9 0 .4-.2.6-.4.7l-.8.4c.2-.2.4-.4.4-.7z" opacity=".29"/><path d="m35.3 135.1c0 .7.6 1.5 1.3 1.9.7.3 1.3.1 1.3-.6s-.6-1.5-1.3-1.9c-.8-.4-1.3-.1-1.3.6z" opacity=".11"/></svg>