<svg xmlns:xlink="http://www.w3.org/1999/xlink"  enable-background="new 0 0 48 64" height="64" viewBox="0 0 48 64" width="48" xmlns="http://www.w3.org/2000/svg"><path d="m38 8v32l2 1 2-1v-32l-2-1z" fill="#762c07"/><path d="m38 8v32l2 1v-32z" opacity=".11"/><path d="m42 8v32l-2 1v-32z" opacity=".29"/><path d="m13 23.5v6l1 .5 22-11v-6l-1-.5z" fill="#baa794"/><path d="m13 23.5v6l1 .5v-6z" opacity=".11"/><path d="m36 13v6l-22 11v-6z" opacity=".29"/><g fill="#2d3134"><path d="m19 21-1 .5v-5l1-.5z"/><path d="m31 15-1 .5v-5l1-.5z"/><path d="m39 12v1l-4-2v-1z"/><path d="m9 28 4-6v-1l-4 6z"/></g><path d="m6 24v32l2 1 2-1v-32l-2-1z" fill="#762c07"/><path d="m6 24v32l2 1v-32z" opacity=".11"/><path d="m10 24v32l-2 1v-32z" opacity=".29"/><path d="m4 23v2l2 1 38-19v-2l-2-1z" fill="#762c07"/><path d="m4 23v2l2 1v-2z" opacity=".11"/><path d="m44 5v2l-38 19v-2z" opacity=".29"/></svg>