<svg xmlns:xlink="http://www.w3.org/1999/xlink"  enable-background="new 0 0 100 100" height="100" viewBox="0 0 100 100" width="100" xmlns="http://www.w3.org/2000/svg"><path d="m0 60v10l60 30 32-16v-23l-60-30-6 3z" fill="#2d3134"/><path d="m60 100-60-30v-10l60 30z" opacity=".11"/><path d="m60 100 32-16v-23l-6 3-26 26z" opacity=".29"/><path d="m38 34-6 3 44 22 6-3z" opacity=".5"/><path d="m38 16v20l40 20 2-1v-20l-40-20z" fill="#2d3134"/><path d="m78 56-40-20v-20l40 20z" opacity=".11"/><path d="m78 56 2-1v-20l-2 1z" opacity=".29"/><path d="m40 3 36 18v36l-36-18z" fill="#e5e5e5"/><path d="m49 51v2l-3 3-4-2v-2l4 2z" opacity=".2"/><path d="m46 54-4-2 3-3 4 2z" fill="#fff" opacity=".1"/><path d="m44 56v2l-3 3-4-2v-2l4 2z" opacity=".2"/><path d="m41 59-4-2 3-3 4 2z" fill="#fff" opacity=".1"/><path d="m39 61v2l-3 3-4-2v-2l4 2z" opacity=".2"/><path d="m36 64-4-2 3-3 4 2z" fill="#fff" opacity=".1"/><path d="m34 66v2l-3 3-4-2v-2l4 2z" opacity=".2"/><path d="m31 69-4-2 3-3 4 2z" fill="#fff" opacity=".1"/><path d="m55 54v2l-3 3-4-2v-2l4 2z" opacity=".2"/><path d="m52 57-4-2 3-3 4 2z" fill="#fff" opacity=".1"/><path d="m50 59v2l-3 3-4-2v-2l4 2z" opacity=".2"/><path d="m47 62-4-2 3-3 4 2z" fill="#fff" opacity=".1"/><path d="m45 64v2l-3 3-4-2v-2l4 2z" opacity=".2"/><path d="m42 67-4-2 3-3 4 2z" fill="#fff" opacity=".1"/><path d="m40 69v2l-3 3-4-2v-2l4 2z" opacity=".2"/><path d="m37 72-4-2 3-3 4 2z" fill="#fff" opacity=".1"/><path d="m61 57v2l-3 3-4-2v-2l4 2z" opacity=".2"/><path d="m58 60-4-2 3-3 4 2z" fill="#fff" opacity=".1"/><path d="m56 62v2l-3 3-4-2v-2l4 2z" opacity=".2"/><path d="m53 65-4-2 3-3 4 2z" fill="#fff" opacity=".1"/><path d="m51 67v2l-3 3-4-2v-2l4 2z" opacity=".2"/><path d="m48 70-4-2 3-3 4 2z" fill="#fff" opacity=".1"/><path d="m46 72v2l-3 3-4-2v-2l4 2z" opacity=".2"/><path d="m43 75-4-2 3-3 4 2z" fill="#fff" opacity=".1"/><path d="m69 61v2l-3 3-4-2v-2l4 2z" opacity=".2"/><path d="m66 64-4-2 3-3 4 2z" fill="#fff" opacity=".1"/><path d="m64 66v2l-3 3-4-2v-2l4 2z" opacity=".2"/><path d="m61 69-4-2 3-3 4 2z" fill="#fff" opacity=".1"/><path d="m59 71v2l-3 3-4-2v-2l4 2z" opacity=".2"/><path d="m56 74-4-2 3-3 4 2z" fill="#fff" opacity=".1"/><path d="m67 75v2l-3 3-4-2v-2l4 2z" opacity=".2"/><path d="m64 78-4-2 3-3 4 2z" fill="#9c3" opacity=".8"/><path d="m54 76v2l-3 3-4-2v-2l4 2z" opacity=".2"/><path d="m51 79-4-2 3-3 4 2z" fill="#fff" opacity=".1"/><path d="m37 40v4l-23 23-10-5v-4l10 5z" opacity=".2"/><path d="m14 63-10-5 23-23 10 5z" fill="#fff" opacity=".1"/><path d="m10 75 40 20v-4l-40-20z" opacity=".4"/></svg>