<svg xmlns:xlink="http://www.w3.org/1999/xlink"  enable-background="new 0 0 320 160" height="160" viewBox="0 0 320 160" width="320" xmlns="http://www.w3.org/2000/svg"><path d="m60 110 160-80 100 50-160 80z" fill="#825012"/><path d="m220 30-160 80 80 40 80-40z" opacity=".29"/><path d="m220 30v80l20 10 80-40z" opacity=".11"/><path d="m220 40-140 70v10l80 40 140-70v-10z" fill="#656565"/><path d="m300 80v10l-140 70v-10z" opacity=".29"/><path d="m80 110v10l80 40v-10z" opacity=".11"/><path d="m220 43-134 67 64 32 70-35z" opacity=".29"/><path d="m220 43v64l10 5 64-32z" opacity=".11"/><g opacity=".3"><path d="m272 99c0 1.1-.9 2.4-2 3s-2 .1-2-1 .9-2.4 2-3 2-.1 2 1z"/><path d="m252 109c0 1.1-.9 2.4-2 3s-2 .1-2-1 .9-2.4 2-3 2-.1 2 1z"/><path d="m232 119c0 1.1-.9 2.4-2 3s-2 .1-2-1 .9-2.4 2-3 2-.1 2 1z"/><path d="m212 129c0 1.1-.9 2.4-2 3s-2 .1-2-1 .9-2.4 2-3 2-.1 2 1z"/><path d="m192 139c0 1.1-.9 2.4-2 3s-2 .1-2-1 .9-2.4 2-3 2-.1 2 1z"/><path d="m172 149c0 1.1-.9 2.4-2 3s-2 .1-2-1 .9-2.4 2-3 2-.1 2 1z"/><path d="m292 89c0 1.1-.9 2.4-2 3s-2 .1-2-1 .9-2.4 2-3 2-.1 2 1z"/><path d="m128 139c0 1.1.9 2.4 2 3s2 .1 2-1-.9-2.4-2-3-2-.1-2 1z"/><path d="m108 129c0 1.1.9 2.4 2 3s2 .1 2-1-.9-2.4-2-3-2-.1-2 1z"/><path d="m88 119c0 1.1.9 2.4 2 3s2 .1 2-1-.9-2.4-2-3-2-.1-2 1z"/><path d="m148 149c0 1.1.9 2.4 2 3s2 .1 2-1-.9-2.4-2-3-2-.1-2 1z"/></g><g opacity=".3"><path d="m108 103.8c0-1.1.9-2.4 2-3s2-.1 2 1-.9 2.4-2 3c-1.1.5-2 .1-2-1z"/><path d="m128 93.8c0-1.1.9-2.4 2-3s2-.1 2 1-.9 2.4-2 3c-1.1.5-2 .1-2-1z"/><path d="m148 83.8c0-1.1.9-2.4 2-3s2-.1 2 1-.9 2.4-2 3c-1.1.5-2 .1-2-1z"/><path d="m168 73.8c0-1.1.9-2.4 2-3s2-.1 2 1-.9 2.4-2 3c-1.1.5-2 .1-2-1z"/><path d="m188 63.8c0-1.1.9-2.4 2-3s2-.1 2 1-.9 2.4-2 3c-1.1.5-2 .1-2-1z"/><path d="m208 53.8c0-1.1.9-2.4 2-3s2-.1 2 1-.9 2.4-2 3-2 .1-2-1z"/><path d="m252 63.8c0-1.1-.9-2.4-2-3s-2-.1-2 1 .9 2.4 2 3c1.1.5 2 .1 2-1z"/><path d="m272 73.8c0-1.1-.9-2.4-2-3s-2-.1-2 1 .9 2.4 2 3c1.1.5 2 .1 2-1z"/><path d="m232 53.8c0-1.1-.9-2.4-2-3s-2-.1-2 1 .9 2.4 2 3 2 .1 2-1z"/></g></svg>