<svg xmlns:xlink="http://www.w3.org/1999/xlink"  enable-background="new 0 0 80 60" height="60" viewBox="0 0 80 60" width="80" xmlns="http://www.w3.org/2000/svg"><path d="m34 17.5c-.1 0-.2 0-.2-.1l-15-7.5c-.2-.1-.3-.4-.2-.7.1-.2.4-.3.6-.1l15 7.5c.2.1.3.4.2.7 0 .1-.2.2-.4.2z" fill="#656565"/><path d="m17 35v6l20 10 20-10v-6l-20-10z" fill="#2d3134"/><path d="m37 51-20-10v-6l20 10z" opacity=".11"/><path d="m37 45v6l20-10v-6z" opacity=".29"/><path d="m19 23v12l18 9 18-9v-12l-18-9z" fill="#999"/><path d="m37 44-18-9v-12l18 9z" opacity=".11"/><path d="m37 32v12l18-9v-12z" opacity=".29"/><path d="m17 19v4l20 10 20-10v-4l-20-10z" fill="#2d3134"/><path d="m37 33-20-10v-4l20 10z" opacity=".11"/><path d="m37 29v4l20-10v-4z" opacity=".29"/><path d="m35 8v4l16 8 4-2v-4l-16-8z" fill="#2d3134"/><path d="m51 20-16-8v-4l16 8z" opacity=".11"/><path d="m51 16v4l4-2v-4z" opacity=".29"/><path d="m12 44 1 1 16 8 7-21-1-1-16-8z" fill="#2d3134"/><path d="m29 53-16-8-1-1 16 8z" opacity=".11"/><path d="m28 52 1 1 7-21-1-1z" opacity=".29"/><path d="m14.4 43 5.8-17.2 12.4 6.2-5.8 17.2z" fill="#36c"/><path d="m26 13.5-2 1v4l15 7.5 5-2.5v-2l2 1 4-2v-4l-2-3-11-5.5z" fill="#2d3134"/><path d="m39 26-15-7.5v-4l2-1 11 5.5 2 3z" opacity=".11"/><path d="m37 19 2 3v4l5-2.5v-2l2-1v2l4-2v-4l-2-3z" opacity=".29"/><path d="m44 21.5 2 1v-2z" opacity=".11"/><path d="m23 22v3l6 3 2-2 4-2v-2l-6-3z" fill="#2d3134"/><path d="m29 28-6-3v-3l6 3z" opacity=".11"/><path d="m29 25v3l2-2 4-2v-2z" opacity=".29"/><path d="m36 25c-1.1 0-2 .4-2 1v1c0 .6.9 1 2 1s2-.4 2-1v-1c0-.6-.9-1-2-1z" fill="#2d3134"/><path d="m36 27c-1.1 0-2-.4-2-1v1c0 .6.9 1 2 1s2-.4 2-1v-1c0 .6-.9 1-2 1z" opacity=".2"/><path d="m22 18c-1.1 0-2 .4-2 1v1c0 .6.9 1 2 1s2-.4 2-1v-1c0-.6-.9-1-2-1z" fill="#2d3134"/><path d="m22 20c-1.1 0-2-.4-2-1v1c0 .6.9 1 2 1s2-.4 2-1v-1c0 .6-.9 1-2 1z" opacity=".2"/><path d="m60 30.5c-.1 0-.2 0-.2-.1l-15-7.5c-.2-.1-.3-.4-.2-.7.1-.2.4-.3.7-.2l15 7.5c.2.1.3.4.2.7-.1.2-.3.3-.5.3z" fill="#656565"/></svg>