<svg xmlns:xlink="http://www.w3.org/1999/xlink"  enable-background="new 0 0 80 60" height="60" viewBox="0 0 80 60" width="80" xmlns="http://www.w3.org/2000/svg"><path d="m57.8 32.4-36.6-18.2c-2.1-1.1-4-2.1-6.4-2.1-5.9 0-10.8 4.9-10.8 10.9 0 3.4 1.6 6.7 4 8.4.3.3 38 19.2 38 19.2 1.5.7 3.6.6 6-.5 4.7-2.4 8.5-8.1 8.5-12.8 0-2.5-1-4.2-2.7-4.9z" fill="#2d3134"/><path d="m4.5 19.7c-.3 1-.5 2.1-.5 3.3 0 3.4 1.6 6.7 4 8.4.3.3 35.8 18.1 37.9 19.2-1.5-.8-2.4-2.4-2.4-4.8 0-1.9.6-4 1.7-5.9z" opacity=".11"/><path d="m43.5 45.8c0 4.7 3.8 6.6 8.5 4.3 4.7-2.4 8.5-8.1 8.5-12.8s-3.8-6.7-8.5-4.3-8.5 8.1-8.5 12.8z" opacity=".29"/><path d="m18.1 33.2c0-4.7 3.8-10.4 8.5-12.8 2.9-1.5 5.5-1.3 7 .2-1.5-2-4.3-2.4-7.7-.8-4.8 2.4-8.7 8.2-8.7 13.1 0 2.9 1.4 4.7 3.5 5.2-1.6-.8-2.6-2.5-2.6-4.9z" fill="#2d3134"/><path d="m18.1 33.2c0-4.7 3.8-10.4 8.5-12.8 2.9-1.5 5.5-1.3 7 .2-1.5-2-4.3-2.4-7.7-.8-4.8 2.4-8.7 8.2-8.7 13.1 0 2.9 1.4 4.7 3.5 5.2-1.6-.8-2.6-2.5-2.6-4.9z" opacity=".2"/><path d="m13.1 30.7c0-4.7 3.8-10.4 8.5-12.8 2.9-1.5 5.5-1.3 7 .2-1.5-2-4.3-2.4-7.7-.8-4.8 2.4-8.7 8.2-8.7 13.1 0 2.9 1.4 4.7 3.5 5.2-1.6-.8-2.6-2.5-2.6-4.9z" fill="#2d3134"/><path d="m13.1 30.7c0-4.7 3.8-10.4 8.5-12.8 2.9-1.5 5.5-1.3 7 .2-1.5-2-4.3-2.4-7.7-.8-4.8 2.4-8.7 8.2-8.7 13.1 0 2.9 1.4 4.7 3.5 5.2-1.6-.8-2.6-2.5-2.6-4.9z" opacity=".2"/><path d="m8.1 28.2c0-4.7 3.8-10.4 8.5-12.8 2.9-1.5 5.5-1.3 7 .2-1.5-2-4.3-2.4-7.7-.8-4.8 2.4-8.7 8.2-8.7 13.1 0 2.9 1.4 4.7 3.5 5.2-1.6-.8-2.6-2.5-2.6-4.9z" fill="#2d3134"/><path d="m8.1 28.2c0-4.7 3.8-10.4 8.5-12.8 2.9-1.5 5.5-1.3 7 .2-1.5-2-4.3-2.4-7.7-.8-4.8 2.4-8.7 8.2-8.7 13.1 0 2.9 1.4 4.7 3.5 5.2-1.6-.8-2.6-2.5-2.6-4.9z" opacity=".2"/><path d="m23.1 35.7c0-4.7 3.8-10.4 8.5-12.8 2.9-1.5 5.5-1.3 7 .2-1.5-2-4.3-2.4-7.7-.8-4.8 2.4-8.7 8.2-8.7 13.1 0 2.9 1.4 4.7 3.5 5.2-1.6-.8-2.6-2.5-2.6-4.9z" fill="#2d3134"/><path d="m23.1 35.7c0-4.7 3.8-10.4 8.5-12.8 2.9-1.5 5.5-1.3 7 .2-1.5-2-4.3-2.4-7.7-.8-4.8 2.4-8.7 8.2-8.7 13.1 0 2.9 1.4 4.7 3.5 5.2-1.6-.8-2.6-2.5-2.6-4.9z" opacity=".2"/><path d="m28.1 38.2c0-4.7 3.8-10.4 8.5-12.8 2.9-1.5 5.5-1.3 7 .2-1.5-2-4.3-2.4-7.7-.8-4.8 2.4-8.7 8.2-8.7 13.1 0 2.9 1.4 4.7 3.5 5.2-1.6-.8-2.6-2.5-2.6-4.9z" fill="#2d3134"/><path d="m28.1 38.2c0-4.7 3.8-10.4 8.5-12.8 2.9-1.5 5.5-1.3 7 .2-1.5-2-4.3-2.4-7.7-.8-4.8 2.4-8.7 8.2-8.7 13.1 0 2.9 1.4 4.7 3.5 5.2-1.6-.8-2.6-2.5-2.6-4.9z" opacity=".2"/><path d="m33.1 40.7c0-4.7 3.8-10.4 8.5-12.8 2.9-1.5 5.5-1.3 7 .2-1.5-2-4.3-2.4-7.7-.8-4.8 2.4-8.7 8.2-8.7 13.1 0 2.9 1.4 4.7 3.5 5.2-1.6-.8-2.6-2.5-2.6-4.9z" fill="#2d3134"/><path d="m33.1 40.7c0-4.7 3.8-10.4 8.5-12.8 2.9-1.5 5.5-1.3 7 .2-1.5-2-4.3-2.4-7.7-.8-4.8 2.4-8.7 8.2-8.7 13.1 0 2.9 1.4 4.7 3.5 5.2-1.6-.8-2.6-2.5-2.6-4.9z" opacity=".2"/><path d="m38.1 43.2c0-4.7 3.8-10.4 8.5-12.8 2.9-1.5 5.5-1.3 7 .2-1.5-2-4.3-2.4-7.7-.8-4.8 2.4-8.7 8.2-8.7 13.1 0 2.9 1.4 4.7 3.5 5.2-1.6-.8-2.6-2.5-2.6-4.9z" fill="#2d3134"/><path d="m38.1 43.2c0-4.7 3.8-10.4 8.5-12.8 2.9-1.5 5.5-1.3 7 .2-1.5-2-4.3-2.4-7.7-.8-4.8 2.4-8.7 8.2-8.7 13.1 0 2.9 1.4 4.7 3.5 5.2-1.6-.8-2.6-2.5-2.6-4.9z" opacity=".2"/><path d="m46.1 45.2c0 3.5 2.8 4.9 6.3 3.2s6.3-6 6.3-9.5-2.8-4.9-6.3-3.2-6.3 6-6.3 9.5z" fill="#2d3134"/><path d="m50.7 31.6c2.5-1.3 4.8-1.4 6.5-.7l2.9 1.5c1.8.8 3 2.7 3 5.4 0 5.2-4.2 11.6-9.5 14.2-2.6 1.3-4.9 1.4-6.6.6 0 0-2.9-1.5-3.3-1.7-1.5-.9-2.5-2.7-2.5-5.1.1-5.2 4.3-11.6 9.5-14.2z" fill="#2d3134"/><path d="m46.9 52.6c-.7-.3-2.9-1.4-3.2-1.7-1.5-.9-2.5-2.7-2.5-5.1 0-2.1.7-4.4 1.9-6.6l2.9 1.5c-1.2 2.2-1.9 4.4-1.9 6.6.1 2.6 1.2 4.4 2.8 5.3z" opacity=".11"/><path d="m44.2 47.3c0 5.2 4.2 7.4 9.5 4.7 5.2-2.6 9.5-9 9.5-14.2s-4.2-7.4-9.5-4.7c-5.2 2.6-9.5 9-9.5 14.2z" opacity=".29"/><path d="m55.2 35.5c2.1-1 3.9-1.2 5.3-.5l10.7 5.2c1.5.7 2.4 2.2 2.4 4.4 0 4.3-3.5 9.5-7.7 11.6-2.1 1.1-4 1.2-5.4.5 0 0-10.6-5.2-11-5.4-1.2-.7-2-2.2-2-4.2 0-4.2 3.4-9.4 7.7-11.6z" fill="#2d3134"/><path d="m60.3 56.7c-.6-.3-10.6-5.2-10.9-5.4-1.2-.7-2-2.2-2-4.2 0-1.7.6-3.6 1.5-5.4l10.7 5.3c-.9 1.8-1.5 3.6-1.5 5.4 0 2.1.9 3.6 2.2 4.3z" opacity=".11"/><path d="m58.1 52.4c0 4.3 3.5 6 7.7 3.9 4.3-2.1 7.7-7.3 7.7-11.6s-3.5-6-7.7-3.9-7.7 7.3-7.7 11.6z" opacity=".29"/><path d="m60.9 51.5c0 3.1 2.5 4.3 5.6 2.8 3-1.5 5.5-5.3 5.5-8.3 0-3.1-2.5-4.3-5.6-2.8-3 1.5-5.5 5.3-5.5 8.3z" fill="#2d3134"/><path d="m60.9 51.5c0 3.1 2.5 4.3 5.6 2.8 3-1.5 5.5-5.3 5.5-8.3 0-3.1-2.5-4.3-5.6-2.8-3 1.5-5.5 5.3-5.5 8.3z" fill="#2d3134"/><path d="m60.9 51.5c0 3.1 2.5 4.3 5.6 2.8 3-1.5 5.5-5.3 5.5-8.3 0-3.1-2.5-4.3-5.6-2.8-3 1.5-5.5 5.3-5.5 8.3z" opacity=".1"/><path d="m69.8 42.6c.6.6 1 1.5 1 2.6 0 3.1-2.5 6.8-5.6 8.4-1.3.6-2.4.8-3.3.5 1 1 2.7 1.1 4.6.1 3-1.4 5.5-5.2 5.5-8.2 0-1.9-.9-3-2.2-3.4z" opacity=".11"/><path d="m66.7 46.3c.7-.3 1.3-.4 1.7-.2l3.5 1.7c.5.2.8.7.8 1.4 0 1.4-1.1 3.1-2.5 3.8-.7.3-1.3.4-1.8.2 0 0-3.5-1.7-3.6-1.8-.4-.2-.7-.7-.7-1.4.1-1.3 1.2-3 2.6-3.7z" fill="#2d3134"/><path d="m67.6 51.8c0 1.4 1.1 2 2.5 1.3s2.5-2.4 2.5-3.8-1.1-2-2.5-1.3c-1.3.7-2.5 2.4-2.5 3.8z" opacity=".29"/></svg>