<svg xmlns:xlink="http://www.w3.org/1999/xlink"  enable-background="new 0 0 80 60" height="60" viewBox="0 0 80 60" width="80" xmlns="http://www.w3.org/2000/svg"><path d="m9.5 7.7c.7-.3 1.3-.4 1.8-.2l3.6 1.8c.5.2.8.7.8 1.5 0 1.4-1.2 3.2-2.6 3.9-.7.4-1.4.4-1.8.2 0 0-3.6-1.8-3.7-1.8-.4-.3-.7-.7-.7-1.4 0-1.5 1.2-3.2 2.6-4z" fill="#2d3134"/><path d="m15.4 5.5c2.1-1 3.9-1.2 5.3-.5l10.7 5.2c1.5.7 2.4 2.2 2.4 4.4 0 4.3-3.5 9.5-7.7 11.6-2.1 1.1-4 1.2-5.4.5 0 0-10.6-5.2-11-5.4-1.2-.7-2-2.2-2-4.2-.1-4.2 3.4-9.5 7.7-11.6z" fill="#2d3134"/><path d="m20.5 26.7c-.5-.3-10.6-5.2-10.9-5.4-1.2-.7-2-2.2-2-4.2 0-1.7.6-3.6 1.5-5.4l10.7 5.3c-.9 1.8-1.5 3.6-1.5 5.4 0 2.1.8 3.6 2.2 4.3z" opacity=".11"/><path d="m18.3 22.4c0 4.3 3.5 6 7.7 3.9s7.7-7.3 7.7-11.6-3.5-6-7.7-3.9-7.7 7.3-7.7 11.6z" opacity=".29"/><path d="m20.7 21.8c0 3.2 2.6 4.5 5.7 2.9 3.2-1.6 5.7-5.4 5.7-8.6s-2.6-4.5-5.7-2.9-5.7 5.4-5.7 8.6z" fill="#2d3134"/><path d="m20.7 21.8c0 3.2 2.6 4.5 5.7 2.9 3.2-1.6 5.7-5.4 5.7-8.6s-2.6-4.5-5.7-2.9-5.7 5.4-5.7 8.6z" fill="#2d3134"/><path d="m20.7 21.8c0 3.2 2.6 4.5 5.7 2.9 3.2-1.6 5.7-5.4 5.7-8.6s-2.6-4.5-5.7-2.9-5.7 5.4-5.7 8.6z" opacity=".1"/><path d="m29.9 12.6c.6.6 1 1.5 1 2.7 0 3.2-2.6 7-5.7 8.6-1.3.7-2.5.8-3.5.6 1 1 2.8 1.1 4.7.1 3.2-1.6 5.7-5.4 5.7-8.6 0-1.8-.9-3-2.2-3.4z" opacity=".11"/><path d="m26.6 9c2.5-1.3 4.8-1.4 6.5-.7l2.9 1.5c1.8.8 3 2.7 3 5.4 0 5.2-4.2 11.6-9.5 14.2-2.6 1.3-4.9 1.4-6.6.6 0 0-2.9-1.5-3.3-1.7-1.5-.9-2.5-2.7-2.5-5.1 0-5.2 4.3-11.6 9.5-14.2z" fill="#2d3134"/><path d="m22.8 30c-.7-.3-2.9-1.4-3.2-1.7-1.5-.9-2.5-2.7-2.5-5.1 0-2.1.7-4.4 1.9-6.6l2.9 1.5c-1.2 2.2-1.9 4.4-1.9 6.6.1 2.6 1.1 4.5 2.8 5.3z" opacity=".11"/><path d="m20.1 24.7c0 5.2 4.2 7.4 9.5 4.7s9.5-9 9.5-14.2-4.2-7.4-9.5-4.7-9.5 9-9.5 14.2z" opacity=".29"/><path d="m22.8 23.5c0 3.8 3.1 5.3 6.9 3.4s6.9-6.5 6.9-10.3-3.1-5.3-6.9-3.4-6.9 6.5-6.9 10.3z" fill="#2d3134"/><path d="m22.8 23.5c0 3.8 3.1 5.3 6.9 3.4s6.9-6.5 6.9-10.3-3.1-5.3-6.9-3.4-6.9 6.5-6.9 10.3z" fill="#2d3134"/><path d="m22.8 23.5c0 3.8 3.1 5.3 6.9 3.4s6.9-6.5 6.9-10.3-3.1-5.3-6.9-3.4-6.9 6.5-6.9 10.3z" opacity=".1"/><path d="m33.8 12.5c.7.7 1.2 1.8 1.2 3.3 0 3.8-3.1 8.4-6.9 10.3-1.6.8-3 1-4.1.7 1.2 1.2 3.3 1.4 5.7.2 3.8-1.9 6.9-6.5 6.9-10.3-.1-2.3-1.2-3.8-2.8-4.2z" opacity=".11"/><path d="m25.2 29.9 36.6 18.2c2.1 1.1 4 2.1 6.4 2.1 6 0 10.8-4.9 10.8-10.8 0-3.4-1.6-6.7-4-8.4-.3-.3-38-19.2-38-19.2-1.5-.7-3.6-.6-6 .5-4.7 2.4-8.5 8.1-8.5 12.8 0 2.4 1 4 2.7 4.8z" fill="#2d3134"/><path d="m73.9 45c-4.4 0-8.4-1-11.3-2.5l-39.8-19.8c-.2.8-.3 1.6-.3 2.4 0 2.4 1 4.1 2.7 4.9l36.6 18.2c2.1 1.1 4 2.1 6.4 2.1 4 0 7.5-2.2 9.4-5.4-1.2 0-2.4.1-3.7.1z" opacity=".11"/><path d="m38.7 33.1c0-4.7 3.8-10.4 8.5-12.8 2.9-1.5 5.5-1.3 7 .2-1.5-2-4.3-2.4-7.7-.8-4.8 2.4-8.7 8.2-8.7 13.1 0 2.9 1.4 4.7 3.5 5.2-1.5-.7-2.6-2.4-2.6-4.9z" fill="#2d3134"/><path d="m38.7 33.1c0-4.7 3.8-10.4 8.5-12.8 2.9-1.5 5.5-1.3 7 .2-1.5-2-4.3-2.4-7.7-.8-4.8 2.4-8.7 8.2-8.7 13.1 0 2.9 1.4 4.7 3.5 5.2-1.5-.7-2.6-2.4-2.6-4.9z" opacity=".2"/><path d="m33.7 30.6c0-4.7 3.8-10.4 8.5-12.8 2.9-1.5 5.5-1.3 7 .2-1.5-2-4.3-2.4-7.7-.8-4.8 2.4-8.7 8.2-8.7 13.1 0 2.9 1.4 4.7 3.5 5.2-1.5-.7-2.6-2.4-2.6-4.9z" fill="#2d3134"/><path d="m33.7 30.6c0-4.7 3.8-10.4 8.5-12.8 2.9-1.5 5.5-1.3 7 .2-1.5-2-4.3-2.4-7.7-.8-4.8 2.4-8.7 8.2-8.7 13.1 0 2.9 1.4 4.7 3.5 5.2-1.5-.7-2.6-2.4-2.6-4.9z" opacity=".2"/><path d="m28.7 28.1c0-4.7 3.8-10.4 8.5-12.8 2.9-1.5 5.5-1.3 7 .2-1.5-2-4.3-2.4-7.7-.8-4.8 2.4-8.7 8.2-8.7 13.1 0 2.9 1.4 4.7 3.5 5.2-1.5-.7-2.6-2.4-2.6-4.9z" fill="#2d3134"/><path d="m28.7 28.1c0-4.7 3.8-10.4 8.5-12.8 2.9-1.5 5.5-1.3 7 .2-1.5-2-4.3-2.4-7.7-.8-4.8 2.4-8.7 8.2-8.7 13.1 0 2.9 1.4 4.7 3.5 5.2-1.5-.7-2.6-2.4-2.6-4.9z" opacity=".2"/><path d="m43.7 35.6c0-4.7 3.8-10.4 8.5-12.8 2.9-1.5 5.5-1.3 7 .2-1.5-2-4.3-2.4-7.7-.8-4.8 2.4-8.7 8.2-8.7 13.1 0 2.9 1.4 4.7 3.5 5.2-1.5-.7-2.6-2.4-2.6-4.9z" fill="#2d3134"/><path d="m43.7 35.6c0-4.7 3.8-10.4 8.5-12.8 2.9-1.5 5.5-1.3 7 .2-1.5-2-4.3-2.4-7.7-.8-4.8 2.4-8.7 8.2-8.7 13.1 0 2.9 1.4 4.7 3.5 5.2-1.5-.7-2.6-2.4-2.6-4.9z" opacity=".2"/><path d="m48.7 38.1c0-4.7 3.8-10.4 8.5-12.8 2.9-1.5 5.5-1.3 7 .2-1.5-2-4.3-2.4-7.7-.8-4.8 2.4-8.7 8.2-8.7 13.1 0 2.9 1.4 4.7 3.5 5.2-1.5-.7-2.6-2.4-2.6-4.9z" fill="#2d3134"/><path d="m48.7 38.1c0-4.7 3.8-10.4 8.5-12.8 2.9-1.5 5.5-1.3 7 .2-1.5-2-4.3-2.4-7.7-.8-4.8 2.4-8.7 8.2-8.7 13.1 0 2.9 1.4 4.7 3.5 5.2-1.5-.7-2.6-2.4-2.6-4.9z" opacity=".2"/><path d="m53.7 40.6c0-4.7 3.8-10.4 8.5-12.8 2.9-1.5 5.5-1.3 7 .2-1.5-2-4.3-2.4-7.7-.8-4.8 2.4-8.7 8.2-8.7 13.1 0 2.9 1.4 4.7 3.5 5.2-1.5-.7-2.6-2.4-2.6-4.9z" fill="#2d3134"/><path d="m53.7 40.6c0-4.7 3.8-10.4 8.5-12.8 2.9-1.5 5.5-1.3 7 .2-1.5-2-4.3-2.4-7.7-.8-4.8 2.4-8.7 8.2-8.7 13.1 0 2.9 1.4 4.7 3.5 5.2-1.5-.7-2.6-2.4-2.6-4.9z" opacity=".2"/><path d="m58.7 43.1c0-4.7 3.8-10.4 8.5-12.8 2.9-1.5 5.5-1.3 7 .2-1.5-2-4.3-2.4-7.7-.8-4.8 2.4-8.7 8.2-8.7 13.1 0 2.9 1.4 4.7 3.5 5.2-1.5-.7-2.6-2.4-2.6-4.9z" fill="#2d3134"/><path d="m58.7 43.1c0-4.7 3.8-10.4 8.5-12.8 2.9-1.5 5.5-1.3 7 .2-1.5-2-4.3-2.4-7.7-.8-4.8 2.4-8.7 8.2-8.7 13.1 0 2.9 1.4 4.7 3.5 5.2-1.5-.7-2.6-2.4-2.6-4.9z" opacity=".2"/></svg>