<svg xmlns:xlink="http://www.w3.org/1999/xlink"  enable-background="new 0 0 320 160" height="160" viewBox="0 0 320 160" width="320" xmlns="http://www.w3.org/2000/svg"><path d="m60 110 160-80 100 50-160 80z" fill="#825012"/><path d="m220 30-160 80 80 40 80-40z" opacity=".29"/><path d="m220 30v80l20 10 80-40z" opacity=".11"/><path d="m220 40-140 70v10l80 40 140-70v-10z" fill="#656565"/><path d="m300 80v10l-140 70v-10z" opacity=".29"/><path d="m80 110v10l80 40v-10z" opacity=".11"/><path d="m160 147-73-37 133-66 73 36z" opacity=".4"/><path d="m220 42-132 66v2l72 36 132-66v-2z" fill="#999"/><path d="m292 78v2l-132 66v-2z" opacity=".29"/><path d="m88 108v2l72 36v-2z" opacity=".11"/><path d="m218 51 8 4v1l-8-4z" opacity=".11"/><path d="m218 51-12 6v1l12-6z" opacity=".29"/><path d="m230 57 8 4v1l-8-4z" opacity=".11"/><path d="m230 57-12 6v1l12-6z" opacity=".29"/><path d="m242 63 8 4v1l-8-4z" opacity=".11"/><path d="m242 63-12 6v1l12-6z" opacity=".29"/><path d="m254 69 8 4v1l-8-4z" opacity=".11"/><path d="m254 69-12 6v1l12-6z" opacity=".29"/><path d="m266 75 8 4v1l-8-4z" opacity=".11"/><path d="m266 75-12 6v1l12-6z" opacity=".29"/><path d="m194 63 8 4v1l-8-4z" opacity=".11"/><path d="m194 63-12 6v1l12-6z" opacity=".29"/><path d="m206 69 8 4v1l-8-4z" opacity=".11"/><path d="m206 69-12 6v1l12-6z" opacity=".29"/><path d="m218 75 8 4v1l-8-4z" opacity=".11"/><path d="m218 75-12 6v1l12-6z" opacity=".29"/><path d="m230 81 8 4v1l-8-4z" opacity=".11"/><path d="m230 81-12 6v1l12-6z" opacity=".29"/><path d="m242 87 8 4v1l-8-4z" opacity=".11"/><path d="m242 87-12 6v1l12-6z" opacity=".29"/><path d="m170 75 8 4v1l-8-4z" opacity=".11"/><path d="m170 75-12 6v1l12-6z" opacity=".29"/><path d="m182 81 8 4v1l-8-4z" opacity=".11"/><path d="m182 81-12 6v1l12-6z" opacity=".29"/><path d="m194 87 8 4v1l-8-4z" opacity=".11"/><path d="m194 87-12 6v1l12-6z" opacity=".29"/><path d="m206 93 8 4v1l-8-4z" opacity=".11"/><path d="m206 93-12 6v1l12-6z" opacity=".29"/><path d="m218 99 8 4v1l-8-4z" opacity=".11"/><path d="m218 99-12 6v1l12-6z" opacity=".29"/><path d="m146 87 8 4v1l-8-4z" opacity=".11"/><path d="m146 87-12 6v1l12-6z" opacity=".29"/><path d="m158 93 8 4v1l-8-4z" opacity=".11"/><path d="m158 93-12 6v1l12-6z" opacity=".29"/><path d="m170 99 8 4v1l-8-4z" opacity=".11"/><path d="m170 99-12 6v1l12-6z" opacity=".29"/><path d="m182 105 8 4v1l-8-4z" opacity=".11"/><path d="m182 105-12 6v1l12-6z" opacity=".29"/><path d="m194 111 8 4v1l-8-4z" opacity=".11"/><path d="m194 111-12 6v1l12-6z" opacity=".29"/><path d="m122 99 8 4v1l-8-4z" opacity=".11"/><path d="m122 99-12 6v1l12-6z" opacity=".29"/><path d="m134 105 8 4v1l-8-4z" opacity=".11"/><path d="m134 105-12 6v1l12-6z" opacity=".29"/><path d="m146 111 8 4v1l-8-4z" opacity=".11"/><path d="m146 111-12 6v1l12-6z" opacity=".29"/><path d="m158 117 8 4v1l-8-4z" opacity=".11"/><path d="m158 117-12 6v1l12-6z" opacity=".29"/><path d="m170 123 8 4v1l-8-4z" opacity=".11"/><path d="m170 123-12 6v1l12-6z" opacity=".29"/><g opacity=".3"><path d="m272 99c0 1.1-.9 2.4-2 3s-2 .1-2-1 .9-2.4 2-3 2-.1 2 1z"/><path d="m252 109c0 1.1-.9 2.4-2 3s-2 .1-2-1 .9-2.4 2-3 2-.1 2 1z"/><path d="m232 119c0 1.1-.9 2.4-2 3s-2 .1-2-1 .9-2.4 2-3 2-.1 2 1z"/><path d="m212 129c0 1.1-.9 2.4-2 3s-2 .1-2-1 .9-2.4 2-3 2-.1 2 1z"/><path d="m192 139c0 1.1-.9 2.4-2 3s-2 .1-2-1 .9-2.4 2-3 2-.1 2 1z"/><path d="m172 149c0 1.1-.9 2.4-2 3s-2 .1-2-1 .9-2.4 2-3 2-.1 2 1z"/><path d="m292 89c0 1.1-.9 2.4-2 3s-2 .1-2-1 .9-2.4 2-3 2-.1 2 1z"/><path d="m128 139c0 1.1.9 2.4 2 3s2 .1 2-1-.9-2.4-2-3-2-.1-2 1z"/><path d="m108 129c0 1.1.9 2.4 2 3s2 .1 2-1-.9-2.4-2-3-2-.1-2 1z"/><path d="m88 119c0 1.1.9 2.4 2 3s2 .1 2-1-.9-2.4-2-3-2-.1-2 1z"/><path d="m148 149c0 1.1.9 2.4 2 3s2 .1 2-1-.9-2.4-2-3-2-.1-2 1z"/></g></svg>