<svg xmlns:xlink="http://www.w3.org/1999/xlink"  enable-background="new 0 0 60 40" height="40" viewBox="0 0 60 40" width="60" xmlns="http://www.w3.org/2000/svg"><path d="m20.6 16.7s-9.5-16.3-11.8-15.5 2.5 10.7 2.5 10.7-11 2-10.3 4.2 19.6.6 19.6.6z" fill="#fbd7c7"/><path d="m20.6 16.7s-9.5-16.3-11.8-15.5 2.5 10.7 2.5 10.7-11 2-10.3 4.2 19.6.6 19.6.6z" fill="#cc291f" opacity=".2"/><path d="m12.9 12.8s-2.6-7.4-2-10.2c-.9-1-1.7-1.6-2.2-1.4-2.3.7 2.5 10.7 2.5 10.7s-10.9 2-10.2 4.2c.2.5 1.1.8 2.5.9 2-2 9.4-4.2 9.4-4.2z" fill="#cc291f" opacity=".5"/><path d="m59.4 36.7c-1.9 3.7-14 3.2-26.1-3.1s-17.7-19.5-17.7-19.5 14-3.2 26.1 3.1 19.7 15.7 17.7 19.5z" fill="#fbd7c7"/><g fill="#cc291f"><path d="m40 20.5c9.2 4.7 16.2 10.9 19.5 15.9 1.5-3.9-6-13.1-17.8-19.2-12.1-6.2-26.1-3.1-26.1-3.1s.2.6.7 1.6c6.1-.2 15.3.4 23.7 4.8z" opacity=".5"/><path d="m41.9 31.2s-9.5 0-10-2.8 10 2.8 10 2.8z" opacity=".3"/><circle cx="51.9" cy="32.9" r="1"/><path d="m44.9 30.8c1-2 3-3.3 5.1-3.5-2.5-.6-5.1.5-6.3 2.9-1.3 2.3-.7 5.1 1.3 6.8-1-1.9-1.2-4.2-.1-6.2z" opacity=".3"/></g></svg>