<svg xmlns:xlink="http://www.w3.org/1999/xlink"  enable-background="new 0 0 16 24" height="24" viewBox="0 0 16 24" width="16" xmlns="http://www.w3.org/2000/svg"><g clip-rule="evenodd" fill-rule="evenodd"><path d="m12.7 18c0-4.5-3.5-11.3-3.5-11.3s.3 2.4-.3 3.8c-.7 1.5-.6 2.7-.6 2.7s-.4-2.2-.4-4.2.7-5.3.7-5.3-5 4.2-4.6 10.7c-.5-2.2-.5-3.9-.5-3.9s-2.5 3.7-1 9.2c1 3.7 4 4.3 5.5 4.3 0 0 4.7-.9 4.7-6z" fill="#cc291f" opacity=".5"/><path d="m12.3 19.1c0-2.1-.8-3.5-1.3-5.2-.4-1.5.5-3.5.5-3.5s-1.8.9-2.6 3.3c-.4 1.3-.3 3-.3 3s-.5-1.4-.4-4.1c.1-2 .6-4 .6-4s-2.8 1.8-3.8 4.8c-.4 1.2-.8 3-.8 4.7-.7-2.1-.2-5.4-.2-5.4s-2.2 3.5-.8 7.8c.8 2.7 3.4 3.5 4.8 3.5 0 0 4.3-1.1 4.3-4.9z" fill="#cc291f" opacity=".9"/><g fill="#fc0"><path d="m11.2 20.8c.1-1.4-.8-2.5-1-3.4-.5-2.6 1.1-5.2 1.1-5.2s-1.8.8-2.9 2.9c-.4.9-.7 2.4-.7 2.4s-.1.1-.4-2.1c-.3-2.1.1-4.4.1-4.4s-2.1 2.5-2 6.7c0 1.6.6 2.2.6 2.2s-.5-.2-.8-.6c-.9-1.1-1.2-3.9-1.2-3.9s-1.4 5.2 1.5 7.6c.8.7 2 .8 2.5.9 0 .1 3-.7 3.2-3.1z" opacity=".5"/><path d="m10 21c.1-1.2-.2-1.8-.4-2.5-.3-1.4 0-2.7 0-2.7s-.8 1.4-1 2.2-.4 1.7-.4 1.7-.8-.4-1-2.2.3-3.7.3-3.7-2.3 2.4-1.5 5.5c.4 1.9 1 2.3 1 2.3s-.6.2-1.5-.7c-.8-.9-1.3-1.9-1.3-1.9s-.1 2.2 1.6 4c.7.7 1.7.9 2.1 1 .1 0 1.9-1 2.1-3z"/></g></g></svg>