<svg xmlns:xlink="http://www.w3.org/1999/xlink"  enable-background="new 0 0 128 64" height="64" viewBox="0 0 128 64" width="128" xmlns="http://www.w3.org/2000/svg"><path d="m64 0 64 32-64 32-64-32z" fill="#999"/><path d="m64 0 64 32-64 32-64-32z" fill="#999"/><path d="m112.4 24.2-.4-.2-15.6 7.8-15.6-7.8 15.6-7.8-.4-.2-15.6 7.8-15.6-7.8 15.6-7.8-.4-.2-15.6 7.8-15.6-7.8 15.6-7.8-.4-.2-15.6 7.8-.4.2-15.6 7.8-.4.2-15.6 7.8-.4.2-15.6 7.8-.4.2.4.2 15.6 7.8.4.2 15.6 7.8.4.2 15.6 7.8.4.2 15.6 7.8.4-.2-15.6-7.8 15.6-7.8 15.6 7.8.4-.2-15.6-7.8 15.6-7.8 15.6 7.8.4-.2-15.6-7.8 15.6-7.8 15.6 7.8.4-.2-15.6-7.8zm-32.4-.2-15.6 7.8-15.6-7.8 15.6-7.8zm-16 8-15.6 7.8-15.6-7.8 15.6-7.8zm-15.6-23.8 15.6 7.8-15.6 7.8-15.6-7.8zm-16 8 15.6 7.8-15.6 7.8-15.6-7.8zm-31.6 15.8 15.6-7.8 15.6 7.8-15.6 7.8zm16 8 15.6-7.8 15.6 7.8-15.6 7.8zm31.6 15.8-15.6-7.8 15.6-7.8 15.6 7.8zm16-8-15.6-7.8 15.6-7.8 15.6 7.8zm16-8-15.6-7.8 15.6-7.8 15.6 7.8z" fill="#656565"/></svg>