<svg xmlns:xlink="http://www.w3.org/1999/xlink"  enable-background="new 0 0 128 64" height="64" viewBox="0 0 128 64" width="128" xmlns="http://www.w3.org/2000/svg"><path d="m64 0-64 32 64 32 64-32z" fill="#825012"/><path d="m64 0-64 32 64 32 64-32z" fill="#825012"/><path d="m124.4 30.2-.4-.2-4 2-3.6-1.8 4-2-.4-.2-12 6-3.6-1.8 12-6-.4-.2-4 2-3.6-1.8 4-2-.4-.2-12 6-3.6-1.8 12-6-.4-.2-4 2-3.6-1.8 4-2-.4-.2-12 6-3.6-1.8 12-6-.4-.2-4 2-3.6-1.8 4-2-.4-.2-12 6-3.6-1.8 12-6-.4-.2-4 2-3.6-1.8 4-2-.4-.2-12 6-3.6-1.8 12-6-.4-.2-4 2-3.6-1.8 4-2-.4-.2-12 6-3.6-1.8 12-6-.4-.2-4 2-3.6-1.8 4-2-.4-.2-12 6-3.6-1.8 12-6-.4-.2-4 2-3.6-1.8 4-2-.4-.2-64 32 .4.2 11.6-5.8 3.6 1.8-11.6 5.8.4.2 3.6-1.8 3.6 1.8-3.6 1.8.4.2 11.6-5.8 3.6 1.8-11.6 5.8.4.2 3.6-1.8 3.6 1.8-3.6 1.8.4.2 11.6-5.8 3.6 1.8-11.6 5.8.4.2 3.6-1.8 3.6 1.8-3.6 1.8.4.2 11.6-5.8 3.6 1.8-11.6 5.8.4.2 3.6-1.8 3.6 1.8-3.6 1.8.4.2 11.6-5.8 3.6 1.8-11.6 5.8.4.2 3.6-1.8 3.6 1.8-3.6 1.8.4.2 11.6-5.8 3.6 1.8-11.6 5.8.4.2 3.6-1.8 3.6 1.8-3.6 1.8.4.2 11.6-5.8 3.6 1.8-11.6 5.8.4.2 3.6-1.8 3.6 1.8-3.6 1.8.4.2 11.6-5.8 3.6 1.8-11.6 5.8.4.2 3.6-1.8 3.6 1.8.4-.2-3.6-1.8 15.6-7.8 3.6 1.8.4-.2-3.6-1.8 15.6-7.8 3.6 1.8.4-.2-3.6-1.8 15.6-7.8 3.6 1.8.4-.2-3.6-1.8zm-16.8 4-15.6 7.8-3.6-1.8 15.6-7.8zm-31.6 15.8-3.6-1.8 15.6-7.8 3.6 1.8zm-8-4-3.6-1.8 15.6-7.8 3.6 1.8zm-8-4-3.6-1.8 15.6-7.8 3.6 1.8zm-8-4-3.6-1.8 15.6-7.8 3.6 1.8zm-8-4-3.6-1.8 15.6-7.8 3.6 1.8zm-8-4-3.6-1.8 15.6-7.8 3.6 1.8zm-8-4-3.6-1.8 15.6-7.8 3.6 1.8zm24-11.6 3.6 1.8-15.6 7.8-3.6-1.8zm8 4 3.6 1.8-15.6 7.8-3.6-1.8zm8 4 3.6 1.8-15.6 7.8-3.6-1.8zm8 4 3.6 1.8-15.6 7.8-3.6-1.8zm8 4 3.6 1.8-15.6 7.8-3.6-1.8zm8 4 3.6 1.8-15.6 7.8-3.6-1.8zm16-8 3.6 1.8-15.6 7.8-3.6-1.8zm-8.4 3.8-15.6 7.8-3.6-1.8 15.6-7.8zm.4-7.8 3.6 1.8-15.6 7.8-3.6-1.8zm-8.4 3.8-15.6 7.8-3.6-1.8 15.6-7.8zm.4-7.8 3.6 1.8-15.6 7.8-3.6-1.8zm-8.4 3.8-15.6 7.8-3.6-1.8 15.6-7.8zm.4-7.8 3.6 1.8-15.6 7.8-3.6-1.8zm-8.4 3.8-15.6 7.8-3.6-1.8 15.6-7.8zm.4-7.8 3.6 1.8-15.6 7.8-3.6-1.8zm-8.4 3.8-15.6 7.8-3.6-1.8 15.6-7.8zm.4-7.8 3.6 1.8-15.6 7.8-3.6-1.8zm-8.4 3.8-15.6 7.8-3.6-1.8 15.6-7.8zm.4-7.8 3.6 1.8-15.6 7.8-3.6-1.8zm-16 8 3.6 1.8-15.6 7.8-3.6-1.8zm-31.6 15.8 15.6-7.8 3.6 1.8-15.6 7.8zm-.4 7.8-3.6-1.8 15.6-7.8 3.6 1.8zm8.4-3.8 15.6-7.8 3.6 1.8-15.6 7.8zm-.4 7.8-3.6-1.8 15.6-7.8 3.6 1.8zm8.4-3.8 15.6-7.8 3.6 1.8-15.6 7.8zm-.4 7.8-3.6-1.8 15.6-7.8 3.6 1.8zm8.4-3.8 15.6-7.8 3.6 1.8-15.6 7.8zm-.4 7.8-3.6-1.8 15.6-7.8 3.6 1.8zm8.4-3.8 15.6-7.8 3.6 1.8-15.6 7.8zm-.4 7.8-3.6-1.8 15.6-7.8 3.6 1.8zm8.4-3.8 15.6-7.8 3.6 1.8-15.6 7.8zm-.4 7.8-3.6-1.8 15.6-7.8 3.6 1.8zm8.4-3.8 15.6-7.8 3.6 1.8-15.6 7.8zm-.4 7.8-3.6-1.8 15.6-7.8 3.6 1.8zm12-2-3.6-1.8 15.6-7.8 3.6 1.8zm16-8-3.6-1.8 15.6-7.8 3.6 1.8zm16-8-3.6-1.8 15.6-7.8 3.6 1.8z" opacity=".2"/></svg>