<svg xmlns:xlink="http://www.w3.org/1999/xlink"  enable-background="new 0 0 32 48" height="48" viewBox="0 0 32 48" width="32" xmlns="http://www.w3.org/2000/svg"><path d="m9 26.9c0 .8-.7 1.8-1.5 2.2s-1.5.2-1.5-.7c0-.8.7-1.8 1.5-2.2s1.5-.1 1.5.7z" fill="#539b00"/><path d="m7.5 28.2c-.7.3-1.2.2-1.4-.3-.1.2-.1.3-.1.5 0 .8.7 1.2 1.5.8s1.5-1.4 1.5-2.3c0-.2 0-.3-.1-.5-.2.8-.7 1.4-1.4 1.8z" opacity=".3"/><path d="m9 29.4c0 .8-.7 1.8-1.5 2.2s-1.5.2-1.5-.7c0-.8.7-1.8 1.5-2.2s1.5-.1 1.5.7z" fill="#539b00"/><path d="m7.5 30.7c-.7.3-1.2.2-1.4-.3-.1.2-.1.3-.1.5 0 .8.7 1.2 1.5.8s1.5-1.4 1.5-2.3c0-.2 0-.3-.1-.5-.2.8-.7 1.4-1.4 1.8z" opacity=".3"/><path d="m7 30.4c0 .8-.7 1.8-1.5 2.2-.8.5-1.5.2-1.5-.7s.7-1.8 1.5-2.2 1.5-.1 1.5.7z" fill="#539b00"/><path d="m5.5 31.7c-.7.3-1.2.2-1.4-.3-.1.2-.1.3-.1.5 0 .8.7 1.2 1.5.8s1.5-1.4 1.5-2.3c0-.2 0-.3-.1-.5-.2.8-.7 1.4-1.4 1.8z" opacity=".3"/><path d="m5 31.4c0 .8-.7 1.8-1.5 2.2s-1.5.2-1.5-.7c0-.8.7-1.8 1.5-2.2s1.5-.1 1.5.7z" fill="#539b00"/><path d="m3.5 32.7c-.7.3-1.2.2-1.4-.3-.1.2-.1.3-.1.5 0 .8.7 1.2 1.5.8s1.5-1.4 1.5-2.3c0-.2 0-.3-.1-.5-.2.8-.7 1.4-1.4 1.8z" opacity=".3"/><path d="m6.1 28.2c0 .8-.7 1.8-1.5 2.2s-1.5.1-1.5-.8c0-.8.7-1.8 1.5-2.2s1.5 0 1.5.8z" fill="#539b00"/><path d="m4.6 29.5c-.7.3-1.2.2-1.4-.3-.1.2-.1.4-.1.5 0 .8.7 1.2 1.5.8s1.5-1.4 1.5-2.2c0-.2 0-.3-.1-.5-.2.6-.8 1.3-1.4 1.7z" opacity=".3"/><path d="m8 24.9c0 .8-.7 1.8-1.5 2.2-.8.5-1.5.2-1.5-.7 0-.8.7-1.8 1.5-2.2s1.5-.1 1.5.7z" fill="#539b00"/><path d="m6.5 26.2c-.7.3-1.2.2-1.4-.3-.1.2-.1.3-.1.5 0 .8.7 1.2 1.5.8s1.5-1.4 1.5-2.3c0-.2 0-.3-.1-.5-.2.8-.7 1.4-1.4 1.8z" opacity=".3"/><path d="m5 26.4c0 .8-.7 1.8-1.5 2.2s-1.5.2-1.5-.7c0-.8.7-1.8 1.5-2.2s1.5-.1 1.5.7z" fill="#539b00"/><path d="m3.5 27.7c-.7.3-1.2.2-1.4-.3-.1.2-.1.3-.1.5 0 .8.7 1.2 1.5.8s1.5-1.4 1.5-2.3c0-.2 0-.3-.1-.5-.2.8-.7 1.4-1.4 1.8z" opacity=".3"/><path d="m6 23.9c0 .8-.7 1.8-1.5 2.2-.8.5-1.5.2-1.5-.7s.7-1.8 1.5-2.2 1.5-.1 1.5.7z" fill="#539b00"/><path d="m4.5 25.2c-.7.3-1.2.2-1.4-.3-.1.2-.1.3-.1.5 0 .8.7 1.2 1.5.8s1.5-1.4 1.5-2.3c0-.2 0-.3-.1-.5-.2.8-.7 1.4-1.4 1.8z" opacity=".3"/><path d="m8 21.9c0 .8-.7 1.8-1.5 2.2-.8.5-1.5.2-1.5-.7 0-.8.7-1.8 1.5-2.2s1.5-.1 1.5.7z" fill="#539b00"/><path d="m6.5 23.2c-.7.3-1.2.2-1.4-.3-.1.2-.1.3-.1.5 0 .8.7 1.2 1.5.8s1.5-1.4 1.5-2.3c0-.2 0-.3-.1-.5-.2.8-.7 1.4-1.4 1.8z" opacity=".3"/><path d="m5.7 20.4c0 .8-.7 1.8-1.5 2.2s-1.5.1-1.5-.8c0-.8.7-1.8 1.5-2.2s1.5 0 1.5.8z" fill="#539b00"/><path d="m4.2 21.7c-.7.3-1.2.2-1.4-.3-.1.2-.1.4-.1.5 0 .8.7 1.2 1.5.8s1.5-1.4 1.5-2.2c0-.2 0-.3-.1-.5-.2.7-.8 1.3-1.4 1.7z" opacity=".3"/><path d="m8 17.9c0 .8-.7 1.8-1.5 2.2-.8.5-1.5.2-1.5-.7 0-.8.7-1.8 1.5-2.2s1.5-.1 1.5.7z" fill="#539b00"/><path d="m6.5 19.2c-.7.3-1.2.2-1.4-.3-.1.2-.1.3-.1.5 0 .8.7 1.2 1.5.8s1.5-1.4 1.5-2.3c0-.2 0-.3-.1-.5-.2.8-.7 1.4-1.4 1.8z" opacity=".3"/><path d="m5.9 17.2c0 .8-.7 1.8-1.5 2.2s-1.5.1-1.5-.8.7-1.8 1.5-2.2 1.5-.1 1.5.8z" fill="#539b00"/><path d="m4.4 18.4c-.7.3-1.2.2-1.4-.3-.1.2-.1.4-.1.5 0 .8.7 1.2 1.5.8s1.5-1.4 1.5-2.2c0-.2 0-.3-.1-.5-.2.7-.8 1.4-1.4 1.7z" opacity=".3"/><path d="m8 13.9c0 .8-.7 1.8-1.5 2.2-.8.5-1.5.2-1.5-.7s.7-1.8 1.5-2.2 1.5-.1 1.5.7z" fill="#539b00"/><path d="m6.5 15.2c-.7.3-1.2.2-1.4-.3-.1.2-.1.3-.1.5 0 .8.7 1.2 1.5.8s1.5-1.4 1.5-2.3c0-.2 0-.3-.1-.5-.2.8-.7 1.4-1.4 1.8z" opacity=".3"/><path d="m9 11.4c0 .8-.7 1.8-1.5 2.2s-1.5.2-1.5-.7.7-1.8 1.5-2.2 1.5-.1 1.5.7z" fill="#539b00"/><path d="m7.5 12.7c-.7.3-1.2.2-1.4-.3-.1.2-.1.3-.1.5 0 .8.7 1.2 1.5.8s1.5-1.4 1.5-2.3c0-.2 0-.3-.1-.5-.2.8-.7 1.4-1.4 1.8z" opacity=".3"/><path d="m11.8 4.2c0 .8-.7 1.8-1.5 2.2-.8.5-1.5.1-1.5-.7s.7-1.8 1.5-2.2c.9-.5 1.5-.1 1.5.7z" fill="#539b00"/><path d="m10.3 5.5c-.6.3-1.2.1-1.4-.3 0 .1-.1.3-.1.5 0 .8.7 1.2 1.5.8.9-.5 1.5-1.5 1.5-2.3 0-.2 0-.3-.1-.5-.2.7-.7 1.4-1.4 1.8z" opacity=".3"/><path d="m8.4 9c0 .8-.7 1.8-1.5 2.2s-1.5.1-1.5-.8.7-1.8 1.5-2.2 1.5-.1 1.5.8z" fill="#539b00"/><path d="m6.9 10.2c-.7.3-1.2.2-1.4-.3-.1.2-.1.4-.1.5 0 .8.7 1.2 1.5.8s1.5-1.4 1.5-2.2c0-.2 0-.3-.1-.5-.2.7-.7 1.4-1.4 1.7z" opacity=".3"/><path d="m6 8c0 .8-.7 1.8-1.5 2.2-.8.5-1.5.2-1.5-.7s.7-1.8 1.5-2.2 1.5-.1 1.5.7z" fill="#539b00"/><path d="m4.5 9.3c-.7.3-1.2.2-1.4-.3-.1.2-.1.4-.1.5 0 .8.7 1.2 1.5.8s1.5-1.4 1.5-2.3c0-.2 0-.3-.1-.5-.2.8-.7 1.5-1.4 1.8z" opacity=".3"/><path d="m8.8 4.7c0 .8-.7 1.8-1.5 2.2s-1.5.1-1.5-.7.7-1.8 1.5-2.2 1.5-.2 1.5.7z" fill="#539b00"/><path d="m7.3 5.9c-.6.4-1.2.2-1.4-.3 0 .2-.1.4-.1.6 0 .8.7 1.2 1.5.8s1.5-1.4 1.5-2.2c0-.2 0-.3-.1-.5-.2.6-.7 1.3-1.4 1.6z" opacity=".3"/><path d="m6.9 28.7c0 .5-.4 1.2-1 1.5-.5.3-1 .1-1-.5s.4-1.2 1-1.5c.6-.2 1 0 1 .5z" fill="#cc291f"/><path d="m5.3 22.1c0 .5-.4 1.2-1 1.5s-1 .1-1-.5.4-1.2 1-1.5 1-.1 1 .5z" fill="#cc291f"/><path d="m7.4 16.1c0 .5-.4 1.2-1 1.5-.5.3-1 .1-1-.5s.4-1.2 1-1.5c.6-.2 1 0 1 .5z" fill="#cc291f"/><path d="m5.8 11c0 .5-.4 1.2-1 1.5-.5.3-1 .1-1-.5s.4-1.2 1-1.5 1 0 1 .5z" fill="#cc291f"/><path d="m6 12.9c0 .8-.7 1.8-1.5 2.2-.8.5-1.5.2-1.5-.7s.7-1.8 1.5-2.2 1.5-.1 1.5.7z" fill="#539b00"/><path d="m4.5 14.2c-.7.3-1.2.2-1.4-.3-.1.2-.1.3-.1.5 0 .8.7 1.2 1.5.8s1.5-1.4 1.5-2.3c0-.2 0-.3-.1-.5-.2.8-.7 1.4-1.4 1.8z" opacity=".3"/><g fill="#656565"><path d="m24 39.6-1 .5v-23c0-4.2-3.5-9.4-7.7-11.6-2.1-1.1-4.1-1.2-5.5-.3-1.2.7-1.8 2.1-1.8 3.9v22.5l-1 .5v-23c0-2.2.8-3.8 2.3-4.7 1.7-1 4-.9 6.5.3 4.6 2.3 8.3 7.9 8.3 12.4v22.5z"/><path d="m20 41.5-1 .5v-23c0-4.2-3.5-9.4-7.7-11.6-2.1-1-4.1-1.1-5.5-.3-1.2.7-1.8 2.1-1.8 3.9v22.5l-1 .5v-23c0-2.2.8-3.8 2.3-4.7 1.7-1 4-.9 6.5.3 4.5 2.2 8.2 7.8 8.2 12.4z"/><path d="m23.6 34.5-.4-.2-1.8 2.6-1.8-.9-.2.5 1.7.8-1.9 2.9.4.3 2-2.9 1.9 1 .3-.5-1.9-.9z"/><path d="m19.6 35.5 2-2.9 1.8.9.2-.5-1.7-.8 1.9-2.9-.5-.3-1.9 2.9-1.9-.9-.2.4 1.8.9-1.9 3z"/><path d="m21.6 27.6 1.9.9.2-.4-1.8-.9 1.9-2.9-.5-.3-1.9 2.9-1.9-.9-.2.4 1.8.9-1.9 3 .4.3z"/><path d="m23.4 19-2 2.9-1.9-.9-.2.4 1.8.9-1.9 2.9.4.3 2-2.9 2 1 .2-.5-1.9-.9 1.9-3z"/><path d="m21.1 17.3-1.9 2.9.4.3 1.9-2.9 1.8.9.2-.4-1.7-.9 1.7-2.6-.4-.3-1.8 2.7-2.1-1.1.9-2.6 2.8 1 .2-.5-2.8-1 1-2.7-.3-.2-1 2.7-2.6-1 .4-2 3.1.5.1-.5-3.1-.5.5-2.8h-.4-3.5v-1.9h-.5v1.8h-2.3v-2.2h-.5v2.2h-1.2v.5h4v1.9h.4l-.1.5 2.9.5-.4 2.3h.2v.2l2.8 1-1 2.8.2.1-.1.2zm-6.6-8.7v-1.8h3.2l-.4 2.4z"/><path d="m7.3 26.2-1.9 2.7-1.8-.9-.2.5 1.7.8-1.9 3 .4.3 2-3 1.8.9.2-.5-1.7-.8 1.8-2.7z"/><path d="m5.4 23.9-1.9-.9-.2.4 1.8.9-1.9 3 .4.2 2-2.9 1.8.9.2-.5-1.7-.8 1.9-3-.4-.2z"/><path d="m7.3 16.2-1.9 2.7-1.9-.9-.2.4 1.8.9-1.9 3 .4.3 2-3 1.8.9.2-.5-1.7-.8 1.8-2.8z"/><path d="m7.3 11.1-1.9 2.8-1.8-.9-.2.5 1.7.8-1.9 3 .4.2 2-2.9 1.9.9.2-.4-1.8-.9 1.8-2.8z"/><path d="m3.6 12.6 2-3 1.9.9.2-.4-1.8-.9 1.8-2.9-.4-.2-1.9 2.8-1.5-.7-.2.4 1.4.7-2 3z"/><path d="m7.6 2.9h.5v4.8h-.5z" transform="matrix(.4456 .8952 -.8952 .4456 9.1286 -4.0228)"/></g><path d="m21.6 29.9c0 .5-.4 1.2-1 1.5-.5.3-1 .1-1-.5s.4-1.2 1-1.5c.6-.2 1 0 1 .5z" fill="#cc291f"/><path d="m23.5 37.6c0 .8-.7 1.8-1.5 2.2s-1.5.1-1.5-.8c0-.8.7-1.8 1.5-2.2s1.5-.1 1.5.8z" fill="#539b00"/><path d="m22 38.8c-.7.3-1.2.2-1.4-.3-.1.2-.1.4-.1.5 0 .8.7 1.2 1.5.8s1.5-1.4 1.5-2.2c0-.2 0-.3-.1-.5-.2.7-.7 1.4-1.4 1.7z" opacity=".3"/><path d="m25.3 35.1c0 .8-.7 1.8-1.5 2.2s-1.5.1-1.5-.8c0-.8.7-1.8 1.5-2.2s1.5-.1 1.5.8z" fill="#539b00"/><path d="m23.8 36.3c-.7.3-1.2.2-1.4-.3-.1.2-.1.4-.1.5 0 .8.7 1.2 1.5.8s1.5-1.4 1.5-2.2c0-.2 0-.3-.1-.5-.2.7-.8 1.4-1.4 1.7z" opacity=".3"/><path d="m25.5 37.6c0 .8-.7 1.8-1.5 2.2s-1.5.1-1.5-.8c0-.8.7-1.8 1.5-2.2s1.5-.1 1.5.8z" fill="#539b00"/><path d="m24 38.8c-.7.3-1.2.2-1.4-.3-.1.2-.1.4-.1.5 0 .8.7 1.2 1.5.8s1.5-1.4 1.5-2.2c0-.2 0-.3-.1-.5-.2.7-.7 1.4-1.4 1.7z" opacity=".3"/><path d="m21.5 39.6c0 .8-.7 1.8-1.5 2.2s-1.5.1-1.5-.8.7-1.8 1.5-2.2 1.5-.1 1.5.8z" fill="#539b00"/><path d="m20 40.8c-.7.3-1.2.2-1.4-.3-.1.2-.1.4-.1.5 0 .8.7 1.2 1.5.8s1.5-1.4 1.5-2.2c0-.2 0-.3-.1-.5-.2.7-.7 1.4-1.4 1.7z" opacity=".3"/><path d="m22.3 32c0 .8-.7 1.8-1.5 2.2s-1.5.1-1.5-.8c0-.8.7-1.8 1.5-2.2.8-.3 1.5 0 1.5.8z" fill="#539b00"/><path d="m20.8 33.3c-.7.3-1.2.2-1.4-.3-.1.2-.1.4-.1.5 0 .8.7 1.2 1.5.8s1.5-1.4 1.5-2.2c0-.2 0-.3-.1-.5-.2.7-.8 1.4-1.4 1.7z" opacity=".3"/><path d="m22.5 36.1c0 .8-.7 1.8-1.5 2.2s-1.5.1-1.5-.8.7-1.8 1.5-2.2 1.5-.1 1.5.8z" fill="#539b00"/><path d="m21 37.3c-.7.3-1.2.2-1.4-.3-.1.2-.1.4-.1.5 0 .8.7 1.2 1.5.8s1.5-1.4 1.5-2.2c0-.2 0-.3-.1-.5-.2.7-.7 1.4-1.4 1.7z" opacity=".3"/><path d="m22.1 34.5c0 .5-.4 1.2-1 1.5-.5.3-1 .1-1-.5s.4-1.2 1-1.5 1 0 1 .5z" fill="#cc291f"/><path d="m24 33.1c0 .8-.7 1.8-1.5 2.2s-1.5.1-1.5-.7.7-1.8 1.5-2.2 1.5-.2 1.5.7z" fill="#539b00"/><path d="m22.5 34.3c-.7.3-1.2.2-1.4-.3-.1.2-.1.4-.1.6 0 .8.7 1.2 1.5.8s1.5-1.4 1.5-2.2c0-.2 0-.3-.1-.5-.2.6-.7 1.3-1.4 1.6z" opacity=".3"/><path d="m24 28.3c0 .8-.7 1.8-1.5 2.2-.8.5-1.5.2-1.5-.7s.7-1.8 1.5-2.2 1.5-.1 1.5.7z" fill="#539b00"/><path d="m22.5 29.6c-.7.3-1.2.2-1.4-.3-.1.2-.1.3-.1.5 0 .8.7 1.2 1.5.8s1.5-1.4 1.5-2.2c0-.2 0-.3-.1-.5-.2.7-.7 1.3-1.4 1.7z" opacity=".3"/><path d="m23 27.1c0 .8-.7 1.8-1.5 2.2s-1.5.1-1.5-.7.7-1.8 1.5-2.2 1.5-.2 1.5.7z" fill="#539b00"/><path d="m21.5 28.3c-.7.3-1.2.2-1.4-.3-.1.2-.1.4-.1.6 0 .8.7 1.2 1.5.8s1.5-1.4 1.5-2.2c0-.2 0-.3-.1-.5-.2.6-.7 1.3-1.4 1.6z" opacity=".3"/><path d="m24.5 23.6c0 .8-.7 1.8-1.5 2.2s-1.5.1-1.5-.8.7-1.8 1.5-2.2 1.5-.1 1.5.8z" fill="#539b00"/><path d="m23 24.8c-.7.3-1.2.2-1.4-.3-.1.2-.1.4-.1.5 0 .8.7 1.2 1.5.8s1.5-1.4 1.5-2.2c0-.2 0-.3-.1-.5-.2.7-.7 1.4-1.4 1.7z" opacity=".3"/><path d="m22.5 23.6c0 .8-.7 1.8-1.5 2.2s-1.5.1-1.5-.8c0-.8.7-1.8 1.5-2.2s1.5-.1 1.5.8z" fill="#539b00"/><path d="m21 24.8c-.7.3-1.2.2-1.4-.3-.1.2-.1.4-.1.5 0 .8.7 1.2 1.5.8s1.5-1.4 1.5-2.2c0-.2 0-.3-.1-.5-.2.7-.7 1.4-1.4 1.7z" opacity=".3"/><path d="m23.5 20.1c0 .8-.7 1.8-1.5 2.2s-1.5.1-1.5-.8c0-.8.7-1.8 1.5-2.2s1.5-.1 1.5.8z" fill="#539b00"/><path d="m22 21.3c-.7.3-1.2.2-1.4-.3-.1.2-.1.4-.1.5 0 .8.7 1.2 1.5.8s1.5-1.4 1.5-2.2c0-.2 0-.3-.1-.5-.2.7-.7 1.4-1.4 1.7z" opacity=".3"/><path d="m22.1 16.3c0 .8-.7 1.8-1.5 2.2s-1.5.1-1.5-.8c0-.8.7-1.8 1.5-2.2s1.5 0 1.5.8z" fill="#539b00"/><path d="m20.6 17.5c-.7.3-1.2.2-1.4-.3-.1.2-.1.4-.1.5 0 .8.7 1.2 1.5.8s1.5-1.4 1.5-2.2c0-.2 0-.3-.1-.5-.2.7-.7 1.4-1.4 1.7z" opacity=".3"/><path d="m23.6 31.3c0 .5-.4 1.2-1 1.5-.5.3-1 .1-1-.5s.4-1.2 1-1.5 1 0 1 .5z" fill="#cc291f"/><path d="m21.4 26c0 .5-.4 1.2-1 1.5-.5.3-1 .1-1-.5 0-.5.4-1.2 1-1.5s1-.1 1 .5z" fill="#cc291f"/><path d="m24 21.5c0 .5-.4 1.2-1 1.5-.5.3-1 .1-1-.5 0-.5.4-1.2 1-1.5s1 0 1 .5z" fill="#cc291f"/><path d="m21.1 15c0 .5-.4 1.2-1 1.5s-1 .1-1-.5c0-.5.4-1.2 1-1.5s1-.1 1 .5z" fill="#cc291f"/></svg>