<svg xmlns:xlink="http://www.w3.org/1999/xlink"  enable-background="new 0 0 60 80" height="80" viewBox="0 0 60 80" width="60" xmlns="http://www.w3.org/2000/svg"><path d="m4 7v55l36 18 10-5v-55l-36-18z" fill="#fc0"/><path d="m40 80-36-18v-55l36 18z" opacity=".11"/><path d="m41 72 8-4v-18l-8 4z" fill="#fff"/><path d="m5 6.5 35 17.5 8-4-35-17.5z" fill="#e5e5e5"/><path d="m41 35.5c0 2.2 1.8 3.1 4 2s4-3.8 4-6-1.8-3.1-4-2-4 3.8-4 6z" fill="#e5e5e5"/><path d="m42.3 34.8c0 1.5 1.2 2.1 2.7 1.3s2.7-2.5 2.7-4-1.2-2.1-2.7-1.3c-1.5.7-2.7 2.5-2.7 4z" fill="#656565"/><path d="m40 80 10-5v-55l-10 5z" opacity=".29"/></svg>