<svg xmlns:xlink="http://www.w3.org/1999/xlink"  enable-background="new 0 0 80 100" height="100" viewBox="0 0 80 100" width="80" xmlns="http://www.w3.org/2000/svg"><path d="m34 12v55l36 18 10-5v-55l-36-18z" fill="#cc291f"/><path d="m70 85-36-18v-55l36 18z" opacity=".11"/><path d="m71 77 8-4v-18l-8 4z" fill="#fff"/><path d="m35 11.5 35 17.5 8-4-35-17.5z" fill="#e5e5e5"/><path d="m71 40.5c0 2.2 1.8 3.1 4 2s4-3.8 4-6-1.8-3.1-4-2-4 3.8-4 6z" fill="#e5e5e5"/><path d="m72.3 39.8c0 1.5 1.2 2.1 2.7 1.3s2.7-2.5 2.7-4-1.2-2.1-2.7-1.3-2.7 2.5-2.7 4z" fill="#656565"/><path d="m70 85 10-5v-55l-10 5z" opacity=".29"/><path d="m24 17v55l36 18 10-5v-55l-36-18z" fill="#f90"/><path d="m60 90-36-18v-55l36 18z" opacity=".11"/><path d="m61 82 8-4v-18l-8 4z" fill="#fff"/><path d="m25 16.5 35 17.5 8-4-35-17.5z" fill="#e5e5e5"/><path d="m61 45.5c0 2.2 1.8 3.1 4 2s4-3.8 4-6-1.8-3.1-4-2-4 3.8-4 6z" fill="#e5e5e5"/><path d="m62.3 44.8c0 1.5 1.2 2.1 2.7 1.3 1.5-.7 2.7-2.5 2.7-4s-1.2-2.1-2.7-1.3c-1.5.7-2.7 2.5-2.7 4z" fill="#656565"/><path d="m60 90 10-5v-55l-10 5z" opacity=".29"/><path d="m14 22v55l36 18 10-5v-55l-36-18z" fill="#fc0"/><path d="m50 95-36-18v-55l36 18z" opacity=".11"/><path d="m51 87 8-4v-18l-8 4z" fill="#fff"/><path d="m15 21.5 35 17.5 8-4-35-17.5z" fill="#e5e5e5"/><path d="m51 50.5c0 2.2 1.8 3.1 4 2s4-3.8 4-6-1.8-3.1-4-2-4 3.8-4 6z" fill="#e5e5e5"/><path d="m52.3 49.8c0 1.5 1.2 2.1 2.7 1.3s2.7-2.5 2.7-4-1.2-2.1-2.7-1.3-2.7 2.5-2.7 4z" fill="#656565"/><path d="m50 95 10-5v-55l-10 5z" opacity=".29"/><path d="m4 27v55l36 18 10-5v-55l-36-18z" fill="#9c3"/><path d="m40 100-36-18v-55l36 18z" opacity=".11"/><path d="m41 92 8-4v-18l-8 4z" fill="#fff"/><path d="m5 26.5 35 17.5 8-4-35-17.5z" fill="#e5e5e5"/><path d="m41 55.5c0 2.2 1.8 3.1 4 2s4-3.8 4-6-1.8-3.1-4-2-4 3.8-4 6z" fill="#e5e5e5"/><path d="m42.3 54.8c0 1.5 1.2 2.1 2.7 1.3s2.7-2.5 2.7-4-1.2-2.1-2.7-1.3-2.7 2.5-2.7 4z" fill="#656565"/><path d="m40 100 10-5v-55l-10 5z" opacity=".29"/></svg>