<?xml version="1.0" encoding="utf-8"?>
<!-- Generator: Adobe Illustrator 18.1.0, SVG Export Plug-In . SVG Version: 6.00 Build 0)  -->
<svg version="1.1" id="Layer_1" xmlns="http://www.w3.org/2000/svg" xmlns:xlink="http://www.w3.org/1999/xlink" x="0px" y="0px"
	 viewBox="0 0 128 128" enable-background="new 0 0 128 128" xml:space="preserve">
<g>
	<g>
		<polygon fill="#FFFFFF" points="64,64 128,96 64,128 0,96 		"/>
		<polygon fill="#FFFFFF" points="64,64 128,96 64,128 0,96 		"/>
	</g>
	<g>
		<ellipse opacity="0.3" cx="70.5" cy="80" rx="7.5" ry="4"/>
		<path fill="#825012" d="M69,53v27c0,0.6,0.7,1,1.5,1s1.5-0.4,1.5-1V53H69z"/>
		<circle fill="#FFFFFF" cx="63.5" cy="48.5" r="6.5"/>
		<circle fill="#FFFFFF" cx="68" cy="40" r="9"/>
		<path fill="#825012" d="M71,68.4c2.6,0,3-0.9,3-3.4v-8h1v10c0,1.7-1.3,3-3,3h-1V68.4z"/>
		<path fill="#825012" d="M71,67.8c-1.7,0-3-0.4-3-2.1V56h-1v10c0,1.7,1.3,3,3,3h1V67.8z"/>
		<path fill="#825012" d="M69,46.8c-1.7,0-3-0.4-3-2.1V42h-1v3c0,1.7,1.3,3,3,3h1V46.8z"/>
		<circle fill="#FFFFFF" cx="75.5" cy="55.5" r="7.5"/>
		<circle fill="#FFFFFF" cx="80" cy="52" r="6"/>
		<path fill="#825012" d="M75,54.8c1.7,0,3-0.4,3-2.1V50h1v3c0,1.7-1.3,3-3,3h-1V54.8z"/>
		<path fill="#825012" d="M68,37.8c-1.7,0-3-0.4-3-2.1V33h-1v3c0,1.7,1.3,3,3,3h1V37.8z"/>
		<rect x="68" y="39.4" fill="#825012" width="1" height="9.6"/>
		<circle fill="#FFFFFF" cx="77" cy="42" r="8"/>
		<circle fill="#FFFFFF" cx="72" cy="33" r="8"/>
		<path fill="#825012" d="M77,44.8c1.7,0,3-0.4,3-2.1V40h1v3c0,1.7-1.3,3-3,3h-1V44.8z"/>
		<circle fill="#FFFFFF" cx="68.3" cy="55.8" r="9.3"/>
		<path opacity="0.3" d="M86,52c0-0.4,0-0.8-0.1-1.2c-0.6,3.8-3.9,6.7-7.9,6.7c-0.1,0-0.3,0-0.4,0c0.7,0.3,1.6,0.5,2.4,0.5
			c0.7,0,1.3-0.1,1.9-0.3c-1.4,1.4-3.3,2.3-5.4,2.3c-1,0-2-0.2-2.9-0.6C72,61,69.7,62,67.3,62c-3.5,0-6.6-2-8.1-4.8
			c0.7,4.4,4.5,7.8,9.1,7.8c2.2,0,4.3-0.8,5.9-2.1C74.6,63,75,63,75.5,63c3.5,0,6.5-2.4,7.3-5.7C84.7,56.3,86,54.3,86,52z"/>
		<path opacity="0.3" d="M61,51.5c-1.9-0.8-3.4-2.4-3.9-4.5c-0.1,0.5-0.2,1-0.2,1.5c0,2.4,1.3,4.4,3.2,5.6
			C60.3,53.2,60.6,52.3,61,51.5z"/>
		<path fill="#825012" d="M69,57.8c-1.7,0-3-0.4-3-2.1V53h-1v3c0,1.7,1.3,3,3,3h1V57.8z"/>
		<rect x="70" y="48" fill="#825012" width="2" height="7"/>
		<path fill="#825012" d="M72,38.4c1.7,0,3-0.4,3-2.1v-2.6h1v3c0,1.7-1.3,3-3,3h-1V38.4z"/>
		<rect x="72" y="31" fill="#825012" width="1" height="9.6"/>
	</g>
	<g>
		<ellipse opacity="0.3" cx="42.5" cy="93" rx="7.5" ry="4"/>
		<path fill="#825012" d="M44,69v24c0,0.6-0.7,1-1.5,1S41,93.6,41,93V69H44z"/>
		<circle fill="#FFFFFF" cx="51.5" cy="67.5" r="6.5"/>
		<circle fill="#FFFFFF" cx="48" cy="59" r="9"/>
		<path fill="#825012" d="M42,81.4c-2.6,0-3-0.9-3-3.4v-8h-1v10c0,1.7,1.3,3,3,3h1L42,81.4z"/>
		<path fill="#825012" d="M43,82.8c1.7,0,3-0.4,3-2.1V71h1v10c0,1.7-1.3,3-3,3h-1L43,82.8z"/>
		<path fill="#825012" d="M39,79.8c-1.7,0-2-1.3-2-2.1V68h-1v10c0,1.7,1.3,3,3,3h0L39,79.8z"/>
		<circle fill="#FFFFFF" cx="38" cy="69" r="9"/>
		<circle fill="#FFFFFF" cx="33" cy="65" r="6"/>
		<path fill="#825012" d="M38,68.8c-1.7,0-3-0.4-3-2.1V64h-1v3c0,1.7,1.3,3,3,3h1L38,68.8z"/>
		<circle fill="#FFFFFF" cx="37" cy="57" r="8"/>
		<circle fill="#FFFFFF" cx="41" cy="53" r="8"/>
		<circle fill="#FFFFFF" cx="47.5" cy="50.5" r="4.5"/>
		<path fill="#825012" d="M41,52.4c0.2,0.2,0.5,0.4,0.7,0.6H42v-3c-0.3,0-0.7-0.1-1-0.2V52.4z"/>
		<path opacity="0.3" d="M56.9,60.4c-1.7,1.9-4.1,3.1-6.8,3.1c-0.2,0-0.4,0-0.6,0c1,1.1,1.6,2.4,1.7,3.9
			C54.1,66.3,56.4,63.6,56.9,60.4z"/>
		<g>
			<path opacity="0.3" d="M54.5,70.7c0.3,0.7,0.4,1.5,0.5,2.3c1.7-1.1,2.9-2.9,3-5C57.2,69.3,55.9,70.2,54.5,70.7z"/>
		</g>
		<path opacity="0.3" d="M32.7,59c-1.6-1.4-2.7-3.5-2.7-5.9c-0.6,1.1-1,2.5-1,3.9c0,1.1,0.2,2.1,0.6,3.1
			C30.5,59.4,31.6,59.1,32.7,59z"/>
		<path fill="#825012" d="M53,59.6c0,1.7-1.3,2.1-3,2.1V63h1c1.7,0,3-1.3,3-3v-2c-0.3,0-0.7-0.1-1-0.2V59.6z"/>
		<circle fill="#FFFFFF" cx="45.8" cy="71.8" r="9.3"/>
		<path opacity="0.3" d="M46.8,79c-3.8,0-7-2-8.8-5c-0.3,0-0.6,0-0.9,0c-3.5,0-6.5-2-8-4.9c0.1,4.9,4.1,8.9,9,8.9c0.3,0,0.6,0,0.9,0
			c1.7,1.9,4.1,3,6.8,3c3.6,0,6.6-2,8.2-4.9C52.1,77.9,49.5,79,46.8,79z"/>
		<path fill="#825012" d="M44,74.8c1.7,0,3-0.4,3-2.1V70h1v3c0,1.7-1.3,3-3,3h-1L44,74.8z"/>
		<path fill="#825012" d="M38,57.8c-1.7,0-3-0.4-3-2.1V53h-1v3c0,1.7,1.3,3,3,3h1L38,57.8z"/>
		<rect x="42" y="69" fill="#825012" width="2" height="7"/>
		<path fill="#825012" d="M44,59.4c1.7,0,3-0.4,3-2.1v-2.6h1v3c0,1.7-1.3,3-3,3h-1L44,59.4z"/>
		<rect x="44" y="52" fill="#825012" width="1" height="9.6"/>
	</g>
	<g>
		<ellipse opacity="0.3" cx="86.5" cy="92" rx="7.5" ry="4"/>
		<path fill="#825012" d="M88,68v24c0,0.6-0.7,1-1.5,1S85,92.6,85,92V68H88z"/>
		<circle fill="#FFFFFF" cx="95.5" cy="66.5" r="6.5"/>
		<circle fill="#FFFFFF" cx="92" cy="58" r="9"/>
		<path fill="#825012" d="M86,80.4c-2.6,0-3-0.9-3-3.4v-8h-1v10c0,1.7,1.3,3,3,3h1V80.4z"/>
		<path fill="#825012" d="M87,81.8c1.7,0,3-0.4,3-2.1V70h1v10c0,1.7-1.3,3-3,3h-1V81.8z"/>
		<path fill="#825012" d="M83,78.8c-1.7,0-2-1.3-2-2.1V67h-1v10c0,1.7,1.3,3,3,3l0,0V78.8z"/>
		<circle fill="#FFFFFF" cx="82" cy="68" r="9"/>
		<circle fill="#FFFFFF" cx="77" cy="64" r="6"/>
		<path fill="#825012" d="M82,67.8c-1.7,0-3-0.4-3-2.1V63h-1v3c0,1.7,1.3,3,3,3h1V67.8z"/>
		<circle fill="#FFFFFF" cx="81" cy="56" r="8"/>
		<circle fill="#FFFFFF" cx="85" cy="52" r="8"/>
		<circle fill="#FFFFFF" cx="91.5" cy="49.5" r="4.5"/>
		<path fill="#825012" d="M85,51.4c0.2,0.2,0.5,0.4,0.7,0.6H86v-3c-0.3,0-0.7-0.1-1-0.2V51.4z"/>
		<path opacity="0.3" d="M100.9,59.4c-1.7,1.9-4.1,3.1-6.8,3.1c-0.2,0-0.4,0-0.6,0c1,1.1,1.6,2.4,1.7,3.9
			C98.1,65.3,100.4,62.6,100.9,59.4z"/>
		<g>
			<path opacity="0.3" d="M98.5,69.7c0.3,0.7,0.4,1.5,0.5,2.3c1.7-1.1,2.9-2.9,3-5C101.2,68.3,99.9,69.2,98.5,69.7z"/>
		</g>
		<path opacity="0.3" d="M76.7,58c-1.6-1.4-2.7-3.5-2.7-5.9c-0.6,1.1-1,2.5-1,3.9c0,1.1,0.2,2.1,0.6,3.1
			C74.5,58.4,75.6,58.1,76.7,58z"/>
		<path fill="#825012" d="M97,58.6c0,1.7-1.3,2.1-3,2.1V62h1c1.7,0,3-1.3,3-3v-2c-0.3,0-0.7-0.1-1-0.2V58.6z"/>
		<circle fill="#FFFFFF" cx="89.8" cy="70.8" r="9.3"/>
		<path opacity="0.3" d="M90.8,78c-3.8,0-7-2-8.8-5c-0.3,0-0.6,0-0.9,0c-3.5,0-6.5-2-8-4.9c0.1,4.9,4.1,8.9,9,8.9c0.3,0,0.6,0,0.9,0
			c1.7,1.9,4.1,3,6.8,3c3.6,0,6.6-2,8.2-4.9C96.1,76.9,93.5,78,90.8,78z"/>
		<path fill="#825012" d="M88,73.8c1.7,0,3-0.4,3-2.1V69h1v3c0,1.7-1.3,3-3,3h-1V73.8z"/>
		<path fill="#825012" d="M82,56.8c-1.7,0-3-0.4-3-2.1V52h-1v3c0,1.7,1.3,3,3,3h1V56.8z"/>
		<rect x="86" y="68" fill="#825012" width="2" height="7"/>
		<path fill="#825012" d="M88,58.4c1.7,0,3-0.4,3-2.1v-2.6h1v3c0,1.7-1.3,3-3,3h-1V58.4z"/>
		<rect x="88" y="51" fill="#825012" width="1" height="9.6"/>
	</g>
	<g>
		<polygon opacity="0.3" points="54.4,105.3 48.8,107.3 52.8,107.5 50.3,109.1 56,109.1 59.4,108.2 58.8,111 62.4,110.4 64.9,108.3 
			69.8,109.8 74.8,109.1 73.2,108.1 75,107.7 67.7,105.7 		"/>
		<path fill="#28896D" d="M56.7,84.1c4.2-0.5,6.1-8.5,6.1-8.5s0.9,7.8,6.1,9.9c0.1,0.7-1.8,1.4-3.5,0.6c-0.1,1.6,3.4,4.1,5.5,4.7
			c0.1,0.9-1.9,2.1-3.8,1.5c0.9,1.9,2.3,3.5,5.5,4.4c-1.5,0.9-3.9,0.1-5.3,0c0,1.2,4.7,2.5,7,2.3c-0.4,1.2-2.7,2.4-4.7,2.3
			c0,1.4,4.6,2.6,5.8,2.9c0.1,1.2-3.2,1.9-5.5,1.2c-0.1,1.4,2.3,2.6,3.5,3.2c0,1.1-7.5,0.7-8.8-1.5c-1.4,0.5-2.3,3.5-5.1,3.3
			c0.4-0.8,1.1-3.3-0.2-3.8c-1.1,1.5-5.7,2.6-7.6,1.8c0.5-0.5,3.1-0.9,2.3-2.6c-2.4-0.1-5.6-2.2-5.5-3.2c0.6,0.4,4.5,1,4.7,0
			c-1.8-0.1-2.8-1.5-2.9-2.6c0.6,0.3,4.5,0.9,4.7-0.3c-1.4-0.5-3.1-1.5-2.9-2.6c1.2,0.1,3.6,0.1,3.8-1.2c-1.5-0.5-2.8-2.7-2.9-3.5
			c1.1,0.3,5.3,0.1,5.3-0.9c-1.8-0.1-3.4-0.9-3.2-2c2.4-0.2,5-2.7,5-3.8C59.2,85.8,57.3,85.5,56.7,84.1z"/>
		<path opacity="0.3" d="M64.9,84.9c-1.6-1.3-1.6-1.3-1.6-1.3s1.2,1.5,2.1,2.6c0,0,0,0,0,0c1.7,0.8,3.6,0.1,3.5-0.6
			C68.9,85.5,66.5,86.1,64.9,84.9z"/>
		<path opacity="0.3" d="M67,106.9c-1.9-2-2.4-5-2.4-5s-1.2,4-2.1,5.9c-0.6,1.2-1.1,2.1-2.7,2.6c0,0,0,0.1,0,0.1
			c2.7,0.2,3.7-2.8,5.1-3.3c1.2,2.2,8.8,2.6,8.8,1.5C73.6,108.6,68.9,108.9,67,106.9z"/>
		<path opacity="0.3" d="M70.4,99.9c-1.9-0.1-4.6-3.7-4.6-3.7s-1.3,0.6-2.1,0.1c-0.8-0.5-1.5-1.2-1.5-1.2s0.7,3.4,1.7,3.2
			c1-0.1,1.6-0.4,2.1-0.9c0.5,2.6,3.9,4,3.9,4c2,0.1,4.2-1.1,4.7-2.3C74.5,99,72.3,100,70.4,99.9z"/>
		<path opacity="0.3" d="M58.4,91.4C58.4,91.4,58.4,91.4,58.4,91.4c0.6,0,1.2,0,1.7-0.1c1.5-0.2,4-1.5,4-1.5l-1.9,0.2l0.7-1.7
			c0,0-2.2,1.8-4.2,2.1c-2,0.2-3.5-1-3.5-1C55.1,90.5,56.6,91.2,58.4,91.4z"/>
		<g>
			<path opacity="0.3" d="M55.2,99.5c1.7,0,4-1.4,4-1.4s-6.6,0.4-6.9-1.2C52.1,98.1,53.8,99,55.2,99.5z"/>
			<path opacity="0.3" d="M58,101c0,0-2.1,0.6-3.5,0.6c-1.3,0-3.8-1.3-3.9-1.7c0.1,1.1,1.2,2.4,2.9,2.6C56.8,102.8,58,101,58,101z"
				/>
		</g>
		<path opacity="0.3" d="M60.6,107.2c0-1.2-0.3-8-0.3-8s-0.1,4.1-3.8,7.6c-1.2,1.2-4.5,1.6-4.5,1.6c1.9,0.9,6.5-0.2,7.6-1.8
			c1,0.5,0.8,2,0.5,3.1C60.3,109,60.6,107.9,60.6,107.2z"/>
		<path fill="#FFFFFF" d="M55.2,89.3c0.1,0.4,1.4,1.7,3.7,1c4.9-1.5,2.4-5.6,1.7-5.5c-0.7,0.1-1.1,2.6-2.6,3.1S55.1,88.9,55.2,89.3z
			"/>
		<path fill="#FFFFFF" d="M71.1,90.8c0,0-0.9,1-3.1,0.7c-2.8-0.4-2.6-5.2-2.6-5.2s1.9,2.4,3.3,3.1C69.8,90,71.1,90.2,71.1,90.8z"/>
		<path fill="#FFFFFF" d="M72.7,96.6c0,0.5-3.1,0.9-4.7-0.1c-3.2-2.1-2.2-7.1-2.2-7.1s1.8,4.6,3.7,5.3C70.8,95.2,72.7,96,72.7,96.6z
			"/>
		<path fill="#FFFFFF" d="M62.1,95c0.2,1.1,1.2,2.5,2.1,2.5c2.9,0.1,1.2-2.3,1-3.8c-0.2-1.5,0.2-5.8,0.2-5.8S61.7,92.7,62.1,95z"/>
		<path fill="#FFFFFF" d="M54.9,101.9c3.6-0.5,5.6-2.5,5.1-3.2c-0.5-0.7-3.5,1.3-6.5,0.9c-2-0.3-2.7-0.2-3,0.3
			C50.3,101.1,53.4,102.1,54.9,101.9z"/>
		<path fill="#FFFFFF" d="M62.6,93.3c0,0-10.4,2.7-10.3,3.6c-0.1,0.8,1.8,1.5,3.1,1.6c2.3,0,3.9-0.1,4.9-1.4
			C61.5,95.8,62.6,93.3,62.6,93.3z"/>
		<path fill="#FFFFFF" d="M74.5,99c0.1,0.6-3.2,2-5.1,1.2c-2.7-1.3-4.2-5.6-4.2-5.6s5,3.6,6.5,3.9S74.4,98.5,74.5,99z"/>
		<path fill="#FFFFFF" d="M62.1,89.8C63,90.7,65,90.2,65,88c0-2.2-3-5.2-3-5.2s1.2,3.7,0.8,4.7C62.5,88.5,61.7,89.4,62.1,89.8z"/>
		<path fill="#FFFFFF" d="M68.9,85.5c0.3-0.4-3.1-3.3-4.2-5.2c-1-1.9-2-4.8-2-4.8s-1,4-3.5,6.1c-1.7,1.4-2.6,1.8-2.6,2.4
			s1.4,1.2,3.1,0.5c1.7-0.7,2.8-1.3,2.8-1.3s2.1,2.1,3.5,2.5C67.5,86.1,68.6,86,68.9,85.5z"/>
		<path fill="#FFFFFF" d="M59.8,110.4c0.4,0.4,2.2-0.4,3.2-2.8c1-2.5,2.1-4.4,1.6-5.7C63.1,98,62,94.3,62,94.3s-1.8,2.2-1.7,5.1
			s0.4,5.8,0.2,6.9C60.3,107.5,59.3,109.9,59.8,110.4z"/>
		<path fill="#FFFFFF" d="M73.8,108.7c0.3-0.4-2.8-1.6-3.3-2.6c-0.5-1-1.6-3.3-2.1-3.9c-0.6-0.6-2.4-3.8-3-3.6
			c-0.6,0.2-0.7,4.3-0.3,6.2c0.4,2,3.3,4.1,5,4.4C71.8,109.5,73.4,109.1,73.8,108.7z"/>
		<path fill="#FFFFFF" d="M75.7,104.2c0.2,0.4-1.2,1.9-2.9,1.5c-1.8-0.3-3.2-2.2-3.8-3.6s0.5-1.3,0.8-0.8c0.3,0.5,2.5,1.7,3.8,2.1
			S75.4,103.5,75.7,104.2z"/>
		<path fill="#FFFFFF" d="M48.8,102.5c-0.2,0.5,2.4,2.2,3.9,2.6c1.5,0.5,4.6-2,4.9-2.6c0.3-0.6-3.2,0.4-4.5,0.4
			C51.8,102.9,49,101.9,48.8,102.5z"/>
		<path fill="#FFFFFF" d="M52,108.3c0.1,0.2,4.4-0.5,5.7-2.1c1.3-1.6,2.4-5.3,2.3-5.8c-0.1-0.6-3.3,4.1-4.7,4.7
			C53.8,105.7,51.8,107.8,52,108.3z"/>
		<path fill="#FFFFFF" d="M63.1,90.2c-1.5,0.9-4.6,1.2-4.6,1.2c-0.9,0.5-5.6-0.3-5.3,0.9c0.5,0.5,1.8,2,3.5,2
			C61,94.2,62.9,90.5,63.1,90.2z"/>
	</g>
	<g>
		<polygon opacity="0.3" points="67.1,113.4 63.2,114.8 66,115 64.3,116.1 68.2,116.1 70.5,115.5 70.1,117.4 72.6,117 74.3,115.5 
			77.7,116.6 81.2,116.1 80.1,115.4 81.3,115.1 76.2,113.7 		"/>
		<path fill="#28896D" d="M68.6,98.8c2.9-0.3,4.2-5.8,4.2-5.8s0.6,5.4,4.2,6.8c0.1,0.5-1.3,1-2.4,0.4c-0.1,1.1,2.4,2.8,3.8,3.2
			c0.1,0.6-1.3,1.4-2.6,1c0.6,1.3,1.6,2.4,3.8,3c-1,0.6-2.7,0.1-3.6,0c0,0.9,3.2,1.7,4.8,1.6c-0.3,0.8-1.8,1.7-3.2,1.6
			c0,1,3.2,1.8,4,2c0.1,0.8-2.2,1.3-3.8,0.8c-0.1,1,1.6,1.8,2.4,2.2c0,0.8-5.2,0.5-6-1c-1,0.4-1.6,2.4-3.5,2.2
			c0.3-0.5,0.8-2.2-0.1-2.7c-0.8,1.1-3.9,1.8-5.2,1.2c0.3-0.4,2.2-0.6,1.6-1.8c-1.7-0.1-3.9-1.5-3.8-2.2c0.4,0.3,3.1,0.7,3.2,0
			c-1.2-0.1-2-1.1-2-1.8c0.4,0.2,3.1,0.7,3.2-0.2c-1-0.4-2.1-1-2-1.8c0.8,0.1,2.5,0.1,2.6-0.8c-1-0.4-2-1.9-2-2.4
			c0.8,0.2,3.7,0.1,3.6-0.6c-1.3-0.1-2.3-0.6-2.2-1.4c1.6-0.1,3.4-1.9,3.4-2.6C70.4,100,69.1,99.8,68.6,98.8z"/>
		<path opacity="0.3" d="M74.3,99.4c-1.1-0.9-1.1-0.9-1.1-0.9s0.9,1.1,1.4,1.8c0,0,0,0,0,0c1.1,0.6,2.5,0.1,2.4-0.4
			C77.1,99.8,75.4,100.3,74.3,99.4z"/>
		<path opacity="0.3" d="M75.7,114.6c-1.3-1.4-1.7-3.5-1.7-3.5s-0.8,2.8-1.4,4.1c-0.4,0.8-0.8,1.5-1.8,1.8c0,0,0,0,0,0.1
			c1.9,0.1,2.5-1.9,3.5-2.2c0.9,1.5,6,1.8,6,1C80.3,115.7,77.1,115.9,75.7,114.6z"/>
		<path opacity="0.3" d="M78.1,109.7c-1.3-0.1-3.2-2.6-3.2-2.6s-0.9,0.4-1.5,0.1c-0.6-0.4-1-0.8-1-0.8s0.5,2.3,1.2,2.2
			c0.7-0.1,1.1-0.3,1.4-0.7c0.3,1.8,2.7,2.8,2.7,2.8c1.4,0.1,2.9-0.8,3.2-1.6C80.9,109.1,79.4,109.8,78.1,109.7z"/>
		<path opacity="0.3" d="M69.8,103.9C69.8,103.9,69.8,103.9,69.8,103.9c0.4,0,0.8,0,1.2-0.1c1-0.1,2.8-1.1,2.8-1.1l-1.3,0.1l0.5-1.2
			c0,0-1.5,1.3-2.9,1.4c-1.4,0.2-2.4-0.7-2.4-0.7C67.5,103.3,68.6,103.8,69.8,103.9z"/>
		<g>
			<path opacity="0.3" d="M67.6,109.5c1.2,0,2.8-1,2.8-1s-4.6,0.3-4.8-0.9C65.5,108.5,66.7,109.1,67.6,109.5z"/>
			<path opacity="0.3" d="M69.5,110.5c0,0-1.4,0.4-2.4,0.4c-0.9,0-2.6-0.9-2.7-1.1c0.1,0.7,0.8,1.7,2,1.8
				C68.8,111.7,69.5,110.5,69.5,110.5z"/>
		</g>
		<path opacity="0.3" d="M71.4,114.7c0-0.8-0.2-5.5-0.2-5.5s-0.1,2.8-2.7,5.3c-0.8,0.8-3.1,1.1-3.1,1.1c1.3,0.6,4.5-0.2,5.2-1.2
			c0.7,0.3,0.5,1.4,0.3,2.1C71.1,116,71.4,115.2,71.4,114.7z"/>
		<path fill="#FFFFFF" d="M67.6,102.5c0,0.3,1,1.2,2.6,0.7c3.4-1,1.7-3.9,1.2-3.8c-0.5,0.1-0.7,1.8-1.8,2.1
			C68.5,101.9,67.6,102.2,67.6,102.5z"/>
		<path fill="#FFFFFF" d="M78.6,103.5c0,0-0.7,0.7-2.1,0.5c-1.9-0.3-1.8-3.6-1.8-3.6s1.3,1.7,2.3,2.1
			C77.7,102.9,78.6,103.1,78.6,103.5z"/>
		<path fill="#FFFFFF" d="M79.7,107.5c0,0.3-2.2,0.6-3.2-0.1c-2.2-1.4-1.5-4.9-1.5-4.9s1.2,3.2,2.5,3.7
			C78.4,106.5,79.7,107.1,79.7,107.5z"/>
		<path fill="#FFFFFF" d="M72.4,106.4c0.1,0.8,0.8,1.7,1.5,1.8c2,0,0.9-1.6,0.7-2.6c-0.2-1,0.2-4,0.2-4S72.1,104.8,72.4,106.4z"/>
		<path fill="#FFFFFF" d="M67.4,111.1c2.5-0.3,3.9-1.7,3.5-2.2s-2.4,0.9-4.5,0.6c-1.4-0.2-1.8-0.1-2.1,0.2
			C64.3,110.6,66.4,111.2,67.4,111.1z"/>
		<path fill="#FFFFFF" d="M72.8,105.2c0,0-7.1,1.9-7.1,2.5c0,0.5,1.2,1,2.2,1.1c1.6,0,2.7-0.1,3.4-1
			C71.9,106.9,72.8,105.2,72.8,105.2z"/>
		<path fill="#FFFFFF" d="M80.9,109.1c0.1,0.4-2.2,1.4-3.5,0.8c-1.9-0.9-2.9-3.8-2.9-3.8s3.4,2.5,4.5,2.7
			C80,109,80.9,108.8,80.9,109.1z"/>
		<path fill="#FFFFFF" d="M72.4,102.8c0.6,0.6,2,0.3,2-1.2c0-1.5-2.1-3.6-2.1-3.6s0.8,2.5,0.6,3.2C72.7,101.9,72.1,102.5,72.4,102.8
			z"/>
		<path fill="#FFFFFF" d="M77.1,99.8c0.2-0.2-2.2-2.2-2.9-3.6C73.5,95,72.9,93,72.9,93s-0.7,2.8-2.4,4.2c-1.2,1-1.8,1.2-1.8,1.6
			c0,0.4,1,0.8,2.1,0.3s1.9-0.9,1.9-0.9s1.5,1.4,2.4,1.7C76.1,100.2,76.9,100.1,77.1,99.8z"/>
		<path fill="#FFFFFF" d="M70.8,117c0.3,0.3,1.5-0.2,2.2-1.9c0.7-1.7,1.5-3,1.1-4c-1-2.6-1.8-5.2-1.8-5.2s-1.2,1.5-1.1,3.5
			s0.3,4,0.1,4.8C71.1,115,70.5,116.7,70.8,117z"/>
		<path fill="#FFFFFF" d="M80.4,115.8c0.2-0.2-1.9-1.1-2.3-1.8c-0.3-0.7-1.1-2.3-1.5-2.7c-0.4-0.4-1.7-2.6-2.1-2.5
			c-0.4,0.2-0.5,2.9-0.2,4.3c0.3,1.3,2.3,2.9,3.5,3.1C79.1,116.4,80.2,116.1,80.4,115.8z"/>
		<path fill="#FFFFFF" d="M81.8,112.7c0.1,0.3-0.8,1.3-2,1.1s-2.2-1.5-2.6-2.5c-0.4-0.9,0.3-0.9,0.6-0.6s1.7,1.2,2.6,1.5
			C81.2,112.5,81.6,112.2,81.8,112.7z"/>
		<path fill="#FFFFFF" d="M63.2,111.5c-0.1,0.3,1.6,1.5,2.7,1.8c1.1,0.3,3.2-1.4,3.4-1.8s-2.2,0.3-3.1,0.3
			C65.3,111.8,63.4,111.1,63.2,111.5z"/>
		<path fill="#FFFFFF" d="M65.4,115.5c0.1,0.2,3-0.4,3.9-1.5c0.9-1.1,1.7-3.6,1.6-4s-2.3,2.8-3.3,3.2S65.3,115.2,65.4,115.5z"/>
		<path fill="#FFFFFF" d="M73,103c-1.1,0.6-3.2,0.8-3.2,0.8c-0.6,0.4-3.9-0.2-3.6,0.6c0.3,0.3,1.3,1.4,2.4,1.4
			C71.7,105.8,73,103.3,73,103z"/>
	</g>
</g>
</svg>
