<?xml version="1.0" encoding="utf-8"?>
<!-- Generator: Adobe Illustrator 18.1.0, SVG Export Plug-In . SVG Version: 6.00 Build 0)  -->
<svg version="1.1" id="Layer_1" xmlns="http://www.w3.org/2000/svg" xmlns:xlink="http://www.w3.org/1999/xlink" x="0px" y="0px"
	 viewBox="0 0 128 128" enable-background="new 0 0 128 128" xml:space="preserve">
<g>
	<g>
		<polygon fill="#FFFFFF" points="64,64 128,96 64,128 0,96 		"/>
		<polygon fill="#FFFFFF" points="64,64 128,96 64,128 0,96 		"/>
	</g>
	<g>
		<ellipse opacity="0.3" cx="62.5" cy="77" rx="7.5" ry="4"/>
		<path fill="#825012" d="M61,50v27c0,0.6,0.7,1,1.5,1s1.5-0.4,1.5-1V50H61z"/>
		<circle fill="#FFFFFF" cx="55.5" cy="45.5" r="6.5"/>
		<circle fill="#FFFFFF" cx="60" cy="37" r="9"/>
		<path fill="#825012" d="M63,65.4c2.6,0,3-0.9,3-3.4v-8h1v10c0,1.7-1.3,3-3,3h-1L63,65.4z"/>
		<path fill="#825012" d="M63,64.8c-1.7,0-3-0.4-3-2.1V53h-1v10c0,1.7,1.3,3,3,3h1L63,64.8z"/>
		<path fill="#825012" d="M61,43.8c-1.7,0-3-0.4-3-2.1V39h-1v3c0,1.7,1.3,3,3,3h1L61,43.8z"/>
		<circle fill="#FFFFFF" cx="67.5" cy="52.5" r="7.5"/>
		<circle fill="#FFFFFF" cx="72" cy="49" r="6"/>
		<path fill="#825012" d="M67,51.8c1.7,0,3-0.4,3-2.1V47h1v3c0,1.7-1.3,3-3,3h-1V51.8z"/>
		<path fill="#825012" d="M60,34.8c-1.7,0-3-0.4-3-2.1V30h-1v3c0,1.7,1.3,3,3,3h1L60,34.8z"/>
		<rect x="60" y="36.4" fill="#825012" width="1" height="9.6"/>
		<circle fill="#FFFFFF" cx="69" cy="39" r="8"/>
		<circle fill="#FFFFFF" cx="64" cy="30" r="8"/>
		<path fill="#825012" d="M69,41.8c1.7,0,3-0.4,3-2.1V37h1v3c0,1.7-1.3,3-3,3h-1V41.8z"/>
		<circle fill="#FFFFFF" cx="60.3" cy="52.8" r="9.3"/>
		<path opacity="0.3" d="M78,49c0-0.4,0-0.8-0.1-1.2c-0.6,3.8-3.9,6.7-7.9,6.7c-0.1,0-0.3,0-0.4,0c0.7,0.3,1.6,0.5,2.4,0.5
			c0.7,0,1.3-0.1,1.9-0.3c-1.4,1.4-3.3,2.3-5.4,2.3c-1,0-2-0.2-2.9-0.6C64,58,61.7,59,59.3,59c-3.5,0-6.6-2-8.1-4.8
			c0.7,4.4,4.5,7.8,9.1,7.8c2.2,0,4.3-0.8,5.9-2.1C66.6,60,67,60,67.5,60c3.5,0,6.5-2.4,7.3-5.7C76.7,53.3,78,51.3,78,49z"/>
		<path opacity="0.3" d="M53,48.5c-1.9-0.8-3.4-2.4-3.9-4.5c-0.1,0.5-0.2,1-0.2,1.5c0,2.4,1.3,4.4,3.2,5.6
			C52.3,50.2,52.6,49.3,53,48.5z"/>
		<path fill="#825012" d="M61,54.8c-1.7,0-3-0.4-3-2.1V50h-1v3c0,1.7,1.3,3,3,3h1L61,54.8z"/>
		<rect x="62" y="45" fill="#825012" width="2" height="7"/>
		<path fill="#825012" d="M64,35.4c1.7,0,3-0.4,3-2.1v-2.6h1v3c0,1.7-1.3,3-3,3h-1V35.4z"/>
		<rect x="64" y="28" fill="#825012" width="1" height="9.6"/>
	</g>
	<g>
		<ellipse opacity="0.3" cx="35.5" cy="87" rx="7.5" ry="4"/>
		<path fill="#825012" d="M37,63v24c0,0.6-0.7,1-1.5,1S34,87.6,34,87V63H37z"/>
		<circle fill="#FFFFFF" cx="44.5" cy="61.5" r="6.5"/>
		<circle fill="#FFFFFF" cx="41" cy="53" r="9"/>
		<path fill="#825012" d="M35,75.4c-2.6,0-3-0.9-3-3.4v-8h-1v10c0,1.7,1.3,3,3,3h1L35,75.4z"/>
		<path fill="#825012" d="M36,76.8c1.7,0,3-0.4,3-2.1V65h1v10c0,1.7-1.3,3-3,3h-1L36,76.8z"/>
		<path fill="#825012" d="M32,73.8c-1.7,0-2-1.3-2-2.1V62h-1v10c0,1.7,1.3,3,3,3h0L32,73.8z"/>
		<circle fill="#FFFFFF" cx="31" cy="63" r="9"/>
		<circle fill="#FFFFFF" cx="26" cy="59" r="6"/>
		<path fill="#825012" d="M31,62.8c-1.7,0-3-0.4-3-2.1V58h-1v3c0,1.7,1.3,3,3,3h1L31,62.8z"/>
		<circle fill="#FFFFFF" cx="30" cy="51" r="8"/>
		<circle fill="#FFFFFF" cx="34" cy="47" r="8"/>
		<circle fill="#FFFFFF" cx="40.5" cy="44.5" r="4.5"/>
		<path fill="#825012" d="M34,46.4c0.2,0.2,0.5,0.4,0.7,0.6H35v-3c-0.3,0-0.7-0.1-1-0.2V46.4z"/>
		<path opacity="0.3" d="M49.9,54.4c-1.7,1.9-4.1,3.1-6.8,3.1c-0.2,0-0.4,0-0.6,0c1,1.1,1.6,2.4,1.7,3.9
			C47.1,60.3,49.4,57.6,49.9,54.4z"/>
		<g>
			<path opacity="0.3" d="M47.5,64.7c0.3,0.7,0.4,1.5,0.5,2.3c1.7-1.1,2.9-2.9,3-5C50.2,63.3,48.9,64.2,47.5,64.7z"/>
		</g>
		<path opacity="0.3" d="M25.7,53c-1.6-1.4-2.7-3.5-2.7-5.9c-0.6,1.1-1,2.5-1,3.9c0,1.1,0.2,2.1,0.6,3.1
			C23.5,53.4,24.6,53.1,25.7,53z"/>
		<path fill="#825012" d="M46,53.6c0,1.7-1.3,2.1-3,2.1V57h1c1.7,0,3-1.3,3-3v-2c-0.3,0-0.7-0.1-1-0.2V53.6z"/>
		<circle fill="#FFFFFF" cx="38.8" cy="65.8" r="9.3"/>
		<path opacity="0.3" d="M39.8,73c-3.8,0-7-2-8.8-5c-0.3,0-0.6,0-0.9,0c-3.5,0-6.5-2-8-4.9c0.1,4.9,4.1,8.9,9,8.9c0.3,0,0.6,0,0.9,0
			c1.7,1.9,4.1,3,6.8,3c3.6,0,6.6-2,8.2-4.9C45.1,71.9,42.5,73,39.8,73z"/>
		<path fill="#825012" d="M37,68.8c1.7,0,3-0.4,3-2.1V64h1v3c0,1.7-1.3,3-3,3h-1L37,68.8z"/>
		<path fill="#825012" d="M31,51.8c-1.7,0-3-0.4-3-2.1V47h-1v3c0,1.7,1.3,3,3,3h1L31,51.8z"/>
		<rect x="35" y="63" fill="#825012" width="2" height="7"/>
		<path fill="#825012" d="M37,53.4c1.7,0,3-0.4,3-2.1v-2.6h1v3c0,1.7-1.3,3-3,3h-1L37,53.4z"/>
		<rect x="37" y="46" fill="#825012" width="1" height="9.6"/>
	</g>
	<g>
		<polygon opacity="0.3" points="10.6,95.3 5,97.3 9,97.5 6.5,99.1 12.3,99.1 15.6,98.2 15.1,101 18.6,100.4 21.1,98.3 26,99.8 
			31.1,99.1 29.5,98.1 31.3,97.7 23.9,95.7 		"/>
		<path fill="#28896D" d="M12.9,74.1c4.2-0.5,6.1-8.5,6.1-8.5s0.9,7.8,6.1,9.9c0.1,0.7-1.8,1.4-3.5,0.6c-0.1,1.6,3.4,4.1,5.5,4.7
			c0.1,0.9-1.9,2.1-3.8,1.5c0.9,1.9,2.3,3.5,5.5,4.4c-1.5,0.9-3.9,0.1-5.3,0c0,1.2,4.7,2.5,7,2.3c-0.4,1.2-2.7,2.4-4.7,2.3
			c0,1.4,4.6,2.6,5.8,2.9c0.1,1.2-3.2,1.9-5.5,1.2c-0.1,1.4,2.3,2.6,3.5,3.2c0,1.1-7.5,0.7-8.8-1.5c-1.4,0.5-2.3,3.5-5.1,3.3
			c0.4-0.8,1.1-3.3-0.2-3.8c-1.1,1.5-5.7,2.6-7.6,1.8c0.5-0.5,3.1-0.9,2.3-2.6c-2.4-0.1-5.6-2.2-5.5-3.2c0.6,0.4,4.5,1,4.7,0
			c-1.8-0.1-2.8-1.5-2.9-2.6c0.6,0.3,4.5,0.9,4.7-0.3c-1.4-0.5-3.1-1.5-2.9-2.6c1.2,0.1,3.6,0.1,3.8-1.2c-1.5-0.5-2.8-2.7-2.9-3.5
			c1.1,0.3,5.3,0.1,5.3-0.9c-1.8-0.1-3.4-0.9-3.2-2c2.4-0.2,5-2.7,5-3.8C15.4,75.8,13.5,75.5,12.9,74.1z"/>
		<path opacity="0.3" d="M21.2,74.9c-1.6-1.3-1.6-1.3-1.6-1.3s1.2,1.5,2.1,2.6c0,0,0,0,0,0c1.7,0.8,3.6,0.1,3.5-0.6
			C25.2,75.5,22.7,76.1,21.2,74.9z"/>
		<path opacity="0.3" d="M23.2,96.9c-1.9-2-2.4-5-2.4-5s-1.2,4-2.1,5.9c-0.6,1.2-1.1,2.1-2.7,2.6c0,0,0,0.1,0,0.1
			c2.7,0.2,3.7-2.8,5.1-3.3c1.2,2.2,8.8,2.6,8.8,1.5C29.8,98.6,25.2,98.9,23.2,96.9z"/>
		<path opacity="0.3" d="M26.6,89.9c-1.9-0.1-4.6-3.7-4.6-3.7s-1.3,0.6-2.1,0.1C19,85.7,18.3,85,18.3,85s0.7,3.4,1.7,3.2
			s1.6-0.4,2.1-0.9c0.5,2.6,3.9,4,3.9,4c2,0.1,4.2-1.1,4.7-2.3C30.7,89,28.6,90,26.6,89.9z"/>
		<path opacity="0.3" d="M14.7,81.4C14.7,81.4,14.6,81.4,14.7,81.4c0.6,0,1.2,0,1.7-0.1c1.5-0.2,4-1.5,4-1.5l-1.9,0.2l0.7-1.7
			c0,0-2.2,1.8-4.2,2.1s-3.5-1-3.5-1C11.3,80.5,12.8,81.2,14.7,81.4z"/>
		<g>
			<path opacity="0.3" d="M11.4,89.5c1.7,0,4-1.4,4-1.4s-6.6,0.4-6.9-1.2C8.4,88.1,10.1,89,11.4,89.5z"/>
			<path opacity="0.3" d="M14.2,91c0,0-2.1,0.6-3.5,0.6c-1.3,0-3.8-1.3-3.9-1.7C6.9,91,8,92.3,9.7,92.5C13.1,92.8,14.2,91,14.2,91z"
				/>
		</g>
		<path opacity="0.3" d="M16.9,97.2c0-1.2-0.3-8-0.3-8s-0.1,4.1-3.8,7.6c-1.2,1.2-4.5,1.6-4.5,1.6c1.9,0.9,6.5-0.2,7.6-1.8
			c1,0.5,0.8,2,0.5,3.1C16.5,99,16.9,97.9,16.9,97.2z"/>
		<path fill="#FFFFFF" d="M11.4,79.3c0.1,0.4,1.4,1.7,3.7,1c4.9-1.5,2.4-5.6,1.7-5.5c-0.7,0.1-1.1,2.6-2.6,3.1S11.4,78.9,11.4,79.3z
			"/>
		<path fill="#FFFFFF" d="M27.3,80.8c0,0-0.9,1-3.1,0.7c-2.8-0.4-2.6-5.2-2.6-5.2s1.9,2.4,3.3,3.1C26.1,80,27.4,80.2,27.3,80.8z"/>
		<path fill="#FFFFFF" d="M29,86.6c0,0.5-3.1,0.9-4.7-0.1c-3.2-2.1-2.2-7.1-2.2-7.1s1.8,4.6,3.7,5.3C27,85.2,28.9,86,29,86.6z"/>
		<path fill="#FFFFFF" d="M18.3,85c0.2,1.1,1.2,2.5,2.1,2.5c2.9,0.1,1.2-2.3,1-3.8s0.2-5.8,0.2-5.8S17.9,82.7,18.3,85z"/>
		<path fill="#FFFFFF" d="M11.1,91.9c3.6-0.5,5.6-2.5,5.1-3.2c-0.5-0.7-3.5,1.3-6.5,0.9c-2-0.3-2.7-0.2-3,0.3
			C6.6,91.1,9.6,92.1,11.1,91.9z"/>
		<path fill="#FFFFFF" d="M18.9,83.3c0,0-10.4,2.7-10.3,3.6c-0.1,0.8,1.8,1.5,3.1,1.6c2.3,0,3.9-0.1,4.9-1.4
			C17.7,85.8,18.9,83.3,18.9,83.3z"/>
		<path fill="#FFFFFF" d="M30.7,89c0.1,0.6-3.2,2-5.1,1.2c-2.7-1.3-4.2-5.6-4.2-5.6s5,3.6,6.5,3.9S30.6,88.5,30.7,89z"/>
		<path fill="#FFFFFF" d="M18.4,79.8c0.9,0.9,2.9,0.4,2.9-1.8c0-2.2-3-5.2-3-5.2s1.2,3.7,0.8,4.7C18.8,78.5,18,79.4,18.4,79.8z"/>
		<path fill="#FFFFFF" d="M25.2,75.5c0.3-0.4-3.1-3.3-4.2-5.2c-1-1.9-2-4.8-2-4.8s-1,4-3.5,6.1c-1.7,1.4-2.6,1.8-2.6,2.4
			c0,0.6,1.4,1.2,3.1,0.5c1.7-0.7,2.8-1.3,2.8-1.3s2.1,2.1,3.5,2.5C23.7,76.1,24.8,76,25.2,75.5z"/>
		<path fill="#FFFFFF" d="M16,100.4c0.4,0.4,2.2-0.4,3.2-2.8c1-2.5,2.1-4.4,1.6-5.7c-1.5-3.8-2.6-7.5-2.6-7.5s-1.8,2.2-1.7,5.1
			s0.4,5.8,0.2,6.9C16.5,97.5,15.5,99.9,16,100.4z"/>
		<path fill="#FFFFFF" d="M30,98.7c0.3-0.4-2.8-1.6-3.3-2.6c-0.5-1-1.6-3.3-2.1-3.9c-0.6-0.6-2.4-3.8-3-3.6
			c-0.6,0.2-0.7,4.3-0.3,6.2c0.4,2,3.3,4.1,5,4.4S29.6,99.1,30,98.7z"/>
		<path fill="#FFFFFF" d="M32,94.2c0.2,0.4-1.2,1.9-2.9,1.5c-1.8-0.3-3.2-2.2-3.8-3.6c-0.6-1.4,0.5-1.3,0.8-0.8
			c0.3,0.5,2.5,1.7,3.8,2.1C31.1,93.8,31.7,93.5,32,94.2z"/>
		<path fill="#FFFFFF" d="M5,92.5c-0.2,0.5,2.4,2.2,3.9,2.6c1.5,0.5,4.6-2,4.9-2.6c0.3-0.6-3.2,0.4-4.5,0.4
			C8.1,92.9,5.2,91.9,5,92.5z"/>
		<path fill="#FFFFFF" d="M8.2,98.3c0.1,0.2,4.4-0.5,5.7-2.1c1.3-1.6,2.4-5.3,2.3-5.8S13,94.4,11.5,95C10.1,95.7,8,97.8,8.2,98.3z"
			/>
		<path fill="#FFFFFF" d="M19.3,80.2c-1.5,0.9-4.6,1.2-4.6,1.2c-0.9,0.5-5.6-0.3-5.3,0.9c0.5,0.5,1.8,2,3.5,2
			C17.3,84.2,19.2,80.5,19.3,80.2z"/>
	</g>
	<g>
		<polygon opacity="0.3" points="66.1,89.4 56.7,92.7 63.4,93.1 59.3,95.9 68.9,95.8 74.5,94.3 73.6,99 79.5,98 83.7,94.4 91.9,97 
			100.4,95.9 97.7,94.2 100.7,93.4 88.4,90.1 		"/>
		<path fill="#28896D" d="M101.7,87.6c-2.1-0.6-9.8-2.6-9.8-4.9c3.3,0.2,7.1-1.9,7.8-3.9c-2.5,0.2-6.4-0.6-9.1-1.7
			c-0.4-0.5-0.7-1-0.8-1.5c2.3,0.6,5,0.4,6.9-0.7c-1.1-0.3-2.1-0.6-2.9-1c1.2-1,2-2.3,2.5-3.1c-2.4,0.7-6.9-0.1-6.9-2.2
			c2.6,0.2,5.5-1.8,6.1-3.7c-0.9,0.1-2.1-0.1-3.3-0.3c-1.7-0.8-3.7-2-5.2-3.3c1.8,0.3,4.5,1.1,6.2-0.1c-2.4-0.8-4-1.9-5.2-3.3
			c1.4-0.2,2.5-0.9,2.4-1.6c-1.1-0.4-2.1-1.1-3-1.8c2,0,3.6-1.5,3.5-2.6c-2.8-0.9-7.5-4.8-7.3-7.4c2.2,1.3,4.7,0.2,4.6-0.9
			c-6.9-3.3-8-15.7-8-15.7s-2.6,13.7-8.1,14.4c0.8,2.2,3.4,2.3,4.6,1.2c0,1.7-3.4,5.7-6.5,6c-0.1,1.4,1,2.4,2.7,2.9
			c-0.9,0.7-2,1.1-3.1,1.3c0.1,0.2,0.2,0.4,0.3,0.6c-1.1,0.1-2.1,0-2.6-0.2c0.1,1.3,1.9,4.7,3.8,5.5c-0.2,2-3.4,2.1-5,1.8
			c-0.1,1.3,0.8,2.3,2.1,3.2c0,0,0,0,0,0c0.6,0.4,1.2,0.7,1.7,1c-0.2,2-5.3,1-6.1,0.5c0,0.6,0.2,1.2,0.5,1.8c0.4,1,0.9,2.2,1.7,3.2
			c-1.6,0.1-4-0.4-4.5-0.9c-0.1,1.3,2.7,3.7,5.4,4.7c-1.4,0.5-3.5,0.5-4.7,0.3c-0.2,2,2.6,3.5,4.9,4.4c-0.2,2.1-6.8,1.1-7.8,0.5
			c0.1,1.8,2,4.2,4.9,4.4c-0.2,1.7-6.9,0.7-7.8,0C56.6,86.4,62,90,66,90.1c1.3,2.9-3.1,3.5-3.9,4.4c3.2,1.5,10.9-0.4,12.7-2.9
			c2.2,1,0.9,5.2,0.3,6.4c4.6,0.3,6.2-4.6,8.5-5.5c2.1,3.7,14.7,4.3,14.7,2.4c-2-1-6-3.1-5.9-5.4C96.4,90.8,102,89.6,101.7,87.6z"/>
		<path fill="#FFFFFF" d="M56.1,84.4c12.9,1.4,16.3-1.8,18.6-4.2C73.4,89.4,60.9,91.6,56.1,84.4z"/>
		<path opacity="0.3" d="M83.8,55.2C81.1,53,81.1,53,81.1,53s2.1,2.6,3.5,4.3c0,0,0,0,0,0c2.8,1.4,6,0.2,5.9-1
			C90.5,56.3,86.4,57.3,83.8,55.2z"/>
		<path opacity="0.3" d="M87.2,92.1c-3.3-3.4-4-8.5-4-8.5s-2,6.8-3.5,9.9c-1,2-1.9,3.6-4.5,4.3c0,0.1,0,0.1-0.1,0.2
			c4.6,0.3,6.2-4.6,8.5-5.5c2.1,3.7,14.7,4.3,14.7,2.4C98.3,95,90.5,95.5,87.2,92.1z"/>
		<path opacity="0.3" d="M92.9,80.3c-3.3-0.2-7.8-6.3-7.8-6.3s-2.3,1.1-3.6,0.2c-1.3-0.9-2.5-2-2.5-2s1.2,5.7,2.9,5.4
			c1.8-0.3,2.8-0.8,3.5-1.6c0.8,4.4,6.5,6.8,6.5,6.7c3.3,0.2,7.1-1.9,7.8-3.9C99.8,78.8,96.2,80.5,92.9,80.3z"/>
		<path opacity="0.3" d="M72.6,66.1c0,0,0-0.6,0-0.6c1,0,1.9,0.5,2.8,0.4c2.5-0.3,6.7-3.3,6.7-3.3L78.9,63l1.3-2.8
			c0,0-3.8,3.1-7.1,3.5s-6.4-1.8-6.4-1.8C66.4,63.8,69.5,65.9,72.6,66.1z"/>
		<g>
			<path opacity="0.3" d="M67.5,79.8c-0.2,2.1-6.8,1.1-7.8,0.5c4.8,3.1,13.9-0.5,13.9-0.5l-4.4,0.1l5-2.4c0,0-11.1,0.7-11.6-2.1
				C62.3,77.4,65.1,78.9,67.5,79.8z"/>
			<path opacity="0.3" d="M72.1,82.2c0,0-3.5,1-5.9,1c-2.2,0-6.4-2.2-6.6-2.8c0.2,1.8,2,4.1,4.9,4.3C70.2,85.2,72.1,82.2,72.1,82.2z
				"/>
		</g>
		<path opacity="0.3" d="M76.6,92.5c0-2-0.5-13.5-0.5-13.5s-0.3,6.9-6.5,12.8c-2.1,2-7.5,2.6-7.5,2.6c3.2,1.5,10.9-0.4,12.7-2.9
			c1.7,0.8,1.3,3.4,0.8,5.2C76,95.6,76.6,93.8,76.6,92.5z"/>
		<path opacity="0.3" d="M95.6,64.8c0,0-3.3,1.8-6.6,1c-3.3-0.8-5.7-3-5.7-3s1.3,3.7,2.8,6c1.6,2.4,7.5,4.5,10.3,2
			c-2.4,0.7-6.9-0.1-6.9-2.2C92.1,68.7,95,66.8,95.6,64.8z"/>
		<path opacity="0.3" d="M87.3,52.1c-2.8-0.4-5.6-3.9-5.6-3.9s-2.8,1.5-0.1,3.3c2.7,1.7,0.3,2.2,5.8,3.1c2,0,3.6-1.5,3.5-2.6
			C91,52,90,52.4,87.3,52.1z"/>
		<path opacity="0.3" d="M70.3,49.7c0,0,2,0.5,6.6-2.4c4.6-2.9,3-8,3-8s-1.7,2.3-3.5,2.6c-1.5,0.2-3.1,0.7-4,0.6c-0.2,0-0.3,0-0.3,0
			c0.8,2.2,3.4,2.3,4.6,1.2C76.8,45.4,73.5,49.3,70.3,49.7z"/>
		<path fill="#FFFFFF" d="M69.9,49.7c0.1,0.5,1.9,2.3,5,1.3c6.6-2,5.3-9.2,4.3-9c-0.9,0.2-3.4,5.1-5.5,5.9
			C71.6,48.5,69.8,49.1,69.9,49.7z"/>
		<path fill="#FFFFFF" d="M91.2,52.1c0,0-1.8,1.5-5.3,0.5c-4.5-1.3-4.5-11.9-4.5-11.9s3.9,7.1,6.1,8.6
			C89.3,50.4,91.4,51.1,91.2,52.1z"/>
		<path fill="#FFFFFF" d="M75,53c0.9,2.3,5,2.9,6.7-1.1c1.6-4-2.1-9.8-2.1-9.8s0,5.7-1.5,7.3C76.7,51,74.6,52,75,53z"/>
		<path fill="#FFFFFF" d="M89,44.1c0.4-0.6-4.5-5.3-5.9-8.4c-1.4-3-2.8-7.8-2.8-7.8s-1.4,6.5-5,10c-2.5,2.4-3.7,2.9-3.7,3.8
			s2,1.9,4.4,0.8c2.3-1.2,4-2.1,4-2.1s3,3.4,5,4S88.5,44.8,89,44.1z"/>
		<path fill="#FFFFFF" d="M59.6,80.5c-0.4,1,3.5,3,6.8,2.6c5.6-0.8,8.9-5.3,9.5-6.5c0.6-1.2-6,3.4-8.5,3.5
			C64.9,80.1,60.1,79.3,59.6,80.5z"/>
		<path fill="#FFFFFF" d="M95.6,64.8c0,1.2-3.8,2.1-7,1c-3.2-1.1-4.8-4.9-4.8-5.9s4,2,6.3,3.2C92.5,64.3,95.6,64.1,95.6,64.8z"/>
		<path fill="#FFFFFF" d="M98.4,74.9c-0.2-0.6-6.3,0-11-4.6s-4.6-8.6-4.6-8.6s-1.4,1.5-5.2,3.8S64.3,65.8,64,66.2s2.9,7.6,13.9,4.4
			c3-0.9,3.8-2.2,3.8-2.2s2.7,4.6,6,5.9C95,77.1,98.6,75.5,98.4,74.9z"/>
		<path fill="#FFFFFF" d="M96.5,70.5c0.2,0.7-2.3,2.3-6.6,1.1c-7.2-2-7.1-9.8-7.1-9.8s5.1,6.3,8,7.4C92.4,69.9,96.3,70.1,96.5,70.5z
			"/>
		<path fill="#FFFFFF" d="M66.5,61.4c-0.2,0.2,0.4,2.1,4.5,2.4s7.3-5.3,7.2-5.9c-0.1-0.6-5.6,2.8-7.6,2.7
			C68.5,60.5,66.9,60.8,66.5,61.4z"/>
		<path fill="#FFFFFF" d="M67.6,54.1c-0.4,0.4,1.4,3.7,4.1,3.9c5.8,0.4,9.6-5.1,9.6-5.1s-9.3,2.1-10.7,1.7S67.9,53.8,67.6,54.1z"/>
		<path fill="#FFFFFF" d="M90.5,56.2c0.1,0.4-3.3,1.2-5.4-0.2s-3.3-2.4-3.3-2.4s4.5,0.7,5.6,0.9C88.4,54.8,90.4,55.4,90.5,56.2z"/>
		<path fill="#FFFFFF" d="M93.3,61.2c-0.1,0.8-5.2,0.1-6.7-0.9c-1.5-1,0.6-2.5,1.8-1.8C89.7,59,93.3,61.2,93.3,61.2z"/>
		<path fill="#FFFFFF" d="M78.4,63.2c3.1,0.8,5.5-3,4.8-6.4c-0.2-1.1-3.4-5.3-3.4-5.3s-0.1,4.3-0.6,6.2S76.6,62.8,78.4,63.2z"/>
		<path fill="#FFFFFF" d="M79,72.2c0,0,0.5,2.2,3.3,2.3c2.2,0.1,2.9-0.1,3.8-1.3c1.2-1.8-4.9-6.8-4.9-6.8S78.7,70.2,79,72.2z"/>
		<path fill="#FFFFFF" d="M61.9,94.4c-0.1,0.7,6.9,0.9,10.4-3.6s3.7-11.7,3.7-11.7s-4.9,6.5-6.6,8.3C67.8,89.1,62.1,92.2,61.9,94.4z
			"/>
		<path fill="#FFFFFF" d="M62.1,75.1c0,0,8.6,0.4,14.2-2.3c1.7-0.1,4.2,4.1,5.4,4.4c1.3-0.4,2.2-0.4,3.6-1.3
			c1.2,5,11.7,9.1,16.6,11.6c-11,5.1-17.4-5.5-18.4-7.3c-1.1,0.9-1.4,4.3-3.5,4.3c-2.2-1-3.5-5.9-4.1-7.7
			C74.2,76.5,64.6,80.9,62.1,75.1z"/>
		<path fill="#FFFFFF" d="M61.9,70.4c-0.8,0.6,2.1,3.7,6.4,3.4s6.2-1.7,6.2-1.7s-7.9-0.7-8.4-0.9S62.5,69.9,61.9,70.4z"/>
		<path fill="#FFFFFF" d="M99.8,78.8c0.3,0.6-3.7,2.7-7.3,1.7c-3.6-1-5.3-4.8-5.3-4.8s2.1,1,3.8,1.3C92.6,77.2,99.6,78.4,99.8,78.8z
			"/>
		<path fill="#FFFFFF" d="M75.1,98c3.6,0,9.1-10.8,2.3-14.3C75.2,86.4,74.4,98,75.1,98z"/>
		<path fill="#FFFFFF" d="M83.4,83.2c4.5,3.8,10.1,6.9,15,11.7C88.1,98.6,82,85.9,83.4,83.2z"/>
	</g>
	<g>
		<ellipse opacity="0.3" cx="51.5" cy="110" rx="7.5" ry="4"/>
		<path fill="#825012" d="M50,83v27c0,0.6,0.7,1,1.5,1s1.5-0.4,1.5-1V83H50z"/>
		<circle fill="#FFFFFF" cx="44.5" cy="78.5" r="6.5"/>
		<circle fill="#FFFFFF" cx="49" cy="70" r="9"/>
		<path fill="#825012" d="M52,98.4c2.6,0,3-0.9,3-3.4v-8h1v10c0,1.7-1.3,3-3,3h-1L52,98.4z"/>
		<path fill="#825012" d="M52,97.8c-1.7,0-3-0.4-3-2.1V86h-1v10c0,1.7,1.3,3,3,3h1L52,97.8z"/>
		<path fill="#825012" d="M50,76.8c-1.7,0-3-0.4-3-2.1V72h-1v3c0,1.7,1.3,3,3,3h1L50,76.8z"/>
		<circle fill="#FFFFFF" cx="56.5" cy="85.5" r="7.5"/>
		<circle fill="#FFFFFF" cx="61" cy="82" r="6"/>
		<path fill="#825012" d="M56,84.8c1.7,0,3-0.4,3-2.1V80h1v3c0,1.7-1.3,3-3,3h-1L56,84.8z"/>
		<path fill="#825012" d="M49,67.8c-1.7,0-3-0.4-3-2.1V63h-1v3c0,1.7,1.3,3,3,3h1L49,67.8z"/>
		<rect x="49" y="69.4" fill="#825012" width="1" height="9.6"/>
		<circle fill="#FFFFFF" cx="58" cy="72" r="8"/>
		<circle fill="#FFFFFF" cx="53" cy="63" r="8"/>
		<path fill="#825012" d="M58,74.8c1.7,0,3-0.4,3-2.1V70h1v3c0,1.7-1.3,3-3,3h-1L58,74.8z"/>
		<circle fill="#FFFFFF" cx="49.3" cy="85.8" r="9.3"/>
		<path opacity="0.3" d="M67,82c0-0.4,0-0.8-0.1-1.2c-0.6,3.8-3.9,6.7-7.9,6.7c-0.1,0-0.3,0-0.4,0c0.7,0.3,1.6,0.5,2.4,0.5
			c0.7,0,1.3-0.1,1.9-0.3c-1.4,1.4-3.3,2.3-5.4,2.3c-1,0-2-0.2-2.9-0.6C53,91,50.7,92,48.3,92c-3.5,0-6.6-2-8.1-4.8
			c0.7,4.4,4.5,7.8,9.1,7.8c2.2,0,4.3-0.8,5.9-2.1C55.6,93,56,93,56.5,93c3.5,0,6.5-2.4,7.3-5.7C65.7,86.3,67,84.3,67,82z"/>
		<path opacity="0.3" d="M42,81.5c-1.9-0.8-3.4-2.4-3.9-4.5c-0.1,0.5-0.2,1-0.2,1.5c0,2.4,1.3,4.4,3.2,5.6
			C41.3,83.2,41.6,82.3,42,81.5z"/>
		<path fill="#825012" d="M50,87.8c-1.7,0-3-0.4-3-2.1V83h-1v3c0,1.7,1.3,3,3,3h1L50,87.8z"/>
		<rect x="51" y="78" fill="#825012" width="2" height="7"/>
		<path fill="#825012" d="M53,68.4c1.7,0,3-0.4,3-2.1v-2.6h1v3c0,1.7-1.3,3-3,3h-1L53,68.4z"/>
		<rect x="53" y="61" fill="#825012" width="1" height="9.6"/>
	</g>
	<g>
		<ellipse opacity="0.3" cx="101.5" cy="99" rx="7.5" ry="4"/>
		<path fill="#825012" d="M103,75v24c0,0.6-0.7,1-1.5,1s-1.5-0.4-1.5-1V75H103z"/>
		<circle fill="#FFFFFF" cx="110.5" cy="73.5" r="6.5"/>
		<circle fill="#FFFFFF" cx="107" cy="65" r="9"/>
		<path fill="#825012" d="M101,87.4c-2.6,0-3-0.9-3-3.4v-8h-1v10c0,1.7,1.3,3,3,3h1V87.4z"/>
		<path fill="#825012" d="M102,88.8c1.7,0,3-0.4,3-2.1V77h1v10c0,1.7-1.3,3-3,3h-1V88.8z"/>
		<path fill="#825012" d="M98,85.8c-1.7,0-2-1.3-2-2.1V74h-1v10c0,1.7,1.3,3,3,3l0,0V85.8z"/>
		<circle fill="#FFFFFF" cx="97" cy="75" r="9"/>
		<circle fill="#FFFFFF" cx="92" cy="71" r="6"/>
		<path fill="#825012" d="M97,74.8c-1.7,0-3-0.4-3-2.1V70h-1v3c0,1.7,1.3,3,3,3h1V74.8z"/>
		<circle fill="#FFFFFF" cx="96" cy="63" r="8"/>
		<circle fill="#FFFFFF" cx="100" cy="59" r="8"/>
		<circle fill="#FFFFFF" cx="106.5" cy="56.5" r="4.5"/>
		<path fill="#825012" d="M100,58.4c0.2,0.2,0.5,0.4,0.7,0.6h0.3v-3c-0.3,0-0.7-0.1-1-0.2V58.4z"/>
		<path opacity="0.3" d="M115.9,66.4c-1.7,1.9-4.1,3.1-6.8,3.1c-0.2,0-0.4,0-0.6,0c1,1.1,1.6,2.4,1.7,3.9
			C113.1,72.3,115.4,69.6,115.9,66.4z"/>
		<g>
			<path opacity="0.3" d="M113.5,76.7c0.3,0.7,0.4,1.5,0.5,2.3c1.7-1.1,2.9-2.9,3-5C116.2,75.3,114.9,76.2,113.5,76.7z"/>
		</g>
		<path opacity="0.3" d="M91.7,65c-1.6-1.4-2.7-3.5-2.7-5.9c-0.6,1.1-1,2.5-1,3.9c0,1.1,0.2,2.1,0.6,3.1
			C89.5,65.4,90.6,65.1,91.7,65z"/>
		<path fill="#825012" d="M112,65.6c0,1.7-1.3,2.1-3,2.1V69h1c1.7,0,3-1.3,3-3v-2c-0.3,0-0.7-0.1-1-0.2V65.6z"/>
		<circle fill="#FFFFFF" cx="104.8" cy="77.8" r="9.3"/>
		<path opacity="0.3" d="M105.8,85c-3.8,0-7-2-8.8-5c-0.3,0-0.6,0-0.9,0c-3.5,0-6.5-2-8-4.9c0.1,4.9,4.1,8.9,9,8.9
			c0.3,0,0.6,0,0.9,0c1.7,1.9,4.1,3,6.8,3c3.6,0,6.6-2,8.2-4.9C111.1,83.9,108.5,85,105.8,85z"/>
		<path fill="#825012" d="M103,80.8c1.7,0,3-0.4,3-2.1V76h1v3c0,1.7-1.3,3-3,3h-1V80.8z"/>
		<path fill="#825012" d="M97,63.8c-1.7,0-3-0.4-3-2.1V59h-1v3c0,1.7,1.3,3,3,3h1V63.8z"/>
		<rect x="101" y="75" fill="#825012" width="2" height="7"/>
		<path fill="#825012" d="M103,65.4c1.7,0,3-0.4,3-2.1v-2.6h1v3c0,1.7-1.3,3-3,3h-1V65.4z"/>
		<rect x="103" y="58" fill="#825012" width="1" height="9.6"/>
	</g>
	<g>
		<polygon opacity="0.3" points="71.6,109.3 66,111.3 70,111.5 67.5,113.1 73.3,113.1 76.6,112.2 76.1,115 79.6,114.4 82.1,112.3 
			87,113.8 92.1,113.1 90.5,112.1 92.3,111.7 84.9,109.7 		"/>
		<path fill="#28896D" d="M73.9,88.1c4.2-0.5,6.1-8.5,6.1-8.5s0.9,7.8,6.1,9.9c0.1,0.7-1.8,1.4-3.5,0.6c-0.1,1.6,3.4,4.1,5.5,4.7
			c0.1,0.9-1.9,2.1-3.8,1.5c0.9,1.9,2.3,3.5,5.5,4.4c-1.5,0.9-3.9,0.1-5.3,0c0,1.2,4.7,2.5,7,2.3c-0.4,1.2-2.7,2.4-4.7,2.3
			c0,1.4,4.6,2.6,5.8,2.9c0.1,1.2-3.2,1.9-5.5,1.2c-0.1,1.4,2.3,2.6,3.5,3.2c0,1.1-7.5,0.7-8.8-1.5c-1.4,0.5-2.3,3.5-5.1,3.3
			c0.4-0.8,1.1-3.3-0.2-3.8c-1.1,1.5-5.7,2.6-7.6,1.8c0.5-0.5,3.1-0.9,2.3-2.6c-2.4-0.1-5.6-2.2-5.5-3.2c0.6,0.4,4.5,1,4.7,0
			c-1.8-0.1-2.8-1.5-2.9-2.6c0.6,0.3,4.5,0.9,4.7-0.3c-1.4-0.5-3.1-1.5-2.9-2.6c1.2,0.1,3.6,0.1,3.8-1.2c-1.5-0.5-2.8-2.7-2.9-3.5
			c1.1,0.3,5.3,0.1,5.3-0.9c-1.8-0.1-3.4-0.9-3.2-2c2.4-0.2,5-2.7,5-3.8C76.4,89.8,74.5,89.5,73.9,88.1z"/>
		<path opacity="0.3" d="M82.1,88.9c-1.6-1.3-1.6-1.3-1.6-1.3s1.2,1.5,2.1,2.6c0,0,0,0,0,0c1.7,0.8,3.6,0.1,3.5-0.6
			C86.2,89.5,83.7,90.1,82.1,88.9z"/>
		<path opacity="0.3" d="M84.2,110.9c-1.9-2-2.4-5-2.4-5s-1.2,4-2.1,5.9c-0.6,1.2-1.1,2.1-2.7,2.6c0,0,0,0.1,0,0.1
			c2.7,0.2,3.7-2.8,5.1-3.3c1.2,2.2,8.8,2.6,8.8,1.5C90.8,112.6,86.1,112.9,84.2,110.9z"/>
		<path opacity="0.3" d="M87.6,103.9c-1.9-0.1-4.6-3.7-4.6-3.7s-1.3,0.6-2.1,0.1C80,99.7,79.3,99,79.3,99s0.7,3.4,1.7,3.2
			c1-0.1,1.6-0.4,2.1-0.9c0.5,2.6,3.9,4,3.9,4c2,0.1,4.2-1.1,4.7-2.3C91.7,103,89.5,104,87.6,103.9z"/>
		<path opacity="0.3" d="M75.6,95.4C75.6,95.4,75.6,95.4,75.6,95.4c0.6,0,1.2,0,1.7-0.1c1.5-0.2,4-1.5,4-1.5l-1.9,0.2l0.7-1.7
			c0,0-2.2,1.8-4.2,2.1c-2,0.2-3.5-1-3.5-1C72.3,94.5,73.8,95.2,75.6,95.4z"/>
		<g>
			<path opacity="0.3" d="M72.4,103.5c1.7,0,4-1.4,4-1.4s-6.6,0.4-6.9-1.2C69.4,102.1,71,103,72.4,103.5z"/>
			<path opacity="0.3" d="M75.2,105c0,0-2.1,0.6-3.5,0.6c-1.3,0-3.8-1.3-3.9-1.7c0.1,1.1,1.2,2.4,2.9,2.6
				C74.1,106.8,75.2,105,75.2,105z"/>
		</g>
		<path opacity="0.3" d="M77.9,111.2c0-1.2-0.3-8-0.3-8s-0.1,4.1-3.8,7.6c-1.2,1.2-4.5,1.6-4.5,1.6c1.9,0.9,6.5-0.2,7.6-1.8
			c1,0.5,0.8,2,0.5,3.1C77.5,113,77.9,111.9,77.9,111.2z"/>
		<path fill="#FFFFFF" d="M72.4,93.3c0.1,0.4,1.4,1.7,3.7,1c4.9-1.5,2.4-5.6,1.7-5.5c-0.7,0.1-1.1,2.6-2.6,3.1S72.4,92.9,72.4,93.3z
			"/>
		<path fill="#FFFFFF" d="M88.3,94.8c0,0-0.9,1-3.1,0.7c-2.8-0.4-2.6-5.2-2.6-5.2s1.9,2.4,3.3,3.1C87,94,88.4,94.2,88.3,94.8z"/>
		<path fill="#FFFFFF" d="M89.9,100.6c0,0.5-3.1,0.9-4.7-0.1c-3.2-2.1-2.2-7.1-2.2-7.1s1.8,4.6,3.7,5.3C88,99.2,89.9,100,89.9,100.6
			z"/>
		<path fill="#FFFFFF" d="M79.3,99c0.2,1.1,1.2,2.5,2.1,2.5c2.9,0.1,1.2-2.3,1-3.8c-0.2-1.5,0.2-5.8,0.2-5.8S78.9,96.7,79.3,99z"/>
		<path fill="#FFFFFF" d="M72.1,105.9c3.6-0.5,5.6-2.5,5.1-3.2c-0.5-0.7-3.5,1.3-6.5,0.9c-2-0.3-2.7-0.2-3,0.3
			C67.6,105.1,70.6,106.1,72.1,105.9z"/>
		<path fill="#FFFFFF" d="M79.9,97.3c0,0-10.4,2.7-10.3,3.6c-0.1,0.8,1.8,1.5,3.1,1.6c2.3,0,3.9-0.1,4.9-1.4
			C78.7,99.8,79.9,97.3,79.9,97.3z"/>
		<path fill="#FFFFFF" d="M91.7,103c0.1,0.6-3.2,2-5.1,1.2c-2.7-1.3-4.2-5.6-4.2-5.6s5,3.6,6.5,3.9S91.6,102.5,91.7,103z"/>
		<path fill="#FFFFFF" d="M79.4,93.8c0.9,0.9,2.9,0.4,2.9-1.8c0-2.2-3-5.2-3-5.2s1.2,3.7,0.8,4.7C79.8,92.5,79,93.4,79.4,93.8z"/>
		<path fill="#FFFFFF" d="M86.2,89.5c0.3-0.4-3.1-3.3-4.2-5.2c-1-1.9-2-4.8-2-4.8s-1,4-3.5,6.1c-1.7,1.4-2.6,1.8-2.6,2.4
			s1.4,1.2,3.1,0.5c1.7-0.7,2.8-1.3,2.8-1.3s2.1,2.1,3.5,2.5C84.7,90.1,85.8,90,86.2,89.5z"/>
		<path fill="#FFFFFF" d="M77,114.4c0.4,0.4,2.2-0.4,3.2-2.8c1-2.5,2.1-4.4,1.6-5.7c-1.5-3.8-2.6-7.5-2.6-7.5s-1.8,2.2-1.7,5.1
			s0.4,5.8,0.2,6.9C77.5,111.5,76.5,113.9,77,114.4z"/>
		<path fill="#FFFFFF" d="M91,112.7c0.3-0.4-2.8-1.6-3.3-2.6c-0.5-1-1.6-3.3-2.1-3.9c-0.6-0.6-2.4-3.8-3-3.6
			c-0.6,0.2-0.7,4.3-0.3,6.2c0.4,2,3.3,4.1,5,4.4C89,113.5,90.6,113.1,91,112.7z"/>
		<path fill="#FFFFFF" d="M93,108.2c0.2,0.4-1.2,1.9-2.9,1.5c-1.8-0.3-3.2-2.2-3.8-3.6s0.5-1.3,0.8-0.8c0.3,0.5,2.5,1.7,3.8,2.1
			S92.6,107.5,93,108.2z"/>
		<path fill="#FFFFFF" d="M66,106.5c-0.2,0.5,2.4,2.2,3.9,2.6c1.5,0.5,4.6-2,4.9-2.6c0.3-0.6-3.2,0.4-4.5,0.4
			C69.1,106.9,66.2,105.9,66,106.5z"/>
		<path fill="#FFFFFF" d="M69.2,112.3c0.1,0.2,4.4-0.5,5.7-2.1c1.3-1.6,2.4-5.3,2.3-5.8s-3.3,4.1-4.7,4.7
			C71,109.7,69,111.8,69.2,112.3z"/>
		<path fill="#FFFFFF" d="M80.3,94.2c-1.5,0.9-4.6,1.2-4.6,1.2c-0.9,0.5-5.6-0.3-5.3,0.9c0.5,0.5,1.8,2,3.5,2
			C78.3,98.2,80.2,94.5,80.3,94.2z"/>
	</g>
	<g>
		<polygon opacity="0.3" points="59.9,119.1 56,120.4 58.8,120.6 57.1,121.7 61,121.7 63.3,121.1 62.9,123 65.4,122.6 67.1,121.1 
			70.5,122.2 74,121.7 72.9,121 74.1,120.7 69,119.3 		"/>
		<path fill="#28896D" d="M61.4,104.4c2.9-0.3,4.2-5.8,4.2-5.8s0.6,5.4,4.2,6.8c0.1,0.5-1.3,1-2.4,0.4c-0.1,1.1,2.4,2.8,3.8,3.2
			c0.1,0.6-1.3,1.4-2.6,1c0.6,1.3,1.6,2.4,3.8,3c-1,0.6-2.7,0.1-3.6,0c0,0.9,3.2,1.7,4.8,1.6c-0.3,0.8-1.8,1.7-3.2,1.6
			c0,1,3.2,1.8,4,2c0.1,0.8-2.2,1.3-3.8,0.8c-0.1,1,1.6,1.8,2.4,2.2c0,0.8-5.2,0.5-6-1c-1,0.4-1.6,2.4-3.5,2.2
			c0.3-0.5,0.8-2.2-0.1-2.7c-0.8,1.1-3.9,1.8-5.2,1.2c0.3-0.4,2.2-0.6,1.6-1.8c-1.7-0.1-3.9-1.5-3.8-2.2c0.4,0.3,3.1,0.7,3.2,0
			c-1.2-0.1-2-1.1-2-1.8c0.4,0.2,3.1,0.7,3.2-0.2c-1-0.4-2.1-1-2-1.8c0.8,0.1,2.5,0.1,2.6-0.8c-1-0.4-2-1.9-2-2.4
			c0.8,0.2,3.7,0.1,3.6-0.6c-1.3-0.1-2.3-0.6-2.2-1.4c1.6-0.1,3.4-1.9,3.4-2.6C63.2,105.6,61.9,105.4,61.4,104.4z"/>
		<path opacity="0.3" d="M67.1,105c-1.1-0.9-1.1-0.9-1.1-0.9s0.9,1.1,1.4,1.8c0,0,0,0,0,0c1.1,0.6,2.5,0.1,2.4-0.4
			C69.9,105.5,68.2,105.9,67.1,105z"/>
		<path opacity="0.3" d="M68.5,120.2c-1.3-1.4-1.7-3.5-1.7-3.5s-0.8,2.8-1.4,4.1c-0.4,0.8-0.8,1.5-1.8,1.8c0,0,0,0,0,0.1
			c1.9,0.1,2.5-1.9,3.5-2.2c0.9,1.5,6,1.8,6,1C73.1,121.3,69.9,121.6,68.5,120.2z"/>
		<path opacity="0.3" d="M70.9,115.3c-1.3-0.1-3.2-2.6-3.2-2.6s-0.9,0.4-1.5,0.1c-0.6-0.4-1-0.8-1-0.8s0.5,2.3,1.2,2.2
			c0.7-0.1,1.1-0.3,1.4-0.7c0.3,1.8,2.7,2.8,2.7,2.8c1.4,0.1,2.9-0.8,3.2-1.6C73.7,114.7,72.2,115.4,70.9,115.3z"/>
		<path opacity="0.3" d="M62.6,109.5C62.6,109.5,62.6,109.5,62.6,109.5c0.4,0,0.8,0,1.2-0.1c1-0.1,2.8-1.1,2.8-1.1l-1.3,0.1l0.5-1.2
			c0,0-1.5,1.3-2.9,1.4c-1.4,0.2-2.4-0.7-2.4-0.7C60.3,108.9,61.4,109.4,62.6,109.5z"/>
		<g>
			<path opacity="0.3" d="M60.4,115.1c1.2,0,2.8-1,2.8-1s-4.6,0.3-4.8-0.9C58.3,114.1,59.5,114.8,60.4,115.1z"/>
			<path opacity="0.3" d="M62.3,116.1c0,0-1.4,0.4-2.4,0.4c-0.9,0-2.6-0.9-2.7-1.1c0.1,0.7,0.8,1.7,2,1.8
				C61.6,117.3,62.3,116.1,62.3,116.1z"/>
		</g>
		<path opacity="0.3" d="M64.2,120.3c0-0.8-0.2-5.5-0.2-5.5s-0.1,2.8-2.7,5.3c-0.9,0.8-3.1,1.1-3.1,1.1c1.3,0.6,4.5-0.2,5.2-1.2
			c0.7,0.3,0.5,1.4,0.3,2.1C63.9,121.6,64.2,120.9,64.2,120.3z"/>
		<path fill="#FFFFFF" d="M60.4,108.1c0,0.3,1,1.2,2.6,0.7c3.4-1,1.7-3.9,1.2-3.8s-0.7,1.8-1.8,2.1
			C61.3,107.5,60.4,107.8,60.4,108.1z"/>
		<path fill="#FFFFFF" d="M71.4,109.1c0,0-0.7,0.7-2.1,0.5c-1.9-0.3-1.8-3.6-1.8-3.6s1.3,1.7,2.3,2.1
			C70.5,108.5,71.4,108.7,71.4,109.1z"/>
		<path fill="#FFFFFF" d="M72.5,113.1c0,0.3-2.2,0.6-3.2-0.1c-2.2-1.4-1.5-4.9-1.5-4.9s1.2,3.2,2.5,3.7
			C71.2,112.1,72.5,112.7,72.5,113.1z"/>
		<path fill="#FFFFFF" d="M65.2,112c0.1,0.8,0.8,1.7,1.5,1.8c2,0,0.9-1.6,0.7-2.6c-0.2-1,0.2-4,0.2-4S64.9,110.4,65.2,112z"/>
		<path fill="#FFFFFF" d="M60.2,116.7c2.5-0.3,3.9-1.7,3.5-2.2c-0.3-0.5-2.4,0.9-4.5,0.6c-1.4-0.2-1.8-0.1-2.1,0.2
			C57.1,116.2,59.2,116.9,60.2,116.7z"/>
		<path fill="#FFFFFF" d="M65.6,110.8c0,0-7.1,1.9-7.1,2.5c0,0.5,1.2,1,2.2,1.1c1.6,0,2.7-0.1,3.4-1
			C64.7,112.5,65.6,110.8,65.6,110.8z"/>
		<path fill="#FFFFFF" d="M73.7,114.7c0.1,0.4-2.2,1.4-3.5,0.8c-1.9-0.9-2.9-3.8-2.9-3.8s3.4,2.5,4.5,2.7
			C72.8,114.6,73.7,114.4,73.7,114.7z"/>
		<path fill="#FFFFFF" d="M65.2,108.4c0.6,0.6,2,0.3,2-1.2s-2.1-3.6-2.1-3.6s0.8,2.5,0.6,3.2C65.5,107.5,64.9,108.1,65.2,108.4z"/>
		<path fill="#FFFFFF" d="M69.9,105.5c0.2-0.2-2.2-2.2-2.9-3.6c-0.7-1.3-1.3-3.3-1.3-3.3s-0.7,2.8-2.4,4.2c-1.2,1-1.8,1.2-1.8,1.6
			c0,0.4,1,0.8,2.1,0.3c1.1-0.5,1.9-0.9,1.9-0.9s1.5,1.4,2.4,1.7C68.9,105.8,69.7,105.8,69.9,105.5z"/>
		<path fill="#FFFFFF" d="M63.6,122.6c0.3,0.3,1.5-0.2,2.2-1.9c0.7-1.7,1.5-3,1.1-4c-1-2.6-1.8-5.2-1.8-5.2S63.9,113,64,115
			c0.1,2.1,0.3,4,0.1,4.8C63.9,120.6,63.3,122.3,63.6,122.6z"/>
		<path fill="#FFFFFF" d="M73.2,121.4c0.2-0.2-1.9-1.1-2.3-1.8c-0.3-0.7-1.1-2.3-1.5-2.7c-0.4-0.4-1.7-2.6-2.1-2.5
			c-0.4,0.2-0.5,2.9-0.2,4.3c0.3,1.3,2.3,2.9,3.5,3.1C71.9,122,73,121.7,73.2,121.4z"/>
		<path fill="#FFFFFF" d="M74.6,118.3c0.1,0.3-0.8,1.3-2,1.1c-1.2-0.2-2.2-1.5-2.6-2.5c-0.4-0.9,0.3-0.9,0.6-0.6s1.7,1.2,2.6,1.5
			C74,118.1,74.4,117.8,74.6,118.3z"/>
		<path fill="#FFFFFF" d="M56,117.1c-0.1,0.3,1.6,1.5,2.7,1.8s3.2-1.4,3.4-1.8c0.2-0.4-2.2,0.3-3.1,0.3
			C58.1,117.4,56.2,116.7,56,117.1z"/>
		<path fill="#FFFFFF" d="M58.2,121.1c0.1,0.2,3-0.4,3.9-1.5s1.7-3.6,1.6-4s-2.3,2.8-3.3,3.2S58.1,120.8,58.2,121.1z"/>
		<path fill="#FFFFFF" d="M65.8,108.6c-1.1,0.6-3.2,0.8-3.2,0.8c-0.6,0.4-3.9-0.2-3.6,0.6c0.3,0.3,1.3,1.4,2.4,1.4
			C64.5,111.4,65.8,108.9,65.8,108.6z"/>
	</g>
</g>
</svg>
