<?xml version="1.0" encoding="utf-8"?>
<!-- Generator: Adobe Illustrator 18.1.0, SVG Export Plug-In . SVG Version: 6.00 Build 0)  -->
<svg version="1.1" id="Layer_1" xmlns="http://www.w3.org/2000/svg" xmlns:xlink="http://www.w3.org/1999/xlink" x="0px" y="0px"
	 width="256px" height="192px" viewBox="0 0 256 192" enable-background="new 0 0 256 192" xml:space="preserve">
<g>
	<g>
		<polygon fill="#99CC33" points="128,64 256,128 128,192 0,128 		"/>
		<polygon fill="#99CC33" points="128,64 256,128 128,192 0,128 		"/>
	</g>
	<g>
		<polygon fill="#99CC33" points="128,64 256,128 128,192 0,128 		"/>
		<polygon fill="#99CC33" points="128,64 256,128 128,192 0,128 		"/>
	</g>
	<g>
		<ellipse opacity="0.3" cx="125.5" cy="76" rx="7.5" ry="4"/>
		<path fill="#825012" d="M129,53v8c0,2.1-0.3,3.1-2,3.3V49h-3v14.4c-0.6-0.3-1-0.8-1-1.7V52h-1v10c0,1.3,0.8,2.4,2,2.8V76
			c0,0.6,0.7,1,1.5,1s1.5-0.4,1.5-1V66c1.7,0,3-1.3,3-3V53H129z"/>
		<path fill="#539B00" d="M141,48c0-2.1-1.1-4-2.7-5c1.1-1.4,1.7-3.1,1.7-5c0-3.4-2.1-6.3-5.2-7.5c0.1-0.5,0.2-1,0.2-1.5
			c0-4.4-3.6-8-8-8c-4,0-7.4,3-7.9,6.9c-3,1.5-5.1,4.5-5.1,8.1c0,1.2,0.2,2.3,0.6,3.3c-1.6,1.2-2.6,3.1-2.6,5.2c0,2,0.9,3.8,2.3,5
			c-0.2,0.7-0.3,1.5-0.3,2.3c0,5.1,4.1,9.3,9.3,9.3c2.2,0,4.3-0.8,5.9-2.1c0.4,0.1,0.9,0.1,1.3,0.1c3.5,0,6.5-2.4,7.3-5.7
			C139.7,52.3,141,50.3,141,48z"/>
		<path fill="#825012" d="M124,42.8c-1.7,0-3-0.4-3-2.1V38h-1v3c0,1.7,1.3,3,3,3h1V42.8z"/>
		<path fill="#825012" d="M130,50.8c1.7,0,3-0.4,3-2.1V46h1v3c0,1.7-1.3,3-3,3h-1V50.8z"/>
		<rect x="123" y="35.4" fill="#825012" width="1" height="9.6"/>
		<path opacity="0.2" fill="#FFFFFF" d="M127.5,37c2.2,0,4.1,1.3,4.9,3.1c0.3-0.1,0.7-0.1,1.1-0.1c1.8,0,3.4,0.9,4.4,2.2
			c-0.4-1.8-2-3.2-3.9-3.2c0,0-0.1,0-0.1,0c-0.5-2.3-2.5-4-4.9-4c-2,0-3.7,1.2-4.5,2.9C125.3,37.3,126.4,37,127.5,37z"/>
		<path opacity="0.2" fill="#FFFFFF" d="M118,36.5c0-2.5,1.7-4.6,4-5.3c0.2-2.9,2.5-5.2,5.5-5.2c1.7,0,3.3,0.8,4.3,2.1
			c-0.6-2.4-2.8-4.1-5.3-4.1c-2.9,0-5.3,2.2-5.5,5.1c-2.3,0.5-4,2.5-4,4.9c0,1.1,0.4,2.2,1,3C118,36.8,118,36.7,118,36.5z"/>
		<path opacity="0.3" d="M141,48c0-0.4,0-0.8-0.1-1.2c-0.6,3.8-3.9,6.7-7.9,6.7c-0.1,0-0.3,0-0.4,0c0.7,0.3,1.6,0.5,2.4,0.5
			c0.7,0,1.3-0.1,1.9-0.3c-1.4,1.4-3.3,2.3-5.4,2.3c-1,0-2-0.2-2.9-0.6c-1.7,1.6-3.9,2.6-6.4,2.6c-3.5,0-6.6-2-8.1-4.8
			c0.7,4.4,4.5,7.8,9.1,7.8c2.2,0,4.3-0.8,5.9-2.1c0.4,0.1,0.9,0.1,1.3,0.1c3.5,0,6.5-2.4,7.3-5.7C139.7,52.3,141,50.3,141,48z"/>
		<path opacity="0.3" d="M116,47.5c-1.9-0.8-3.4-2.4-3.9-4.5c-0.1,0.5-0.2,1-0.2,1.5c0,2.4,1.3,4.4,3.2,5.6
			C115.3,49.2,115.6,48.3,116,47.5z"/>
	</g>
	<g>
		<path fill="#28896D" d="M166,93.6c-2.1-0.6-9.8-2.6-9.8-4.9c3.3,0.2,7.1-1.9,7.8-3.9c-2.5,0.2-6.4-0.6-9.1-1.7
			c-0.4-0.5-0.7-1-0.8-1.5c2.3,0.6,5,0.4,6.9-0.7c-1.1-0.3-2.1-0.6-2.9-1c1.2-1,2-2.3,2.5-3.1c-2.4,0.7-6.9-0.1-6.9-2.2
			c2.6,0.2,5.5-1.8,6.1-3.7c-0.9,0.1-2.1-0.1-3.3-0.3c-1.7-0.8-3.7-2-5.2-3.3c1.8,0.3,4.5,1.1,6.2-0.1c-2.4-0.8-4-1.9-5.2-3.3
			c1.4-0.2,2.5-0.9,2.4-1.6c-1.1-0.4-2.1-1.1-3-1.8c2,0,3.6-1.5,3.5-2.6c-2.8-0.9-7.5-4.8-7.3-7.4c2.2,1.3,4.7,0.2,4.6-0.9
			c-6.9-3.3-8-15.7-8-15.7s-2.6,13.7-8.1,14.4c0.8,2.2,3.4,2.3,4.6,1.2c0,1.7-3.4,5.7-6.5,6c-0.1,1.4,1,2.4,2.7,2.9
			c-0.9,0.7-2,1.1-3.1,1.3c0.1,0.2,0.2,0.4,0.3,0.6c-1.1,0.1-2.1,0-2.6-0.2c0.1,1.3,1.9,4.7,3.8,5.5c-0.2,2-3.4,2.1-5,1.8
			c-0.1,1.3,0.8,2.3,2.1,3.2c0,0,0,0,0,0c0.6,0.4,1.2,0.7,1.7,1c-0.2,2-5.3,1-6.1,0.5c0,0.6,0.2,1.2,0.5,1.8c0.4,1,0.9,2.2,1.7,3.2
			c-1.6,0.1-4-0.4-4.5-0.9c-0.1,1.3,2.7,3.7,5.4,4.7c-1.4,0.5-3.5,0.5-4.7,0.3c-0.2,2,2.6,3.5,4.9,4.4c-0.2,2.1-6.8,1.1-7.8,0.5
			c0.1,1.8,2,4.2,4.9,4.4c-0.2,1.7-6.9,0.7-7.8,0c-0.1,1.7,5.3,5.3,9.3,5.4c1.3,2.9-3.1,3.5-3.9,4.4c3.2,1.5,10.9-0.4,12.7-2.9
			c2.2,1,0.9,5.2,0.3,6.4c4.6,0.3,6.2-4.6,8.5-5.5c2.1,3.7,14.7,4.3,14.7,2.4c-2-1-6-3.1-5.9-5.4C160.6,96.8,166.2,95.6,166,93.6z"
			/>
		<path opacity="0.2" fill="#FFFFFF" d="M161.1,80.9c0,0-5,0.2-9.3-3.9c-4.3-4.2-5.4-6.9-5.4-6.9s-1,1.3-4.4,3.4
			c-3.4,2.1-10.8,2-10.8,2s4.7,3.5,11.3,1.5c3.2-1,2.9-1.7,2.9-1.7s4.6,3.9,6.4,4.6C158.4,82.3,161.1,80.9,161.1,80.9z"/>
		<path opacity="0.2" fill="#FFFFFF" d="M132.7,60.7c5.5-0.1,8.8-2,11-3.9c0.4,1.4,2.5,6.6,10.6,9.6c-3.4-0.4-11.4-3.8-11.2-5.9
			C142.7,62.2,136.2,64.7,132.7,60.7z"/>
		<path opacity="0.2" fill="#FFFFFF" d="M139.3,47.6c5.1-3.2,4.3-4.9,5.2-8.9c-0.4,2.3,1.7,7.5,6.3,11c-4.4-0.9-5.7-3.7-6.6-5.8
			C143.8,45.5,142.2,46.7,139.3,47.6z"/>
		<path opacity="0.2" fill="#FFFFFF" d="M137,56.2c5.9-3.2,7.6-3.4,8.8-8.4c-0.4,2.3,2,5.9,6.6,9.3c-3.4-0.4-4.9-3.6-6.3-4.7
			C145.7,54.1,141,55.8,137,56.2z"/>
		<path opacity="0.2" fill="#FFFFFF" d="M127.7,82.2c0,0,7.3-0.1,12.9-2.8c1.7-0.1,4.2,5.1,5.4,5.4c1.3-0.4,2.1-0.7,3.5-1.6
			c1.2,5,10.1,9.4,15.1,10.9c-9.2,0-15.7-6-16.6-7.8c-1.1,0.9-1.3,3.4-3.4,3.4c-1.7-2.4-4.3-6-4.9-7.8
			C137.7,81.5,130.5,83.9,127.7,82.2z"/>
		<path opacity="0.2" fill="#FFFFFF" d="M123.3,92.2c10.3,1.1,14-3.6,15.8-5.5C138,93.9,126.3,95.8,123.3,92.2z"/>
		<path opacity="0.2" fill="#FFFFFF" d="M150.4,90.9c2.9,4.8,4,7.5,10.7,9.7C150.3,101.3,149.2,93.2,150.4,90.9z"/>
		<path opacity="0.2" fill="#FFFFFF" d="M140.7,102.6c0.6,0.3,6.9-9.7,2.3-11.5C140.4,92.5,142.7,97.7,140.7,102.6z"/>
		<path opacity="0.3" d="M148,61.2c-2.6-2.1-2.6-2.1-2.6-2.1s2.1,2.6,3.5,4.3c0,0,0,0,0,0c2.8,1.4,6,0.2,5.9-1
			C154.7,62.3,150.7,63.3,148,61.2z"/>
		<path opacity="0.3" d="M151.5,98.1c-3.3-3.4-4-8.5-4-8.5s-2,6.8-3.5,9.9c-1,2-1.9,3.6-4.5,4.3c0,0.1,0,0.1-0.1,0.2
			c4.6,0.3,6.2-4.6,8.5-5.5c2.1,3.7,14.7,4.3,14.7,2.4C162.6,101,154.7,101.5,151.5,98.1z"/>
		<path opacity="0.3" d="M157.2,86.3c-3.3-0.2-7.8-6.3-7.8-6.3s-2.3,1.1-3.6,0.2c-1.3-0.9-2.5-2-2.5-2s1.2,5.7,2.9,5.4
			c1.8-0.3,2.8-0.8,3.5-1.6c0.8,4.4,6.5,6.8,6.5,6.7c3.3,0.2,7.1-1.9,7.8-3.9C164,84.8,160.4,86.5,157.2,86.3z"/>
		<path opacity="0.3" d="M136.9,72.1c0,0,0-0.6,0-0.6c1,0,1.9,0.5,2.8,0.4c2.5-0.3,6.7-3.3,6.7-3.3l-3.3,0.3l1.3-2.8
			c0,0-3.8,3.1-7.1,3.5c-3.4,0.4-6.4-1.8-6.4-1.8C130.7,69.8,133.8,71.8,136.9,72.1z"/>
		<g>
			<path opacity="0.3" d="M131.7,85.8c-0.2,2.1-6.8,1.1-7.8,0.5c4.8,3.1,13.9-0.5,13.9-0.5l-4.4,0.1l5-2.4c0,0-11.1,0.7-11.6-2.1
				C126.6,83.3,129.4,84.9,131.7,85.8z"/>
			<path opacity="0.3" d="M136.4,88.1c0,0-3.5,1-5.9,1c-2.2,0-6.4-2.2-6.6-2.8c0.2,1.8,2,4.1,4.9,4.3
				C134.4,91.2,136.4,88.1,136.4,88.1z"/>
		</g>
		<path opacity="0.3" d="M140.8,98.5c0-2-0.5-13.5-0.5-13.5s-0.3,6.9-6.5,12.8c-2.1,2-7.5,2.6-7.5,2.6c3.2,1.5,10.9-0.4,12.7-2.9
			c1.7,0.8,1.3,3.4,0.8,5.2C140.3,101.5,140.8,99.8,140.8,98.5z"/>
		<path opacity="0.3" d="M159.8,70.8c0,0-3.3,1.8-6.6,1c-3.3-0.8-5.7-3-5.7-3s1.3,3.7,2.8,6c1.6,2.4,7.5,4.5,10.3,2
			c-2.4,0.7-6.9-0.1-6.9-2.2C156.3,74.7,159.3,72.7,159.8,70.8z"/>
		<path opacity="0.3" d="M151.5,58.1c-2.8-0.4-5.6-3.9-5.6-3.9s-2.8,1.5-0.1,3.3c2.7,1.7,0.3,2.2,5.8,3.1c2,0,3.6-1.5,3.5-2.6
			C155.2,57.9,154.3,58.4,151.5,58.1z"/>
		<path opacity="0.3" d="M134.6,55.6c0,0,2,0.5,6.6-2.4s3-8,3-8s-1.7,2.3-3.5,2.6c-1.5,0.2-3.1,0.7-4,0.6c-0.2,0-0.3,0-0.3,0
			c0.8,2.2,3.4,2.3,4.6,1.2C141.1,51.4,137.7,55.3,134.6,55.6z"/>
	</g>
	<g>
		<path fill="#539B00" d="M181,73.5c0-1.8-0.7-3.4-1.9-4.6c0.6-1.2,0.9-2.5,0.9-3.9c0-3.5-2.1-6.6-5-8.1c0-0.1,0-0.3,0-0.4
			c0-2.5-2-4.5-4.5-4.5c-0.7,0-1.3,0.2-1.9,0.4c-1.3-0.9-2.9-1.4-4.6-1.4c-3.2,0-6,1.9-7.3,4.7c-2.8,1.3-4.7,4-4.7,7.3
			c0,1.1,0.2,2.1,0.6,3.1c-1.6,1.1-2.6,2.9-2.6,4.9c0,1.8,0.8,3.4,2,4.5c0.3,4.7,4.2,8.5,9,8.5c0.3,0,0.6,0,0.9,0
			c1.7,1.9,4.1,3,6.8,3c4.7,0,8.5-3.5,9.2-8C179.8,77.9,181,75.8,181,73.5z"/>
		<path opacity="0.2" fill="#FFFFFF" d="M156.1,65c2.2,0,4.1,1.3,4.9,3.1c0.3-0.1,0.7-0.1,1.1-0.1c1.8,0,3.4,0.9,4.4,2.2
			c-0.4-1.8-2-3.2-3.9-3.2c0,0-0.1,0-0.1,0c-0.5-2.3-2.5-4-4.9-4c-2,0-3.7,1.2-4.5,2.9C153.9,65.3,155,65,156.1,65z"/>
		<path opacity="0.2" fill="#FFFFFF" d="M164.5,55c2.4,0,4.3,1.9,4.5,4.2c0.5-0.1,1-0.2,1.5-0.2c2.5,0,4.6,1.6,5.3,3.9
			c0.1-0.4,0.2-0.9,0.2-1.4c0-2.5-2-4.5-4.5-4.5c-0.5,0-1,0.1-1.5,0.3c-0.1-1.8-1.6-3.3-3.5-3.3c-1,0-1.9,0.4-2.5,1
			C164.2,55,164.3,55,164.5,55z"/>
		<g>
			<path opacity="0.3" d="M177.5,76.7c0.3,0.7,0.4,1.5,0.5,2.3c1.7-1.1,2.9-2.9,3-5C180.2,75.3,178.9,76.2,177.5,76.7z"/>
		</g>
		<path opacity="0.3" d="M169.8,85c-3.8,0-7-2-8.8-5c-0.3,0-0.6,0-0.9,0c-3.5,0-6.5-2-8-4.9c0.1,4.9,4.1,8.9,9,8.9
			c0.3,0,0.6,0,0.9,0c1.7,1.9,4.1,3,6.8,3c3.6,0,6.6-2,8.2-4.9C175.1,83.9,172.5,85,169.8,85z"/>
	</g>
	<g>
		<path fill="#539B00" d="M115,62.5c0-1.8-0.7-3.4-1.9-4.6c0.6-1.2,0.9-2.5,0.9-3.9c0-3.5-2.1-6.6-5-8.1c0-0.1,0-0.3,0-0.4
			c0-2.5-2-4.5-4.5-4.5c-0.7,0-1.3,0.2-1.9,0.4c-1.3-0.9-2.9-1.4-4.6-1.4c-3.2,0-6,1.9-7.3,4.7C87.9,46,86,48.8,86,52
			c0,1.1,0.2,2.1,0.6,3.1C85,56.1,84,57.9,84,60c0,1.8,0.8,3.4,2,4.5c0.3,4.7,4.2,8.5,9,8.5c0.3,0,0.6,0,0.9,0c1.7,1.9,4.1,3,6.8,3
			c4.7,0,8.5-3.5,9.2-8C113.8,66.9,115,64.8,115,62.5z"/>
		<path opacity="0.2" fill="#FFFFFF" d="M90.1,54c2.2,0,4.1,1.3,4.9,3.1c0.3-0.1,0.7-0.1,1.1-0.1c1.8,0,3.4,0.9,4.4,2.2
			c-0.4-1.8-2-3.2-3.9-3.2c0,0-0.1,0-0.1,0c-0.5-2.3-2.5-4-4.9-4c-2,0-3.7,1.2-4.5,2.9C87.9,54.3,89,54,90.1,54z"/>
		<path opacity="0.2" fill="#FFFFFF" d="M98.5,44c2.4,0,4.3,1.9,4.5,4.2c0.5-0.1,1-0.2,1.5-0.2c2.5,0,4.6,1.6,5.3,3.9
			c0.1-0.4,0.2-0.9,0.2-1.4c0-2.5-2-4.5-4.5-4.5c-0.5,0-1,0.1-1.5,0.3c-0.1-1.8-1.6-3.3-3.5-3.3c-1,0-1.9,0.4-2.5,1
			C98.2,44,98.3,44,98.5,44z"/>
		<g>
			<path opacity="0.3" d="M111.5,65.7c0.3,0.7,0.4,1.5,0.5,2.3c1.7-1.1,2.9-2.9,3-5C114.2,64.3,112.9,65.2,111.5,65.7z"/>
		</g>
		<path opacity="0.3" d="M103.8,74c-3.8,0-7-2-8.8-5c-0.3,0-0.6,0-0.9,0c-3.5,0-6.5-2-8-4.9c0.1,4.9,4.1,8.9,9,8.9
			c0.3,0,0.6,0,0.9,0c1.7,1.9,4.1,3,6.8,3c3.6,0,6.6-2,8.2-4.9C109.1,72.9,106.5,74,103.8,74z"/>
	</g>
	<g>
		<ellipse opacity="0.3" cx="93.5" cy="112" rx="7.5" ry="4"/>
		<path fill="#825012" d="M97,89v8c0,2.1-0.3,3.1-2,3.3V85h-3v14.4c-0.6-0.3-1-0.8-1-1.7V88h-1v10c0,1.3,0.8,2.4,2,2.8V112
			c0,0.6,0.7,1,1.5,1s1.5-0.4,1.5-1v-10c1.7,0,3-1.3,3-3V89H97z"/>
		<path fill="#539B00" d="M109,84c0-2.1-1.1-4-2.7-5c1.1-1.4,1.7-3.1,1.7-5c0-3.4-2.1-6.3-5.2-7.5c0.1-0.5,0.2-1,0.2-1.5
			c0-4.4-3.6-8-8-8c-4,0-7.4,3-7.9,6.9c-3,1.5-5.1,4.5-5.1,8.1c0,1.2,0.2,2.3,0.6,3.3C81,76.5,80,78.4,80,80.5c0,2,0.9,3.8,2.3,5
			C82.1,86.2,82,87,82,87.8c0,5.1,4.1,9.3,9.3,9.3c2.2,0,4.3-0.8,5.9-2.1C97.6,95,98,95,98.5,95c3.5,0,6.5-2.4,7.3-5.7
			C107.7,88.3,109,86.3,109,84z"/>
		<path fill="#825012" d="M98,86.8c1.7,0,3-0.4,3-2.1V82h1v3c0,1.7-1.3,3-3,3h-1V86.8z"/>
		<rect x="91" y="71.4" fill="#825012" width="1" height="9.6"/>
		<path opacity="0.2" fill="#FFFFFF" d="M95.5,73c2.2,0,4.1,1.3,4.9,3.1c0.3-0.1,0.7-0.1,1.1-0.1c1.8,0,3.4,0.9,4.4,2.2
			c-0.4-1.8-2-3.2-3.9-3.2c0,0-0.1,0-0.1,0c-0.5-2.3-2.5-4-4.9-4c-2,0-3.7,1.2-4.5,2.9C93.3,73.3,94.4,73,95.5,73z"/>
		<path opacity="0.2" fill="#FFFFFF" d="M86,72.5c0-2.5,1.7-4.6,4-5.3c0.2-2.9,2.5-5.2,5.5-5.2c1.7,0,3.3,0.8,4.3,2.1
			C99.2,61.7,97,60,94.5,60c-2.9,0-5.3,2.2-5.5,5.1c-2.3,0.5-4,2.5-4,4.9c0,1.1,0.4,2.2,1,3C86,72.8,86,72.7,86,72.5z"/>
		<path opacity="0.3" d="M109,84c0-0.4,0-0.8-0.1-1.2c-0.6,3.8-3.9,6.7-7.9,6.7c-0.1,0-0.3,0-0.4,0c0.7,0.3,1.6,0.5,2.4,0.5
			c0.7,0,1.3-0.1,1.9-0.3c-1.4,1.4-3.3,2.3-5.4,2.3c-1,0-2-0.2-2.9-0.6C95,93,92.7,94,90.3,94c-3.5,0-6.6-2-8.1-4.8
			c0.7,4.4,4.5,7.8,9.1,7.8c2.2,0,4.3-0.8,5.9-2.1C97.6,95,98,95,98.5,95c3.5,0,6.5-2.4,7.3-5.7C107.7,88.3,109,86.3,109,84z"/>
		<path opacity="0.3" d="M84,83.5c-1.9-0.8-3.4-2.4-3.9-4.5c-0.1,0.5-0.2,1-0.2,1.5c0,2.4,1.3,4.4,3.2,5.6
			C83.3,85.2,83.6,84.3,84,83.5z"/>
	</g>
	<g>
		<ellipse opacity="0.3" cx="117.5" cy="125" rx="7.5" ry="4"/>
		<path fill="#825012" d="M121,102v8c0,2.1-0.3,3.1-2,3.3V98h-3v14.4c-0.6-0.3-1-0.8-1-1.7V101h-1v10c0,1.3,0.8,2.4,2,2.8V125
			c0,0.6,0.7,1,1.5,1s1.5-0.4,1.5-1v-10c1.7,0,3-1.3,3-3v-10H121z"/>
		<path fill="#539B00" d="M133,97c0-2.1-1.1-4-2.7-5c1.1-1.4,1.7-3.1,1.7-5c0-3.4-2.1-6.3-5.2-7.5c0.1-0.5,0.2-1,0.2-1.5
			c0-4.4-3.6-8-8-8c-4,0-7.4,3-7.9,6.9c-3,1.5-5.1,4.5-5.1,8.1c0,1.2,0.2,2.3,0.6,3.3c-1.6,1.2-2.6,3.1-2.6,5.2c0,2,0.9,3.8,2.3,5
			c-0.2,0.7-0.3,1.5-0.3,2.3c0,5.1,4.1,9.3,9.3,9.3c2.2,0,4.3-0.8,5.9-2.1c0.4,0.1,0.9,0.1,1.3,0.1c3.5,0,6.5-2.4,7.3-5.7
			C131.7,101.3,133,99.3,133,97z"/>
		<path fill="#825012" d="M116,91.8c-1.7,0-3-0.4-3-2.1V87h-1v3c0,1.7,1.3,3,3,3h1V91.8z"/>
		<path fill="#825012" d="M122,99.8c1.7,0,3-0.4,3-2.1V95h1v3c0,1.7-1.3,3-3,3h-1V99.8z"/>
		<path opacity="0.2" fill="#FFFFFF" d="M119.5,86c2.2,0,4.1,1.3,4.9,3.1c0.3-0.1,0.7-0.1,1.1-0.1c1.8,0,3.4,0.9,4.4,2.2
			c-0.4-1.8-2-3.2-3.9-3.2c0,0-0.1,0-0.1,0c-0.5-2.3-2.5-4-4.9-4c-2,0-3.7,1.2-4.5,2.9C117.3,86.3,118.4,86,119.5,86z"/>
		<path opacity="0.2" fill="#FFFFFF" d="M110,85.5c0-2.5,1.7-4.6,4-5.3c0.2-2.9,2.5-5.2,5.5-5.2c1.7,0,3.3,0.8,4.3,2.1
			c-0.6-2.4-2.8-4.1-5.3-4.1c-2.9,0-5.3,2.2-5.5,5.1c-2.3,0.5-4,2.5-4,4.9c0,1.1,0.4,2.2,1,3C110,85.8,110,85.7,110,85.5z"/>
		<path opacity="0.3" d="M133,97c0-0.4,0-0.8-0.1-1.2c-0.6,3.8-3.9,6.7-7.9,6.7c-0.1,0-0.3,0-0.4,0c0.7,0.3,1.6,0.5,2.4,0.5
			c0.7,0,1.3-0.1,1.9-0.3c-1.4,1.4-3.3,2.3-5.4,2.3c-1,0-2-0.2-2.9-0.6c-1.7,1.6-3.9,2.6-6.4,2.6c-3.5,0-6.6-2-8.1-4.8
			c0.7,4.4,4.5,7.8,9.1,7.8c2.2,0,4.3-0.8,5.9-2.1c0.4,0.1,0.9,0.1,1.3,0.1c3.5,0,6.5-2.4,7.3-5.7C131.7,101.3,133,99.3,133,97z"/>
		<path opacity="0.3" d="M108,96.5c-1.9-0.8-3.4-2.4-3.9-4.5c-0.1,0.5-0.2,1-0.2,1.5c0,2.4,1.3,4.4,3.2,5.6
			C107.3,98.2,107.6,97.3,108,96.5z"/>
	</g>
	<g>
		<ellipse opacity="0.3" cx="68.5" cy="106" rx="7.5" ry="4"/>
		<path fill="#825012" d="M65,83v8c0,2.1,0.3,3.1,2,3.3V79h3v14.4c0.6-0.3,1-0.8,1-1.7V82h1v10c0,1.3-0.8,2.4-2,2.8V106
			c0,0.6-0.7,1-1.5,1s-1.5-0.4-1.5-1V96c-1.7,0-3-1.3-3-3V83H65z"/>
		<path fill="#539B00" d="M53,78c0-2.1,1.1-4,2.7-5c-1.1-1.4-1.7-3.1-1.7-5c0-3.4,2.1-6.3,5.2-7.5C59.1,60,59,59.5,59,59
			c0-4.4,3.6-8,8-8c4,0,7.4,3,7.9,6.9c3,1.5,5.1,4.5,5.1,8.1c0,1.2-0.2,2.3-0.6,3.3c1.6,1.2,2.6,3.1,2.6,5.2c0,2-0.9,3.8-2.3,5
			c0.2,0.7,0.3,1.5,0.3,2.3c0,5.1-4.1,9.3-9.3,9.3c-2.2,0-4.3-0.8-5.9-2.1C64.4,89,64,89,63.5,89c-3.5,0-6.5-2.4-7.3-5.7
			C54.3,82.3,53,80.3,53,78z"/>
		<path fill="#825012" d="M64,80.8c-1.7,0-3-0.4-3-2.1V76h-1v3c0,1.7,1.3,3,3,3h1L64,80.8z"/>
		<rect x="70" y="65.4" fill="#825012" width="1" height="9.6"/>
		<path opacity="0.2" fill="#FFFFFF" d="M66.5,67c-2.2,0-4.1,1.3-4.9,3.1C61.2,70,60.9,70,60.5,70c-1.8,0-3.4,0.9-4.4,2.2
			c0.4-1.8,2-3.2,3.9-3.2c0,0,0.1,0,0.1,0c0.5-2.3,2.5-4,4.9-4c2,0,3.7,1.2,4.5,2.9C68.7,67.3,67.6,67,66.5,67z"/>
		<path opacity="0.2" fill="#FFFFFF" d="M76,66.5c0-2.5-1.7-4.6-4-5.3c-0.2-2.9-2.5-5.2-5.5-5.2c-1.7,0-3.3,0.8-4.3,2.1
			c0.6-2.4,2.8-4.1,5.3-4.1c2.9,0,5.3,2.2,5.5,5.1c2.3,0.5,4,2.5,4,4.9c0,1.1-0.4,2.2-1,3C76,66.8,76,66.7,76,66.5z"/>
		<path opacity="0.3" d="M53,78c0-0.4,0-0.8,0.1-1.2c0.6,3.8,3.9,6.7,7.9,6.7c0.1,0,0.3,0,0.4,0C60.7,83.8,59.9,84,59,84
			c-0.7,0-1.3-0.1-1.9-0.3c1.4,1.4,3.3,2.3,5.4,2.3c1,0,2-0.2,2.9-0.6C67,87,69.3,88,71.8,88c3.5,0,6.6-2,8.1-4.8
			c-0.7,4.4-4.5,7.8-9.1,7.8c-2.2,0-4.3-0.8-5.9-2.1C64.4,89,64,89,63.5,89c-3.5,0-6.5-2.4-7.3-5.7C54.3,82.3,53,80.3,53,78z"/>
		<path opacity="0.3" d="M78,77.5c1.9-0.8,3.4-2.4,3.9-4.5c0.1,0.5,0.2,1,0.2,1.5c0,2.4-1.3,4.4-3.2,5.6
			C78.7,79.2,78.4,78.3,78,77.5z"/>
	</g>
	<g>
		<path fill="#28896D" d="M26.2,119.3c2.1-0.6,9.8-2.6,9.8-4.9c-3.3,0.2-7.1-1.9-7.8-3.9c2.5,0.2,6.4-0.6,9.1-1.7
			c0.4-0.5,0.7-1,0.8-1.5c-2.3,0.6-5,0.4-6.9-0.7c1.1-0.3,2.1-0.6,2.9-1c-1.2-1-2-2.3-2.5-3.1c2.4,0.7,6.9-0.1,6.9-2.2
			c-2.6,0.2-5.5-1.8-6.1-3.7c0.9,0.1,2.1-0.1,3.3-0.3c1.7-0.8,3.7-2,5.2-3.3c-1.8,0.3-4.5,1.1-6.2-0.1c2.4-0.8,4-1.9,5.2-3.3
			c-1.4-0.2-2.5-0.9-2.4-1.6c1.1-0.4,2.1-1.1,3-1.8c-2,0-3.6-1.5-3.5-2.6c2.8-0.9,7.5-4.8,7.3-7.4c-2.2,1.3-4.7,0.2-4.6-0.9
			c6.9-3.3,8-15.7,8-15.7s2.6,13.7,8.1,14.4c-0.8,2.2-3.4,2.3-4.6,1.2c0,1.7,3.4,5.7,6.5,6c0.1,1.4-1,2.4-2.7,2.9
			c0.9,0.7,2,1.1,3.1,1.3c-0.1,0.2-0.2,0.4-0.3,0.6c1.1,0.1,2.1,0,2.6-0.2c-0.1,1.3-1.9,4.7-3.8,5.5c0.2,2,3.4,2.1,5,1.8
			c0.1,1.3-0.8,2.3-2.1,3.2c0,0,0,0,0,0c-0.6,0.4-1.2,0.7-1.7,1c0.2,2,5.3,1,6.1,0.5c0,0.6-0.2,1.2-0.5,1.8c-0.4,1-0.9,2.2-1.7,3.2
			c1.6,0.1,4-0.4,4.5-0.9c0.1,1.3-2.7,3.7-5.4,4.7c1.4,0.5,3.5,0.5,4.7,0.3c0.2,2-2.6,3.5-4.9,4.4c0.2,2.1,6.8,1.1,7.8,0.5
			c-0.1,1.8-2,4.2-4.9,4.4c0.2,1.7,6.9,0.7,7.8,0c0.1,1.7-5.3,5.3-9.3,5.4c-1.3,2.9,3.1,3.5,3.9,4.4c-3.2,1.5-10.9-0.4-12.7-2.9
			c-2.2,1-0.9,5.2-0.3,6.4c-4.6,0.3-6.2-4.6-8.5-5.5c-2.1,3.7-14.7,4.3-14.7,2.4c2-1,6-3.1,5.9-5.4
			C31.6,122.5,25.9,121.3,26.2,119.3z"/>
		<path opacity="0.2" fill="#FFFFFF" d="M31.1,106.6c0,0,5,0.2,9.3-3.9c4.3-4.2,5.4-6.9,5.4-6.9s1,1.3,4.4,3.4
			c3.4,2.1,10.8,2,10.8,2s-4.7,3.5-11.3,1.5c-3.2-1-2.9-1.7-2.9-1.7s-4.6,3.9-6.4,4.6C33.8,108,31.1,106.6,31.1,106.6z"/>
		<path opacity="0.2" fill="#FFFFFF" d="M59.5,86.4c-5.5-0.1-8.8-2-11-3.9c-0.4,1.4-2.5,6.6-10.6,9.6c3.4-0.4,11.4-3.8,11.2-5.9
			C49.5,87.9,55.9,90.4,59.5,86.4z"/>
		<path opacity="0.2" fill="#FFFFFF" d="M52.9,73.3c-5.1-3.2-4.3-4.9-5.2-8.9c0.4,2.3-1.7,7.5-6.3,11c4.4-0.9,5.7-3.7,6.6-5.8
			C48.3,71.2,50,72.4,52.9,73.3z"/>
		<path opacity="0.2" fill="#FFFFFF" d="M55.2,81.9c-5.9-3.2-7.6-3.4-8.8-8.4c0.4,2.3-2,5.9-6.6,9.3c3.4-0.4,4.9-3.6,6.3-4.7
			C46.4,79.8,51.1,81.5,55.2,81.9z"/>
		<path opacity="0.2" fill="#FFFFFF" d="M64.5,107.9c0,0-7.3-0.1-12.9-2.8c-1.7-0.1-4.2,5.1-5.4,5.4c-1.3-0.4-2.1-0.7-3.5-1.6
			c-1.2,5-10.1,9.4-15.1,10.9c9.2,0,15.7-6,16.6-7.8c1.1,0.9,1.3,3.4,3.4,3.4c1.7-2.4,4.3-6,4.9-7.8
			C54.4,107.2,61.7,109.6,64.5,107.9z"/>
		<path opacity="0.2" fill="#FFFFFF" d="M68.9,117.9c-10.3,1.1-14-3.6-15.8-5.5C54.2,119.6,65.8,121.5,68.9,117.9z"/>
		<path opacity="0.2" fill="#FFFFFF" d="M41.7,116.6c-2.9,4.8-4,7.5-10.7,9.7C41.8,127,42.9,118.9,41.7,116.6z"/>
		<path opacity="0.2" fill="#FFFFFF" d="M51.4,128.3c-0.6,0.3-6.9-9.7-2.3-11.5C51.7,118.2,49.5,123.4,51.4,128.3z"/>
		<path opacity="0.3" d="M44.1,86.9c2.6-2.1,2.6-2.1,2.6-2.1s-2.1,2.6-3.5,4.3c0,0,0,0,0,0c-2.8,1.4-6,0.2-5.9-1
			C37.4,88,41.5,89,44.1,86.9z"/>
		<path opacity="0.3" d="M40.7,123.8c3.3-3.4,4-8.5,4-8.5s2,6.8,3.5,9.9c1,2,1.9,3.6,4.5,4.3c0,0.1,0,0.1,0.1,0.2
			c-4.6,0.3-6.2-4.6-8.5-5.5c-2.1,3.7-14.7,4.3-14.7,2.4C29.6,126.7,37.4,127.2,40.7,123.8z"/>
		<path opacity="0.3" d="M35,112c3.3-0.2,7.8-6.3,7.8-6.3s2.3,1.1,3.6,0.2c1.3-0.9,2.5-2,2.5-2s-1.2,5.7-2.9,5.4
			c-1.8-0.3-2.8-0.8-3.5-1.6c-0.8,4.4-6.5,6.8-6.5,6.7c-3.3,0.2-7.1-1.9-7.8-3.9C28.1,110.5,31.7,112.2,35,112z"/>
		<path opacity="0.3" d="M55.3,97.8c0,0,0-0.6,0-0.6c-1,0-1.9,0.5-2.8,0.4c-2.5-0.3-6.7-3.3-6.7-3.3l3.3,0.3l-1.3-2.8
			c0,0,3.8,3.1,7.1,3.5c3.4,0.4,6.4-1.8,6.4-1.8C61.5,95.5,58.4,97.5,55.3,97.8z"/>
		<g>
			<path opacity="0.3" d="M60.4,111.5c0.2,2.1,6.8,1.1,7.8,0.5c-4.8,3.1-13.9-0.5-13.9-0.5l4.4,0.1l-5-2.4c0,0,11.1,0.7,11.6-2.1
				C65.6,109,62.8,110.6,60.4,111.5z"/>
			<path opacity="0.3" d="M55.8,113.8c0,0,3.5,1,5.9,1c2.2,0,6.4-2.2,6.6-2.8c-0.2,1.8-2,4.1-4.9,4.3
				C57.7,116.9,55.8,113.8,55.8,113.8z"/>
		</g>
		<path opacity="0.3" d="M51.3,124.2c0-2,0.5-13.5,0.5-13.5s0.3,6.9,6.5,12.8c2.1,2,7.5,2.6,7.5,2.6c-3.2,1.5-10.9-0.4-12.7-2.9
			c-1.7,0.8-1.3,3.4-0.8,5.2C51.9,127.2,51.3,125.5,51.3,124.2z"/>
		<path opacity="0.3" d="M32.3,96.5c0,0,3.3,1.8,6.6,1c3.3-0.8,5.7-3,5.7-3s-1.3,3.7-2.8,6c-1.6,2.4-7.5,4.5-10.3,2
			c2.4,0.7,6.9-0.1,6.9-2.2C35.8,100.4,32.9,98.4,32.3,96.5z"/>
		<path opacity="0.3" d="M40.6,83.8c2.8-0.4,5.6-3.9,5.6-3.9s2.8,1.5,0.1,3.3c-2.7,1.7-0.3,2.2-5.8,3.1c-2,0-3.6-1.5-3.5-2.6
			C36.9,83.6,37.9,84.1,40.6,83.8z"/>
		<path opacity="0.3" d="M57.6,81.3c0,0-2,0.5-6.6-2.4s-3-8-3-8s1.7,2.3,3.5,2.6c1.5,0.2,3.1,0.7,4,0.6c0.2,0,0.3,0,0.3,0
			c-0.8,2.2-3.4,2.3-4.6,1.2C51.1,77.1,54.5,81,57.6,81.3z"/>
	</g>
	<g>
		<ellipse opacity="0.3" cx="198.5" cy="112" rx="7.5" ry="4"/>
		<path fill="#825012" d="M202,89v8c0,2.1-0.3,3.1-2,3.3V85h-3v14.4c-0.6-0.3-1-0.8-1-1.7V88h-1v10c0,1.3,0.8,2.4,2,2.8V112
			c0,0.6,0.7,1,1.5,1s1.5-0.4,1.5-1v-10c1.7,0,3-1.3,3-3V89H202z"/>
		<path fill="#539B00" d="M214,84c0-2.1-1.1-4-2.7-5c1.1-1.4,1.7-3.1,1.7-5c0-3.4-2.1-6.3-5.2-7.5c0.1-0.5,0.2-1,0.2-1.5
			c0-4.4-3.6-8-8-8c-4,0-7.4,3-7.9,6.9c-3,1.5-5.1,4.5-5.1,8.1c0,1.2,0.2,2.3,0.6,3.3c-1.6,1.2-2.6,3.1-2.6,5.2c0,2,0.9,3.8,2.3,5
			c-0.2,0.7-0.3,1.5-0.3,2.3c0,5.1,4.1,9.3,9.3,9.3c2.2,0,4.3-0.8,5.9-2.1c0.4,0.1,0.9,0.1,1.3,0.1c3.5,0,6.5-2.4,7.3-5.7
			C212.7,88.3,214,86.3,214,84z"/>
		<path fill="#825012" d="M197,78.8c-1.7,0-3-0.4-3-2.1V74h-1v3c0,1.7,1.3,3,3,3h1V78.8z"/>
		<path fill="#825012" d="M203,86.8c1.7,0,3-0.4,3-2.1V82h1v3c0,1.7-1.3,3-3,3h-1V86.8z"/>
		<rect x="196" y="71.4" fill="#825012" width="1" height="9.6"/>
		<path opacity="0.2" fill="#FFFFFF" d="M200.5,73c2.2,0,4.1,1.3,4.9,3.1c0.3-0.1,0.7-0.1,1.1-0.1c1.8,0,3.4,0.9,4.4,2.2
			c-0.4-1.8-2-3.2-3.9-3.2c0,0-0.1,0-0.1,0c-0.5-2.3-2.5-4-4.9-4c-2,0-3.7,1.2-4.5,2.9C198.3,73.3,199.4,73,200.5,73z"/>
		<path opacity="0.2" fill="#FFFFFF" d="M191,72.5c0-2.5,1.7-4.6,4-5.3c0.2-2.9,2.5-5.2,5.5-5.2c1.7,0,3.3,0.8,4.3,2.1
			c-0.6-2.4-2.8-4.1-5.3-4.1c-2.9,0-5.3,2.2-5.5,5.1c-2.3,0.5-4,2.5-4,4.9c0,1.1,0.4,2.2,1,3C191,72.8,191,72.7,191,72.5z"/>
		<path opacity="0.3" d="M214,84c0-0.4,0-0.8-0.1-1.2c-0.6,3.8-3.9,6.7-7.9,6.7c-0.1,0-0.3,0-0.4,0c0.7,0.3,1.6,0.5,2.4,0.5
			c0.7,0,1.3-0.1,1.9-0.3c-1.4,1.4-3.3,2.3-5.4,2.3c-1,0-2-0.2-2.9-0.6c-1.7,1.6-3.9,2.6-6.4,2.6c-3.5,0-6.6-2-8.1-4.8
			c0.7,4.4,4.5,7.8,9.1,7.8c2.2,0,4.3-0.8,5.9-2.1c0.4,0.1,0.9,0.1,1.3,0.1c3.5,0,6.5-2.4,7.3-5.7C212.7,88.3,214,86.3,214,84z"/>
		<path opacity="0.3" d="M189,83.5c-1.9-0.8-3.4-2.4-3.9-4.5c-0.1,0.5-0.2,1-0.2,1.5c0,2.4,1.3,4.4,3.2,5.6
			C188.3,85.2,188.6,84.3,189,83.5z"/>
	</g>
	<g>
		<path fill="#28896D" d="M190.7,115.3c4.2-0.5,6.2-8.6,6.2-8.6s0.9,8,6.2,10.1c0.1,0.7-1.9,1.4-3.6,0.6c-0.1,1.6,3.5,4.1,5.6,4.7
			c0.1,0.9-1.9,2.1-3.9,1.5c0.9,1.9,2.3,3.6,5.6,4.4c-1.5,0.9-3.9,0.1-5.3,0c0,1.3,4.7,2.5,7.1,2.4c-0.4,1.2-2.7,2.5-4.7,2.4
			c0,1.4,4.7,2.6,5.9,3c0.1,1.2-3.3,1.9-5.6,1.2c-0.1,1.4,2.4,2.7,3.6,3.3c0,1.1-7.6,0.7-8.9-1.5c-1.4,0.5-2.4,3.5-5.1,3.3
			c0.4-0.8,1.1-3.3-0.2-3.9c-1.1,1.6-5.8,2.7-7.7,1.8c0.5-0.5,3.2-0.9,2.4-2.7c-2.4-0.1-5.7-2.2-5.6-3.3c0.6,0.4,4.6,1,4.7,0
			c-1.8-0.1-2.9-1.6-3-2.7c0.6,0.3,4.6,1,4.7-0.3c-1.4-0.5-3.1-1.5-3-2.7c1.2,0.1,3.7,0.1,3.9-1.2c-1.5-0.5-2.9-2.7-3-3.6
			c1.1,0.3,5.4,0.1,5.3-0.9c-1.9-0.1-3.4-0.9-3.3-2.1c2.4-0.2,5-2.7,5-3.9C193.3,117,191.4,116.7,190.7,115.3z"/>
		<path opacity="0.2" fill="#FFFFFF" d="M207,128c0,0-3,0.1-5.6-2.4c-2.6-2.5-3.3-4.1-3.3-4.1s-0.6,0.8-2.7,2.1
			c-2.1,1.3-6.5,1.2-6.5,1.2s2.8,2.1,6.8,0.9c2-0.6,1.8-1,1.8-1s2.8,2.4,3.8,2.8C205.4,128.9,207,128,207,128z"/>
		<path opacity="0.2" fill="#FFFFFF" d="M192.1,115.6c3.6-1.9,4.2-4.4,4.9-7.5c-0.2,1.4,1.6,5.9,4.4,8c-2.1-0.2-3.9-3.2-4.7-3.9
			C196.4,113.3,194.5,115.4,192.1,115.6z"/>
		<path opacity="0.2" fill="#FFFFFF" d="M184.1,134.9c6.2,0.7,8.5-2.2,9.5-3.3C193,135.9,186,137.1,184.1,134.9z"/>
		<path opacity="0.2" fill="#FFFFFF" d="M200.6,134.1c1.8,2.9,2.4,4.6,6.5,5.9C200.5,140.4,199.8,135.4,200.6,134.1z"/>
		<path opacity="0.2" fill="#FFFFFF" d="M194.7,141.2c0.4,0.2,4.2-5.9,1.4-7C194.5,135,195.9,138.2,194.7,141.2z"/>
		<path opacity="0.3" d="M199.1,116.1c-1.6-1.3-1.6-1.3-1.6-1.3s1.3,1.6,2.1,2.6c0,0,0,0,0,0c1.7,0.8,3.7,0.1,3.6-0.6
			C203.2,116.7,200.7,117.4,199.1,116.1z"/>
		<path opacity="0.3" d="M204.6,131.3c-2-0.1-4.7-3.8-4.7-3.8s-1.4,0.7-2.2,0.1s-1.5-1.2-1.5-1.2s0.7,3.5,1.8,3.3
			c1.1-0.2,1.7-0.5,2.1-1c0.5,2.6,3.9,4.1,3.9,4.1c2,0.1,4.3-1.1,4.7-2.4C208.8,130.4,206.6,131.4,204.6,131.3z"/>
		<path opacity="0.3" d="M192.5,122.7C192.5,122.7,192.5,122.7,192.5,122.7c0.6,0,1.2,0,1.7-0.1c1.5-0.2,4.1-1.6,4.1-1.6l-2,0.2
			l0.8-1.7c0,0-2.3,1.9-4.3,2.1c-2,0.3-3.5-1-3.5-1C189.1,121.8,190.7,122.5,192.5,122.7z"/>
		<path opacity="0.3" d="M194.7,138.7c0-1.2-0.3-8.2-0.3-8.2s-0.2,4.2-3.9,7.8c-1.3,1.2-4.6,1.6-4.6,1.6c1.9,0.9,6.6-0.2,7.7-1.8
			c1,0.5,0.8,2.1,0.5,3.2C194.4,140.5,194.7,139.4,194.7,138.7z"/>
	</g>
	<g>
		<ellipse opacity="0.3" cx="176.5" cy="127" rx="7.5" ry="4"/>
		<path fill="#825012" d="M173,105v9.6c0,1.3,0.8,1.9,2,2V103h3v12.3c1.7-0.2,2-1.2,2-3.3v-8h1v10c0,1.7-1.3,3-3,3v10
			c0,0.6-0.7,1-1.5,1s-1.5-0.4-1.5-1v-9c-1.7,0-3-1.3-3-3v-10H173z"/>
		<path fill="#539B00" d="M161,101.5c0-1.8,0.7-3.4,1.9-4.6c-0.6-1.2-0.9-2.5-0.9-3.9c0-3.5,2.1-6.6,5-8.1c0-0.1,0-0.3,0-0.4
			c0-2.5,2-4.5,4.5-4.5c0.7,0,1.3,0.2,1.9,0.4c1.3-0.9,2.9-1.4,4.6-1.4c3.2,0,6,1.9,7.3,4.7c2.8,1.3,4.7,4,4.7,7.3
			c0,1.1-0.2,2.1-0.6,3.1c1.6,1.1,2.6,2.9,2.6,4.9c0,1.8-0.8,3.4-2,4.5c-0.3,4.7-4.2,8.5-9,8.5c-0.3,0-0.6,0-0.9,0
			c-1.7,1.9-4.1,3-6.8,3c-4.7,0-8.5-3.5-9.2-8C162.2,105.9,161,103.8,161,101.5z"/>
		<path opacity="0.2" fill="#FFFFFF" d="M185.9,93c-2.2,0-4.1,1.3-4.9,3.1c-0.3-0.1-0.7-0.1-1.1-0.1c-1.8,0-3.4,0.9-4.4,2.2
			c0.4-1.8,2-3.2,3.9-3.2c0,0,0.1,0,0.1,0c0.5-2.3,2.5-4,4.9-4c2,0,3.7,1.2,4.5,2.9C188.1,93.3,187,93,185.9,93z"/>
		<path opacity="0.2" fill="#FFFFFF" d="M177.5,83c-2.4,0-4.3,1.9-4.5,4.2c-0.5-0.1-1-0.2-1.5-0.2c-2.5,0-4.6,1.6-5.3,3.9
			c-0.1-0.4-0.2-0.9-0.2-1.4c0-2.5,2-4.5,4.5-4.5c0.5,0,1,0.1,1.5,0.3c0.1-1.8,1.6-3.3,3.5-3.3c1,0,1.9,0.4,2.5,1
			C177.8,83,177.7,83,177.5,83z"/>
		<g>
			<path opacity="0.3" d="M164.5,104.7c-0.3,0.7-0.4,1.5-0.5,2.3c-1.7-1.1-2.9-2.9-3-5C161.8,103.3,163.1,104.2,164.5,104.7z"/>
		</g>
		<path opacity="0.3" d="M172.3,113c3.8,0,7-2,8.8-5c0.3,0,0.6,0,0.9,0c3.5,0,6.5-2,8-4.9c-0.1,4.9-4.1,8.9-9,8.9
			c-0.3,0-0.6,0-0.9,0c-1.7,1.9-4.1,3-6.8,3c-3.6,0-6.6-2-8.2-4.9C166.9,111.9,169.5,113,172.3,113z"/>
	</g>
	<g>
		<path fill="#28896D" d="M146.8,93.8c5.3-0.6,7.8-10.8,7.8-10.8s1.1,10,7.8,12.7c0.1,0.9-2.4,1.8-4.5,0.7c-0.2,2,4.4,5.2,7.1,6
			c0.1,1.1-2.4,2.7-4.8,1.9c1.1,2.4,2.9,4.5,7.1,5.6c-1.9,1.1-4.9,0.1-6.7,0c0,1.6,6,3.2,8.9,3c-0.6,1.6-3.4,3.1-6,3
			c0,1.8,5.9,3.3,7.4,3.7c0.2,1.5-4.1,2.4-7.1,1.5c-0.1,1.8,3,3.4,4.5,4.1c0,1.4-9.6,0.9-11.2-1.9c-1.8,0.7-3,4.4-6.5,4.2
			c0.5-1,1.4-4.2-0.2-4.9c-1.4,2-7.3,3.4-9.7,2.2c0.6-0.7,4-1.1,3-3.4c-3.1-0.1-7.2-2.8-7.1-4.1c0.7,0.6,5.8,1.3,6,0
			c-2.2-0.2-3.6-2-3.7-3.4c0.8,0.4,5.8,1.2,6-0.4c-1.8-0.7-3.9-1.9-3.7-3.4c1.5,0.2,4.7,0.1,4.8-1.5c-1.9-0.7-3.6-3.4-3.7-4.5
			c1.4,0.4,6.8,0.1,6.7-1.1c-2.3-0.2-4.3-1.1-4.1-2.6c3-0.2,6.3-3.4,6.3-4.8C150,96,147.6,95.6,146.8,93.8z"/>
		<path opacity="0.2" fill="#FFFFFF" d="M167.3,109.8c0,0-3.8,0.2-7.1-3c-3.3-3.2-4.1-5.2-4.1-5.2s-0.7,1-3.4,2.6
			c-2.6,1.6-8.2,1.5-8.2,1.5s3.5,2.7,8.6,1.1c2.5-0.8,2.2-1.3,2.2-1.3s3.5,3,4.8,3.5C165.2,110.9,167.3,109.8,167.3,109.8z"/>
		<path opacity="0.2" fill="#FFFFFF" d="M148.5,94.2c4.5-2.4,5.2-5.6,6.1-9.4c-0.3,1.8,2,7.4,5.6,10.1c-2.6-0.3-4.9-4-6-4.8
			C154,91.4,151.5,94,148.5,94.2z"/>
		<path opacity="0.2" fill="#FFFFFF" d="M138.5,118.5c7.8,0.9,10.6-2.7,12-4.2C149.7,119.7,140.8,121.2,138.5,118.5z"/>
		<path opacity="0.2" fill="#FFFFFF" d="M159.2,117.4c2.2,3.7,3.1,5.7,8.2,7.4C159.1,125.3,158.2,119.2,159.2,117.4z"/>
		<path opacity="0.2" fill="#FFFFFF" d="M151.8,126.4c0.5,0.2,5.2-7.4,1.7-8.7C151.5,118.7,153.3,122.6,151.8,126.4z"/>
		<path opacity="0.3" d="M157.3,94.8c-2-1.6-2-1.6-2-1.6s1.6,2,2.6,3.3c0,0,0,0,0,0c2.1,1.1,4.6,0.2,4.5-0.7
			C162.4,95.7,159.3,96.4,157.3,94.8z"/>
		<path opacity="0.3" d="M164.3,113.9c-2.5-0.1-5.9-4.8-5.9-4.8s-1.7,0.8-2.7,0.1c-1-0.7-1.9-1.5-1.9-1.5s0.9,4.3,2.2,4.1
			c1.3-0.2,2.1-0.6,2.7-1.2c0.6,3.3,5,5.2,5,5.1c2.5,0.1,5.4-1.4,6-3C169.5,112.8,166.8,114.1,164.3,113.9z"/>
		<path opacity="0.3" d="M149,103.1C149,103.1,149,103.1,149,103.1c0.7,0,1.5-0.1,2.2-0.1c1.9-0.3,5.1-2,5.1-2l-2.5,0.3l1-2.2
			c0,0-2.9,2.4-5.4,2.7c-2.6,0.3-4.4-1.3-4.4-1.3C144.7,102,146.7,102.9,149,103.1z"/>
		<path opacity="0.3" d="M151.8,123.2c0-1.5-0.4-10.3-0.4-10.3s-0.2,5.2-4.9,9.8c-1.6,1.5-5.7,2-5.7,2c2.4,1.1,8.3-0.3,9.7-2.2
			c1.3,0.6,1,2.6,0.6,4C151.4,125.5,151.8,124.2,151.8,123.2z"/>
	</g>
	<g>
		<ellipse opacity="0.3" cx="221.5" cy="130" rx="7.5" ry="4"/>
		<path fill="#825012" d="M225,108v9.6c0,1.3-0.8,1.9-2,2V106h-3v12.3c-1.7-0.2-2-1.2-2-3.3v-8h-1v10c0,1.7,1.3,3,3,3v10
			c0,0.6,0.7,1,1.5,1s1.5-0.4,1.5-1v-9c1.7,0,3-1.3,3-3v-10H225z"/>
		<path fill="#539B00" d="M237,104.5c0-1.8-0.7-3.4-1.9-4.6c0.6-1.2,0.9-2.5,0.9-3.9c0-3.5-2.1-6.6-5-8.1c0-0.1,0-0.3,0-0.4
			c0-2.5-2-4.5-4.5-4.5c-0.7,0-1.3,0.2-1.9,0.4c-1.3-0.9-2.9-1.4-4.6-1.4c-3.2,0-6,1.9-7.3,4.7c-2.8,1.3-4.7,4-4.7,7.3
			c0,1.1,0.2,2.1,0.6,3.1c-1.6,1.1-2.6,2.9-2.6,4.9c0,1.8,0.8,3.4,2,4.5c0.3,4.7,4.2,8.5,9,8.5c0.3,0,0.6,0,0.9,0
			c1.7,1.9,4.1,3,6.8,3c4.7,0,8.5-3.5,9.2-8C235.8,108.9,237,106.8,237,104.5z"/>
		<path opacity="0.2" fill="#FFFFFF" d="M212.1,96c2.2,0,4.1,1.3,4.9,3.1c0.3-0.1,0.7-0.1,1.1-0.1c1.8,0,3.4,0.9,4.4,2.2
			c-0.4-1.8-2-3.2-3.9-3.2c0,0-0.1,0-0.1,0c-0.5-2.3-2.5-4-4.9-4c-2,0-3.7,1.2-4.5,2.9C209.9,96.3,211,96,212.1,96z"/>
		<path opacity="0.2" fill="#FFFFFF" d="M220.5,86c2.4,0,4.3,1.9,4.5,4.2c0.5-0.1,1-0.2,1.5-0.2c2.5,0,4.6,1.6,5.3,3.9
			c0.1-0.4,0.2-0.9,0.2-1.4c0-2.5-2-4.5-4.5-4.5c-0.5,0-1,0.1-1.5,0.3c-0.1-1.8-1.6-3.3-3.5-3.3c-1,0-1.9,0.4-2.5,1
			C220.2,86,220.3,86,220.5,86z"/>
		<g>
			<path opacity="0.3" d="M233.5,107.7c0.3,0.7,0.4,1.5,0.5,2.3c1.7-1.1,2.9-2.9,3-5C236.2,106.3,234.9,107.2,233.5,107.7z"/>
		</g>
		<path opacity="0.3" d="M225.8,116c-3.8,0-7-2-8.8-5c-0.3,0-0.6,0-0.9,0c-3.5,0-6.5-2-8-4.9c0.1,4.9,4.1,8.9,9,8.9
			c0.3,0,0.6,0,0.9,0c1.7,1.9,4.1,3,6.8,3c3.6,0,6.6-2,8.2-4.9C231.1,114.9,228.5,116,225.8,116z"/>
	</g>
	<g>
		<ellipse opacity="0.3" cx="102.5" cy="157" rx="7.5" ry="4"/>
		<path fill="#825012" d="M99,135v9.6c0,1.3,0.8,1.9,2,2V133h3v12.3c1.7-0.2,2-1.2,2-3.3v-8h1v10c0,1.7-1.3,3-3,3v10
			c0,0.6-0.7,1-1.5,1s-1.5-0.4-1.5-1v-9c-1.7,0-3-1.3-3-3v-10H99z"/>
		<path fill="#539B00" d="M87,131.5c0-1.8,0.7-3.4,1.9-4.6c-0.6-1.2-0.9-2.5-0.9-3.9c0-3.5,2.1-6.6,5-8.1c0-0.1,0-0.3,0-0.4
			c0-2.5,2-4.5,4.5-4.5c0.7,0,1.3,0.2,1.9,0.4c1.3-0.9,2.9-1.4,4.6-1.4c3.2,0,6,1.9,7.3,4.7c2.8,1.3,4.7,4,4.7,7.3
			c0,1.1-0.2,2.1-0.6,3.1c1.6,1.1,2.6,2.9,2.6,4.9c0,1.8-0.8,3.4-2,4.5c-0.3,4.7-4.2,8.5-9,8.5c-0.3,0-0.6,0-0.9,0
			c-1.7,1.9-4.1,3-6.8,3c-4.7,0-8.5-3.5-9.2-8C88.2,135.9,87,133.8,87,131.5z"/>
		<path opacity="0.2" fill="#FFFFFF" d="M111.9,123c-2.2,0-4.1,1.3-4.9,3.1c-0.3-0.1-0.7-0.1-1.1-0.1c-1.8,0-3.4,0.9-4.4,2.2
			c0.4-1.8,2-3.2,3.9-3.2c0,0,0.1,0,0.1,0c0.5-2.3,2.5-4,4.9-4c2,0,3.7,1.2,4.5,2.9C114.1,123.3,113,123,111.9,123z"/>
		<path opacity="0.2" fill="#FFFFFF" d="M103.5,113c-2.4,0-4.3,1.9-4.5,4.2c-0.5-0.1-1-0.2-1.5-0.2c-2.5,0-4.6,1.6-5.3,3.9
			c-0.1-0.4-0.2-0.9-0.2-1.4c0-2.5,2-4.5,4.5-4.5c0.5,0,1,0.1,1.5,0.3c0.1-1.8,1.6-3.3,3.5-3.3c1,0,1.9,0.4,2.5,1
			C103.8,113,103.7,113,103.5,113z"/>
		<g>
			<path opacity="0.3" d="M90.5,134.7c-0.3,0.7-0.4,1.5-0.5,2.3c-1.7-1.1-2.9-2.9-3-5C87.8,133.3,89.1,134.2,90.5,134.7z"/>
		</g>
		<path opacity="0.3" d="M98.3,143c3.8,0,7-2,8.8-5c0.3,0,0.6,0,0.9,0c3.5,0,6.5-2,8-4.9c-0.1,4.9-4.1,8.9-9,8.9c-0.3,0-0.6,0-0.9,0
			c-1.7,1.9-4.1,3-6.8,3c-3.6,0-6.6-2-8.2-4.9C92.9,141.9,95.5,143,98.3,143z"/>
	</g>
	<g>
		<ellipse opacity="0.3" cx="25.5" cy="131" rx="7.5" ry="4"/>
		<path fill="#825012" d="M29,109v9.6c0,1.3-0.8,1.9-2,2V107h-3v12.3c-1.7-0.2-2-1.2-2-3.3v-8h-1v10c0,1.7,1.3,3,3,3v10
			c0,0.6,0.7,1,1.5,1s1.5-0.4,1.5-1v-9c1.7,0,3-1.3,3-3v-10H29z"/>
		<path fill="#539B00" d="M41,105.5c0-1.8-0.7-3.4-1.9-4.6c0.6-1.2,0.9-2.5,0.9-3.9c0-3.5-2.1-6.6-5-8.1c0-0.1,0-0.3,0-0.4
			c0-2.5-2-4.5-4.5-4.5c-0.7,0-1.3,0.2-1.9,0.4C27.3,83.5,25.7,83,24,83c-3.2,0-6,1.9-7.3,4.7C13.9,89,12,91.8,12,95
			c0,1.1,0.2,2.1,0.6,3.1C11,99.1,10,100.9,10,103c0,1.8,0.8,3.4,2,4.5c0.3,4.7,4.2,8.5,9,8.5c0.3,0,0.6,0,0.9,0
			c1.7,1.9,4.1,3,6.8,3c4.7,0,8.5-3.5,9.2-8C39.8,109.9,41,107.8,41,105.5z"/>
		<path opacity="0.2" fill="#FFFFFF" d="M16.1,97c2.2,0,4.1,1.3,4.9,3.1c0.3-0.1,0.7-0.1,1.1-0.1c1.8,0,3.4,0.9,4.4,2.2
			c-0.4-1.8-2-3.2-3.9-3.2c0,0-0.1,0-0.1,0c-0.5-2.3-2.5-4-4.9-4c-2,0-3.7,1.2-4.5,2.9C13.9,97.3,15,97,16.1,97z"/>
		<path opacity="0.2" fill="#FFFFFF" d="M24.5,87c2.4,0,4.3,1.9,4.5,4.2c0.5-0.1,1-0.2,1.5-0.2c2.5,0,4.6,1.6,5.3,3.9
			c0.1-0.4,0.2-0.9,0.2-1.4c0-2.5-2-4.5-4.5-4.5c-0.5,0-1,0.1-1.5,0.3c-0.1-1.8-1.6-3.3-3.5-3.3c-1,0-1.9,0.4-2.5,1
			C24.2,87,24.3,87,24.5,87z"/>
		<g>
			<path opacity="0.3" d="M37.5,108.7c0.3,0.7,0.4,1.5,0.5,2.3c1.7-1.1,2.9-2.9,3-5C40.2,107.3,38.9,108.2,37.5,108.7z"/>
		</g>
		<path opacity="0.3" d="M29.8,117c-3.8,0-7-2-8.8-5c-0.3,0-0.6,0-0.9,0c-3.5,0-6.5-2-8-4.9c0.1,4.9,4.1,8.9,9,8.9
			c0.3,0,0.6,0,0.9,0c1.7,1.9,4.1,3,6.8,3c3.6,0,6.6-2,8.2-4.9C35.1,115.9,32.5,117,29.8,117z"/>
	</g>
	<g>
		<ellipse opacity="0.3" cx="76.5" cy="138" rx="7.5" ry="4"/>
		<path fill="#825012" d="M80,115v8c0,2.1-0.3,3.1-2,3.3V111h-3v14.4c-0.6-0.3-1-0.8-1-1.7V114h-1v10c0,1.3,0.8,2.4,2,2.8V138
			c0,0.6,0.7,1,1.5,1s1.5-0.4,1.5-1v-10c1.7,0,3-1.3,3-3v-10H80z"/>
		<path fill="#539B00" d="M92,110c0-2.1-1.1-4-2.7-5c1.1-1.4,1.7-3.1,1.7-5c0-3.4-2.1-6.3-5.2-7.5c0.1-0.5,0.2-1,0.2-1.5
			c0-4.4-3.6-8-8-8c-4,0-7.4,3-7.9,6.9c-3,1.5-5.1,4.5-5.1,8.1c0,1.2,0.2,2.3,0.6,3.3c-1.6,1.2-2.6,3.1-2.6,5.2c0,2,0.9,3.8,2.3,5
			c-0.2,0.7-0.3,1.5-0.3,2.3c0,5.1,4.1,9.3,9.3,9.3c2.2,0,4.3-0.8,5.9-2.1c0.4,0.1,0.9,0.1,1.3,0.1c3.5,0,6.5-2.4,7.3-5.7
			C90.7,114.3,92,112.3,92,110z"/>
		<path fill="#825012" d="M75,104.8c-1.7,0-3-0.4-3-2.1V100h-1v3c0,1.7,1.3,3,3,3h1V104.8z"/>
		<path fill="#825012" d="M81,112.8c1.7,0,3-0.4,3-2.1V108h1v3c0,1.7-1.3,3-3,3h-1V112.8z"/>
		<rect x="74" y="97.4" fill="#825012" width="1" height="9.6"/>
		<path opacity="0.2" fill="#FFFFFF" d="M78.5,99c2.2,0,4.1,1.3,4.9,3.1c0.3-0.1,0.7-0.1,1.1-0.1c1.8,0,3.4,0.9,4.4,2.2
			c-0.4-1.8-2-3.2-3.9-3.2c0,0-0.1,0-0.1,0c-0.5-2.3-2.5-4-4.9-4c-2,0-3.7,1.2-4.5,2.9C76.3,99.3,77.4,99,78.5,99z"/>
		<path opacity="0.2" fill="#FFFFFF" d="M69,98.5c0-2.5,1.7-4.6,4-5.3c0.2-2.9,2.5-5.2,5.5-5.2c1.7,0,3.3,0.8,4.3,2.1
			C82.2,87.7,80,86,77.5,86c-2.9,0-5.3,2.2-5.5,5.1c-2.3,0.5-4,2.5-4,4.9c0,1.1,0.4,2.2,1,3C69,98.8,69,98.7,69,98.5z"/>
		<path opacity="0.3" d="M92,110c0-0.4,0-0.8-0.1-1.2c-0.6,3.8-3.9,6.7-7.9,6.7c-0.1,0-0.3,0-0.4,0c0.7,0.3,1.6,0.5,2.4,0.5
			c0.7,0,1.3-0.1,1.9-0.3c-1.4,1.4-3.3,2.3-5.4,2.3c-1,0-2-0.2-2.9-0.6c-1.7,1.6-3.9,2.6-6.4,2.6c-3.5,0-6.6-2-8.1-4.8
			c0.7,4.4,4.5,7.8,9.1,7.8c2.2,0,4.3-0.8,5.9-2.1c0.4,0.1,0.9,0.1,1.3,0.1c3.5,0,6.5-2.4,7.3-5.7C90.7,114.3,92,112.3,92,110z"/>
		<path opacity="0.3" d="M67,109.5c-1.9-0.8-3.4-2.4-3.9-4.5c-0.1,0.5-0.2,1-0.2,1.5c0,2.4,1.3,4.4,3.2,5.6
			C66.3,111.2,66.6,110.3,67,109.5z"/>
	</g>
	<g>
		<path fill="#28896D" d="M48,146.9c1.4-0.4,6.7-1.8,6.7-3.4c-2.3,0.1-4.9-1.3-5.4-2.7c1.7,0.1,4.4-0.4,6.2-1.2
			c0.3-0.3,0.5-0.7,0.5-1c-1.6,0.4-3.4,0.3-4.8-0.5c0.7-0.2,1.4-0.4,2-0.7c-0.8-0.7-1.4-1.6-1.7-2.1c1.6,0.5,4.8,0,4.8-1.5
			c-1.8,0.1-3.8-1.2-4.2-2.5c0.6,0,1.4,0,2.2-0.2c1.2-0.5,2.5-1.3,3.6-2.3c-1.3,0.2-3.1,0.8-4.2-0.1c1.6-0.5,2.8-1.3,3.6-2.3
			c-1-0.1-1.7-0.6-1.6-1.1c0.8-0.3,1.5-0.7,2.1-1.2c-1.3,0-2.5-1-2.4-1.8c1.9-0.6,5.1-3.3,5-5.1c-1.5,0.9-3.2,0.2-3.1-0.6
			c4.7-2.3,5.5-10.7,5.5-10.7s1.8,9.4,5.5,9.9c-0.6,1.5-2.3,1.6-3.2,0.8c0,1.2,2.3,3.9,4.5,4.1c0.1,1-0.7,1.7-1.8,2
			c0.6,0.5,1.4,0.8,2.1,0.9c-0.1,0.1-0.1,0.3-0.2,0.4c0.7,0,1.4,0,1.8-0.1c-0.1,0.9-1.3,3.2-2.6,3.8c0.1,1.3,2.4,1.4,3.4,1.3
			c0.1,0.9-0.6,1.6-1.4,2.2c0,0,0,0,0,0c-0.4,0.3-0.8,0.5-1.2,0.7c0.1,1.3,3.6,0.7,4.2,0.3c0,0.4-0.2,0.8-0.4,1.2
			c-0.2,0.7-0.6,1.5-1.2,2.2c1.1,0.1,2.8-0.3,3.1-0.6c0.1,0.9-1.8,2.6-3.7,3.2c1,0.4,2.4,0.3,3.2,0.2c0.2,1.3-1.8,2.4-3.4,3
			c0.2,1.4,4.6,0.7,5.4,0.3c-0.1,1.3-1.3,2.9-3.4,3c0.2,1.2,4.7,0.5,5.4,0c0.1,1.2-3.6,3.6-6.4,3.7c-0.9,2,2.1,2.4,2.7,3
			c-2.2,1-7.5-0.3-8.7-2c-1.5,0.7-0.6,3.5-0.2,4.4c-3.1,0.2-4.2-3.2-5.8-3.7c-1.4,2.5-10.1,2.9-10.1,1.7c1.3-0.7,4.1-2.1,4-3.7
			C51.7,149.1,47.8,148.2,48,146.9z"/>
		<path opacity="0.2" fill="#FFFFFF" d="M51.4,138.2c0,0,3.4,0.2,6.4-2.7c2.9-2.9,3.7-4.7,3.7-4.7s0.7,0.9,3,2.3
			c2.3,1.4,7.4,1.3,7.4,1.3s-3.2,2.4-7.7,1c-2.2-0.7-2-1.2-2-1.2s-3.1,2.7-4.4,3.1C53.2,139.1,51.4,138.2,51.4,138.2z"/>
		<path opacity="0.2" fill="#FFFFFF" d="M70.8,124.3c-3.8,0-6.1-1.3-7.6-2.7c-0.2,0.9-1.7,4.5-7.3,6.6c2.3-0.3,7.8-2.6,7.7-4.1
			C64,125.4,68.4,127,70.8,124.3z"/>
		<path opacity="0.2" fill="#FFFFFF" d="M66.3,115.3c-3.5-2.2-3-3.3-3.5-6.1c0.3,1.6-1.2,5.2-4.4,7.5c3-0.6,3.9-2.5,4.5-4
			C63.2,113.9,64.3,114.7,66.3,115.3z"/>
		<path opacity="0.2" fill="#FFFFFF" d="M67.9,121.2c-4-2.2-5.2-2.3-6-5.8c0.3,1.6-1.3,4-4.5,6.4c2.3-0.3,3.3-2.5,4.3-3.2
			C61.9,119.8,65.1,121,67.9,121.2z"/>
		<path opacity="0.2" fill="#FFFFFF" d="M74.3,139c0,0-5-0.1-8.8-1.9c-1.2-0.1-2.9,3.5-3.7,3.7c-0.9-0.3-1.4-0.5-2.4-1.1
			c-0.8,3.5-6.9,6.5-10.3,7.5c6.3,0,10.7-4.1,11.4-5.4c0.8,0.6,0.9,2.3,2.3,2.3c1.2-1.7,2.9-4.1,3.4-5.4
			C67.4,138.6,72.4,140.2,74.3,139z"/>
		<path opacity="0.2" fill="#FFFFFF" d="M77.3,145.9c-7,0.8-9.6-2.5-10.8-3.8C67.2,147,75.2,148.4,77.3,145.9z"/>
		<path opacity="0.2" fill="#FFFFFF" d="M58.7,145c-2,3.3-2.8,5.2-7.4,6.7C58.7,152.1,59.5,146.6,58.7,145z"/>
		<path opacity="0.2" fill="#FFFFFF" d="M65.3,153.1c-0.4,0.2-4.7-6.7-1.6-7.9C65.5,146.1,64,149.7,65.3,153.1z"/>
		<path opacity="0.3" d="M60.3,124.6c1.8-1.5,1.8-1.5,1.8-1.5s-1.4,1.8-2.4,2.9c0,0,0,0,0,0c-1.9,1-4.1,0.2-4-0.7
			C55.7,125.4,58.5,126.1,60.3,124.6z"/>
		<path opacity="0.3" d="M58,150c2.2-2.3,2.8-5.8,2.8-5.8s1.3,4.6,2.4,6.8c0.7,1.4,1.3,2.5,3.1,2.9c0,0,0,0.1,0,0.1
			c-3.1,0.2-4.2-3.2-5.8-3.7c-1.4,2.5-10.1,2.9-10.1,1.7C50.4,151.9,55.7,152.3,58,150z"/>
		<path opacity="0.3" d="M54.1,141.9c2.2-0.1,5.3-4.3,5.3-4.3s1.6,0.7,2.5,0.1c0.9-0.6,1.7-1.4,1.7-1.4s-0.8,3.9-2,3.7
			c-1.2-0.2-1.9-0.5-2.4-1.1c-0.6,3-4.5,4.6-4.5,4.6c-2.3,0.1-4.9-1.3-5.4-2.7C49.3,140.8,51.8,142,54.1,141.9z"/>
		<path opacity="0.3" d="M68,132.1c0,0,0-0.4,0-0.4c-0.7,0-1.3,0.4-1.9,0.3c-1.7-0.2-4.6-2.2-4.6-2.2l2.2,0.2l-0.9-2
			c0,0,2.6,2.1,4.9,2.4c2.3,0.3,4.4-1.2,4.4-1.2C72.2,130.6,70.1,132,68,132.1z"/>
		<g>
			<path opacity="0.3" d="M71.5,141.5c0.2,1.4,4.6,0.7,5.4,0.3c-3.3,2.1-9.5-0.3-9.5-0.3l3,0.1l-3.4-1.7c0,0,7.6,0.5,8-1.4
				C75,139.8,73.1,140.9,71.5,141.5z"/>
			<path opacity="0.3" d="M68.3,143.1c0,0,2.4,0.7,4,0.7c1.5,0,4.4-1.5,4.5-1.9c-0.1,1.2-1.4,2.8-3.3,3
				C69.6,145.2,68.3,143.1,68.3,143.1z"/>
		</g>
		<path opacity="0.3" d="M65.3,150.2c0-1.4,0.3-9.2,0.3-9.2s0.2,4.7,4.4,8.8c1.4,1.4,5.2,1.8,5.2,1.8c-2.2,1-7.5-0.3-8.7-2
			c-1.2,0.5-0.9,2.4-0.5,3.6C65.6,152.3,65.3,151.1,65.3,150.2z"/>
		<path opacity="0.3" d="M52.2,131.3c0,0,2.3,1.2,4.5,0.7c2.2-0.5,3.9-2.1,3.9-2.1s-0.9,2.6-1.9,4.1c-1.1,1.6-5.2,3.1-7.1,1.3
			c1.6,0.5,4.8,0,4.8-1.5C54.6,133.9,52.6,132.6,52.2,131.3z"/>
		<path opacity="0.3" d="M57.9,122.5c1.9-0.2,3.8-2.7,3.8-2.7s1.9,1,0,2.2s-0.2,1.5-4,2.1c-1.3,0-2.5-1-2.4-1.8
			C55.4,122.4,56,122.8,57.9,122.5z"/>
		<path opacity="0.3" d="M69.5,120.8c0,0-1.4,0.4-4.6-1.6c-3.2-2-2-5.5-2-5.5s1.1,1.6,2.4,1.8c1.1,0.2,2.1,0.5,2.7,0.4
			c0.1,0,0.2,0,0.2,0c-0.6,1.5-2.3,1.6-3.2,0.8C65.1,117.9,67.4,120.6,69.5,120.8z"/>
	</g>
	<g>
		<path fill="#539B00" d="M152,115.5c0-1.8-0.7-3.4-1.9-4.6c0.6-1.2,0.9-2.5,0.9-3.9c0-3.5-2.1-6.6-5-8.1c0-0.1,0-0.3,0-0.4
			c0-2.5-2-4.5-4.5-4.5c-0.7,0-1.3,0.2-1.9,0.4c-1.3-0.9-2.9-1.4-4.6-1.4c-3.2,0-6,1.9-7.3,4.7c-2.8,1.3-4.7,4-4.7,7.3
			c0,1.1,0.2,2.1,0.6,3.1c-1.6,1.1-2.6,2.9-2.6,4.9c0,1.8,0.8,3.4,2,4.5c0.3,4.7,4.2,8.5,9,8.5c0.3,0,0.6,0,0.9,0
			c1.7,1.9,4.1,3,6.8,3c4.7,0,8.5-3.5,9.2-8C150.8,119.9,152,117.8,152,115.5z"/>
		<path opacity="0.2" fill="#FFFFFF" d="M127.1,107c2.2,0,4.1,1.3,4.9,3.1c0.3-0.1,0.7-0.1,1.1-0.1c1.8,0,3.4,0.9,4.4,2.2
			c-0.4-1.8-2-3.2-3.9-3.2c0,0-0.1,0-0.1,0c-0.5-2.3-2.5-4-4.9-4c-2,0-3.7,1.2-4.5,2.9C124.9,107.3,126,107,127.1,107z"/>
		<path opacity="0.2" fill="#FFFFFF" d="M135.5,97c2.4,0,4.3,1.9,4.5,4.2c0.5-0.1,1-0.2,1.5-0.2c2.5,0,4.6,1.6,5.3,3.9
			c0.1-0.4,0.2-0.9,0.2-1.4c0-2.5-2-4.5-4.5-4.5c-0.5,0-1,0.1-1.5,0.3c-0.1-1.8-1.6-3.3-3.5-3.3c-1,0-1.9,0.4-2.5,1
			C135.2,97,135.3,97,135.5,97z"/>
		<g>
			<path opacity="0.3" d="M148.5,118.7c0.3,0.7,0.4,1.5,0.5,2.3c1.7-1.1,2.9-2.9,3-5C151.2,117.3,149.9,118.2,148.5,118.7z"/>
		</g>
		<path opacity="0.3" d="M140.8,127c-3.8,0-7-2-8.8-5c-0.3,0-0.6,0-0.9,0c-3.5,0-6.5-2-8-4.9c0.1,4.9,4.1,8.9,9,8.9
			c0.3,0,0.6,0,0.9,0c1.7,1.9,4.1,3,6.8,3c3.6,0,6.6-2,8.2-4.9C146.1,125.9,143.5,127,140.8,127z"/>
	</g>
	<g>
		<path fill="#28896D" d="M114.5,162.2c2-0.6,9.2-2.4,9.2-4.6c-3.2,0.2-6.7-1.8-7.4-3.7c2.3,0.1,6.1-0.6,8.6-1.6
			c0.4-0.4,0.6-0.9,0.7-1.4c-2.2,0.6-4.7,0.4-6.5-0.7c1-0.3,1.9-0.6,2.8-1c-1.1-0.9-1.9-2.2-2.3-2.9c2.3,0.7,6.5-0.1,6.5-2.1
			c-2.5,0.1-5.2-1.7-5.8-3.5c0.9,0.1,2-0.1,3.1-0.3c1.6-0.7,3.5-1.9,4.9-3.1c-1.7,0.3-4.2,1.1-5.8-0.1c2.3-0.7,3.8-1.8,4.9-3.1
			c-1.4-0.2-2.4-0.8-2.3-1.5c1.1-0.4,2-1,2.9-1.7c-1.8,0-3.4-1.4-3.3-2.4c2.6-0.9,7-4.6,6.9-6.9c-2,1.2-4.4,0.2-4.3-0.9
			c6.5-3.1,7.6-14.8,7.6-14.8s2.4,12.9,7.6,13.6c-0.8,2.1-3.2,2.2-4.4,1.2c0,1.6,3.2,5.4,6.1,5.6c0.1,1.4-1,2.3-2.5,2.8
			c0.9,0.6,1.9,1.1,2.9,1.2c-0.1,0.2-0.2,0.4-0.3,0.5c1,0,2,0,2.4-0.2c-0.1,1.2-1.8,4.4-3.6,5.2c0.2,1.8,3.2,2,4.7,1.7
			c0.1,1.2-0.8,2.2-1.9,3c0,0,0,0,0,0c-0.5,0.4-1.1,0.7-1.6,0.9c0.2,1.8,5,0.9,5.8,0.4c0,0.6-0.2,1.2-0.5,1.7c-0.3,0.9-0.9,2-1.6,3
			c1.5,0.1,3.8-0.4,4.3-0.8c0.1,1.2-2.5,3.5-5.1,4.4c1.4,0.5,3.3,0.5,4.5,0.3c0.2,1.8-2.4,3.3-4.6,4.2c0.2,2,6.4,1,7.4,0.5
			c-0.1,1.7-1.8,3.9-4.6,4.2c0.2,1.6,6.5,0.7,7.4,0c0.1,1.6-5,5-8.8,5.1c-1.3,2.8,2.9,3.3,3.7,4.2c-3,1.4-10.3-0.3-12-2.8
			c-2.1,0.9-0.9,4.9-0.3,6.1c-4.3,0.3-5.8-4.3-8-5.2c-2,3.5-13.8,4-13.8,2.3c1.8-0.9,5.7-2.9,5.5-5.1
			C119.6,165.2,114.3,164.1,114.5,162.2z"/>
		<path opacity="0.2" fill="#FFFFFF" d="M119.2,150.2c0,0,4.7,0.2,8.8-3.7s5.1-6.5,5.1-6.5s0.9,1.3,4.2,3.2s10.2,1.8,10.2,1.8
			s-4.4,3.3-10.6,1.4c-3.1-1-2.8-1.6-2.8-1.6s-4.3,3.7-6,4.3C121.7,151.5,119.2,150.2,119.2,150.2z"/>
		<path opacity="0.2" fill="#FFFFFF" d="M145.9,131.2c-5.2-0.1-8.3-1.8-10.4-3.7c-0.3,1.3-2.3,6.2-10,9.1c3.2-0.3,10.7-3.6,10.6-5.6
			C136.5,132.6,142.6,134.9,145.9,131.2z"/>
		<path opacity="0.2" fill="#FFFFFF" d="M139.7,118.8c-4.8-3-4.1-4.6-4.9-8.4c0.3,2.2-1.6,7.1-6,10.3c4.2-0.8,5.4-3.5,6.2-5.5
			C135.4,116.9,137,118,139.7,118.8z"/>
		<path opacity="0.2" fill="#FFFFFF" d="M141.9,126.9c-5.5-3-7.2-3.2-8.3-7.9c0.3,2.2-1.8,5.6-6.2,8.8c3.2-0.3,4.6-3.4,6-4.4
			C133.6,125,138.1,126.6,141.9,126.9z"/>
		<path opacity="0.2" fill="#FFFFFF" d="M150.7,151.4c0,0-6.8-0.1-12.1-2.6c-1.6-0.1-3.9,4.8-5.1,5.1c-1.3-0.3-2-0.7-3.3-1.5
			c-1.1,4.8-9.5,8.9-14.2,10.3c8.6,0,14.8-5.7,15.7-7.4c1,0.8,1.3,3.2,3.2,3.2c1.6-2.3,4-5.7,4.6-7.4
			C141.2,150.8,148,153.1,150.7,151.4z"/>
		<path opacity="0.2" fill="#FFFFFF" d="M154.8,160.9c-9.7,1.1-13.2-3.4-14.9-5.2C141,162.4,151.9,164.3,154.8,160.9z"/>
		<path opacity="0.2" fill="#FFFFFF" d="M129.2,159.7c-2.7,4.5-3.8,7.1-10.1,9.2C129.3,169.5,130.3,161.8,129.2,159.7z"/>
		<path opacity="0.2" fill="#FFFFFF" d="M138.4,170.7c-0.6,0.3-6.5-9.2-2.1-10.8C138.6,161.2,136.5,166.1,138.4,170.7z"/>
		<path opacity="0.3" d="M131.5,131.6c2.5-2,2.5-2,2.5-2s-2,2.4-3.3,4c0,0,0,0,0,0c-2.6,1.3-5.7,0.2-5.5-0.9
			C125.2,132.7,129,133.6,131.5,131.6z"/>
		<path opacity="0.3" d="M128.2,166.5c3.1-3.2,3.8-8,3.8-8s1.8,6.4,3.3,9.3c0.9,1.9,1.8,3.4,4.2,4c0,0.1,0,0.1,0.1,0.1
			c-4.3,0.3-5.8-4.3-8-5.2c-2,3.5-13.8,4-13.8,2.3C117.8,169.1,125.2,169.6,128.2,166.5z"/>
		<path opacity="0.3" d="M122.9,155.3c3.1-0.2,7.3-5.9,7.3-5.9s2.1,1,3.4,0.2c1.3-0.9,2.4-1.9,2.4-1.9s-1.1,5.4-2.8,5.1
			c-1.7-0.2-2.6-0.7-3.3-1.5c-0.8,4.1-6.1,6.4-6.1,6.3c-3.2,0.2-6.7-1.8-7.4-3.7C116.4,153.9,119.8,155.5,122.9,155.3z"/>
		<path opacity="0.3" d="M142,141.9c0,0,0-0.6,0-0.6c-0.9,0-1.8,0.5-2.7,0.4c-2.4-0.3-6.4-3.1-6.4-3.1l3.1,0.3l-1.2-2.7
			c0,0,3.6,2.9,6.7,3.3c3.2,0.4,6-1.7,6-1.7C147.8,139.8,144.9,141.7,142,141.9z"/>
		<g>
			<path opacity="0.3" d="M146.8,154.8c0.2,2,6.4,1,7.4,0.5c-4.5,2.9-13.1-0.4-13.1-0.4l4.1,0.1l-4.7-2.3c0,0,10.5,0.6,11-2
				C151.7,152.5,149,154,146.8,154.8z"/>
			<path opacity="0.3" d="M142.5,157c0,0,3.3,0.9,5.5,0.9c2.1,0,6-2.1,6.2-2.6c-0.2,1.7-1.9,3.9-4.6,4.1
				C144.3,159.9,142.5,157,142.5,157z"/>
		</g>
		<path opacity="0.3" d="M138.3,166.8c0-1.9,0.5-12.7,0.5-12.7s0.2,6.5,6.1,12.1c1.9,1.9,7.1,2.5,7.1,2.5c-3,1.4-10.3-0.3-12-2.8
			c-1.6,0.7-1.3,3.2-0.7,4.9C138.8,169.7,138.3,168,138.3,166.8z"/>
		<path opacity="0.3" d="M120.4,140.7c0,0,3.1,1.7,6.2,0.9c3.1-0.8,5.4-2.9,5.4-2.9s-1.2,3.5-2.7,5.7c-1.5,2.3-7.1,4.2-9.7,1.8
			c2.3,0.7,6.5-0.1,6.5-2.1C123.7,144.3,120.9,142.5,120.4,140.7z"/>
		<path opacity="0.3" d="M128.2,128.7c2.6-0.3,5.3-3.7,5.3-3.7s2.6,1.4,0.1,3.1c-2.5,1.6-0.3,2.1-5.5,2.9c-1.8,0-3.4-1.4-3.3-2.4
			C124.7,128.6,125.6,129,128.2,128.7z"/>
		<path opacity="0.3" d="M144.1,126.4c0,0-1.9,0.5-6.3-2.2c-4.4-2.7-2.8-7.5-2.8-7.5s1.6,2.2,3.3,2.5c1.5,0.2,2.9,0.6,3.7,0.5
			c0.2,0,0.3,0,0.3,0c-0.8,2.1-3.2,2.2-4.4,1.2C138,122.4,141.2,126.1,144.1,126.4z"/>
	</g>
	<g>
		<path fill="#28896D" d="M85.7,148.2c3-0.4,4.5-6.2,4.5-6.2s0.6,5.7,4.5,7.2c0.1,0.5-1.3,1-2.6,0.4c-0.1,1.2,2.5,3,4,3.4
			c0.1,0.6-1.4,1.5-2.8,1.1c0.6,1.4,1.7,2.6,4,3.2c-1.1,0.6-2.8,0.1-3.8,0c0,0.9,3.4,1.8,5.1,1.7c-0.3,0.9-1.9,1.8-3.4,1.7
			c0,1,3.3,1.9,4.3,2.1c0.1,0.9-2.3,1.4-4,0.9c-0.1,1,1.7,1.9,2.6,2.3c0,0.8-5.5,0.5-6.4-1.1c-1,0.4-1.7,2.5-3.7,2.4
			c0.3-0.6,0.8-2.4-0.1-2.8c-0.8,1.1-4.1,1.9-5.5,1.3c0.4-0.4,2.3-0.6,1.7-1.9c-1.8-0.1-4.1-1.6-4-2.3c0.4,0.3,3.3,0.7,3.4,0
			c-1.3-0.1-2.1-1.1-2.1-1.9c0.5,0.2,3.3,0.7,3.4-0.2c-1-0.4-2.2-1.1-2.1-1.9c0.9,0.1,2.7,0.1,2.8-0.9c-1.1-0.4-2.1-2-2.1-2.6
			c0.8,0.2,3.9,0.1,3.8-0.6c-1.3-0.1-2.4-0.6-2.3-1.5c1.7-0.1,3.6-2,3.6-2.8C87.6,149.4,86.2,149.2,85.7,148.2z"/>
		<path opacity="0.2" fill="#FFFFFF" d="M97.4,157.3c0,0-2.2,0.1-4-1.7s-2.3-3-2.3-3s-0.4,0.6-1.9,1.5c-1.5,0.9-4.7,0.9-4.7,0.9
			s2,1.5,4.9,0.6c1.4-0.4,1.3-0.7,1.3-0.7s2,1.7,2.8,2C96.3,157.9,97.4,157.3,97.4,157.3z"/>
		<path opacity="0.2" fill="#FFFFFF" d="M86.7,148.4c2.6-1.4,3-3.2,3.5-5.3c-0.2,1,1.2,4.3,3.2,5.7c-1.5-0.2-2.8-2.3-3.4-2.8
			C89.8,146.8,88.4,148.3,86.7,148.4z"/>
		<path opacity="0.2" fill="#FFFFFF" d="M81,162.2c4.5,0.5,6.1-1.6,6.8-2.4C87.4,162.9,82.3,163.8,81,162.2z"/>
		<path opacity="0.2" fill="#FFFFFF" d="M92.8,161.7c1.3,2.1,1.7,3.3,4.7,4.2C92.8,166.2,92.3,162.6,92.8,161.7z"/>
		<path opacity="0.2" fill="#FFFFFF" d="M88.6,166.7c0.3,0.1,3-4.2,1-5C88.5,162.3,89.4,164.6,88.6,166.7z"/>
		<path opacity="0.3" d="M91.8,148.7c-1.1-0.9-1.1-0.9-1.1-0.9s0.9,1.1,1.5,1.9c0,0,0,0,0,0c1.2,0.6,2.6,0.1,2.6-0.4
			C94.7,149.2,92.9,149.7,91.8,148.7z"/>
		<path opacity="0.3" d="M95.7,159.7c-1.4-0.1-3.4-2.7-3.4-2.7s-1,0.5-1.6,0.1c-0.6-0.4-1.1-0.9-1.1-0.9s0.5,2.5,1.3,2.4
			c0.8-0.1,1.2-0.3,1.5-0.7c0.4,1.9,2.8,2.9,2.8,2.9c1.5,0.1,3.1-0.8,3.4-1.7C98.7,159,97.1,159.7,95.7,159.7z"/>
		<path opacity="0.3" d="M87,153.5C87,153.5,87,153.5,87,153.5c0.4,0,0.9,0,1.2-0.1c1.1-0.1,2.9-1.1,2.9-1.1l-1.4,0.1l0.5-1.2
			c0,0-1.6,1.3-3.1,1.5c-1.5,0.2-2.5-0.7-2.5-0.7C84.6,152.8,85.7,153.4,87,153.5z"/>
		<path opacity="0.3" d="M88.6,165c0-0.9-0.2-5.9-0.2-5.9s-0.1,3-2.8,5.6c-0.9,0.9-3.3,1.1-3.3,1.1c1.4,0.6,4.7-0.2,5.5-1.3
			c0.7,0.3,0.6,1.5,0.3,2.3C88.4,166.3,88.6,165.5,88.6,165z"/>
	</g>
	<g>
		<path fill="#28896D" d="M182.7,136.2c3-0.4,4.5-6.2,4.5-6.2s0.6,5.7,4.5,7.2c0.1,0.5-1.3,1-2.6,0.4c-0.1,1.2,2.5,3,4,3.4
			c0.1,0.6-1.4,1.5-2.8,1.1c0.6,1.4,1.7,2.6,4,3.2c-1.1,0.6-2.8,0.1-3.8,0c0,0.9,3.4,1.8,5.1,1.7c-0.3,0.9-1.9,1.8-3.4,1.7
			c0,1,3.3,1.9,4.3,2.1c0.1,0.9-2.3,1.4-4,0.9c-0.1,1,1.7,1.9,2.6,2.3c0,0.8-5.5,0.5-6.4-1.1c-1,0.4-1.7,2.5-3.7,2.4
			c0.3-0.6,0.8-2.4-0.1-2.8c-0.8,1.1-4.1,1.9-5.5,1.3c0.4-0.4,2.3-0.6,1.7-1.9c-1.8-0.1-4.1-1.6-4-2.3c0.4,0.3,3.3,0.7,3.4,0
			c-1.3-0.1-2.1-1.1-2.1-1.9c0.5,0.2,3.3,0.7,3.4-0.2c-1-0.4-2.2-1.1-2.1-1.9c0.9,0.1,2.7,0.1,2.8-0.9c-1.1-0.4-2.1-2-2.1-2.6
			c0.8,0.2,3.9,0.1,3.8-0.6c-1.3-0.1-2.4-0.6-2.3-1.5c1.7-0.1,3.6-2,3.6-2.8C184.6,137.4,183.2,137.2,182.7,136.2z"/>
		<path opacity="0.2" fill="#FFFFFF" d="M194.4,145.3c0,0-2.2,0.1-4-1.7c-1.9-1.8-2.3-3-2.3-3s-0.4,0.6-1.9,1.5
			c-1.5,0.9-4.7,0.9-4.7,0.9s2,1.5,4.9,0.6c1.4-0.4,1.3-0.7,1.3-0.7s2,1.7,2.8,2C193.3,145.9,194.4,145.3,194.4,145.3z"/>
		<path opacity="0.2" fill="#FFFFFF" d="M183.7,136.4c2.6-1.4,3-3.2,3.5-5.3c-0.2,1,1.2,4.3,3.2,5.7c-1.5-0.2-2.8-2.3-3.4-2.8
			C186.8,134.8,185.4,136.3,183.7,136.4z"/>
		<path opacity="0.2" fill="#FFFFFF" d="M178,150.2c4.5,0.5,6.1-1.6,6.8-2.4C184.4,150.9,179.3,151.8,178,150.2z"/>
		<path opacity="0.2" fill="#FFFFFF" d="M189.8,149.7c1.3,2.1,1.7,3.3,4.7,4.2C189.8,154.2,189.3,150.6,189.8,149.7z"/>
		<path opacity="0.2" fill="#FFFFFF" d="M185.6,154.7c0.3,0.1,3-4.2,1-5C185.5,150.3,186.4,152.6,185.6,154.7z"/>
		<path opacity="0.3" d="M188.8,136.7c-1.1-0.9-1.1-0.9-1.1-0.9s0.9,1.1,1.5,1.9c0,0,0,0,0,0c1.2,0.6,2.6,0.1,2.6-0.4
			C191.7,137.2,189.9,137.7,188.8,136.7z"/>
		<path opacity="0.3" d="M192.7,147.7c-1.4-0.1-3.4-2.7-3.4-2.7s-1,0.5-1.6,0.1s-1.1-0.9-1.1-0.9s0.5,2.5,1.3,2.4
			c0.8-0.1,1.2-0.3,1.5-0.7c0.4,1.9,2.8,2.9,2.8,2.9c1.5,0.1,3.1-0.8,3.4-1.7C195.7,147,194.1,147.7,192.7,147.7z"/>
		<path opacity="0.3" d="M184,141.5C184,141.5,184,141.5,184,141.5c0.4,0,0.9,0,1.2-0.1c1.1-0.1,2.9-1.1,2.9-1.1l-1.4,0.1l0.5-1.2
			c0,0-1.6,1.3-3.1,1.5c-1.5,0.2-2.5-0.7-2.5-0.7C181.6,140.8,182.7,141.4,184,141.5z"/>
		<path opacity="0.3" d="M185.6,153c0-0.9-0.2-5.9-0.2-5.9s-0.1,3-2.8,5.6c-0.9,0.9-3.3,1.1-3.3,1.1c1.4,0.6,4.7-0.2,5.5-1.3
			c0.7,0.3,0.6,1.5,0.3,2.3C185.4,154.3,185.6,153.5,185.6,153z"/>
	</g>
	<g>
		<ellipse opacity="0.3" cx="164.5" cy="162" rx="7.5" ry="4"/>
		<path fill="#825012" d="M168,139v8c0,2.1-0.3,3.1-2,3.3V135h-3v14.4c-0.6-0.3-1-0.8-1-1.7V138h-1v10c0,1.3,0.8,2.4,2,2.8V162
			c0,0.6,0.7,1,1.5,1s1.5-0.4,1.5-1v-10c1.7,0,3-1.3,3-3v-10H168z"/>
		<path fill="#539B00" d="M180,134c0-2.1-1.1-4-2.7-5c1.1-1.4,1.7-3.1,1.7-5c0-3.4-2.1-6.3-5.2-7.5c0.1-0.5,0.2-1,0.2-1.5
			c0-4.4-3.6-8-8-8c-4,0-7.4,3-7.9,6.9c-3,1.5-5.1,4.5-5.1,8.1c0,1.2,0.2,2.3,0.6,3.3c-1.6,1.2-2.6,3.1-2.6,5.2c0,2,0.9,3.8,2.3,5
			c-0.2,0.7-0.3,1.5-0.3,2.3c0,5.1,4.1,9.3,9.3,9.3c2.2,0,4.3-0.8,5.9-2.1c0.4,0.1,0.9,0.1,1.3,0.1c3.5,0,6.5-2.4,7.3-5.7
			C178.7,138.3,180,136.3,180,134z"/>
		<path fill="#825012" d="M163,128.8c-1.7,0-3-0.4-3-2.1V124h-1v3c0,1.7,1.3,3,3,3h1V128.8z"/>
		<path fill="#825012" d="M169,136.8c1.7,0,3-0.4,3-2.1V132h1v3c0,1.7-1.3,3-3,3h-1V136.8z"/>
		<rect x="162" y="121.4" fill="#825012" width="1" height="9.6"/>
		<path opacity="0.2" fill="#FFFFFF" d="M166.5,123c2.2,0,4.1,1.3,4.9,3.1c0.3-0.1,0.7-0.1,1.1-0.1c1.8,0,3.4,0.9,4.4,2.2
			c-0.4-1.8-2-3.2-3.9-3.2c0,0-0.1,0-0.1,0c-0.5-2.3-2.5-4-4.9-4c-2,0-3.7,1.2-4.5,2.9C164.3,123.3,165.4,123,166.5,123z"/>
		<path opacity="0.2" fill="#FFFFFF" d="M157,122.5c0-2.5,1.7-4.6,4-5.3c0.2-2.9,2.5-5.2,5.5-5.2c1.7,0,3.3,0.8,4.3,2.1
			c-0.6-2.4-2.8-4.1-5.3-4.1c-2.9,0-5.3,2.2-5.5,5.1c-2.3,0.5-4,2.5-4,4.9c0,1.1,0.4,2.2,1,3C157,122.8,157,122.7,157,122.5z"/>
		<path opacity="0.3" d="M180,134c0-0.4,0-0.8-0.1-1.2c-0.6,3.8-3.9,6.7-7.9,6.7c-0.1,0-0.3,0-0.4,0c0.7,0.3,1.6,0.5,2.4,0.5
			c0.7,0,1.3-0.1,1.9-0.3c-1.4,1.4-3.3,2.3-5.4,2.3c-1,0-2-0.2-2.9-0.6c-1.7,1.6-3.9,2.6-6.4,2.6c-3.5,0-6.6-2-8.1-4.8
			c0.7,4.4,4.5,7.8,9.1,7.8c2.2,0,4.3-0.8,5.9-2.1c0.4,0.1,0.9,0.1,1.3,0.1c3.5,0,6.5-2.4,7.3-5.7C178.7,138.3,180,136.3,180,134z"
			/>
		<path opacity="0.3" d="M155,133.5c-1.9-0.8-3.4-2.4-3.9-4.5c-0.1,0.5-0.2,1-0.2,1.5c0,2.4,1.3,4.4,3.2,5.6
			C154.3,135.2,154.6,134.3,155,133.5z"/>
	</g>
	<g>
		<ellipse opacity="0.3" cx="121.5" cy="180" rx="7.5" ry="4"/>
		<path fill="#825012" d="M125,158v9.6c0,1.3-0.8,1.9-2,2V156h-3v12.3c-1.7-0.2-2-1.2-2-3.3v-8h-1v10c0,1.7,1.3,3,3,3v10
			c0,0.6,0.7,1,1.5,1s1.5-0.4,1.5-1v-9c1.7,0,3-1.3,3-3v-10H125z"/>
		<path fill="#539B00" d="M137,154.5c0-1.8-0.7-3.4-1.9-4.6c0.6-1.2,0.9-2.5,0.9-3.9c0-3.5-2.1-6.6-5-8.1c0-0.1,0-0.3,0-0.4
			c0-2.5-2-4.5-4.5-4.5c-0.7,0-1.3,0.2-1.9,0.4c-1.3-0.9-2.9-1.4-4.6-1.4c-3.2,0-6,1.9-7.3,4.7c-2.8,1.3-4.7,4-4.7,7.3
			c0,1.1,0.2,2.1,0.6,3.1c-1.6,1.1-2.6,2.9-2.6,4.9c0,1.8,0.8,3.4,2,4.5c0.3,4.7,4.2,8.5,9,8.5c0.3,0,0.6,0,0.9,0
			c1.7,1.9,4.1,3,6.8,3c4.7,0,8.5-3.5,9.2-8C135.8,158.9,137,156.8,137,154.5z"/>
		<path opacity="0.2" fill="#FFFFFF" d="M112.1,146c2.2,0,4.1,1.3,4.9,3.1c0.3-0.1,0.7-0.1,1.1-0.1c1.8,0,3.4,0.9,4.4,2.2
			c-0.4-1.8-2-3.2-3.9-3.2c0,0-0.1,0-0.1,0c-0.5-2.3-2.5-4-4.9-4c-2,0-3.7,1.2-4.5,2.9C109.9,146.3,111,146,112.1,146z"/>
		<path opacity="0.2" fill="#FFFFFF" d="M120.5,136c2.4,0,4.3,1.9,4.5,4.2c0.5-0.1,1-0.2,1.5-0.2c2.5,0,4.6,1.6,5.3,3.9
			c0.1-0.4,0.2-0.9,0.2-1.4c0-2.5-2-4.5-4.5-4.5c-0.5,0-1,0.1-1.5,0.3c-0.1-1.8-1.6-3.3-3.5-3.3c-1,0-1.9,0.4-2.5,1
			C120.2,136,120.3,136,120.5,136z"/>
		<g>
			<path opacity="0.3" d="M133.5,157.7c0.3,0.7,0.4,1.5,0.5,2.3c1.7-1.1,2.9-2.9,3-5C136.2,156.3,134.9,157.2,133.5,157.7z"/>
		</g>
		<path opacity="0.3" d="M125.8,166c-3.8,0-7-2-8.8-5c-0.3,0-0.6,0-0.9,0c-3.5,0-6.5-2-8-4.9c0.1,4.9,4.1,8.9,9,8.9
			c0.3,0,0.6,0,0.9,0c1.7,1.9,4.1,3,6.8,3c3.6,0,6.6-2,8.2-4.9C131.1,164.9,128.5,166,125.8,166z"/>
	</g>
</g>
</svg>
