<svg xmlns:xlink="http://www.w3.org/1999/xlink"  enable-background="new 0 0 80 56" height="56" viewBox="0 0 80 56" width="80" xmlns="http://www.w3.org/2000/svg"><g fill="#999"><path d="m45 17c-1.8 0-3.4.7-4.6 1.8-1.5-1.1-3.4-1.8-5.4-1.8-5 0-9 4-9 9-1.8-1.3-4.1-2-6.5-2-6.4 0-11.5 5.1-11.5 11.5 0 .6.1 1.2.1 1.8-3 1.7-5.1 4.9-5.1 8.7 0 5.5 4.5 10 10 10 5.4 0 9.7-4.2 10-9.5 4.7-1.5 8-5.8 8-11 0-.5 0-1-.1-1.5 1.2.6 2.6 1 4.1 1 3.3 0 6.1-1.8 7.7-4.4.7.2 1.5.4 2.3.4 3.9 0 7-3.1 7-7s-3.1-7-7-7z" opacity=".3"/><path d="m69.9 8.2c-2.7-4.9-7.9-8.2-13.9-8.2-3 0-5.7.8-8.1 2.2-1.9-1.4-4.3-2.2-6.9-2.2-5.6 0-10.2 3.8-11.6 9-1.7-.6-3.5-1-5.4-1-8.8 0-16 7.2-16 16v.7c-4.6 1.6-8 6.1-8 11.3 0 6.6 5.4 12 12 12 5.2 0 9.7-3.4 11.3-8h.7c2.3 0 4.5-.5 6.5-1.4 1.6.9 3.5 1.4 5.5 1.4 3.1 0 5.9-1.2 8-3.1 2.1 1.9 4.9 3.1 8 3.1 5.5 0 10.2-3.8 11.6-8.9 1.4.5 2.9.9 4.4.9 6.6 0 12-5.4 12-12 0-6-4.4-10.9-10.1-11.8z" opacity=".5"/><path d="m57.5 6c-.8 0-1.5.1-2.2.4-1.8-2.7-4.9-4.4-8.3-4.4s-6.3 1.7-8.2 4.2c-.5-.1-1.2-.2-1.8-.2-2 0-3.9.8-5.3 2-1.9-1.3-4.2-2-6.7-2-6.6 0-12 5.4-12 12 0 .7.1 1.4.2 2.1-.4-.1-.8-.1-1.2-.1-5 0-9 4-9 9s4 9 9 9c4.9 0 8.8-3.9 9-8.7 1.3.4 2.6.7 4 .7 5.2 0 9.7-3.4 11.3-8h.7c1.8 0 3.4-.6 4.7-1.5.4.2.7.4 1.1.6 1 .9 2.3 1.4 3.7 1.4 1 0 2-.3 2.8-.8 2.2-.5 4-1.7 5.4-3.4.8.4 1.8.6 2.8.6 3.6 0 6.5-2.9 6.5-6.5s-2.9-6.4-6.5-6.4z" opacity=".3"/></g></svg>