<svg xmlns:xlink="http://www.w3.org/1999/xlink"  enable-background="new 0 0 40 48" height="48" viewBox="0 0 40 48" width="40" xmlns="http://www.w3.org/2000/svg"><path d="m9 3-1 .5 5 23 1 .5 1-.5-5-23z" fill="#825012"/><path d="m15 26.5-1 .5-5-23 1-.5z" opacity=".39"/><path d="m13 26.5 1 .5-5-23-1-.5z" opacity=".06"/><path d="m12.8 21.5-1-.5-8 4v1l1 .5 8-4z" fill="#825012"/><path d="m4.8 25.5v1l8-4v-1z" opacity=".39"/><path d="m4.8 25.5-1-.5v1l1 .5z" opacity=".06"/><path d="m9 3-1 .5-6 28.5 1 .5 1-.5 6-28.5z" fill="#825012"/><path d="m4 32-1 .5 6-28.5 1-.5z" opacity=".39"/><path d="m2 32 1 .5 6-28.5-1-.5z" opacity=".06"/><path d="m37 38.5-10 5-23-11.5 10-5z" opacity=".3"/><path d="m33 32.5-17-8.5-2 1v1l17 8.5 2-1z" fill="#baa794"/><path d="m31 33.5v1l2-1v-1z" opacity=".39"/><path d="m31 33.5-17-8.5v1l17 8.5z" opacity=".06"/><path d="m30.5 33.8-17-8.5-2 1v1l17 8.5 2-1z" fill="#baa794"/><path d="m28.5 34.8v1l2-1v-1z" opacity=".39"/><path d="m28.5 34.8-17-8.5v1l17 8.5z" opacity=".06"/><path d="m28 35-17-8.5-2 1v1l17 8.5 2-1z" fill="#baa794"/><path d="m26 36v1l2-1v-1z" opacity=".39"/><path d="m26 36-17-8.5v1l17 8.5z" opacity=".06"/><path d="m25 33.5-17-8.5-1 .5 1 2.5 17 8.5 1-.5z" fill="#baa794"/><path d="m24 34 1 2.5 1-.5-1-2.5z" opacity=".39"/><path d="m24 34-17-8.5 1 2.5 17 8.5z" opacity=".06"/><path d="m23.8 30.5-17-8.5-1 .5 1 2.5 17 8.5 1-.5z" fill="#baa794"/><path d="m22.8 31 1 2.5 1-.5-1-2.5z" opacity=".39"/><path d="m22.8 31-17-8.5 1 2.5 17 8.5z" opacity=".06"/><path d="m19.8 29.5-1-.5-.5.3 2.2 5.5 1 .5.5-.3z" fill="#baa794"/><path d="m19.3 29.8 2.2 5.5.5-.3-2.2-5.5z" opacity=".39"/><path d="m19.3 29.8-1-.5 2.2 5.5 1 .5z" opacity=".06"/><path d="m9.8 24.5-1-.5-.5.3 2.2 5.5 1 .5.5-.3z" fill="#baa794"/><path d="m9.3 24.8 2.2 5.5.5-.3-2.2-5.5z" opacity=".39"/><path d="m9.3 24.8-1-.5 2.2 5.5 1 .5z" opacity=".06"/><path d="m32.8 32.5h.1l-2.5-15.9.3.1v-1.2h-.3v.8l-.7-.3v-1h-.3v1.1l.5.2-6.4 14.2h.2l6.3-14.1.1.1z" fill="#2d3134"/><path d="m15.9 24.1h.2l-2.6-15.9.3.2v-1.3h-.3v.8l-.7-.3v-1h-.3v1.1l.5.2-6.4 14.2h.2l6.4-14.1v.1z" fill="#2d3134"/><path d="m9.7 4.2c.2-.1.3-.1.4 0l23 11.5c.1.1.2.2.2.3 0 .3-.3.7-.6.9-.2.1-.3.1-.4 0 0 0-23-11.5-23-11.5-.1 0-.2-.1-.2-.3 0-.3.3-.7.6-.9z" fill="#825012"/><path d="m32.3 17s-23-11.5-23-11.5c-.1-.1-.2-.2-.2-.4 0-.1 0-.3.1-.4l23 11.5c-.1.1-.1.3-.1.4.1.2.1.3.2.4z" opacity=".11"/><path d="m32.2 16.6c0 .3.3.5.6.3s.6-.6.6-.9-.3-.5-.6-.3c-.4.2-.6.6-.6.9z" opacity=".29"/><path d="m33 15-1 .5 5 23 1 .5 1-.5-5-23z" fill="#825012"/><path d="m39 38.5-1 .5-5-23 1-.5z" opacity=".39"/><path d="m37 38.5 1 .5-5-23-1-.5z" opacity=".06"/><path d="m36.8 33.5-1-.5-8 4v1l1 .5 8-4z" fill="#825012"/><path d="m28.8 37.5v1l8-4v-1z" opacity=".39"/><path d="m28.8 37.5-1-.5v1l1 .5z" opacity=".06"/><path d="m33 15-1 .5-6 28.5 1 .5 1-.5 6-28.5z" fill="#825012"/><path d="m28 44-1 .5 6-28.5 1-.5z" opacity=".39"/><path d="m26 44 1 .5 6-28.5-1-.5z" opacity=".06"/></svg>