<svg xmlns:xlink="http://www.w3.org/1999/xlink"  enable-background="new 0 0 80 160" height="160" viewBox="0 0 80 160" width="80" xmlns="http://www.w3.org/2000/svg"><path d="m27.5 134.5c-7 4.3-7.6 9.5 1.6 14.4 10 5.4 15.9 4.2 23.7-.3 6.8-3.9 5.3-9.3-6.2-13.9-9.4-3.7-14.1-3.3-19.1-.2z" opacity=".2"/><path d="m32.7 126.7s2.3 10.8-1.3 11.9-9 1.9-8.9 2.5 2.9.2 3.4.8c.5.7-.4 1.9.3 2s2.7-.9 4.3-.8c1.7.1 2.3.9 3 .9s1.4-1.5 1.8-2.8.5-2.8 1.2-2.9 3.1.4 3.1 0-3.4-.9-3.7-3.1c-.4-2.1.5-7.5.5-7.5z" fill="#f90"/><path d="m22.3 65.7c-1.5-5.5-1.4-9.9 3.1-11s11.7.2 12.3 11c.5 10.8-1.2 27.6.9 28.3s20 2.5 24.8 9.7-1.6 21.5-8.2 24.8c-6.6 3.4-17.7 4.4-28-4.4s-8.6-21.6-6-28 6.3-17.9 5.7-22.6c-.5-4.6-4.1-5.9-4.6-7.8z" fill="#999"/><path d="m63.2 106.3c1.5-1.2 5.5-2.6 7.9-.6s4 2.8 2.8 3.8c-1.2.9-11 1.9-11 1.9z" fill="#999"/><path d="m71.1 105.7c-.4-.3-.7-.5-1.1-.7 2.3 1.9 3.7 2.7 2.6 3.6-.9.7-6.8 1.4-9.6 1.7l-.1 1s9.9-.9 11-1.9c1.1-.9-.4-1.7-2.8-3.7z" opacity=".2"/><path d="m21.1 60.1s.4 1.5 0 1.9-6.1 7.6-5 8.5c.9.8 10.1-1 11.6-3.1-.5-.9-1.4-1.5-1.9-3.5s-.9-3.5-.9-3.5z" fill="#f90"/><path d="m27.7 60.4s-.2-1.6.6-1.9 1.9.6 1.9.6.2 2.1-2.5 1.3z" fill="#2d3134"/><path d="m49.7 129s.3 8.3-1.1 11.3-9.6 4-9.5 5c.1.9 2.8-.1 3.2.8s-.8 2.2.2 2.5 3.7-.9 5.3-.7c1.6.3 2.6 1.3 3.2 1.2s.5-8.3.8-11.1 3.4-10.2 3.4-10.2-3 3-5.5 1.2z" fill="#f90"/><path d="m67.6 108.3s-4.9-7-13.6-8.6-12.3 7.5-12.3 7.5c3.2 3.6 0 0 0 0s3.9 6.7 11.5 7.5 10.6-.7 12.7-2.5c1.2-1 1.6-3.4 1.7-3.8z" fill="#999"/><path d="m67.6 108.3s-4.9-7-13.6-8.6-12.3 7.5-12.3 7.5c3.2 3.6 0 0 0 0s3.9 6.7 11.5 7.5 10.6-.7 12.7-2.5c1.2-1 1.6-3.4 1.7-3.8z" opacity=".15"/><path d="m41.7 107.3s3.9 6.7 11.5 7.5 10.6-.7 12.7-2.5c1.3-1.1 1.7-3.9 1.7-3.9s-.5 1.5-1.1 1.6c-.5.1-.6-.7-.6-.7s-.9 3.3-2.4 3c-1.2-.2-.3-1.9-.3-1.9s-2.5 3.1-6.4 3.4c-8.9.7-15.1-6.5-15.1-6.5z" opacity=".2"/><g opacity=".2"><path d="m48.9 144.6-5.7 4c1.2-.2 3.2-.9 4.5-.7.8.1 1.5.5 2.1.8-.5-1.8-.9-4.1-.9-4.1z"/><path d="m45.2 144.7s-3.6.8-5.3 1.1c.9 0 2.1-.2 2.4.4s-.1 1.3-.2 1.8z"/></g><g opacity=".2"><path d="m33.3 140.5s-2.6 1.8-4.7 3c.7-.2 1.4-.3 2-.3 1.1.1 1.8.5 2.3.7-.4-1.2.4-3.4.4-3.4z"/><path d="m29.1 140.7s-3 .5-4.9.9c.7 0 1.5.1 1.7.4s.1.8 0 1.2c1.2-1.1 3.2-2.5 3.2-2.5z"/></g></svg>