<svg xmlns:xlink="http://www.w3.org/1999/xlink"  enable-background="new 0 0 80 160" height="160" viewBox="0 0 80 160" width="80" xmlns="http://www.w3.org/2000/svg"><path d="m31.8 134.7c-6.7 4.1-7.2 9.1 1.5 13.7 9.6 5.1 15.2 4 22.6-.3 6.5-3.8 5-8.9-5.9-13.3-8.9-3.4-13.5-3-18.2-.1z" opacity=".2"/><g fill="#f90"><path d="m29.5 138.1c-.1 1.3-1.6 5.2.1 5.9s4.9-.5 7.3-.9 3.7-1.3 3.5-1.8-3.1.3-3.8-.2 1.6-2 .9-2.3-4.8 1.7-4.9.9-.1-3.3-.1-3.3z"/><path d="m54.8 58.9c1.5 1.9 4.8 5.5 4.8 5.5s-1.4 1-5 1.6.2-7.1.2-7.1z"/><path d="m43 132.5c.7 2.7 2.1 7.9 1.4 9.7s-3.4 3.7-2.8 4 2.2-1.1 2.4-.6-.1 2.9 3.3 2.4c3.4-.6 10.2-.8 9.8-1.9s-2.8-.1-3.9-.8.3-1.8 0-2.2c-.4-.3-2.3.5-3.5.5s-2.4 0-2.6-1.5c-.2-1.6.6-4.4.7-6.9s.1-5.6.1-5.6z"/></g><path d="m50.3 54.2c-4.9.4-8.6 3.7-8.9 10.5s1.2 25.5-1 26.7-15.6 3.3-22 23.8 2.5 27.8 13.2 24.4c10.7-3.3 11.4-6.1 11.4-6.1s3.2 1.3 5.4-1.7c2.2-2.9 3.5-8.2 4.6-10.1 1.2-2 8.6-9.6 5.7-20s-8.3-23.2-7.2-30.7c1-6.5 3-2.8 3.9-6.5.9-3.5 0-10.7-5.1-10.3z" fill="#999"/><path d="m17.2 129.4s-12.8 2-13 4.8 7.8 6 11.9 4.4 5.4-6.4 5.4-6.4z" fill="#999"/><path d="m11.4 136.4c-6.1-.5-7.2-3.5-7.2-2.2 0 2.8 7.8 6 11.9 4.4 1.8-.7 3-1.9 3.8-3.1 1.3-1.7-4.6 1.2-8.5.9z" opacity=".15"/><path d="m18.1 129.8s-3.6 2.3 0 3.2 15.2-1.7 24-7.4c8.9-5.8 13.8-16.4 13.8-16.4s-10.4 14.9-12.4 13.9c-1.6-.8-1.1-2-1.1-2s-5.7 7.9-8 7c-2.4-.9-.6-3-.6-3s-5.6 6.1-10.5 6.1-5.2-1.4-5.2-1.4z" opacity=".2"/><path d="m17.4 128s-3 4.1.6 5 15.2-1.7 24-7.4c8.9-5.8 13.8-16.4 13.8-16.4s3-13.7-13.1-9.3c-12 3.4-25.3 28.1-25.3 28.1z" opacity=".15"/><path d="m48.9 145.5 4.9-.1c-.2 0-.4-.1-.6-.2-.7-.4-.4-1-.2-1.5-.9.6-4.1 1.8-4.1 1.8z" opacity=".2"/><path d="m33.6 141.7 3.8-.4c-.3 0-.6-.1-.8-.2-.4-.3.2-.9.6-1.5-1.1.7-3.6 2.1-3.6 2.1z" opacity=".2"/><path d="m33.6 98.9c-2.5 3.8-17.9 31-19.5 31s4.8-25 14.3-32.1c8.7-6.4 5.2 1.1 5.2 1.1z" fill="#999"/><path d="m33.6 98.9c-2.5 3.8-17.9 31-19.5 31s4.8-25 14.3-32.1c8.7-6.4 5.2 1.1 5.2 1.1z" opacity=".15"/><path d="m53.5 58c0 .5 1.4 1.1 1.2-.1-.3-1.1-1.2-.5-1.2.1z" fill="#2d3134"/></svg>