<svg xmlns:xlink="http://www.w3.org/1999/xlink"  enable-background="new 0 0 20 20" height="20" viewBox="0 0 20 20" width="20" xmlns="http://www.w3.org/2000/svg"><path d="m6.2 10.5c4.6-2.5 4.8-4.8 7.5-3.7s1.2 2.9-.2 3-3.6.6-3.2 1.5c.5.9 4 .5 6 .3s2.9.1 3.1 1.5-1 2.5-2.7 2.2-1.7-.5-2-.5.5.5.8 1-.9 2.2-2.3 1.2c-1.3-1-2.3-2.6-3.3-2.6s-1.5-.1-1.5.4 2.2 1.4.9 2.7-2.9.1-3.3-.6-.7-2.1-2-1.4c-1.5.9-3.6 1-3.4-1.4s2.6-2 5.6-3.6z" fill="#baa794"/><path d="m6.2 10.5c4.6-2.5 4.8-4.8 7.5-3.7s1.2 2.9-.2 3-3.6.6-3.2 1.5c.5.9 4 .5 6 .3s2.9.1 3.1 1.5-1 2.5-2.7 2.2-1.7-.5-2-.5.5.5.8 1-.9 2.2-2.3 1.2c-1.3-1-2.3-2.6-3.3-2.6s-1.5-.1-1.5.4 2.2 1.4.9 2.7-2.9.1-3.3-.6-.7-2.1-2-1.4c-1.5.9-3.6 1-3.4-1.4s2.6-2 5.6-3.6z" fill="#baa794"/><g opacity=".15"><path d="m9 15.3c.4.5.5 1.2-.1 1.9-.5.6-1.1.7-1.6.6.6.3 1.4.3 2-.4.9-.9.2-1.6-.3-2.1z"/><path d="m3.6 14.8c-.9.6-2 .9-2.7.4.5 1 2 .8 3.2.1.5-.3.8-.2 1.1-.1-.3-.5-.8-.9-1.6-.4z"/><path d="m14.9 7.6c-.2.7-.9 1.4-1.7 1.6-.8.3-2.6 1.3-2.6 1.3.6-.5 2-.7 2.9-.8 1.1 0 2.3-1.1 1.4-2.1z"/><path d="m19.4 13.1c-.1-.5-.2-.9-.5-1.1v.2c.2 1.6-1 2.9-2.7 2.5s-1.7-.6-2-.6.4.7.5.7c.4 0 .4.2 2 .5s2.9-.8 2.7-2.2z"/><path d="m9.5 13.6c-1 0-1.5-.1-1.5.4 0 .2.2.4.5.6 0-.4.5-.4 1.5-.4.6 0 1.1.5 1.7 1.1-.8-.8-1.5-1.7-2.2-1.7z"/><path d="m15 15.1s0 .1 0 0c.3.6-.7 2.2-1.8 1.7 0 0 .1.1.1.1 1.3 1 2.5-.7 2.3-1.2-.2-.2-.4-.4-.6-.6z"/></g><path d="m3.8 13.7c0-.7.2-1.4.5-1.9-.4.2-.7.8-.7 1.5 0 .4.1.8.3 1.1-.1-.3-.1-.5-.1-.7z" opacity=".15"/><path d="m7.3 12.9c-.3-.7-.5-1.4-.5-2.1-.3.4-.3 1.1.1 1.8.2.4.5.7.8.9-.2-.2-.3-.4-.4-.6z" opacity=".15"/><path d="m16.4 13.8c0-.8.2-1.5.5-2.1-.4.2-.7.9-.7 1.6z" opacity=".15"/><path d="m11.8 9c-.3-.5-.4-1-.4-1.5-.3.4-.3.9 0 1.4.2.3.4.4.7.5-.1-.1-.2-.2-.3-.4z" opacity=".15"/><path d="m9.4 10.6c-.4-.4-.6-.9-.7-1.4-.2.4-.1 1 .2 1.3z" opacity=".15"/><path d="m11.5 13.7c.4-.7.9-1.3 1.4-1.6-.5 0-1.1.4-1.4 1.1-.2.4-.3.8-.3 1.2.1-.2.2-.4.3-.7z" opacity=".15"/><path d="m6.6 15.9c.3-.5.7-.9 1.2-1.2-.5 0-1 .2-1.2.8z" opacity=".15"/><path d="m12.6 15.3c.4-.5.9-.8 1.4-.9-.4-.1-1 .1-1.3.5-.2.3-.3.6-.3.9 0-.2.1-.3.2-.5z" opacity=".15"/></svg>