<svg xmlns:xlink="http://www.w3.org/1999/xlink"  enable-background="new 0 0 240 400" height="400" viewBox="0 0 240 400" width="240" xmlns="http://www.w3.org/2000/svg"><path d="m187.8 20.1s1.7-10.6 1.5-12.5c-.1-1.9-1.1-6.3 2.4-6.1 3.4.1 1.8 4.4 1.5 6.6-.2 2.2.5 11.2.5 11.2z" fill="#915645"/><ellipse cx="191.5" cy="4.4" fill="#4a2121" rx="2.9" ry="3.7" transform="matrix(.9953 .09695897 -.09695897 .9953 1.3257 -18.5479)"/><path d="m65 348.2c-20.3 6.1-63.4 15.4-39.8 37.7 22.1 20.8 61.7 6.1 81.6.3 29.3-8.5 59.8-22 45.8-35.5-14.3-13.8-49.3-14-87.6-2.5z" opacity=".2"/><path d="m90.4 228.5s4.3 20.7 3.9 26.7c-.4 5.9-.7 18.6 1.8 30.3 2.5 11.6 3.3 27.1 2.2 34.4s-2.1 13.1-1.2 15.5c.8 2.3 3.3 5.5 2.8 11.1s0 9.4 6.9 9.9c6.9.6 13.7-1.9 14-4s-7.9-6.1-9.4-9.4-4-34.9-3.5-43.5c.6-8.6 2.1-15.3 1.8-25.1s-2.1-22.2 2.9-38.1 7.9-23.8 7.9-23.8z" fill="#cd9a83"/><path d="m90.4 228.5s4.3 20.7 3.9 26.7c-.4 5.9-.7 18.6 1.8 30.3 2.5 11.6 3.3 27.1 2.2 34.4s-2.1 13.1-1.2 15.5c.8 2.3 3.3 5.5 2.8 11.1s0 9.4 6.9 9.9c6.9.6 13.7-1.9 14-4s-7.9-6.1-9.4-9.4-4-34.9-3.5-43.5c.6-8.6 2.1-15.3 1.8-25.1s-2.1-22.2 2.9-38.1 7.9-23.8 7.9-23.8z" opacity=".15"/><path d="m106.5 356.6c7.3.6 14.4-2 14.6-4.2.3-2-7.3-5.9-9.5-9.2-.5 5-3.6 10.4-10.3 11.8 1.2.9 2.9 1.4 5.2 1.6z" fill="#2d3134"/><path d="m218.4 54.4c4.2-3.1 3-11 .1-13.2s-5-4.5-6.5-6.8c-1.6-2.4-5.3-8.4-5.8-11.2s-3.6-6.4-8.8-7.6c-5.2-1.1-8.8-1.9-14.3 4.8-5.5 6.6-37.9 62.4-52.4 79.6s-34.7 29.6-44 40.2-45.6 33.2-56.8 55.1-.2 48.7-2.5 62.4-10.8 25.5-12 30.3 3.7 12.2 3.9 25.3-1.7 43.7.2 46 3.3 5.2 4.1 9.1.2 11 6.8 11.6 14.9-2.9 14.9-4.8-5.6-7.3-7.9-8.7c-2.3-1.5-5.4-1.2-6.1-10.2-.7-8.9-1.7-35.5 1.2-50.7 2.9-15.1 18-43.8 18-43.8s2.9 12.3-.4 22c-3.3 9.6-5.2 14.2-4.2 25.2.9 11 2.6 27.4 1.2 41.2-1.3 13.9-2 19.5-.9 22 1 2.5 3.2 3.6 3.3 9.5s-.9 10.4 3.4 11.6 16.9-1.5 17.2-4.6-10.3-9.3-11.4-12.3-2.5-14.8-1.3-28.9 3.2-35.6 9.5-50.9c6.3-15.2 15.3-27.2 19.3-42.3 3.9-15 4.4-20.7 4.4-20.7s12-1.9 19.9-6.7c7.9-4.9 8.8-6.9 8.8-6.9s5.2 12.7 5.2 27.1-1.1 26.3-1.1 38.3 2.4 28.1 1.1 40.8c-1.2 12.7-3.5 15.7-2 22 1.6 6.2 2.2 6.2 1.8 10.5-.4 4.2.2 8.5 4.1 9.5s16.1-.3 16.7-3.7-7.3-6.4-8.7-9c-1.5-2.6-1.9-23.4-.9-37.7.9-14.3 5.2-22.4 5.2-30.4s-1.9-23.7 2.9-41.6 9.6-34.2 6.2-53.9-8.5-24.6-6.8-35.8c1.7-11.3 15.9-35.4 24.3-57.8s21.8-50 21.8-50 3.8 1.2 8.9 1.8c5.1.5 8.7-.5 10.2.9 1.5 1.3 5.2 7 10.2 3.4z" fill="#cd9a83"/><path d="m218.5 41.2c-2.9-2.2-5-4.5-6.5-6.8-1.6-2.4-5.3-8.4-5.8-11.2s-3.6-6.4-8.8-7.6c-1.6-.4-3.1-.7-4.5-.7-1.3 1.6-1.7 3.2-1 3.9 2.2 2.1 11.2 2.3 12.4 3.5 1.2 1.1 7.6 13.5 8.7 15.3s.8 3.9-.8 7c-1.3 2.6-3.4 5.1-4.5 5.8.2.1.4.2.6.4 1.5 1.5 5.2 7.1 10.2 3.5 4.1-3 2.9-10.9 0-13.1z" fill="#915645" opacity=".7"/><path d="m186.1 21.8c-.4-4.7-6.7-7.3-9.7-6.6-3 .6 3.7 7.4 4.8 9.7s4.9-3.1 4.9-3.1z" fill="#915645"/><path d="m198.2 25.4c-1.1-4 2.5-5 4.7-5.7s5.1-.4 5.1.2-2.5 2-3.3 4.2c-.9 2.3-5.8 3.9-6.5 1.3z" fill="#915645"/><path d="m201.1 29.1s.6-.9 2.6-1.1 3.1 1.2 3.1 1.2-.9 1.3-2.6 1.7c-1.7.3-3.1-1.8-3.1-1.8z" fill="#2d3134"/><path d="m218.5 43.3s-2.4-1.8-1.7-2.5c.8-.7 1.7 2.5 1.7 2.5z" fill="#2d3134"/><path d="m218.8 53s-1.1-1.9-2.3-3.2c-1.1-1.3-2.8-4.7-3.6-3.8-.8.7 5.9 7 5.9 7z" opacity=".15"/><path d="m198 16.5-1.5-4.6s-7.9-2-22.4 17.8-27.1 46.8-39.7 64-21.3 21-30.4 30.3c-9 9.2-13.6 19.5-13.6 19.5s13.2-15.6 23.6-22.1c10.5-6.4 22.3-17.7 31.1-33.2 8.8-15.4 28.5-52.3 36.4-61s11.3-10.1 16.5-10.7z" fill="#4a2121"/><path d="m25.6 377.8c1 1.3 2.4 2.2 4.7 2.4 7 .7 15.7-3 15.7-5 0-1.7-4.6-6.4-7.3-8.5-1 5-4.6 10.1-11.9 10.8-.5.2-.8.2-1.2.3z" fill="#2d3134"/><path d="m65 381.9c-1.9 4.4-6.4 8.3-13.8 7.4-.7-.1-1.3-.1-1.9-.1.3 2.1 1.2 3.6 3.5 4.3 4.6 1.3 17.7-1.5 18.1-4.8.1-1.6-2.9-4.3-5.9-6.8z" fill="#2d3134"/><path d="m125.8 367.1c.6.6 1.4 1.1 2.5 1.4 4.1 1.1 16.9-.3 17.5-3.9.6-3.1-5.6-5.9-8.2-8.4-1 5.1-4.6 10.1-11.8 10.9z" fill="#2d3134"/><path d="m37.6 366.5c-2.3-1.5-5.4-1.2-6.1-10.2-.7-8.9-1.7-35.5 1.2-50.7 2.9-15.1 18-43.8 18-43.8s-5.1-12-7.6-20.3-4.7-27.1-7.7-27.5-2.2 23.3-.8 39.5-9.9 28-11.3 37.4 1.7 62 2.8 66.7 7.3 13.7 11.1 18.4c1.1 1.3 2.4 2 3.7 2.3 2.7-1 4.6-2.3 4.6-3.2 0-1.8-5.6-7.2-7.9-8.6z" opacity=".15"/><path d="m26.2 320.5s8-8 8.3-16.6-2.6-17.7-.6-24.5c2.1-6.8-3.3-16.2-3.7-24.7s-2.8-17.5-.7-27.5c2.1-9.9 6.2-19.1 6.2-19.1s.6-16.2-4.7-8.2c-4.2 6.4-6.8 19.3-5.8 29.6 1 10.2 3.9 26.1 1.8 31.9s-6.8 9.1-6.2 19.1 10.1 10.9 5.4 40z" fill="#915645"/><path d="m26.1 323.6s8.4-8.4 8.7-17.3c.3-9-2.7-18.5-.6-25.5s-3.5-16.9-3.9-25.8-1.2 1-3.3 7.1c-2.2 6.1-7.1 9.5-6.5 19.9.6 10.3 10.5 11.1 5.6 41.6z" fill="#4a2121"/><g fill="#915645"><path d="m171 51.5 8-7.3 8.8-1 .3 4.7-6.2 1.8.5 4.1z"/><path d="m171.7 42.9 9.1-2.3 2.6-6.8 2.3-.9-2.3-6.1-5 6.1z"/><path d="m168.9 52.5 6.2 5 6.2-.8-1 8.3-8.8-4.2-12 2.1 4.5-8.3z"/><path d="m164.5 66 7-1.5 3.9 7.2-5.5 7.6-3.9-7-7.8-2.4z"/><path d="m103.1 179.6 5.1 3.9 17.6-5.3 2.5-8.9-20.8-12.1-8.9 5.7z"/><path d="m102.3 149.2 19.9 11.1 1.7-16-8.9-19.4-10.5 10.5z"/><path d="m128.3 152.5-1.1 10 10.5 5.5.5-8.8-.5-14.9z"/><path d="m123.2 130.6 5.8 13.8 12.3-7.3-1.5-8.9h-6.4l-4.3-11.6-7.2 1.7z"/><path d="m130.8 110.8 4.8 12 8.8-.4 1.4 6.7 6.2-4.9-2.9-10.1h-9.6l-6.2-6.3z"/><path d="m136.3 103.5 5.7 6.1 10.5.1-3.1-10.3-9.5.9z"/><path d="m154.4 102.5 2.2 6.3 5.8-5.7-2.9-11.3z"/><path d="m144.4 95.8 6.1-.7 1.8 2.7 3.5-9.2-5-6.1z"/><path d="m154.3 81.3 5.9 5.5 2.5 6.5 5.8-6.2-5-11.4-7.2-1.9z"/><path d="m95 161.1 8.1-5.4-5.9-4 1.5-13.7-6.5 8.3-8.3-.8-6 9z"/><path d="m72.5 158.4 21.8 7.3 3 13.4-15.4 4.7-12-17.7z"/><path d="m66.1 168.2 6.2 10.9-14.6 3.1-6.1-10.7 7.9-6.2z"/><path d="m63.6 162.4 3.9 2.7.4-6.3z"/><path d="m49 176.6 3.2 5-8.3 2.9-.2-3.6z"/><path d="m46.6 187.9 8.2-2.9 3.4 2.1 7.4-3.3 3.7 7-10.9 7.2-13-5.3z"/><path d="m70.3 183.2 5.1-1.4 3.8 6 11.8-3.2-.4 8.8-17.6 6 .3-9z"/><path d="m95.3 184.9 5.5-2.4 9.1 6.7-1.6 7.8-14.3 4z"/><path d="m40.2 184.2 1.2 9.2 3.4 3.2-5.6 8.4-2.6-6.7-3.4-2.7 1-6.4z"/><path d="m44.6 202.8 4.3-5.4 11.7 3.8-3.7 8.1-13 7.2-2.4-5.7z"/><path d="m63.8 198.1 6.5-3.8-.9 6.7 4 6.3-11.4 1.7z"/><path d="m76.3 201.6 13.2-4.6-.4 8.5 4.5 2.6-8.7 6.7-9.1-2.3 2.1-5z"/><path d="m52.2 216.9 8.9-4.3 9.2-1.2 4.1 3.7-6.3 5.6-12.6-.6z"/><path d="m98.6 203.9 8.1-2.9 7.8 4.3-1.5 9.8-3.5 5.4-13.7-1.1-4-3.9 8-6.7z"/><path d="m73.4 222.6 5-4.8 6 1.7 4.9-2 3.3 4.7-4.4 7.4-10.2 5.7-1.7-6.4z"/><path d="m111.8 198.5 2-12.4 12.1-4.3 8.9 6.3-6.4 12.1-7.3 2.9z"/><path d="m131 171.3-1.2 8.2 8.4 5.9 5.4 5.1 3.1-4.5-4.5-17.6-3.1 3.6z"/><path d="m136.2 193.7-4.2 8.4 3.1 11.8 8.2 1.9 2.4-10.8-4.4-11.3z"/><path d="m117.5 213.3 2.6-5.9 8.7-1.8 2.7 9.7 6.3 4.5-3.7 8.4-3.2.5-4.7-8.6-6.5-3.3z"/><path d="m141.8 219.8 5.1-1.8-.7 7.3-6.2 10.3-3.6-.2.9-6z"/><path d="m40.8 224.4 2.9-4.2 4.9-1.6 6.2 5.8-.3 10.1-5.5 5.5-4.4-6.8z"/><path d="m58.9 224.4 9.3-.3 3 5.1 2.7 11.2-4 7.5-7.5 3.1-4-9.9z"/><path d="m56.9 264.6-6.4-14.1 2.9-7.3 6 10.7 4.9 2.3-.7 6.3-2.9 5z"/><path d="m67.6 257.9 1.1-4.1 5-3.6 1.3-4.1 5.6-7.1 1.5 8-3.1 8.3-10.8 7.2z"/><path d="m191.1 47.1 6.7 1.7 8-1.1-2.2-3-10.4-3.6-5.9-6.1-2.2 4.7 5.2 2.1z"/><path d="m201.6 19.3c-1.8-2.4-2.3-8.6-1.8-10s2.1-3.4 1-5.4-4.4-2-5 1.2c-.4 2.2.7 2.9.3 4.2-.3 1.3-2.8 10-2.8 10z"/></g><ellipse cx="198.5" cy="5.6" fill="#4a2121" rx="3.2" ry="4" transform="matrix(.9953 .09695897 -.09695897 .9953 1.4755 -19.2186)"/></svg>