<svg xmlns:xlink="http://www.w3.org/1999/xlink"  enable-background="new 0 0 240 400" height="400" viewBox="0 0 240 400" width="240" xmlns="http://www.w3.org/2000/svg"><path d="m190 381.4c21-7.2 65.7-18.6 40.1-41-23.9-20.9-64.8-3.9-85.3 2.9-30.3 10.1-61.7 25.3-46.5 38.9 15.5 13.9 52.1 12.7 91.7-.8z" opacity=".2"/><path d="m107.7 177.2c-2.5 18.8-9.6 25.1-5.9 45s9 42.3 8.2 52.7c-.8 10.5.8 19.9 2.5 28.5s2.7 41.4 1.3 49.4c-1.5 8-11.9 18-10.7 20.3 1.3 2.3 4.2.2 4.2.2s-.6 2.3 2.3 2.7 14.4-1.3 15.1-5.9-.4-11.1 1.5-17 1.7-8.6.2-14.9.8-44.4.4-55.5-.6-85-.6-85z" fill="#cd9a83"/><path d="m106.2 189.3-3.1 10 3.6 8.7 7.9-4.7-2.3-10.2-1.9-9.1-1.8-.4z" fill="#915645"/><path d="m102.8 208.3 4.2 3.7 4.6-.7 2 7.7-5.2 10.8-4-2.1-2.1-13.6z" fill="#915645"/><path d="m114.1 223.9-5 8.9 6 9.8 4.3 1.5.6-4.3-3.6-5.9z" fill="#915645"/><path d="m113.5 252.6 2.8-6.3-3.9-2.2-6.4-11.1 2.3 12.4z" fill="#915645"/><path d="m162.1 225.3c3.9 6.3 19.7 35 22 44.8 2.4 9.8 8.2 38.1 6.3 51.9-2 13.8-4 14.9-7.1 19.3-3.1 4.3-6.1 9.3-4.7 10.6s2.9.1 2.9.1-.8 1.8 2.5 2.2 12.7-.6 13.1-4c.4-3.5-.4-13.1 1.3-16.3s3.9-7 2.2-15.3-1.8-34.5-.4-45.8 3.2-80.4 3.2-80.4z" fill="#cd9a83"/><path d="m162.1 225.3c3.9 6.3 19.7 35 22 44.8 2.4 9.8 8.2 38.1 6.3 51.9-2 13.8-4 14.9-7.1 19.3-3.1 4.3-6.1 9.3-4.7 10.6s2.9.1 2.9.1-.8 1.8 2.5 2.2 12.7-.6 13.1-4c.4-3.5-.4-13.1 1.3-16.3s3.9-7 2.2-15.3-1.8-34.5-.4-45.8 3.2-80.4 3.2-80.4z" opacity=".15"/><path d="m107.7 177.2c-2.5 18.8-9.6 25.1-5.9 45s9 42.3 8.2 52.7c-.8 10.5.8 19.9 2.5 28.5s2.7 41.4 1.3 49.4c-1.5 8-11.9 18-10.7 20.3 1.3 2.3 4.2.2 4.2.2s-.6 2.3 2.3 2.7 14.4-1.3 15.1-5.9-.4-11.1 1.5-17 1.7-8.6.2-14.9.8-44.4.4-55.5-.6-85-.6-85z" opacity=".15"/><path d="m216.6 222.2c4.7 11.1 13.5 25.1 11.7 35.9s-7.9 20.1-7.9 20.1z" fill="#4a2121"/><path d="m29.8 36.9s1.9-12.4 1.8-14.6-1.2-7.3 2.7-7.2 2 5.1 1.8 7.7.5 13.2.5 13.2z" fill="#915645"/><path d="m33.4 37.4c1.6-3-8.8-7.5-8.8-7.5s5 14.4 8.8 7.5z" fill="#915645"/><path d="m34.3 34.2c-10.2 1.9-10.6 11.7-15.6 19s-18.4 17.2-15.3 26.6 12.7.8 17.4-2.1 9.2-2.7 15.6-4c6.4-1.4 11.2-4.7 11.2-4.7s26.9 50.1 36.1 64.2 22.3 37.1 22.3 37.1 2.9 17.3 7.9 32.4c6.3 19.1 15.3 37.9 18.9 50.2 6.4 22 8 30.6 7 36.6s-1.1 14.6.1 26.8c1.3 12.1 2.1 49.4-2.4 54.6s-12.1 13.8-10.7 15.1 4.3.1 4.3.1-1.1 2.5 1.3 2.9 17-1 16.7-6.4 1.4-16.6 2.9-20.4.1-9.3-.3-13.1-1.3-27.1 2-36.7c3.2-9.6 3.6-13.5 2.7-25-1-11.4 2.1-32.2 4-38.9 2-6.7 5.9-17.6 5.9-17.6s7.7-2.2 13.4-5.7c6.3-3.8 9.9-8 9.9-8s-1 17.7 4.2 27.3 14.2 21.8 17.6 32.9c3.3 11.2 6.7 24.7 6.6 40s.4 26.6-4.2 32.2-10.9 13.1-9.6 14.2 3.2.3 3.2.3-.8 1.5.8 2.4c1.7.8 14.6.6 15.8-3.3 1.1-3.9 1.4-12.7 2.8-14.6 1.4-2 2.8-3.1 2.8-7.3s-1.8-34.5-.6-45.6 4-18.7 3.5-21.2c-.6-2.5-12.4-16.3-11.3-32.5s11.7-39.2-3.8-63.9-49.5-30.1-58.7-37.9-37.5-19.8-46.3-29.6-52.2-66-57.2-70.9-10.1-7.5-20.9-5.5z" fill="#cd9a83"/><path d="m38.1 51.9s.4-2.4 3.2-3.6c2.8-1.3 4.3-1 4.3-1s.3 2.8-2.1 4.2c-2.3 1.4-5.4.4-5.4.4z" fill="#2d3134"/><path d="m210.1 353.5c-3.9 4.8-7.5 9.6-6.5 10.5 1.3 1.2 3.4.3 3.4.3s-.9 1.6.9 2.5 15.4.6 16.6-3.5c.3-1.1.5-2.5.8-4l-6.2-1.5c-3-.8-5.9-2.1-8.4-3.8z" fill="#2d3134"/><path d="m109.3 376.5c3.1.4 15.2-1.3 15.8-6.2.2-1.6.2-3.5.3-5.5l-5.3-1.6c-3.3-1-6.3-2.7-8.9-4.9-3.7 6.7-9.7 13.2-8.7 15 1.3 2.4 4.4.2 4.4.2s-.7 2.5 2.4 3z" fill="#2d3134"/><path d="m136.4 371.5c-4.7 5.5-11.4 13.2-10.1 14.5 1.5 1.3 4.5.1 4.5.1s-1.2 2.6 1.3 3.1c2.5.4 17.9-1 17.6-6.7 0-.7 0-1.5 0-2.3l-4.2-1.8c-3.1-1.4-5.8-3.3-8.2-5.7z" fill="#2d3134"/><path d="m183.8 354.5c3.5.4 13.3-.6 13.8-4.2.1-1 .1-2.4.1-4.1l-6-1.3c-3.1-.7-6.1-1.9-8.8-3.7h-.1c-3.2 4.5-6.2 9.6-4.8 10.8 1.5 1.3 3.1.1 3.1.1s-.8 2 2.7 2.4z" fill="#2d3134"/><g fill="#915645"><path d="m34.3 34.2c-10.2 1.9-10.6 11.7-15.6 19s-18.4 17.3-15.3 26.6 12.7.8 17.4-2.1c1.2-.7 2.4-1.3 3.6-1.7-.5-2-1.7-6.6-4-6.6-2.9 0-6.7-3.8-4.2-6.3s8-5 11.3-10 5.9-11.7 12.6-13.8c4.1-1.3 6.4-3.3 7.7-4.7-3.5-1.2-7.6-1.5-13.5-.4z" opacity=".7"/><path d="m70.7 57.1-10.5-6.9-7.4-1.4-2.3 7.2 7.4.9.2 4.9z"/><path d="m66.4 62.1-16 1.6-.3 5.8 7.8 9.7 7.7-8.8 14 .2-7.7-7.4z"/><path d="m81.6 74.5-14.9-1.1-5 11.6 8.6 6.6 2-9 9.7-3.7z"/><path d="m154.2 180.2-4.4 4.7-18.4-2.5-3.9-8.6 18.9-15.3 9.8 4.4z"/><path d="m150.4 149.8-18.2 14.1-4.1-15.7 5.8-20.7 12.1 8.9z"/><path d="m126.3 159.6 1.3 7.3-9.6 7.1-11.3-8.7-7.8-14.1z"/><path d="m127.1 138.4-3.1 16.6-16.4-6 .1-10.4 7.3-1.1 4.3-15.7 7 2.3z"/><path d="m115 119.1-3.3 14.6-10.2 1.1.4 12.1-8.8-7.3 1.6-13.5 11-1.7 6-8.3z"/><path d="m109.8 111.5-5.4 7.9-11.9 2 1.6-12.4 11.1-.5z"/><path d="m89.7 113.7-.1 6.4-9-4.4 1.4-13.4z"/><path d="m99.3 103.6-7.1.3-1.5 3.5-5.6-10 6.4-8.4z"/><path d="m90.3 85.6-9.2 11.4-1.7 7.9-6.4-11 2.4-8.9 7.9-3.5z"/><path d="m159.5 160.5-9-4.1 5.3-4.9-3.6-13.4 7.8 7.3 6.2 1.5 9.4 4.4z"/><path d="m181.6 154.3-20.7 10.7-1 13.8 16.2 2.3 9.3-19.5z"/><path d="m189.4 163.1-4.5 11.9 15.1.9 4.4-11.7-8.8-5z"/><path d="m191 156.9-3.4 3.4-1.4-6.3z"/><path d="m207.8 168.9-2.4 5.4 8.7 1.6-2.2-3.6z"/><path d="m211.9 179.8-8.6-1.6-3.1 2.6-7.8-2.2-2.7 7.6 12 5.5 12.2-7.3z"/><path d="m187.6 178.8-5.3-.6-3 6.5-12.2-1.3 1.8 8.7 18.4 3.2-1.6-8.9z"/><path d="m162.9 184.3-5.9-1.5-8.1 8 2.9 7.6 14.8 1.8z"/><path d="m215.4 176.9 2.6 7.6-3 3.7 7 7.6.8-5.1z"/><path d="m216.3 194.4-5.1-4.7-11.2 5.5 5 7.6 14.1 5.1 1.4-6z"/><path d="m196.4 192.7-7.1-2.9 1.9 6.6-3.1 6.9h11.8z"/><path d="m184.4 198.1-13.8-2.6 1.7 8.4-4.2 3.3 9.8 5.4 8.7-3.7-2.8-4.7z"/><path d="m210.9 209.6-9.7-2.9-9.3.2-3.5 4.4 7.2 4.5 12.4-2.5z"/><path d="m162.5 203.8-8.6-1.6-7 5.5 3 9.5 4.3 4.9 13.5-3.3 3.4-4.4-9.1-5.6z"/><path d="m157.2 228.6-5.8-4.1-3.6-4.1-7.3 5.6-2.6 5.2 5.6 6.7 11.1 4.1.6-6.6z"/><path d="m148.5 200.5-3.9-12.1-12.8-2.4-7.8 7.6 8.2 11.1 7.7 1.8z"/><path d="m125.1 176.3 2.5 7.9-7.5 7.3-4.6 5.9-3.7-4.1 1.7-18.2 3.7 3.1z"/><path d="m123.5 199.4 5.4 7.8-.8 6.8-4.9 6.1-7.1-13.3 2.2-6.6z"/><path d="m145.1 216.1-3.5-5.5-9-.4-1.1 10-5.7 5.5 5 7.9 3.3-.1 3.4-9.3 5.9-4.3z"/><path d="m137.3 236.7-5.4-1 1.9 7.2 7.7 9.2 3.6-.7-1.8-5.9z"/><path d="m223.3 215.3-3.5-3.7-5.1-.9-5.3 6.8 1.8 10 6.4 4.7 3.4-7.5z"/><path d="m205.3 218.1-9.3 1.2-2.3 5.5-.9 11.6 5.2 6.8 7.9 2.1 2.5-10.6z"/><path d="m213.4 256.7 4.2-15.1-4.1-6.8-4.2 11.6-4.7 3 1.7 6.2 3.7 4.6z"/><path d="m47.5 68.4-7.3 3.1-8.4 1.2 10.8-4.6 1.8-3 5.6-6.9 4 2.2-5.7 1.9z"/><path d="m58.1 85.2c.4.4 12.7 12 12.7 12l7.1 12.3-.8 6.7z"/><path d="m80.1 121.8 10.3 14.6.9-11.6z"/><path d="m145.7 243.5 4.1 8.8 4.3 2.6-.3-9.4z"/><path d="m142.9 254.8 4.9-.7 2.8 2.8-2 9-2.1-.7z"/></g><path d="m4.8 82.3s4.4-.6 7.7-3.3 5.7-6.7 5.7-6.7-3 7.3-7.5 9.5c-3.4 1.7-5 1.6-5 1.6z" opacity=".15"/><path d="m34.5 34c4.2-7.4 20.4-2.9 28 6.7s37 52.7 51.3 64.7 31.5 21.5 40.7 32.1c-9.3-6.6-16.8-8.2-25.5-13.8-12.3-7.8-24-17-31.9-29.7-8.3-13.3-29-38.7-42.7-52.7-8.2-8.4-19.9-7.3-19.9-7.3z" fill="#4a2121"/><path d="m47.9 43.8c-2.1-2.7-.3-5 2.1-6.1s6.7-1.8 7.4-.8-1.4 6.4-3.3 7.5c-2 1.1-4.8 1.2-6.2-.6z" fill="#915645"/><path d="m45.1 36.1c-2.1-2.8-2.8-10-2.1-11.6s2.5-3.9 1.2-6.3-5.3-2.3-6 1.4c-.5 2.5.8 3.3.4 4.9s-3.9 13.4-3.9 13.4z" fill="#915645"/><path d="m8.2 70.2s3.2-4.9 4.5-2.9-4.5 2.9-4.5 2.9z" fill="#2d3134"/><ellipse cx="34.3" cy="18.9" fill="#4a2121" rx="3.3" ry="4.2" transform="matrix(.9953 .09695897 -.09695897 .9953 1.9979 -3.2325)"/><ellipse cx="41.4" cy="20.6" fill="#4a2121" rx="3.5" ry="4.5" transform="matrix(.9953 .09695897 -.09695897 .9953 2.1955 -3.914)"/></svg>