<svg xmlns:xlink="http://www.w3.org/1999/xlink"  enable-background="new 0 0 80 80" height="80" viewBox="0 0 80 80" width="80" xmlns="http://www.w3.org/2000/svg"><path d="m40 54c-11 0-20 4.5-20 10v6c0 5.5 9 10 20 10s20-4.5 20-10v-6c0-5.5-9-10-20-10z" fill="#656565"/><path d="m40 74c-11 0-20-4.5-20-10v6c0 5.5 9 10 20 10s20-4.5 20-10v-6c0 5.5-9 10-20 10z" opacity=".2"/><circle cx="40" cy="36" fill="#36c" r="36"/><g fill="#9c3"><path d="m32.4 54.9h-1.8l-2.9-1.2-1.8-1.2-.6-2.3-1.1-1.2h-2.3l-1.2-1.2-.7-1.1-1.2-1.2h-3.5l-2.5-.9h-1.8l1.2 2.3v1.2l-.6 1.2-1.8 2.3v3.5l1.1 2.2c.1.1.2.2.2.3l1 1 .3.6c1.2 1.5 2.6 2.8 4 4h.6v.3c4 3.3 8.7 5.8 13.8 7.1l.2-.4.7-1.5.6-1.2.6-2.3v-2.3l1.8-3.5.6-1.2v-1.2l-1.8-1z"/><path d="m74.3 44.6-1.2-2.3-1.2-1.2-1.8-2.3-.6-2.3-2.3-4.7-.6-1.2h-3.5l-1.8-1.2h-1.2l-.6 1.2h-.5l-1.8-1.2-2.9-1.2-.6-1.2h-4.7l-1.8 1.2h-2.9l-4.1 4.7-1.8 3.5v2.3l-.6 2.3 2.3 3.5 2.3 2.3h3.5l4.1-1.2 1.2 1.2h2.3l.6 2.3-.6 2.3 1.2 1.2 1.8 4.7v2.3l-1.2 2.3v1.2l1.8 3.5v.7c8.7-4.8 15.3-13.1 17.7-23h-.5z"/><path d="m58.5 5.1-1.8.9-1.2 1.2-1.2 1.2-1.8 1.2-1.2 1.2v1.2l1.2 1.2 1.2-1.2 1.2 1.2-.6 1.2h1.9l-1.2 1.2h-.8l-.6-1.2h-.6v1.2l-2.3 1.2-1.2 1.2-2.3 1.2-1.1.8h1.2l.6 1.2-.6 1.2h-3.5l-.6 1.2v2.3l1.8 1.2h2.3l1.2-2.3 1.8-1.2v-1.2h3.5l1.2 1.2 1.8 1.2v1.2l-.6 1.2h.6l1.2-1.2v-1.2h.6l-1.2-1.2-1.2-1.2-1.2-1.2.6-1.2 1.8 1.2 2.3 2.3 1.2 2.3.6-1.2.6-1.2h1.8l.6-2.3 1.2-1.3.6 1.3 1.2 1.2.6-1.2h-.6l1.5-1.1v1.2l2.3 2.3-1.2 1.2-2.3-1.2h-1.2l-2.9 1.2h-.6l.6 1.2 4.7 1.2.6 1.2-.6 2.3v1.2l1.8 3.5 1.2 2.3 1.2 1.2.6 2.3 1.8 2.3.4-.1c.3-2.3.6-4.8.6-7.3 0-13.1-7-24.6-17.5-30.9zm2.3 6.7-1.2 1.2-.5 1-.5-1h-.6l-.6 1.2.3.5-.5.2-.4-.7h-.2l1.8-2.3-1.2-1.2.6-1.2 1.8-1.2h1.2l-1.8 1.2v1.2z"/><path d="m18.1 8.3 1.2-1.2 1.2 1.2h1.8v-1.1l1.8-1.2 1.7-2.3 1.8 1.2v1.1l-2.3 1.2 1.8 1.2 1.8 1.2 1.8-2.3-.8-1.3 1.1 1.2 1.2-1.2-1.2-1.2v-1.2l-1.8-1.2h-2.4c-1.6.6-3.2 1.4-4.7 2.2v.1h-.1c-1.8 1-3.5 2.2-5.1 3.5h1.2z"/><path d="m6.4 42.3 1.2 2.3 1.8 1.2h1.2l-.6-1.2-1.3-1.2.7-2.3-.6-1.1h-1.8l-.5-1.2 1.1-1.2v-1.2h-1.8l-.6 1.2h-1.2c.1 1.3.2 2.6.4 3.9z"/><path d="m35.7 9.5 1.2 2.3h1.8l2.9-3.5h2.3l1.2-1.2h3.5l2.4-1.1v-1.2h1.2l1.1-2.3c-4.1-1.6-8.6-2.5-13.3-2.5-1.3 0-2.6.1-3.8.2l-4 2.3 4.7 1.2v1.2l.6 1.1-1.8 1z"/><path d="m4.4 30.8.3-.2h2.9l1.8-1.2 1.2 1.2.6 2.3.6 1.2.6-1.2v-1.2-2.3l1.8-1.2 1.8-1.2 1.2-2.3 1.2-1.2 2.3-1.2.6-1.2 1.8-1.2 1.2 1.2 1.2-1.2h1.2l-1.2-1.2.6-1.2v-1.2h2.9l-.6 2.3h3.5v-1.2l-.9-.9.6-2.3-1.7-1.2-.6-2.3h-2.9l.6-1.2-1.2-1.2h-2.3l-.6 1.2v1.2h-1.2l.6 1.2-1.8 1.1h-.6l-.6 2.3h-1.2v-1.2l.6-1.2h-1.7l-1.2-1.2h-.6l-.6-1.2 2.3-2.3c-6.6 5.8-11.2 13.6-12.5 22.6z"/></g><ellipse cx="32.3" cy="28.3" fill="#fff" opacity=".1" rx="24.6" ry="22.5" transform="matrix(.7071 -.7071 .7071 .7071 -10.5679 31.1701)"/><ellipse cx="25.7" cy="21.5" fill="#fff" opacity=".1" rx="12.9" ry="9.7" transform="matrix(.7071 -.7071 .7071 .7071 -7.7 24.4597)"/><path d="m69 14.7c2.5 5 3.9 10.7 3.9 16.7 0 20.7-16.8 37.5-37.5 37.5-6 0-11.7-1.4-16.7-3.9 6 4.4 13.4 7 21.3 7 19.9 0 36-16.1 36-36 0-8-2.6-15.4-7-21.3z" opacity=".15"/></svg>