<svg xmlns:xlink="http://www.w3.org/1999/xlink"  enable-background="new 0 0 160 160" height="160" viewBox="0 0 160 160" width="160" xmlns="http://www.w3.org/2000/svg"><path d="m125.8 7.5c-.2-1.3-5.7-5.5-6.7-3.6s2.1 9.9 4 9.9 3-4.9 2.7-6.3z" fill="#e5e5e5"/><path d="m125.8 7.5c-.2-1.3-5.7-5.5-6.7-3.6s2.1 9.9 4 9.9 3-4.9 2.7-6.3z" opacity=".15"/><path d="m136.9 28.1c-1 3.8 2.4 9.6 2.4 9.6s-.6-5.5 1-9.8-1.8-5.3-3.4.2z" fill="#e5e5e5"/><path d="m136.9 28.1c-1 3.8 2.4 9.6 2.4 9.6s-.6-5.5 1-9.8-1.8-5.3-3.4.2z" opacity=".2"/><path d="m64.4 126.2c-10.4 5.6-43.7 19.8-28.2 29.3 14.4 8.8 45.2-7.9 55.4-13.3 15-8 30.1-18.8 21-24.6-9.5-5.9-28.6-2-48.2 8.6z" opacity=".2"/><path d="m45.6 77.6c-2.5 6.1-3.7 27.7-4.3 31.8-.6 4-2.3 7.9-2.3 13s-.9 18-.9 18l1.3-.2s-2 6.1 1.9 6.4 4.8-1.4 4.8-1.4-2.3-9.8-1.5-15.6c1.4-10.3 5.4-25.4 11.1-31.7s-10.1-20.3-10.1-20.3z" fill="#e5e5e5"/><path d="m99.1 87.5c-1.1 7.7-2.6 19.7-2 24.7s1.6 7 1.1 7.8-2.3 2.5-4.8 1.5c-2.5-.9-1.1-5.7-1.1-5.7l-1.1.8s-.1-2.4.6-4.6 1.2-6.6.3-13.7-2.7-13.6-2.7-13.6z" fill="#e5e5e5"/><path d="m45.6 77.6c-2.5 6.1-3.7 27.7-4.3 31.8-.6 4-2.3 7.9-2.3 13s-.9 18-.9 18l1.3-.2s-2 6.1 1.9 6.4 4.8-1.4 4.8-1.4-2.3-9.8-1.5-15.6c1.4-10.3 5.4-25.4 11.1-31.7s-10.1-20.3-10.1-20.3z" opacity=".2"/><path d="m99.1 87.5c-1.1 7.7-2.6 19.7-2 24.7s1.6 7 1.1 7.8-2.3 2.5-4.8 1.5c-2.5-.9-1.1-5.7-1.1-5.7l-1.1.8s-.1-2.4.6-4.6 1.2-6.6.3-13.7-2.7-13.6-2.7-13.6z" opacity=".2"/><path d="m98.2 120c.2-.3.1-.9-.1-1.9-1.9 1.3-4.3 1-6.2.1-.1 1.3.2 2.9 1.4 3.3 2.6 1 4.4-.7 4.9-1.5z" fill="#2d3134"/><path d="m147.8 20.7c-.4-2.2-3.7-4.7-5.1-7.4s-4.1-5.3-6.1-6.7c-3.8-2.7-13.3-3.2-16.9 4.7-1.1 2.4-2.2 5.3-3.6 9-4.2 11.1-9.7 19.6-19 22.2s-15.1 2.9-27.3 8c-12.1 5.1-15.8 7.8-17.7 10.8s-5.4 7.4-9.1 12.3-10.2 11.8-9.6 12.2c1.5 1 9.3-3.8 11.3-5-1.9 8.4-2.9 25.1-3.4 28.6-.4 2.5-1.2 5-1.8 7.8 1.2-2.7 2.3-5.2 3.1-6.3 2.1-3.2 4.5-11.1 4.5-11.1s2.6 7.8 13.3 8.4c-.8 5.5-5.1 13.1-5.9 15.1-1.1 2.5-.2 15.8 0 17.9s-1.4 7.3-1.4 7.3l1.9-.9s-1.8 3.9-.2 6.3 6.6.4 7.3-.5-1-6.3-1.5-12.3-2-14.7 5.9-23.7c3.3-3.8 5.8-7.3 7.5-10.2 21.4.5 30.5-19.3 30.5-19.3s1.3 4.8 1.6 10.1.1 17.2-.4 19.3-.8 5-.8 5l1.2-.7s-2.1 5.8 1 6.7 5.8-2 5.8-2-.3-.8-1.2-3.2-.4-16.5.1-20.9 2.8-11.7 4-16.6 4.7-12.8 4.7-17.8c0-6.6 8.6-28.3 10.3-33.8.4-1.3 1-2.2 1.7-3 .9-.4 3.9-1.4 7.3-1.9 4.1-.6 4.6-.8 6.3-2.1s.1-1.8.1-1.8.6-.5 1.6-.6.4-1.6 0-3.9z" fill="#e5e5e5"/><g fill="#2d3134"><path d="m112.7 126.1s-.2-.6-.8-2.2c-3 1.6-4.8 1.5-6.6.1-.2 1.7-.1 3.7 1.6 4.2 3.1.8 5.8-2.1 5.8-2.1z"/><path d="m38.9 144.3c.2 1.2.8 2.2 2.3 2.3 3.9.3 4.8-1.4 4.8-1.4s-.2-.6-.4-1.7c-.3.1-.6.3-1 .4-1.9.7-3.9 1.3-5.7.4z"/><path d="m54 151.3c0 .9.2 1.7.7 2.5 1.6 2.4 6.6.4 7.3-.5.2-.3.2-1.2 0-2.5-3.5 2.6-6.1 2.1-8 .5z"/></g><path d="m125 8.4c1.1.1 6.4-3 6.4-3.8s-5.2-2.4-8.5-3-8.5-.9-8.4.2 5.1.9 7.4 2.8 2.3 3.7 3.1 3.8z" fill="#baa794"/><path d="m125 8.4c1.1.1 6.4-3 6.4-3.8s-5.2-2.4-8.5-3-8.5-.9-8.4.2 5.1.9 7.4 2.8 2.3 3.7 3.1 3.8z" opacity=".15"/><path d="m134.9 18.1c-1.7-.3-.8-3.6 1.4-6.2s5.3-6.3 4.9-4.1-.9 5.3-1.8 6.3-1.7 4.5-4.5 4z" fill="#e5e5e5"/><path d="m134.9 18.1c-1.7-.3-.8-3.6 1.4-6.2s5.3-6.3 4.9-4.1-.9 5.3-1.8 6.3-1.7 4.5-4.5 4z" opacity=".15"/><path d="m142.5 14c.4.9-.8 3-1.6 2.4s.8-4.1 1.6-2.4z" fill="#2d3134"/><path d="m102.8 90.6c-13.6 12.4-23 .5-23 .5s-.4 2.2-1.4 6.3-4.5 9.7-4.5 9.7c16.2.3 25.4-11 28.9-16.5z" opacity=".15"/><path d="m146.7 18.5-1.1 1.3s1.4.1 2.2.8c-.2-.8-.7-1.5-1.1-2.1z" fill="#baa794"/><path d="m136.8 7.5c0-1.6-2.9-3.4-7.1-4s-8.1-.5-8.1.3 6.1.9 6.6 2.9-.5 3.6 5 2.5c3.1-.6 3.6-1.1 3.6-1.7z" fill="#baa794"/></svg>