<svg xmlns:xlink="http://www.w3.org/1999/xlink"  enable-background="new 0 0 160 160" height="160" viewBox="0 0 160 160" width="160" xmlns="http://www.w3.org/2000/svg"><path d="m22.7 36.9s-3.7-6.1-4.9-5.2 1.8 4.4 2.1 8.8c.4 4.4 2.8-3.6 2.8-3.6z" fill="#e5e5e5"/><path d="m22.7 36.9s-3.7-6.1-4.9-5.2 1.8 4.4 2.1 8.8c.4 4.4 2.8-3.6 2.8-3.6z" opacity=".15"/><path d="m22.9 65.5c1.3 3.3-1.4 11.4-2.1 11.4-.8 0 0-8.7-1.2-11.4-1.3-2.7 2.3-2.3 3.3 0z" fill="#e5e5e5"/><path d="m22.9 65.5c1.3 3.3-1.4 11.4-2.1 11.4-.8 0 0-8.7-1.2-11.4-1.3-2.7 2.3-2.3 3.3 0z" opacity=".2"/><path d="m79.8 117.3c-10.6 5.7-44.5 20.2-28.8 29.8 14.7 9 46.1-8 56.5-13.6 15.3-8.2 30.7-19.2 21.4-25.1-9.6-5.9-29.1-1.9-49.1 8.9z" opacity=".2"/><path d="m48.2 97.3s5.8 9.8 5.4 21.5c-.3 11.7-2 18.9-2 18.9s4.8 1.4 6.3-1 .5-6.9.5-6.9l1.1.2s.1-2.8-.7-5.6-.7-10.3-.8-16.7c-.1-6.3.8-13.3.8-13.3z" fill="#e5e5e5"/><path d="m103.5 80.9s2.6 7.1 2.6 14.8-1.1 16.2-1.1 16.2 1.5.9 3.5 0 2.6-1.7 2.3-4.1c-.3-2.5-.4-4.3-.4-4.3l1.1.4s.1-3.5-.6-5.3 1.3-23.4 1.3-23.4z" fill="#e5e5e5"/><path d="m48.2 97.3s5.8 9.8 5.4 21.5c-.3 11.7-2 18.9-2 18.9s4.8 1.4 6.3-1 .5-6.9.5-6.9l1.1.2s.1-2.8-.7-5.6-.7-10.3-.8-16.7c-.1-6.3.8-13.3.8-13.3z" opacity=".15"/><path d="m103.5 80.9s2.6 7.1 2.6 14.8-1.1 16.2-1.1 16.2 1.5.9 3.5 0 2.6-1.7 2.3-4.1c-.3-2.5-.4-4.3-.4-4.3l1.1.4s.1-3.5-.6-5.3 1.3-23.4 1.3-23.4z" opacity=".2"/><path d="m105.1 111.8s1.5.9 3.5 0 2.6-1.7 2.3-4.1c0 0 0 0 0-.1-1.5.2-3.6.3-5.4-.1-.2 2.6-.4 4.3-.4 4.3z" fill="#2d3134"/><path d="m52.4 133.6c-.4 2.7-.7 4.1-.7 4.1s4.8 1.4 6.3-1c.5-.8.7-1.8.8-2.8-1.9.3-4.6.4-6.4-.3z" fill="#2d3134"/><path d="m124.7 40.4c-3.2-3.1-4.1-4-6.2-5.6-1.1-.8-6.9-6.9-22.1-1.7-21.8 7.5-35 18-41.7 18.4-8.2.5-12.4-19.1-21.4-18.8-6.9.2-11.1 2.8-12.9 4.1-3.1 2.3-2.5 3.9-2.6 8-.1 4-4.1 10.8-6 14.2s-2.8 9.5 2.7 10.8c5.6 1.3 14-9.4 16.6-4.2s9.8 20.8 12.7 26.4c3.4 6.7 8.5 9.4 13.7 10.2s8.1.9 9.7 9.7c3.4 18.8-.7 33.8-.7 33.8s2.8 2 5.2.4c2.4-1.5 2.3-2.6 2-4.6s-.3-4-.3-4l1.2.7s0-2.8-.9-5.5c-.9-2.6-.7-15.1.2-20.6.5-3 1.9-7.8 3.2-11.6 12.6.5 28.6-5 34.5-13.7 1.9-2.9 3.2-4.1 4.3-4.6 3.8 4.4 7.8 10.8 7.9 19.2.1 9.3-3.2 17.4-1.5 18s5.9 0 6.1-2 .1-6.8.1-6.8l1.4.8s-.5-5.1-1.2-8.1c-.7-2.9-.1-12.2-.7-16.5-.7-4.4-4.9-10.7-4.3-20 .5-6.9 0-21.3 0-21.3s5.7 3.4 6.4 2.9c.6-.4-1.8-4.5-5.4-8z" fill="#e5e5e5"/><path d="m23.3 34.9s3.8-5.5 6.9-7.8 9.6-5.5 10.5-5-5.6 3.5-6.9 6.9c-1.2 3.4-.8 5.9-.8 5.9s-3.7.6-5.9.6-3.8-.6-3.8-.6z" fill="#baa794"/><path d="m23.3 34.9s3.8-5.5 6.9-7.8 9.6-5.5 10.5-5-5.6 3.5-6.9 6.9c-1.2 3.4-.8 5.9-.8 5.9s-3.7.6-5.9.6-3.8-.6-3.8-.6z" opacity=".15"/><path d="m29.6 35.9s5.6-4.6 9.6-7 9.9-4.9 10.5-4-5 3.2-8.2 6.9-4.6 6.9-4.6 6.9-2.7 0-4.4-.5c-1.7-.4-2.9-2.3-2.9-2.3z" fill="#baa794"/><path d="m35.9 47.7c-1.4-1.5-1.3-2.8-.3-4.5 1.1-1.7 5.3-7 6.7-6.1s-.8 10.1-.8 10.1-1.2-1.3-2.6-1c-1.2.3-3 1.5-3 1.5z" fill="#e5e5e5"/><path d="m35.9 47.7c-1.4-1.5-1.3-2.8-.3-4.5 1.1-1.7 5.3-7 6.7-6.1s-.8 10.1-.8 10.1-1.2-1.3-2.6-1c-1.2.3-3 1.5-3 1.5z" opacity=".15"/><path d="m36.1 47.8c.4.1 2.1-1.4 3-1.6 1.4-.3 2.6 1 2.6 1s2.1-9.1.8-10.1c-2 .6-5.3 8-6.4 10.7z" fill="#baa794"/><path d="m33.4 48.4c-.3-1.1-4.6-.6-5 1.4s5.6.6 5-1.4z" fill="#2d3134"/><path d="m79.9 88.4s-.9 8.6-2.8 12.1c12.6.5 28.6-5 34.5-13.7-14.6 8-31.7 1.6-31.7 1.6z" opacity=".15"/><path d="m128.4 114.5c-2.4.4-4.8.4-6.1-.9-.6 3.2-1 5.4-.2 5.7 1.6.7 5.9 0 6.1-2 .2-.6.2-1.7.2-2.8z" fill="#2d3134"/><path d="m67.4 141.5c-.4 2.7-.9 4.2-.9 4.2s2.8 2 5.2.4c2.3-1.5 2.3-2.6 2-4.4-1.9.3-4.3.6-6.3-.2z" fill="#2d3134"/><g fill="#baa794"><path d="m10.7 61.7c-.8.3-.5 2-.1 3.1.5 1.1 1.8 1.3 2.9 1 1-.3 2.3-1 1.6-2-.5-.7-1.3-.2-2.5-.7-1.4-.7-1.4-1.6-1.9-1.4z"/><path d="m12.2 68.1c-.9-1.2-.7-3.1-.6-3.2 0 0 1.1-.5.6.2-.5.8 0 3 0 3z"/></g></svg>