<svg xmlns:xlink="http://www.w3.org/1999/xlink"  enable-background="new 0 0 400 400" height="400" viewBox="0 0 400 400" width="400" xmlns="http://www.w3.org/2000/svg"><path d="m128 214.5-49 24.5 169 84.5 49-24.5z" opacity=".15"/><path d="m50.8 236.9c-1.3 0-2.6-.7-3.2-2-.9-1.8-.2-3.9 1.6-4.8l69.4-34.4c1.8-.9 3.9-.2 4.8 1.6s.2 3.9-1.6 4.8l-69.4 34.4c-.5.3-1 .4-1.6.4z" fill="#656565"/><path d="m257.1 342.6c-1.3 0-2.6-.7-3.2-2-.9-1.8-.2-3.9 1.6-4.8l69.4-34.4c1.8-.9 3.9-.2 4.8 1.6s.2 3.9-1.6 4.8l-69.4 34.4c-.5.3-1.1.4-1.6.4z" fill="#656565"/><path d="m50 77c-2.8 0-5 1.1-5 2.5l34 136c0 1.4 2.2 2.5 5 2.5s5-1.1 5-2.5l-34-136c0-1.4-2.2-2.5-5-2.5z" fill="#656565"/><path d="m50 82c-2.8 0-5-1.1-5-2.5l34 136c0 1.4 2.2 2.5 5 2.5s5-1.1 5-2.5l-34-136c0 1.4-2.2 2.5-5 2.5z" opacity=".2"/><path d="m50.8 87.6c-4 0-6.9-1.7-6.9-4 0-.6.4-1 1-1s1 .4 1 1c0 .8 2 2 4.9 2s4.9-1.2 4.9-2c0-.6.4-1 1-1s1 .4 1 1c0 2.3-3 4-6.9 4z" fill="#825012"/><path d="m122.6 119.4 3.1 1.5v3.1l5.1 10c29.8 55.2 117.8 86.4 173 92.2h3.1v3l-67.5 33.8v-3h-3.1c-55.1-5.9-143.2-37-173-92.2l-5.1-10v-3.1l-3.1-1.5z" fill="#e5e5e5"/><g fill="#cc291f"><path d="m297.6 229.3c-55.1-5.9-143.2-37-173-92.2l-5.1-10v-3.1l-3.1-1.5-6.1 3.1 3.1 1.5v3.1l5.1 10c29.8 55.2 117.8 86.4 173 92.2h3.1v3l6.1-3.1v-3z"/><path d="m285.4 235.4c-55.1-5.9-143.2-37-173-92.2l-5.1-10v-3.1l-3.1-1.5-6.1 3.1 3.1 1.5v3.1l5.1 10c29.8 55.2 117.8 86.4 173 92.2h3.1v3l6.1-3.1v-3z"/><path d="m273.1 241.5c-55.1-5.9-143.2-37-173-92.2l-5.1-10v-3.1l-3.1-1.5-6.1 3.1 3.1 1.5v3.1l5.1 10c29.8 55.2 117.8 86.4 173 92.2h3.1v3l6.1-3.1v-3z"/><path d="m260.8 247.7c-55.1-5.9-143.2-37-173-92.2l-5.1-10v-3.1l-3.1-1.5-6.1 3.1 3.1 1.5v3.1l5.1 10c29.8 55.2 117.8 86.4 173 92.2h3.1v3l6.1-3.1v-3z"/><path d="m248.5 253.8c-55.1-5.9-143.2-37-173-92.2l-5.1-10v-3.1l-3.1-1.5-6.1 3.1 3.1 1.5v3.1l5.1 10c29.8 55.2 117.8 86.4 173 92.2h3.1v3l6.1-3.1v-3z"/></g><path d="m305.3 224.7-73.6 36.8v3.1h4.6l73.6-36.8v-3.1z" fill="#825012"/><path d="m236.3 264.6h-4.6v-3.1h4.6z" opacity=".11"/><path d="m236.3 261.5v3l73.6-36.8v-3h-.1l-73.6 36.8z" opacity=".29"/><path d="m125.6 117.9-73.6 36.8v3l3.1 1.6 73.6-36.8v-3.1z" fill="#825012"/><path d="m55.1 159.3-3.1-1.6v-3l3.1 1.5z" opacity=".11"/><path d="m128.7 122.5-73.6 36.8v-3.1l73.6-36.8z" opacity=".29"/><path d="m121.6 122.1-66.9-37-.2.4h-.5l5.5 67.2 1-.1-5.1-61.7 15.3 56.3 1-.2-15.5-57.3 26.8 50.9.9-.4-26.9-51 39.5 46 .7-.7-39-45.5 50.2 39.4.7-.8-49.3-38.6 61.3 34z" fill="#825012"/><path d="m324.7 227.1-.2-.4-.1-.5-21.5 2.7.1 1 15.2-1.9-26.6 7.6.3 1 4.6-1.4-18.3 6 .3.9 10.3-3.3-22.5 8 .4.9 15.3-5.4-29.4 11.2.3.9 5.1-1.9-16.6 6.5.4 1z" fill="#825012"/><path d="m294.7 322.9c1.3 0 2.6-.7 3.2-2 .9-1.8.2-3.9-1.6-4.8l-208.2-103.8c-1.8-.9-3.9-.2-4.8 1.6s-.2 3.9 1.6 4.8l208.2 103.8c.5.2 1 .4 1.6.4z" fill="#656565"/><path d="m328 216c-2.8 0-5 1.1-5 2.5l-34 102c0 1.4 2.2 2.5 5 2.5s5-1.1 5-2.5l34-102c0-1.4-2.2-2.5-5-2.5z" fill="#656565"/><path d="m328 221c-2.8 0-5-1.1-5-2.5l-34 102c0 1.4 2.2 2.5 5 2.5s5-1.1 5-2.5l34-102c0 1.4-2.2 2.5-5 2.5z" opacity=".2"/><path d="m325.3 230.4c-4 0-6.9-1.7-6.9-4 0-.6.4-1 1-1s1 .4 1 1c0 .8 2 2 4.9 2s4.9-1.2 4.9-2c0-.6.4-1 1-1s1 .4 1 1c0 2.3-3 4-6.9 4z" fill="#825012"/></svg>