<svg xmlns:xlink="http://www.w3.org/1999/xlink"  enable-background="new 0 0 400 240" height="240" viewBox="0 0 400 240" width="400" xmlns="http://www.w3.org/2000/svg"><path d="m122.6 39.4 3.1 1.5v3.1l5.1 10c29.8 55.2 124.2 90.6 179.3 96.5h3.1v3l-67.5 33.8v-3.1h-3.1c-55.1-5.9-149.5-41.3-179.3-96.5l-5.1-10v-3.1l-3.1-1.5z" fill="#e5e5e5"/><g fill="#cc291f"><path d="m304 153.5c-55.1-5.9-149.5-41.3-179.3-96.5l-5.1-10v-3l-3.1-1.5-6.1 3.1 3.1 1.5v3.1l5.1 10c29.8 55.2 124.2 90.6 179.3 96.5h3.1v3l6.1-3.1v-3z"/><path d="m291.7 159.7c-55.1-5.9-149.5-41.3-179.3-96.5l-5.1-10v-3.1l-3.1-1.5-6.2 3.1 3.1 1.5v3.1l5.1 10c29.8 55.2 124.2 90.6 179.3 96.5h3.1v3l6.1-3.1v-3z"/><path d="m279.4 165.8c-55.1-5.9-149.5-41.3-179.3-96.5l-5.1-10v-3.1l-3.1-1.5-6.1 3.1 3.1 1.5v3.1l5.1 10c29.8 55.2 124.2 90.6 179.3 96.5h3.1v3l6.1-3.1v-3z"/><path d="m267.1 171.9c-55.1-5.9-149.5-41.3-179.3-96.5l-5.1-10v-3.1l-3.1-1.5-6.1 3.2 3.1 1.5v3.1l5.1 10c29.8 55.2 124.2 90.6 179.3 96.5h3.1v3l6.1-3.1v-3z"/><path d="m254.9 178.1c-55.1-5.9-149.5-41.3-179.3-96.5l-5.1-10v-3.1l-3.1-1.5-6.1 3.1 3.1 1.5v3.1l5.1 10c29.8 55.2 124.2 90.6 179.3 96.5h3.1v3l6.1-3.1v-3z"/></g><path d="m311.6 148.9-73.6 36.9v3h4.6l73.6-36.8v-3z" fill="#825012"/><path d="m242.6 188.8h-4.6v-3h4.6z" opacity=".11"/><path d="m242.6 185.8v3l73.6-36.8v-3l-73.7 36.8z" opacity=".29"/><path d="m125.6 37.9-73.6 36.8v3l3.1 1.6 73.6-36.8v-3.1z" fill="#825012"/><path d="m55.1 79.3-3.1-1.6v-3l3.1 1.5z" opacity=".11"/><path d="m128.7 42.5-73.6 36.8v-3.1l73.6-36.8z" opacity=".29"/><path d="m380 156.1c-.5-.1-1.1.3-1.1.8-.7 4.8-9.9 7.7-20.1 6.2-4.9-.7-9.2-2.3-12.4-4.3 3.6 1.4 8 2.3 13 2.3 11.8 0 21-4.8 21-11 0-.3-.1-.5-.3-.7.4-.7.6-1.5.7-2.3 0-.3-.1-.6-.3-.8-.1-.5-.5-.8-1-.8-.6 0-1 .5-1 1 0 .9-.2 1.8-.7 2.7-1 1.3-2.6 2.4-4.9 3.3-3.8 1.5-8.7 2-13.9 1.5-10.3-1-18.5-5.9-18.1-10.8.1-.5-.4-1-.9-1.1s-1 .4-1.1.9c-.6 6.1 8.1 11.8 19.9 12.9 1.3.1 2.6.2 3.9.2 1 0 2.1 0 3.1-.1-1.8.4-3.8.6-5.8.7-5.2.2-10.1-.6-13.8-2.3-2.5-1.2-4.3-2.6-5.1-4.3v-.1c-.3-.6-.5-1.2-.5-1.9 0-.6-.5-1-1-1-.6 0-1 .5-1 1 0 .3.1.6.1.9-.2.2-.3.4-.3.7v.5l-29.2 2.4.1 1 25.4-1.9-36.8 7.6.3 1 12.3-2.2-26 6.8.3 1 17.9-4.2-30.1 8.8.3.9 23-6.3-37.1 12 .4.9 14.1-4.5-25.6 9.2.4.9 90.6-31.8c.2.5.4.9.7 1.4 1.3 5.2 9 10 19.1 11.4 2 .3 3.9.4 5.7.4 9 0 15.9-3.3 16.6-8.3.1 0-.3-.5-.8-.6zm-21.9 3h1.9c5.5-.3 10.6-1.6 14.4-3.9 1.1-.6 2.1-1.4 2.9-2.1-2.6 3.6-9.8 6.2-18 6.2-2 0-4-.2-5.9-.5 1.5.2 3.1.3 4.7.3z" fill="#825012"/><path d="m121.3 42.4-66-36.6c.2-.7.3-1.4.2-2.1v-.1c0-.2.1-.5.1-.7 0-.6-.4-1-1-1s-1 .4-1 1c-.2 4.9-9 8.7-19.3 8.3-5.2-.2-10-1.4-13.6-3.3-3.4-1.8-5.2-4.1-5.1-6.4 0-.6-.4-1-.9-1-.6 0-1 .4-1.1 1 0 1.2.2 2.3.8 3.4-.5.1-.9.5-.9 1s.1 1.1.3 1.6c-.3.2-.4.5-.4.8 0 1.9.9 3.6 2.4 5.2 2.9 4.1 9.5 7.5 17.8 8.7 2 .3 3.9.4 5.7.4 7 0 12.7-2 15.2-5.2l4.6 55.9 1.2-.1-4.7-57.6c.1-.3.2-.7.3-1l14.4 53.3 1.2-.3-15.4-56.7 26.4 50.1 1.1-.6-26.5-50.1 38.9 45.3.9-.8-38.4-44.7 49.5 38.7.7-.9-48.3-37.8 59.4 32.8zm-104.1-30.5s0-.1-.1-.1c.9.7 1.9 1.3 3.2 1.9 3.5 1.6 8 2.5 12.8 2.5h1.9c5.5-.3 10.6-1.6 14.4-3.9 1.5-.9 2.7-1.8 3.7-2.9-1.4 4.3-9.4 7.7-18.8 7.7-7.4 0-14-2.1-17.1-5.2zm2.5-2.4c3.8 2.1 9 3.4 14.5 3.6h1.6c4.1 0 7.8-.6 11-1.7-3.3 1.5-7.4 2.5-11.7 2.7-5.2.3-10.1-.6-13.8-2.3-3.1-1.4-5.1-3.4-5.5-5.5.8 1.3 2.2 2.3 3.9 3.2zm34.2 4.3c-.7 4.8-9.9 7.7-20.1 6.2-2.1-.3-4.1-.8-6-1.4 2.1.3 4.3.5 6.6.5 9.1 0 16.7-2.9 19.7-7.1l.1 1.2c-.2.2-.3.4-.3.6zm1.4-.8-.1-.7.2.7c0 .1 0 0-.1 0z" fill="#825012"/></svg>