<svg xmlns:xlink="http://www.w3.org/1999/xlink"  enable-background="new 0 0 80 160" height="160" viewBox="0 0 80 160" width="80" xmlns="http://www.w3.org/2000/svg"><path d="m70 111c0 21.9-13.4 32-30 32s-30-10.1-30-32" fill="#e5e5e5"/><path d="m63.8 103.5s-6.3 1.5-9.6-.4-5.9-8.7-5.9-8.7 7.2-1 10.5.9c3.2 2 5 8.2 5 8.2z" fill="#539b00"/><ellipse cx="40" cy="111" fill="#e5e5e5" rx="30" ry="15"/><path d="m40 126c-16.6 0-30-6.7-30-15 0 21.9 13.4 32 30 32s30-10.1 30-32c0 8.3-13.4 15-30 15z" opacity=".2"/><ellipse cx="40" cy="111" fill="#825012" rx="28" ry="13"/><path d="m22 116-6 3 6 3 1.2-.6c1.5.5 3.1 1 4.8 1.3v-3.7z" fill="#e5e5e5"/><path d="m28 122.7v-3.7l-4.8 2.4c1.5.5 3.1 1 4.8 1.3z" opacity=".29"/><path d="m21 110c-1.1 0-2 .9-2 2v7c0 .6.9 1 2 1s2-.4 2-1v-7c0-1.1-.9-2-2-2z" fill="#39c" opacity=".5"/><path d="m21 114c-1.1 0-2 .4-2 1v4c0 .6.9 1 2 1s2-.4 2-1v-4c0-.6-.9-1-2-1z" fill="#39c" opacity=".9"/><g fill="#539b00"><path d="m41.6 103.4s-1.3-5.5 0-9.1 6.2-7.8 6.2-7.8 1 6.4-.3 10-5.9 6.9-5.9 6.9z"/><path d="m40.9 108.9c-.3 0-.5-.3-.5-.6.1-.4 1.4-10.4 5.9-13.2 1.3-.8 2.8-1 4.4-.4.3.1.4.4.3.6-.1.3-.4.4-.6.3-1.3-.4-2.4-.3-3.5.3-4.1 2.6-5.4 12.4-5.4 12.5-.2.3-.4.5-.6.5z"/><path d="m66.5 149.3c-2.7.6-6 3.3-7.4 4.5-2.6-.2-4.9-1.4-6.7-3.6-.6-.8-1.1-1.7-1.5-2.8-.1-1.7-.5-3.5-.9-4.8 0-1.7.3-3.6 1.1-5.6-.1 2.3 0 5.5 1.5 7.1 2.4 2.6 10.1 2.8 10.1 2.8s.5-7.7-1.9-10.3c-1.9-2-6.5-2.2-8.5-2.1.5-1 1.2-2 1.9-2.9 2-2.6 3.1-5.1 3.6-7.4.2.8.5 1.5.8 2.1 1.8 3.3 6.8 5.9 6.8 5.9s.5-5.6-1.3-9c-1.4-2.6-5.2-5.4-6.7-6.4-.4-1.1-.9-2-1.6-2.8 1.6.8 3.3 1.4 4.7 1.4 3.8 0 8.5-4.5 8.5-4.5s-4.7-4.5-8.5-4.5c-3.4 0-8.2 3.5-9.3 4.3-3.1-1-6.8-.5-10.4 1.6-.2.1-.3.5-.2.7s.5.3.7.2c4.8-3 10-2.6 13.2.9 1 1.1 1.8 2.5 2.2 4.2 0 .8.1 1.7.3 2.8-.1 2.8-1.1 6.2-3.8 9.8s-4 7.1-4.3 10.2c-1.4.9-5.9 4.2-7 7.2-1.3 3.6 1.4 9.5 1.4 9.5s5.8-2.9 7.1-6.5c.2-.5.3-1 .3-1.6.2.4.5.8.7 1.1 2.1 2.6 4.9 4 8 4 2 .5 5.7 1.4 8.3.9 3.6-.8 7.2-4.9 7.2-4.9s-4.8-2.3-8.4-1.5z"/><path d="m2.9 110.9s2.7-5.7 6.2-7.2 10.4.1 10.4.1-3.6 6.1-7.1 7.6c-3.6 1.5-9.5-.5-9.5-.5z"/><path d="m57.4 123s-1.5 7-4.8 8.8-10.9-.1-10.9-.1 2.4-7.5 5.7-9.3c3.3-1.9 10 .6 10 .6z"/><path d="m37.7 109c-.9-.9-1.9-1.7-3.1-2.4-.3-1.3-1.5-6.2-4.1-7.8-3-1.9-10-.9-10-.9s.9 2.9 2.3 5.5c-3.5-.1-6.8.5-9.5 1.9-4.2 2.2-6.1 6-5.2 10.7.2 1.4.7 2.7 1.3 4 .2.6.4 1.2.7 1.7.2.3.4.6.6.9-1.1.9-4.4 3.8-5 6.7-.7 3.5 1.9 9.5 1.9 9.5s4.9-4.4 5.6-7.9c.4-1.8-.2-3.9-.8-5.6.6.9 1.3 1.8 1.9 2.6.8 1.1 1.5 2.1 2.2 3-.2 1.6-.7 6.4 1.1 8.8-.2.3-.5.6-.8.9-1.8.1-5.8.4-7.7 2.2-2.6 2.4-3.7 9.1-3.7 9.1s6.7-.5 9.4-2.9c2.2-2 2.8-6.4 3-7.9.2-.2.4-.4.6-.6 2.8 2.2 9.6 2.4 9.6 2.4s.5-7.7-1.9-10.3c-1.9-2.1-6.8-2.2-8.7-2.1-.7-1-1.4-2.1-2.2-3.1-.3-.5-.7-.9-1-1.4 1.5 1.1 2.8 1.8 2.8 1.8s.5-5.6-1.3-9c-1.4-2.6-4.9-5.2-6.5-6.3.5-3.2 2.7-5.1 4.8-6.1 2.7-1.4 6.2-1.9 9.7-1.7.6.9 1.3 1.7 2.1 2.2 2.2 1.4 6.2 1 8.1.6 1.3.7 2.4 1.5 3.3 2.5.2.2.5.2.7 0 0-.5 0-.8-.2-1z"/></g><path d="m61.5 102.9-19.8-81.2c.1-.1.2-.2.2-.3.2-.5 0-1.1-.4-1.3l-.3-.1-.5-2c.7.3 1.5.2 2.1-.2.7-.4 1.1-1.2 1.1-2v-4.1c0-2.1-1.1-3.9-3-4.8-1.1-.5-2.3-.5-3.4.2-1 .6-1.6 1.7-1.6 3 0 .6.4 1 1 1s1-.4 1-1c0-.5.3-1 .7-1.3s1-.3 1.4-.1c1.2.6 1.9 1.7 1.9 3v4.1c0 .2-.1.3-.2.3s-.2.1-.4 0c-.7-.4-1.6-.3-2.3.1s-1.1 1.2-1.1 2c0 .7.2 1.4.6 2l-26 90.7c-.1.3.1.5.3.6.3.1.5-.1.6-.3l25.9-90c.1.1.3.2.5.3l6.7 102.5c0 .3.2.5.5.5.3 0 .5-.3.5-.5l-6.6-101.3 19.6 80.4c.1.2.3.4.5.4h.1c.3-.1.5-.4.4-.6z" fill="#656565"/></svg>