<svg xmlns:xlink="http://www.w3.org/1999/xlink"  enable-background="new 0 0 24 16" height="16" viewBox="0 0 24 16" width="24" xmlns="http://www.w3.org/2000/svg"><path d="m.4 9 13.6 6.8 5.6-2.8v-5.8l-13.6-6.8-5.6 2.8z" fill="#fc0"/><g fill="#f90"><path d="m7.3 11.8s.7 1.1 2.2 1.1c1.2 0 2.5 1.3 2.5 1.3s-.7-1.4-2.2-1.6c-1.4-.1-2.5-.8-2.5-.8z"/><path d="m9.5 9.2s.5.8 1.8.9c1 0 2 1 2 1s-.6-1.1-1.8-1.2c-1.1-.2-2-.7-2-.7z"/><path d="m5.9 9.4s.7 1.1 2.2 1.1c1.2 0 2.5 1.3 2.5 1.3s-.7-1.4-2.2-1.6c-1.4-.2-2.5-.8-2.5-.8z"/><path d="m12.2 5.7s.7 1.1 2.2 1.1c1.2 0 2.5 1.3 2.5 1.3s-.7-1.4-2.2-1.6c-1.4-.2-2.5-.8-2.5-.8z"/><path d="m2.2 5.8s.7 1.1 2.2 1.1c1.3 0 2.6 1.2 2.6 1.2s-.8-1.4-2.2-1.5c-1.4-.2-2.6-.8-2.6-.8z"/><path d="m8.2 5.5s.5.8 1.6.8c.9 0 1.8.9 1.8.9s-.6-1-1.6-1.1-1.8-.6-1.8-.6z"/><path d="m2.9 2.1s.7 1.1 2.2 1.1c1.2 0 2.5 1.3 2.5 1.3s-.7-1.4-2.2-1.6c-1.4-.2-2.5-.8-2.5-.8z"/><path d="m2.4 9.1s.5.7 1.6.8c.9 0 1.8.9 1.8.9s-.5-1-1.6-1.1c-1-.1-1.8-.6-1.8-.6z"/><path d="m7.7 1.9s.5.8 1.7.9c.9 0 2 1 2 1s-.6-1.1-1.7-1.2c-1.2-.2-2-.7-2-.7z"/><path d="m.4 4.2s.5.8 1.6.8c.9 0 1.8.9 1.8.9s-.5-1-1.6-1.1c-1-.1-1.8-.6-1.8-.6z"/><path d="m14 12.8c-1.1-.2-2-.7-2-.7s.6.9 2 1.1z"/><path d="m18.9 8.6c-.6-.1-1-.4-1-.4s.3.5 1 .5z"/><path d="m16.2 11.7c.6.1 1 .4 1 .4s-.3-.5-1-.5z"/><path d="m4 7.6c.5.1 1 .4 1 .4s-.3-.5-1-.6z"/><path d="m13.5 8.6c.6.1 1 .4 1 .4s-.3-.5-1-.5z"/><path d="m6.7 10.9c.6.1 1 .4 1 .4s-.3-.5-1-.5z"/><path d="m12.8 14.9c.6.1 1 .4 1 .4s-.3-.5-1-.5z"/><path d="m19.6 9.7c-.6-.1-1-.4-1-.4s.3.5 1 .5z"/><path d="m17.1 12.8c.6.1 1 .4 1 .4s-.3-.5-1-.5z"/><path d="m5.4 1.3c.6.1 1 .4 1 .4s-.3-.5-1-.5z"/><path d="m13.2 4.6c.6.1 1 .4 1 .4s-.3-.5-1-.5z"/><path d="m15.9 13.9c.6.1 1 .4 1 .4s-.3-.5-1-.5z"/><path d="m18.5 12.4c.6.1 1 .4 1 .4s-.3-.5-1-.5z"/><path d="m16.4 10.2c-.6-.1-1-.4-1-.4s.3.5 1 .5z"/><path d="m18.5 6.8c-.6-.1-1-.4-1-.4s.3.5 1 .5z"/><path d="m2.3 3.3c-.6-.1-1-.4-1-.4s.3.5 1 .5z"/><path d="m18.6 10.7c-.6-.1-1-.4-1-.4s.3.5 1 .5z"/><path d="m15.6 11.8c-.6-.1-1-.4-1-.4s.3.5 1 .5z"/><path d="m10.4 4.8c-.6-.1-1-.4-1-.4s.3.5 1 .5z"/><path d="m1.5 8.9c-.6-.1-1-.4-1-.4s.3.5 1 .5z"/><path d="m8.2 7.6c-.6-.1-1-.4-1-.4s.3.5 1 .5z"/><path d="m15.4 15c-.6-.1-1-.4-1-.4s.3.5 1 .5z"/><path d="m14.1 13.5c.6.1 1 .4 1 .4s-.3-.5-1-.5z"/><path d="m5.5 5.3c.6.1 1 .4 1 .4s-.3-.5-1-.5z"/><path d="m.4 6.7c.9.3 1.7 1.1 1.7 1.1s-.6-1.1-1.7-1.5z"/></g><path d="m16.6 5.7-1-.5-5.6 2.8v5.8l1 .5v-5.8z" fill="#825012"/><path d="m9.6 2.2-1-.5-5.6 2.6v6l1 .5v-5.8z" fill="#825012"/><path d="m19.6 7.2v5.8l-5.6 2.8v-5.8z" opacity=".29"/><path d="m.4 3.2v5.8l13.6 6.8v-5.8z" opacity=".11"/></svg>