<svg xmlns:xlink="http://www.w3.org/1999/xlink"  enable-background="new 0 0 40 40" height="40" viewBox="0 0 40 40" width="40" xmlns="http://www.w3.org/2000/svg"><path d="m20.4 29 13.6 6.8 5.6-2.8v-5.8l-13.6-6.8-5.6 2.8z" fill="#fc0"/><g fill="#f90"><path d="m27.3 31.8s.7 1.1 2.2 1.1c1.2 0 2.5 1.3 2.5 1.3s-.7-1.4-2.2-1.6c-1.4-.1-2.5-.8-2.5-.8z"/><path d="m29.5 29.2s.5.8 1.8.9c1 0 2 1 2 1s-.6-1.1-1.8-1.2c-1.1-.2-2-.7-2-.7z"/><path d="m25.9 29.4s.7 1.1 2.2 1.1c1.2 0 2.5 1.3 2.5 1.3s-.7-1.4-2.2-1.6c-1.4-.2-2.5-.8-2.5-.8z"/><path d="m32.2 25.7s.7 1.1 2.2 1.1c1.2 0 2.5 1.3 2.5 1.3s-.7-1.4-2.2-1.6c-1.4-.2-2.5-.8-2.5-.8z"/><path d="m22.2 25.8s.7 1.1 2.2 1.1c1.2 0 2.5 1.3 2.5 1.3s-.7-1.4-2.2-1.6c-1.3-.2-2.5-.8-2.5-.8z"/><path d="m28.2 25.5s.5.8 1.6.8c.9 0 1.8.9 1.8.9s-.5-1-1.6-1.1c-1-.1-1.8-.6-1.8-.6z"/><path d="m22.9 22.1s.7 1.1 2.2 1.1c1.2 0 2.5 1.3 2.5 1.3s-.7-1.4-2.2-1.6c-1.4-.2-2.5-.8-2.5-.8z"/><path d="m22.4 29.1s.5.7 1.6.8c.9 0 1.8.9 1.8.9s-.5-1-1.6-1.1c-1-.1-1.8-.6-1.8-.6z"/><path d="m27.7 21.9s.5.8 1.7.9c.9 0 2 1 2 1s-.6-1.1-1.7-1.2c-1.2-.2-2-.7-2-.7z"/><path d="m20.4 24.2s.5.8 1.6.8c.9 0 1.8.9 1.8.9s-.5-1-1.6-1.1c-1-.1-1.8-.6-1.8-.6z"/><path d="m34 32.8c-1.1-.2-2-.7-2-.7s.6.9 2 1.1z"/><path d="m38.9 28.6c-.6-.1-1-.4-1-.4s.3.5 1 .5z"/><path d="m36.2 31.7c.6.1 1 .4 1 .4s-.3-.5-1-.5z"/><path d="m24 27.6c.6.1 1 .4 1 .4s-.3-.5-1-.5z"/><path d="m33.5 28.6c.6.1 1 .4 1 .4s-.3-.5-1-.5z"/><path d="m26.7 30.9c.6.1 1 .4 1 .4s-.3-.5-1-.5z"/><path d="m32.8 34.9c.6.1 1 .4 1 .4s-.3-.5-1-.5z"/><path d="m39.6 29.7c-.6-.1-1-.4-1-.4s.3.5 1 .5z"/><path d="m37.1 32.8c.6.1 1 .4 1 .4s-.3-.5-1-.5z"/><path d="m25.4 21.3c.6.1 1 .4 1 .4s-.3-.5-1-.5z"/><path d="m33.2 24.6c.6.1 1 .4 1 .4s-.3-.5-1-.5z"/><path d="m35.9 33.9c.6.1 1 .4 1 .4s-.3-.5-1-.5z"/><path d="m38.5 32.4c.6.1 1 .4 1 .4s-.3-.5-1-.5z"/><path d="m36.4 30.2c-.6-.1-1-.4-1-.4s.3.5 1 .5z"/><path d="m38.5 26.8c-.6-.1-1-.4-1-.4s.3.5 1 .5z"/><path d="m22.3 23.3c-.6-.1-1-.4-1-.4s.3.5 1 .5z"/><path d="m38.6 30.7c-.6-.1-1-.4-1-.4s.3.5 1 .5z"/><path d="m35.6 31.8c-.6-.1-1-.4-1-.4s.3.5 1 .5z"/><path d="m30.4 24.8c-.6-.1-1-.4-1-.4s.3.5 1 .5z"/><path d="m21.5 28.9c-.6-.1-1-.4-1-.4s.3.5 1 .5z"/><path d="m28.2 27.6c-.6-.1-1-.4-1-.4s.3.5 1 .5z"/><path d="m35.4 35c-.6-.1-1-.4-1-.4s.3.5 1 .5z"/><path d="m34.1 33.5c.6.1 1 .4 1 .4s-.3-.5-1-.5z"/><path d="m25.5 25.3c.6.1 1 .4 1 .4s-.3-.5-1-.5z"/><path d="m20.4 26.7c.9.3 1.7 1.1 1.7 1.1s-.6-1.1-1.7-1.5z"/></g><path d="m36.6 25.7-1-.5-5.6 2.8v5.8l1 .5v-5.8z" fill="#825012"/><path d="m29.6 22.2-1-.5-5.6 2.6v6l1 .5v-5.8z" fill="#825012"/><path d="m39.6 27.2v5.8l-5.6 2.8v-5.8z" opacity=".29"/><path d="m20.4 23.2v5.8l13.6 6.8v-5.8z" opacity=".11"/><path d="m.4 25 13.6 6.8 5.6-2.8v-5.8l-13.6-6.8-5.6 2.8z" fill="#fc0"/><path d="m7.3 27.8s.7 1.1 2.2 1.1c1.2 0 2.5 1.3 2.5 1.3s-.7-1.4-2.2-1.6c-1.4-.1-2.5-.8-2.5-.8z" fill="#f90"/><path d="m9.5 25.2s.5.8 1.8.9c1 0 2 1 2 1s-.6-1.1-1.8-1.2c-1.1-.2-2-.7-2-.7z" fill="#f90"/><path d="m5.9 25.4s.7 1.1 2.2 1.1c1.2 0 2.5 1.3 2.5 1.3s-.7-1.4-2.2-1.6c-1.4-.2-2.5-.8-2.5-.8z" fill="#f90"/><path d="m12.2 21.7s.7 1.1 2.2 1.1c1.2 0 2.5 1.3 2.5 1.3s-.7-1.4-2.2-1.6c-1.4-.2-2.5-.8-2.5-.8z" fill="#f90"/><path d="m2.2 21.8s.7 1.1 2.2 1.1c1.2 0 2.5 1.3 2.5 1.3s-.7-1.4-2.2-1.6c-1.3-.2-2.5-.8-2.5-.8z" fill="#f90"/><path d="m8.2 21.5s.5.8 1.6.8c.9 0 1.8.9 1.8.9s-.5-1-1.6-1.1c-1-.1-1.8-.6-1.8-.6z" fill="#f90"/><path d="m2.9 18.1s.7 1.1 2.2 1.1c1.2 0 2.5 1.3 2.5 1.3s-.7-1.4-2.2-1.6c-1.4-.2-2.5-.8-2.5-.8z" fill="#f90"/><path d="m2.4 25.1s.5.7 1.6.8c.9 0 1.8.9 1.8.9s-.5-1-1.6-1.1c-1-.1-1.8-.6-1.8-.6z" fill="#f90"/><path d="m7.7 17.9s.5.8 1.7.9c.9 0 2 1 2 1s-.6-1.1-1.7-1.2c-1.2-.2-2-.7-2-.7z" fill="#f90"/><path d="m.4 20.2s.5.8 1.6.8c.9 0 1.8.9 1.8.9s-.5-1-1.6-1.1c-1-.1-1.8-.6-1.8-.6z" fill="#f90"/><path d="m14 28.8c-1.1-.2-2-.7-2-.7s.6.9 2 1.1z" fill="#f90"/><path d="m18.9 24.6c-.6-.1-1-.4-1-.4s.3.5 1 .5z" fill="#f90"/><path d="m16.2 27.7c.6.1 1 .4 1 .4s-.3-.5-1-.5z" fill="#f90"/><path d="m4 23.6c.5.1 1 .4 1 .4s-.3-.5-1-.5z" fill="#f90"/><path d="m13.5 24.6c.6.1 1 .4 1 .4s-.3-.5-1-.5z" fill="#f90"/><path d="m6.7 26.9c.6.1 1 .4 1 .4s-.3-.5-1-.5z" fill="#f90"/><path d="m12.8 30.9c.6.1 1 .4 1 .4s-.3-.5-1-.5z" fill="#f90"/><path d="m19.6 25.7c-.6-.1-1-.4-1-.4s.3.5 1 .5z" fill="#f90"/><path d="m17.1 28.8c.6.1 1 .4 1 .4s-.3-.5-1-.5z" fill="#f90"/><path d="m5.4 17.3c.6.1 1 .4 1 .4s-.3-.5-1-.5z" fill="#f90"/><path d="m13.2 20.6c.6.1 1 .4 1 .4s-.3-.5-1-.5z" fill="#f90"/><path d="m15.9 29.9c.6.1 1 .4 1 .4s-.3-.5-1-.5z" fill="#f90"/><path d="m18.5 28.4c.6.1 1 .4 1 .4s-.3-.5-1-.5z" fill="#f90"/><path d="m16.4 26.2c-.6-.1-1-.4-1-.4s.3.5 1 .5z" fill="#f90"/><path d="m18.5 22.8c-.6-.1-1-.4-1-.4s.3.5 1 .5z" fill="#f90"/><path d="m2.3 19.3c-.6-.1-1-.4-1-.4s.3.5 1 .5z" fill="#f90"/><path d="m18.6 26.7c-.6-.1-1-.4-1-.4s.3.5 1 .5z" fill="#f90"/><path d="m15.6 27.8c-.6-.1-1-.4-1-.4s.3.5 1 .5z" fill="#f90"/><path d="m10.4 20.8c-.6-.1-1-.4-1-.4s.3.5 1 .5z" fill="#f90"/><path d="m1.5 24.9c-.6-.1-1-.4-1-.4s.3.5 1 .5z" fill="#f90"/><path d="m8.2 23.6c-.6-.1-1-.4-1-.4s.3.5 1 .5z" fill="#f90"/><path d="m15.4 31c-.6-.1-1-.4-1-.4s.3.5 1 .5z" fill="#f90"/><path d="m14.1 29.5c.6.1 1 .4 1 .4s-.3-.5-1-.5z" fill="#f90"/><path d="m5.5 21.3c.6.1 1 .4 1 .4s-.3-.5-1-.5z" fill="#f90"/><path d="m.4 22.7c.9.3 1.7 1.1 1.7 1.1s-.6-1.1-1.7-1.5z" fill="#f90"/><path d="m16.6 21.7-1-.5-5.6 2.8v5.8l1 .5v-5.8z" fill="#825012"/><path d="m9.6 18.2-1-.5-5.6 2.6v6l1 .5v-5.8z" fill="#825012"/><path d="m19.6 23.2v5.8l-5.6 2.8v-5.8z" opacity=".29"/><path d="m.4 19.2v5.8l13.6 6.8v-5.8z" opacity=".11"/><path d="m14.4 32 13.6 6.8 5.6-2.8v-5.8l-13.6-6.8-5.6 2.8z" fill="#fc0"/><path d="m21.3 34.8s.7 1.1 2.2 1.1c1.2 0 2.5 1.3 2.5 1.3s-.7-1.4-2.2-1.6c-1.4-.1-2.5-.8-2.5-.8z" fill="#f90"/><path d="m23.5 32.2s.5.8 1.8.9c1 0 2 1 2 1s-.6-1.1-1.8-1.2c-1.1-.2-2-.7-2-.7z" fill="#f90"/><path d="m19.9 32.4s.7 1.1 2.2 1.1c1.2 0 2.5 1.3 2.5 1.3s-.7-1.4-2.2-1.6c-1.4-.2-2.5-.8-2.5-.8z" fill="#f90"/><path d="m26.2 28.7s.7 1.1 2.2 1.1c1.2 0 2.5 1.3 2.5 1.3s-.7-1.4-2.2-1.6c-1.4-.2-2.5-.8-2.5-.8z" fill="#f90"/><path d="m16.2 28.8s.7 1.1 2.2 1.1c1.2 0 2.5 1.3 2.5 1.3s-.7-1.4-2.2-1.6c-1.3-.2-2.5-.8-2.5-.8z" fill="#f90"/><path d="m22.2 28.5s.5.8 1.6.8c.9 0 1.8.9 1.8.9s-.5-1-1.6-1.1c-1-.1-1.8-.6-1.8-.6z" fill="#f90"/><path d="m16.9 25.1s.7 1.1 2.2 1.1c1.2 0 2.5 1.3 2.5 1.3s-.7-1.4-2.2-1.6c-1.4-.2-2.5-.8-2.5-.8z" fill="#f90"/><path d="m16.4 32.1s.5.7 1.6.8c.9 0 1.8.9 1.8.9s-.5-1-1.6-1.1c-1-.1-1.8-.6-1.8-.6z" fill="#f90"/><path d="m21.7 24.9s.5.8 1.7.9c.9 0 2 1 2 1s-.6-1.1-1.7-1.2c-1.2-.2-2-.7-2-.7z" fill="#f90"/><path d="m14.4 27.2s.5.8 1.6.8c.9 0 1.8.9 1.8.9s-.5-1-1.6-1.1c-1-.1-1.8-.6-1.8-.6z" fill="#f90"/><path d="m28 35.8c-1.1-.2-2-.7-2-.7s.6.9 2 1.1z" fill="#f90"/><path d="m32.9 31.6c-.6-.1-1-.4-1-.4s.3.5 1 .5z" fill="#f90"/><path d="m30.2 34.7c.6.1 1 .4 1 .4s-.3-.5-1-.5z" fill="#f90"/><path d="m18 30.6c.6.1 1 .4 1 .4s-.3-.5-1-.5z" fill="#f90"/><path d="m27.5 31.6c.6.1 1 .4 1 .4s-.3-.5-1-.5z" fill="#f90"/><path d="m20.7 33.9c.6.1 1 .4 1 .4s-.3-.5-1-.5z" fill="#f90"/><path d="m26.8 37.9c.6.1 1 .4 1 .4s-.3-.5-1-.5z" fill="#f90"/><path d="m33.6 32.7c-.6-.1-1-.4-1-.4s.3.5 1 .5z" fill="#f90"/><path d="m31.1 35.8c.6.1 1 .4 1 .4s-.3-.5-1-.5z" fill="#f90"/><path d="m19.4 24.3c.6.1 1 .4 1 .4s-.3-.5-1-.5z" fill="#f90"/><path d="m27.2 27.6c.6.1 1 .4 1 .4s-.3-.5-1-.5z" fill="#f90"/><path d="m29.9 36.9c.6.1 1 .4 1 .4s-.3-.5-1-.5z" fill="#f90"/><path d="m32.5 35.4c.6.1 1 .4 1 .4s-.3-.5-1-.5z" fill="#f90"/><path d="m30.4 33.2c-.6-.1-1-.4-1-.4s.3.5 1 .5z" fill="#f90"/><path d="m32.5 29.8c-.6-.1-1-.4-1-.4s.3.5 1 .5z" fill="#f90"/><path d="m16.3 26.3c-.6-.1-1-.4-1-.4s.3.5 1 .5z" fill="#f90"/><path d="m32.6 33.7c-.6-.1-1-.4-1-.4s.3.5 1 .5z" fill="#f90"/><path d="m29.6 34.8c-.6-.1-1-.4-1-.4s.3.5 1 .5z" fill="#f90"/><path d="m24.4 27.8c-.6-.1-1-.4-1-.4s.3.5 1 .5z" fill="#f90"/><path d="m15.5 31.9c-.6-.1-1-.4-1-.4s.3.5 1 .5z" fill="#f90"/><path d="m22.2 30.6c-.6-.1-1-.4-1-.4s.3.5 1 .5z" fill="#f90"/><path d="m29.4 38c-.6-.1-1-.4-1-.4s.3.5 1 .5z" fill="#f90"/><path d="m28.1 36.5c.6.1 1 .4 1 .4s-.3-.5-1-.5z" fill="#f90"/><path d="m19.5 28.3c.6.1 1 .4 1 .4s-.3-.5-1-.5z" fill="#f90"/><path d="m14.4 29.7c.9.3 1.7 1.1 1.7 1.1s-.6-1.1-1.7-1.5z" fill="#f90"/><path d="m30.6 28.7-1-.5-5.6 2.8v5.8l1 .5v-5.8z" fill="#825012"/><path d="m23.6 25.2-1-.5-5.6 2.6v6l1 .5v-5.8z" fill="#825012"/><path d="m33.6 30.2v5.8l-5.6 2.8v-5.8z" opacity=".29"/><path d="m14.4 26.2v5.8l13.6 6.8v-5.8z" opacity=".11"/><path d="m6.4 16 13.6 6.8 5.6-2.8v-5.8l-13.6-6.8-5.6 2.8z" fill="#fc0"/><path d="m13.3 18.8s.7 1.1 2.2 1.1c1.2 0 2.5 1.3 2.5 1.3s-.7-1.4-2.2-1.6c-1.4-.1-2.5-.8-2.5-.8z" fill="#f90"/><path d="m15.5 16.2s.5.8 1.8.9c1 0 2 1 2 1s-.6-1.1-1.8-1.2c-1.1-.2-2-.7-2-.7z" fill="#f90"/><path d="m11.9 16.4s.7 1.1 2.2 1.1c1.2 0 2.5 1.3 2.5 1.3s-.7-1.4-2.2-1.6c-1.4-.2-2.5-.8-2.5-.8z" fill="#f90"/><path d="m18.2 12.7s.7 1.1 2.2 1.1c1.2 0 2.5 1.3 2.5 1.3s-.7-1.4-2.2-1.6c-1.4-.2-2.5-.8-2.5-.8z" fill="#f90"/><path d="m8.2 12.8s.7 1.1 2.2 1.1c1.2 0 2.5 1.3 2.5 1.3s-.7-1.4-2.2-1.6c-1.3-.2-2.5-.8-2.5-.8z" fill="#f90"/><path d="m14.2 12.5s.5.8 1.6.8c.9 0 1.8.9 1.8.9s-.5-1-1.6-1.1c-1-.1-1.8-.6-1.8-.6z" fill="#f90"/><path d="m8.9 9.1s.7 1.1 2.2 1.1c1.2 0 2.5 1.3 2.5 1.3s-.7-1.4-2.2-1.6c-1.4-.2-2.5-.8-2.5-.8z" fill="#f90"/><path d="m8.4 16.1s.5.7 1.6.8c.9 0 1.8.9 1.8.9s-.5-1-1.6-1.1c-1-.1-1.8-.6-1.8-.6z" fill="#f90"/><path d="m13.7 8.9s.5.8 1.7.9c.9 0 2 1 2 1s-.6-1.1-1.7-1.2c-1.2-.2-2-.7-2-.7z" fill="#f90"/><path d="m6.4 11.2s.5.8 1.6.8c.9 0 1.8.9 1.8.9s-.5-1-1.6-1.1c-1-.1-1.8-.6-1.8-.6z" fill="#f90"/><path d="m20 19.8c-1.1-.2-2-.7-2-.7s.6.9 2 1.1z" fill="#f90"/><path d="m24.9 15.6c-.6-.1-1-.4-1-.4s.3.5 1 .5z" fill="#f90"/><path d="m22.2 18.7c.6.1 1 .4 1 .4s-.3-.5-1-.5z" fill="#f90"/><path d="m10 14.6c.6.1 1 .4 1 .4s-.3-.5-1-.5z" fill="#f90"/><path d="m19.5 15.6c.6.1 1 .4 1 .4s-.3-.5-1-.5z" fill="#f90"/><path d="m12.7 17.9c.6.1 1 .4 1 .4s-.3-.5-1-.5z" fill="#f90"/><path d="m18.8 21.9c.6.1 1 .4 1 .4s-.3-.5-1-.5z" fill="#f90"/><path d="m25.6 16.7c-.6-.1-1-.4-1-.4s.3.5 1 .5z" fill="#f90"/><path d="m23.1 19.8c.6.1 1 .4 1 .4s-.3-.5-1-.5z" fill="#f90"/><path d="m11.4 8.3c.6.1 1 .4 1 .4s-.3-.5-1-.5z" fill="#f90"/><path d="m19.2 11.6c.6.1 1 .4 1 .4s-.3-.5-1-.5z" fill="#f90"/><path d="m21.9 20.9c.6.1 1 .4 1 .4s-.3-.5-1-.5z" fill="#f90"/><path d="m24.5 19.4c.6.1 1 .4 1 .4s-.3-.5-1-.5z" fill="#f90"/><path d="m22.4 17.2c-.6-.1-1-.4-1-.4s.3.5 1 .5z" fill="#f90"/><path d="m24.5 13.8c-.6-.1-1-.4-1-.4s.3.5 1 .5z" fill="#f90"/><path d="m8.3 10.3c-.6-.1-1-.4-1-.4s.3.5 1 .5z" fill="#f90"/><path d="m24.6 17.7c-.6-.1-1-.4-1-.4s.3.5 1 .5z" fill="#f90"/><path d="m21.6 18.8c-.6-.1-1-.4-1-.4s.3.5 1 .5z" fill="#f90"/><path d="m16.4 11.8c-.6-.1-1-.4-1-.4s.3.5 1 .5z" fill="#f90"/><path d="m7.5 15.9c-.6-.1-1-.4-1-.4s.3.5 1 .5z" fill="#f90"/><path d="m14.2 14.6c-.6-.1-1-.4-1-.4s.3.5 1 .5z" fill="#f90"/><path d="m21.4 22c-.6-.1-1-.4-1-.4s.3.5 1 .5z" fill="#f90"/><path d="m20.1 20.5c.6.1 1 .4 1 .4s-.3-.5-1-.5z" fill="#f90"/><path d="m11.5 12.3c.6.1 1 .4 1 .4s-.3-.5-1-.5z" fill="#f90"/><path d="m6.4 13.7c.9.3 1.7 1.1 1.7 1.1s-.6-1.1-1.7-1.5z" fill="#f90"/><path d="m22.6 12.7-1-.5-5.6 2.8v5.8l1 .5v-5.8z" fill="#825012"/><path d="m15.6 9.2-1-.5-5.6 2.6v6l1 .5v-5.8z" fill="#825012"/><path d="m25.6 14.2v5.8l-5.6 2.8v-5.8z" opacity=".29"/><path d="m6.4 10.2v5.8l13.6 6.8v-5.8z" opacity=".11"/><path d="m20.4 23 13.6 6.8 5.6-2.8v-5.8l-13.6-6.8-5.6 2.8z" fill="#fc0"/><path d="m27.3 25.8s.7 1.1 2.2 1.1c1.2 0 2.5 1.3 2.5 1.3s-.7-1.4-2.2-1.6c-1.4-.1-2.5-.8-2.5-.8z" fill="#f90"/><path d="m29.5 23.2s.5.8 1.8.9c1 0 2 1 2 1s-.6-1.1-1.8-1.2c-1.1-.2-2-.7-2-.7z" fill="#f90"/><path d="m25.9 23.4s.7 1.1 2.2 1.1c1.2 0 2.5 1.3 2.5 1.3s-.7-1.4-2.2-1.6c-1.4-.2-2.5-.8-2.5-.8z" fill="#f90"/><path d="m32.2 19.7s.7 1.1 2.2 1.1c1.2 0 2.5 1.3 2.5 1.3s-.7-1.4-2.2-1.6c-1.4-.2-2.5-.8-2.5-.8z" fill="#f90"/><path d="m22.2 19.8s.7 1.1 2.2 1.1c1.2 0 2.5 1.3 2.5 1.3s-.7-1.4-2.2-1.6c-1.3-.2-2.5-.8-2.5-.8z" fill="#f90"/><path d="m28.2 19.5s.5.8 1.6.8c.9 0 1.8.9 1.8.9s-.5-1-1.6-1.1c-1-.1-1.8-.6-1.8-.6z" fill="#f90"/><path d="m22.9 16.1s.7 1.1 2.2 1.1c1.2 0 2.5 1.3 2.5 1.3s-.7-1.4-2.2-1.6c-1.4-.2-2.5-.8-2.5-.8z" fill="#f90"/><path d="m22.4 23.1s.5.7 1.6.8c.9 0 1.8.9 1.8.9s-.5-1-1.6-1.1c-1-.1-1.8-.6-1.8-.6z" fill="#f90"/><path d="m27.7 15.9s.5.8 1.7.9c.9 0 2 1 2 1s-.6-1.1-1.7-1.2c-1.2-.2-2-.7-2-.7z" fill="#f90"/><path d="m20.4 18.2s.5.8 1.6.8c.9 0 1.8.9 1.8.9s-.5-1-1.6-1.1c-1-.1-1.8-.6-1.8-.6z" fill="#f90"/><path d="m34 26.8c-1.1-.2-2-.7-2-.7s.6.9 2 1.1z" fill="#f90"/><path d="m38.9 22.6c-.6-.1-1-.4-1-.4s.3.5 1 .5z" fill="#f90"/><path d="m36.2 25.7c.6.1 1 .4 1 .4s-.3-.5-1-.5z" fill="#f90"/><path d="m24 21.6c.6.1 1 .4 1 .4s-.3-.5-1-.5z" fill="#f90"/><path d="m33.5 22.6c.6.1 1 .4 1 .4s-.3-.5-1-.5z" fill="#f90"/><path d="m26.7 24.9c.6.1 1 .4 1 .4s-.3-.5-1-.5z" fill="#f90"/><path d="m32.8 28.9c.6.1 1 .4 1 .4s-.3-.5-1-.5z" fill="#f90"/><path d="m39.6 23.7c-.6-.1-1-.4-1-.4s.3.5 1 .5z" fill="#f90"/><path d="m37.1 26.8c.6.1 1 .4 1 .4s-.3-.5-1-.5z" fill="#f90"/><path d="m25.4 15.3c.6.1 1 .4 1 .4s-.3-.5-1-.5z" fill="#f90"/><path d="m33.2 18.6c.6.1 1 .4 1 .4s-.3-.5-1-.5z" fill="#f90"/><path d="m35.9 27.9c.6.1 1 .4 1 .4s-.3-.5-1-.5z" fill="#f90"/><path d="m38.5 26.4c.6.1 1 .4 1 .4s-.3-.5-1-.5z" fill="#f90"/><path d="m36.4 24.2c-.6-.1-1-.4-1-.4s.3.5 1 .5z" fill="#f90"/><path d="m38.5 20.8c-.6-.1-1-.4-1-.4s.3.5 1 .5z" fill="#f90"/><path d="m22.3 17.3c-.6-.1-1-.4-1-.4s.3.5 1 .5z" fill="#f90"/><path d="m38.6 24.7c-.6-.1-1-.4-1-.4s.3.5 1 .5z" fill="#f90"/><path d="m35.6 25.8c-.6-.1-1-.4-1-.4s.3.5 1 .5z" fill="#f90"/><path d="m30.4 18.8c-.6-.1-1-.4-1-.4s.3.5 1 .5z" fill="#f90"/><path d="m21.5 22.9c-.6-.1-1-.4-1-.4s.3.5 1 .5z" fill="#f90"/><path d="m28.2 21.6c-.6-.1-1-.4-1-.4s.3.5 1 .5z" fill="#f90"/><path d="m35.4 29c-.6-.1-1-.4-1-.4s.3.5 1 .5z" fill="#f90"/><path d="m34.1 27.5c.6.1 1 .4 1 .4s-.3-.5-1-.5z" fill="#f90"/><path d="m25.5 19.3c.6.1 1 .4 1 .4s-.3-.5-1-.5z" fill="#f90"/><path d="m20.4 20.7c.9.3 1.7 1.1 1.7 1.1s-.6-1.1-1.7-1.5z" fill="#f90"/><path d="m36.6 19.7-1-.5-5.6 2.8v5.8l1 .5v-5.8z" fill="#825012"/><path d="m29.6 16.2-1-.5-5.6 2.6v6l1 .5v-5.8z" fill="#825012"/><path d="m39.6 21.2v5.8l-5.6 2.8v-5.8z" opacity=".29"/><path d="m20.4 17.2v5.8l13.6 6.8v-5.8z" opacity=".11"/><path d="m.4 19 13.6 6.8 5.6-2.8v-5.8l-13.6-6.8-5.6 2.8z" fill="#fc0"/><path d="m7.3 21.8s.7 1.1 2.2 1.1c1.2 0 2.5 1.3 2.5 1.3s-.7-1.4-2.2-1.6c-1.4-.1-2.5-.8-2.5-.8z" fill="#f90"/><path d="m9.5 19.2s.5.8 1.8.9c1 0 2 1 2 1s-.6-1.1-1.8-1.2c-1.1-.2-2-.7-2-.7z" fill="#f90"/><path d="m5.9 19.4s.7 1.1 2.2 1.1c1.2 0 2.5 1.3 2.5 1.3s-.7-1.4-2.2-1.6c-1.4-.2-2.5-.8-2.5-.8z" fill="#f90"/><path d="m12.2 15.7s.7 1.1 2.2 1.1c1.2 0 2.5 1.3 2.5 1.3s-.7-1.4-2.2-1.6c-1.4-.2-2.5-.8-2.5-.8z" fill="#f90"/><path d="m2.2 15.8s.7 1.1 2.2 1.1c1.2 0 2.5 1.3 2.5 1.3s-.7-1.4-2.2-1.6c-1.3-.2-2.5-.8-2.5-.8z" fill="#f90"/><path d="m8.2 15.5s.5.8 1.6.8c.9 0 1.8.9 1.8.9s-.5-1-1.6-1.1c-1-.1-1.8-.6-1.8-.6z" fill="#f90"/><path d="m2.9 12.1s.7 1.1 2.2 1.1c1.2 0 2.5 1.3 2.5 1.3s-.7-1.4-2.2-1.6c-1.4-.2-2.5-.8-2.5-.8z" fill="#f90"/><path d="m2.4 19.1s.5.7 1.6.8c.9 0 1.8.9 1.8.9s-.5-1-1.6-1.1c-1-.1-1.8-.6-1.8-.6z" fill="#f90"/><path d="m7.7 11.9s.5.8 1.7.9c.9 0 2 1 2 1s-.6-1.1-1.7-1.2c-1.2-.2-2-.7-2-.7z" fill="#f90"/><path d="m.4 14.2s.5.8 1.6.8c.9 0 1.8.9 1.8.9s-.5-1-1.6-1.1c-1-.1-1.8-.6-1.8-.6z" fill="#f90"/><path d="m14 22.8c-1.1-.2-2-.7-2-.7s.6.9 2 1.1z" fill="#f90"/><path d="m18.9 18.6c-.6-.1-1-.4-1-.4s.3.5 1 .5z" fill="#f90"/><path d="m16.2 21.7c.6.1 1 .4 1 .4s-.3-.5-1-.5z" fill="#f90"/><path d="m4 17.6c.5.1 1 .4 1 .4s-.3-.5-1-.5z" fill="#f90"/><path d="m13.5 18.6c.6.1 1 .4 1 .4s-.3-.5-1-.5z" fill="#f90"/><path d="m6.7 20.9c.6.1 1 .4 1 .4s-.3-.5-1-.5z" fill="#f90"/><path d="m12.8 24.9c.6.1 1 .4 1 .4s-.3-.5-1-.5z" fill="#f90"/><path d="m19.6 19.7c-.6-.1-1-.4-1-.4s.3.5 1 .5z" fill="#f90"/><path d="m17.1 22.8c.6.1 1 .4 1 .4s-.3-.5-1-.5z" fill="#f90"/><path d="m5.4 11.3c.6.1 1 .4 1 .4s-.3-.5-1-.5z" fill="#f90"/><path d="m13.2 14.6c.6.1 1 .4 1 .4s-.3-.5-1-.5z" fill="#f90"/><path d="m15.9 23.9c.6.1 1 .4 1 .4s-.3-.5-1-.5z" fill="#f90"/><path d="m18.5 22.4c.6.1 1 .4 1 .4s-.3-.5-1-.5z" fill="#f90"/><path d="m16.4 20.2c-.6-.1-1-.4-1-.4s.3.5 1 .5z" fill="#f90"/><path d="m18.5 16.8c-.6-.1-1-.4-1-.4s.3.5 1 .5z" fill="#f90"/><path d="m2.3 13.3c-.6-.1-1-.4-1-.4s.3.5 1 .5z" fill="#f90"/><path d="m18.6 20.7c-.6-.1-1-.4-1-.4s.3.5 1 .5z" fill="#f90"/><path d="m15.6 21.8c-.6-.1-1-.4-1-.4s.3.5 1 .5z" fill="#f90"/><path d="m10.4 14.8c-.6-.1-1-.4-1-.4s.3.5 1 .5z" fill="#f90"/><path d="m1.5 18.9c-.6-.1-1-.4-1-.4s.3.5 1 .5z" fill="#f90"/><path d="m8.2 17.6c-.6-.1-1-.4-1-.4s.3.5 1 .5z" fill="#f90"/><path d="m15.4 25c-.6-.1-1-.4-1-.4s.3.5 1 .5z" fill="#f90"/><path d="m14.1 23.5c.6.1 1 .4 1 .4s-.3-.5-1-.5z" fill="#f90"/><path d="m5.5 15.3c.6.1 1 .4 1 .4s-.3-.5-1-.5z" fill="#f90"/><path d="m.4 16.7c.9.3 1.7 1.1 1.7 1.1s-.6-1.1-1.7-1.5z" fill="#f90"/><path d="m16.6 15.7-1-.5-5.6 2.8v5.8l1 .5v-5.8z" fill="#825012"/><path d="m9.6 12.2-1-.5-5.6 2.6v6l1 .5v-5.8z" fill="#825012"/><path d="m19.6 17.2v5.8l-5.6 2.8v-5.8z" opacity=".29"/><path d="m.4 13.2v5.8l13.6 6.8v-5.8z" opacity=".11"/><path d="m14.4 26 13.6 6.8 5.6-2.8v-5.8l-13.6-6.8-5.6 2.8z" fill="#fc0"/><path d="m21.3 28.8s.7 1.1 2.2 1.1c1.2 0 2.5 1.3 2.5 1.3s-.7-1.4-2.2-1.6c-1.4-.1-2.5-.8-2.5-.8z" fill="#f90"/><path d="m23.5 26.2s.5.8 1.8.9c1 0 2 1 2 1s-.6-1.1-1.8-1.2c-1.1-.2-2-.7-2-.7z" fill="#f90"/><path d="m19.9 26.4s.7 1.1 2.2 1.1c1.2 0 2.5 1.3 2.5 1.3s-.7-1.4-2.2-1.6c-1.4-.2-2.5-.8-2.5-.8z" fill="#f90"/><path d="m26.2 22.7s.7 1.1 2.2 1.1c1.2 0 2.5 1.3 2.5 1.3s-.7-1.4-2.2-1.6c-1.4-.2-2.5-.8-2.5-.8z" fill="#f90"/><path d="m16.2 22.8s.7 1.1 2.2 1.1c1.2 0 2.5 1.3 2.5 1.3s-.7-1.4-2.2-1.6c-1.3-.2-2.5-.8-2.5-.8z" fill="#f90"/><path d="m22.2 22.5s.5.8 1.6.8c.9 0 1.8.9 1.8.9s-.5-1-1.6-1.1c-1-.1-1.8-.6-1.8-.6z" fill="#f90"/><path d="m16.9 19.1s.7 1.1 2.2 1.1c1.2 0 2.5 1.3 2.5 1.3s-.7-1.4-2.2-1.6c-1.4-.2-2.5-.8-2.5-.8z" fill="#f90"/><path d="m16.4 26.1s.5.7 1.6.8c.9 0 1.8.9 1.8.9s-.5-1-1.6-1.1c-1-.1-1.8-.6-1.8-.6z" fill="#f90"/><path d="m21.7 18.9s.5.8 1.7.9c.9 0 2 1 2 1s-.6-1.1-1.7-1.2c-1.2-.2-2-.7-2-.7z" fill="#f90"/><path d="m14.4 21.2s.5.8 1.6.8c.9 0 1.8.9 1.8.9s-.5-1-1.6-1.1c-1-.1-1.8-.6-1.8-.6z" fill="#f90"/><path d="m28 29.8c-1.1-.2-2-.7-2-.7s.6.9 2 1.1z" fill="#f90"/><path d="m32.9 25.6c-.6-.1-1-.4-1-.4s.3.5 1 .5z" fill="#f90"/><path d="m30.2 28.7c.6.1 1 .4 1 .4s-.3-.5-1-.5z" fill="#f90"/><path d="m18 24.6c.6.1 1 .4 1 .4s-.3-.5-1-.5z" fill="#f90"/><path d="m27.5 25.6c.6.1 1 .4 1 .4s-.3-.5-1-.5z" fill="#f90"/><path d="m20.7 27.9c.6.1 1 .4 1 .4s-.3-.5-1-.5z" fill="#f90"/><path d="m26.8 31.9c.6.1 1 .4 1 .4s-.3-.5-1-.5z" fill="#f90"/><path d="m33.6 26.7c-.6-.1-1-.4-1-.4s.3.5 1 .5z" fill="#f90"/><path d="m31.1 29.8c.6.1 1 .4 1 .4s-.3-.5-1-.5z" fill="#f90"/><path d="m19.4 18.3c.6.1 1 .4 1 .4s-.3-.5-1-.5z" fill="#f90"/><path d="m27.2 21.6c.6.1 1 .4 1 .4s-.3-.5-1-.5z" fill="#f90"/><path d="m29.9 30.9c.6.1 1 .4 1 .4s-.3-.5-1-.5z" fill="#f90"/><path d="m32.5 29.4c.6.1 1 .4 1 .4s-.3-.5-1-.5z" fill="#f90"/><path d="m30.4 27.2c-.6-.1-1-.4-1-.4s.3.5 1 .5z" fill="#f90"/><path d="m32.5 23.8c-.6-.1-1-.4-1-.4s.3.5 1 .5z" fill="#f90"/><path d="m16.3 20.3c-.6-.1-1-.4-1-.4s.3.5 1 .5z" fill="#f90"/><path d="m32.6 27.7c-.6-.1-1-.4-1-.4s.3.5 1 .5z" fill="#f90"/><path d="m29.6 28.8c-.6-.1-1-.4-1-.4s.3.5 1 .5z" fill="#f90"/><path d="m24.4 21.8c-.6-.1-1-.4-1-.4s.3.5 1 .5z" fill="#f90"/><path d="m15.5 25.9c-.6-.1-1-.4-1-.4s.3.5 1 .5z" fill="#f90"/><path d="m22.2 24.6c-.6-.1-1-.4-1-.4s.3.5 1 .5z" fill="#f90"/><path d="m29.4 32c-.6-.1-1-.4-1-.4s.3.5 1 .5z" fill="#f90"/><path d="m28.1 30.5c.6.1 1 .4 1 .4s-.3-.5-1-.5z" fill="#f90"/><path d="m19.5 22.3c.6.1 1 .4 1 .4s-.3-.5-1-.5z" fill="#f90"/><path d="m14.4 23.7c.9.3 1.7 1.1 1.7 1.1s-.6-1.1-1.7-1.5z" fill="#f90"/><path d="m30.6 22.7-1-.5-5.6 2.8v5.8l1 .5v-5.8z" fill="#825012"/><path d="m23.6 19.2-1-.5-5.6 2.6v6l1 .5v-5.8z" fill="#825012"/><path d="m33.6 24.2v5.8l-5.6 2.8v-5.8z" opacity=".29"/><path d="m14.4 20.2v5.8l13.6 6.8v-5.8z" opacity=".11"/></svg>