<svg xmlns:xlink="http://www.w3.org/1999/xlink"  enable-background="new 0 0 320 320" height="320" viewBox="0 0 320 320" width="320" xmlns="http://www.w3.org/2000/svg"><path d="m202.7 274.3c20.1-10.9 96.5-47.1 66.7-65.3-27.9-17-99.4 24.1-119.1 34.6-29 15.4-84.1 52.4-66.4 63.5 18.1 11.3 81-12.3 118.8-32.8z" opacity=".2"/><path d="m219.3 114.6s2.8-10.4 16.4-12.3 23.4 4.7 36.2 24.5 26.1 24.5 26.1 24.5-15.4 12-30.5-2.5c-15-14.5-21.3-35.6-31.8-36.5s-10.5 6.1-10.5 6.1z" fill="#2d3134"/><path d="m214.8 175.5c5.6 2.6 17.2 7.7 18.6 10s-1.4 29.3 2.1 31.4 11.9 5.1 14.6 6.3c2.8 1.2 9.8 3.7 10 0s-1.2-11.6-2.8-11.4-13.3-.2-13.5-1.4 1.7-29.5.5-33-17.9-18.4-18.6-23.3-10.9 21.4-10.9 21.4z" fill="#762c07"/><path d="m214.8 175.5c5.6 2.6 17.2 7.7 18.6 10s-1.4 29.3 2.1 31.4 11.9 5.1 14.6 6.3c2.8 1.2 9.8 3.7 10 0s-1.2-11.6-2.8-11.4-13.3-.2-13.5-1.4 1.7-29.5.5-33-17.9-18.4-18.6-23.3-10.9 21.4-10.9 21.4z" opacity=".15"/><path d="m252 211.3s6-.9 7 .5 2.8 11.9 1.2 14-8.6-1.4-8.6-1.4 4.6-7.8.4-13.1z" fill="#2d3134"/><path d="m98.3 200.4c-5.5 13.8-19 33.3-19.8 36s-1.5 36.8-1 39 3 5 2.3 8.8 4 15.5 6.5 16 8-9.3 8.5-12.3-6.3-10.3-6.3-13.8 1.8-28 3.5-32.3 33-35.3 33-35.3z" fill="#762c07"/><path d="m98.3 200.4c-5.5 13.8-19 33.3-19.8 36s-1.5 36.8-1 39 3 5 2.3 8.8 4 15.5 6.5 16 8-9.3 8.5-12.3-6.3-10.3-6.3-13.8 1.8-28 3.5-32.3 33-35.3 33-35.3z" opacity=".15"/><path d="m228.8 119c-11.7-10.5-17.3-10.7-31.8-9.3-27.4 2.7-30.5 19.1-48.4 23.9s-32.3-7.8-50.4-20.6-32.8-13.6-40.5-10.6c-7.6 3-14.8 15.3-15.9 17.2-1.2 2 1.3 10.6-1.3 15.9-2.7 5.3-6.1 16.7-9.3 20.6-3.2 3.8-4 13.9 3.3 18.6 7.3 4.6 11.3.8 15.3-5.3s9.5-13.6 13.9-14.6c4.5-1 13.3-6.1 13.3-6.1s12.4 15.9 13 29c1.1 23.4 12.5 34.1 23.8 37.1 2.8 4 5.8 8.8 5.9 11.4.3 5 .8 22.8 2 24s25.3 17.5 27.3 18 12.3-2.3 15.3-1.8 11.8 1.8 12.3-.8-4-13.5-6.5-13.5-15.3 3-17.3 3-17.8-12.3-18-13.8c-.2-1 2-18.7 3.3-29.3 5-1.7 19.4-6.6 27.2-10.9 9.2-5.1 19-11.3 25.8-15.7.3 2.1 1.2 5 3.2 8.7 4 7.5 20.5 13.5 20.3 16.8s-17.3 27-19.5 29.5-6 18.3-4 19.8 12-3.5 15-5.8 0-8.5.3-12 16.8-23.3 21.3-29-1.5-13.8-4-20.5 2.5-5.8 9.8-28.3c5-16 7.3-34.9-4.7-45.6z" fill="#762c07"/><g fill="#2d3134"><path d="m91 279.7s5.6 6 5.1 7.9c-.4 1.5-4.6 12.4-9.6 12.9s-6-10.3-6-10.3 5.3.5 10.5-10.5z"/><path d="m162.5 252.9s4.5-1.5 7.5-.8 8.3 10.8 7 14.5-11.5 0-11.5 0 1.5-9.4-3-13.7z"/><path d="m192 245.2s-4.3 10.5-1 15 14.8-4.3 16.5-6.5-1-8.3-1-8.3-6 7.3-14.5-.2z"/></g><path d="m59.3 107.4s-6.9-16.2-8.4-15.8-2.6 13.2-1.2 16.3c1.4 3 9.6-.5 9.6-.5z" fill="#762c07"/><path d="m59.3 107.4s-6.9-16.2-8.4-15.8-2.6 13.2-1.2 16.3c1.4 3 9.6-.5 9.6-.5z" opacity=".15"/><path d="m57.1 130.9 7.3-.7s.3 2.9-3.3 3.3c-3.7.5-4-2.6-4-2.6z" fill="#2d3134"/><path d="m35.8 168.7 1.3-6.6s3.2 1 2.7 4c-.5 2.9-4 2.6-4 2.6z" fill="#2d3134"/><path d="m39.8 163.4c-3.3-1.4-6.4-5-8.3-7.7-.1.1-.2.3-.3.4-3.2 3.8-4 13.9 3.3 18.6s11.3.8 15.3-5.3c.9-1.4 1.9-2.9 3-4.4-3.9.1-9.5-.1-13-1.6z" opacity=".15"/><path d="m48.1 109.4c-1.5 1.9-3.6 6.8 1.3 8s10.4-4.6 12.6-6.6c13-11.6 40.2 4.1 50.2 13.4 10.4 9.8 17.1 11.3 19.4 9.8s-2.5-2.7-11-11.1c-6.1-6.1-17.2-15.7-32.3-20.6-15-5.1-31.4-4.3-40.2 7.1z" fill="#2d3134"/><path d="m64.4 110.6c-.8-1.2.8-7.6 3-7.5s7.5 9.2 7.5 9.2l-4.5 5.1z" fill="#762c07"/><path d="m64.4 110.6c-.8-1.2.8-7.6 3-7.5s2.9 14.3 2.9 14.3z" opacity=".1"/></svg>