<svg xmlns:xlink="http://www.w3.org/1999/xlink"  enable-background="new 0 0 136 112" height="112" viewBox="0 0 136 112" width="136" xmlns="http://www.w3.org/2000/svg"><g transform="matrix(-1 0 0 1 224 512)"><path d="m168-448 56-28v24l-56 28z" fill="#e5e5e5"/><path d="m168-448 56-28v24l-56 28z" opacity=".11"/><path d="m168-448 56-28-24.1-24-55.9 28z" fill="#2d3134"/><path d="m200.6-498.2-55.5 27.8-1.1-1.6 55.9-28z" fill="#fff" opacity=".2"/></g><g transform="matrix(.1 0 0 .1 88 76)"><path d="m-614.8-27.5-4 2-220-110v-180l4-2 220 110z" fill="#fff"/><path d="m-628.8-200.5-200-100v170l200 100z" fill="#762c07"/><path d="m-628.8-36.5v6l-200-100v-170l6 3v164z" opacity=".3"/><path d="m-816.8-284.5v32l182 91v-32z" fill="#825012"/><path d="m-816.8-284.5v32l182 91v-32zm178 117-174-87v-24l174 87z" opacity=".3"/><path d="m-816.8-246.5v32l182 91v-32z" fill="#825012"/><path d="m-816.8-246.5v32l182 91v-32zm178 117-174-87v-24l174 87z" opacity=".3"/><path d="m-816.8-208.5v32l182 91v-32z" fill="#825012"/><path d="m-816.8-208.5v32l182 91v-32zm178 117-174-87v-24l174 87z" opacity=".3"/><path d="m-816.8-170.5v32l182 91v-32z" fill="#825012"/><path d="m-816.8-170.5v32l182 91v-32zm178 117-174-87v-24l174 87z" opacity=".3"/><path d="m-618.8-25.5-220-110v-180l220 110z" opacity=".11"/><path d="m-618.8-25.5 4-2v-180l-4 2z" opacity=".29"/></g><path d="m72 88.1-27.7-55.7-28.3 27.7v23.8l56 28.1 64-32v-23.9z" fill="#e5e5e5"/><g transform="matrix(-.1 0 0 .1 182 612)"><path d="m1585-5306.9v-131.2l-90 45v131.2z" fill="#fff"/><path d="m1500-5270 80-40v-120l-80 40z" fill="#762c07"/><path d="m1576-5424v112l-22 11v-112z" fill="#39c"/><path d="m1572-5314v-108l4-2v112l-22 11v-4z" opacity=".2"/><path d="m1546-5409v112l-42 21v-112z" fill="#39c"/><path d="m1542-5299v-108l4-2v112l-42 21v-4z" opacity=".2"/><path d="m1552-5361-4 2v21l4-2z" fill="#2d3134"/></g><g transform="matrix(-.1 0 0 .1 212 626)"><path d="m1565-5296.9v-131.2l-90 45v131.2z" fill="#fff"/><path d="m1480-5260 80-40v-120l-80 40z" fill="#762c07"/><path d="m1556-5414v112l-42 21v-112z" fill="#39c"/><path d="m1552-5304v-108l4-2v112l-42 21v-4z" opacity=".2"/><path d="m1506-5389v112l-22 11v-112z" fill="#39c"/><path d="m1502-5279v-108l4-2v112l-22 11v-4z" opacity=".2"/><path d="m1512-5341-4 2v21l4-2z" fill="#2d3134"/></g><g transform="matrix(.1 0 0 .1 176 590)"><path d="m-1425-5246.9v-131.2l50 25v131.2z" fill="#fff"/><path d="m-1380-5230-40-20v-120l40 20z" fill="#762c07"/><path d="m-1416-5364v112l32 16v-112z" fill="#39c"/><path d="m-1412-5254v-108l-4-2v112l32 16v-4z" opacity=".2"/></g><g transform="matrix(.1 0 0 .1 200 602)"><path d="m-1505-5286.9v-131.2l50 25v131.2z" fill="#fff"/><path d="m-1460-5270-40-20v-120l40 20z" fill="#762c07"/><path d="m-1496-5404v112l32 16v-112z" fill="#39c"/><path d="m-1492-5294v-108l-4-2v112l32 16v-4z" opacity=".2"/></g><g transform="matrix(-.1 0 0 .1 196 596)"><path d="m1565-5276.9v-131.2l-90 45v131.2z" fill="#fff"/><path d="m1480-5240 80-40v-120l-80 40z" fill="#762c07"/><path d="m1556-5394v112l-32 16v-112z" fill="#39c"/><path d="m1552-5284v-108l4-2v112l-32 16v-4z" opacity=".2"/><path d="m1516-5374v112l-32 16v-112z" fill="#39c"/><path d="m1512-5264v-108l4-2v112l-32 16v-4z" opacity=".2"/><path d="m1522-5326-4 2v21l4-2z" fill="#2d3134"/><g fill="#fff" opacity=".15"><path d="m1524-5315.8 32 33.8-32-52.9z"/><path d="m1512-5354.8-8-13.2-20 10 28 29.6z"/></g></g><g transform="matrix(.1 0 0 .1 236 626)"><path d="m-1525-5403.1 90-45v131.2l-90 45z" fill="#fff"/><path d="m-1520-5280 80-40v-120l-80 40z" fill="#762c07"/><path d="m-1444-5434v112l-32 16v-112z" fill="#39c"/><path d="m-1448-5324v-108l4-2v112l-32 16v-4z" opacity=".2"/><path d="m-1484-5414v112l-32 16v-112z" fill="#39c"/><path d="m-1488-5304v-108l4-2v112l-32 16v-4z" opacity=".2"/><path d="m-1478-5366-4 2v21l4-2z" fill="#2d3134"/><g fill="#fff" opacity=".15"><path d="m-1476-5355.8 32 33.8-32-52.9z"/><path d="m-1488-5394.8-8-13.2-20 10 28 29.6z"/></g></g><g transform="matrix(.1 0 0 .1 252 618)"><path d="m-1525-5403.1 90-45v131.2l-90 45z" fill="#fff"/><path d="m-1520-5280 80-40v-120l-80 40z" fill="#762c07"/><path d="m-1444-5434v112l-32 16v-112z" fill="#39c"/><path d="m-1448-5324v-108l4-2v112l-32 16v-4z" opacity=".2"/><path d="m-1484-5414v112l-32 16v-112z" fill="#39c"/><path d="m-1488-5304v-108l4-2v112l-32 16v-4z" opacity=".2"/><path d="m-1478-5366-4 2v21l4-2z" fill="#2d3134"/></g><g transform="matrix(.1 0 0 .1 268 610)"><path d="m-1525-5403.1 90-45v131.2l-90 45z" fill="#fff"/><path d="m-1520-5280 80-40v-120l-80 40z" fill="#762c07"/><path d="m-1444-5434v112l-32 16v-112z" fill="#39c"/><path d="m-1448-5324v-108l4-2v112l-32 16v-4z" opacity=".2"/><path d="m-1484-5414v112l-32 16v-112z" fill="#39c"/><path d="m-1488-5304v-108l4-2v112l-32 16v-4z" opacity=".2"/><path d="m-1478-5366-4 2v21l4-2z" fill="#2d3134"/><g fill="#fff" opacity=".15"><path d="m-1476-5355.8 32 33.8-32-52.9z"/><path d="m-1488-5394.8-8-13.2-20 10 28 29.6z"/></g></g><path d="m72 88.1 64-32v23.9l-64 32z" opacity=".29"/><path d="m16 60.1 28.1-28.1 27.9 56.1v23.9l-56-28.1z" opacity=".11"/><path d="m72 88.1 64-32-28.2-56.1-63.7 32z" fill="#2d3134"/><path d="m72 88.1 64-32-28.2-56.1-63.7 32z" opacity=".29"/><path d="m108.6 2.1-63.2 31.8-1.3-1.9 63.8-32z" fill="#fff" opacity=".2"/><path d="m72 88.1-27.9-56.1-28.1 28.1h1.2l26.9-26.9 26.8 55h1.1z" fill="#2d3134"/><path d="m102 24 6 3v24l-8 4-6-12v-15z" fill="#e5e5e5"/><path d="m100 55-6-12v-15l6 3z" opacity=".11"/><path d="m108 51-8 4v-24l8-4z" opacity=".29"/><path d="m102 25-6 3 4 2 2-1z" opacity=".29"/><path d="m106 27-4 2v-4z" opacity=".11"/><g transform="matrix(.1 0 0 .1 88 76)"><path d="m-390 245-4 2-100-50v-180l4-2 100 50z" fill="#fff"/><path d="m-404 72-80-40v170l80 40z" fill="#762c07"/><path d="m-404 236v6l-80-40v-170l6 3v164z" opacity=".3"/><path d="m-472 48v32l62 31v-32z" fill="#825012"/><path d="m-472 48v32l62 31v-32zm58 57-54-27v-24l54 27z" opacity=".3"/><path d="m-472 86v32l62 31v-32z" fill="#825012"/><path d="m-472 86v32l62 31v-32zm58 57-54-27v-24l54 27z" opacity=".3"/><path d="m-472 124v32l62 31v-32z" fill="#825012"/><path d="m-472 124v32l62 31v-32zm58 57-54-27v-24l54 27z" opacity=".3"/><path d="m-472 162v32l62 31v-32z" fill="#825012"/><path d="m-472 162v32l62 31v-32zm58 57-54-27v-24l54 27z" opacity=".3"/><path d="m-418 149 8 4v12l4 2v-21l-4-2v6l-8-4z" fill="#999"/><path d="m-394 247-100-50v-180l100 50z" opacity=".11"/><path d="m-394 247 4-2v-180l-4 2z" opacity=".29"/></g></svg>