<svg xmlns:xlink="http://www.w3.org/1999/xlink"  enable-background="new 0 0 16 16" height="16" viewBox="0 0 16 16" width="16" xmlns="http://www.w3.org/2000/svg"><path d="m14 8.1c0 3.3-2.7 5.9-6 5.9s-6-2.6-6-5.9" fill="#e5e5e5"/><path d="m14 8.1c0 3.3-2.7 5.9-6 5.9s-6-2.6-6-5.9" opacity=".2"/><path d="m8 13.5c-1.8 0-3.5-.7-4.7-1.7 1.1 1.3 2.8 2.2 4.7 2.2s3.6-.9 4.7-2.2c-1.2 1-2.9 1.7-4.7 1.7z" opacity=".1"/><ellipse cx="8" cy="8" fill="#e5e5e5" rx="6" ry="3"/><ellipse cx="8" cy="8" opacity=".5" rx="4.8" ry="2"/><path d="m8 6.6c-2.4 0-4.4.7-4.8 1.7.4 1 2.4 1.7 4.8 1.7s4.4-.7 4.8-1.7c-.4-1-2.4-1.7-4.8-1.7z" opacity=".2"/><path d="m13.1 6.7c0-.5-.2-.9-.4-1.3 0-.2.1-.4.1-.7 0-1.3-.8-2.4-1.9-2.9-.2-.6-.8-1-1.5-1-.2 0-.5.1-.7.2-.5-.3-1-.5-1.6-.5-1.2 0-2.2.8-2.6 1.8-1.1.1-1.9 1-1.9 2.1 0 .3.1.7.2 1-.1.3-.2.8-.2 1.2 0 1.9 1.5 3.4 3.4 3.4.6 0 1.1-.2 1.6-.4.4.3 1 .4 1.5.4 1 0 1.9-.5 2.5-1.2.9-.3 1.5-1.2 1.5-2.1z" fill="#539b00"/><circle cx="6.4" cy="5.8" fill="#539b00" r="3.2"/><path d="m4.1 3.6c.6 0 1.1.4 1.4.9h.3c.5 0 1 .2 1.2.6 0-.6-.5-1-1-1-.2-.6-.8-1.1-1.4-1.1s-1.1.3-1.3.8c.2-.2.5-.2.8-.2z" fill="#fff" opacity=".2"/><path d="m7.3 1.9c.8 0 1.5.7 1.6 1.5.2 0 .3-.1.5-.1.9 0 1.6.6 1.8 1.4.1-.2.1-.3.1-.5 0-.9-.7-1.6-1.6-1.6-.2 0-.4 0-.5.1 0-.7-.5-1.2-1.2-1.2-.3 0-.7.1-.9.4z" fill="#fff" opacity=".2"/><path d="m12.3 7.6c-.1.3-.2.5-.3.7v.3c.6-.4 1-1 1.1-1.8-.2.4-.5.6-.8.8z" opacity=".3"/><path d="m12.2 5.7c.1.2.1.4.2.6.2-.3.3-.7.4-1-.2.1-.4.2-.6.4z" opacity=".3"/><path d="m7.8 5.8c.4 0 .8.1 1.2.3.4-.4 1-.6 1.7-.6.6 0 1.1.2 1.5.5-.4-.7-1.1-1.2-2-1.2-.7 0-1.2.2-1.6.5-.2-.1-.5-.2-.8-.2-.8 0-1.5.6-1.7 1.4.5-.4 1.1-.7 1.7-.7z" fill="#fff" opacity=".2"/><path d="m9.5 9.3c-1.3 0-2.5-.7-3.1-1.8-.1.1-.1 2.5 2.7 2.5 1.2 0 2.3-.7 2.9-1.7-.6.6-1.5 1-2.5 1z" opacity=".3"/><path d="m6.8 9c-.2.1-.5.2-.8.2-1.7 0-3.2-1.3-3.4-3v.4c0 1.9 1.5 3.4 3.4 3.4.5 0 1-.1 1.5-.4-.3-.1-.5-.3-.7-.6z" opacity=".3"/></svg>