<svg xmlns:xlink="http://www.w3.org/1999/xlink"  enable-background="new 0 0 16 32" height="32" viewBox="0 0 16 32" width="16" xmlns="http://www.w3.org/2000/svg"><path d="m8 20c-1.7 0-3 .7-3 1.5v6c0 .8 1.3 1.5 3 1.5s3-.7 3-1.5v-6c0-.8-1.3-1.5-3-1.5z" fill="#f8ebcb"/><path d="m8 23c-1.7 0-3-.7-3-1.5v6c0 .8 1.3 1.5 3 1.5s3-.7 3-1.5v-6c0 .8-1.3 1.5-3 1.5z" opacity=".2"/><ellipse cx="8" cy="21.5" fill="#825012" rx="2.3" ry=".9"/><path d="m9 22 .7-.5s.7-4.1.5-6.2-.4-3-.4-3-.7 2.7-.8 4.7 0 5 0 5z" fill="#9c3"/><path d="m9 22 .7-.5s.7-4.1.5-6.2-.4-2.5-.4-2.5-.5 2.2-.6 4.2-.2 5-.2 5z" fill="#28896d"/><path d="m9 21.5.7.3s1.2-2.1 1.4-3.8.4-4.9.4-4.9-1.2 1.7-1.6 4.2-.9 4.2-.9 4.2z" fill="#28896d"/><path d="m9.3 21.7.8-.1s1.6-7 1.7-9.7-.7-5.7-.7-5.7-.4 5.3-.8 7.9-1 7.6-1 7.6z" fill="#9c3"/><g fill="#28896d"><path d="m9.3 21.7.8-.1s1.1-5.8 1.4-8.5c.4-3.4-.2-5.1-.2-5.1s-.4 3.6-.8 6.2-1.2 7.5-1.2 7.5z"/><path d="m8.2 21.6.6.3.6-.4s-.4-4.4-.3-6.2.5-5.7.5-5.7-1.2 3-1.7 4.6.3 7.4.3 7.4z"/><path d="m6.6 21.6.3.1.5-.6s.1-1.4-.3-3.2c-.5-1.9-2.4-5.5-2.4-5.5s.9 4.4 1.1 5.7c.3 1.4.8 3.5.8 3.5z"/><path d="m6.2 22 .2.1.3-.2s-.1-1.9-.4-3.1c-.3-1.3-1-3.1-1-3.1s.1 1.2.1 2.5.8 3.8.8 3.8z"/></g><path d="m6.4 21.8.9-.2s-.2-3.2-1.5-5.4-2.4-3.7-2.4-3.7-.1 2.3 1.5 5.2 1.5 4.1 1.5 4.1z" fill="#9c3"/><path d="m6.4 21.8.9-.2s-.3-3-1.5-5.1-2.2-3.3-2.2-3.3-.2 1.5 1.4 4.4 1.4 4.2 1.4 4.2z" fill="#28896d"/><path d="m6.8 21.5 1-.2s-.4-3.9-1.3-6.4-2.9-5.1-2.9-5.1 1 3.8 1.5 5.3 1.7 6.4 1.7 6.4z" fill="#9c3"/><path d="m6.9 21.8 1-.2s-.5-4.2-1.4-6.7-2.3-3.9-2.3-3.9.6 2.6 1.1 4.2 1.6 6.6 1.6 6.6z" fill="#28896d"/><path d="m7.2 21.1h.8s.7-7.7.9-10.1.5-5.8.5-5.8-1.9 6.8-2.1 9.1c-.2 2.4-.1 6.8-.1 6.8z" fill="#9c3"/><path d="m7.2 21.3.8-.2s.6-7.6.8-10 .4-4.3.4-4.3-1.4 5.4-1.6 7.7c-.3 2.4-.4 6.8-.4 6.8z" fill="#28896d"/><path d="m7.7 21.8 1.1-.4s-.6-6.2-1.1-7.6c-.5-1.5-2.9-6.4-2.9-6.4s1.5 6.6 1.7 8.1 1.2 6.3 1.2 6.3z" fill="#9c3"/><path d="m7.6 21.8 1.3-.3s-.9-6.4-1.4-7.8c-.5-1.5-2-4.8-2-4.8s1 5 1.2 6.5c.1 1.6.9 6.4.9 6.4z" fill="#28896d"/></svg>