<svg xmlns:xlink="http://www.w3.org/1999/xlink"  enable-background="new 0 0 128 80" height="80" viewBox="0 0 128 80" width="128" xmlns="http://www.w3.org/2000/svg"><g transform="translate(8 104)"><path d="m56-82-56 28v2l56 28 56-28v-2z" fill="#f8ebcb"/><path d="m0-52v-2l56 28v2z" opacity=".11"/><path d="m56-26v2l56-28v-2z" opacity=".29"/></g><g transform="translate(62 104)"><path d="m2-52-2 1v26l2 1 2-1v-26z" fill="#f8ebcb"/><path d="m0-25v-26l2 1v26z" opacity=".11"/><path d="m2-50v26l2-1v-26z" opacity=".29"/></g><path d="m96 20-32 16v18l24 12 32-16v-18z" fill="#f8ebcb"/><path d="m108 52 8-4v-12l-8 4z" fill="#2d3134"/><path d="m115.6 36.6v11.2l-4.2 2.1v-11.2z" fill="#39c"/><path d="m115.2 47.6v-10.8l.4-.2v11.2l-4.2 2.1v-.4z" opacity=".2"/><path d="m110.6 39.1v11.2l-2.2 1.1v-11.2z" fill="#39c"/><path d="m110.2 50.1v-10.8l.4-.2v11.2l-2.2 1.1v-.4z" opacity=".2"/><path d="m111.2 43.9-.4.2v2.1l.4-.2z" fill="#2d3134"/><g fill="#fff" opacity=".15"><path d="m110.2 42.2-1.8-2 1.8-.9z"/><path d="m111.4 41.3 3.8 6.3-3.8-4.1z"/></g><path d="m92 60 8-4v-12l-8 4z" fill="#2d3134"/><path d="m99.6 44.6v11.2l-2.2 1.1v-11.2z" fill="#39c"/><path d="m99.2 55.6v-10.8l.4-.2v11.2l-2.2 1.1v-.4z" opacity=".2"/><path d="m96.6 46.1v11.2l-4.2 2.1v-11.2z" fill="#39c"/><path d="m96.2 57.1v-10.8l.4-.2v11.2l-4.2 2.1v-.4z" opacity=".2"/><path d="m97.2 50.9-.4.2v2.1l.4-.2z" fill="#2d3134"/><g fill="#fff" opacity=".15"><path d="m96.2 52.3-3.8-4.1 2.4-1.2 1.4 2.7z"/><path d="m97.4 52.1 1.8 3.5-1.8-2z"/></g><path d="m80 62-8-4v-16.4l8 4z" fill="#2d3134"/><path d="m72.8 42.8v14.8l6.4 3.2v-14.8z" fill="#39c"/><path d="m73.6 57.2v-14l-.8-.4v14.8l6.4 3.2v-.8z" opacity=".2"/><path d="m64 54v-18l24 12v18z" opacity=".11"/><path d="m88 48v18l32-16v-18z" opacity=".29"/><path d="m32 20-24 12v18l32 16 24-12v-18z" fill="#f8ebcb"/><path d="m40 48v18l24-12v-18z" opacity=".29"/><path d="m12 36v12l24 12v-12z" fill="#2d3134"/><g transform="matrix(.1 0 0 .1 20 64)"><path d="m4-234v112l32 16v-112z" fill="#39c"/><path d="m8-124v-108l-4-2v112l32 16v-4z" opacity=".2"/><path d="m44-214v112l32 16v-112z" fill="#39c"/><path d="m48-104v-108l-4-2v112l32 16v-4z" opacity=".2"/></g><g transform="matrix(.1 0 0 .1 28 68)"><path d="m4-234v112l42 21v-112z" fill="#39c"/><path d="m8-124v-108l-4-2v112l42 21v-4z" opacity=".2"/><path d="m54-209v112l22 11v-112z" fill="#39c"/><path d="m58-99v-108l-4-2v112l22 11v-4z" opacity=".2"/><g fill="#fff" opacity=".15"><path d="m58-178.4 18-19.6-18-9z"/><path d="m46-187.1-38 63.1 38-41.3z"/></g></g><g transform="matrix(.1 0 0 .1 12 60)"><path d="m4-234v112l22 11v-112z" fill="#39c"/><path d="m8-124v-108l-4-2v112l22 11v-4z" opacity=".2"/><path d="m34-219v112l42 21v-112z" fill="#39c"/><path d="m38-109v-108l-4-2v112l42 21v-4z" opacity=".2"/><g fill="#fff" opacity=".15"><path d="m38-156.6 38-41.4-24-12-14 27.4z"/><path d="m26-159.2-18 35.2 18-19.6z"/></g></g><path d="m8 50v-18l32 16v18z" opacity=".11"/><path d="m64 0-60 30 60 30 60-30z" fill="#762c07"/><path d="m64 12v-12l60 30z" opacity=".11"/><path d="m64 60v-48l60 18z" opacity=".29"/><path d="m4 30 60-18v48z" opacity=".11"/></svg>