<svg xmlns:xlink="http://www.w3.org/1999/xlink"  enable-background="new 0 0 152 88" height="88" viewBox="0 0 152 88" width="152" xmlns="http://www.w3.org/2000/svg"><g transform="translate(7.975 119.975)"><path d="m64-116-64 32v24l56 28 64-32v-24z" fill="#f8ebcb"/><path d="m0-60v-24l56 28v24z" opacity=".11"/><path d="m56-56v24l64-32v-24z" opacity=".29"/></g><g transform="translate(104 108)"><path d="m28-78-28 14v24l16 8 28-14v-24z" fill="#f8ebcb"/><path d="m0-40v-24l16 8v24z" opacity=".11"/><path d="m16-56v24l28-14v-24z" opacity=".29"/></g><g transform="matrix(.1 0 0 .1 88 76)"><path d="m30-195 100-50 4 2v180l-100 50-4-2z" fill="#cd9a83"/><path d="m44-18 80-40v-170l-80 40z" fill="#762c07"/><path d="m118-61v-164l6-3v170l-80 40v-6z" opacity=".3"/><path d="m50-181v32l62-31v-32z" fill="#825012"/><path d="m50-181v32l62-31v-32zm4 2 54-27v24l-54 27z" opacity=".3"/><path d="m50-143v32l62-31v-32z" fill="#825012"/><path d="m50-143v32l62-31v-32zm4 2 54-27v24l-54 27z" opacity=".3"/><path d="m50-105v32l62-31v-32z" fill="#825012"/><path d="m50-105v32l62-31v-32zm4 2 54-27v24l-54 27z" opacity=".3"/><path d="m50-67v32l62-31v-32z" fill="#825012"/><path d="m50-67v32l62-31v-32zm4 2 54-27v24l-54 27z" opacity=".3"/><path d="m58-114-8 4v-6l-4 2v21l4-2v-12l8-4z" fill="#999"/><path d="m34-193 100-50v180l-100 50z" opacity=".29"/><path d="m34-193-4-2v180l4 2z" opacity=".11"/></g><g transform="matrix(.1 0 0 .1 72 84)"><path d="m10-185 140-70 4 2v138l-140 70-4-2z" fill="#cd9a83"/><path d="m20-58 124-62v-122l-124 62z" fill="#762c07"/><path d="m138-235v112l-52 26v-112z" fill="#39c"/><path d="m134-125v-108l4-2v112l-52 26v-4z" fill="#762c07" opacity=".3"/><path d="m76-204v112l-52 26v-112z" fill="#39c"/><path d="m72-94v-108l4-2v112l-52 26v-4z" fill="#762c07" opacity=".3"/><path d="m84-155-2 1v21l2-1z" opacity=".2"/><path d="m80-153-2 1v21l2-1z" opacity=".2"/><path d="m14-183-4-2v138l4 2z" opacity=".11"/><path d="m144-242 4-2v126l-4-2z" opacity=".11"/><g fill="#fff" opacity=".15"><path d="m86-148.1 48 23.1-48-6.5z"/><path d="m72-154.9v21.4l-48-6.5v-38z"/></g><path d="m14-183v138l140-70v-138zm6 125 124-62v-122l4-2v126l-128 64z" opacity=".29"/></g><g transform="matrix(-.1 0 0 .1 32 72)"><path d="m10-185 140-70 4 2v138l-140 70-4-2z" fill="#cd9a83"/><path d="m20-58 124-62v-122l-124 62z" fill="#762c07"/><path d="m138-235v112l-52 26v-112z" fill="#39c"/><path d="m134-125v-108l4-2v112l-52 26v-4z" fill="#762c07" opacity=".3"/><path d="m76-204v112l-52 26v-112z" fill="#39c"/><path d="m72-94v-108l4-2v112l-52 26v-4z" fill="#762c07" opacity=".3"/><path d="m84-155-2 1v21l2-1z" opacity=".2"/><path d="m80-153-2 1v21l2-1z" opacity=".2"/><path d="m14-183-4-2v138l4 2z" opacity=".29"/><path d="m144-242 4-2v126l-4-2z" opacity=".29"/><g fill="#fff" opacity=".15"><path d="m86-148.1 48 23.1-48-6.5z"/><path d="m72-154.9v21.4l-48-6.5v-38z"/></g><path d="m14-183v138l140-70v-138zm6 125 124-62v-122l4-2v126l-128 64z" opacity=".11"/></g><g transform="matrix(-.1 0 0 .1 56 84)"><path d="m10-185 140-70 4 2v138l-140 70-4-2z" fill="#cd9a83"/><path d="m20-58 124-62v-122l-124 62z" fill="#762c07"/><path d="m138-235v112l-52 26v-112z" fill="#39c"/><path d="m134-125v-108l4-2v112l-52 26v-4z" fill="#762c07" opacity=".3"/><path d="m76-204v112l-52 26v-112z" fill="#39c"/><path d="m72-94v-108l4-2v112l-52 26v-4z" fill="#762c07" opacity=".3"/><path d="m84-155-2 1v21l2-1z" opacity=".2"/><path d="m80-153-2 1v21l2-1z" opacity=".2"/><path d="m14-183-4-2v138l4 2z" opacity=".29"/><path d="m144-242 4-2v126l-4-2z" opacity=".29"/><g fill="#fff" opacity=".15"><path d="m86-148.1 48 23.1-48-6.5z"/><path d="m72-154.9v21.4l-48-6.5v-38z"/></g><path d="m14-183v138l140-70v-138zm6 125 124-62v-122l4-2v126l-128 64z" opacity=".11"/></g><g transform="matrix(.1 0 0 .1 126 74)"><path d="m10-185 140-70 4 2v138l-140 70-4-2z" fill="#cd9a83"/><path d="m20-58 124-62v-122l-124 62z" fill="#762c07"/><path d="m138-235v112l-52 26v-112z" fill="#39c"/><path d="m134-125v-108l4-2v112l-52 26v-4z" fill="#762c07" opacity=".3"/><path d="m76-204v112l-52 26v-112z" fill="#39c"/><path d="m72-94v-108l4-2v112l-52 26v-4z" fill="#762c07" opacity=".3"/><path d="m84-155-2 1v21l2-1z" opacity=".2"/><path d="m80-153-2 1v21l2-1z" opacity=".2"/><path d="m14-183-4-2v138l4 2z" opacity=".11"/><path d="m144-242 4-2v126l-4-2z" opacity=".11"/><g fill="#fff" opacity=".15"><path d="m86-148.1 48 23.1-48-6.5z"/><path d="m72-154.9v21.4l-48-6.5v-38z"/></g><path d="m14-183v138l140-70v-138zm6 125 124-62v-122l4-2v126l-128 64z" opacity=".29"/></g><path d="m72 0-68 34 60 30 20-10v.5l10 5 16-8v-.5l10 5 32-16z" fill="#762c07"/><path d="m4 34 54-24 6 54z" opacity=".11"/><path d="m70 4-12 6 6 54 36-18-13.7-35.1z" opacity=".29"/><path d="m120 56v-28.5l32 12.5z" opacity=".29"/><path d="m100 46 20 10v-28.5l-33.7-16.6z" opacity=".11"/><path d="m72 0-2 4 15.7 6.6 34.3 16.9 32 12.5z" opacity=".05"/><path d="m94 59 16-8v.5l-16 8z" opacity=".29"/><path d="m84 54 10 5v.5l-10-5z" opacity=".11"/></svg>