<svg xmlns:xlink="http://www.w3.org/1999/xlink"  enable-background="new 0 0 16 24" height="24" viewBox="0 0 16 24" width="16" xmlns="http://www.w3.org/2000/svg"><path d="m4 10v9l4 2 4-2v-9l-4-2z" fill="#baa794"/><path d="m8 21-4-2v-9l4 2z" opacity=".11"/><path d="m8 21 4-2v-9l-4 2z" opacity=".29"/><g fill="#539b00"><path d="m8.5 8.8s-.8-2.3-.2-4.2 1.2-2.5 1.2-2.5 1.1 1.8.6 3.9c-.4 2.1-1.6 2.8-1.6 2.8z"/><path d="m8.9 8.3s1.3-2.4 3.8-2.8 3.3-.1 3.3-.1-.9 2.4-3.3 3.1-3.8-.2-3.8-.2z"/><path d="m8.8 8.5s-.5-2.2-2.2-3.4-3.5-1.1-3.5-1.1.8 2.5 2.2 3.6 3.5.9 3.5.9z"/><path d="m7.1 8.2s-1.1.5-1 1.8.6 2.8.6 2.8 1.2-1.1 1.2-2.8c.1-1.6-.8-1.8-.8-1.8z"/><path d="m8.1 8.3s2.2.6 3.6 1.8 4-.6 4-.6-1.7-1.1-3.7-1.3-3.9.1-3.9.1z"/></g><path d="m8.1 8.3s2.2.6 3.6 1.8 4-.6 4-.6-1.7-1.1-3.7-1.3-3.9.1-3.9.1z" opacity=".2"/><path d="m9.9 8.4s1.3.4 1.9 1.4.8 1.9.8 1.9-1.3-.5-2.1-1.2c-.8-.8-.6-2.1-.6-2.1z" fill="#539b00"/><path d="m8.8 8.2s-.2-1.3 1-2.5 2.2-2.5 2.2-2.5.6 2.4-.3 3.8c-.9 1.5-2.9 1.2-2.9 1.2z" fill="#539b00"/><path d="m8.8 8.2s-.2-1.3 1-2.5 2.2-2.5 2.2-2.5.6 2.4-.3 3.8c-.9 1.5-2.9 1.2-2.9 1.2z" opacity=".2"/><path d="m9.1 8.6s-.2-1.4-1-3.2-1.2-3.4-1.2-3.4-.8 2.3-.1 4.4 2.3 2.2 2.3 2.2z" fill="#539b00"/><path d="m9.1 8.6s-.2-1.4-1-3.2-1.2-3.4-1.2-3.4-.8 2.3-.1 4.4 2.3 2.2 2.3 2.2z" opacity=".2"/><path d="m8.9 8.3s-2.5-1.1-4.5-1.5-2.9.2-2.9.2.5.8 2.7 1.6 4.7-.3 4.7-.3z" fill="#539b00"/><path d="m8.9 8.3s-2.5-1.1-4.5-1.5-2.9.2-2.9.2.5.8 2.7 1.6 4.7-.3 4.7-.3z" opacity=".2"/><path d="m7.1 8.2s-1.1.5-1 1.8.6 2.8.6 2.8 1.2-1.1 1.2-2.8c.1-1.6-.8-1.8-.8-1.8z" opacity=".2"/><path d="m9.9 8.4s1.3.4 1.9 1.4.8 1.9.8 1.9-1.3-.5-2.1-1.2c-.8-.8-.6-2.1-.6-2.1z" opacity=".2"/><path d="m7.8 8s-3.1-.2-4.4 1.5-2.6 3.8-2.6 3.8 3-.1 4.8-1.5 2.2-3.8 2.2-3.8z" fill="#539b00"/><path d="m9 8.3s.1-.6.9-.6 1.5 1.2.8 3-1.8 2.5-1.8 2.5-1.8-2.3-1.9-4 .8-1.5 1.2-1.4.8.5.8.5z" fill="#539b00"/></svg>