<svg xmlns:xlink="http://www.w3.org/1999/xlink"  enable-background="new 0 0 16 32" height="32" viewBox="0 0 16 32" width="16" xmlns="http://www.w3.org/2000/svg"><path d="m0 16v8l8 4 8-4v-8l-8-4z" fill="#656565"/><path d="m8 28-8-4v-8l8 4z" opacity=".11"/><path d="m8 28 8-4v-8l-8 4z" opacity=".29"/><path d="m1.9 15.2-1.2-9.1 3 7.5s.6-9.9.5-9.8c0 .1.4 9.6.4 9.6l.9-10 1.7 11.6 1.4-12.9.7 13.7 1.6-13.7-.3 12 3.9-10.4-4 12.5 4.4-9.6-2.8 8.8 3.9-7.4-3 8.5-5 2.5z" fill="#9c3"/><path d="m2.6 15.7 5.4 2.6 5.4-2.5 2.6-9.3-2.8 6.8 1.1-8.7-2.1 7.7-.7-9-1 11.1-1.7-11.3.3 11.6-3.1-10.7.5 11.2-2.5-10 .9 10.6-3.1-9.3 1.6 8.7-3.4-9.4z" fill="#539b00"/><path d="m5.8 15.2-2.5-6.3 2.8 5.6-.3-9.5.9 9.3 1.1-11.2v11.9l2.5-6.8-2 8.3z" fill="#539b00"/><path d="m1.3 15.7-1.3-8.2 1.6 6.5-.3-11.1.9 12 1-11.2v11.9l2.5-6.8-2 8.3z" fill="#9c3"/><path d="m12.2 17.5 2.6-1.4 1.2-6.2-1.9 5.5 1.5-11.9-2.2 12.3-1.3-13.1.7 13.2-3.1-10.1z" fill="#9c3"/><g fill="#539b00"><path d="m6.3 18.6-1.8-1.1-2.2-10.8 2.5 10.2.2-14.8.4 15 2.6-16.1-2.1 16.5 4.4-13.8z"/><path d="m9.8 18.8 1.6-.9 4-11.8-4.3 11.1 2.9-15.6-3.4 15.7-.3-16.6v17l-3.9-15.6 3.4 16-5-12.6z"/><path d="m1.8 16.3.8.4 1.9-7.6-2.1 6.5v-10.2l-.5 9.8-1.9-5.1z"/></g><path d="m7.9 19.6 1-.5 3.1-9.4-3 7.5 1.1-10-1.7 9.5-.5-12.1v13.3l-1.9-11 1.4 10.9-2.2-7.5 1.6 8.6z" fill="#9c3"/></svg>