<svg xmlns:xlink="http://www.w3.org/1999/xlink"  enable-background="new 0 0 128 112" height="112" viewBox="0 0 128 112" width="128" xmlns="http://www.w3.org/2000/svg"><path d="m104 40-24 48-80-40v23l80 40 48-24v-23z" fill="#e5e5e5"/><g transform="matrix(-.075 0 0 .075 479.2 258.4)"><path d="m4942.7-2524.7 80 40v-144.4c0-27.9-15.8-53.5-40.8-66-18-9-39.2 4.1-39.2 24.2z" fill="#762c07"/><path d="m4948.7-2527.7v-146.1c0-9.7 5-17.8 12.1-22.6-10.2 3.7-18.1 13.3-18.1 25.6v146.1l80 40v-6z" opacity=".3"/><g fill="#39c"><path d="m4988.7-2681.7v40l28 14v-13.1c0-16.5-9.3-31.6-24.1-39z"/><path d="m4954.7-2669.7v11l28 14v-39.9l-2.1-1.1c-11.9-5.9-25.9 2.7-25.9 16z"/><path d="m4988.7-2635.7v36l28 14v-36z"/><path d="m4988.7-2593.7v36l28 14v-36z"/><path d="m4988.7-2551.7v36l28 14v-36z"/><path d="m4954.7-2652.7v36l28 14v-36z"/><path d="m4954.7-2610.7v36l28 14v-36z"/><path d="m4954.7-2568.7v36l28 14v-36z"/></g><path d="m4988.7-2681.7v40l28 14v-13.1c0-16.5-9.3-31.6-24.1-39zm24 48-20-10v-32c12.3 6.1 20 18.7 20 32.4z" opacity=".3"/><path d="m4954.7-2669.7v11l28 14v-39.9l-2.1-1.1c-11.9-5.9-25.9 2.7-25.9 16zm24 19-20-10v-9.6c0-10.3 10.8-17 20-12.4z" opacity=".3"/><path d="m4988.7-2635.7v36l28 14v-36zm24 44-20-10v-28l20 10z" opacity=".3"/><path d="m4988.7-2593.7v36l28 14v-36zm24 44-20-10v-28l20 10z" opacity=".3"/><path d="m4988.7-2551.7v36l28 14v-36zm24 44-20-10v-28l20 10z" opacity=".3"/><path d="m4954.7-2652.7v36l28 14v-36zm24 44-20-10v-28l20 10z" opacity=".3"/><path d="m4954.7-2610.7v36l28 14v-36zm24 44-20-10v-28l20 10z" opacity=".3"/><path d="m4954.7-2568.7v36l28 14v-36zm24 44-20-10v-28l20 10z" opacity=".3"/></g><g transform="matrix(.075 0 0 .075 384 264)"><path d="m-4870.7-2511.3 80 40v-144.4c0-27.9-15.8-53.5-40.8-66-18-9-39.2 4.1-39.2 24.2z" fill="#762c07"/><path d="m-4864.7-2514.3v-146.1c0-9.7 5-17.8 12.1-22.6-10.2 3.7-18.1 13.3-18.1 25.6v146.1l80 40v-6z" opacity=".3"/><g fill="#39c"><path d="m-4824.7-2668.3v40l28 14v-13.1c0-16.5-9.3-31.6-24.1-39z"/><path d="m-4858.7-2656.3v11l28 14v-39.9l-2.1-1.1c-11.9-5.9-25.9 2.7-25.9 16z"/><path d="m-4824.7-2622.3v36l28 14v-36z"/><path d="m-4824.7-2580.3v36l28 14v-36z"/><path d="m-4824.7-2538.3v36l28 14v-36z"/><path d="m-4858.7-2639.3v36l28 14v-36z"/><path d="m-4858.7-2597.3v36l28 14v-36z"/><path d="m-4858.7-2555.3v36l28 14v-36z"/></g><path d="m-4824.7-2668.3v40l28 14v-13.1c0-16.5-9.3-31.6-24.1-39zm24 48-20-10v-32c12.3 6.1 20 18.7 20 32.4z" opacity=".3"/><path d="m-4858.7-2656.3v11l28 14v-39.9l-2.1-1.1c-11.9-5.9-25.9 2.7-25.9 16zm24 19-20-10v-9.6c0-10.3 10.8-17 20-12.4z" opacity=".3"/><path d="m-4824.7-2622.3v36l28 14v-36zm24 44-20-10v-28l20 10z" opacity=".3"/><path d="m-4824.7-2580.3v36l28 14v-36zm24 44-20-10v-28l20 10z" opacity=".3"/><path d="m-4824.7-2538.3v36l28 14v-36zm24 44-20-10v-28l20 10z" opacity=".3"/><path d="m-4858.7-2639.3v36l28 14v-36zm24 44-20-10v-28l20 10z" opacity=".3"/><path d="m-4858.7-2597.3v36l28 14v-36zm24 44-20-10v-28l20 10z" opacity=".3"/><path d="m-4858.7-2555.3v36l28 14v-36zm24 44-20-10v-28l20 10z" opacity=".3"/></g><g transform="matrix(.075 0 0 .075 432 288)"><path d="m-4870.7-2511.3 80 40v-144.4c0-27.9-15.8-53.5-40.8-66-18-9-39.2 4.1-39.2 24.2z" fill="#762c07"/><path d="m-4864.7-2514.3v-146.1c0-9.7 5-17.8 12.1-22.6-10.2 3.7-18.1 13.3-18.1 25.6v146.1l80 40v-6z" opacity=".3"/><g fill="#39c"><path d="m-4824.7-2668.3v40l28 14v-13.1c0-16.5-9.3-31.6-24.1-39z"/><path d="m-4858.7-2656.3v11l28 14v-39.9l-2.1-1.1c-11.9-5.9-25.9 2.7-25.9 16z"/><path d="m-4824.7-2622.3v36l28 14v-36z"/><path d="m-4824.7-2580.3v36l28 14v-36z"/><path d="m-4824.7-2538.3v36l28 14v-36z"/><path d="m-4858.7-2639.3v36l28 14v-36z"/><path d="m-4858.7-2597.3v36l28 14v-36z"/><path d="m-4858.7-2555.3v36l28 14v-36z"/></g><path d="m-4824.7-2668.3v40l28 14v-13.1c0-16.5-9.3-31.6-24.1-39zm24 48-20-10v-32c12.3 6.1 20 18.7 20 32.4z" opacity=".3"/><path d="m-4858.7-2656.3v11l28 14v-39.9l-2.1-1.1c-11.9-5.9-25.9 2.7-25.9 16zm24 19-20-10v-9.6c0-10.3 10.8-17 20-12.4z" opacity=".3"/><path d="m-4824.7-2622.3v36l28 14v-36zm24 44-20-10v-28l20 10z" opacity=".3"/><path d="m-4824.7-2580.3v36l28 14v-36zm24 44-20-10v-28l20 10z" opacity=".3"/><path d="m-4824.7-2538.3v36l28 14v-36zm24 44-20-10v-28l20 10z" opacity=".3"/><path d="m-4858.7-2639.3v36l28 14v-36zm24 44-20-10v-28l20 10z" opacity=".3"/><path d="m-4858.7-2597.3v36l28 14v-36zm24 44-20-10v-28l20 10z" opacity=".3"/><path d="m-4858.7-2555.3v36l28 14v-36zm24 44-20-10v-28l20 10z" opacity=".3"/></g><g transform="matrix(.075 0 0 .075 372 258)"><path d="m-4870.7-2511.3 80 40v-144.4c0-27.9-15.8-53.5-40.8-66-18-9-39.2 4.1-39.2 24.2z" fill="#762c07"/><path d="m-4864.7-2514.3v-146.1c0-9.7 5-17.8 12.1-22.6-10.2 3.7-18.1 13.3-18.1 25.6v146.1l80 40v-6z" opacity=".3"/><g fill="#39c"><path d="m-4824.7-2668.3v40l28 14v-13.1c0-16.5-9.3-31.6-24.1-39z"/><path d="m-4858.7-2656.3v11l28 14v-39.9l-2.1-1.1c-11.9-5.9-25.9 2.7-25.9 16z"/><path d="m-4824.7-2622.3v36l28 14v-36z"/><path d="m-4824.7-2580.3v36l28 14v-36z"/><path d="m-4824.7-2538.3v36l28 14v-36z"/><path d="m-4858.7-2639.3v36l28 14v-36z"/><path d="m-4858.7-2597.3v36l28 14v-36z"/><path d="m-4858.7-2555.3v36l28 14v-36z"/></g><path d="m-4824.7-2668.3v40l28 14v-13.1c0-16.5-9.3-31.6-24.1-39zm24 48-20-10v-32c12.3 6.1 20 18.7 20 32.4z" opacity=".3"/><path d="m-4858.7-2656.3v11l28 14v-39.9l-2.1-1.1c-11.9-5.9-25.9 2.7-25.9 16zm24 19-20-10v-9.6c0-10.3 10.8-17 20-12.4z" opacity=".3"/><path d="m-4824.7-2622.3v36l28 14v-36zm24 44-20-10v-28l20 10z" opacity=".3"/><path d="m-4824.7-2580.3v36l28 14v-36zm24 44-20-10v-28l20 10z" opacity=".3"/><path d="m-4824.7-2538.3v36l28 14v-36zm24 44-20-10v-28l20 10z" opacity=".3"/><path d="m-4858.7-2639.3v36l28 14v-36zm24 44-20-10v-28l20 10z" opacity=".3"/><path d="m-4858.7-2597.3v36l28 14v-36zm24 44-20-10v-28l20 10z" opacity=".3"/><path d="m-4858.7-2555.3v36l28 14v-36zm24 44-20-10v-28l20 10z" opacity=".3"/></g><g transform="matrix(.075 0 0 .075 420 282)"><path d="m-4870.7-2511.3 80 40v-144.4c0-27.9-15.8-53.5-40.8-66-18-9-39.2 4.1-39.2 24.2z" fill="#762c07"/><path d="m-4864.7-2514.3v-146.1c0-9.7 5-17.8 12.1-22.6-10.2 3.7-18.1 13.3-18.1 25.6v146.1l80 40v-6z" opacity=".3"/><g fill="#39c"><path d="m-4824.7-2668.3v40l28 14v-13.1c0-16.5-9.3-31.6-24.1-39z"/><path d="m-4858.7-2656.3v11l28 14v-39.9l-2.1-1.1c-11.9-5.9-25.9 2.7-25.9 16z"/><path d="m-4824.7-2622.3v36l28 14v-36z"/><path d="m-4824.7-2580.3v36l28 14v-36z"/><path d="m-4824.7-2538.3v36l28 14v-36z"/><path d="m-4858.7-2639.3v36l28 14v-36z"/><path d="m-4858.7-2597.3v36l28 14v-36z"/><path d="m-4858.7-2555.3v36l28 14v-36z"/></g><path d="m-4824.7-2668.3v40l28 14v-13.1c0-16.5-9.3-31.6-24.1-39zm24 48-20-10v-32c12.3 6.1 20 18.7 20 32.4z" opacity=".3"/><path d="m-4858.7-2656.3v11l28 14v-39.9l-2.1-1.1c-11.9-5.9-25.9 2.7-25.9 16zm24 19-20-10v-9.6c0-10.3 10.8-17 20-12.4z" opacity=".3"/><path d="m-4824.7-2622.3v36l28 14v-36zm24 44-20-10v-28l20 10z" opacity=".3"/><path d="m-4824.7-2580.3v36l28 14v-36zm24 44-20-10v-28l20 10z" opacity=".3"/><path d="m-4824.7-2538.3v36l28 14v-36zm24 44-20-10v-28l20 10z" opacity=".3"/><path d="m-4858.7-2639.3v36l28 14v-36zm24 44-20-10v-28l20 10z" opacity=".3"/><path d="m-4858.7-2597.3v36l28 14v-36zm24 44-20-10v-28l20 10z" opacity=".3"/><path d="m-4858.7-2555.3v36l28 14v-36zm24 44-20-10v-28l20 10z" opacity=".3"/></g><g transform="matrix(-.075 0 0 .075 472 284)"><path d="m4942.7-2511.3 80 40v-144.4c0-27.9-15.8-53.5-40.8-66-18-9-39.2 4.1-39.2 24.2z" fill="#762c07"/><path d="m4948.7-2514.3v-146.1c0-9.7 5-17.8 12.1-22.6-10.2 3.7-18.1 13.3-18.1 25.6v146.1l80 40v-6z" opacity=".3"/><g fill="#39c"><path d="m4988.7-2668.3v40l28 14v-13.1c0-16.5-9.3-31.6-24.1-39z"/><path d="m4954.7-2656.3v11l28 14v-39.9l-2.1-1.1c-11.9-5.9-25.9 2.7-25.9 16z"/><path d="m4988.7-2622.3v36l28 14v-36z"/><path d="m4988.7-2580.3v36l28 14v-36z"/><path d="m4988.7-2538.3v36l28 14v-36z"/><path d="m4954.7-2639.3v36l28 14v-36z"/><path d="m4954.7-2597.3v36l28 14v-36z"/><path d="m4954.7-2555.3v36l28 14v-36z"/></g><path d="m4988.7-2668.3v40l28 14v-13.1c0-16.5-9.3-31.6-24.1-39zm24 48-20-10v-32c12.3 6.1 20 18.7 20 32.4z" opacity=".3"/><path d="m4954.7-2656.3v11l28 14v-39.9l-2.1-1.1c-11.9-5.9-25.9 2.7-25.9 16zm24 19-20-10v-9.6c0-10.3 10.8-17 20-12.4z" opacity=".3"/><path d="m4988.7-2622.3v36l28 14v-36zm24 44-20-10v-28l20 10z" opacity=".3"/><path d="m4988.7-2580.3v36l28 14v-36zm24 44-20-10v-28l20 10z" opacity=".3"/><path d="m4988.7-2538.3v36l28 14v-36zm24 44-20-10v-28l20 10z" opacity=".3"/><path d="m4954.7-2639.3v36l28 14v-36zm24 44-20-10v-28l20 10z" opacity=".3"/><path d="m4954.7-2597.3v36l28 14v-36zm24 44-20-10v-28l20 10z" opacity=".3"/><path d="m4954.7-2555.3v36l28 14v-36zm24 44-20-10v-28l20 10z" opacity=".3"/></g><g transform="matrix(-.075 0 0 .075 488 276)"><path d="m4942.7-2511.3 80 40v-144.4c0-27.9-15.8-53.5-40.8-66-18-9-39.2 4.1-39.2 24.2z" fill="#762c07"/><path d="m4948.7-2514.3v-146.1c0-9.7 5-17.8 12.1-22.6-10.2 3.7-18.1 13.3-18.1 25.6v146.1l80 40v-6z" opacity=".3"/><g fill="#39c"><path d="m4988.7-2668.3v40l28 14v-13.1c0-16.5-9.3-31.6-24.1-39z"/><path d="m4954.7-2656.3v11l28 14v-39.9l-2.1-1.1c-11.9-5.9-25.9 2.7-25.9 16z"/><path d="m4988.7-2622.3v36l28 14v-36z"/><path d="m4988.7-2580.3v36l28 14v-36z"/><path d="m4988.7-2538.3v36l28 14v-36z"/><path d="m4954.7-2639.3v36l28 14v-36z"/><path d="m4954.7-2597.3v36l28 14v-36z"/><path d="m4954.7-2555.3v36l28 14v-36z"/></g><path d="m4988.7-2668.3v40l28 14v-13.1c0-16.5-9.3-31.6-24.1-39zm24 48-20-10v-32c12.3 6.1 20 18.7 20 32.4z" opacity=".3"/><path d="m4954.7-2656.3v11l28 14v-39.9l-2.1-1.1c-11.9-5.9-25.9 2.7-25.9 16zm24 19-20-10v-9.6c0-10.3 10.8-17 20-12.4z" opacity=".3"/><path d="m4988.7-2622.3v36l28 14v-36zm24 44-20-10v-28l20 10z" opacity=".3"/><path d="m4988.7-2580.3v36l28 14v-36zm24 44-20-10v-28l20 10z" opacity=".3"/><path d="m4988.7-2538.3v36l28 14v-36zm24 44-20-10v-28l20 10z" opacity=".3"/><path d="m4954.7-2639.3v36l28 14v-36zm24 44-20-10v-28l20 10z" opacity=".3"/><path d="m4954.7-2597.3v36l28 14v-36zm24 44-20-10v-28l20 10z" opacity=".3"/><path d="m4954.7-2555.3v36l28 14v-36zm24 44-20-10v-28l20 10z" opacity=".3"/></g><path d="m0 70v2l80 40 48-24v-2l-48 24z" fill="#baa794"/><path d="m80 88-80-40v24l80 40z" opacity=".11"/><path d="m128 64-24-24-24 48v24l48-24z" opacity=".29"/><path d="m80 88-80-40 24.1-48 79.9 40z" fill="#656565"/><path d="m80 88-80-40 24.1-48 79.9 40z" opacity=".06"/><path d="m23.4 1.8 79.5 39.8 1.1-1.6-79.9-40z" fill="#fff" opacity=".2"/><path d="m80 88 24-48 24 24h-1l-23-23-23 47z" fill="#656565"/><path d="m72 65-6-12-6 6v15l12 6 10-20z" fill="#e5e5e5"/><path d="m62.7 73.7 6 3v-10.9c0-2.1-1.2-4-3.1-5-1.3-.7-2.9.3-2.9 1.8z" fill="#762c07"/><path d="m63.2 73.4v-11c0-.7.4-1.3.9-1.7-.8.3-1.4 1-1.4 1.9v11l6 3v-.4z" opacity=".3"/><g fill="#39c"><path d="m66.2 61.9v3l2.1 1.1v-1c0-1.2-.7-2.4-1.8-2.9z"/><path d="m63.6 62.8v.8l2.1 1.1v-3l-.2-.1c-.8-.5-1.9.2-1.9 1.2z"/><path d="m66.2 65.3v2.7l2.1 1v-2.7z"/><path d="m66.2 68.5v2.7l2.1 1v-2.7z"/><path d="m66.2 71.6v2.7l2.1 1v-2.7z"/><path d="m63.6 64.1v2.7l2.1 1.1v-2.7z"/><path d="m63.6 67.2v2.7l2.1 1v-2.7z"/><path d="m63.6 70.3v2.7l2.1 1v-2.7z"/></g><path d="m66.2 61.9v3l2.1 1.1v-1c0-1.2-.7-2.4-1.8-2.9zm1.7 3.6-1.5-.8v-2.4c.9.5 1.5 1.4 1.5 2.4z" opacity=".3"/><path d="m63.6 62.8v.8l2.1 1.1v-3l-.2-.1c-.8-.5-1.9.2-1.9 1.2zm1.8 1.4-1.5-.7v-.7c0-.8.8-1.3 1.5-.9z" opacity=".3"/><path d="m66.2 65.3v2.7l2.1 1v-2.7zm1.7 3.3-1.5-.8v-2.1l1.5.8z" opacity=".3"/><path d="m66.2 68.5v2.7l2.1 1v-2.7zm1.7 3.3-1.5-.8v-2.1l1.5.8z" opacity=".3"/><path d="m66.2 71.6v2.7l2.1 1v-2.7zm1.7 3.3-1.5-.8v-2.1l1.5.8z" opacity=".3"/><path d="m63.6 64.1v2.7l2.1 1.1v-2.7zm1.8 3.2-1.5-.8v-2.1l1.5.8z" opacity=".3"/><path d="m63.6 67.2v2.7l2.1 1v-2.7zm1.8 3.3-1.5-.8v-2.1l1.5.8z" opacity=".3"/><path d="m63.6 70.3v2.7l2.1 1v-2.7zm1.8 3.4-1.5-.8v-2.1l1.5.8z" opacity=".3"/><path d="m72 65 10-5-10 20z" opacity=".29"/><path d="m60 59 6-6 6 12v15l-12-6z" opacity=".11"/><path d="m72 65 10-5v-15l-16 8z" fill="#656565"/><path d="m72 65 10-5v-15l-16 8z" opacity=".39"/><path d="m82 45.5-15.7 7.9-.3-.4 16-8z" fill="#fff" opacity=".2"/><path d="m72 65-6-12-6 6h.3l5.8-5.8 5.7 11.8z" fill="#656565"/><path d="m24 41-6-12-6 6v15l12 6 10-20z" fill="#e5e5e5"/><path d="m14.7 49.7 6 3v-10.9c0-2.1-1.2-4-3.1-5-1.4-.7-2.9.3-2.9 1.8z" fill="#762c07"/><path d="m15.2 49.4v-11c0-.7.4-1.3.9-1.7-.8.3-1.4 1-1.4 1.9v11l6 3v-.5z" opacity=".3"/><path d="m18.1 37.9v3l2.1 1v-1c0-1.2-.7-2.4-1.8-2.9z" fill="#39c"/><path d="m15.6 38.8v.8l2.1 1.1v-3l-.2-.1c-.9-.5-1.9.2-1.9 1.2z" fill="#39c"/><path d="m18.1 41.3v2.7l2.1 1v-2.7z" fill="#39c"/><path d="m18.1 44.5v2.7l2.1 1.1v-2.7z" fill="#39c"/><path d="m18.1 47.6v2.7l2.1 1v-2.7z" fill="#39c"/><path d="m15.6 40v2.7l2.1 1v-2.7z" fill="#39c"/><path d="m15.6 43.2v2.7l2.1 1v-2.7z" fill="#39c"/><path d="m15.6 46.4v2.6l2.1 1.1v-2.7z" fill="#39c"/><path d="m18.1 37.9v3l2.1 1v-1c0-1.2-.7-2.4-1.8-2.9zm1.9 3.6-1.5-.8v-2.4c.9.5 1.5 1.4 1.5 2.4z" opacity=".3"/><path d="m15.6 38.8v.8l2.1 1.1v-3l-.2-.1c-.9-.5-1.9.2-1.9 1.2zm1.8 1.4-1.5-.8v-.7c0-.8.8-1.3 1.5-.9z" opacity=".3"/><path d="m18.1 41.3v2.7l2.1 1v-2.7zm1.9 3.3-1.5-.8v-2.1l1.5.8z" opacity=".3"/><path d="m18.1 44.5v2.7l2.1 1.1v-2.7zm1.9 3.3-1.5-.8v-2.1l1.5.8z" opacity=".3"/><path d="m18.1 47.6v2.7l2.1 1v-2.7zm1.9 3.3-1.5-.8v-2.1l1.5.8z" opacity=".3"/><path d="m15.6 40v2.7l2.1 1v-2.7zm1.8 3.4-1.5-.8v-2.1l1.5.8z" opacity=".3"/><path d="m15.6 43.2v2.7l2.1 1v-2.7zm1.8 3.3-1.5-.8v-2.1l1.5.8z" opacity=".3"/><path d="m15.6 46.4v2.6l2.1 1.1v-2.7zm1.8 3.3-1.5-.8v-2.1l1.5.8z" opacity=".3"/><path d="m24 41 10-5-10 20z" opacity=".29"/><path d="m12 35 6-6 6 12v15l-12-6z" opacity=".11"/><path d="m24 41 10-5v-15l-16 8z" fill="#656565"/><path d="m24 41 10-5v-15l-16 8z" opacity=".39"/><path d="m34 21.5-15.7 7.9-.3-.4 16-8z" fill="#fff" opacity=".2"/><path d="m24 41-6-12-6 6h.3l5.8-5.8 5.7 11.8z" fill="#656565"/><g transform="translate(391.975 309.975)"><path d="m-362-225-8 4v2l20 10 8-4v-2z" fill="#baa794"/><path d="m-370-219v-2l20 10v2z" opacity=".11"/><path d="m-350-211v2l8-4v-2z" opacity=".29"/></g><g transform="matrix(.1 0 0 .1 402 269)"><path d="m-3616.7-1993.3c-11.9-5.9-24.8-4.8-34.9 1-12.8 5.5-22.4 18.1-22.4 34v145.3l100 50v-.2l4-1.8v-152.8c0-32-18.1-61.2-46.7-75.5z" fill="#baa794"/><path d="m-3664-1808 80 40v-144.4c0-27.9-15.8-53.5-40.8-66-18-9-39.2 4.1-39.2 24.2z" fill="#762c07"/><path d="m-3658-1811v-146.1c0-9.7 5-17.8 12.1-22.6-10.2 3.7-18.1 13.3-18.1 25.6v146.1l80 40v-6z" opacity=".3"/><path d="m-3574-1763 4-2v-153l-4 2z" opacity=".29"/><g fill="#39c"><path d="m-3618-1965v40l28 14v-13.1c0-16.5-9.3-31.6-24.1-39z"/><path d="m-3652-1953v11l28 14v-39.9l-2.1-1.1c-11.9-5.9-25.9 2.7-25.9 16z"/><path d="m-3618-1919v36l28 14v-36z"/><path d="m-3618-1877v36l28 14v-36z"/><path d="m-3618-1835v36l28 14v-36z"/><path d="m-3652-1936v36l28 14v-36z"/><path d="m-3652-1894v36l28 14v-36z"/><path d="m-3652-1852v36l28 14v-36z"/></g><path d="m-3618-1965v40l28 14v-13.1c0-16.5-9.3-31.6-24.1-39zm24 48-20-10v-32c12.3 6.1 20 18.7 20 32.4z" opacity=".3"/><path d="m-3652-1953v11l28 14v-39.9l-2.1-1.1c-11.9-5.9-25.9 2.7-25.9 16zm24 19-20-10v-9.6c0-10.3 10.8-17 20-12.4z" opacity=".3"/><path d="m-3618-1919v36l28 14v-36zm24 44-20-10v-28l20 10z" opacity=".3"/><path d="m-3618-1877v36l28 14v-36zm24 44-20-10v-28l20 10z" opacity=".3"/><path d="m-3618-1835v36l28 14v-36zm24 44-20-10v-28l20 10z" opacity=".3"/><path d="m-3652-1936v36l28 14v-36zm24 44-20-10v-28l20 10z" opacity=".3"/><path d="m-3652-1894v36l28 14v-36zm24 44-20-10v-28l20 10z" opacity=".3"/><path d="m-3596-1870 8 4v-6l4 2v21l-4-2v-12l-8-4z" fill="#999"/><path d="m-3652-1852v36l28 14v-36zm24 44-20-10v-28l20 10z" opacity=".3"/><path d="m-3574-1763-100-50v-145.3c0-27.4 28.8-45.2 53.3-33 28.6 14.3 46.7 43.5 46.7 75.5z" opacity=".11"/></g><g transform="translate(409.975 304.975)"><path d="m-368-232-1 .5v25l1 .5 1-.5v-25z" fill="#e5e5e5"/><path d="m-369-206.5v-25l1 .5v25z" opacity=".11"/><path d="m-368-231v25l1-.5v-25z" opacity=".29"/></g><g transform="translate(409.975 304.975)"><path d="m-361-235.5-1 .5v25l1 .5 1-.5v-25z" fill="#e5e5e5"/><path d="m-362-210v-25l1 .5v25z" opacity=".11"/><path d="m-361-234.5v25l1-.5v-25z" opacity=".29"/></g><g transform="translate(409.975 304.975)"><path d="m-387-241.5-1 .5v25l1 .5 1-.5v-25z" fill="#e5e5e5"/><path d="m-388-216v-25l1 .5v25z" opacity=".11"/><path d="m-387-240.5v25l1-.5v-25z" opacity=".29"/></g><g transform="translate(409.975 304.975)"><path d="m-380-245-1 .5v25l1 .5 1-.5v-25z" fill="#e5e5e5"/><path d="m-381-219.5v-25l1 .5v25z" opacity=".11"/><path d="m-380-244v25l1-.5v-25z" opacity=".29"/></g><g transform="matrix(.5 0 0 .5 392 236)"><path d="m-744-344 24-24 24 48z" fill="#e5e5e5"/><path d="m-733.9-345.6 12.3-12.3 12.2 24.5z" fill="#baa794"/><path d="m-732-346.5 10.7-10.7-.3-.7-12.3 12.3 24.5 12.2-1.2-2.4z" opacity=".15"/><path d="m-744-344 24-24 24 48z" opacity=".11"/><path d="m-696-320 12-6v-60l-36 18z" fill="#656565"/><path d="m-696-320 12-6v-60l-36 18z" opacity=".39"/><path d="m-684-384-34.9 17.6-1.1-1.6 36-18z" fill="#fff" opacity=".2"/><path d="m-696-320-24-48-24 24h1l23-23 23 47z" fill="#656565"/></g></svg>