<svg xmlns:xlink="http://www.w3.org/1999/xlink"  enable-background="new 0 0 80 40" height="40" viewBox="0 0 80 40" width="80" xmlns="http://www.w3.org/2000/svg"><path d="m78 11v10l-38 19-34-17v-2l38-19 32 8z" fill="#2d3134"/><path d="m40 40 38-19v-10l-38 19z" opacity=".29"/><path d="m40 40-34-17v-2l32 8 2 1z" opacity=".11"/><path d="m44 1.5 28 7v3.5l-10 5-8-2-2-2-8-2-2 1-8-2v-3.5z" fill="#2d3134"/><path d="m12 19.5v1l3 .7 4-1.9v-1l-4 2z" opacity=".2"/><path d="m15 20.3 4-2-3-.8-4 2z" fill="#fff" opacity=".1"/><path d="m18 16.5v1l3 .8 4-2v-1l-4 2z" opacity=".2"/><path d="m21 17.3 4-2-3-.8-4 2z" fill="#fff" opacity=".1"/><path d="m24 13.5v1l3 .7 4-1.9v-1l-4 2z" opacity=".2"/><path d="m27 14.3 4-2-3-.8-4 2z" fill="#fff" opacity=".1"/><path d="m17 20.7v1l3 .8 4-2v-1l-4 2z" opacity=".2"/><path d="m20 21.5 4-2-3-.7-4 1.9z" fill="#fff" opacity=".1"/><path d="m23 17.7v1l3 .8 4-2v-1l-4 2z" opacity=".2"/><path d="m26 18.5 4-2-3-.7-4 1.9z" fill="#fff" opacity=".1"/><path d="m29 14.7v1l3 .8 4-2v-1l-4 2z" opacity=".2"/><path d="m32 15.5 4-2-3-.7-4 1.9z" fill="#fff" opacity=".1"/><path d="m22 22v1l3 .7 4-1.9v-1l-4 2z" opacity=".2"/><path d="m25 22.8 4-2-3-.8-4 2z" fill="#fff" opacity=".1"/><path d="m28 19v1l3 .8 4-2v-1l-4 2z" opacity=".2"/><path d="m31 19.8 4-2-3-.8-4 2z" fill="#fff" opacity=".1"/><path d="m34 16v1l3 .7 4-1.9v-1l-4 2z" opacity=".2"/><path d="m37 16.8 4-2-3-.8-4 2z" fill="#fff" opacity=".1"/><path d="m27 23.2v1l3 .8 4-2v-1l-4 2z" opacity=".2"/><path d="m30 24 4-2-3-.7-4 1.9z" fill="#fff" opacity=".1"/><path d="m33 20.2v1l3 .8 4-2v-1l-4 2z" opacity=".2"/><path d="m36 21 4-2-3-.7-4 1.9z" fill="#fff" opacity=".1"/><path d="m39 17.2v1l3 .8 4-2v-1l-4 2z" opacity=".2"/><path d="m42 18 4-2-3-.7-4 1.9z" fill="#fff" opacity=".1"/><path d="m34 6.5v3.5l8 2 2-1 8 2 2 2 8 2 10-5v-3.5l-10 5z" opacity=".2"/><path d="m62 13.5 10-5-28-7-10 5z" fill="#fff" opacity=".1"/><path d="m57 19-8-2-16 8 8 2z" fill="#36c"/><path d="m53 21-20 4 8 2z" fill="#fff" opacity=".1"/><path d="m70 21v2l-4 2v-2z" opacity=".5"/><path d="m64 24v2l-4 2v-2z" opacity=".5"/><path d="m58 27v2l-4 2v-2z" opacity=".5"/><path d="m52 30v2l-4 2v-2z" opacity=".5"/></svg>