<svg xmlns:xlink="http://www.w3.org/1999/xlink"  enable-background="new 0 0 80 60" height="60" viewBox="0 0 80 60" width="80" xmlns="http://www.w3.org/2000/svg"><path d="m3 37-1 4 38 19 36-18v-9l-38-19-2 1z" fill="#2d3134"/><path d="m40 60-38-19 1-4 38 19z" opacity=".11"/><path d="m40 60 36-18v-9l-2 1-33 22z" opacity=".29"/><path d="m46 32.5v1l-3 2-4-2v-1l4 2z" opacity=".2"/><path d="m43 34.5-4-2 3-2 4 2z" fill="#fff" opacity=".1"/><path d="m52 35.5v1l-3 2-4-2v-1l4 2z" opacity=".2"/><path d="m49 37.5-4-2 3-2 4 2z" fill="#fff" opacity=".1"/><path d="m58 38.5v1l-3 2-4-2v-1l4 2z" opacity=".2"/><path d="m55 40.5-4-2 3-2 4 2z" fill="#fff" opacity=".1"/><path d="m41.5 35.5v1l-3 2-4-2v-1l4 2z" opacity=".2"/><path d="m38.5 37.5-4-2 3-2 4 2z" fill="#fff" opacity=".1"/><path d="m47.5 38.5v1l-3 2-4-2v-1l4 2z" opacity=".2"/><path d="m44.5 40.5-4-2 3-2 4 2z" fill="#fff" opacity=".1"/><path d="m53.5 41.5v1l-3 2-4-2v-1l4 2z" opacity=".2"/><path d="m50.5 43.5-4-2 3-2 4 2z" fill="#fff" opacity=".1"/><path d="m37 38.5v1l-3 2-4-2v-1l4 2z" opacity=".2"/><path d="m34 40.5-4-2 3-2 4 2z" fill="#fff" opacity=".1"/><path d="m43 41.5v1l-3 2-4-2v-1l4 2z" opacity=".2"/><path d="m40 43.5-4-2 3-2 4 2z" fill="#fff" opacity=".1"/><path d="m49 44.5v1l-3 2-4-2v-1l4 2z" opacity=".2"/><path d="m46 46.5-4-2 3-2 4 2z" fill="#fff" opacity=".1"/><path d="m32.5 41.5v1l-3 2-4-2v-1l4 2z" opacity=".2"/><path d="m29.5 43.5-4-2 3-2 4 2z" fill="#fff" opacity=".1"/><path d="m38.5 44.5v1l-3 2-4-2v-1l4 2z" opacity=".2"/><path d="m35.5 46.5-4-2 3-2 4 2z" fill="#fff" opacity=".1"/><path d="m44.5 47.5v1l-3 2-4-2v-1l4 2z" opacity=".2"/><path d="m41.5 49.5-4-2 3-2 4 2z" fill="#fff" opacity=".1"/><path d="m46 20.5v3.5l-6.1 4-2.9.8-8 5.2-2.9 3-6.1 4-10-5v-3.5l10 5z" opacity=".2"/><path d="m20 37.5-10-5 26-17 10 5z" fill="#fff" opacity=".1"/><path d="m45 29 6-4 16 8-6 4z" fill="#36c"/><path d="m55 27 12 6-6 4z" fill="#fff" opacity=".1"/></svg>