<svg xmlns:xlink="http://www.w3.org/1999/xlink"  enable-background="new 0 0 160 240" height="240" viewBox="0 0 160 240" width="160" xmlns="http://www.w3.org/2000/svg"><path d="m66 195.4c-24.8 8.3-63.4 18.8-40.1 33.5 25.8 16.3 54.2-1.8 72.9-15.3 24.9-18 64.1-44.4 59.1-47.4-7.1-4.1-46.9 14.2-91.9 29.2z" opacity=".2"/><path d="m33.8 130s-11 8.6-16 14.2-4.5 5.4-7.7 8-3.5 7.2-1.5 9.6c2 2.5 6.2 2.9 7.2 1.5s-2-5.9 1.6-10.1 23.9-15.2 25.8-17.6c1.9-2.3-9.4-5.6-9.4-5.6z" fill="#cd9a83"/><path d="m33.8 130s-11 8.6-16 14.2-4.5 5.4-7.7 8-3.5 7.2-1.5 9.6c2 2.5 6.2 2.9 7.2 1.5s-2-5.9 1.6-10.1 23.9-15.2 25.8-17.6c1.9-2.3-9.4-5.6-9.4-5.6z" opacity=".15"/><path d="m97.6 164.5c4.6 8.7 14.8 27.4 27.2 22.3s34.1-14.8 33.2-19.9c-.8-5.1-33.4 9.2-36.3 7.3s-9.1-25.5-9.1-25.5z" fill="#cd9a83"/><path d="m97.6 164.5c4.6 8.7 14.8 27.4 27.2 22.3s34.1-14.8 33.2-19.9c-.8-5.1-33.4 9.2-36.3 7.3s-9.1-25.5-9.1-25.5z" opacity=".15"/><path d="m38 125.1c4.6 31.3 16.7 59.8 14.1 67.8s-9.8 13-14.6 14.3-20.7 9.8-14.2 13.2 19.6-5.9 25.1-8.3c5.5-2.3 15.4-6.6 16.4-10.6s-1.8-16-2.3-22.6c-.6-6.6.6-35.2.6-35.2z" fill="#cd9a83"/><path d="m38 125.1c4.6 31.3 16.7 59.8 14.1 67.8s-9.8 13-14.6 14.3-20.7 9.8-14.2 13.2 19.6-5.9 25.1-8.3c5.5-2.3 15.4-6.6 16.4-10.6s-1.8-16-2.3-22.6c-.6-6.6.6-35.2.6-35.2z" opacity=".15"/><path d="m85.1 170.1s-16.4 3.9-31.9-11.8c-16.8-17-20.5-26.3-25.6-43.2-4.5-14.6-4.1-25.5-3.1-26.5 14.6-14 66.4 68 66.4 68z" fill="#f8ebcb"/><path d="m97.7 103.6c-13.1-15.9-22.8-19.3-37.2-22.8-8.6-2.2-13.6-.4-16.6-7.7-3-7.2-3.7-14.2-9.8-17s-11.9-3.9-11.9-3.9-17.2-22.7-19.4-21.2c-2.2 1.4-1.6 9.9-.6 11.5.9 1.5 10.2 14.7 10.3 17.5.1 3.7-4.8 7.9-4.8 10.2 0 2.4.9 4.3-.6 7.9-1.6 3.5-5.3 9-4.4 13.3.8 4.3 2.4 6.7 6.1 7 4.5.4 6.4-.4 8.4-2 1-.8 3-3.6 3.2-3.8 13.2-7.4 9.4 27.5 29.1 49.4.4.5.8.9 1.2 1.3-3.2 2.8-6.4 5.8-8.7 8.3-6 6.7-5.4 6.4-9.2 9.5s-4.2 8.6-1.8 11.5 7.3 3.5 8.5 1.8-2.4-7 1.9-12.1c2.2-2.6 9.7-7.3 16.7-11.6 15.2 13.7 24.5 13.5 24.5 13.5s4.5 33.3 2.2 38.9-7.8 11.3-11.7 12.5-22.7 7.2-17.2 13.1c3.9 4.1 15.6-3.1 21.3-5.7 6.7-3 19.3-6.6 19.7-11.4.4-5.1-1.2-38.3 3.1-44.3 4.2-6 13.3-11.4 13.8-24.6.8-13.2-2-22.2-16.1-39.1z" fill="#cd9a83"/><path d="m26.9 61.2c-1.7-.9-1.8-4.2.7-8.2s9.8-19 14.9-17c5.2 2 3.6 12.3-2.2 17.6s-5.6 5.3-6 6.1-3 .1-4.3.8-2.5 1-3.1.7z" fill="#cd9a83"/><path d="m30.2 59.5c-1.4-.7-1.4-3.4.6-6.5s7.7-15.1 11.9-13.6 1.6 8.5-3 12.7-4.4 4.2-4.8 4.9c-.3.7-1.1 1.4-2.1 2s-2.1.7-2.6.5z" opacity=".15"/><path d="m19.2 73.7s2.8-.8 4.2-.9 3.3 0 3.3 0-.5 3.5-3.3 3.7-4.2-2.8-4.2-2.8z" fill="#2d3134"/><path d="m2.5 88.7c-.8.8-.1 5.2 1.6 6.9 1.7 1.8 3.1 2.6 4.7 1.4s3.5-6.1 2.5-7.7-4 .2-5.3.2-2.4-1.8-3.5-.8z" fill="#2d3134"/><path d="m61.7 149.2s13.7-7.2 15.1-11c1.4-3.7-8.7-27.9-8.7-27.9s14.1 25 12.6 28.3c-1.4 3.4-19 10.6-19 10.6z" opacity=".15"/></svg>