<svg xmlns:xlink="http://www.w3.org/1999/xlink"  enable-background="new 0 0 160 240" height="240" viewBox="0 0 160 240" width="160" xmlns="http://www.w3.org/2000/svg"><path d="m97 206.9c24.7-8.2 63.1-18.6 39.9-33.3-25.6-16.2-53.9 1.8-72.5 15.2-24.8 17.9-66.4 42.3-61.5 45.5 9.2 6 49.3-12.5 94.1-27.4z" opacity=".2"/><path d="m71.8 156c1.9 12.8-2.2 30.6 2.1 33.9s14.7-4 21.7-7.3 17.1-6.7 14.8-10c-2.8-4.1-10.8-.5-17.4 2.9-3.3 1.7-8 2.2-9.3.7-1.4-1.5 2.3-24.7 2.3-24.7z" fill="#cd9a83"/><path d="m71.8 156c1.9 12.8-2.2 30.6 2.1 33.9s14.7-4 21.7-7.3 17.1-6.7 14.8-10c-2.8-4.1-10.8-.5-17.4 2.9-3.3 1.7-8 2.2-9.3.7-1.4-1.5 2.3-24.7 2.3-24.7z" opacity=".15"/><g fill="#cd9a83"><path d="m130 21.6c-6.3 2-8 11.2-9.9 16.6-1.9 5.3-36.8 38.8-44.9 47.6s-19 25-20.2 43.9c-1.1 17.5 1.1 30.7 16.6 35 14.8 4.1 34.9-9.3 34.9-9.3s.1 17.5-1.2 28.2-2.4 14.6 4.2 14.8 16-6.9 22.8-9.6 13.1-5.8 9-9.3c-4-3.5-10.2-1.3-14.3 1.4s-9.2 5.4-10.3 3.1c-1.1-2.4 5-33.6 7.4-41.5s4-8.6 9.8-21.8c5.8-13 9.1-21.9 9.3-38s-2-19.3-2.9-22.9c-.8-3.6.6-8 .6-8s6.2 2.9 8.4-.1c2.3-3 1.5-8 1.2-8.2s-2-2-2.3-3 0-5.8-.3-6.9-2.3-3.6-3.3-5.9-6.8-8.6-14.6-6.1z"/><path d="m126.8 25.8c-1.6-2.9-6.3-3.5-8.4-9.8s-3-11-.6-12.6 8.8 5.8 10.3 8.8 2.3 7.7 3.6 8.9c1.2 1.3-4.9 4.7-4.9 4.7z"/><path d="m136.5 23.1s8.8-10.7 11.4-13 6-5.2 7-4-.7 6.5-4.4 10.9-6.9 8.6-7.5 9.7-6.8-.4-6.5-3.6z"/></g><path d="m146.2 35.7 1.9-1.1s.1 1.6-.7 2c-.7.4-1.2-.9-1.2-.9z" fill="#2d3134"/><path d="m151 47.1s-1.9-2.1-1.9-2.6 1.4-1.4 1.7-1 .7 3 .2 3.6z" fill="#2d3134"/><path d="m60.3 157c-1.2 12.1-5.2 36.1-10.4 41.7-4.6 4.9-49.6 29.5-45.8 34.4 3.6 4.5 36.5-13.3 51.7-21.1 11.1-5.8 23.8-37.8 28.4-51.3 7-20.5-20.4-37.7-23.9-3.7z" fill="#cd9a83"/><path d="m134.7 98c5 4 11.6 18.1 14.8 20.4 3.1 2.3 7 4.3 7.8 7.6s-2.5 7.8-4.2 7.6-2-4.1-3.6-6.7c-1.7-2.8-7.1-6.7-12.2-11.7-5.1-4.9-7.1-7.7-8.4-9.1-1.5-1.3 2.9-10.4 5.8-8.1z" fill="#cd9a83"/><path d="m155.1 6.7c-.5.1-1.2 1-2.2 2.6-1.9 3.2-10.7 15.6-10.7 15.6l1.2 1s.1-.1.3-.4c1.3-1.8 3.8-5.1 6.7-8.5 3.4-3.8 5.1-8.4 4.7-10.3z" opacity=".15"/></svg>