<svg xmlns:xlink="http://www.w3.org/1999/xlink"  enable-background="new 0 0 20 20" height="20" viewBox="0 0 20 20" width="20" xmlns="http://www.w3.org/2000/svg"><path d="m14 11v2l1 .5 1-.5v-2l-1-.5z" fill="#999"/><path d="m15 13.5-1-.5v-2l1 .5z" opacity=".11"/><path d="m15 13.5 1-.5v-2l-1 .5z" opacity=".29"/><path d="m12 12.5v2l1 .5 1-.5v-2l-1-.5z" fill="#999"/><path d="m13 15-1-.5v-2l1 .5z" opacity=".11"/><path d="m13 15 1-.5v-2l-1 .5z" opacity=".29"/><path d="m16.4 9.9c-.2-.1-.4-.1-.5 0l-8.6 4.5c-.2 0-.3.2-.3.4 0 .4.3.9.7 1.1.2.1.4.1.5 0 0 0 8.6-4.5 8.7-4.5.1-.1.2-.2.2-.4 0-.4-.3-.9-.7-1.1z" fill="#999"/><path d="m8.3 15.9c.1 0 8.6-4.5 8.7-4.5.1-.1.2-.2.2-.4s-.1-.3-.1-.5l-8.8 4.5c.1.2.1.3.1.5.1.2 0 .3-.1.4z" opacity=".29"/><path d="m8.5 15.5c0 .4-.3.6-.7.4-.4-.3-.8-.8-.8-1.1 0-.4.3-.6.7-.4s.8.7.8 1.1z" opacity=".11"/><path d="m7.9 13.3-1.7-.8c-.5-.2-1.2-.2-2 .2-1.6.8-2.9 2.7-2.9 4.3 0 .7.3 1.3.7 1.6.1.1 1.8.9 1.8.9.5.3 1.2.2 2-.2 1.6-.8 2.9-2.7 2.9-4.3.1-.9-.3-1.5-.8-1.7zm-4 4.1c0-.1 0-.1 0-.2 0-.6.5-1.4 1.1-1.7v.2c0 .7-.5 1.4-1.1 1.7z" fill="#999"/><path d="m3.8 19.4c-.2-.1-1.7-.8-1.8-.9-.5-.3-.7-.8-.7-1.6 0-.6.2-1.3.6-2l1.7.8c-.4.7-.6 1.3-.6 2 0 .9.3 1.4.8 1.7z" opacity=".11"/><path d="m5.9 13.5c-1.6.7-2.9 2.7-2.9 4.3s1.3 2.2 2.9 1.4 2.9-2.7 2.9-4.3-1.3-2.2-2.9-1.4zm-.9 4.3c-.6.3-1.1.1-1.1-.6 0-.6.5-1.4 1.1-1.7s1.1-.1 1.1.6c0 .6-.5 1.4-1.1 1.7z" opacity=".29"/><path d="m5 15.6v.2c0 .6-.5 1.4-1.1 1.7.1.4.6.6 1.1.3.6-.3 1.1-1.1 1.1-1.7s-.5-.9-1.1-.5z" opacity=".11"/></svg>