<svg xmlns:xlink="http://www.w3.org/1999/xlink"  enable-background="new 0 0 80 60" height="60" viewBox="0 0 80 60" width="80" xmlns="http://www.w3.org/2000/svg"><path d="m0 37v1l20 11 60-30-20-12z" fill="#656565"/><path d="m0 37v3l20 10 60-30v-1l-60 30z" fill="#2d3134"/><path d="m20 50-20-10v-3l20 12z" opacity=".11"/><path d="m20 50 60-30v-1l-60 30z" opacity=".29"/><path d="m9 37.5v1l2 1 2-1v-1l-2 1z" opacity=".2"/><path d="m11 38.5 2-1-2-1-2 1z" fill="#fff" opacity=".1"/><path d="m6 39v1l2 1 2-1v-1l-2 1z" opacity=".2"/><path d="m8 40 2-1-2-1-2 1z" fill="#fff" opacity=".1"/><path d="m15 34.5v1l2 1 2-1v-1l-2 1z" opacity=".2"/><path d="m17 35.5 2-1-2-1-2 1z" fill="#fff" opacity=".1"/><path d="m12 36v1l2 1 2-1v-1l-2 1z" opacity=".2"/><path d="m14 37 2-1-2-1-2 1z" fill="#fff" opacity=".1"/><path d="m21 31.5v1l2 1 2-1v-1l-2 1z" opacity=".2"/><path d="m23 32.5 2-1-2-1-2 1z" fill="#fff" opacity=".1"/><path d="m18 33v1l2 1 2-1v-1l-2 1z" opacity=".2"/><path d="m20 34 2-1-2-1-2 1z" fill="#fff" opacity=".1"/><path d="m27 28.5v1l2 1 2-1v-1l-2 1z" opacity=".2"/><path d="m29 29.5 2-1-2-1-2 1z" fill="#fff" opacity=".1"/><path d="m24 30v1l2 1 2-1v-1l-2 1z" opacity=".2"/><path d="m26 31 2-1-2-1-2 1z" fill="#fff" opacity=".1"/><path d="m33 25.5v1l2 1 2-1v-1l-2 1z" opacity=".2"/><path d="m35 26.5 2-1-2-1-2 1z" fill="#fff" opacity=".1"/><path d="m30 27v1l2 1 2-1v-1l-2 1z" opacity=".2"/><path d="m32 28 2-1-2-1-2 1z" fill="#fff" opacity=".1"/><path d="m39 22.5v1l2 1 4-2v-1l-4 2z" opacity=".2"/><path d="m41 23.5 4-2-2-1-4 2z" fill="#fff" opacity=".1"/><path d="m36 24v1l2 1 2-1v-1l-2 1z" opacity=".2"/><path d="m38 25 2-1-2-1-2 1z" fill="#fff" opacity=".1"/><path d="m13 38.5v1l2 1 2-1v-1l-2 1z" opacity=".2"/><path d="m15 39.5 2-1-2-1-2 1z" fill="#fff" opacity=".1"/><path d="m9 40.5v1l2 1 3-1.5v-1l-3 1.5z" opacity=".2"/><path d="m11 41.5 3-1.5-2-1-3 1.5z" fill="#fff" opacity=".1"/><path d="m19 35.5v1l2 1 2-1v-1l-2 1z" opacity=".2"/><path d="m21 36.5 2-1-2-1-2 1z" fill="#fff" opacity=".1"/><path d="m16 37v1l2 1 2-1v-1l-2 1z" opacity=".2"/><path d="m18 38 2-1-2-1-2 1z" fill="#fff" opacity=".1"/><path d="m25 32.5v1l2 1 2-1v-1l-2 1z" opacity=".2"/><path d="m27 33.5 2-1-2-1-2 1z" fill="#fff" opacity=".1"/><path d="m22 34v1l2 1 2-1v-1l-2 1z" opacity=".2"/><path d="m24 35 2-1-2-1-2 1z" fill="#fff" opacity=".1"/><path d="m31 29.5v1l2 1 2-1v-1l-2 1z" opacity=".2"/><path d="m33 30.5 2-1-2-1-2 1z" fill="#fff" opacity=".1"/><path d="m28 31v1l2 1 2-1v-1l-2 1z" opacity=".2"/><path d="m30 32 2-1-2-1-2 1z" fill="#fff" opacity=".1"/><path d="m37 26.5v1l2 1 2-1v-1l-2 1z" opacity=".2"/><path d="m39 27.5 2-1-2-1-2 1z" fill="#fff" opacity=".1"/><path d="m34 28v1l2 1 2-1v-1l-2 1z" opacity=".2"/><path d="m36 29 2-1-2-1-2 1z" fill="#fff" opacity=".1"/><path d="m40 25v1l2 1 2-1v-1l-2 1z" opacity=".2"/><path d="m42 26 2-1-2-1-2 1z" fill="#fff" opacity=".1"/><path d="m17 39.5v1l2 1 2-1v-1l-2 1z" opacity=".2"/><path d="m19 40.5 2-1-2-1-2 1z" fill="#fff" opacity=".1"/><path d="m12 42v1l2 1 4-2v-1l-4 2z" opacity=".2"/><path d="m14 43 4-2-2-1-4 2z" fill="#fff" opacity=".1"/><path d="m23 36.5v1l2 1 2-1v-1l-2 1z" opacity=".2"/><path d="m25 37.5 2-1-2-1-2 1z" fill="#fff" opacity=".1"/><path d="m20 38v1l2 1 2-1v-1l-2 1z" opacity=".2"/><path d="m22 39 2-1-2-1-2 1z" fill="#fff" opacity=".1"/><path d="m29 33.5v1l2 1 2-1v-1l-2 1z" opacity=".2"/><path d="m31 34.5 2-1-2-1-2 1z" fill="#fff" opacity=".1"/><path d="m26 35v1l2 1 2-1v-1l-2 1z" opacity=".2"/><path d="m28 36 2-1-2-1-2 1z" fill="#fff" opacity=".1"/><path d="m35 30.5v1l2 1 2-1v-1l-2 1z" opacity=".2"/><path d="m37 31.5 2-1-2-1-2 1z" fill="#fff" opacity=".1"/><path d="m22 43v1l2 1 2-1v-1l-2 1z" opacity=".2"/><path d="m24 44 2-1-2-1-2 1z" fill="#fff" opacity=".1"/><path d="m18 45v1l2 1 3-1.5v-1l-3 1.5z" opacity=".2"/><path d="m20 46 3-1.5-2-1-3 1.5z" fill="#fff" opacity=".1"/><path d="m25 41.5v1l2 1 2-1v-1l-2 1z" opacity=".2"/><path d="m27 42.5 2-1-2-1-2 1z" fill="#fff" opacity=".1"/><path d="m44 32v1l2 1 2-1v-1l-2 1z" opacity=".2"/><path d="m46 33 2-1-2-1-2 1z" fill="#fff" opacity=".1"/><path d="m28 40v1l2 1 15-7.5v-1l-15 7.5z" opacity=".2"/><path d="m30 41 15-7.5-2-1-15 7.5z" fill="#fff" opacity=".1"/><path d="m47 30.5v1l2 1 2-1v-1l-2 1z" opacity=".2"/><path d="m49 31.5 2-1-2-1-2 1z" fill="#fff" opacity=".1"/><path d="m50 29v1l2 1 2-1v-1l-2 1z" opacity=".2"/><path d="m52 30 2-1-2-1-2 1z" fill="#fff" opacity=".1"/><path d="m32 32v1l2 1 2-1v-1l-2 1z" opacity=".2"/><path d="m34 33 2-1-2-1-2 1z" fill="#fff" opacity=".1"/><path d="m41 27.5v1l2 1 2-1v-1l-2 1z" opacity=".2"/><path d="m43 28.5 2-1-2-1-2 1z" fill="#fff" opacity=".1"/><path d="m38 29v1l2 1 2-1v-1l-2 1z" opacity=".2"/><path d="m40 30 2-1-2-1-2 1z" fill="#fff" opacity=".1"/><path d="m49 25.5-3-1.5-1 .5-2-1v1l2 1 1-.5 3 1.5 2-1v-1z" opacity=".2"/><path d="m48 23-2-1-3 1.5 2 1 1-.5 3 1.5 2-1z" fill="#fff" opacity=".1"/><path d="m44 26v1l2 1 2-1v-1l-2 1z" opacity=".2"/><path d="m46 27 2-1-2-1-2 1z" fill="#fff" opacity=".1"/><path d="m18 42v1l2 1 2-1v-1l-2 1z" opacity=".2"/><path d="m20 43 2-1-2-1-2 1z" fill="#fff" opacity=".1"/><path d="m15 43.5v1l2 1 2-1v-1l-2 1z" opacity=".2"/><path d="m17 44.5 2-1-2-1-2 1z" fill="#fff" opacity=".1"/><path d="m24 39v1l2 1 2-1v-1l-2 1z" opacity=".2"/><path d="m26 40 2-1-2-1-2 1z" fill="#fff" opacity=".1"/><path d="m21 40.5v1l2 1 2-1v-1l-2 1z" opacity=".2"/><path d="m23 41.5 2-1-2-1-2 1z" fill="#fff" opacity=".1"/><path d="m30 36v1l2 1 2-1v-1l-2 1z" opacity=".2"/><path d="m32 37 2-1-2-1-2 1z" fill="#fff" opacity=".1"/><path d="m27 37.5v1l2 1 2-1v-1l-2 1z" opacity=".2"/><path d="m29 38.5 2-1-2-1-2 1z" fill="#fff" opacity=".1"/><path d="m36 33v1l2 1 2-1v-1l-2 1z" opacity=".2"/><path d="m38 34 2-1-2-1-2 1z" fill="#fff" opacity=".1"/><path d="m33 34.5v1l2 1 2-1v-1l-2 1z" opacity=".2"/><path d="m35 35.5 2-1-2-1-2 1z" fill="#fff" opacity=".1"/><path d="m42 30v1l2 1 2-1v-1l-2 1z" opacity=".2"/><path d="m44 31 2-1-2-1-2 1z" fill="#fff" opacity=".1"/><path d="m39 31.5v1l2 1 2-1v-1l-2 1z" opacity=".2"/><path d="m41 32.5 2-1-2-1-2 1z" fill="#fff" opacity=".1"/><path d="m45 28.5v1l2 1 7-3.5v-1l-7 3.5z" opacity=".2"/><path d="m47 29.5 7-3.5-2-1-7 3.5z" fill="#fff" opacity=".1"/><path d="m48 18v1l2 1 2-1v-1l-2 1z" opacity=".2"/><path d="m50 19 2-1-2-1-2 1z" fill="#fff" opacity=".1"/><path d="m45 19.5v1l2 1 2-1v-1l-2 1z" opacity=".2"/><path d="m47 20.5 2-1-2-1-2 1z" fill="#fff" opacity=".1"/><path d="m42 18v1l1 .5 2-1v-1l-2 1z" opacity=".2"/><path d="m43 18.5 2-1-1-.5-2 1z" fill="#fff" opacity=".1"/><path d="m45 16.5v1l1 .5 2-1v-1l-2 1z" opacity=".2"/><path d="m46 17 2-1-1-.5-2 1z" fill="#fff" opacity=".1"/><path d="m48 15v1l1 .5 2-1v-1l-2 1z" opacity=".2"/><path d="m49 15.5 2-1-1-.5-2 1z" fill="#fff" opacity=".1"/><path d="m32 23v1l1 .5 2-1v-1l-2 1z" opacity=".2"/><path d="m33 23.5 2-1-1-.5-2 1z" fill="#fff" opacity=".1"/><path d="m29 24.5v1l1 .5 2-1v-1l-2 1z" opacity=".2"/><path d="m30 25 2-1-1-.5-2 1z" fill="#fff" opacity=".1"/><path d="m35 21.5v1l1 .5 2-1v-1l-2 1z" opacity=".2"/><path d="m36 22 2-1-1-.5-2 1z" fill="#fff" opacity=".1"/><path d="m38 20v1l1 .5 2-1v-1l-2 1z" opacity=".2"/><path d="m39 20.5 2-1-1-.5-2 1z" fill="#fff" opacity=".1"/><path d="m19 29.5v1l1 .5 2-1v-1l-2 1z" opacity=".2"/><path d="m20 30 2-1-1-.5-2 1z" fill="#fff" opacity=".1"/><path d="m16 31v1l1 .5 2-1v-1l-2 1z" opacity=".2"/><path d="m17 31.5 2-1-1-.5-2 1z" fill="#fff" opacity=".1"/><path d="m22 28v1l1 .5 2-1v-1l-2 1z" opacity=".2"/><path d="m23 28.5 2-1-1-.5-2 1z" fill="#fff" opacity=".1"/><path d="m25 26.5v1l1 .5 2-1v-1l-2 1z" opacity=".2"/><path d="m26 27 2-1-1-.5-2 1z" fill="#fff" opacity=".1"/><path d="m6 36v1l1 .5 2-1v-1l-2 1z" opacity=".2"/><path d="m7 36.5 2-1-1-.5-2 1z" fill="#fff" opacity=".1"/><path d="m3 37.5v1l1 .5 2-1v-1l-2 1z" opacity=".2"/><path d="m4 38 2-1-1-.5-2 1z" fill="#fff" opacity=".1"/><path d="m9 34.5v1l1 .5 2-1v-1l-2 1z" opacity=".2"/><path d="m10 35 2-1-1-.5-2 1z" fill="#fff" opacity=".1"/><path d="m12 33v1l1 .5 2-1v-1l-2 1z" opacity=".2"/><path d="m13 33.5 2-1-1-.5-2 1z" fill="#fff" opacity=".1"/><path d="m51 19.5v1l2 1 2-1v-1l-2 1z" opacity=".2"/><path d="m53 20.5 2-1-2-1-2 1z" fill="#fff" opacity=".1"/><path d="m48 21v1l2 1 2-1v-1l-2 1z" opacity=".2"/><path d="m50 22 2-1-2-1-2 1z" fill="#fff" opacity=".1"/><path d="m54 21v1l2 1 2-1v-1l-2 1z" opacity=".2"/><path d="m56 22 2-1-2-1-2 1z" fill="#fff" opacity=".1"/><path d="m51 22.5v1l2 1 2-1v-1l-2 1z" opacity=".2"/><path d="m53 23.5 2-1-2-1-2 1z" fill="#fff" opacity=".1"/><path d="m61 24.5v1l2 1 2-1v-1l-2 1z" opacity=".2"/><path d="m63 25.5 2-1-2-1-2 1z" fill="#fff" opacity=".1"/><path d="m58 26v1l2 1 2-1v-1l-2 1z" opacity=".2"/><path d="m60 27 2-1-2-1-2 1z" fill="#fff" opacity=".1"/><path d="m55 27.5v1l2 1 2-1v-1l-2 1z" opacity=".2"/><path d="m57 28.5 2-1-2-1-2 1z" fill="#fff" opacity=".1"/><path d="m55 24.5v1l2 1 2-1v-1l-2 1z" opacity=".2"/><path d="m57 25.5 2-1-2-1-2 1z" fill="#fff" opacity=".1"/><path d="m55 14.5v1l2 1 2-1v-1l-2 1z" opacity=".2"/><path d="m57 15.5 2-1-2-1-2 1z" fill="#fff" opacity=".1"/><path d="m52 16v1l2 1 2-1v-1l-2 1z" opacity=".2"/><path d="m54 17 2-1-2-1-2 1z" fill="#fff" opacity=".1"/><path d="m61 11.5v1l2 1 2-1v-1l-2 1z" opacity=".2"/><path d="m63 12.5 2-1-2-1-2 1z" fill="#fff" opacity=".1"/><path d="m58 13v1l2 1 2-1v-1l-2 1z" opacity=".2"/><path d="m60 14 2-1-2-1-2 1z" fill="#fff" opacity=".1"/><path d="m58 16v1l2 1 2-1v-1l-2 1z" opacity=".2"/><path d="m60 17 2-1-2-1-2 1z" fill="#fff" opacity=".1"/><path d="m55 17.5v1l2 1 2-1v-1l-2 1z" opacity=".2"/><path d="m57 18.5 2-1-2-1-2 1z" fill="#fff" opacity=".1"/><path d="m61 14.5v1l2 1 2-1v-1l-2 1z" opacity=".2"/><path d="m63 15.5 2-1-2-1-2 1z" fill="#fff" opacity=".1"/><path d="m61 17.5v1l2 1 2-1v-1l-2 1z" opacity=".2"/><path d="m63 18.5 2-1-2-1-2 1z" fill="#fff" opacity=".1"/><path d="m58 19v1l2 1 2-1v-1l-2 1z" opacity=".2"/><path d="m60 20 2-1-2-1-2 1z" fill="#fff" opacity=".1"/><path d="m64 16v1l2 1 2-1v-1l-2 1z" opacity=".2"/><path d="m66 17 2-1-2-1-2 1z" fill="#fff" opacity=".1"/><path d="m64 19v1l2 1 2-1v-1l-2 1z" opacity=".2"/><path d="m66 20 2-1-2-1-2 1z" fill="#fff" opacity=".1"/><path d="m61 20.5v1l2 1 2-1v-1l-2 1z" opacity=".2"/><path d="m63 21.5 2-1-2-1-2 1z" fill="#fff" opacity=".1"/><path d="m67 17.5v1l2 1 2-1v-1l-2 1z" opacity=".2"/><path d="m69 18.5 2-1-2-1-2 1z" fill="#fff" opacity=".1"/><path d="m64 22v1l2 1 5-2.5v-1l-5 2.5z" opacity=".2"/><path d="m66 23 5-2.5-2-1-5 2.5z" fill="#fff" opacity=".1"/><path d="m70 16v1l5 2.5 2-1v-1l-2 1z" opacity=".2"/><path d="m75 18.5 2-1-5-2.5-2 1z" fill="#fff" opacity=".1"/><path d="m64 13v1l5 2.5 2-1v-1l-2 1z" opacity=".2"/><path d="m69 15.5 2-1-5-2.5-2 1z" fill="#fff" opacity=".1"/><path d="m70 19v1l2 1 2-1v-1l-2 1z" opacity=".2"/><path d="m72 20 2-1-2-1-2 1z" fill="#fff" opacity=".1"/><path d="m53 14.5-1-.5 9-4.5 1 .5z" opacity=".2"/><g fill="#9c3"><path d="m53.5 13.8.5.2.5-.2-.5-.3z" opacity=".8"/><path d="m55.5 12.8.5.2.5-.2-.5-.3z" opacity=".6"/></g></svg>