<svg xmlns:xlink="http://www.w3.org/1999/xlink"  enable-background="new 0 0 80 80" height="80" viewBox="0 0 80 80" width="80" xmlns="http://www.w3.org/2000/svg"><path d="m0 53v2l30 15 40-20v-2l-30-15z" fill="#2d3134"/><path d="m16 58 31.9-16 14.1 7-31.9 16z" fill="#656565"/><path d="m17 47 14-7 8 4-14 7z" fill="#656565"/><path d="m30 70-30-15v-2l30 15z" opacity=".11"/><path d="m30 70 40-20v-2l-40 20z" opacity=".29"/><path d="m16 58 31.9-16 14.1 7-31.9 16z" fill="#656565"/><g fill="#fff"><path d="m29 58.5 2-1-2-1-2 1z" opacity=".3"/><path d="m33 56.5 2-1-2-1-2 1z" opacity=".3"/><path d="m27 62.5 4-2-2-1-4 2z" opacity=".3"/><path d="m33 59.5 2-1-2-1-2 1z" opacity=".3"/><path d="m24 61 3-1.5-2-1-3 1.5z" opacity=".3"/><path d="m35 61.5-2-1-5 2.5 2 1z" opacity=".3"/><path d="m21 59.5 2-1-2-1-2 1z" opacity=".3"/><path d="m25 57.5 2-1-2-1-2 1z" opacity=".3"/><path d="m29 55.5 9-4.5-2-1-9 4.5z" opacity=".3"/></g><path d="m39 42-9 26 2 1 38-19 9-26-2-1z" fill="#2d3134"/><path d="m32 69-2-1 9-26 2 1z" opacity=".11"/><path d="m32 69 38-19 9-26-38 19z" opacity=".29"/></svg>