<svg xmlns:xlink="http://www.w3.org/1999/xlink"  enable-background="new 0 0 80 80" height="80" viewBox="0 0 80 80" width="80" xmlns="http://www.w3.org/2000/svg"><path d="m10 53v2l30 15 40-20v-2l-30-15z" fill="#2d3134"/><path d="m18 53 31.9-16 14.1 7-31.9 16z" fill="#656565"/><path d="m42 57 14-7 8 4-14 7z" fill="#656565"/><path d="m40 70-30-15v-2l30 15z" opacity=".11"/><path d="m40 70 40-20v-2l-40 20z" opacity=".29"/><g fill="#fff"><path d="m30 53 2-1-2-1-2 1z" opacity=".3"/><path d="m34 51 2-1-2-1-2 1z" opacity=".3"/><path d="m38 49 2-1-2-1-2 1z" opacity=".3"/><path d="m42 47 2-1-2-1-2 1z" opacity=".3"/><path d="m46 45 2-1-2-1-2 1z" opacity=".3"/><path d="m28 57 4-2-2-1-4 2z" opacity=".3"/><path d="m34 54 2-1-2-1-2 1z" opacity=".3"/><path d="m38 52 2-1-2-1-2 1z" opacity=".3"/><path d="m42 50 2-1-2-1-2 1z" opacity=".3"/><path d="m46 48 2-1-2-1-2 1z" opacity=".3"/><path d="m50 46 2-1-2-1-2 1z" opacity=".3"/><path d="m54 44 4-2-2-1-4 2z" opacity=".3"/><path d="m25 55.5 3-1.5-2-1-3 1.5z" opacity=".3"/><path d="m36 56-2-1-5 2.5 2 1z" opacity=".3"/><path d="m38 55 2-1-2-1-2 1z" opacity=".3"/><path d="m42 53 10-5-2-1-10 5z" opacity=".3"/><path d="m54 47 2-1-2-1-2 1z" opacity=".3"/><path d="m53 39.5-5 2.5 2 1 5-2.5z" opacity=".3"/><path d="m61 43.5-2-1-3 1.5 2 1z" opacity=".3"/><path d="m22 54 2-1-2-1-2 1z" opacity=".3"/><path d="m26 52 2-1-2-1-2 1z" opacity=".3"/><path d="m30 50 2-1-2-1-2 1z" opacity=".3"/><path d="m34 48 2-1-2-1-2 1z" opacity=".3"/><path d="m38 46 2-1-2-1-2 1z" opacity=".3"/><path d="m42 44 2-1-2-1-2 1z" opacity=".3"/><path d="m46 42 2-1-2-1-2 1z" opacity=".3"/><path d="m50 40 2-1-2-1-2 1z" opacity=".3"/></g><path d="m1 20 7 32 2 1 40-20-7-32-2-1z" fill="#2d3134"/><path d="m10 53-2-1-7-32 2 1z" opacity=".11"/><path d="m5.2 22.1 36.3-18.1 6.3 27.9-36.3 18.1z" fill="#36c"/><path d="m5.2 22.1 36.3-18.1 4.4 19.6z" fill="#fff" opacity=".2"/><path d="m10 53 40-20-7-32-40 20z" opacity=".29"/></svg>