<svg xmlns:xlink="http://www.w3.org/1999/xlink"  enable-background="new 0 0 80 80" height="80" viewBox="0 0 80 80" width="80" xmlns="http://www.w3.org/2000/svg"><path d="m10 63v2l30 15 40-20v-2l-40 20z" fill="#2d3134"/><path d="m10 63 30 15 40-20-30-15z" fill="#656565"/><path d="m42 67 14-7 8 4-14 7z" fill="#fff" opacity=".1"/><path d="m40 80-30-15v-2l30 15z" opacity=".11"/><path d="m40 80 40-20v-2l-40 20z" opacity=".29"/><path d="m8 27v35l2 1 40-20v-35l-2-1z" fill="#2d3134"/><path d="m50 8-40 20v35l40-20z" fill="#656565"/><path d="m12 29 36-18v29l-36 18z" fill="#36c"/><path d="m12 29 36-18v18z" fill="#fff" opacity=".15"/><path d="m50 8-40 20v35l40-20z" opacity=".29"/><path d="m8 27v35l2 1v-35z" opacity=".11"/><path d="m20 62.5v1l2 1 2-1v-1l-2 1z" opacity=".2"/><path d="m22 63.5 2-1-2-1-2 1z" fill="#fff" opacity=".1"/><path d="m17 64v1l2 1 2-1v-1l-2 1z" opacity=".2"/><path d="m19 65 2-1-2-1-2 1z" fill="#fff" opacity=".1"/><path d="m26 59.5v1l2 1 2-1v-1l-2 1z" opacity=".2"/><path d="m28 60.5 2-1-2-1-2 1z" fill="#fff" opacity=".1"/><path d="m23 61v1l2 1 2-1v-1l-2 1z" opacity=".2"/><path d="m25 62 2-1-2-1-2 1z" fill="#fff" opacity=".1"/><path d="m32 56.5v1l2 1 2-1v-1l-2 1z" opacity=".2"/><path d="m34 57.5 2-1-2-1-2 1z" fill="#fff" opacity=".1"/><path d="m29 58v1l2 1 2-1v-1l-2 1z" opacity=".2"/><path d="m31 59 2-1-2-1-2 1z" fill="#fff" opacity=".1"/><path d="m38 53.5v1l2 1 2-1v-1l-2 1z" opacity=".2"/><path d="m40 54.5 2-1-2-1-2 1z" fill="#fff" opacity=".1"/><path d="m35 55v1l2 1 2-1v-1l-2 1z" opacity=".2"/><path d="m37 56 2-1-2-1-2 1z" fill="#fff" opacity=".1"/><path d="m44 50.5v1l2 1 2-1v-1l-2 1z" opacity=".2"/><path d="m46 51.5 2-1-2-1-2 1z" fill="#fff" opacity=".1"/><path d="m41 52v1l2 1 2-1v-1l-2 1z" opacity=".2"/><path d="m43 53 2-1-2-1-2 1z" fill="#fff" opacity=".1"/><path d="m50 47.5v1l2 1 4-2v-1l-4 2z" opacity=".2"/><path d="m52 48.5 4-2-2-1-4 2z" fill="#fff" opacity=".1"/><path d="m47 49v1l2 1 2-1v-1l-2 1z" opacity=".2"/><path d="m49 50 2-1-2-1-2 1z" fill="#fff" opacity=".1"/><path d="m24 63.5v1l2 1 2-1v-1l-2 1z" opacity=".2"/><path d="m26 64.5 2-1-2-1-2 1z" fill="#fff" opacity=".1"/><path d="m20 65.5v1l2 1 3-1.5v-1l-3 1.5z" opacity=".2"/><path d="m22 66.5 3-1.5-2-1-3 1.5z" fill="#fff" opacity=".1"/><path d="m30 60.5v1l2 1 2-1v-1l-2 1z" opacity=".2"/><path d="m32 61.5 2-1-2-1-2 1z" fill="#fff" opacity=".1"/><path d="m27 62v1l2 1 2-1v-1l-2 1z" opacity=".2"/><path d="m29 63 2-1-2-1-2 1z" fill="#fff" opacity=".1"/><path d="m36 57.5v1l2 1 2-1v-1l-2 1z" opacity=".2"/><path d="m38 58.5 2-1-2-1-2 1z" fill="#fff" opacity=".1"/><path d="m33 59v1l2 1 2-1v-1l-2 1z" opacity=".2"/><path d="m35 60 2-1-2-1-2 1z" fill="#fff" opacity=".1"/><path d="m42 54.5v1l2 1 2-1v-1l-2 1z" opacity=".2"/><path d="m44 55.5 2-1-2-1-2 1z" fill="#fff" opacity=".1"/><path d="m39 56v1l2 1 2-1v-1l-2 1z" opacity=".2"/><path d="m41 57 2-1-2-1-2 1z" fill="#fff" opacity=".1"/><path d="m48 51.5v1l2 1 2-1v-1l-2 1z" opacity=".2"/><path d="m50 52.5 2-1-2-1-2 1z" fill="#fff" opacity=".1"/><path d="m45 53v1l2 1 2-1v-1l-2 1z" opacity=".2"/><path d="m47 54 2-1-2-1-2 1z" fill="#fff" opacity=".1"/><path d="m51 50v1l2 1 2-1v-1l-2 1z" opacity=".2"/><path d="m53 51 2-1-2-1-2 1z" fill="#fff" opacity=".1"/><path d="m28 64.5v1l2 1 2-1v-1l-2 1z" opacity=".2"/><path d="m30 65.5 2-1-2-1-2 1z" fill="#fff" opacity=".1"/><path d="m23 67v1l2 1 4-2v-1l-4 2z" opacity=".2"/><path d="m25 68 4-2-2-1-4 2z" fill="#fff" opacity=".1"/><path d="m34 61.5v1l2 1 2-1v-1l-2 1z" opacity=".2"/><path d="m36 62.5 2-1-2-1-2 1z" fill="#fff" opacity=".1"/><path d="m31 63v1l2 1 2-1v-1l-2 1z" opacity=".2"/><path d="m33 64 2-1-2-1-2 1z" fill="#fff" opacity=".1"/><path d="m40 58.5v1l2 1 2-1v-1l-2 1z" opacity=".2"/><path d="m42 59.5 2-1-2-1-2 1z" fill="#fff" opacity=".1"/><path d="m37 60v1l2 1 2-1v-1l-2 1z" opacity=".2"/><path d="m39 61 2-1-2-1-2 1z" fill="#fff" opacity=".1"/><path d="m46 55.5v1l2 1 2-1v-1l-2 1z" opacity=".2"/><path d="m48 56.5 2-1-2-1-2 1z" fill="#fff" opacity=".1"/><path d="m33 68v1l2 1 2-1v-1l-2 1z" opacity=".2"/><path d="m35 69 2-1-2-1-2 1z" fill="#fff" opacity=".1"/><path d="m29 70v1l2 1 3-1.5v-1l-3 1.5z" opacity=".2"/><path d="m31 71 3-1.5-2-1-3 1.5z" fill="#fff" opacity=".1"/><path d="m36 66.5v1l2 1 2-1v-1l-2 1z" opacity=".2"/><path d="m38 67.5 2-1-2-1-2 1z" fill="#fff" opacity=".1"/><path d="m55 57v1l2 1 2-1v-1l-2 1z" opacity=".2"/><path d="m57 58 2-1-2-1-2 1z" fill="#fff" opacity=".1"/><path d="m39 65v1l2 1 15-7.5v-1l-15 7.5z" opacity=".2"/><path d="m41 66 15-7.5-2-1-15 7.5z" fill="#fff" opacity=".1"/><path d="m58 55.5v1l2 1 2-1v-1l-2 1z" opacity=".2"/><path d="m60 56.5 2-1-2-1-2 1z" fill="#fff" opacity=".1"/><path d="m61 54v1l2 1 2-1v-1l-2 1z" opacity=".2"/><path d="m63 55 2-1-2-1-2 1z" fill="#fff" opacity=".1"/><path d="m64 52.5v1l2 1 2-1v-1l-2 1z" opacity=".2"/><path d="m66 53.5 2-1-2-1-2 1z" fill="#fff" opacity=".1"/><path d="m43 57v1l2 1 2-1v-1l-2 1z" opacity=".2"/><path d="m45 58 2-1-2-1-2 1z" fill="#fff" opacity=".1"/><path d="m52 52.5v1l2 1 2-1v-1l-2 1z" opacity=".2"/><path d="m54 53.5 2-1-2-1-2 1z" fill="#fff" opacity=".1"/><path d="m49 54v1l2 1 2-1v-1l-2 1z" opacity=".2"/><path d="m51 55 2-1-2-1-2 1z" fill="#fff" opacity=".1"/><path d="m60 50.5-3-1.5-1 .5-2-1v1l2 1 1-.5 3 1.5 2-1v-1z" opacity=".2"/><path d="m59 48-2-1-3 1.5 2 1 1-.5 3 1.5 2-1z" fill="#fff" opacity=".1"/><path d="m55 51v1l2 1 2-1v-1l-2 1z" opacity=".2"/><path d="m57 52 2-1-2-1-2 1z" fill="#fff" opacity=".1"/><path d="m29 67v1l2 1 2-1v-1l-2 1z" opacity=".2"/><path d="m31 68 2-1-2-1-2 1z" fill="#fff" opacity=".1"/><path d="m26 68.5v1l2 1 2-1v-1l-2 1z" opacity=".2"/><path d="m28 69.5 2-1-2-1-2 1z" fill="#fff" opacity=".1"/><path d="m35 64v1l2 1 2-1v-1l-2 1z" opacity=".2"/><path d="m37 65 2-1-2-1-2 1z" fill="#fff" opacity=".1"/><path d="m32 65.5v1l2 1 2-1v-1l-2 1z" opacity=".2"/><path d="m34 66.5 2-1-2-1-2 1z" fill="#fff" opacity=".1"/><path d="m41 61v1l2 1 2-1v-1l-2 1z" opacity=".2"/><path d="m43 62 2-1-2-1-2 1z" fill="#fff" opacity=".1"/><path d="m38 62.5v1l2 1 2-1v-1l-2 1z" opacity=".2"/><path d="m40 63.5 2-1-2-1-2 1z" fill="#fff" opacity=".1"/><path d="m47 58v1l2 1 2-1v-1l-2 1z" opacity=".2"/><path d="m49 59 2-1-2-1-2 1z" fill="#fff" opacity=".1"/><path d="m44 59.5v1l2 1 2-1v-1l-2 1z" opacity=".2"/><path d="m46 60.5 2-1-2-1-2 1z" fill="#fff" opacity=".1"/><path d="m53 55v1l2 1 2-1v-1l-2 1z" opacity=".2"/><path d="m55 56 2-1-2-1-2 1z" fill="#fff" opacity=".1"/><path d="m50 56.5v1l2 1 2-1v-1l-2 1z" opacity=".2"/><path d="m52 57.5 2-1-2-1-2 1z" fill="#fff" opacity=".1"/><path d="m56 53.5v1l2 1 7-3.5v-1l-7 3.5z" opacity=".2"/><path d="m58 54.5 7-3.5-2-1-7 3.5z" fill="#fff" opacity=".1"/><path d="m43 48v1l1 .5 2-1v-1l-2 1z" opacity=".2"/><path d="m44 48.5 2-1-1-.5-2 1z" fill="#fff" opacity=".1"/><path d="m40 49.5v1l1 .5 2-1v-1l-2 1z" opacity=".2"/><path d="m41 50 2-1-1-.5-2 1z" fill="#fff" opacity=".1"/><path d="m46 46.5v1l1 .5 2-1v-1l-2 1z" opacity=".2"/><path d="m47 47 2-1-1-.5-2 1z" fill="#fff" opacity=".1"/><path d="m49 45v1l1 .5 2-1v-1l-2 1z" opacity=".2"/><path d="m50 45.5 2-1-1-.5-2 1z" fill="#fff" opacity=".1"/><path d="m30 54.5v1l1 .5 2-1v-1l-2 1z" opacity=".2"/><path d="m31 55 2-1-1-.5-2 1z" fill="#fff" opacity=".1"/><path d="m27 56v1l1 .5 2-1v-1l-2 1z" opacity=".2"/><path d="m28 56.5 2-1-1-.5-2 1z" fill="#fff" opacity=".1"/><path d="m33 53v1l1 .5 2-1v-1l-2 1z" opacity=".2"/><path d="m34 53.5 2-1-1-.5-2 1z" fill="#fff" opacity=".1"/><path d="m36 51.5v1l1 .5 2-1v-1l-2 1z" opacity=".2"/><path d="m37 52 2-1-1-.5-2 1z" fill="#fff" opacity=".1"/><path d="m17 61v1l1 .5 2-1v-1l-2 1z" opacity=".2"/><path d="m18 61.5 2-1-1-.5-2 1z" fill="#fff" opacity=".1"/><path d="m14 62.5v1l1 .5 2-1v-1l-2 1z" opacity=".2"/><path d="m15 63 2-1-1-.5-2 1z" fill="#fff" opacity=".1"/><path d="m20 59.5v1l1 .5 2-1v-1l-2 1z" opacity=".2"/><path d="m21 60 2-1-1-.5-2 1z" fill="#fff" opacity=".1"/><path d="m23 58v1l1 .5 2-1v-1l-2 1z" opacity=".2"/><path d="m24 58.5 2-1-1-.5-2 1z" fill="#fff" opacity=".1"/></svg>