<svg xmlns:xlink="http://www.w3.org/1999/xlink"  enable-background="new 0 0 64 40" height="40" viewBox="0 0 64 40" width="64" xmlns="http://www.w3.org/2000/svg"><path d="m32 9.4c-.2.1-2-2.9-2-2.9-.1-.2 0-.5.2-.7.2-.1.5 0 .7.2 0 0 1.4 3.3 1.1 3.4z" fill="#939"/><path d="m34.6 8.3c-.3-.1.6-3.4.6-3.4.1-.3.4-.4.6-.3.3.1.4.4.3.6.1 0-1.2 3.1-1.5 3.1z" fill="#939"/><ellipse cx="34" cy="9.4" fill="#9c3" rx="3" ry="2.5"/><path d="m35.7 10.9c-.2-.2 2-3.3 2-3.3.2-.2.5-.3.8-.1.2.2.3.5.1.8-.1 0-2.7 2.7-2.9 2.6z" fill="#939"/><path d="m34.1 11.3c-.3-.1.7-3.5.7-3.5.1-.3.4-.4.6-.3.3.1.4.4.3.6.1.1-1.3 3.3-1.6 3.2z" fill="#939"/><path d="m36 8.8c-.2-.1 1-3 1-3 .1-.2.4-.3.6-.2.2.1.3.4.2.6 0 0-1.6 2.8-1.8 2.6z" fill="#939"/><path d="m33.7 9c-.3 0-.1-3.9-.1-3.9 0-.3.3-.5.6-.5.3 0 .5.3.5.6 0 0-.7 3.8-1 3.8z" fill="#939"/><path d="m33.2 7.7c-.3.1-1.6-3.1-1.6-3.1-.1-.3 0-.5.3-.6.3-.1.5 0 .6.3 0 0 1 3.4.7 3.4z" fill="#939"/><path d="m30.6 10.3c-.3-.1.6-3.4.6-3.4.1-.3.4-.4.6-.3.3.1.4.4.3.6.1 0-1.2 3.1-1.5 3.1z" fill="#939"/><ellipse cx="30" cy="11.4" fill="#9c3" rx="3" ry="2.5"/><g fill="#939"><path d="m31.7 12.9c-.2-.2 2-3.3 2-3.3.2-.2.5-.3.8-.1.2.2.3.5.1.8-.1 0-2.7 2.7-2.9 2.6z"/><path d="m30.1 13.3c-.3-.1.7-3.5.7-3.5.1-.3.4-.4.6-.3.3.1.4.4.3.6.1.1-1.3 3.3-1.6 3.2z"/><path d="m32 10.8c-.2-.1 1-3 1-3 .1-.2.4-.3.6-.2.2.1.3.4.2.6 0 0-1.6 2.8-1.8 2.6z"/><path d="m29.7 11c-.3 0-.1-3.9-.1-3.9 0-.3.3-.5.6-.5.3 0 .5.3.5.6 0 0-.7 3.8-1 3.8z"/><path d="m29.2 9.7c-.3.1-1.6-3.1-1.6-3.1-.1-.3 0-.5.3-.6.3-.1.5 0 .6.3 0 0 1 3.4.7 3.4z"/><path d="m29.3 12.8c-.3.1-1.9-3-1.9-3-.1-.3 0-.5.3-.7.3-.1.5 0 .7.3-.1 0 1.1 3.3.9 3.4z"/><path d="m24 13.4c-.2.1-2-2.9-2-2.9-.1-.2 0-.5.2-.7.2-.1.5 0 .7.2 0 0 1.4 3.3 1.1 3.4z"/><path d="m26.6 12.3c-.3-.1.6-3.4.6-3.4.1-.3.4-.4.6-.3.3.1.4.4.3.6.1 0-1.2 3.1-1.5 3.1z"/></g><ellipse cx="26" cy="13.4" fill="#9c3" rx="3" ry="2.5"/><path d="m27.7 14.9c-.2-.2 2-3.3 2-3.3.2-.2.5-.3.8-.1.2.2.3.5.1.8-.1 0-2.7 2.7-2.9 2.6z" fill="#939"/><path d="m26.1 15.3c-.3-.1.7-3.5.7-3.5.1-.3.4-.4.6-.3.3.1.4.4.3.6.1.1-1.3 3.3-1.6 3.2z" fill="#939"/><path d="m28 12.8c-.2-.1 1-3 1-3 .1-.2.4-.3.6-.2.2.1.3.4.2.6 0 0-1.6 2.8-1.8 2.6z" fill="#939"/><path d="m25.7 13c-.3 0-.1-3.9-.1-3.9 0-.3.3-.5.6-.5.3 0 .5.3.5.6 0 0-.7 3.8-1 3.8z" fill="#939"/><path d="m25.2 11.7c-.3.1-1.6-3.1-1.6-3.1-.1-.3 0-.5.3-.6.3-.1.5 0 .6.3 0 0 1 3.4.7 3.4z" fill="#939"/><path d="m25.3 14.8c-.3.1-1.9-3-1.9-3-.1-.3 0-.5.3-.7.3-.1.5 0 .7.3-.1 0 1.1 3.3.9 3.4z" fill="#939"/><path d="m20 15.4c-.2.1-2-2.9-2-2.9-.1-.2 0-.5.2-.7.2-.1.5 0 .7.2 0 0 1.4 3.3 1.1 3.4z" fill="#939"/><ellipse cx="22" cy="15.4" fill="#9c3" rx="3" ry="2.5"/><path d="m22.1 17.3c-.3-.1.7-3.5.7-3.5.1-.3.4-.4.6-.3.3.1.4.4.3.6.1.1-1.3 3.3-1.6 3.2z" fill="#939"/><path d="m24 14.8c-.2-.1 1-3 1-3 .1-.2.4-.3.6-.2.2.1.3.4.2.6 0 0-1.6 2.8-1.8 2.6z" fill="#939"/><path d="m21.7 15c-.3 0-.1-3.9-.1-3.9 0-.3.3-.5.6-.5.3 0 .5.3.5.6 0 0-.7 3.8-1 3.8z" fill="#939"/><path d="m21.2 13.7c-.3.1-1.6-3.1-1.6-3.1-.1-.3 0-.5.3-.6.3-.1.5 0 .6.3 0 0 1 3.4.7 3.4z" fill="#939"/><path d="m21.3 16.8c-.3.1-1.9-3-1.9-3-.1-.3 0-.5.3-.7.3-.1.5 0 .7.3-.1 0 1.1 3.3.9 3.4z" fill="#939"/><path d="m42.6 12.3c-.3-.1.6-3.4.6-3.4.1-.3.4-.4.6-.3.3.1.4.4.3.6.1 0-1.2 3.1-1.5 3.1z" fill="#939"/><ellipse cx="42" cy="13.4" fill="#9c3" rx="3" ry="2.5"/><path d="m43.7 14.9c-.2-.2 2-3.3 2-3.3.2-.2.5-.3.8-.1.2.2.3.5.1.8-.1 0-2.7 2.7-2.9 2.6z" fill="#939"/><path d="m42.1 15.3c-.3-.1.7-3.5.7-3.5.1-.3.4-.4.6-.3.3.1.4.4.3.6.1.1-1.3 3.3-1.6 3.2z" fill="#939"/><path d="m44 12.8c-.2-.1 1-3 1-3 .1-.2.4-.3.6-.2.2.1.3.4.2.6 0 0-1.6 2.8-1.8 2.6z" fill="#939"/><path d="m41.7 13c-.3 0-.1-3.9-.1-3.9 0-.3.3-.5.6-.5.3 0 .5.3.5.6 0 0-.7 3.8-1 3.8z" fill="#939"/><path d="m41.2 11.7c-.3.1-1.6-3.1-1.6-3.1-.1-.3 0-.5.3-.6.3-.1.5 0 .6.3 0 0 1 3.4.7 3.4z" fill="#939"/><path d="m41.3 14.8c-.3.1-1.9-3-1.9-3-.1-.3 0-.5.3-.7.3-.1.5 0 .7.3-.1 0 1.1 3.3.9 3.4z" fill="#939"/><path d="m36 15.4c-.2.1-2-2.9-2-2.9-.1-.2 0-.5.2-.7.2-.1.5 0 .7.2 0 0 1.4 3.3 1.1 3.4z" fill="#939"/><path d="m38.6 14.3c-.3-.1.6-3.4.6-3.4.1-.3.4-.4.6-.3.3.1.4.4.3.6.1 0-1.2 3.1-1.5 3.1z" fill="#939"/><ellipse cx="38" cy="15.4" fill="#9c3" rx="3" ry="2.5"/><path d="m39.7 16.9c-.2-.2 2-3.3 2-3.3.2-.2.5-.3.8-.1.2.2.3.5.1.8-.1 0-2.7 2.7-2.9 2.6z" fill="#939"/><path d="m38.1 17.3c-.3-.1.7-3.5.7-3.5.1-.3.4-.4.6-.3.3.1.4.4.3.6.1.1-1.3 3.3-1.6 3.2z" fill="#939"/><path d="m37.7 15c-.3 0-.1-3.9-.1-3.9 0-.3.3-.5.6-.5.3 0 .5.3.5.6 0 0-.7 3.8-1 3.8z" fill="#939"/><path d="m37.2 13.7c-.3.1-1.6-3.1-1.6-3.1-.1-.3 0-.5.3-.6.3-.1.5 0 .6.3 0 0 1 3.4.7 3.4z" fill="#939"/><path d="m32 17.4c-.2.1-2-2.9-2-2.9-.1-.2 0-.5.2-.7.2-.1.5 0 .7.2 0 0 1.4 3.3 1.1 3.4z" fill="#939"/><path d="m34.6 16.3c-.3-.1.6-3.4.6-3.4.1-.3.4-.4.6-.3.3.1.4.4.3.6.1 0-1.2 3.1-1.5 3.1z" fill="#939"/><ellipse cx="34" cy="17.4" fill="#9c3" rx="3" ry="2.5"/><path d="m34.1 19.3c-.3-.1.7-3.5.7-3.5.1-.3.4-.4.6-.3.3.1.4.4.3.6.1.1-1.3 3.3-1.6 3.2z" fill="#939"/><path d="m36 16.8c-.2-.1 1-3 1-3 .1-.2.4-.3.6-.2.2.1.3.4.2.6 0 0-1.6 2.8-1.8 2.6z" fill="#939"/><path d="m33.7 17c-.3 0-.1-3.9-.1-3.9 0-.3.3-.5.6-.5.3 0 .5.3.5.6 0 0-.7 3.8-1 3.8z" fill="#939"/><path d="m33.2 15.7c-.3.1-1.6-3.1-1.6-3.1-.1-.3 0-.5.3-.6.3-.1.5 0 .6.3 0 0 1 3.4.7 3.4z" fill="#939"/><path d="m33.3 18.8c-.3.1-1.9-3-1.9-3-.1-.3 0-.5.3-.7.3-.1.5 0 .7.3-.1 0 1.1 3.3.9 3.4z" fill="#939"/><path d="m28 19.4c-.2.1-2-2.9-2-2.9-.1-.2 0-.5.2-.7.2-.1.5 0 .7.2 0 0 1.4 3.3 1.1 3.4z" fill="#939"/><ellipse cx="30" cy="19.4" fill="#9c3" rx="3" ry="2.5"/><path d="m31.7 20.9c-.2-.2 2-3.3 2-3.3.2-.2.5-.3.8-.1.2.2.3.5.1.8-.1 0-2.7 2.7-2.9 2.6z" fill="#939"/><path d="m30.1 21.3c-.3-.1.7-3.5.7-3.5.1-.3.4-.4.6-.3.3.1.4.4.3.6.1.1-1.3 3.3-1.6 3.2z" fill="#939"/><path d="m29.7 19c-.3 0-.1-3.9-.1-3.9 0-.3.3-.5.6-.5.3 0 .5.3.5.6 0 0-.7 3.8-1 3.8z" fill="#939"/><path d="m29.2 17.7c-.3.1-1.6-3.1-1.6-3.1-.1-.3 0-.5.3-.6.3-.1.5 0 .6.3 0 0 1 3.4.7 3.4z" fill="#939"/><path d="m29.3 20.8c-.3.1-1.9-3-1.9-3-.1-.3 0-.5.3-.7.3-.1.5 0 .7.3-.1 0 1.1 3.3.9 3.4z" fill="#939"/><path d="m48 17.4c-.2.1-2-2.9-2-2.9-.1-.2 0-.5.2-.7.2-.1.5 0 .7.2 0 0 1.4 3.3 1.1 3.4z" fill="#939"/><path d="m50.6 16.3c-.3-.1.6-3.4.6-3.4.1-.3.4-.4.6-.3.3.1.4.4.3.6.1 0-1.2 3.1-1.5 3.1z" fill="#939"/><ellipse cx="50" cy="17.4" fill="#9c3" rx="3" ry="2.5"/><path d="m51.7 18.9c-.2-.2 2-3.3 2-3.3.2-.2.5-.3.8-.1.2.2.3.5.1.8-.1 0-2.7 2.7-2.9 2.6z" fill="#939"/><path d="m50.1 19.3c-.3-.1.7-3.5.7-3.5.1-.3.4-.4.6-.3.3.1.4.4.3.6.1.1-1.3 3.3-1.6 3.2z" fill="#939"/><path d="m52 16.8c-.2-.1 1-3 1-3 .1-.2.4-.3.6-.2.2.1.3.4.2.6 0 0-1.6 2.8-1.8 2.6z" fill="#939"/><path d="m49.7 17c-.3 0-.1-3.9-.1-3.9 0-.3.3-.5.6-.5.3 0 .5.3.5.6 0 0-.7 3.8-1 3.8z" fill="#939"/><path d="m49.2 15.7c-.3.1-1.6-3.1-1.6-3.1-.1-.3 0-.5.3-.6.3-.1.5 0 .6.3 0 0 1 3.4.7 3.4z" fill="#939"/><path d="m46.6 18.3c-.3-.1.6-3.4.6-3.4.1-.3.4-.4.6-.3.3.1.4.4.3.6.1 0-1.2 3.1-1.5 3.1z" fill="#939"/><ellipse cx="46" cy="19.4" fill="#9c3" rx="3" ry="2.5"/><path d="m47.7 20.9c-.2-.2 2-3.3 2-3.3.2-.2.5-.3.8-.1.2.2.3.5.1.8-.1 0-2.7 2.7-2.9 2.6z" fill="#939"/><path d="m46.1 21.3c-.3-.1.7-3.5.7-3.5.1-.3.4-.4.6-.3.3.1.4.4.3.6.1.1-1.3 3.3-1.6 3.2z" fill="#939"/><path d="m48 18.8c-.2-.1 1-3 1-3 .1-.2.4-.3.6-.2.2.1.3.4.2.6 0 0-1.6 2.8-1.8 2.6z" fill="#939"/><path d="m45.7 19c-.3 0-.1-3.9-.1-3.9 0-.3.3-.5.6-.5.3 0 .5.3.5.6 0 0-.7 3.8-1 3.8z" fill="#939"/><path d="m45.2 17.7c-.3.1-1.6-3.1-1.6-3.1-.1-.3 0-.5.3-.6.3-.1.5 0 .6.3 0 0 1 3.4.7 3.4z" fill="#939"/><path d="m45.3 20.8c-.3.1-1.9-3-1.9-3-.1-.3 0-.5.3-.7.3-.1.5 0 .7.3-.1 0 1.1 3.3.9 3.4z" fill="#939"/><path d="m40 21.4c-.2.1-2-2.9-2-2.9-.1-.2 0-.5.2-.7.2-.1.5 0 .7.2 0 0 1.4 3.3 1.1 3.4z" fill="#939"/><path d="m42.6 20.3c-.3-.1.6-3.4.6-3.4.1-.3.4-.4.6-.3.3.1.4.4.3.6.1 0-1.2 3.1-1.5 3.1z" fill="#939"/><ellipse cx="42" cy="21.4" fill="#9c3" rx="3" ry="2.5"/><path d="m43.7 22.9c-.2-.2 2-3.3 2-3.3.2-.2.5-.3.8-.1.2.2.3.5.1.8-.1 0-2.7 2.7-2.9 2.6z" fill="#939"/><path d="m42.1 23.3c-.3-.1.7-3.5.7-3.5.1-.3.4-.4.6-.3.3.1.4.4.3.6.1.1-1.3 3.3-1.6 3.2z" fill="#939"/><path d="m44 20.8c-.2-.1 1-3 1-3 .1-.2.4-.3.6-.2.2.1.3.4.2.6 0 0-1.6 2.8-1.8 2.6z" fill="#939"/><path d="m41.7 21c-.3 0-.1-3.9-.1-3.9 0-.3.3-.5.6-.5.3 0 .5.3.5.6 0 0-.7 3.8-1 3.8z" fill="#939"/><path d="m41.3 22.8c-.3.1-1.9-3-1.9-3-.1-.3 0-.5.3-.7.3-.1.5 0 .7.3-.1 0 1.1 3.3.9 3.4z" fill="#939"/><path d="m36 23.4c-.2.1-2-2.9-2-2.9-.1-.2 0-.5.2-.7.2-.1.5 0 .7.2 0 0 1.4 3.3 1.1 3.4z" fill="#939"/><ellipse cx="38" cy="23.4" fill="#9c3" rx="3" ry="2.5"/><path d="m38.1 25.3c-.3-.1.7-3.5.7-3.5.1-.3.4-.4.6-.3.3.1.4.4.3.6.1.1-1.3 3.3-1.6 3.2z" fill="#939"/><path d="m40 22.8c-.2-.1 1-3 1-3 .1-.2.4-.3.6-.2.2.1.3.4.2.6 0 0-1.6 2.8-1.8 2.6z" fill="#939"/><path d="m37.7 23c-.3 0-.1-3.9-.1-3.9 0-.3.3-.5.6-.5.3 0 .5.3.5.6 0 0-.7 3.8-1 3.8z" fill="#939"/><path d="m37.2 21.7c-.3.1-1.6-3.1-1.6-3.1-.1-.3 0-.5.3-.6.3-.1.5 0 .6.3 0 0 1 3.4.7 3.4z" fill="#939"/><path d="m37.3 24.8c-.3.1-1.9-3-1.9-3-.1-.3 0-.5.3-.7.3-.1.5 0 .7.3-.1 0 1.1 3.3.9 3.4z" fill="#939"/><path d="m58.6 20.3c-.3-.1.6-3.4.6-3.4.1-.3.4-.4.6-.3.3.1.4.4.3.6.1 0-1.2 3.1-1.5 3.1z" fill="#939"/><ellipse cx="58" cy="21.4" fill="#9c3" rx="3" ry="2.5"/><path d="m59.7 22.9c-.2-.2 2-3.3 2-3.3.2-.2.5-.3.8-.1.2.2.3.5.1.8-.1 0-2.7 2.7-2.9 2.6z" fill="#939"/><path d="m58.1 23.3c-.3-.1.7-3.5.7-3.5.1-.3.4-.4.6-.3.3.1.4.4.3.6.1.1-1.3 3.3-1.6 3.2z" fill="#939"/><path d="m60 20.8c-.2-.1 1-3 1-3 .1-.2.4-.3.6-.2.2.1.3.4.2.6 0 0-1.6 2.8-1.8 2.6z" fill="#939"/><path d="m57.7 21c-.3 0-.1-3.9-.1-3.9 0-.3.3-.5.6-.5.3 0 .5.3.5.6 0 0-.7 3.8-1 3.8z" fill="#939"/><path d="m57.2 19.7c-.3.1-1.6-3.1-1.6-3.1-.1-.3 0-.5.3-.6.3-.1.5 0 .6.3 0 0 1 3.4.7 3.4z" fill="#939"/><path d="m57.3 22.8c-.3.1-1.9-3-1.9-3-.1-.3 0-.5.3-.7.3-.1.5 0 .7.3-.1 0 1.1 3.3.9 3.4z" fill="#939"/><path d="m52 23.4c-.2.1-2-2.9-2-2.9-.1-.2 0-.5.2-.7.2-.1.5 0 .7.2 0 0 1.4 3.3 1.1 3.4z" fill="#939"/><path d="m54.6 22.3c-.3-.1.6-3.4.6-3.4.1-.3.4-.4.6-.3.3.1.4.4.3.6.1 0-1.2 3.1-1.5 3.1z" fill="#939"/><ellipse cx="54" cy="23.4" fill="#9c3" rx="3" ry="2.5"/><path d="m55.7 24.9c-.2-.2 2-3.3 2-3.3.2-.2.5-.3.8-.1.2.2.3.5.1.8-.1 0-2.7 2.7-2.9 2.6z" fill="#939"/><path d="m54.1 25.3c-.3-.1.7-3.5.7-3.5.1-.3.4-.4.6-.3.3.1.4.4.3.6.1.1-1.3 3.3-1.6 3.2z" fill="#939"/><path d="m53.7 23c-.3 0-.1-3.9-.1-3.9 0-.3.3-.5.6-.5.3 0 .5.3.5.6 0 0-.7 3.8-1 3.8z" fill="#939"/><path d="m53.2 21.7c-.3.1-1.6-3.1-1.6-3.1-.1-.3 0-.5.3-.6.3-.1.5 0 .6.3 0 0 1 3.4.7 3.4z" fill="#939"/><path d="m48 25.4c-.2.1-2-2.9-2-2.9-.1-.2 0-.5.2-.7.2-.1.5 0 .7.2 0 0 1.4 3.3 1.1 3.4z" fill="#939"/><path d="m50.6 24.3c-.3-.1.6-3.4.6-3.4.1-.3.4-.4.6-.3.3.1.4.4.3.6.1 0-1.2 3.1-1.5 3.1z" fill="#939"/><ellipse cx="50" cy="25.4" fill="#9c3" rx="3" ry="2.5"/><path d="m50.1 27.3c-.3-.1.7-3.5.7-3.5.1-.3.4-.4.6-.3.3.1.4.4.3.6.1.1-1.3 3.3-1.6 3.2z" fill="#939"/><path d="m52 24.8c-.2-.1 1-3 1-3 .1-.2.4-.3.6-.2.2.1.3.4.2.6 0 0-1.6 2.8-1.8 2.6z" fill="#939"/><path d="m49.7 25c-.3 0-.1-3.9-.1-3.9 0-.3.3-.5.6-.5.3 0 .5.3.5.6 0 0-.7 3.8-1 3.8z" fill="#939"/><path d="m49.2 23.7c-.3.1-1.6-3.1-1.6-3.1-.1-.3 0-.5.3-.6.3-.1.5 0 .6.3 0 0 1 3.4.7 3.4z" fill="#939"/><path d="m49.3 26.8c-.3.1-1.9-3-1.9-3-.1-.3 0-.5.3-.7.3-.1.5 0 .7.3-.1 0 1.1 3.3.9 3.4z" fill="#939"/><path d="m44 27.4c-.2.1-2-2.9-2-2.9-.1-.2 0-.5.2-.7.2-.1.5 0 .7.2 0 0 1.4 3.3 1.1 3.4z" fill="#939"/><ellipse cx="46" cy="27.4" fill="#9c3" rx="3" ry="2.5"/><path d="m47.7 28.9c-.2-.2 2-3.3 2-3.3.2-.2.5-.3.8-.1.2.2.3.5.1.8-.1 0-2.7 2.7-2.9 2.6z" fill="#939"/><path d="m46.1 29.3c-.3-.1.7-3.5.7-3.5.1-.3.4-.4.6-.3.3.1.4.4.3.6.1.1-1.3 3.3-1.6 3.2z" fill="#939"/><path d="m45.7 27c-.3 0-.1-3.9-.1-3.9 0-.3.3-.5.6-.5.3 0 .5.3.5.6 0 0-.7 3.8-1 3.8z" fill="#939"/><path d="m45.2 25.7c-.3.1-1.6-3.1-1.6-3.1-.1-.3 0-.5.3-.6.3-.1.5 0 .6.3 0 0 1 3.4.7 3.4z" fill="#939"/><path d="m45.3 28.8c-.3.1-1.9-3-1.9-3-.1-.3 0-.5.3-.7.3-.1.5 0 .7.3-.1 0 1.1 3.3.9 3.4z" fill="#939"/><ellipse cx="18" cy="17.4" fill="#9c3" rx="3" ry="2.5"/><path d="m19.7 18.9c-.2-.2 2-3.3 2-3.3.2-.2.5-.3.8-.1.2.2.3.5.1.8-.1 0-2.7 2.7-2.9 2.6z" fill="#939"/><path d="m18.1 19.3c-.3-.1.7-3.5.7-3.5.1-.3.4-.4.6-.3.3.1.4.4.3.6.1.1-1.3 3.3-1.6 3.2z" fill="#939"/><path d="m20 16.8c-.2-.1 1-3 1-3 .1-.2.4-.3.6-.2.2.1.3.4.2.6 0 0-1.6 2.8-1.8 2.6z" fill="#939"/><path d="m17.7 17c-.3 0-.1-3.9-.1-3.9 0-.3.3-.5.6-.5.3 0 .5.3.5.6 0 0-.7 3.8-1 3.8z" fill="#939"/><path d="m17.2 15.7c-.3.1-1.6-3.1-1.6-3.1-.1-.3 0-.5.3-.6.3-.1.5 0 .6.3 0 0 1 3.4.7 3.4z" fill="#939"/><path d="m14.6 18.3c-.3-.1.6-3.4.6-3.4.1-.3.4-.4.6-.3.3.1.4.4.3.6.1 0-1.2 3.1-1.5 3.1z" fill="#939"/><ellipse cx="14" cy="19.4" fill="#9c3" rx="3" ry="2.5"/><path d="m15.7 20.9c-.2-.2 2-3.3 2-3.3.2-.2.5-.3.8-.1.2.2.3.5.1.8-.1 0-2.7 2.7-2.9 2.6z" fill="#939"/><path d="m14.1 21.3c-.3-.1.7-3.5.7-3.5.1-.3.4-.4.6-.3.3.1.4.4.3.6.1.1-1.3 3.3-1.6 3.2z" fill="#939"/><path d="m16 18.8c-.2-.1 1-3 1-3 .1-.2.4-.3.6-.2.2.1.3.4.2.6 0 0-1.6 2.8-1.8 2.6z" fill="#939"/><path d="m13.7 19c-.3 0-.1-3.9-.1-3.9 0-.3.3-.5.6-.5.3 0 .5.3.5.6 0 0-.7 3.8-1 3.8z" fill="#939"/><path d="m13.2 17.7c-.3.1-1.6-3.1-1.6-3.1-.1-.3 0-.5.3-.6.3-.1.5 0 .6.3 0 0 1 3.4.7 3.4z" fill="#939"/><path d="m13.3 20.8c-.3.1-1.9-3-1.9-3-.1-.3 0-.5.3-.7.3-.1.5 0 .7.3-.1 0 1.1 3.3.9 3.4z" fill="#939"/><path d="m8 21.4c-.2.1-2-2.9-2-2.9-.1-.2 0-.5.2-.7.2-.1.5 0 .7.2 0 0 1.4 3.3 1.1 3.4z" fill="#939"/><path d="m10.6 20.3c-.3-.1.6-3.4.6-3.4.1-.3.4-.4.6-.3.3.1.4.4.3.6.1 0-1.2 3.1-1.5 3.1z" fill="#939"/><ellipse cx="10" cy="21.4" fill="#9c3" rx="3" ry="2.5"/><path d="m11.7 22.9c-.2-.2 2-3.3 2-3.3.2-.2.5-.3.8-.1.2.2.3.5.1.8-.1 0-2.7 2.7-2.9 2.6z" fill="#939"/><path d="m10.1 23.3c-.3-.1.7-3.5.7-3.5.1-.3.4-.4.6-.3.3.1.4.4.3.6.1.1-1.3 3.3-1.6 3.2z" fill="#939"/><path d="m9.7 21c-.3 0-.1-3.9-.1-3.9 0-.3.3-.5.6-.5.3 0 .5.3.5.6 0 0-.7 3.8-1 3.8z" fill="#939"/><path d="m9.2 19.7c-.3.1-1.6-3.1-1.6-3.1-.1-.3 0-.5.3-.6.3-.1.5 0 .6.3 0 0 1 3.4.7 3.4z" fill="#939"/><path d="m9.3 22.8c-.3.1-1.9-3-1.9-3-.1-.3 0-.5.3-.7.3-.1.5 0 .7.3-.1 0 1.1 3.3.9 3.4z" fill="#939"/><path d="m4 23.4c-.2.1-2-2.9-2-2.9-.1-.2 0-.5.2-.7.2-.1.5 0 .7.2 0 0 1.4 3.3 1.1 3.4z" fill="#939"/><ellipse cx="6" cy="23.4" fill="#9c3" rx="3" ry="2.5"/><path d="m6.1 25.3c-.3-.1.7-3.5.7-3.5.1-.3.4-.4.6-.3.3.1.4.4.3.6.1.1-1.3 3.3-1.6 3.2z" fill="#939"/><path d="m8 22.8c-.2-.1 1-3 1-3 .1-.2.4-.3.6-.2.2.1.3.4.2.6 0 0-1.6 2.8-1.8 2.6z" fill="#939"/><path d="m5.7 23c-.3 0-.1-3.9-.1-3.9 0-.3.3-.5.6-.5.3 0 .5.3.5.6 0 0-.7 3.8-1 3.8z" fill="#939"/><path d="m4.6 25.4c-.2.2-2.9-2-2.9-2-.2-.2-.2-.5 0-.7.2-.2.5-.2.7 0 0 0 2.4 2.5 2.2 2.7z" fill="#939"/><path d="m5.2 21.7c-.3.1-1.6-3.1-1.6-3.1-.1-.3 0-.5.3-.6.3-.1.5 0 .6.3 0 0 1 3.4.7 3.4z" fill="#939"/><path d="m5.3 24.8c-.3.1-1.9-3-1.9-3-.1-.3 0-.5.3-.7.3-.1.5 0 .7.3-.1 0 1.1 3.3.9 3.4z" fill="#939"/><path d="m26.6 20.3c-.3-.1.6-3.4.6-3.4.1-.3.4-.4.6-.3.3.1.4.4.3.6.1 0-1.2 3.1-1.5 3.1z" fill="#939"/><ellipse cx="26" cy="21.4" fill="#9c3" rx="3" ry="2.5"/><path d="m27.7 22.9c-.2-.2 2-3.3 2-3.3.2-.2.5-.3.8-.1.2.2.3.5.1.8-.1 0-2.7 2.7-2.9 2.6z" fill="#939"/><path d="m26.1 23.3c-.3-.1.7-3.5.7-3.5.1-.3.4-.4.6-.3.3.1.4.4.3.6.1.1-1.3 3.3-1.6 3.2z" fill="#939"/><path d="m28 20.8c-.2-.1 1-3 1-3 .1-.2.4-.3.6-.2.2.1.3.4.2.6 0 0-1.6 2.8-1.8 2.6z" fill="#939"/><path d="m25.7 21c-.3 0-.1-3.9-.1-3.9 0-.3.3-.5.6-.5.3 0 .5.3.5.6 0 0-.7 3.8-1 3.8z" fill="#939"/><path d="m25.2 19.7c-.3.1-1.6-3.1-1.6-3.1-.1-.3 0-.5.3-.6.3-.1.5 0 .6.3 0 0 1 3.4.7 3.4z" fill="#939"/><path d="m25.3 22.8c-.3.1-1.9-3-1.9-3-.1-.3 0-.5.3-.7.3-.1.5 0 .7.3-.1 0 1.1 3.3.9 3.4z" fill="#939"/><path d="m20 23.4c-.2.1-2-2.9-2-2.9-.1-.2 0-.5.2-.7.2-.1.5 0 .7.2 0 0 1.4 3.3 1.1 3.4z" fill="#939"/><path d="m22.6 22.3c-.3-.1.6-3.4.6-3.4.1-.3.4-.4.6-.3.3.1.4.4.3.6.1 0-1.2 3.1-1.5 3.1z" fill="#939"/><ellipse cx="22" cy="23.4" fill="#9c3" rx="3" ry="2.5"/><path d="m23.7 24.9c-.2-.2 2-3.3 2-3.3.2-.2.5-.3.8-.1.2.2.3.5.1.8-.1 0-2.7 2.7-2.9 2.6z" fill="#939"/><path d="m22.1 25.3c-.3-.1.7-3.5.7-3.5.1-.3.4-.4.6-.3.3.1.4.4.3.6.1.1-1.3 3.3-1.6 3.2z" fill="#939"/><path d="m21.7 23c-.3 0-.1-3.9-.1-3.9 0-.3.3-.5.6-.5.3 0 .5.3.5.6 0 0-.7 3.8-1 3.8z" fill="#939"/><path d="m21.2 21.7c-.3.1-1.6-3.1-1.6-3.1-.1-.3 0-.5.3-.6.3-.1.5 0 .6.3 0 0 1 3.4.7 3.4z" fill="#939"/><path d="m16 25.4c-.2.1-2-2.9-2-2.9-.1-.2 0-.5.2-.7.2-.1.5 0 .7.2 0 0 1.4 3.3 1.1 3.4z" fill="#939"/><path d="m18.6 24.3c-.3-.1.6-3.4.6-3.4.1-.3.4-.4.6-.3.3.1.4.4.3.6.1 0-1.2 3.1-1.5 3.1z" fill="#939"/><ellipse cx="18" cy="25.4" fill="#9c3" rx="3" ry="2.5"/><path d="m18.1 27.3c-.3-.1.7-3.5.7-3.5.1-.3.4-.4.6-.3.3.1.4.4.3.6.1.1-1.3 3.3-1.6 3.2z" fill="#939"/><path d="m20 24.8c-.2-.1 1-3 1-3 .1-.2.4-.3.6-.2.2.1.3.4.2.6 0 0-1.6 2.8-1.8 2.6z" fill="#939"/><path d="m17.7 25c-.3 0-.1-3.9-.1-3.9 0-.3.3-.5.6-.5.3 0 .5.3.5.6 0 0-.7 3.8-1 3.8z" fill="#939"/><path d="m17.2 23.7c-.3.1-1.6-3.1-1.6-3.1-.1-.3 0-.5.3-.6.3-.1.5 0 .6.3 0 0 1 3.4.7 3.4z" fill="#939"/><path d="m17.3 26.8c-.3.1-1.9-3-1.9-3-.1-.3 0-.5.3-.7.3-.1.5 0 .7.3-.1 0 1.1 3.3.9 3.4z" fill="#939"/><path d="m12 27.4c-.2.1-2-2.9-2-2.9-.1-.2 0-.5.2-.7.2-.1.5 0 .7.2 0 0 1.4 3.3 1.1 3.4z" fill="#939"/><ellipse cx="14" cy="27.4" fill="#9c3" rx="3" ry="2.5"/><path d="m15.7 28.9c-.2-.2 2-3.3 2-3.3.2-.2.5-.3.8-.1.2.2.3.5.1.8-.1 0-2.7 2.7-2.9 2.6z" fill="#939"/><path d="m14.1 29.3c-.3-.1.7-3.5.7-3.5.1-.3.4-.4.6-.3.3.1.4.4.3.6.1.1-1.3 3.3-1.6 3.2z" fill="#939"/><path d="m13.7 27c-.3 0-.1-3.9-.1-3.9 0-.3.3-.5.6-.5.3 0 .5.3.5.6 0 0-.7 3.8-1 3.8z" fill="#939"/><path d="m12.6 29.4c-.2.2-2.9-2-2.9-2-.2-.2-.2-.5 0-.7.2-.2.5-.2.7 0 0 0 2.4 2.5 2.2 2.7z" fill="#939"/><path d="m13.2 25.7c-.3.1-1.6-3.1-1.6-3.1-.1-.3 0-.5.3-.6.3-.1.5 0 .6.3 0 0 1 3.4.7 3.4z" fill="#939"/><path d="m13.3 28.8c-.3.1-1.9-3-1.9-3-.1-.3 0-.5.3-.7.3-.1.5 0 .7.3-.1 0 1.1 3.3.9 3.4z" fill="#939"/><path d="m32 25.4c-.2.1-2-2.9-2-2.9-.1-.2 0-.5.2-.7.2-.1.5 0 .7.2 0 0 1.4 3.3 1.1 3.4z" fill="#939"/><ellipse cx="34" cy="25.4" fill="#9c3" rx="3" ry="2.5"/><path d="m35.7 26.9c-.2-.2 2-3.3 2-3.3.2-.2.5-.3.8-.1.2.2.3.5.1.8-.1 0-2.7 2.7-2.9 2.6z" fill="#939"/><path d="m34.1 27.3c-.3-.1.7-3.5.7-3.5.1-.3.4-.4.6-.3.3.1.4.4.3.6.1.1-1.3 3.3-1.6 3.2z" fill="#939"/><path d="m36 24.8c-.2-.1 1-3 1-3 .1-.2.4-.3.6-.2.2.1.3.4.2.6 0 0-1.6 2.8-1.8 2.6z" fill="#939"/><path d="m33.7 25c-.3 0-.1-3.9-.1-3.9 0-.3.3-.5.6-.5.3 0 .5.3.5.6 0 0-.7 3.8-1 3.8z" fill="#939"/><path d="m33.2 23.7c-.3.1-1.6-3.1-1.6-3.1-.1-.3 0-.5.3-.6.3-.1.5 0 .6.3 0 0 1 3.4.7 3.4z" fill="#939"/><path d="m30.6 26.3c-.3-.1.6-3.4.6-3.4.1-.3.4-.4.6-.3.3.1.4.4.3.6.1 0-1.2 3.1-1.5 3.1z" fill="#939"/><ellipse cx="30" cy="27.4" fill="#9c3" rx="3" ry="2.5"/><path d="m31.7 28.9c-.2-.2 2-3.3 2-3.3.2-.2.5-.3.8-.1.2.2.3.5.1.8-.1 0-2.7 2.7-2.9 2.6z" fill="#939"/><path d="m30.1 29.3c-.3-.1.7-3.5.7-3.5.1-.3.4-.4.6-.3.3.1.4.4.3.6.1.1-1.3 3.3-1.6 3.2z" fill="#939"/><path d="m32 26.8c-.2-.1 1-3 1-3 .1-.2.4-.3.6-.2.2.1.3.4.2.6 0 0-1.6 2.8-1.8 2.6z" fill="#939"/><path d="m29.7 27c-.3 0-.1-3.9-.1-3.9 0-.3.3-.5.6-.5.3 0 .5.3.5.6 0 0-.7 3.8-1 3.8z" fill="#939"/><path d="m29.2 25.7c-.3.1-1.6-3.1-1.6-3.1-.1-.3 0-.5.3-.6.3-.1.5 0 .6.3 0 0 1 3.4.7 3.4z" fill="#939"/><path d="m29.3 28.8c-.3.1-1.9-3-1.9-3-.1-.3 0-.5.3-.7.3-.1.5 0 .7.3-.1 0 1.1 3.3.9 3.4z" fill="#939"/><path d="m24 29.4c-.2.1-2-2.9-2-2.9-.1-.2 0-.5.2-.7.2-.1.5 0 .7.2 0 0 1.4 3.3 1.1 3.4z" fill="#939"/><path d="m26.6 28.3c-.3-.1.6-3.4.6-3.4.1-.3.4-.4.6-.3.3.1.4.4.3.6.1 0-1.2 3.1-1.5 3.1z" fill="#939"/><ellipse cx="26" cy="29.4" fill="#9c3" rx="3" ry="2.5"/><path d="m27.7 30.9c-.2-.2 2-3.3 2-3.3.2-.2.5-.3.8-.1.2.2.3.5.1.8-.1 0-2.7 2.7-2.9 2.6z" fill="#939"/><path d="m26.1 31.3c-.3-.1.7-3.5.7-3.5.1-.3.4-.4.6-.3.3.1.4.4.3.6.1.1-1.3 3.3-1.6 3.2z" fill="#939"/><path d="m28 28.8c-.2-.1 1-3 1-3 .1-.2.4-.3.6-.2.2.1.3.4.2.6 0 0-1.6 2.8-1.8 2.6z" fill="#939"/><path d="m25.7 29c-.3 0-.1-3.9-.1-3.9 0-.3.3-.5.6-.5.3 0 .5.3.5.6 0 0-.7 3.8-1 3.8z" fill="#939"/><path d="m25.2 27.7c-.3.1-1.6-3.1-1.6-3.1-.1-.3 0-.5.3-.6.3-.1.5 0 .6.3 0 0 1 3.4.7 3.4z" fill="#939"/><path d="m25.3 30.8c-.3.1-1.9-3-1.9-3-.1-.3 0-.5.3-.7.3-.1.5 0 .7.3-.1 0 1.1 3.3.9 3.4z" fill="#939"/><path d="m20 31.4c-.2.1-2-2.9-2-2.9-.1-.2 0-.5.2-.7.2-.1.5 0 .7.2 0 0 1.4 3.3 1.1 3.4z" fill="#939"/><ellipse cx="22" cy="31.4" fill="#9c3" rx="3" ry="2.5"/><path d="m22.1 33.3c-.3-.1.7-3.5.7-3.5.1-.3.4-.4.6-.3.3.1.4.4.3.6.1.1-1.3 3.3-1.6 3.2z" fill="#939"/><path d="m24 30.8c-.2-.1 1-3 1-3 .1-.2.4-.3.6-.2.2.1.3.4.2.6 0 0-1.6 2.8-1.8 2.6z" fill="#939"/><path d="m21.7 31c-.3 0-.1-3.9-.1-3.9 0-.3.3-.5.6-.5.3 0 .5.3.5.6 0 0-.7 3.8-1 3.8z" fill="#939"/><path d="m20.6 33.4c-.2.2-2.9-2-2.9-2-.2-.2-.2-.5 0-.7.2-.2.5-.2.7 0 0 0 2.4 2.5 2.2 2.7z" fill="#939"/><path d="m21.2 29.7c-.3.1-1.6-3.1-1.6-3.1-.1-.3 0-.5.3-.6.3-.1.5 0 .6.3 0 0 1 3.4.7 3.4z" fill="#939"/><path d="m21.3 32.8c-.3.1-1.9-3-1.9-3-.1-.3 0-.5.3-.7.3-.1.5 0 .7.3-.1 0 1.1 3.3.9 3.4z" fill="#939"/><ellipse cx="42" cy="29.4" fill="#9c3" rx="3" ry="2.5"/><path d="m43.7 30.9c-.2-.2 2-3.3 2-3.3.2-.2.5-.3.8-.1.2.2.3.5.1.8-.1 0-2.7 2.7-2.9 2.6z" fill="#939"/><path d="m42.1 31.3c-.3-.1.7-3.5.7-3.5.1-.3.4-.4.6-.3.3.1.4.4.3.6.1.1-1.3 3.3-1.6 3.2z" fill="#939"/><path d="m44 28.8c-.2-.1 1-3 1-3 .1-.2.4-.3.6-.2.2.1.3.4.2.6 0 0-1.6 2.8-1.8 2.6z" fill="#939"/><path d="m41.7 29c-.3 0-.1-3.9-.1-3.9 0-.3.3-.5.6-.5.3 0 .5.3.5.6 0 0-.7 3.8-1 3.8z" fill="#939"/><path d="m41.2 27.7c-.3.1-1.6-3.1-1.6-3.1-.1-.3 0-.5.3-.6.3-.1.5 0 .6.3 0 0 1 3.4.7 3.4z" fill="#939"/><path d="m41.3 30.8c-.3.1-1.9-3-1.9-3-.1-.3 0-.5.3-.7.3-.1.5 0 .7.3-.1 0 1.1 3.3.9 3.4z" fill="#939"/><path d="m36 31.4c-.2.1-2-2.9-2-2.9-.1-.2 0-.5.2-.7.2-.1.5 0 .7.2 0 0 1.4 3.3 1.1 3.4z" fill="#939"/><path d="m38.6 30.3c-.3-.1.6-3.4.6-3.4.1-.3.4-.4.6-.3.3.1.4.4.3.6.1 0-1.2 3.1-1.5 3.1z" fill="#939"/><ellipse cx="38" cy="31.4" fill="#9c3" rx="3" ry="2.5"/><path d="m39.7 32.9c-.2-.2 2-3.3 2-3.3.2-.2.5-.3.8-.1.2.2.3.5.1.8-.1 0-2.7 2.7-2.9 2.6z" fill="#939"/><path d="m38.1 33.3c-.3-.1.7-3.5.7-3.5.1-.3.4-.4.6-.3.3.1.4.4.3.6.1.1-1.3 3.3-1.6 3.2z" fill="#939"/><path d="m37.7 31c-.3 0-.1-3.9-.1-3.9 0-.3.3-.5.6-.5.3 0 .5.3.5.6 0 0-.7 3.8-1 3.8z" fill="#939"/><path d="m37.2 29.7c-.3.1-1.6-3.1-1.6-3.1-.1-.3 0-.5.3-.6.3-.1.5 0 .6.3 0 0 1 3.4.7 3.4z" fill="#939"/><path d="m32 33.4c-.2.1-2-2.9-2-2.9-.1-.2 0-.5.2-.7.2-.1.5 0 .7.2 0 0 1.4 3.3 1.1 3.4z" fill="#939"/><path d="m34.6 32.3c-.3-.1.6-3.4.6-3.4.1-.3.4-.4.6-.3.3.1.4.4.3.6.1 0-1.2 3.1-1.5 3.1z" fill="#939"/><ellipse cx="34" cy="33.4" fill="#9c3" rx="3" ry="2.5"/><path d="m34.1 35.3c-.3-.1.7-3.5.7-3.5.1-.3.4-.4.6-.3.3.1.4.4.3.6.1.1-1.3 3.3-1.6 3.2z" fill="#939"/><path d="m36 32.8c-.2-.1 1-3 1-3 .1-.2.4-.3.6-.2.2.1.3.4.2.6 0 0-1.6 2.8-1.8 2.6z" fill="#939"/><path d="m33.7 33c-.3 0-.1-3.9-.1-3.9 0-.3.3-.5.6-.5.3 0 .5.3.5.6 0 0-.7 3.8-1 3.8z" fill="#939"/><path d="m33.2 31.7c-.3.1-1.6-3.1-1.6-3.1-.1-.3 0-.5.3-.6.3-.1.5 0 .6.3 0 0 1 3.4.7 3.4z" fill="#939"/><path d="m33.3 34.8c-.3.1-1.9-3-1.9-3-.1-.3 0-.5.3-.7.3-.1.5 0 .7.3-.1 0 1.1 3.3.9 3.4z" fill="#939"/><path d="m28 35.4c-.2.1-2-2.9-2-2.9-.1-.2 0-.5.2-.7.2-.1.5 0 .7.2 0 0 1.4 3.3 1.1 3.4z" fill="#939"/><ellipse cx="30" cy="35.4" fill="#9c3" rx="3" ry="2.5"/><path d="m31.7 36.9c-.2-.2 2-3.3 2-3.3.2-.2.5-.3.8-.1.2.2.3.5.1.8-.1 0-2.7 2.7-2.9 2.6z" fill="#939"/><path d="m30.1 37.3c-.3-.1.7-3.5.7-3.5.1-.3.4-.4.6-.3.3.1.4.4.3.6.1.1-1.3 3.3-1.6 3.2z" fill="#939"/><path d="m29.7 35c-.3 0-.1-3.9-.1-3.9 0-.3.3-.5.6-.5.3 0 .5.3.5.6 0 0-.7 3.8-1 3.8z" fill="#939"/><path d="m28.6 37.4c-.2.2-2.9-2-2.9-2-.2-.2-.2-.5 0-.7.2-.2.5-.2.7 0 0 0 2.4 2.5 2.2 2.7z" fill="#939"/><path d="m29.2 33.7c-.3.1-1.6-3.1-1.6-3.1-.1-.3 0-.5.3-.6.3-.1.5 0 .6.3 0 0 1 3.4.7 3.4z" fill="#939"/><path d="m29.3 36.8c-.3.1-1.9-3-1.9-3-.1-.3 0-.5.3-.7.3-.1.5 0 .7.3-.1 0 1.1 3.3.9 3.4z" fill="#939"/></svg>