<svg xmlns:xlink="http://www.w3.org/1999/xlink"  enable-background="new 0 0 32 24" height="24" viewBox="0 0 32 24" width="32" xmlns="http://www.w3.org/2000/svg"><path d="m16 9.4c-.2.1-2-2.9-2-2.9-.1-.2 0-.5.2-.7.2-.1.5 0 .7.2 0 0 1.4 3.3 1.1 3.4z" fill="#939"/><path d="m18.6 8.3c-.3-.1.6-3.4.6-3.4.1-.3.4-.4.6-.3.3.1.4.4.3.6.1 0-1.2 3.1-1.5 3.1z" fill="#939"/><ellipse cx="18" cy="9.4" fill="#9c3" rx="3" ry="2.5"/><path d="m19.7 10.9c-.2-.2 2-3.3 2-3.3.2-.2.5-.3.8-.1.2.2.3.5.1.8-.1 0-2.7 2.7-2.9 2.6z" fill="#939"/><path d="m18.1 11.3c-.3-.1.7-3.5.7-3.5.1-.3.4-.4.6-.3.3.1.4.4.3.6.1.1-1.3 3.3-1.6 3.2z" fill="#939"/><path d="m20 8.8c-.2-.1 1-3 1-3 .1-.2.4-.3.6-.2.2.1.3.4.2.6 0 0-1.6 2.8-1.8 2.6z" fill="#939"/><path d="m17.7 9c-.3 0-.1-3.9-.1-3.9 0-.3.3-.5.6-.5.3 0 .5.3.5.6 0 0-.7 3.8-1 3.8z" fill="#939"/><path d="m17.2 7.7c-.3.1-1.6-3.1-1.6-3.1-.1-.3 0-.5.3-.6.3-.1.5 0 .6.3 0 0 1 3.4.7 3.4z" fill="#939"/><path d="m14.6 10.3c-.3-.1.6-3.4.6-3.4.1-.3.4-.4.6-.3.3.1.4.4.3.6.1 0-1.2 3.1-1.5 3.1z" fill="#939"/><ellipse cx="14" cy="11.4" fill="#9c3" rx="3" ry="2.5"/><g fill="#939"><path d="m15.7 12.9c-.2-.2 2-3.3 2-3.3.2-.2.5-.3.8-.1.2.2.3.5.1.8-.1 0-2.7 2.7-2.9 2.6z"/><path d="m14.1 13.3c-.3-.1.7-3.5.7-3.5.1-.3.4-.4.6-.3.3.1.4.4.3.6.1.1-1.3 3.3-1.6 3.2z"/><path d="m16 10.8c-.2-.1 1-3 1-3 .1-.2.4-.3.6-.2.2.1.3.4.2.6 0 0-1.6 2.8-1.8 2.6z"/><path d="m13.7 11c-.3 0-.1-3.9-.1-3.9 0-.3.3-.5.6-.5.3 0 .5.3.5.6 0 0-.7 3.8-1 3.8z"/><path d="m13.2 9.7c-.3.1-1.6-3.1-1.6-3.1-.1-.3 0-.5.3-.6.3-.1.5 0 .6.3 0 0 1 3.4.7 3.4z"/><path d="m13.3 12.8c-.3.1-1.9-3-1.9-3-.1-.3 0-.5.3-.7.3-.1.5 0 .7.3-.1 0 1.1 3.3.9 3.4z"/><path d="m8 13.4c-.2.1-2-2.9-2-2.9-.1-.2 0-.5.2-.7.2-.1.5 0 .7.2 0 0 1.4 3.3 1.1 3.4z"/><path d="m10.6 12.3c-.3-.1.6-3.4.6-3.4.1-.3.4-.4.6-.3.3.1.4.4.3.6.1 0-1.2 3.1-1.5 3.1z"/></g><ellipse cx="10" cy="13.4" fill="#9c3" rx="3" ry="2.5"/><path d="m11.7 14.9c-.2-.2 2-3.3 2-3.3.2-.2.5-.3.8-.1.2.2.3.5.1.8-.1 0-2.7 2.7-2.9 2.6z" fill="#939"/><path d="m10.1 15.3c-.3-.1.7-3.5.7-3.5.1-.3.4-.4.6-.3.3.1.4.4.3.6.1.1-1.3 3.3-1.6 3.2z" fill="#939"/><path d="m12 12.8c-.2-.1 1-3 1-3 .1-.2.4-.3.6-.2.2.1.3.4.2.6 0 0-1.6 2.8-1.8 2.6z" fill="#939"/><path d="m9.7 13c-.3 0-.1-3.9-.1-3.9 0-.3.3-.5.6-.5.3 0 .5.3.5.6 0 0-.7 3.8-1 3.8z" fill="#939"/><path d="m9.2 11.7c-.2.1-1.6-3-1.6-3-.1-.3.1-.6.3-.7.3-.1.5 0 .6.3 0 0 1 3.4.7 3.4z" fill="#939"/><path d="m9.3 14.8c-.3.1-1.9-3-1.9-3-.1-.3 0-.5.3-.7.3-.1.5 0 .7.3-.1 0 1.1 3.3.9 3.4z" fill="#939"/><path d="m4 15.4c-.2.1-2-2.9-2-2.9-.1-.2 0-.5.2-.7.2-.1.5 0 .7.2 0 0 1.4 3.3 1.1 3.4z" fill="#939"/><ellipse cx="6" cy="15.4" fill="#9c3" rx="3" ry="2.5"/><path d="m6.1 17.3c-.3-.1.7-3.5.7-3.5.1-.3.4-.4.6-.3.3.1.4.4.3.6.1.1-1.3 3.3-1.6 3.2z" fill="#939"/><path d="m8 14.8c-.2-.1 1-3 1-3 .1-.2.4-.3.6-.2.2.1.3.4.2.6 0 0-1.6 2.8-1.8 2.6z" fill="#939"/><path d="m5.7 15c-.3 0-.1-3.9-.1-3.9 0-.3.3-.5.6-.5.3 0 .5.3.5.6 0 0-.7 3.8-1 3.8z" fill="#939"/><path d="m4.6 17.4c-.2.2-2.9-2-2.9-2-.2-.2-.2-.5 0-.7.2-.2.5-.2.7 0 0 0 2.4 2.5 2.2 2.7z" fill="#939"/><path d="m5.2 13.7c-.3.1-1.6-3.1-1.6-3.1-.1-.3 0-.5.3-.6.3-.1.5 0 .6.3 0 0 1 3.4.7 3.4z" fill="#939"/><path d="m5.3 16.8c-.3.1-1.9-3-1.9-3-.1-.3 0-.5.3-.7.3-.1.5 0 .7.3-.1 0 1.1 3.3.9 3.4z" fill="#939"/><path d="m26.6 12.3c-.3-.1.6-3.4.6-3.4.1-.3.4-.4.6-.3.3.1.4.4.3.6.1 0-1.2 3.1-1.5 3.1z" fill="#939"/><ellipse cx="26" cy="13.4" fill="#9c3" rx="3" ry="2.5"/><path d="m27.7 14.9c-.2-.2 2-3.3 2-3.3.2-.2.5-.3.8-.1.2.2.3.5.1.8-.1 0-2.7 2.7-2.9 2.6z" fill="#939"/><path d="m26.1 15.3c-.3-.1.7-3.5.7-3.5.1-.3.4-.4.6-.3.3.1.4.4.3.6.1.1-1.3 3.3-1.6 3.2z" fill="#939"/><path d="m28 12.8c-.2-.1 1-3 1-3 .1-.2.4-.3.6-.2.2.1.3.4.2.6 0 0-1.6 2.8-1.8 2.6z" fill="#939"/><path d="m25.7 13c-.3 0-.1-3.9-.1-3.9 0-.3.3-.5.6-.5.3 0 .5.3.5.6 0 0-.7 3.8-1 3.8z" fill="#939"/><path d="m25.2 11.7c-.3.1-1.6-3.1-1.6-3.1-.1-.3 0-.5.3-.6.3-.1.5 0 .6.3 0 0 1 3.4.7 3.4z" fill="#939"/><path d="m25.3 14.8c-.3.1-1.9-3-1.9-3-.1-.3 0-.5.3-.7.3-.1.5 0 .7.3-.1 0 1.1 3.3.9 3.4z" fill="#939"/><path d="m20 15.4c-.2.1-2-2.9-2-2.9-.1-.2 0-.5.2-.7.2-.1.5 0 .7.2 0 0 1.4 3.3 1.1 3.4z" fill="#939"/><path d="m22.6 14.3c-.3-.1.6-3.4.6-3.4.1-.3.4-.4.6-.3.3.1.4.4.3.6.1 0-1.2 3.1-1.5 3.1z" fill="#939"/><ellipse cx="22" cy="15.4" fill="#9c3" rx="3" ry="2.5"/><path d="m23.7 16.9c-.2-.2 2-3.3 2-3.3.2-.2.5-.3.8-.1.2.2.3.5.1.8-.1 0-2.7 2.7-2.9 2.6z" fill="#939"/><path d="m22.1 17.3c-.3-.1.7-3.5.7-3.5.1-.3.4-.4.6-.3.3.1.4.4.3.6.1.1-1.3 3.3-1.6 3.2z" fill="#939"/><path d="m21.7 15c-.3 0-.1-3.9-.1-3.9 0-.3.3-.5.6-.5.3 0 .5.3.5.6 0 0-.7 3.8-1 3.8z" fill="#939"/><path d="m21.2 13.7c-.3.1-1.6-3.1-1.6-3.1-.1-.3 0-.5.3-.6.3-.1.5 0 .6.3 0 0 1 3.4.7 3.4z" fill="#939"/><path d="m16 17.4c-.2.1-2-2.9-2-2.9-.1-.2 0-.5.2-.7.2-.1.5 0 .7.2 0 0 1.4 3.3 1.1 3.4z" fill="#939"/><path d="m18.6 16.3c-.3-.1.6-3.4.6-3.4.1-.3.4-.4.6-.3.3.1.4.4.3.6.1 0-1.2 3.1-1.5 3.1z" fill="#939"/><ellipse cx="18" cy="17.4" fill="#9c3" rx="3" ry="2.5"/><path d="m18.1 19.3c-.3-.1.7-3.5.7-3.5.1-.3.4-.4.6-.3.3.1.4.4.3.6.1.1-1.3 3.3-1.6 3.2z" fill="#939"/><path d="m20 16.8c-.2-.1 1-3 1-3 .1-.2.4-.3.6-.2.2.1.3.4.2.6 0 0-1.6 2.8-1.8 2.6z" fill="#939"/><path d="m17.7 17c-.3 0-.1-3.9-.1-3.9 0-.3.3-.5.6-.5.3 0 .5.3.5.6 0 0-.7 3.8-1 3.8z" fill="#939"/><path d="m17.2 15.7c-.3.1-1.6-3.1-1.6-3.1-.1-.3 0-.5.3-.6.3-.1.5 0 .6.3 0 0 1 3.4.7 3.4z" fill="#939"/><path d="m17.3 18.8c-.3.1-1.9-3-1.9-3-.1-.3 0-.5.3-.7.3-.1.5 0 .7.3-.1 0 1.1 3.3.9 3.4z" fill="#939"/><path d="m12 19.4c-.2.1-2-2.9-2-2.9-.1-.2 0-.5.2-.7.2-.1.5 0 .7.2 0 0 1.4 3.3 1.1 3.4z" fill="#939"/><ellipse cx="14" cy="19.4" fill="#9c3" rx="3" ry="2.5"/><path d="m15.7 20.9c-.2-.2 2-3.3 2-3.3.2-.2.5-.3.8-.1.2.2.3.5.1.8-.1 0-2.7 2.7-2.9 2.6z" fill="#939"/><path d="m14.1 21.3c-.3-.1.7-3.5.7-3.5.1-.3.4-.4.6-.3.3.1.4.4.3.6.1.1-1.3 3.3-1.6 3.2z" fill="#939"/><path d="m13.7 19c-.3 0-.1-3.9-.1-3.9 0-.3.3-.5.6-.5.3 0 .5.3.5.6 0 0-.7 3.8-1 3.8z" fill="#939"/><path d="m12.6 21.4c-.2.2-2.9-2-2.9-2-.2-.2-.2-.5 0-.7.2-.2.5-.2.7 0 0 0 2.4 2.5 2.2 2.7z" fill="#939"/><path d="m13.2 17.7c-.3.1-1.6-3.1-1.6-3.1-.1-.3 0-.5.3-.6.3-.1.5 0 .6.3 0 0 1 3.4.7 3.4z" fill="#939"/><path d="m13.3 20.8c-.3.1-1.9-3-1.9-3-.1-.3 0-.5.3-.7.3-.1.5 0 .7.3-.1 0 1.1 3.3.9 3.4z" fill="#939"/></svg>