<svg xmlns:xlink="http://www.w3.org/1999/xlink"  enable-background="new 0 0 16 8" height="8" viewBox="0 0 16 8" width="16" xmlns="http://www.w3.org/2000/svg"><path d="m6 5.4c-.2.1-2-2.9-2-2.9-.1-.3 0-.6.2-.7.2-.1.5 0 .7.2 0 0 1.4 3.3 1.1 3.4z" fill="#939"/><path d="m8.6 4.3c-.2-.1.7-3.5.7-3.5.1-.3.4-.4.6-.3.3.1.4.4.3.6 0 .1-1.3 3.2-1.6 3.2z" fill="#939"/><ellipse cx="8" cy="5.4" fill="#9c3" rx="3" ry="2.5"/><g fill="#939"><path d="m9.7 6.9c-.2-.2 2-3.3 2-3.3.2-.2.5-.3.8-.1.2.2.3.5.1.8-.1 0-2.7 2.7-2.9 2.6z"/><path d="m8.1 7.3c-.2-.1.7-3.4.7-3.4.1-.3.4-.4.6-.3.3.1.5.4.4.6 0 0-1.4 3.2-1.7 3.1z"/><path d="m10 4.8c-.2-.1 1-3 1-3 .1-.2.4-.3.6-.2.2.1.3.4.2.6 0 0-1.6 2.8-1.8 2.6z"/><path d="m7.7 5c-.3 0-.1-3.9-.1-3.9 0-.3.3-.5.6-.5.3 0 .5.3.5.6 0 0-.7 3.8-1 3.8z"/><path d="m6.6 7.4c-.2.2-2.9-2-2.9-2-.2-.2-.2-.5 0-.7.2-.2.5-.2.7 0 0 0 2.4 2.5 2.2 2.7z"/><path d="m7.2 3.7c-.2.1-1.6-3-1.6-3-.1-.3.1-.6.3-.7.3-.1.5 0 .6.3 0 0 1 3.4.7 3.4z"/><path d="m7.3 6.8c-.3.1-1.9-3-1.9-3-.1-.3 0-.5.3-.7.3-.1.5 0 .7.3-.1 0 1.1 3.3.9 3.4z"/></g></svg>