<svg xmlns:xlink="http://www.w3.org/1999/xlink"  enable-background="new 0 0 160 160" height="160" viewBox="0 0 160 160" width="160" xmlns="http://www.w3.org/2000/svg"><path d="m104.4 144.9c15.3-7.1 48.2-19.3 27.1-34.2-19.8-13.9-49.3 2.2-64.3 9-22.1 10-44.6 24.1-32.1 33.1 12.9 9.3 40.5 5.5 69.3-7.9z" opacity=".2"/><path d="m127.6 4.9c-3.3.2-4 6.8-3.4 10.7s9.6-2.7 9.1-5.4c-.6-2.8-3-5.5-5.7-5.3z" fill="#cd9a83"/><path d="m127.6 4.9c-3.3.2-4 6.8-3.4 10.7s9.6-2.7 9.1-5.4c-.6-2.8-3-5.5-5.7-5.3z" opacity=".15"/><path d="m94.8 79.7s2.4 22.4 2.1 27.7-1.4 10.4 1.4 12.1c2.7 1.7 11.8.8 12.4-3.3s-4.7-5.7-4.7-5.7 2.3-27.5 3.3-33.9c1.1-6.4-14.5 3.1-14.5 3.1z" fill="#cd9a83"/><path d="m94.8 79.7s2.4 22.4 2.1 27.7-1.4 10.4 1.4 12.1c2.7 1.7 11.8.8 12.4-3.3s-4.7-5.7-4.7-5.7 2.3-27.5 3.3-33.9c1.1-6.4-14.5 3.1-14.5 3.1z" opacity=".15"/><path d="m147.1 11.3c-.7-.4-6.4-3.9-14-1.8-8.8 2.4-17.6 7.2-21.6 9.8s-7.7 9.2-16.7 11.8-38.8 6.1-54.8 15.5-11.1 23.6-9.8 34.2 3.5 26.9 1.8 34.7-2.6 7.4-.7 16.6-.7 16.3 4.7 16.4 11.8-1.1 11.4-5.6-5.1-3.8-5.1-3.8-3.9-5.6-2-11.6 10.8-30.3 10.8-30.3 4.5 13.2 3.5 21.3-3.8 9-2.6 14.2 3.6 9.5 4 16.4c.4 7 5.3 7.1 10.3 5.5 4.9-1.5 8-4 4.9-8.4-2.4-3.4-5.8-1.1-6.8-1.8s-1.8-8.8-1-11.7 8.5-22.4 10-30.8 2.6-17 2.6-17 6.7.9 17-2c10.4-2.9 20.6-6.3 22.2-1s4.9 21.1 4.6 27.4-.9 13.8.9 15.8 14.6 1.5 15.1-3.1c.6-5.2-6.3-6.3-6.3-6.3s0-12 .9-21.7 1.5-19.8 2.4-22.4 3.4-9.8 3.3-17.1c-.1-7.4-.3-13.7-.3-13.7s4.4 1.7 6.4 2.9c3.1 1.8 9.4.2 10.9-4.9s-1.1-9.1-1.1-9.1 1.5-4.4 1.5-7.3-2.5-8.8-6.4-11.1z" fill="#cd9a83"/><path d="m146.5 12.9c.2-.7 7.3-6.6 8.9-4.8s1.2 8.5-1.7 9.7-2.5 2.9-5.3 1.5c-2.9-1.5-2-6-1.9-6.4z" fill="#cd9a83"/><path d="m146.5 12.9c.2-.7 7.3-6.6 8.9-4.8s1.2 8.5-1.7 9.7-2.5 2.9-5.3 1.5c-2.9-1.5-2-6-1.9-6.4z" opacity=".15"/><path d="m151.1 26.5 1.9-.3s-.3.9-.9 1.1c-.7.2-1-.8-1-.8z" fill="#2d3134"/><path d="m151.6 32.9s1.8-1.6 2.1-.4c.3 1.1.1 3.6.1 3.6s-.4-2.4-.9-2.5-1 .1-1.3-.7z" fill="#2d3134"/><path d="m40.5 60.4s-4.3 13.7-9.6 25.9c1.2 10.1 2.6 22.7 1.1 29.2-1.7 7.8-2.6 7.4-.7 16.6 1.9 9.3-.7 16.3 4.7 16.4s11.8-1.1 11.4-5.6-5.1-3.8-5.1-3.8-3.9-5.6-2-11.6 10.8-30.3 10.8-30.3-8.2-16.4-9-25.5-1.6-11.3-1.6-11.3z" opacity=".15"/><path d="m14.6 143.6-1.8-3.1c.1-.1 14.1-8.4 20.3-21.4 3.1-6.5 2.6-19.2 2.2-31.5-.6-15.1-1-28.1 4.8-31.4l1.8 3.1c-3.9 2.3-3.4 16-3 28.2.5 12.7 1 25.9-2.5 33.2-6.7 14-21.2 22.5-21.8 22.9z" fill="#cd9a83"/><path d="m17.9 138.7c-4.6-4.5-10.6 8.1-13.9 9.5 5.7 2.3 19.1-4.4 13.9-9.5z" fill="#4a2121"/></svg>