<svg xmlns:xlink="http://www.w3.org/1999/xlink"  enable-background="new 0 0 240 160" height="160" viewBox="0 0 240 160" width="240" xmlns="http://www.w3.org/2000/svg"><path d="m62.1 91c-21.8 7.7-77 31-42.5 37.3 42.4 7.7 62.9-.6 85.8-14.7 27-16.6 102.7 2.1 87.1-21.7-16.9-25.7-89.4-15.3-130.4-.9z" opacity=".2"/><path d="m156.9 68.3c9.3 10.4 23.5 22.1 45.5 22.1 15.6 0 16.1-6.4 16.1-6.4l-2.9-1.6s-5.5 5.5-15.9 3.6-23.4-5.4-38.8-25.1-4 7.4-4 7.4z" fill="#cd9a83"/><path d="m156.9 68.3c9.3 10.4 23.5 22.1 45.5 22.1 15.6 0 16.1-6.4 16.1-6.4l-2.9-1.6s-5.5 5.5-15.9 3.6-23.4-5.4-38.8-25.1-4 7.4-4 7.4z" opacity=".15"/><path d="m215.2 84c-7-4.8 5.2-10.7 6.3-15.3 4.4 6.8 1.7 20.9-6.3 15.3z" fill="#4a2121"/><path d="m125.9 85.8c4.3 1.7 26.3 4.7 26.3 4.7s-1.7 7.3 2.8 9.9 8.8-1.2 11.1-5.2c2.2-4 6.6-5.9 6.4-8s-23.4-17.5-23.4-17.5l-19.7-6.4z" fill="#cd9a83"/><path d="m125.9 85.8c4.3 1.7 26.3 4.7 26.3 4.7s-1.7 7.3 2.8 9.9 8.8-1.2 11.1-5.2c2.2-4 6.6-5.9 6.4-8s-23.4-17.5-23.4-17.5l-19.7-6.4z" opacity=".15"/><g fill="#cd9a83"><path d="m52.2 79.6c-6.2 6.1-19.2 16.6-22.8 19.9s-12.1 10.6-14 12.8-7.4 6.2-3.3 10.2 14.2 2.2 16.4 0 2.1-6.4 4.8-9.5c2.8-3.1 19.2-9 25.1-9.5s19 .7 19 .7-13.8 8-16.6 8.8c-2.8.9-9.5 6.2-6.7 11.9s14.7 3.5 17 .9c2.2-2.6 4.2-5.5 6.7-6.4s26.5-4.2 29.8-10 1.6-12.6 1.6-12.6 13.1-2.4 20.2-13.1 6.2-10.2 6.2-10.2 13.7 6.4 21.6 9.7c8 3.3 16.1 3.3 18.9 8.3s2.4 9.9 6.2 10.6 6.2-3.1 7.3-8.8c1-5.7-1.8-4.9-3.9-6.8s-7.2-7.9-9.8-8.6-7.1-3.3-10-5.5-1.4-8.1-1.4-12.8-5-15.6-22.8-19-30.3-.5-42.2 2.6-20.6-2.6-20.6-2.6z"/><path d="m36.6 10.6c-2.4 1.1-1.3 6.3.1 9.5 1.2 2.8 2.8 7.2 2.8 7.2s10.4-6.4 9.2-8.2c-1.1-1.8-8.7-10-12.1-8.5z"/><path d="m110.6 40.9 4.8 5.2s-1.9-9.6-8.6-17.7c-9.4-11.4-21.6-15.6-30.1-17.2-10.9-2-25.4-2.8-36.8 11.9-2.4 3.2-7.1 12.3-7.5 14.8-.2 1.7.6 6.3.6 7.8s-2.9 5.2-4.9 9-3.1 3.4-.7 10.9c2.4 7.4 10.5 11.2 14.6 10.1 2.3-.6 2.3 2.6 3.4 4.6l1.9 9.3 1.5-1.4c.2.5.5 1 .7 1.4l.8 8.3 2-3.9c1.7 4.1 2.2 9.5 2.2 9.5l2.1-4.4 2.9 11.2 3.1-4.9 2.5 8.1 5.7-9.9 2.7 7.9 3.8-10.4 3.5 5.9 2.7-14.6 3 7.7 3.5-12.8 1.8 5.4 3.9-9.1 2.6 6 5.2-15.6 2.4 8.9 2.8-29 3.7 4.2z"/></g><path d="m44.2 47.3s.5-3.3 3.4-3.4 4.1 1.9 4.1 1.9-1.8 1.4-3.4 1.6-4.1-.1-4.1-.1z" fill="#2d3134"/><path d="m33.4 44s1.1-2.1.2-3.4-1.1.8-.8 2 .6 1.4.6 1.4z" fill="#2d3134"/><path d="m26.1 58.9c-.7.2-.3 3.6 1.6 5.1 1.9 1.6 3.2 2.4 3.2 2.4s.6-.7 3.7-1.9 2.9-4.6 2.9-4.6-2.8.9-7.5.4c-3.6-.3-3.9-1.4-3.9-1.4z" fill="#2d3134"/><path d="m78.2 43-7.8-10.6 7.8 2.5-8.8-6.9 5.7-.3c.7.1 1.1.2 1.1.2l-.5-.2 2.8-.1-14.1-4.4 8.2-4.8-15.7 3.1 8.7-6.7-11.3 2.7 4-8.3-8.4 5.1-1-4.6-2.9 4.3-.6-1.9-6.9 12.9s4.8 4.2 6.3 4.7c1.3.4 13.3 2.2 13.4 2.1 11.5 3.1 20 11.2 20 11.2z" fill="#cd9a83"/><path d="m92.6 15-5.4-.9-.5-1.8-8.1-.8 3.7-1.6-17.4-.4 3.7-2.5-10.2 3.5 1.6-3.4-10.1 7.1-1-4.6-2.9 4.4-.6-1.9-6.9 12.9s4.7 4.7 6.3 5.1c1.3.4 13.4 1.8 13.4 1.7 3.5-.1 4.4 2.2 5.2 3.3 3.4 4.6 6.8 17.3 6.8 17.3l-6.6-5 2 19.2-5.8-5.8 2.7 10.5-5-5 .5 6.1-3-2.4-.1 7.9-5.9-4.7-5.4 2.7c.3 1.1 3.8 13.9 3.8 13.9l1.3-1.3 2 5.2 1.7-7.1 4.7 10.3 1.4-9.9 5.9 10.7 1.1-10.5 5.5 10 .8-9.6 4.9 6.4.5-12.3 7.4 8.9-1-18.5 7.2 9.3.2-11.7 8.2 6.5-5.5-19.1 10.9 8.6-4.9-16.9 6 2.3-6.4-13.6 7.2 1.3-8.4-9.8 8.7 4.2-8.6-10.7 3 .1s-3.4-3.4-8.9-6.2l-1.1-.5z" fill="#915645"/><path d="m62.2 76.6-.6 14.5-3.7-7.2-2 6.4-5-7.9-.8 4.4-6.1-10.2 3.4 16.6 2.2-3.5.8 8.3 2-3.9c1.7 4.1 2.2 9.5 2.2 9.5l2.1-4.4 2.9 11.2 3.1-4.9 2.5 8.1 5.7-9.9 2.7 7.9 3.8-10.4 3.5 5.9 2.7-11.6 4.6 5.3 1.9-13.4 1.8 5.4 3.9-9.1 4.6 6.1 3.2-15.8 4.1 7.1 1.1-27.2 3.7 4.2-1.9-17 4.8 5.2s-.9-9.4-7.6-17.5c-5.8-7-10.3-10.2-16.7-12.8l6.5 5.6-5-.9 9.8 8.1-5.1-.3 5.7 7.9-4.8.4 4.4 11.4-6-2.8 4.9 12.7-10.5-3 5.3 14.3-8.1-5.8 1.1 12.6-7.6-11.5 1.2 20.6-5.5-6.6-2.4 8.7-3.6-7.6-1.7 10.5z" fill="#4a2121"/><path d="m72.1 20.4c4.5 1.4 4.9 14.1 3.8 15.3-1.1 1.3-4.7-3.6-7.2-4.1s-5.8-1.3-6.6-2.8c-.8-1.4 5.8-9.7 10-8.4z" fill="#cd9a83"/></svg>