<svg xmlns:xlink="http://www.w3.org/1999/xlink"  enable-background="new 0 0 160 160" height="160" viewBox="0 0 160 160" width="160" xmlns="http://www.w3.org/2000/svg"><path d="m105.3 146c16.1-7.2 49.8-18.5 27.6-34.1-20.7-14.5-51.7 2.3-67.4 9.4-23.2 10.5-45.9 24.2-32.3 33.1 13.3 8.9 42.6 4.9 72.1-8.4z" opacity=".2"/><path d="m127.4.2c-3.5.3-4.2 7.1-3.6 11.2s10-2.9 9.5-5.7c-.5-2.9-3-5.7-5.9-5.5z" fill="#cd9a83"/><path d="m94.5 79.4s2.5 23.5 2.2 29-1.4 10.9 1.4 12.7c2.9 1.7 12.4.8 13-3.5s-4.9-6-4.9-6 2.4-28.8 3.5-35.5-15.2 3.3-15.2 3.3z" fill="#cd9a83"/><path d="m94.5 79.4s2.5 23.5 2.2 29-1.4 10.9 1.4 12.7c2.9 1.7 12.4.8 13-3.5s-4.9-6-4.9-6 2.4-28.8 3.5-35.5-15.2 3.3-15.2 3.3z" opacity=".15"/><path d="m149.3 7.7c-.7-.4-6.7-4.1-14.7-1.9-9.2 2.5-18.4 7.5-22.6 10.2s-8.1 9.6-17.5 12.4-40.7 6.4-57.4 16.3-11.6 24.7-10.2 35.8 3.7 28.2 1.9 36.3c-1.8 8.2-2.8 7.8-.8 17.5s-.7 17.1 5 17.2 12.4-1.2 11.9-5.9c-.4-4.8-5.4-4-5.4-4s-4.1-5.9-2.1-12.2c2-6.2 11.3-31.7 11.3-31.7s4.8 13.8 3.7 22.3-4 9.4-2.7 14.9 3.8 9.9 4.2 17.2 5.6 7.4 10.8 5.8 8.4-4.2 5.2-8.8c-2.6-3.6-6-1.2-7.1-1.9s-1.9-9.2-1-12.3c.8-3.1 8.9-23.5 10.5-32.2 1.6-8.8 2.6-18 2.6-18s7 1 17.9-2.1 21.6-6.6 23.2-1.1c1.7 5.5 5.2 22.1 4.9 28.7-.3 6.7-1 14.5 1 16.6 1.9 2.1 15.3 1.6 15.8-3.3.6-5.5-6.6-6.6-6.6-6.6s0-12.6 1-22.7 1.6-20.7 2.5-23.5c1-2.7 3.6-10.2 3.5-18s-.3-14.4-.3-14.4 4.6 1.8 6.7 3.1c3.3 1.9 9.8.2 11.4-5.2s-1.1-9.5-1.1-9.5 1.6-4.6 1.6-7.6-3-8.9-7.1-11.4z" fill="#cd9a83"/><path d="m37.6 59.2s-4.5 14.3-10 27.1c1.3 10.6 2.7 23.7 1.2 30.6-1.8 8.1-2.8 7.7-.8 17.4s-.7 17.1 5 17.2 12.4-1.2 11.9-5.9c-.4-4.8-5.4-4-5.4-4s-4.1-5.9-2.1-12.2c2-6.2 11.3-31.7 11.3-31.7s-8.5-17.2-9.4-26.7c-.8-9.5-1.7-11.8-1.7-11.8z" opacity=".15"/><path d="m10.5 146.4-1.9-3.3c.1-.1 14.8-8.8 21.3-22.5 3.2-6.8 2.7-20.1 2.3-33-.6-15.8-1.1-29.4 5-32.9l1.9 3.3c-4.1 2.4-3.6 16.8-3.1 29.5.5 13.3 1 27.1-2.6 34.8-7.1 14.7-22.2 23.7-22.9 24.1z" fill="#cd9a83"/><path d="m16.4 139.1c-6.7-6.6-11.3 6.7-16 8.8 8.2 3.4 23.6-1.3 16-8.8z" fill="#4a2121"/><path d="m151.5 8.8 5.9 9.2-.7 4 2.8 7.2-2.7-.7 2 7.1-1.2 3.2v7.4l-1.5-2.5-.7 12.3-2.2-3.5-2.5 11.1-.7-4.9-4.3 12s.2-35.9-5.4-47.9-25-17.9-25-17.9l8.3-.7.4-2.2 7 1.1 1.3-1.8 4.8 2 1.2-2.5 3.3 1.2 2.6-1.2 2.6 2.4 2.5-1z" fill="#915645"/><path d="m130.6 36.3-.6 16.4 3.6-6.1-.5 12.1 2.8-2.2-2.6 7.6 1.9-.3-3.3 10.4 2-1.5-1.8 14.5 5.5-12.7.5 4.2 9.3-15.5-1.4-.6 4.4-19.3-3.5 5.4.8-12.5-2.1 5.3 1.3-16.6-4.4 5.6.9-15.3-2.4 1.6-.7-6.8-3.8.3-.5-3.2-5.3.6-.5-2.4-7.6 1.3-.8-1.4-11.2.9 3.3.8-9.6 4.8 4.9-.5-10.5 7h2.3l-7.7 11 10.6-4.1 1.2 1.2 7.5-6-.3 3.8 7.1-3.9.4 2.8 3.2-3.2.6 7.2 2.8-3.6 1.3 9.8 1.8-3.5-.3 10z" fill="#4a2121"/><path d="m148.3 9.8s3.9-5.2 6.8-2.5 1.1 12-1.7 12.8c-2.8.9-4.8-8.2-5.1-10.3z" fill="#cd9a83"/></svg>