<svg xmlns:xlink="http://www.w3.org/1999/xlink"  enable-background="new 0 0 160 160" height="160" viewBox="0 0 160 160" width="160" xmlns="http://www.w3.org/2000/svg"><path d="m148.6 89c-3 0-8.1-.9-11.7-6.4l2.6-1.7c4 6.2 11 6.1 11.3 6.1l.3 1.8s-1 .2-2.5.2z" fill="#cd9a83"/><path d="m148.6 89c-3 0-8.1-.9-11.7-6.4l2.6-1.7c4 6.2 11 6.1 11.3 6.1l.3 1.8s-1 .2-2.5.2z" opacity=".15"/><path d="m147.2 86.9c.8-4.1 7.3.7 9.6.2-2.1 3.4-10.4 4.5-9.6-.2z" fill="#4a2121"/><path d="m73 117.6c-14.6 7-46.1 19.1-25.6 33.2 19.1 13.1 47.4-2.7 61.7-9.4 21.1-9.9 45.9-22.1 33.7-30.7-12.5-8.7-42.3-6.2-69.8 6.9z" opacity=".2"/><path d="m11.5 28.6c-2.1 1.4-.4 6.1 1.4 9 1.5 2.4 3.6 6.4 3.6 6.4s9-7.5 7.6-9c-1.3-1.5-9.6-8.3-12.6-6.4z" fill="#cd9a83"/><path d="m11.5 28.6c-2.1 1.4-.4 6.1 1.4 9 1.5 2.4 3.6 6.4 3.6 6.4s9-7.5 7.6-9c-1.3-1.5-9.6-8.3-12.6-6.4z" opacity=".15"/><path d="m107 76.4c1.5 5.5 8.4 19.3 7.9 24.5s-1.8 8.2-4.4 9.1-6.3 5.7-.3 7.5c4.6 1.4 9.9-1.4 9.9-6.4s2.7-17.5 3.2-19.5-2.6-6.5-2-12.2c.6-5.6 3.5-19.9 3.5-19.9z" fill="#cd9a83"/><path d="m107 76.4c1.5 5.5 8.4 19.3 7.9 24.5s-1.8 8.2-4.4 9.1-6.3 5.7-.3 7.5c4.6 1.4 9.9-1.4 9.9-6.4s2.7-17.5 3.2-19.5-2.6-6.5-2-12.2c.6-5.6 3.5-19.9 3.5-19.9z" opacity=".15"/><path d="m40.1 69.5s4.3 14.3 6.2 27.8 5.2 33.2 2.3 36c-2.9 2.9-7.8 2.6-6.8 7.9.9 5.3 12.7 5 16 1.7 2.7-2.7 3.3-9.4 3.2-17.9s3.6-27.7 3.6-27.7 5.6 5.9 6.5 13.2 4.1 27.4 2.4 29.5-7.1 4.6-4.9 9.7c2.3 5.2 15.5 3.5 16.3-2.9s-.5-11.6.3-21 3.5-40.1 3.5-40.1 7.8-.6 17.8-7.3 13.8-10.5 15.8-9.7 5.9 16 9.1 23.1 7.1 15.4 2.4 21-5.2 7.5-2.1 9.3c3 1.8 10.8 1.4 10.6-4.3-.2-5.6.9-17.9 1.7-20.8s-2.1-5.9-2.1-10.8-.6-15.8 1.4-22.8 7.6-27.5-9.7-34.2-53.1 7.1-55.8 6.2-17-7.1-37-4.9-23.4 6.1-27.5 14.3-1.2 12-2.4 16-4.4 10.2-3.6 12.5c.7 2.3 5.1 10.7 11.7 10.5 10.3-.3 21.1-14.3 21.1-14.3z" fill="#cd9a83"/><g fill="#2d3134"><path d="m22.6 58.4s0-3.2 2.7-3.6 4.1 1.2 4.1 1.2-1.5 1.5-3 2-3.8.4-3.8.4z"/><path d="m12 56.8s.8-2.1-.3-3.2-.9.9-.5 2 .8 1.2.8 1.2z"/><path d="m7 71.9c-.6.3.2 3.4 2.2 4.6s3.3 1.8 3.3 1.8.5-.8 3.2-2.3 2.1-4.7 2.1-4.7-2.5 1.3-7.1 1.4c-3.2.1-3.7-.8-3.7-.8z"/></g><path d="m33.4 42.6s3.2-13.2 10.8-9.3 3 22.4 1.1 22.5c-2 .2-1.4-4.4-4.6-6.5s-5.9-3.2-7.3-6.7z" fill="#cd9a83"/><path d="m33.4 42.6s3.2-13.2 10.8-9.3 3 22.4 1.1 22.5c-2 .2-1.4-4.4-4.6-6.5s-5.9-3.2-7.3-6.7z" opacity=".15"/><path d="m51.1 70.9c-2.6-4.3-10.9-1.4-10.9-1.4s4.3 14.3 6.2 27.8 5.2 33.2 2.3 36c-2.9 2.9-7.8 2.6-6.8 7.9.9 5.3 12.7 5 16 1.7 2.7-2.7 3.3-9.4 3.2-17.9s3.6-27.7 3.6-27.7c-3-4.5-11.1-22.1-13.6-26.4z" opacity=".15"/></svg>