<svg xmlns:xlink="http://www.w3.org/1999/xlink"  enable-background="new 0 0 160 160" height="160" viewBox="0 0 160 160" width="160" xmlns="http://www.w3.org/2000/svg"><path d="m150.7 88.2c-3.2 0-8.6-1-12.3-6.7l2.8-1.8c4.2 6.5 11.6 6.5 11.9 6.4l.3 1.9c-.2 0-1.2.2-2.7.2z" fill="#cd9a83"/><path d="m150.7 88.2c-3.2 0-8.6-1-12.3-6.7l2.8-1.8c4.2 6.5 11.6 6.5 11.9 6.4l.3 1.9c-.2 0-1.2.2-2.7.2z" opacity=".15"/><path d="m148.7 86.3c1.1-5.9 7.3.1 10.5-.6-3 4.8-11.7 7.3-10.5.6z" fill="#4a2121"/><path d="m71.1 118.3c-15.4 7.3-48.5 20.1-27 34.9 20.1 13.8 49.8-2.8 64.9-9.8 22.2-10.4 48.3-23.3 35.5-32.3-13.1-9.2-44.4-6.6-73.4 7.2z" opacity=".2"/><path d="m106.9 74.9c1.6 5.8 8.8 20.3 8.3 25.7s-1.9 8.6-4.6 9.6-6.6 5.9-.3 7.8c4.8 1.4 10.4-1.4 10.4-6.7s2.9-18.4 3.4-20.5-2.7-6.9-2.1-12.8 3.7-20.9 3.7-20.9z" fill="#cd9a83"/><path d="m106.9 74.9c1.6 5.8 8.8 20.3 8.3 25.7s-1.9 8.6-4.6 9.6-6.6 5.9-.3 7.8c4.8 1.4 10.4-1.4 10.4-6.7s2.9-18.4 3.4-20.5-2.7-6.9-2.1-12.8 3.7-20.9 3.7-20.9z" opacity=".15"/><path d="m36.6 67.7s4.5 15 6.6 29.3c2.1 14.2 5.4 34.9 2.4 37.9s-8.2 2.7-7.2 8.3 13.4 5.2 16.8 1.8c2.8-2.9 3.5-9.9 3.4-18.9s3.7-29.1 3.7-29.1 5.9 6.2 6.9 13.9 4.3 28.8 2.6 31-7.5 4.8-5.1 10.2 16.3 3.7 17.1-3-.5-12.1.3-22.1 3.7-42.2 3.7-42.2 8.2-.6 18.7-7.7 14.6-11 16.6-10.2c2.1.8 6.2 16.8 9.6 24.3s7.5 16.2 2.6 22.1c-5 5.9-5.4 7.8-2.2 9.8 3.2 1.9 11.4 1.4 11.2-4.5s1-18.9 1.8-21.9-2.2-6.2-2.2-11.4-.6-16.6 1.4-24 8-28.9-10.2-36-55.8 7.5-58.7 6.6c-2.9-1-17.9-7.5-38.9-5.1s-24.6 6.4-28.9 15-1.4 12.7-2.7 16.8-4.6 10.7-3.8 13.1 5.4 11.2 12.3 11c10.8-.3 22.2-15 22.2-15z" fill="#cd9a83"/><path d="m48.1 69.2c-2.7-4.5-11.5-1.4-11.5-1.4s4.5 15 6.6 29.3c2.1 14.2 5.4 34.9 2.4 37.9s-8.2 2.7-7.2 8.3 13.4 5.2 16.8 1.8c2.8-2.9 3.5-9.9 3.4-18.9s3.7-29.2 3.7-29.2c-3-4.8-11.5-23.4-14.2-27.8z" opacity=".15"/><path d="m4.6 21c-2.2 1.4-.4 6.4 1.4 9.4 1.6 2.6 3.8 6.7 3.8 6.7s9.4-7.8 8-9.4-10.1-8.7-13.2-6.7z" fill="#cd9a83"/><path d="m82.4 40.6 5.5 4.5s-3.2-9.3-11-16.4c-11.1-10-23.8-12.5-32.4-12.8-11.1-.4-25.6.8-34.8 17-2 3.5-5.3 13.2-5.3 15.8 0 1.7 1.5 6.2 1.7 7.7s-2.1 5.5-3.6 9.6c-1.6 4-2.6 3.8.8 10.8s12 9.7 15.9 8c2.2-1 2.7 2.2 4 4.1l3.2 9 1.3-1.6c.3.5.6.9.9 1.3l1.9 8.2 1.5-4.2c2.2 3.8 3.5 9.1 3.5 9.1l1.5-4.7 4.5 10.7 2.3-5.3 3.6 7.7 4.3-10.7 3.8 7.5 2.3-10.9 4.3 5.3.6-14.9 4.1 7.2 1.7-13.2 2.6 5.1 2.6-9.6 3.4 5.5 3-16.2 3.6 8.5-1.3-29.2 4.3 3.6z" fill="#cd9a83"/><g fill="#2d3134"><path d="m17.4 56.3s0-3.4 2.9-3.8c2.9-.5 4.3 1.3 4.3 1.3s-1.6 1.6-3.2 2.1c-1.6.4-4 .4-4 .4z"/><path d="m6.2 54.5s.8-2.2-.3-3.4-1 1-.5 2.1.8 1.3.8 1.3z"/><path d="m1 70.4c-.6.3.2 3.6 2.3 4.9s3.5 1.9 3.5 1.9.5-.8 3.4-2.4 2.2-5 2.2-5-2.6 1.4-7.4 1.5c-3.6.1-4-.9-4-.9z"/></g><path d="m50.5 47.2-9.3-9.4 8.1 1.4-9.7-5.6 5.6-1.1h1.1l-.5-.1 2.7-.5-14.5-2.4 7.5-6-15.1 5.3 7.6-7.8-10.9 4.3 2.8-8.8-7.6 6.3-1.6-4.5-2.3 4.7-.8-1.8-5 13.8s5.3 3.5 6.9 3.7c1.3.1 13.5.3 13.5.2 11.9 1.4 21.5 8.3 21.5 8.3z" fill="#cd9a83"/><path d="m60.8 17.4-5.5-.2-.7-1.7-8.2.3 3.4-2.1-17.3 2.1 3.4-3-9.6 4.9 1.1-3.6-9.1 8.5-1.6-4.5-2.3 4.9-.8-1.8-5 13.8s5.3 4 6.9 4.2c1.3.1 13.5-.2 13.5-.3 3.5-.6 4.7 1.6 5.6 2.5 4.1 4.1 9.2 16.2 9.2 16.2l-7.2-4.1 4.7 18.8-6.6-4.9 4.2 10-5.6-4.3 1.4 6-3.3-1.9 1.1 7.9-6.5-3.8-5 3.4c.4 1.1 5.8 13.2 5.8 13.2l1.1-1.5 2.7 4.9.4-7.3 6.2 9.6v-10.1l7.4 9.8-.4-10.6 6.8 9.2-.6-9.6 5.8 5.7-1.3-12.2 8.6 7.8-3.6-18.2 8.5 8.2-1.5-11.6 9 5.3-8.1-18.3 12.1 7-7.3-16.1 6.3 1.4-8.3-12.6 7.4.2-9.7-8.6 9.2 3-10-9.4 3-.3s-3.8-2.9-9.7-4.9l-1.2-.4z" fill="#915645"/><path d="m39.3 82.8 1.5 14.5-4.7-6.6-1.1 6.7-6.1-7.1-.2 4.5-7.5-9.3 5.8 16 1.6-3.8 1.9 8.1 1.5-4.2c2.2 3.8 3.5 9.1 3.5 9.1l1.5-4.7 4.5 10.7 2.3-5.3 3.6 7.7 4.3-10.7 3.8 7.5 2.3-10.9 4.3 5.3 1.1-11.9 5.3 4.6v-13.5l2.6 5.1 2.6-9.6 5.4 5.4 1-16.1 5.1 6.5-2.8-27.2 4.3 3.6-4.3-16.6 5.5 4.5s-2.2-9.2-10-16.3c-6.8-6.1-11.7-8.6-18.3-10.3l7.2 4.7-5.1-.2 10.9 6.6-5.1.4 6.8 7-4.7 1 6 10.7-6.4-1.9 6.6 11.9-10.9-1.3 7.2 13.4-8.8-4.6 2.9 12.4-9.2-10.3 4.1 20.3-6.4-5.8-1.1 9-4.7-7-.2 10.7z" fill="#4a2121"/><path d="m41.2 25.6c4.7.7 6.8 13.3 5.9 14.7s-5.2-2.9-7.7-3.1-5.9-.5-6.9-1.8 4.3-10.4 8.7-9.8z" fill="#cd9a83"/></svg>