<svg xmlns:xlink="http://www.w3.org/1999/xlink"  enable-background="new 0 0 20 40" height="40" viewBox="0 0 20 40" width="20" xmlns="http://www.w3.org/2000/svg"><path d="m20 29.4c0-.4-.2-.9-.7-1.1l-6-3c-1.1-.6-2.5-.6-3.6 0-.5.2-.7.7-.7 1.1v7.5c0 .4.2.9.7 1.1l6 3c1.1.6 2.5.6 3.6 0 .4-.2.7-.7.7-1.1z" fill="#656565"/><path d="m8.9 17.3-1.9-1c-.9-.4-1.9-.4-2.7.1s-1.3 1.4-1.3 2.4v3.7c0 .3.4.5 1 .5s1-.2 1-.5v-3.7c0-.4.3-.6.4-.7s.4-.2.8 0l1.9 1c1.2.6 1.9 1.8 1.9 3.2v3.7c0 .3.4.5 1 .5s1-.2 1-.5v-3.7c0-2.2-1.2-4.1-3.1-5z" fill="#999"/><path d="m20 29.4c0 .4-.2.9-.7 1.1-1.1.6-2.5.6-3.6 0l-6-3c-.5-.2-.7-.7-.7-1.1v7.5c0 .4.2.9.7 1.1l6 3c1.1.6 2.5.6 3.6 0 .4-.2.7-.7.7-1.1z" opacity=".2"/><path d="m14.5 32.5c0-.6-.4-1.2-1-1.5s-1-.1-1 .5c0 .4.2.8.5 1.1v1.8l1 .5v-1.8c.3 0 .5-.2.5-.6z" opacity=".5"/><ellipse cx="18" cy="29.5" opacity=".5" rx="1" ry=".5"/></svg>