<svg xmlns:xlink="http://www.w3.org/1999/xlink"  enable-background="new 0 0 40 40" height="40" viewBox="0 0 40 40" width="40" xmlns="http://www.w3.org/2000/svg"><path d="m30 13c-5.5 0-10 2.2-10 5v2c0 2.8 4.5 5 10 5s10-2.2 10-5v-2c0-2.8-4.5-5-10-5zm0 9c-4.2 0-7.7-1.3-8.7-3 1-1.7 4.5-3 8.7-3s7.7 1.3 8.7 3c-1 1.7-4.5 3-8.7 3z" fill="#999"/><path d="m30 23c-5.5 0-10-2.2-10-5v2c0 2.8 4.5 5 10 5s10-2.2 10-5v-2c0 2.8-4.5 5-10 5z" opacity=".2"/><path d="m30 14c-5 0-9 1.8-9 4 0 .3.1.7.3 1 1-1.7 4.5-3 8.7-3s7.7 1.3 8.7 3c.2-.3.3-.7.3-1 0-2.2-4-4-9-4z" opacity=".3"/><path d="m30 15c-4.6 0-8.4 1.5-8.9 3.5.6 2 4.3 3.5 8.9 3.5s8.4-1.5 8.9-3.5c-.5-2-4.3-3.5-8.9-3.5z" fill="#36c" opacity=".3"/><ellipse cx="28" cy="17.5" fill="#fff" opacity=".2" rx="3" ry="1.5"/><path d="m23.2 21.9c-.2-.1-.4-.1-.6-.1l-3.3 1.7c-.2 0-.3.2-.3.5 0 .5.4 1 .8 1.3.2.1.4.1.6.1 0 0 3.3-1.7 3.4-1.7.1-.1.2-.2.2-.5 0-.5-.3-1.1-.8-1.3z" fill="#999"/><path d="m20.5 25.3c.1 0 3.3-1.7 3.3-1.7.1-.1.2-.2.2-.5 0-.2-.1-.4-.2-.6l-3.3 1.7c.1.2.2.4.2.6s-.1.4-.2.5z" opacity=".29"/><path d="m20.7 24.8c0 .5-.4.6-.8.4-.5-.2-.9-.8-.9-1.2s.4-.6.8-.4c.5.2.9.7.9 1.2z" opacity=".11"/><path d="m19.8 23c-.4-.2-.7-.2-1-.1l-11.9 6c-.3.1-.4.4-.4.8 0 .8.6 1.8 1.4 2.1.4.2.7.2 1 .1 0 0 11.9-6 12-6 .2-.1.4-.4.4-.8-.1-.7-.7-1.7-1.5-2.1z" fill="#2d3134"/><path d="m8.9 32c.1-.1 11.9-6 12-6 .2-.1.4-.4.4-.8 0-.3-.1-.7-.3-1l-12 6c.2.3.3.7.3 1 0 .4-.1.6-.4.8z" opacity=".29"/><path d="m9.3 31.2c0 .8-.6 1.1-1.4.7s-1.4-1.4-1.4-2.1.6-1.1 1.4-.7c.8.3 1.4 1.3 1.4 2.1z" opacity=".11"/></svg>