<svg xmlns:xlink="http://www.w3.org/1999/xlink"  enable-background="new 0 0 40 40" height="40" viewBox="0 0 40 40" width="40" xmlns="http://www.w3.org/2000/svg"><path d="m15.8 6c-2.1-1.1-4-1.2-5.5-.5l-2.1 1c-1.5.7-2.5 2.2-2.5 4.5 0 4.4 3.6 9.7 8 11.9 2.2 1.1 4.1 1.2 5.6.5 0 0 2-1 2.4-1.2 1.3-.8 2.1-2.2 2.1-4.3-.1-4.4-3.7-9.7-8-11.9zm3.8 15.7c-1.1.2-2.4 0-3.9-.8-3.8-1.9-7-6.6-7-10.4 0-1.3.4-2.4 1-3.1 1.1-.2 2.4 0 3.9.8 3.8 1.9 7 6.6 7 10.4 0 1.3-.3 2.4-1 3.1z" fill="#999"/><path d="m19.4 23.4c.6-.3 2-1 2.3-1.2 1.3-.8 2.1-2.2 2.1-4.3 0-1.8-.6-3.7-1.6-5.5l-2.1 1c1 1.8 1.6 3.7 1.6 5.5 0 2.3-.9 3.8-2.3 4.5z" opacity=".29"/><path d="m13.7 7c-4.4-2.2-8-.4-8 4s3.6 9.7 8 11.9 8 .4 8-4c0-4.3-3.6-9.7-8-11.9zm0 15.1c-3.8-1.9-7-6.6-7-10.4s3.1-5.4 7-3.5c3.8 1.9 7 6.6 7 10.4-.1 3.8-3.2 5.4-7 3.5z" opacity=".11"/><path d="m13.7 8.1c-1.7-.9-3.3-1-4.5-.6-.9.8-1.4 1.9-1.4 3.5 0 3.8 3.1 8.5 7 10.4 1.7.9 3.3 1 4.5.6.9-.7 1.4-1.9 1.4-3.5-.1-3.8-3.2-8.4-7-10.4z" fill="#36c" opacity=".3"/><path d="m15.7 20.9c-3.8-1.9-7-6.6-7-10.4 0-1.3.4-2.4 1-3.1-1.7.3-3 1.8-3 4.2 0 3.8 3.1 8.5 7 10.4 2.5 1.3 4.7 1 5.9-.4-1.1.3-2.4 0-3.9-.7z" opacity=".3"/><path d="m14.4 11.5c0 1.1-.9 1.6-2.1 1-1.1-.6-2.1-1.9-2.1-3.1s.9-1.6 2.1-1 2.1 2 2.1 3.1z" fill="#fff" opacity=".2"/><path d="m27.4 27.4c.4-.4.6-.9.4-1.1l-5.2-5.2c-.2-.2-.7 0-1.1.4s-.6.9-.4 1.1l5.2 5.2c.2.2.7 0 1.1-.4z" fill="#999"/><path d="m21.4 21.6c-.3.4-.5.8-.3 1l5.2 5.2c-.2-.2-.1-.6.3-1z" opacity=".11"/><ellipse cx="27" cy="27" opacity=".29" rx="1.1" ry=".5" transform="matrix(.7072 -.707 .707 .7072 -11.1866 27.0032)"/><path d="m33.5 33.5c.7-.7 1-1.6.7-2l-8.9-8.9c-.4-.4-1.2-.1-2 .7s-1 1.6-.7 2l8.9 8.9c.4.3 1.2 0 2-.7z" fill="#2d3134"/><path d="m23.1 23.5c-.6.7-.8 1.4-.5 1.8l8.9 8.9c-.3-.3-.1-1.1.5-1.8z" opacity=".11"/><ellipse cx="32.8" cy="32.8" opacity=".29" rx="1.8" ry=".9" transform="matrix(.7072 -.707 .707 .7072 -13.5936 32.8133)"/></svg>