<svg xmlns:xlink="http://www.w3.org/1999/xlink"  enable-background="new 0 0 20 20" height="20" viewBox="0 0 20 20" width="20" xmlns="http://www.w3.org/2000/svg"><path d="m15 6v2l2 1 2-1v-2l-2-1z" fill="#cc291f"/><path d="m17 9 2-1v-2l-2 1z" opacity=".29"/><path d="m5 11v2l2 1 10-5v-2l-2-1z" fill="#e5e5e5"/><path d="m7 14 10-5v-2l-10 5z" opacity=".29"/><path d="m1 13v2l2 1 4-2v-2l-2-1z" fill="#cc291f"/><path d="m3 16-2-1v-2l2 1z" opacity=".11"/><path d="m3 16 4-2v-2l-4 2z" opacity=".29"/><path d="m3 14.5v1.5l.5.3 5-2.5v-1.5l-.5-.3z" fill="#cc291f"/><path d="m3.5 16.3-.5-.3v-1.5l.5.3z" opacity=".11"/><path d="m3.5 16.3 5-2.5v-1.5l-5 2.5z" opacity=".29"/></svg>