<svg xmlns:xlink="http://www.w3.org/1999/xlink"  enable-background="new 0 0 20 160" height="160" viewBox="0 0 20 160" width="20" xmlns="http://www.w3.org/2000/svg"><path d="m0 6v149l10 5 10-5v-149l-10-5z" fill="#cc291f"/><g fill="#2d3134"><path d="m0 5v5l10 5 10-5v-5l-10-5z"/><path d="m2.7 37.8-1.3-8 1.5.7.4 3.1c.1.9.2 1.8.3 2.7.1-.8.2-1.5.4-2.3l.5-2.7 1.2.6.5 3.2c.1.9.3 1.8.4 2.8.1-.9.2-1.7.3-2.5l.4-2.8 1.4.7-1.3 6.8-1.5-.7-.4-2.7c-.3-.7-.4-1.6-.5-2.6-.1.8-.3 1.6-.4 2.2l-.5 2.2z"/><path d="m4.3 47.9-.3 1.6-1.4-.7 1.6-6.6 1.7.8 1.4 8.1-1.3-.6-.3-1.9zm1.2-.5-.2-1.7c-.1-.5-.2-1.3-.2-1.8-.1.5-.2 1.2-.3 1.6l-.3 1.4z"/><path d="m3.1 52.7c.5.1 1 .4 1.6.6.8.4 1.5.9 2 1.5s.6 1.2.6 1.8c0 .8-.4 1.3-1.1 1.3.5.5.8 1.1.9 1.9.1.9.3 1.9.5 2.3l-1.5-.8c-.1-.3-.3-1.1-.4-2-.1-1-.4-1.4-.8-1.6l-.2-.1v3l-1.6-.6zm1.4 4 .3.1c.6.3 1 0 1-.7 0-.6-.3-1.2-.9-1.6-.1-.1-.3-.1-.3-.1v2.3z"/><path d="m2.8 70.9v-7.4l1.3.7 1.1 3.5c.2.7.6 1.8.8 2.6 0-.8-.1-2.1-.1-3.5v-1.8l1.3.6v7.4l-1.3-.7-1.1-3.3c-.2-.7-.6-1.9-.7-2.6 0 .8.1 1.9.1 3.4v1.7z"/><path d="m5.7 75.9v7.4l-1.4-.7v-7.4z"/><path d="m2.8 92.9v-7.4l1.3.7 1.1 3.5c.2.7.6 1.8.8 2.6 0-.8-.1-2.1-.1-3.5v-1.8l1.3.6v7.4l-1.3-.7-1.1-3.3c-.2-.7-.6-1.9-.7-2.6 0 .8.1 1.9.1 3.4v1.7z"/><path d="m7.2 105.9c-.3 0-1-.2-1.5-.5-.8-.4-1.5-1-2-1.7-.6-.9-1-2.2-1-3.5 0-2.7 1.6-3 3.1-2.2.6.3 1 .6 1.2.8l-.3 1.1c-.2-.2-.5-.4-.8-.6-1-.5-1.8-.2-1.8 1.7 0 1.8.7 2.8 1.4 3.1.1.1.2.1.3.1v-1.8l-.7-.3v-1.2l2 1v4z"/></g><path d="m16.6 24.2-1.7.8v2l1.9-1v1.3l-3.3 1.7v-7.4l3.2-1.6v1.3l-1.8.9v1.7l1.7-.8z" fill="#fff"/><path d="m13.6 32.6 1.4-.7v6.1l1.9-1v1.2l-3.3 1.8z" fill="#fff"/><path d="m16.6 46.2-1.7.8v2l1.9-1v1.3l-3.3 1.7v-7.4l3.2-1.6v1.3l-1.8.9v1.7l1.7-.8z" fill="#fff"/><path d="m17 60.1c-.2.2-.6.5-1.1.7-1.9.9-2.8-.2-2.8-2.3 0-2.8 1.6-4.7 3-5.4.5-.3.9-.3 1-.3l-.2 1.3c-.2 0-.4 0-.7.2-.8.4-1.6 1.5-1.6 3.3s.7 2.1 1.6 1.7c.2-.1.5-.3.7-.5z" fill="#fff"/><path d="m14.3 66.5-1.3.7v-1.3l4.1-2v1.3l-1.3.7v6.1l-1.4.7v-6.2z" fill="#fff"/><path d="m13.1 76.9c.5-.3 1-.7 1.6-.9.8-.4 1.5-.6 2-.4s.6.6.6 1.2c0 .8-.4 1.7-1.1 2.4.5-.1.8.3.9 1 .1.8.3 1.6.5 1.8l-1.5.8c-.1-.2-.3-.8-.4-1.6-.1-.9-.4-1-.8-.8l-.2.1v3l-1.4.7v-7.3zm1.4 2.5.3-.1c.6-.3 1-1 1-1.6s-.3-1-.9-.7c-.1.1-.3.1-.3.2v2.2z" fill="#fff"/><path d="m15.7 86.5v7.4l-1.4.7v-7.4z" fill="#fff"/><path d="m17 104.1c-.2.2-.6.5-1.1.7-1.9.9-2.8-.2-2.8-2.3 0-2.8 1.6-4.7 3-5.4.5-.3.9-.3 1-.3l-.2 1.3c-.2 0-.4 0-.7.2-.8.4-1.6 1.5-1.6 3.3s.7 2.1 1.6 1.7c.2-.1.5-.3.7-.5z" fill="#fff"/><path d="m10 10v150l10-5v-150z" opacity=".29"/><path d="m5 18.5c-2.2-1.1-4-.2-4 2s1.8 4.9 4 6 4 .2 4-2-1.8-4.9-4-6zm0 7.1c-1.7-.9-3.1-2.9-3.1-4.7 0-.6.2-1.1.5-1.5l4.3 6.5c-.5.1-1.1 0-1.7-.3zm2.4 0-4.3-6.5c.5-.2 1.2-.1 1.9.3 1.7.9 3.1 2.9 3.1 4.7 0 .6-.3 1.2-.7 1.5z" fill="#2d3134"/><path d="m10 160-10-5v-150l10 5z" opacity=".11"/></svg>