<svg xmlns:xlink="http://www.w3.org/1999/xlink"  enable-background="new 0 0 100 100" height="100" viewBox="0 0 100 100" width="100" xmlns="http://www.w3.org/2000/svg"><path d="m100 64-40-20-60 30v6l40 20 60-30z" fill="#999"/><path d="m0 74 40 20v6l-40-20z" opacity=".11"/><path d="m60 46 36 18-4 2-32-16z" opacity=".11"/><path d="m100 64-60 30v6l60-30z" opacity=".29"/><path d="m60 46-56 28 4 2 52-26z" opacity=".29"/><path d="m65.8 59.6c3.8-1.5 8.3-5.6 4.9-8.3-4.5-3.6-10.7 1.1-14.1 3-5.1 2.7-6.5 6.2-4.3 7.2 2.1 1 6.1 1.1 13.5-1.9z" opacity=".2"/><path d="m69.4 49.7c-.1-.3-.3-.5-.5-.8-2-2.5-6.2-4.5-10-1.3s-2 3.8-3.8 4.7c-.3.2-.7.3-1 .4-.2-.9-.6-2-.6-2s-1.2.9-1.6 1.9c-.2.5-.3 1-.3 1.4-.3.3-.6.8-.8 1.4-1 2.6-1.5 4.9 0 5 1.2.1 2.2-1.2 3.6-1.3 1.9 0 4.1-1.4 4.1-1.4s.2 1.3-.5 1.9c-.6.5-.5 1.3.6.9s4.1-4.7 4.1-4.7l2.8-2.2s1.3.5.5 1.3.1 1.5 1.4.6c.8-.5 1.8-1.9 2.1-3.5.6.6 1.5 1.6 1 3-.7 2-8.9 5.5-8.9 5.5s4.9-1 8.6-3.3c3.9-2.1 1.1-6.6-.8-7.5z" fill="#e5e5e5"/><path d="m55 55.5s.5-.5 1.6-.5 1.9.5 1.9.5-.4 1.2-1.6 1.8c-1.2.5-1.4.3-1.4.3z" fill="#fff" opacity=".35"/><path d="m53.4 57.2c-.1 0 .6-.6.9-.4.2.2-.2 1-.9.4z" fill="#2d3134"/><path d="m50.3 60c-.3 0-.4-.7-.2-.9.2-.1.5-.1.6.2.2.2-.2.7-.4.7z" fill="#2d3134"/><path d="m60 12-56 28v34l56-28z" fill="#39c" opacity=".3"/><path d="m60 12 36 18v34l-36-18z" fill="#39c" opacity=".3"/><path d="m60 12-56 28v34l56-28z" opacity=".29"/><path d="m60 12 36 18v34l-36-18z" opacity=".11"/><path d="m96 64-36-18-56 28 36 18z" opacity=".1"/><path d="m46 60 20 10 14-7-20-10z" opacity=".2"/><path d="m60 38-14 7v15l6 3v-10l4 2 4 2v10l6 3 14-7v-15z" fill="#06547a"/><path d="m80 48-14 7v15l14-7z" opacity=".29"/><path d="m46 45v15l6 3v-10l8 4v10l6 3v-15z" opacity=".11"/><path d="m65.8 76.5c3.8-1.5 8.3-5.6 4.9-8.3-4.5-3.6-10.7 1.1-14.1 3-5.1 2.7-6.5 6.2-4.3 7.2 2.1 1 6.1 1.1 13.5-1.9z" opacity=".2"/><path d="m69.4 66.6c-.1-.3-.3-.5-.5-.8-2-2.5-6.2-4.5-10-1.3s-2 3.8-3.8 4.7c-.3.2-.7.3-1 .4-.2-.9-.6-2-.6-2s-1.2.9-1.6 1.9c-.2.5-.3 1-.3 1.4-.3.3-.6.8-.8 1.4-1 2.6-1.5 4.9 0 5 1.2.1 2.2-1.2 3.6-1.3 1.9 0 4.1-1.4 4.1-1.4s.2 1.3-.5 1.9c-.6.5-.5 1.3.6.9s4.1-4.7 4.1-4.7l2.8-2.2s1.3.5.5 1.3.1 1.5 1.4.6c.8-.5 1.8-1.9 2.1-3.5.6.6 1.5 1.6 1 3-.7 2-8.9 5.5-8.9 5.5s4.9-1 8.6-3.3c3.9-2.1 1.1-6.6-.8-7.5z" fill="#e5e5e5"/><path d="m55 72.4s.5-.5 1.6-.5 1.9.5 1.9.5-.4 1.2-1.6 1.8c-1.2.5-1.4.3-1.4.3z" fill="#fff" opacity=".35"/><path d="m53.4 74.1c-.1 0 .6-.6.9-.4.2.2-.2 1-.9.4z" fill="#2d3134"/><path d="m50.3 76.9c-.3 0-.4-.7-.2-.9.2-.1.5-.1.6.2s-.2.7-.4.7z" fill="#2d3134"/><path d="m32.8 74.7c2.9-2 5.7-5.1 3.3-6.7-4.2-2.7-8.9.6-11.9 2.2-4.5 2.4-5.7 5.4-3.7 6.2 1.9.9 8.4 1 12.3-1.7z" opacity=".2"/><path d="m34.7 67.1c2.5-1.3 2.4-2.4 2.3-2.8-.4-.9-2.2-1-3.1-1s-2.3-1-4.1-.2c-.3-.8-1.1-1.9-1.1-1.9s-.8 1.1-.9 1.9c0 .4 0 .9.1 1.2-.5.5-.6.9-.6.9s-13.1-1.2-11.4 7.6c.4 2.3 2 3.4 3.9 3.6 3.2.7 9.1 1.1 13.2-2 1.9-1.4 1.9-4.3 1.9-4.3s-.4 3.4-4.2 4.6c-1.4.4-3.2.7-4.9.9 1.5-.5 2.9-1.3 3.9-2 .5 0 2.2-.4 3-.9.9-.5 1-1-.3-.9-.4 0-.8 0-1.1 0 1-2.2.8-3.5 3.4-4.7z" fill="#e5e5e5"/><path d="m30.5 65.3s.2-.6.9-1.1 1.6-.5 1.6-.5.3 1.1-.3 2-.9.9-.9.9z" fill="#fff" opacity=".35"/><path d="m33.2 65.4c-.1 0 .6-.6.7-.4s-.1.8-.7.4z" fill="#2d3134"/><path d="m36.7 64.1c-.2-.2-.5-.6-.7-.3-.1.3.7.3.7.3z" fill="#2d3134"/><path d="m55.4 48.5c-3.8-1.5-8.3-5.6-4.9-8.3 4.5-3.6 10.7 1.1 14.1 3 5.1 2.7 6.5 6.2 4.3 7.2-2.1 1-6.1 1.1-13.5-1.9z" opacity=".2"/><path d="m51.8 38.6c.1-.3.3-.5.5-.8 2-2.5 6.2-4.5 10-1.3s2 3.8 3.8 4.7c.3.2.7.3 1 .4.2-.9.6-2 .6-2s1.2.9 1.6 1.9c.2.5.3 1 .3 1.4.3.3.6.8.8 1.4 1 2.6 1.5 4.9 0 5-1.2.1-2.2-1.2-3.6-1.3-1.9 0-4.1-1.4-4.1-1.4s-.2 1.3.5 1.9c.6.5.5 1.3-.6.9s-4.1-4.7-4.1-4.7l-2.8-2.2s-1.3.5-.5 1.3-.1 1.5-1.4.6c-.8-.5-1.8-1.9-2.1-3.5-.6.6-1.5 1.6-1 3 .7 2 8.9 5.5 8.9 5.5s-4.9-1-8.6-3.3c-3.9-2.1-1.1-6.6.8-7.5z" fill="#e5e5e5"/><path d="m66.2 44.4s-.5-.5-1.6-.5c-1 0-1.9.5-1.9.5s.4 1.2 1.6 1.8c1.2.5 1.4.3 1.4.3z" fill="#fff" opacity=".35"/><path d="m67.8 46.1c.1 0-.6-.6-.9-.4-.2.2.2 1 .9.4z" fill="#2d3134"/><path d="m70.9 48.9c.3 0 .4-.7.2-.9-.2-.1-.5-.1-.6.2-.2.2.2.7.4.7z" fill="#2d3134"/><path d="m40 76c-3.3 0-6 1.3-6 3v1.8c0 1.7 2.7 3 6 3s6-1.3 6-3v-1.8c0-1.7-2.7-3-6-3z" fill="#cc291f"/><path d="m40 82c-3.3 0-6-1.3-6-3v1.8c0 1.7 2.7 3 6 3s6-1.3 6-3v-1.8c0 1.7-2.7 3-6 3z" opacity=".2"/><ellipse cx="40" cy="79" opacity=".2" rx="4.8" ry="2.4"/><path d="m4 40 36 18v34l-36-18z" fill="#39c" opacity=".3"/><path d="m4 40 36 18v34l-36-18z" opacity=".11"/><path d="m96 30-56 28v34l56-28z" fill="#39c" opacity=".3"/><path d="m96 30-56 28v34l56-28z" opacity=".29"/><path d="m60 12-56 28 36 18 56-28zm-42 27 40-20 24 12-40 20z" fill="#39c" opacity=".3"/></svg>