<svg xmlns:xlink="http://www.w3.org/1999/xlink"  enable-background="new 0 0 20 20" height="20" viewBox="0 0 20 20" width="20" xmlns="http://www.w3.org/2000/svg"><path d="m14.8 17.4-12-6 4.8-2.4 12 6z" fill="#539b00"/><ellipse cx="15" cy="16.6" fill="#fc0" rx=".6" ry=".3"/><ellipse cx="15" cy="16.6" fill="#999" rx=".3" ry=".2"/><ellipse cx="17.9" cy="15.1" fill="#fc0" rx=".6" ry=".3"/><ellipse cx="17.9" cy="15.1" fill="#999" rx=".3" ry=".2"/><ellipse cx="4.5" cy="11.3" fill="#fc0" rx=".6" ry=".3"/><ellipse cx="4.5" cy="11.3" fill="#999" rx=".3" ry=".2"/><ellipse cx="7.4" cy="9.8" fill="#fc0" rx=".6" ry=".3"/><ellipse cx="7.4" cy="9.8" fill="#999" rx=".3" ry=".2"/><path d="m11 11.9-2.2 1.1 2.2 1.1 2.2-1.1z" opacity=".2"/><path d="m9.2 12.8v.2l1.8.9 1.8-.9v-.2l-1.8-.9z" fill="#2d3134"/><path d="m11 13.9-1.8-.9v-.2l1.8.9z" opacity=".11"/><path d="m11 13.7v.2l1.8-.9v-.2z" opacity=".29"/><path d="m8.2 11.2v.2l.8.4.8-.4v-.2l-.8-.4z" fill="#e5e5e5"/><path d="m9 11.8-.8-.4v-.2l.8.4z" opacity=".11"/><path d="m9 11.6v.2l.8-.4v-.2z" opacity=".29"/><path d="m13.6 13.8v.3l1 .5.8-.4v-.3l-1-.5z" fill="#e5e5e5"/><path d="m14.6 14.6-1-.5v-.3l1 .5z" opacity=".11"/><path d="m14.6 14.3v.3l.8-.4v-.3z" opacity=".29"/><path d="m13.2 14.6v.2l.4.2.4-.2v-.2l-.4-.2z" fill="#2d3134"/><path d="m13.6 15-.4-.2v-.2l.4.2z" opacity=".11"/><path d="m13.6 14.8v.2l.4-.2v-.2z" opacity=".29"/><path d="m13.1 13.2v.2l.4.2.4-.2v-.2l-.4-.2z" fill="#2d3134"/><path d="m13.5 13.6-.4-.2v-.2l.4.2z" opacity=".11"/><path d="m13.5 13.4v.2l.4-.2v-.2z" opacity=".29"/><path d="m13.8 14.9v.2l.2.1.4-.2v-.2l-.2-.1z" fill="#e5e5e5"/><path d="m14 15.2-.2-.1v-.2l.2.1z" opacity=".11"/><path d="m14 15v.2l.4-.2v-.2z" opacity=".29"/><path d="m12.8 14.4v.2l.2.1.4-.2v-.2l-.2-.1z" fill="#e5e5e5"/><path d="m13 14.7-.2-.1v-.2l.2.1z" opacity=".11"/><path d="m13 14.5v.2l.4-.2v-.2z" opacity=".29"/><path d="m12.6 14.9v.2l.4.2.4-.2v-.2l-.4-.2z" fill="#2d3134"/><path d="m13 15.3-.4-.2v-.2l.4.2z" opacity=".11"/><path d="m13 15.1v.2l.4-.2v-.2z" opacity=".29"/><path d="m13.4 15.3v.2l.6.3.4-.2v-.2l-.6-.3z" fill="#2d3134"/><path d="m14 15.8-.6-.3v-.2l.6.3z" opacity=".11"/><path d="m14 15.6v.2l.4-.2v-.2z" opacity=".29"/><g fill="#fc0"><path d="m5 12.2-.4-.2.4-.2.4.2z"/><path d="m5.8 12.6-.4-.2.4-.2.4.2z"/><path d="m6.6 13-.4-.2.4-.2.4.2z"/><path d="m7.4 13.4-.4-.2.4-.2.4.2z"/><path d="m8.2 13.8-.4-.2.4-.2.4.2z"/><path d="m9 14.2-.4-.2.4-.2.4.2z"/><path d="m9.8 14.6-.4-.2.4-.2.4.2z"/><path d="m10.6 15-.4-.2.4-.2.4.2z"/><path d="m11.4 15.4-.4-.2.4-.2.4.2z"/><path d="m12.2 15.8-.4-.2.4-.2.4.2z"/><path d="m13 16.2-.4-.2.4-.2.4.2z"/><path d="m13.8 16.6-.4-.2.4-.2.4.2z"/><path d="m8.8 10.3-.4-.2.4-.2.4.2z"/><path d="m9.6 10.7-.4-.2.4-.2.4.2z"/><path d="m10.4 11.1-.4-.2.4-.2.4.2z"/><path d="m11.2 11.5-.4-.2.4-.2.4.2z"/><path d="m12 11.9-.4-.2.4-.2.4.2z"/><path d="m12.8 12.3-.4-.2.4-.2.4.2z"/><path d="m13.6 12.7-.4-.2.4-.2.4.2z"/><path d="m14.4 13.1-.4-.2.4-.2.4.2z"/><path d="m15.2 13.5-.4-.2.4-.2.4.2z"/><path d="m16 13.9-.4-.2.4-.2.4.2z"/><path d="m16.8 14.3-.4-.2.4-.2.4.2z"/><path d="m17.6 14.7-.4-.2.4-.2.4.2z"/></g><path d="m18 14.9v.9l-1.6.8-1.6-.8v-.9l1.6-.8z" fill="#e5e5e5"/><path d="m16.4 16.6 1.6-.8v-.9l-1.6.8z" opacity=".29"/><path d="m16.4 15.7v.9l-1.6-.8v-.9z" opacity=".11"/><path d="m16.7 15.8v.4l1-.5v-.4z" opacity=".3"/></svg>