<svg xmlns:xlink="http://www.w3.org/1999/xlink"  enable-background="new 0 0 80 120" height="120" viewBox="0 0 80 120" width="80" xmlns="http://www.w3.org/2000/svg"><path d="m24 96 12.5 6.3c4.7 2.3 10.2 2.3 14.9 0l4.3-2.1c1.3-.6 1.9-1.9 1.9-3.1 0-3.1-.3-4.2-1.9-5l-13.7-6.9-18 8.8z" fill="#2d3134"/><path d="m55.7 98.1-4.3 2.1c-4.7 2.3-10.2 2.3-14.9 0l-12.5-6.2v2l12.5 6.3c4.7 2.3 10.2 2.3 14.9 0l4.3-2.1c1.3-.6 1.9-1.9 1.9-3.1 0-.6 0-1 0-1.5-.1 1-.8 2-1.9 2.5z" opacity=".2"/><path d="m34 90v7l2 1 14-7v-7l-2-1z" fill="#2d3134"/><path d="m34 90v7l2 1v-7z" opacity=".11"/><path d="m50 84-14 7v7l14-7z" opacity=".29"/><path d="m0 42v68l2 1 78-39v-68l-2-1z" fill="#2d3134"/><path d="m4 44 74-37v60l-74 37z" fill="#36c"/><path d="m4 44 74-37v51z" fill="#fff" opacity=".15"/><path d="m80 4-78 39v68l78-39z" opacity=".29"/><path d="m0 42v68l2 1v-68z" opacity=".11"/><path d="m44 86.8c0 1.1-.9 2.4-2 3s-2 .1-2-1 .9-2.4 2-3 2-.1 2 1z" opacity=".2"/></svg>