<svg xmlns:xlink="http://www.w3.org/1999/xlink"  enable-background="new 0 0 160 200" height="200" viewBox="0 0 160 200" width="160" xmlns="http://www.w3.org/2000/svg"><path d="m122.6 88.3-8.3.2 4.3 4.3z" fill="#999"/><path d="m98.3 57.5-38 2.2-.7 4.9-6.6 11.1-10.7 9-16.6 33.6-11 11.4-13.5 22.8 3.1 11 11.6 13.9 10.1-2 19.3 7.9 5.4 7.7 9.2-2.3 18.2 7.7 7.3 1.6 17-9.3 21.7-1.5 15.4-17.8 12.4-4.7 6.8-7.1-36.1-69.3-4 4.5-10.6-21.8-5.7-4.3z" fill="#999"/><path d="m158.7 157.6-36.1-69.3-4 4.5z" opacity=".1"/><path d="m53 75.7-3.3 4.6 12.6 3-4.7-11z" opacity=".1"/><path d="m14.7 129.7 4.9 11.8 16.5-3.7 2.5 11 3.5 12 12.7 11.2 12.3-30.2 2.2 5 .3 27.5 4.4-17.3 7.1 16.8 10.5-4.8 10-11.2 10-.8 2.2 13.8 1.3-11.1 4 .6 4.7-17.8 19.8-10.2v-4l15.1 29.3-6.8 7.1-12.4 4.7-15.4 17.8-21.7 1.5-17 9.3-7.3-1.6-18.2-7.7-9.2 2.3-5.4-7.7-19.3-7.9-10.1 2-11.6-13.9-3.1-11z" opacity=".1"/><path d="m101.6 157.8.8 30.9-17 9.3 6.2-29z" opacity=".1"/><path d="m124.1 187.2 15.4-17.8-15.7-26.9-4.7 17.8z" opacity=".1"/><path d="m151.9 164.7 6.8-7.1-13.6-7.8-1.5-17.5-3.5 21z" opacity=".1"/><path d="m50.7 191 9.2-2.3 7.2-46.9-12.3 30.2z" opacity=".1"/><path d="m85.4 198-7.3-1.6 3-22.6z" opacity=".1"/><path d="m26 175.4-10.1 2 20.2-39.6 2.5 11z" opacity=".1"/><path d="m45.3 183.3-3.2-22.5 4.2 3.2z" opacity=".1"/><path d="m4.3 163.5 15.3-22 14.7-11.5-19.6-.3z" opacity=".1"/><path d="m83.2 70.8-7.5 23.5 7.9 38-8.9 12-2.6-44z" opacity=".1"/><path d="m59.3 99.3 3-16-21 25.3z" opacity=".2"/><path d="m50.6 158.8 19.4-58.1-10.7 20.3-5.2 5.5z" opacity=".2"/><path d="m64.6 65.7.9 11.4 2-6.4 2.7-4z" opacity=".1"/><path d="m25.7 118.3 14.1 4 10.8 36.5 3.5-32.3-12.8-17.9 2.3-7.1-5 2.9 4.2-13.8-.5-5.9z" opacity=".1"/><path d="m101.6 157.8-10.8-9.8 17-13.2z" opacity=".2"/><path d="m74.7 144.3 8 5.5 8.1-1.8 10.8 9.8-9.3-.7-14.3-7z" opacity=".1"/><path d="m92.8 120.1-13-17.1 12.2 22.8 15.8 9z" opacity=".2"/><path d="m123.8 142.5 8.8-26.7-10.5 12-7.5 2.7 5.6 2.9z" opacity=".1"/><path d="m108 71 4.3 8.8-.7 15.7 7.5 5-12.8-5z" opacity=".1"/><path d="m122.6 113.3-8 17.2-4-16.7-4.3-18.3 9 16.5z" opacity=".1"/><path d="m106.3 95.5-13 7 13.8 12.5 7.2 28.3.3-12.8z" opacity=".2"/><path d="m107.1 115-27.5-19.5 13.7 7z" opacity=".1"/><path d="m82.7 149.8-8-5.5 3.3 5.8 14.3 7z" opacity=".1"/><path d="m111.6 157 2.2 13.8.7-22.5z" opacity=".2"/><path d="m69.3 146.8.3 27.5 3.6-42z" opacity=".2"/><path d="m46.5 88.8-7.9 15.6 4.2-13.8z" opacity=".2"/><path d="m43.6 101.5-5 2.9 1.2 17.9 1.5-13.7z" opacity=".2"/><path d="m122.1 127.8 1.7 14.7 8.8-26.7z" opacity=".1"/><path d="m83.6 132.3-11.5-32 3.6-6z" opacity=".1"/><path d="m94.1 67.8-.5 4.5-1.1-5.7z" opacity=".1"/><path d="m99.7 62.5 2.6 4.2-4-9.2-.8 1.8z" opacity=".1"/><path d="m83.2 70.8 4.9-3.7-2.5 10.5z" opacity=".1"/><path d="m60.3 59.7s-.4 1.7-1.9 4.6c-1.6 3-6 9-5.9 11.4.1 2.1 3.9-2.7 5.3-3.9l1.2-.8c1.1-.7 2.6 0 2.8 1.3.3 2.8.7 7 1.1 10.8.2 2 2.9 2.3 3.6.4l2.6-7.7c.4-1.2 2.2-.9 2.2.4l-.1 15.1c0 1.9 2.7 2.3 3.3.5l2.1-7.6c.5-1.7 2.7-2.1 3.7-.6.8 1.2 2.7.9 3.1-.5l.5-1.9c.5-2 3.3-2.1 4-.2l5.1 15.3c.5 1.4 2.6.9 2.5-.5l-2.7-22.6c-.1-1.1 1.3-1.6 1.9-.7l2.2 2.9c1.4 1.9 4.4 1 4.6-1.3l.2-2.1c.2-1.8 2-2.8 3.6-2 0 0 2.2 1.8 2.6 1.4 1.3-1.2-3-4.8-5.9-8.8-2.8-3.8-4.8-7.5-4.8-7.5z" fill="#f90"/><path d="m105.7 66.7c-.4.4-2.4-1.3-2.4-1.3-1.4-.7-3.2.2-3.3 1.8l-.2 2c-.2 2.2-2.9 3-4.3 1.2l-2-2.7c-.6-.8-1.8-.3-1.8.7l2.5 20.9c.1 1.4-1.8 1.8-2.3.5l-4.8-14.1c-.7-1.8-3.2-1.7-3.7.2l-.4 1.8c-.4 1.3-2.1 1.6-2.9.5-.9-1.4-3-1-3.5.6l-1.9 7c-.5 1.7-3 1.4-3-.4l.1-14c0-1.2-1.7-1.5-2-.3l-2.4 7.1c-.6 1.7-3.1 1.4-3.3-.4-.3-3.5-.7-7.4-1-10-.1-1.2-1.5-1.9-2.5-1.2l-1.1.7c-1.3 1.1-4.8 5.5-4.9 3.6-1.1 1.9-2 3.7-1.9 4.8.1 2.1 3.9-2.7 5.3-3.9l1.2-.8c1.1-.7 2.6 0 2.8 1.3.3 2.8.7 7 1.1 10.8.2 2 2.9 2.3 3.6.4l2.6-7.7c.4-1.2 2.2-.9 2.2.4l-.1 15.1c0 1.9 2.7 2.3 3.3.5l2.1-7.6c.5-1.7 2.7-2.1 3.7-.6.8 1.2 2.7.9 3.1-.5l.5-1.9c.5-2 3.3-2.1 4-.2l5.1 15.3c.5 1.4 2.6.9 2.5-.5l-2.7-22.6c-.1-1.1 1.3-1.6 1.9-.7l2.2 2.9c1.4 1.9 4.4 1 4.6-1.3l.2-2.1c.2-1.8 2-2.8 3.6-2 0 0 2.2 1.8 2.6 1.4.7-1-.6-2.6-2.4-4.7z" fill="#cc291f" opacity=".5"/><path d="m90.2 47.7s4.5-12 7.2-10.5-5.1 5.5-7.2 10.5z" fill="#f90"/><path d="m66.9 47.7s-4.9-9.4-7.5-7.2c-2.5 2.2 5.1 3.8 7.5 7.2z" fill="#f90"/><path d="m97.5 59.3.8-1.8-1.1-2.7-5.3-1.4-8.7-2.5-14.5 1.3-4.7 1.9-.8 2.5-2.9 3.1 4.3 6 5.6 1 1.6.9 6.9 2.9 2-1.3 2.5 1.6 4.9-3.7 4.4-.5 1.6 1.2 3.8-1.7 1.8-3.6z" fill="#f90"/><path d="m97.5 59.3.8-1.8-1.1-2.7-5.3-1.4-8.7-2.5-14.5 1.3-4.7 1.9-.8 2.5-2.9 3.1 4.3 6 5.6 1 1.6.9 6.9 2.9 2-1.3 2.5 1.6 4.9-3.7 4.4-.5 1.6 1.2 3.8-1.7 1.8-3.6z" fill="#fc0" opacity=".5"/><path d="m80.6 66.7-2.1 1.6-5.8-2.5-1.8-1-5.2-.9-2.8-4.1 2-2.2.7-2 3.6-1.4 13.8-1.2 8.4 2.3 4.4 1.1.3 1-.9 2.1 2.1 3.1-.9 2-2 .9-1.4-1-5.7.6-4.2 3.2z" fill="#cc291f" opacity=".5"/><path d="m91.4 57.3-8.4-2.3-13.8 1.2-3.6 1.4-.7 2-1.2 1.4 2 2.9 5.2.9 1.8 1 5.8 2.5 2.1-1.6 2.5 1.6 4.2-3.2 5.7-.6 1.4 1 2-.9.9-2-2.1-3.1.5-1.1z" fill="#f90" opacity=".5"/><path d="m83.8 57.5-13.8 1.2-4.4 2.8-.5 1.5.6.9 5.2.9 1.8 1 5.8 2.5 2.1-1.6 2.5 1.6 4.2-3.2 5.7-.6 1.4 1 1.7-.8-.4-2.4-4.3-1.1z" fill="#f90"/><path d="m83 60.1-9.6.9-7.3 2.9 4.8.9 1.8 1 5.8 2.5 2.1-1.6 2.5 1.6 4.2-3.2 5.7-.6 1.4 1 1.2-.6-2.8-1.4z" fill="#fc0" opacity=".5"/><path d="m70.4 64.7.5.1 1.8 1 5.8 2.5 2.1-1.6 2.5 1.6 4.2-3.2 3.6-.4-7.1-2.4-9.6.9z" fill="#fc0"/><path d="m94 59.1s10.5-14 13.1-10.5-9.6 4.1-13.1 10.5z" fill="#f90"/><path d="m82.4 56.6s-3-16.3-7.7-14.5c-4.6 1.8 5.6 9.4 7.7 14.5z" fill="#f90"/><path d="m67.7 57.7s-14.7-8.9-15.8-4.8c-1.1 4.2 7.7.2 15.8 4.8z" fill="#f90"/><path d="m107.4 68.9c.1.3 0 .6-.2.8-.5.4-2.6-1.3-2.6-1.3-1.5-.8-3.3.2-3.5 1.9l-.2 2.1c-.2 2.3-3.1 3.1-4.5 1.3l-2.1-2.8c-.6-.8-1.9-.3-1.9.7l2.6 21.9c.1 1.4-1.9 1.9-2.4.5l-5-14.8c-.7-1.9-3.4-1.8-3.9.2l-.5 1.9c-.4 1.4-2.2 1.7-3 .5-1-1.4-3.2-1-3.6.6l-2 7.4c-.5 1.8-3.2 1.4-3.2-.4l.1-14.7c0-1.2-1.7-1.5-2.1-.4l-2.4 7.4c-.6 1.8-3.3 1.5-3.5-.4-.4-3.7-.8-7.8-1-10.5-.1-1.3-1.6-2-2.7-1.3l-1.2.8c-1.4 1.1-5.1 5.8-5.2 3.8 0-.9.6-2.4 1.5-4-1.3 2.2-2.4 4.4-2.4 5.6.1 2.1 3.9-2.7 5.3-3.9l1.2-.8c1.1-.7 2.6 0 2.8 1.3.3 2.8.7 7 1.1 10.8.2 2 2.9 2.3 3.6.4l2.6-7.7c.4-1.2 2.2-.9 2.2.4l-.1 15.1c0 1.9 2.7 2.3 3.3.5l2.1-7.6c.5-1.7 2.7-2.1 3.7-.6.8 1.2 2.7.9 3.1-.5l.5-1.9c.5-2 3.3-2.1 4-.2l5.1 15.3c.5 1.4 2.6.9 2.5-.5l-2.7-22.6c-.1-1.1 1.3-1.6 1.9-.7l2.2 2.9c1.4 1.9 4.4 1 4.6-1.3l.2-2.1c.2-1.8 2-2.8 3.6-2 0 0 2.2 1.8 2.6 1.4.6-.7.3-1.5-.5-2.5z" fill="#cc291f"/><g fill="#656565"><path d="m103.5 13.3c-2.7-4.8-7.9-8.1-13.8-8.1-2.1 0-4.2.4-6 1.2-2.1-3.1-5.7-5.1-9.7-5.1-3.6 0-6.8 1.6-9 4.2-.9-.1-1.9-.2-2.8-.2-8.2 0-15.2 5-18.2 12.1-5.4 1.1-9.4 5.9-9.4 11.6 0 6.5 5.3 11.9 11.9 11.9 1.2 0 2.3-.2 3.3-.5 3.4 2.8 7.7 4.4 12.5 4.4 4.2 0 8.1-1.3 11.3-3.6 2.2 2.2 5.1 3.6 8.5 3.6 5.3 0 9.8-3.5 11.3-8.3 1-.2 2-.6 3-1 1.6.9 3.5 1.3 5.5 1.3 6.5 0 11.9-5.3 11.9-11.9-.3-5.8-4.6-10.7-10.3-11.6z" opacity=".4"/><path d="m55.4 29c.2.3.5.7.8 1 3.2 3.2 8.5 3.2 11.8 0 1.8-1.8 2.6-4.3 2.4-6.8 1.3-.5 2.5-1.2 3.6-2.2 3.7-3.7 3.7-9.7 0-13.4s-9.7-3.7-13.4 0c-1.3 1.3-2.2 2.9-2.5 4.6-3.9-3.4-9.9-3.2-13.6.5-3.9 3.9-3.9 10.3 0 14.2 2.9 2.9 7.3 3.6 10.9 2.1z" opacity=".3"/><path d="m113.9 33.1c0-6.6-4.4-12.1-10.3-13.9-1.8-6-7.4-10.3-13.9-10.3-4.9 0-9.2 2.4-11.9 6.2-1.8-4.3-6.1-7.4-11.2-7.4-6.3 0-11.5 4.8-12.1 11-1.4-.1-2.9-.1-4.4.4-5.3 1.5-9.2 6.5-9 12 .2 6.5 5.5 11.8 12.1 11.8h.7c3-.2 5.8.9 8.2 2.7 1.1.9 2.4 1.6 3.8 2.1 6.1 5.3 10.6 12.3 12.7 20.1l1.9-1.3 1.8 1.3.1-.5c2.7-9.3 9.8-21 18.9-24.2 7-2.2 12.6-5.4 12.6-10z" opacity=".3"/><path d="m117.2 13.8c-2-.6-3.9-.4-5.6.2-2.6-4.4-7.4-7.4-12.9-7.4-4.4 0-8.3 1.9-11 4.9-1.7-4.9-6.4-8.4-11.8-8.4-6 0-11.1 4.3-12.3 9.9-1.8-1.5-4.3-2.3-6.9-1.8-3.4.6-6.2 3.3-6.9 6.7-1.1 5.5 3.1 10.3 8.4 10.3 2 0 3.8-.7 5.3-1.8 1.6-1.3 4-1.2 5.7-.1 1.9 1.2 4.2 1.9 6.7 1.9 2.1 0 4-.5 5.7-1.4 1.4-.7 3.2-.2 3.9 1.2 2.4 4.9 7.5 8.2 13.3 8.2 3.7 0 7.1-1.4 9.7-3.6 1.2-1 2.7-1.5 4.3-1.2.7.1 1.3.2 2 .2 5.6 0 9.9-4.9 9-10.7-.6-3.2-3.3-6.1-6.6-7.1z" opacity=".4"/></g></svg>