<svg xmlns:xlink="http://www.w3.org/1999/xlink"  enable-background="new 0 0 112 88" height="88" viewBox="0 0 112 88" width="112" xmlns="http://www.w3.org/2000/svg"><path d="m38.9 83.3-15.7-9.3-10-.1-9.9-15.1 9.9-15.1 25.7-9.3h31.7l25.7 9.3 9.8 15.1-9.8 15.1h-11.1l-4.9-2.6-11.5 10.6z" fill="#999"/><path d="m51 46.7-25.9 2.8-6.8-10.4 6.8-6.1 17.8-10.9h22l17.9 6.5 8.5 14.2-8.5 6.7-17.5 3.5z" fill="#9c3"/><g fill="#999"><path d="m12.4 41.5 12.7-8.5 1.8-6.7 9.9-10.8 6.1 6.6-17.8 27.4-21.8 9.3z"/><path d="m52 3.9 2.4 8.9-3.4 33.9-8.1-24.6z"/><path d="m82.8 28.6 13.5 15.1 9.8 15.1-9.8 15.1-5-31.1z"/></g><path d="m96.3 73.9 9.8-15.1-14.8-16 5.2 11.7z" opacity=".1"/><path d="m82.8 49.5-4.8 16.3 2.3 5.5 4.9 2.6-3.4-8.1z" opacity=".1"/><path d="m38.9 83.3 29.9-1.4-3.5-28.9-6 14.3z" opacity=".1"/><path d="m23.2 74 27.8-27.3-4.1-32.9-10.1 1.7-4.4 9.5-12.4 22.3z" fill="#999"/><path d="m13.2 73.9 6.8-26.6 3.2 26.7z" opacity=".1"/><path d="m25.1 49.5 8.3-21.6 6.7-8.2-3.3-4.2 6.5 3.7z" opacity=".1"/><path d="m62.2 13.4-7.8-.6-2.4-8.9 3.9 5.2z" fill="#999"/><path d="m38.9 83.3 12.1-36.6-4.1-32.9-3.8 24.8 3.1 5.7-11.6 15.8 10-5.3z" opacity=".1"/><path d="m51 46.7 14.5-3.5-5.7-10.4 13.1-7.6-9.2-14.8-1.5 3-7.8-.6z" fill="#999"/><path d="m59.8 32.8 13.1-7.6-10.7-11.8 1.5 10.1z" opacity=".1"/><path d="m65.5 43.2-12.8-14.9 1.7-15.5 5.4 20z" opacity=".1"/><path d="m55.9 9.1-1.5 3.7-2.4-8.9 4.3 5.7z" opacity=".1"/><path d="m55.9 9.1 7.8 1.3-1.5 3z" fill="#9c3"/><path d="m36.8 15.5 6.5 3.7 3.6-5.4z" fill="#9c3"/><path d="m20 47.3 5.6 12.7 9 .1-7.5-4.8z" fill="#9c3"/><path d="m38.9 83.3-4.3-23.2-9-.1z" opacity=".1"/><path d="m25.6 60 9 .1 10-5.3 6.4-8.1 8.3 20.6 9.5 14.6-29.9 1.4z" opacity=".1"/><path d="m26.9 26.3-1.8 6.7 8.3-5.1-8.3 21.6 18.2-30.3-3.2.5z" opacity=".1"/><path d="m59.8 32.8-7.1-4.5-1.7 18.4 14.5-3.5z" opacity=".1"/><path d="m68.8 81.9 11.5-10.6 4.9 2.6h11.1l9.8-15.1-9.8 9.3-14.5-2.3h-3.8z" opacity=".1"/><path d="m12.4 41.5-9.1 17.3 9.9 15.1-1.9-23.5 13.8-17.4z" opacity=".1"/><path d="m3.3 58.8 9.9 15.1-1.9-23.5z" opacity=".1"/></svg>