<svg xmlns:xlink="http://www.w3.org/1999/xlink"  enable-background="new 0 0 160 104" height="104" viewBox="0 0 160 104" width="160" xmlns="http://www.w3.org/2000/svg"><g fill="#999"><path d="m47.1 10.1-31.4 39.5 40-35.7z"/><path d="m33 15.8-30.1 40.6 155.8 5.1-7.1-13.2-19.3-30.5z"/><path d="m51.8 94.6-5.3-7.7-19.1-7.8-10 2-11.5-13.7-3-11 19.4-5.4.7-6.6 34.5-10.5h50.3l33.2 9.4-.6 6.2 18.3 12-6.8 7.1-12.2 4.6-15.3 17.6-21.4 1.5-16.8 9.2-7.2-1.6-18-7.6z"/></g><path d="m22.2 32.4-19.3 24 3 11 17.8-29.6z" opacity=".1"/><path d="m22.2 32.4-19.3 24 3 11 17.8-29.6z" fill="#999"/><path d="m139.7 73.2-5.6-21.6-11.1 4.9 1.4 34.3 13.6-10.8z" fill="#999"/><path d="m138 80-13.6 10.8-1.4-34.3 6.1 25.1z" opacity=".1"/><path d="m79 99.9-3.8-14.9 7.6-24.3-6.3-1.4.5 5.5-16 27.5z" opacity=".1"/><path d="m118.1 53-9.3 28.1 5.1-25.6z" opacity=".1"/><path d="m22.2 32.4 8.4-9.2-5.9 4.7-21.8 28.5z" opacity=".1"/><path d="m139.5 40.7 3 8.6 16.2 12.2-7.1-13.2-18.7-16.9z" opacity=".1"/><path d="m14.8 53.5-.8-10.8 5.9 8.1 14 6.7 13.5 2.7-26.5 1.4z" fill="#9c3"/><path d="m47.4 60.2-20 18.9-10 2 3.5-19.5z" opacity=".1"/><path d="m99 88 3.2-5.5-4.2 2.7-22.8-.2 12.9 7.3z" fill="#9c3"/><path d="m135.5 25.9 16.1 22.4-19.3-30.5z" opacity=".1"/><path d="m139.7 73.2-1.7 6.8-3.9-28.4z" opacity=".1"/><path d="m17.4 81.1 10-2 19.1 7.8-2.8-18.9 3.7-7.8-26.5 1.4-6.1-8.1-8.9 13.9z" opacity=".1"/><path d="m61 92.3 14.2-7.3 12.9 7.3 10.9-4.3 4 4.3-16.8 9.2-7.2-1.6z" opacity=".1"/><path d="m124.4 90.8 4.7-9.2 8.1-7.7 1-5.8 7.6-4.9-3.3-13.9 9.1-1 7.1 13.2-6.8 7.1-12.2 4.6-1.7 6.8z" opacity=".1"/><path d="m132.9 31.4 2.6-5.5-3.2-8.1-15.8-4.2-9.9-5.3-16.2-2-43.3 3.8 8.6 3.8-22.7 1.9-2.4 7.4-8.4 9.2 1.5 5.4 11.1 12.5 16.8 3.2 4.7 2.7 20.7 8.6 5.8-4.1 7.6 4.8 14.5-11.1 9 1.1 4.2-2.5 4.9 3.5 11.1-4.9 5.4-10.9z" fill="#9c3"/><path d="m14 42.7 5.9 8.1 3.8-13z" opacity=".1"/><path d="m46.5 86.9 5.3 7.7 9.2-2.3-6.4-25.7 1.7-10.4-4.7-2.7z" opacity=".1"/><path d="m51.6 53.5.2 41.1 9.2-2.3-6.4-25.7 1.7-10.4z" opacity=".1"/><path d="m34.8 50.3-.9 7.2 17.7-4z" opacity=".1"/><path d="m88.1 92.3-1.9 9.2 16.8-9.2 1.9-37.9-14.5 11.1 11.8 17-3.2 5.5z" opacity=".1"/><path d="m103 92.3 10.3-10.5 5.8-1.9 5.3 10.9z" opacity=".1"/><path d="m138 80 1.7-6.8 12.2-4.6-6.1-5.4-11.7-11.6z" opacity=".1"/></svg>