<svg xmlns:xlink="http://www.w3.org/1999/xlink"  enable-background="new 0 0 40 40" height="40" viewBox="0 0 40 40" width="40" xmlns="http://www.w3.org/2000/svg"><path d="m24.3 35.1c3.8-1.5 8.3-5.6 4.9-8.3-4.5-3.6-10.7 1.1-14.1 3-5.2 2.7-6.6 6.2-4.4 7.2 2.2.9 6.3 1 13.6-1.9z" opacity=".2"/><path d="m28 25.2c-.1-.3-.3-.5-.5-.8-2-2.5-6.2-4.5-10-1.3s-2 3.8-3.8 4.7c-.3.2-.7.3-1 .4-.2-.9-.6-2-.6-2s-1.2.9-1.6 1.9c-.2.5-.3 1-.3 1.4-.2.5-.5.9-.7 1.5-1 2.6-1.5 4.9 0 5 1.2.1 2.2-1.2 3.6-1.3 1.9 0 4.1-1.4 4.1-1.4s.2 1.3-.5 1.9c-.6.5-.5 1.3.6.9s4.1-4.7 4.1-4.7l2.8-2.2s1.3.5.5 1.3.1 1.5 1.4.6c.8-.5 1.8-1.9 2.1-3.5.6.6 1.5 1.6 1 3-.7 2-8.9 5.5-8.9 5.5s4.9-1 8.6-3.3c3.7-2.2.9-6.7-.9-7.6z" fill="#e5e5e5"/><path d="m13.5 31s.5-.5 1.6-.5 1.9.5 1.9.5-.4 1.2-1.6 1.8-1.4.2-1.4.2z" fill="#fff" opacity=".35"/><g fill="#2d3134"><path d="m12 32.7c-.1 0 .6-.6.9-.4.2.2-.2.9-.9.4z"/><path d="m8.8 35.5c-.3 0-.4-.7-.2-.9.2-.1.5-.1.6.2.2.2-.2.7-.4.7z"/></g></svg>