<svg xmlns:xlink="http://www.w3.org/1999/xlink"  enable-background="new 0 0 40 40" height="40" viewBox="0 0 40 40" width="40" xmlns="http://www.w3.org/2000/svg"><path d="m26.2 35.5c2.9-2 5.7-5.1 3.3-6.7-4.2-2.7-8.9.6-11.9 2.2-4.5 2.4-5.7 5.4-3.7 6.2 1.8.9 8.4 1.1 12.3-1.7z" opacity=".2"/><path d="m28 27.9c2.5-1.3 2.4-2.4 2.3-2.8-.4-.9-2.2-1-3.1-1s-2.3-1-4.1-.2c-.4-.9-1.1-1.9-1.1-1.9s-.8 1.1-.9 1.9c0 .4 0 .9.1 1.2-.5.5-.6.9-.6.9s-13.1-1.1-11.5 7.7c.4 2.3 2 3.4 3.9 3.6 3.2.7 9.1 1.1 13.2-2 1.9-1.4 1.9-4.3 1.9-4.3s-.4 3.4-4.2 4.6c-1.4.4-3.2.7-4.9.9 1.5-.5 2.9-1.3 3.9-2 .5 0 2.2-.4 3-.9.9-.5 1-1-.3-.9-.4 0-.8 0-1.1 0 1.1-2.2 1-3.5 3.5-4.8z" fill="#e5e5e5"/><path d="m23.9 26.1s.2-.6.9-1.1 1.6-.5 1.6-.5.3 1.1-.3 2-.9.9-.9.9z" fill="#fff" opacity=".35"/><g fill="#2d3134"><path d="m26.5 26.2c-.1 0 .6-.6.7-.4.3.2-.1.9-.7.4z"/><path d="m30.1 25c-.2-.2-.5-.6-.7-.3-.1.3.7.3.7.3z"/></g></svg>