<svg xmlns:xlink="http://www.w3.org/1999/xlink"  enable-background="new 0 0 20 20" height="20" viewBox="0 0 20 20" width="20" xmlns="http://www.w3.org/2000/svg"><path d="m8.7 6.9-.9.6s-4-6-3.7-7.2c.3-1.3 4.6 6.6 4.6 6.6z" fill="#539b00"/><path d="m8 6.4-.8.6s-4.9-5.3-4.7-6.6c.1-1.2 5.5 6 5.5 6z" fill="#539b00"/><path d="m8 5-.3-.3-1.9 1.1.2.4c.3.7.1 1.5-.4 2.1-2 2.5-2.2 6.2 0 9 1.8 2.2 4.9 3.1 7.7 2.2 4.4-1.5 6.1-6.5 3.9-10.2-1.5-2.6-4.4-3.9-7.2-3.4-.8 0-1.5-.3-2-.9z" fill="#f90"/><path d="m7 16.1c-2-2.4-2.3-5.4-1.3-8 0 0 0 .1-.1.1-2 2.5-2.2 6.2 0 9 1.8 2.2 4.9 3.1 7.7 2.2.5-.2.9-.4 1.4-.6-2.8.6-5.8-.4-7.7-2.7z" opacity=".15"/><ellipse cx="15.5" cy="18" fill="#656565" rx=".4" ry="1.9" transform="matrix(.6427 .7662 -.7662 .6427 19.3183 -5.4193)"/></svg>