<svg xmlns:xlink="http://www.w3.org/1999/xlink"  enable-background="new 0 0 160 240" height="240" viewBox="0 0 160 240" width="160" xmlns="http://www.w3.org/2000/svg"><path d="m107.7 228.8c10.8-6.7 11.6-14.6-2.4-22.1-15.4-8.3-24.4-6.5-36.4.4-10.5 6.1-8.1 14.3 9.6 21.4 14.3 5.7 21.5 5 29.2.3z" opacity=".2"/><path d="m101.2 144.9s-8.4 19.1-8.8 23-.7 24.5-.7 30.4c0 5.8 1.2 16 3.3 18s6.7 2.5 9 3c2.5.5 2.3 2.2 1.8 2.8-.4.6-5.4 1.1-5.4 1.1s4.6.6 5.3 1.7-1.3 1.6-3.3 1.6c-1.1 0-7.1-.7-9.4-1s-5.5-1.1-5.5-3.4.6-28.3-.7-33.9c-1.3-5.5-2.3-13.4-1.3-19.2s-3.7-21.1-3.7-21.1z" fill="#fbd7c7"/><path d="m62.3 150.4s2.1 12.4 3.1 16.9c1 4.6.6 8.8.7 11.1s3.1 13.5 3.6 19.5-1.5 12.6 1 14.8c2.2 1.9 5.8 1.4 7.8 1.6 2 .1 4.8-.1 4.8-1.3 0-1.1-5.5-1.7-5.5-1.7s8.2-.1 7.6-2.8c-.2-1.1-8.2-1.1-9.9-2.6-1.3-1.2-2.8-8-3-15-.1-7 .3-15.6.3-18.2s4.4-24.2 4.4-24.2z" fill="#fbd7c7"/><path d="m130 30.1 9 2.5-9.9 3.8z" fill="#f90"/><path d="m124.1 22.9c-5.1-.3-10.9 3.8-7.6 15.4 3.1 10.9 5.5 29.3 1.7 39.8s-10.3 16.3-10.3 16.3l14.5 11.3s9.1-12.5 8.2-27.4-5.6-35.6-3.2-39.2c2.3-3.6 3.6-3.9 4.3-6.9s-1.1-8.8-7.6-9.3z" fill="#fbd7c7"/><path d="m128.6 29.9s.5-1.4 1.6-1.4 1.3 2.2.5 2.3-2.1-.9-2.1-.9z" fill="#2d3134"/><path d="m127.7 96.1c-6-1.7-10.9-4.3-14.7-8.5-.9 1.6-2.5 2.8-2.8 2.7-9-3.6-20.1-6.4-50.2 8.7 0 0-.1 0-.1.1-.4-6.2-.9-11.3-1.7-11.5-2.1-.4-3 4-3 4s.4-13.6-3.5-13.8c-2.8-.1-3.2 2-3.2 3.2-.2-1.7-.8-6-3.7-5.7-3.6.4-3.2 5.9-3.2 5.9s-.4-6.8-4.9-6c-3.7.7-2.3 6.7-1.7 8.8-.5-1.6-2.1-5-4.6-3.3-2.2 1.5-.7 5.4.6 7.7-.8-.9-1.9-1.2-3 1.8-1.5 4.2 7.5 22 11.8 30.1 0 2.5.6 5.1 1.5 7.7 3.4 9.8 9.4 20.8 22.8 22.8 17.1 2.6 25.4 1.1 35.9-3 14.9-5.8 24.3-20.1 25.6-35.9.2-2.3 0-6.8 0-8.7 0-.3 1.3-4.7 2.1-7.1z" fill="#2d3134"/><path d="m100.7 140.9c-1.1-2.1-.3-2.9.2-3.2-1.5.6-6.9 2.6-8.3-.4-1.3-2.7.9-3.9 2-4.3-1.7.5-6.9 1.8-7.8-.5-.8-2 3.9-3.3 6.6-3.9-2 .3-4.9.4-5.6-1.3-.9-2.3 5.3-4.2 6.8-4.7-.9.2-3.4.7-3.8-1.1-.2-.9.3-1.9 1.4-2.9-.2.1-.4.1-.5.2-7.7 2.5-11.6 5.6-11.1 7.8.4 1.8 2.8 1.4 3.8 1.1-1.6.5-7.7 2.4-6.8 4.7.7 1.7 3.6 1.6 5.6 1.3-2.7.6-7.4 1.9-6.6 3.9.9 2.3 6.1 1 7.8.5-1.1.4-3.2 1.5-2 4.3 1.4 3 6.8 1 8.3.4-.5.3-1.2 1.1-.2 3.2 1.2 2.4 15.1-1 23.2-6.7-6.3 2.2-12.2 3.1-13 1.6z" fill="#e5e5e5"/><g fill="#656565"><path d="m108.7 221.7s-3.7-3.4-3.7-1 3.7 1 3.7 1z"/><path d="m87.1 209.6s-3.5-3.1-3.5-.9 3.5.9 3.5.9z"/><path d="m83.9 213.6s-.9-1.8-1.6-.7c-.6 1 1.6.7 1.6.7z"/><path d="m106.7 225.9s-1.4-2-1.7-1c-.4 1 1.7 1 1.7 1z"/></g><path d="m28 90.2c-.8 2.1 1.2 7.9 3.9 14.1 1-2.6 2-2.3 2.7-1.5-1.2-2.3-2.6-6-.6-7.4 2.4-1.6 3.9 1.6 4.4 3.1-.6-2-1.9-7.7 1.6-8.3 4.3-.8 4.6 5.7 4.6 5.7s-.4-5.3 3-5.6c2.7-.3 3.3 3.8 3.5 5.4 0-1.1.4-3.1 3.1-3 3.7.1 3.3 13.1 3.3 13.1s.7-3.5 2.4-3.8c-.4-7.4-.9-14.2-1.9-14.4-2.1-.4-3 4-3 4s.4-13.6-3.5-13.8c-2.8-.1-3.2 2-3.2 3.2-.2-1.7-.8-6-3.7-5.7-3.5.4-3.2 5.7-3.2 5.9 0-.4-.5-6.8-4.9-6-3.5.7-2.1 6.6-1.5 8.8-.6-1.6-2.1-4.9-4.6-3.3-2.2 1.5-.7 5.3.6 7.7-.8-.8-1.9-1.1-3 1.8z" fill="#e5e5e5"/></svg>