<svg xmlns:xlink="http://www.w3.org/1999/xlink"  enable-background="new 0 0 40 72" height="72" viewBox="0 0 40 72" width="40" xmlns="http://www.w3.org/2000/svg"><path d="m18.5 13.9-.1-.6s0 0-.1 0l-.1 1.3-.6-1.4c-1.5-.1-3.2 0-4.9.4l-.3 1.2-.6-1.1.3 2.2-.9-2c-1.5.4-3 .9-4.6 1.7l.2 1.4-.6-1c-.1 0-.2 0-.2 0l.3 1.8-.7-1.3.1.5-.5-.6c-1.2.7-2.5 1.5-3.8 2.4 3.2 2.2 6.2 2.3 9.2 1.7v-1.1l.5 1h.1l-.2-1.9.9 1.7c1.3-.4 2.7-.9 4.1-1.5v-.9l.5.7h.1l-.2-2.2 1.1 1.8h.1l-.2-1.2.7 1c1.1-.5 2.2-.9 3.3-1.3l.2-.6.4.4h.1l-.1-.9.6.8c.6-.2 1.3-.4 2-.5-1.1-1-3-1.9-5.6-2.2z" fill="#539b00"/><path d="m21.3 16.5.2-.6.4.4h.1l-.1-.9c-5.7 0-10 2.7-20.4 3.5 3.2 2.2 6.2 2.3 9.2 1.7v-1.1l.5 1h.1l-.3-2 .9 1.7c1.3-.4 2.7-.9 4.1-1.5v-.9l.5.7h.1l-.2-2.2 1.1 1.8h.1l-.2-1.2.7 1c.9-.6 2-1 3.2-1.4z" opacity=".2"/><path d="m25 11.8.5-.1h-1.3l1.3-.4c-.1-.9-.4-2-1-3.1l-1.2-.2 1-.4-2.1.3 1.9-.6c-.6-.9-1.3-1.9-2.2-2.8l-1.3.1.9-.4s-.1-.1-.1-.1l-1.7.3 1.2-.5-.5.1.5-.4c-.8-.8-1.8-1.6-2.9-2.3-1.8 2.1-1.6 4-.5 5.8h1.1l-.9.4v.1l1.8-.2-1.5.5c.6.8 1.3 1.7 2 2.5h.9l-.6.3s0 0 .1.1l2.1-.2-1.6.7s0 0 .1.1l1.1-.2-.9.5c.6.7 1.2 1.3 1.7 2l.6.1-.4.2v.1l.9-.1-.7.4c.3.4.5.8.8 1.2.9-.7 1.5-2 1.5-3.6z" fill="#539b00"/><path d="m25 11.8.5-.1h-1.3l1.3-.4c-.1-.9-.4-2-1-3.1l-1.2-.2 1-.4-2.1.3 1.9-.6c-.6-.9-1.3-1.9-2.2-2.8l-1.3.1.9-.4s-.1-.1-.1-.1l-1.7.3 1.2-.5-.5.1.5-.4c-.8-.8-1.8-1.6-2.9-2.3.5 3.9 4.9 8.5 5.9 12.6h.1l-.1.1c.1.5.2 1.1.2 1.6.9-.7 1.5-2 1.5-3.6z" opacity=".2"/><ellipse cx="24" cy="63" opacity=".3" rx="9" ry="4"/><path d="m24.4 16.1-1.2.1c-6.5 8.3-3.3 41.9-3.7 45.8 0 1.1 2 2 4.5 2s4.5-.9 4.5-2c0-5.6-9.4-17.5-4.1-45.9z" fill="#825012"/><path d="m13.6 18.4 1.1 1.3-1.6-.8s-.1.1-.1.1l.5.7-.8-.4c-.9 1-1.6 2.2-2 3.7l.8.5-1 .1v.2l1.6.7-1.7-.1v.1l.7.3h-.7c-.1.8-.1 1.6-.1 2.4l1 .3-.9.3c0 .6.1 1.2.2 1.8l1 .2-.9.4v.1l1-.1-.9.5c.2.8.4 1.7.6 2.7 1.8-6.4 6.2-14.5 12.3-17.7-.2-.1-6.2-.7-10.1 2.7z" fill="#539b00"/><path d="m13.6 18.4 1.1 1.3-1.6-.8s-.1.1-.1.1l.5.7-.8-.4c-.9 1-1.6 2.2-2 3.7l.8.5-1 .1v.2l1.6.7-1.7-.1v.1l.7.3h-.7c-.1.8-.1 1.6-.1 2.4l1 .3-.9.3c0 .6.1 1.2.2 1.8l1 .2-.9.4v.1l1-.1-.9.5c.2.8.4 1.7.6 2.7 1.8-6.4 6.2-14.5 12.3-17.7-.2-.1-6.2-.7-10.1 2.7z" opacity=".3"/><path d="m13.7 21.3 1 .9-1.2-.5v.1l1.6 1.2-1.9-.7v.1l.6.4-.7-.2c-.4.8-.8 1.8-1.1 2.8l.7.5h-.8v.1l1.5.8-1.6-.4c-.1.6-.2 1.1-.3 1.8l.5.2-.6.1v.1l.9.2-1 .1c-.1 1.3-.1 2.7 0 4.3 1.8-6.4 6.2-14.5 12.3-17.7-.1.1-6.3.5-9.9 5.8z" fill="#539b00"/><path d="m16.8 8.4-.6 1.6-.1-1.8h-.1l-.3.8v-.9c-1.3-.3-2.7-.2-4.2.2v1l-.6-.8c-.1 0-.1 0-.2.1l.2 1.7-.7-1.5h-.1l-.1.7-.4-.6c-.7.3-1.4.6-2.1 1.1l.3 1-.8-.7c-.5.3-1 .7-1.5 1.1l.4.9-.8-.5s-.1 0-.1.1l.6.8-.9-.6c-.6.6-1.3 1.2-2 1.9 6.4-1.7 15.7-2 21.4 1.6.1 0-2.4-5.4-7.3-7.2z" fill="#539b00"/><path d="m16.8 8.4-.6 1.6-.1-1.8h-.1l-.3.8v-.9c-1.3-.3-2.7-.2-4.2.2v1l-.6-.8c-.1 0-.1 0-.2.1l.2 1.7-.7-1.5h-.1l-.1.7-.4-.6c-.7.3-1.4.6-2.1 1.1l.3 1-.8-.7c-.5.3-1 .7-1.5 1.1l.4.9-.8-.5s-.1 0-.1.1l.6.8-.9-.6c-.6.6-1.3 1.2-2 1.9 6.4-1.7 15.7-2 21.4 1.6.1 0-2.4-5.4-7.3-7.2z" opacity=".3"/><path d="m14.3 10-.3 1.4-.2-1.4h-.1l-.2 2-.3-2h-.1l-.1.7-.2-.7c-.9 0-1.9.2-3 .5v.9l-.4-.7h-.1v1.7l-.5-1.6c-.5.2-1.1.4-1.7.6l.2.6-.4-.4h-.1l.3.9-.6-.8c-1.2.6-2.4 1.3-3.7 2.2 6.4-1.7 15.7-2 21.4 1.6 0 .1-3.5-5-9.9-5.5z" fill="#539b00"/><path d="m36 23.8.3-.4-1 .6.6-1.1c-.7-1-1.7-2-2.9-3l-1 .5.4-.9-1.2 1.4.9-1.7c-1-.8-2.2-1.5-3.5-2.1l-.8.7.3-.9s-.1 0-.1-.1l-1 1.1.5-1.2-.3.4.1-.7c-1.1-.4-2.3-.8-3.6-1.2.3 3.2 1.8 5.3 3.8 6.9l.7-.6-.4.9s0 0 .1.1l1.1-1.2-.7 1.5c1 .7 2 1.3 3.2 1.8l.6-.5-.2.7h.1l1.3-1.3-.6 1.6h.1l.7-.8-.3 1c.9.5 1.8.9 2.7 1.5l.5-.2-.1.5s.1 0 .1.1l.5-.6-.2.8c.5.3.9.6 1.4 1 .1-1.2-.4-3-1.6-4.8z" fill="#539b00"/><path d="m23.7 15.3c.3 3.2 1.8 5.3 3.8 6.9l.7-.6-.4.9s0 0 .1.1l1.1-1.2-.7 1.5c1 .7 2 1.3 3.2 1.8l.6-.5-.2.7h.1l1.3-1.3-.6 1.6h.1l.7-.8-.3 1c.9.5 1.8.9 2.7 1.5l.5-.2-.1.5s.1 0 .1.1l.5-.6-.2.8c.5.3.9.6 1.4 1-3.1-5.6-9.7-8.5-14.4-13.2z" opacity=".2"/><path d="m27.1 27.2 1-.2-.5-.2.7-.1c.1-2.4-.1-4.9-.8-6.9h-1.2l.8-.5h-.6l.7-.3c-.8-1.6-1.9-2.9-3.6-3.4 0 8 1.5 12.3 2.7 19.4 1-2.1 1.7-4.9 2-7.7z" fill="#539b00"/><path d="m27.1 27.2 1-.2-.5-.2.7-.1c.1-2.4-.1-4.9-.8-6.9h-1.2l.8-.5h-.6l.7-.3c-.8-1.6-1.9-2.9-3.6-3.4 0 8 1.5 12.3 2.7 19.4 1-2.1 1.7-4.9 2-7.7z" opacity=".3"/><path d="m26.1 32.1.5-.1c0-.1 0-.2 0-.2l-.8-.4.8-.1c.1-1.9.1-4.3-.1-6.6h-1l.9-.4s0 0 0-.1h-1.5l1.4-.5-.6-.2.6-.2c-.4-3.5-1.2-6.7-2.8-7.6 0 8 1.5 12.3 2.7 19.4.1-.4.2-1.4.3-2.8z" fill="#539b00"/><path d="m35.7 10c-.8-1-5.6-1.3-3.5-.7 1.4.4 2.1 1.1 2.4 1.8h.7l-.6.3v.1l.4.1-.3.1c.1.5.1 1 .1 1s1.9-1.3.8-2.7z" fill="#539b00"/><path d="m35.7 10c-.8-1-5.6-1.3-3.5-.7 1.4.4 2.1 1.1 2.4 1.8h.7l-.6.3v.1l.4.1-.3.1c.1.5.1 1 .1 1s1.9-1.3.8-2.7z" opacity=".3"/><path d="m30.8 7.3.3.4-.7-.4c-.1 0-.1 0-.2 0l.4.7-.8-.6c-.1 0-.1 0-.2 0l.2.3-.5-.2c-.9.3-1.8 1-2.7 1.9l.4.3-.6-.1s-.1.1-.1.1l.6.5-.9-.2s0 0-.1.1l.2.2-.3-.1c-1 1.3-1.6 3.2-2.1 5.7 3-2.6 5.2-4.2 6.9-5.1l-.2-.6.6.3-.5-.9.9.6-.1-.4.5.4c2.2-1 3.2-.5 3.8-.2-.8-1.4-3-2.7-4.8-2.7z" fill="#539b00"/><path d="m30.5 12.7v1.4l.6-1.4h.1l.1.7.3-.7c1.1.2 2.2.6 3.2 1.3l-.3.7.7-.5s.1.1.1.1l-.6 1.3 1-1s0 0 .1.1l-.3.6.5-.4c.5.4.9.9 1.3 1.5l-.5.7.7-.3c.3.4.5.8.8 1.3l-.5.6.8-.2v.1l-.7.5.8-.2c.3.6.7 1.3 1 2-4.4-3.2-11.5-6.1-17-5 0 .2 3.5-3.3 7.8-3.2z" fill="#539b00"/><path d="m30.5 12.7v1.4l.6-1.4h.1l.1.7.3-.7c1.1.2 2.2.6 3.2 1.3l-.3.7.7-.5s.1.1.1.1l-.6 1.3 1-1s0 0 .1.1l-.3.6.5-.4c.5.4.9.9 1.3 1.5l-.5.7.7-.3c.3.4.5.8.8 1.3l-.5.6.8-.2v.1l-.7.5.8-.2c.3.6.7 1.3 1 2-4.4-3.2-11.5-6.1-17-5 0 .2 3.5-3.3 7.8-3.2z" opacity=".3"/><path d="m31.9 14.6-.1 1.1.5-1h.1l-.4 1.7.8-1.4h.1l-.1.6.3-.5c.7.3 1.4.7 2.2 1.2l-.3.7.5-.5s.1 0 .1.1l-.5 1.3.8-1.1c.4.3.7.6 1.1 1l-.2.4.4-.2-.5.6.7-.4c.7.8 1.5 1.7 2.2 2.8-4.4-3.2-11.5-6.1-17-5 .1.1 4.2-2.9 9.3-1.4z" fill="#539b00"/><path d="m24.9 49.3c-.1-.4-.2-.7-.3-1.1-1.3.6-3.4 1.1-3.8 1.1s-1 0-1.7-.2v1.1c.7-.3 2.4 0 3.4-.2.8-.2 1.6-.4 2.4-.7zm-3 6.7c.7 0 2.9-.6 4.6-1.4-.1-.3-.2-.7-.3-1-1.9.5-3.5 1.7-5.2 1.8-.4 0-.9-.2-1.6-.6v1.2c.8-.1 1.9 0 2.5 0zm1.1-29.2c0-.4 0-.7.1-1.1-1.2.3-2.4.8-3.2.7-.1.5-.1 1-.2 1.5.8.1 1.6-.6 2.3-.7.5 0 .8-.3 1-.4zm-.2 7.2c0-.4 0-.7 0-1.1-1.1 0-2.8 1.1-3.5-.3 0 .4 0 .8-.1 1.2.7.1 1.4.1 2.1.2zm5.3 25.4c-.5.4-1 .7-1.7.9-2 .9-4.6 1.5-6.9 1.4v.3c0 .3.1.5.3.7 2.1-.1 6-.8 8.6-1.9-.1-.4-.2-.9-.3-1.4zm-5-20.3c0-.4-.1-.8-.1-1.2-1 .2-2 .5-2.8.8-.2.1-.8.3-1.2.4v1c.4-.5.7-.6.9-.7.7-.1 2.4-.2 3.2-.3zm2.7 13.3c-.1-.4-.3-.9-.4-1.4-2.1.5-4.6 1.9-6.2.1 0 .5 0 1 .1 1.5 2.5.3 5.8-.3 6.5-.2zm-4.8-9.3c.7 0 1.6.1 2.6.1 0-.3-.1-.6-.1-.9-1.6.5-3.1-.3-3.7-.3-.2 0-.5 0-.7 0v1c.5 0 1.4.1 1.9.1zm4.1 15.7c.7 0 1.9-.4 2.6-.3h.1c-.1-.4-.2-.7-.4-1.1-.5.1-.9.2-1.2.2-1.1.1-2.6.4-3.6.4-1.6.1-2.4-.5-3.2-1.3 0 .6 0 1.1.1 1.6 1.9.6 4.5.6 5.6.5zm-2.2-22.1c0-.4 0-.9-.1-1.3-.5.1-.9.1-1 .2-.9.3-1.8.2-2.7.2v1.3c.3-.2.6-.6.9-.6.9-.4 1.9.2 2.9.2zm-.8-6h.7c0-.5 0-1 .1-1.4-.5.9-1.4.8-3 .2-.1 0-.2 0-.3 0 0 .4-.1.7-.1 1.1 0 0 0 0 0-.1.4-.3 2.1.2 2.6.2zm2 15.2c-.1-.3-.1-.6-.2-.9-.1 0-.2 0-.3 0-1.3.3-2.3 1.5-4 1.1 0 0-.5-.2-.6-.2v.9c.9 0 1.8-.1 2.4-.2.5 0 1.8-.4 2.7-.7z" opacity=".15"/><g fill="#fff" opacity=".15"><path d="m21.3 34.7c-.7.1-1.4-.1-2.1 0v.5c.6-.1 1.2-.2 1.8-.3s1.3-.4.3-.2z"/><path d="m20.6 37.6c.8 0 1.5-.1 2.3-.2 0-.1 0-.3 0-.4-.8.2-1.5.5-2.4.5-.7-.1-.3.1.1.1z"/><path d="m21.6 28.7c.6-.1 1.2-.5.2-.3-.7.1-1.4 0-2.1 0 0 .2 0 .4-.1.6.6-.1 1.3-.2 2-.3z"/><path d="m24 59.9c-1.6.3-2.8.1-4.5.1v.6c1.6 0 3.2-.1 4.7-.4.6-.2.8-.5-.2-.3z"/><path d="m21.5 44.5c.8 0 1.5 0 2.3-.1 0-.2-.1-.4-.1-.6-.9.1-1.6.4-2.4.4-1 0-.4.2.2.3z"/><path d="m22 50.8c1.1-.1 2.1-.3 3.2-.5 0-.2-.1-.4-.1-.5-1.1.3-2 .7-3.2.8-1.1.1-.5.3.1.2z"/><path d="m27 56c-1.2.2-2.4.6-3.6.5-1 0-.3.2.3.2 1.2 0 2.3 0 3.5-.2-.1-.1-.2-.3-.2-.5z"/><path d="m23.8 53.8c.6-.1.8-.4-.2-.2-1.6.3-2.7.1-4.3 0v.6c1.5 0 3-.1 4.5-.4z"/><path d="m21 31.8c-1 0-.3.2.3.2h1.4c0-.2 0-.3 0-.5-.5 0-1.1.3-1.7.3z"/><path d="m22.4 47.5c-1.2.2-2.1.1-3.3.1v.6c1.1-.1 2.2-.2 3.3-.4.6-.2 1-.6 0-.3z"/><path d="m21.9 40.9c-1 .2-1.8 0-2.9 0v.6c1-.1 1.9-.2 2.9-.4.6-.1 1-.4 0-.2z"/></g><path d="m18.1 31.2.5.2s0 0 0-.1l-1-.9 1.4.4c1-1.2 1.9-2.6 2.6-4.2l-.8-1 1.2.2-1.9-1 2.2.5c.6-1.4 1-3 1.4-4.7l-1.1-.7 1.2.1c0-.1 0-.1 0-.2l-1.6-.8 1.5.2-.5-.2h.8c.2-1.4.3-2.9.3-4.5-3.7 1.3-5.6 3.6-6.8 6.4l.9.7-1.1-.2v.1l1.7.9-2-.3c-.5 1.3-.8 2.7-1.2 4.2l.7.5h-.8v.1l1.9 1.1-2.1-.2v.1l1.1.5h-1.2c-.3 1.2-.6 2.3-.9 3.5l.4.5h-.6v.1l.7.5h-1c-.2.6-.5 1.3-.7 1.9 1.4-.2 3.3-1.3 5.1-3.2z" fill="#539b00"/><path d="m23.8 20.6-1.1-.7 1.2.1c0-.1 0-.1 0-.2l-1.6-.8 1.5.2-.5-.2h.7c.2-1.4.3-2.9.3-4.5-4.4 5.6-4.7 15.2-11 20.4 1.4-.2 3.3-1.3 5.1-3.2l-.2-.5.5.2s0 0 0-.1l-1-.9 1.4.4c1-1.2 1.9-2.6 2.6-4.2l-.8-1 1.2.2-1.9-1 2.2.5c.6-1.4 1-3 1.4-4.7z" opacity=".2"/></svg>