<svg xmlns:xlink="http://www.w3.org/1999/xlink"  enable-background="new 0 0 56 72" height="72" viewBox="0 0 56 72" width="56" xmlns="http://www.w3.org/2000/svg"><path d="m30.5 26.2-.3.4.9-.6-.6 1.1c.7 1 1.2 1.7 2.3 2.7l1-.5-.4.9 1.2-1.4-.9 1.7c1 .8 1.1.7 2.4 1.4l.8-.7-.3.9s.1 0 .1.1l1-1.1-.5 1.2.3-.4-.1.7c1.1.4 2.3.8 3.6 1.2-.3-3.2-.7-4.6-2.7-6.2l-.7.6.4-.9s0 0-.1-.1l-.9 1.2.7-1.5c-1-.7-1.5-.9-2.6-1.5l-.6.5.2-.7h-.1l-1.3 1.3.6-1.6h-.1l-.7.8.3-1c-.9-.5-1.5-.6-2.3-1.1l-.5.2.1-.5s-.1 0-.1-.1l-.6.5.2-.8c-.5-.3-.9-.6-1.4-1-.1 1.2.1 2.6 1.2 4.5z" fill="#539b00"/><path d="m41.2 33.7c-.3-3.2-.7-4.6-2.7-6.2l-.7.6.4-.9s0 0-.1-.1l-1.1 1.3.7-1.5c-1-.7-1.5-.9-2.6-1.5l-.6.5.2-.7h-.1l-1.3 1.3.6-1.6h-.1l-.7.8.3-1c-.9-.5-1.5-.6-2.3-1.1l-.5.2.1-.5s-.1 0-.1-.1l-.6.5.2-.8c-.5-.3-.9-.6-1.4-1 3 5.6 7.7 7 12.4 11.8z" opacity=".2"/><ellipse cx="31" cy="63" opacity=".3" rx="10" ry="4"/><path d="m40.2 31.8-1.2.2c-6.1 7.8-9.5 25.2-9.4 30.3 0 .9 1.5 1.6 3.3 1.6s3.3-.7 3.3-1.6v-.1c-.6-9.9-.4-16.4 4-30.4z" fill="#825012"/><g opacity=".15"><path d="m36 38.4c-.2 0-.5 0-.7 0-.2.4-.3.8-.5 1.1.6-.1 1.2-.2 1.8-.1.4.1.8.2 1.3.5.1-.5.2-1 .4-1.5-.8-.1-1.6 0-2.3 0z"/><path d="m34.9 45.6c-.6 0-1.5.2-2.2.2-.1.3-.2.7-.3 1 .8 0 1.7 0 2.5-.1.3 0 1.1-.1 1.8-.2 0-.3.1-.5.1-.8-.8-.1-1.4-.1-1.9-.1z"/><path d="m33.6 42.8c.8.3 1.7.6 2.3.7.4.1.8.1 1.2.2.1-.3.1-.6.2-.9-1 0-2.2-.4-3.4-.9-.1.3-.2.6-.3.9z"/><path d="m36.2 50c0-.4.1-.8.1-1.1-.1 0-.2 0-.3.1-1 .3-2.6-.2-4.1-.5-.1.4-.2.7-.3 1.1 1.2.2 2.7.5 3.4.5.4-.1.8-.1 1.2-.1z"/><path d="m36.2 62.2c0-.5-.1-.9-.1-1.3-.1 0-.2 0-.3 0-1.9.3-4.2.5-6.1.1v1c1.7.3 4.3.4 6.5.2z"/><path d="m36 54.9c-.9.2-2.4-.1-3.3-.2-.5-.1-1.3-.4-2.1-.6-.1.4-.2.8-.2 1.3.7.2 1.5.4 1.9.5 1.1.2 2.4.3 3.6.2.1-.5.1-.8.1-1.2z"/><path d="m36 59.4c0-.4 0-.8 0-1.2-1.4-.4-4.1-1.2-5.8-2-.1.6-.2 1.1-.3 1.7 1.9.9 4.5 1.3 5.5 1.5z"/><path d="m38.1 33.3c-.2.3-.4.7-.7 1 .8.2 1.4.5 1.5.7.3.9-.9 1-2.3.9-.2.3-.3.6-.4.9.8.3 1.6.6 2.4.7.3-1.1.6-2.3 1-3.5-.5-.4-1-.6-1.5-.7z"/><path d="m36.1 51.8c-1.7 1-3.5-.5-4.8-.8-.1.4-.2.7-.2 1.1 1.9.6 4.2.9 5 1-.1-.5-.1-.9 0-1.3z"/></g><g fill="#fff" opacity=".15"><path d="m33.7 50.8c-1-.2-.4.3.1.4.7.1 1.5.2 2.2.3 0-.2 0-.4 0-.6-1.3 0-2.3-.1-2.3-.1z"/><path d="m33.4 56.7c-1-.2-.3.2.3.3.7.1 1.5.2 2.3.3 0-.2 0-.4 0-.6-1.5 0-2.6 0-2.6 0z"/><path d="m34.2 53.7s-1.6-.3-3.4-.6c0 .2-.1.4-.1.6 1.1.2 2.1.3 3.2.3.6-.1 1.4-.3.3-.3z"/><path d="m35.1 47.8s-1.3-.2-2.9-.5c-.1.2-.1.4-.2.6.9.1 1.9.2 2.8.2.7.1 1.3-.3.3-.3z"/><path d="m35.8 37.3c-.1.1-.1.3-.2.4.9.2 1.8.3 2.8.2.1-.2.1-.5.2-.7-.9.1-1.9.2-2.8.1z"/><path d="m33.2 60s-1.6-.2-3.4-.6c0 .2 0 .4-.1.6 1 .2 2.1.3 3.1.3.6 0 1.4-.3.4-.3z"/><path d="m34.3 40.8c-.1.1-.1.3-.2.4.5 0 1 .1 1.4.1.6 0 1.2-.2.2-.2.1 0-.5-.1-1.4-.3z"/><path d="m34.3 44.1c-1-.2-.4.2.1.3.8.2 1.7.2 2.5.3 0-.2.1-.4.1-.6-1.5 0-2.7 0-2.7 0z"/></g><path d="m32.4 62.2c0-5.3-4.3-37.9-10.8-45.9l-1.1-.1c4.2 13.6 6.3 36.3 5.8 45.9v.1c0 1 1.6 1.8 3.7 1.8s2.4-.7 2.4-1.8z" fill="#825012"/><g fill="#fff" opacity=".15"><path d="m27.9 51.1c1.1 0 2.2-.2 3.2-.4 0-.2-.1-.4-.1-.6-1.8.4-3.4.7-3.4.7-.9 0-.2.3.3.3z"/><path d="m27.1 44.2c1 0 2-.2 3-.3 0-.2-.1-.4-.1-.6-1.7.4-3.1.7-3.1.7-1.1 0-.4.3.2.2z"/><path d="m28.9 53.4s-1.2.1-2.7.1v.6c.8-.1 1.6-.2 2.3-.3.7-.2 1.4-.6.4-.4z"/><path d="m27.8 40.8s-1.1 0-2.6.1c0 .2 0 .4.1.6.8-.1 1.6-.2 2.4-.3.5-.2 1.1-.6.1-.4z"/><path d="m28.3 47.9c.6-.1 1.1-.6.1-.4 0 0-1.1.1-2.6.1v.6c.9 0 1.7-.1 2.5-.3z"/><path d="m24.5 35.3c.6 0 1.2-.1 1.7-.2 1.3-.3.5-.4.5-.4-.8.1-1.5.1-2.3.1 0 .1 0 .3.1.5z"/><path d="m32.3 63c.1-.2.1-.4.1-.6-1.4.3-2.5.5-2.5.5-1 0-.3.3.3.3.7-.1 1.4-.2 2.1-.2z"/><path d="m31.9 56.5c0-.2 0-.4-.1-.6-1.7.4-3.2.7-3.2.7-1 0-.2.3.4.2 1 0 2-.1 2.9-.3z"/><path d="m28.9 60.2c.6-.1 1.3-.6.3-.4 0 0-1.2.1-2.8.1v.6c.8-.1 1.6-.2 2.5-.3z"/><path d="m26 37.2s-.8.3.6.3c.8 0 1.5-.1 2.3-.2 0-.2-.1-.4-.1-.6-1 .3-1.9.4-2.8.5z"/></g><g opacity=".15"><path d="m25.5 36.6c.8-.3 2 0 3.2 0-.1-.3-.1-.6-.2-.9-1.1.2-2.8-.1-4 0 0 .3.1.7.1 1 .3-.1.6-.2.9-.1z"/><path d="m25.9 48.8c0 .4.1.7.1 1.1 1.6-.4 3.5-.2 4.9-.8-.1-.5-.2-1-.2-1.5-.3.3-.7.6-1.1.9-.9.4-2.3.3-3.7.3z"/><path d="m28.9 37.8c-.8.1-1.6.4-2.4.6-.4.1-1.1.5-1.5.5h-.1c0 .4.1.7.1 1.1.1 0 .2-.1.2-.1.8-.2 2.8-1.5 3.7-2.1z"/><path d="m28.1 33.9c-.1-.4-.2-.8-.3-1.2-.7 0-1.3 0-1.9-.1s-1.3-.2-1.9-.4c.1.5.1 1 .2 1.4.8.1 1.6.1 2.2.2.3 0 1 0 1.7.1z"/><path d="m25.8 47c.7-.2 1.5-.4 2.2-.5.5-.1 1.7-.6 2.1-.5.2 0 .3.1.4.1-.1-.4-.1-.7-.2-1.1-1.8.2-3.8.8-4.6.9 0 .4.1.7.1 1.1z"/><path d="m23 26.7c.9 0 1.9-.3 2.8-.4h.3c-.1-.3-.2-.6-.3-1-1.1.1-2.1.3-3 .2.1.4.2.8.2 1.2z"/><path d="m32.3 60.1c-1.7.9-4 1.4-6 1.5v.5.1c0 .1 0 .3.1.4 1.7-.2 4-.6 6-1.2-.1-.4-.1-.8-.1-1.3z"/><path d="m23.7 30c1.1-.3 2.3.1 3.5.2-.1-.3-.2-.7-.3-1-.5 0-2-.2-3.5-.1.1.4.2.7.3.9z"/><path d="m30.7 58.7c.4 0 .9-.1 1.4-.1 0-.4-.1-.8-.1-1.2-.6.1-1 .2-1.3.2-.5 0-2.6-.3-4.5-.8v1.6c1.9.4 3.8.4 4.5.3z"/><path d="m25.3 42.1c0 .3.1.6.1.9h.4c1.3 0 2.8.3 4.1 0h.1c-.1-.3-.1-.6-.2-1-.8.6-2.7.2-4.5.1z"/><path d="m29.3 55.7c.6-.1 1.5-.5 2.4-1 0-.3-.1-.7-.1-1-1 .6-2.7 1-3.2 1.1-.6.1-1.4 0-2.2-.1v1c1.3 0 2.6.1 3.1 0z"/><path d="m29.8 52.5c.3 0 1-.3 1.6-.3-.1-.4-.1-.8-.2-1.1-1.1.2-2.3.6-3.2.6-.3 0-1.1.1-1.9.1v.9c1.7 0 3.2-.1 3.7-.2z"/></g><path d="m11.1 17.5.9 1.5-1.5-1.1s-.1 0-.1.1l.4.8-.7-.5c-1 .8-1.9 1.9-2.6 3.4l.7.6-1-.1c0 .1 0 .1-.1.2l1.4.9-1.5-.5v.1l.6.4-.7-.1c-.2.7-.4 1.5-.5 2.4l.9.4-1 .1c-.1.6-.1 1.2-.1 1.8l.9.3-.9.3v.1l1 .1-1 .3c0 .9.1 1.8.2 2.7 2.7-6 8.3-13.4 14.8-15.6.2.1-5.7-1.3-10.1 1.4z" fill="#539b00"/><path d="m11.1 17.5.9 1.5-1.5-1.1s-.1 0-.1.1l.4.8-.7-.5c-1 .8-1.9 1.9-2.6 3.4l.7.6-1-.1c0 .1 0 .1-.1.2l1.4.9-1.5-.5v.1l.6.4-.7-.1c-.2.7-.4 1.5-.5 2.4l.9.4-1 .1c-.1.6-.1 1.2-.1 1.8l.9.3-.9.3v.1l1 .1-1 .3c0 .9.1 1.8.2 2.7 2.7-6 8.3-13.4 14.8-15.6.2.1-5.7-1.3-10.1 1.4z" opacity=".3"/><path d="m10.8 20.4.8 1.1-1.2-.7s0 0-.1.1l1.4 1.4-1.8-1s0 0-.1.1l.5.5-.6-.3c-.6.8-1.1 1.6-1.5 2.6l.8.5-.8-.2s0 .1-.1.1l1.3 1.1-1.5-.6c-.2.5-.4 1.1-.5 1.7l.5.3h-.6v.1l.9.4h-1c-.3 1.3-.5 2.7-.6 4.2 2.7-6 8.3-13.4 14.8-15.6 0 0-6.2-.5-10.6 4.2z" fill="#539b00"/><path d="m37.7 29-.1 1.7-.6-1.7h-.1l-.1.8-.3-.8c-1.3.1-1.9.3-3.3 1.1l.3.9-.8-.6c-.1 0-.1.1-.2.1l.6 1.6-1.1-1.2s-.1 0-.1.1l.3.7-.5-.5c-.6.5-1.2 1-1.8 1.7l.5.9-.8-.5c-.4.4-.7.9-1.1 1.4l.6.8-.9-.3s0 .1-.1.1l.8.6-1-.3c-.5.7-.9 1.5-1.4 2.4 5.7-3.4 10.1-6.8 16.7-4.9 0 0-.3-3.7-5.5-4.1z" fill="#539b00"/><path d="m37.7 29-.1 1.7-.6-1.7h-.1l-.1.8-.3-.8c-1.3.1-1.9.3-3.3 1.1l.3.9-.8-.6c-.1 0-.1.1-.2.1l.6 1.6-1.1-1.2s-.1 0-.1.1l.3.7-.5-.5c-.6.5-1.2 1-1.8 1.7l.5.9-.8-.5c-.4.4-.7.9-1.1 1.4l.6.8-.9-.3s0 .1-.1.1l.8.6-1-.3c-.5.7-.9 1.5-1.4 2.4 5.7-3.4 10.1-6.8 16.7-4.9 0 0-.3-3.7-5.5-4.1z" opacity=".3"/><path d="m35.8 31.3v1.3l-.6-1.2h-.1l.3 2-.9-1.8h-.1l.1.7-.3-.6c-.9.3-1.1.5-2 1.1l.2.8-.4-.6s-.1 0-.1.1l.5 1.6-.9-1.4c-.5.3-.9.7-1.4 1.1l.2.5-.5-.3s0 0-.1.1l.5.8-.8-.6c-1 .9-1.9 1.9-2.9 3.1 5.7-3.4 10.1-6.8 16.7-4.9 0 0-1.1-3.2-7.4-1.8z" fill="#539b00"/><path d="m35.1 12.2-.1-.4s0 0-.1 0l-.1 1.1-.5-1.2c-1.3-.1-2.7 0-4.2.3l-.2 1-.5-.9.3 1.8-.7-1.6c-1.2.3-2.5.8-3.9 1.4l.1 1.1-.5-.8s-.1 0-.1.1l.3 1.5-.6-1.1.1.5-.5-.5c-1 .6-2.1 1.3-3.2 2.1 2.7 1.8 5.2 2 7.8 1.4v-.9l.4.8h.1l-.2-1.6.7 1.4c1.1-.3 2.3-.8 3.4-1.3v-.7l.4.6h.1l-.2-1.8.9 1.5h.1l-.2-1 .6.8c.9-.4 1.9-.8 2.8-1.1l.2-.5.3.4h.1l-.1-.8.5.6c.5-.2 1.1-.3 1.7-.5-.9-.9-2.5-1.6-4.7-1.8z" fill="#539b00"/><path d="m20.7 16.4c2.7 1.8 5.2 2 7.8 1.4v-.9l.4.8h.1l-.2-1.6.7 1.4c1.1-.3 2.3-.8 3.4-1.3v-.7l.4.6h.1l-.2-1.8.9 1.5h.1l-.2-1 .6.8c.9-.4 1.9-.8 2.8-1.1l.2-.5.3.4h.1l-.1-.8.5.6c.5-.2 1.1-.3 1.7-.5-6.3-1.2-12.7 2.1-19.4 2.7z" opacity=".2"/><path d="m31.5 19 .4-1.1-.4.4.3-.7c-1.9-1.3-3.9-2.2-5.9-2.5l-.6 1.1v-1l-.3.7.1-.8c-1.7-.1-3.3.4-4.6 1.8 6.4 3.8 10.6 4.3 16.9 6.6-1.1-1.9-3-3.9-5.2-5.5z" fill="#539b00"/><path d="m31.5 19 .4-1.1-.4.4.3-.7c-1.9-1.3-3.9-2.2-5.9-2.5l-.6 1.1v-1l-.3.7.1-.8c-1.7-.1-3.3.4-4.6 1.8 6.4 3.8 10.6 4.3 16.9 6.6-1.1-1.9-3-3.9-5.2-5.5z" opacity=".3"/><path d="m35 22.2.2-.5c-.1 0-.1-.1-.2-.1l-.7.5.3-.8c-1.5-1-3.4-2.1-5.4-3l-.5.9.2-1.1s0 0-.1 0l-.8 1.5.3-1.6-.4.5.2-.7c-3-1.3-6-2-7.5-.9 6.4 3.8 10.6 4.3 16.9 6.6-.3-.3-1-.9-2.1-1.6z" fill="#539b00"/><path d="m24.3 3.8c-1.2 0-4.5 3.5-2.7 2.3 1.2-.8 2.2-.9 2.9-.7l.4-.6-.2.6h.1l.3-.3-.1.4c.5.2.8.5.8.5s.2-2.2-1.5-2.2z" fill="#539b00"/><path d="m24.3 3.8c-1.2 0-4.5 3.5-2.7 2.3 1.2-.8 2.2-.9 2.9-.7l.4-.6-.2.6h.1l.3-.3-.1.4c.5.2.8.5.8.5s.2-2.2-1.5-2.2z" opacity=".3"/><path d="m19.1 5.8h.5l-.8.3c0 .1-.1.1-.1.2l.7.2-1 .2c0 .1-.1.1-.1.2h.3l-.5.3c-.3.9-.4 2-.2 3.3l.5-.2-.5.4v.2l.8-.1-.7.4v.1h.3l-.2.2c.4 1.6 1.5 3.3 3.1 5.2-.1-4 .1-6.7.4-8.6l-.4-.1.6-.3-1-.2 1-.3-.4-.2.6-.1c.7-2.4 1.6-2.8 2.3-3.1-1.7-.2-4.1.7-5.2 2z" fill="#539b00"/><path d="m23.2 9.8 1.1.9-.7-1.3s0 0 .1-.1l.6.4-.3-.6c.8-.7 1.8-1.3 3.1-1.7l.4.7.1-.8h.2l.6 1.3-.1-1.4h.1l.3.6v-.6c.6-.1 1.3-.1 2-.1l.2.8.2-.8c.5 0 1 .1 1.5.2l.1.8.3-.7h.1l-.1.8.4-.8c.7.1 1.4.3 2.2.5-5.4 1.5-12.1 5.1-14.7 10.1 0 0-.4-4.9 2.3-8.2z" fill="#539b00"/><path d="m23.2 9.8 1.1.9-.7-1.3s0 0 .1-.1l.6.4-.3-.6c.8-.7 1.8-1.3 3.1-1.7l.4.7.1-.8h.2l.6 1.3-.1-1.4h.1l.3.6v-.6c.6-.1 1.3-.1 2-.1l.2.8.2-.8c.5 0 1 .1 1.5.2l.1.8.3-.7h.1l-.1.8.4-.8c.7.1 1.4.3 2.2.5-5.4 1.5-12.1 5.1-14.7 10.1 0 0-.4-4.9 2.3-8.2z" opacity=".3"/><g fill="#539b00"><path d="m25.7 9.9.8.8-.4-1h.1l1 1.3-.6-1.6h.1l.4.5-.2-.6c.5-.3 1.3-.6 2.1-.9l.4.6v-.7h.1l.7 1.2-.3-1.3c.4-.1.9-.2 1.4-.2l.2.4.1-.5h.1l.2.8.1-.8c1.1-.1 2.2-.1 3.5 0-5.3 1.5-12 5.1-14.6 10.1 0 0 .4-5.1 4.8-8.1z"/><path d="m22.7 29h.5s0 0 0-.1l-1.1-.3 1.3-.2c.3-1.3.5-1.8.5-3.4l-1-.5 1-.3-1.9-.1 1.9-.4c-.1-1.3-.4-2.4-.8-3.9l-1.1-.2 1-.4v-.1h-1.6l1.3-.4h-.5l.6-.4c-.4-1.2-.8-1.7-1.4-2.9-2.4 2.4-3 3.9-3 6.6l1 .2-.9.3v.1l1.7.1-1.6.4c.1 1.2.4 1.6.6 2.9l.8.2-.7.3v.1l1.9.2-1.7.6v.1h1.1l-1 .4c.2 1 .4 1.5.6 2.5l.5.3-.4.2v.1h.8l-.8.4c.1.6.1 1.2.1 1.8 1.1-.7 2.1-1.7 2.8-3.9z"/><path d="m44.1 26.3-.3-.4.4 1-.8-.8c-1.1.4-1.5.5-2.7 1.3l.2 1-.7-.6.9 1.4-1.3-1.1c-.9.7-1.8 1.6-2.7 2.7l.5.9-.8-.5s-.1.1-.1.1l.8 1.1-.9-.7.3.4-.6-.2c-.7.9-.5 1.2-1 2.3 2.9.5 4.3.3 6.2-1.2l-.5-.9.7.5s0 0 .1-.1l-.8-1.2 1.2.9c.8-.7.9-1 1.7-1.8l-.3-.6.5.3s0 0 .1-.1l-.8-1.4 1.3.9s0 0 .1-.1l-.5-.8.8.5c.6-.7 1.3-1.4 1.9-2l-.1-.5.4.2s0 0 .1-.1l-.4-.6.7.3c.4-.3.8-.7 1.2-1-1.1-.4-2.7-.3-4.6.3z"/></g><path d="m35.2 34c2.9.5 4.3.3 6.2-1.2l-.4-.7.7.5s0 0 .1-.1l-.8-1.2 1.2.9c.8-.7.9-1 1.7-1.8l-.3-.6.5.3s0 0 .1-.1l-.8-1.4 1.3.9s0 0 .1-.1l-.5-.8.8.5c.6-.7 1.3-1.4 1.9-2l-.1-.5.4.2s0 0 .1-.1l-.4-.6.7.3c.4-.3.8-.7 1.2-1-5.8 1.5-8.4 5.6-13.7 8.6z" opacity=".2"/><path d="m23.1 19.7-1.1-.1 1-.4v-.1h-1.6l1.3-.4h-.5l.6-.4c-.4-1.2-.8-1.7-1.4-2.9-1.4 6.1 2 11.3-1 17.8 1.1-.7 2.1-1.7 2.8-3.9l-.5-.3h.5s0 0 0-.1l-1.1-.3 1.3-.2c.3-1.3.5-1.8.5-3.4l-1-.5 1-.3-1.9-.1 1.9-.4c-.1-1.4-.4-2.5-.8-4z" opacity=".2"/><path d="m47.7 30.6v-1.1l-.3.5v-.7c-2.4-.6-3.3-.9-5.3-.5l-.2 1.2-.4-.8-.1.6-.1-.8c-1.7.5-2.3 1.1-3.1 2.7 7.8 1.3 7.7.3 14.9.3-1.9-1.3-2.3-1.8-5.1-2.6z" fill="#539b00"/><path d="m47.7 30.6v-1.1l-.3.5v-.7c-2.4-.6-3.3-.9-5.3-.5l-.2 1.2-.4-.8-.1.6-.1-.8c-1.7.5-2.3 1.1-3.1 2.7 7.8 1.3 7.7.3 14.9.3-1.9-1.3-2.3-1.8-5.1-2.6z" opacity=".3"/><path d="m50.1 31.7v-.5c-.1 0-.2 0-.2-.1l-.5.7.1-.8c-1.9-.4-2-.1-4.3-.3l-.2 1-.2-1s0 0-.1 0l-.3 1.5-.4-1.5-.3.5-.1-.6c-3.5-.2-4.4-.3-5.5 1.1 7.9 1.3 7.8.3 15 .3-.4-.2-1.4-.5-2.7-.8z" fill="#539b00"/><path d="m36.3 33.7-.3-.2.6.8-1-.5c-.8.7-1.3.8-2 1.9l.5.8-.8-.3 1.2 1-1.5-.7c-.6.9-.6.9-1.1 2.1l.7.6-.8-.2v.1l1 .8-1-.3.4.2h-.6c-.3 1-.6 2-.8 3.2 2.8-.4 3.9-.7 5.2-2.5l-.5-.6.8.3s0 0 0-.1l-1.3-.9 1.3.5c.5-.9.6-1.1 1-2.1l-.4-.5.6.1s0 0 0-.1l-1.2-1.1 1.4.4s0 0 0-.1l-.7-.5.9.2c.4-.8.7-1.6 1.1-2.4l-.2-.4.4.1s0 0 0-.1l-.5-.4.7.1c.2-.4.5-.9.8-1.3-1.1 0-2.5.5-4.1 1.6z" fill="#539b00"/><path d="m39 33.8-.2-.4.4.1s0 0 0-.1l-.5-.4c-3 2.8-3.1 4.5-8.2 10.1 2.8-.4 3.9-.7 5.2-2.5l-.5-.6.8.3s0 0 0-.1l-1-1 1.3.5c.5-.9.6-1.1 1-2.1l-.4-.5.6.1s0 0 0-.1l-1.2-1.1 1.4.4s0 0 0-.1l-.7-.5.9.2c.4-.7.7-1.5 1.1-2.2z" opacity=".2"/><path d="m16.8 19.3-.5-.2.9.9-1.3-.4c-.9 1-1.8 2.3-2.6 3.8l.7.9-1.1-.2 1.8 1-2-.6c-.6 1.3-1.1 2.7-1.5 4.3l1 .7h-1.2v.1l1.5.8-1.5-.2.5.2-.7.1c-.2 1.3-.4 2.7-.4 4.1 3.5-1 5.4-3.1 6.6-5.7l-.8-.7 1 .2v-.1l-1.5-.9 1.7.4c.5-1.2.9-2.5 1.3-3.8l-.6-.5.8.1v-.1l-1.7-1.1 1.9.3v-.1l-1-.5 1.1.1c.3-1.1.6-2.1 1-3.2l-.3-.5h.5v-.1l-.8-.4h.9c.2-.6.5-1.2.8-1.7-1.4.2-3.1 1.1-4.8 2.8z" fill="#539b00"/><path d="m20.3 18.9-.3-.5h.5v-.1l-.7-.4c-3.3 4.1-4 8.8-9.5 16.8 3.5-1 5.3-3.1 6.6-5.7l-.8-.7 1 .2v-.1l-1.5-.9 1.7.4c.5-1.2.9-2.5 1.3-3.8l-.6-.5.8.1v-.1l-1.7-1.1 1.9.3v-.1l-1-.5 1.1.1c.5-1.3.8-2.4 1.2-3.4z" opacity=".2"/><path d="m18.9 13.2.3-.5-.9 1 .5-1.3c-.8-.5-1.8-.9-3-1.2l-.9.9.3-1-1.1 1.8.7-1.9c-1.1-.1-2.3-.2-3.6 0l-.7 1 .3-1h-.1l-.9 1.5.4-1.3-.3.5v-.6c-1.1.2-2.3.4-3.6.8.5 2.7 2.1 3.7 4.2 4.1l.7-.9-.3.9h.1l1-1.6-.5 1.6c1 .1 2.1.1 3.2 0l.5-.7-.2.9h.1l1.2-1.8-.5 1.7h.1l.6-1-.2 1c.9 0 1.8-.1 2.7-.1l.5-.4-.1.5h.1l.5-.8-.1.8c.5 0 1 .1 1.4.2 0-1.1-.6-2.4-1.8-3.4z" fill="#539b00"/><path d="m18.9 13.2.3-.5-.9 1 .5-1.3c-.8-.5-1.8-.9-3-1.2l-.9.9.3-1-1.1 1.8.7-1.9c-1.1-.1-2.3-.2-3.6 0l-.7 1 .3-1h-.1l-.9 1.5.4-1.3-.3.5v-.6c-1.1.2-2.3.4-3.6.8 3.4 2.1 9.7 1.5 13.5 3.4l.1-.1v.1c.5.2.9.5 1.3.8 0-1.1-.6-2.4-1.8-3.4z" opacity=".2"/><path d="m27.4 20.3-1.5.9 1.8-.3s0 .1.1.1l-.7.5.9-.1c.5 1.2.8 2.6.7 4.2l-.9.2.9.4v.2l-1.7.2 1.6.4v.1l-.7.1.7.3c-.2.7-.4 1.5-.7 2.4h-1l.8.5c-.2.5-.5 1.1-.7 1.6l-1-.2.7.7s0 .1-.1.1l-.9-.4.7.7c-.4.8-.9 1.5-1.4 2.3.3-6.6.3-14.3-4.5-19.2-.1-.1 4.2-.1 6.9 4.3z" fill="#539b00"/><path d="m27.4 20.3-1.5.9 1.8-.3s0 .1.1.1l-.7.5.9-.1c.5 1.2.8 2.6.7 4.2l-.9.2.9.4v.2l-1.7.2 1.6.4v.1l-.7.1.7.3c-.2.7-.4 1.5-.7 2.4h-1l.8.5c-.2.5-.5 1.1-.7 1.6l-1-.2.7.7s0 .1-.1.1l-.9-.4.7.7c-.4.8-.9 1.5-1.4 2.3.3-6.6.3-14.3-4.5-19.2-.1-.1 4.2-.1 6.9 4.3z" opacity=".3"/><path d="m26.3 23.1-1.2.6 1.3-.1v.1l-1.9.6 2-.1v.1l-.7.2h.7c.2.9.2 1.9.2 3l-.7.2.8.2v.1l-1.7.3 1.6.1c-.1.6-.2 1.2-.3 1.8h-.6l.5.3v.1l-1-.1.9.4c-.3 1.3-.8 2.6-1.4 4.1.3-6.6.3-14.3-4.5-19.2.1.1 4.2 1.1 6 7.3z" fill="#539b00"/><path d="m39.6 21.8-.4-.2.9.7-1.1-.4c-.4.7-.9.8-1.1 1.8l.7.8-.8-.3 1.5.9-1.6-.6c-.1.9-.2 1.9-.1 3l.9.6-.8-.1v.1l1.2.7-1.1-.3.4.2h-.5c.1.9.3 1.9.6 3 2.3-.4 3.1-1.7 3.5-3.5l-.7-.6.8.3s0 0 0-.1l-1.3-.8 1.4.5c.1-.8.1-1.7 0-2.7l-.6-.4.6.1s0 0 0-.1l-1.5-1 1.5.4s0 0 0-.1l-.8-.5.8.2c0-.8 0-.8.1-1.6l-.4-.4h.4s0 0 0-.1l-.7-.3.7.1c0-.4.1-.8.1-1.2-.9 0-2 .5-2.9 1.5z" fill="#539b00"/><path d="m39.6 21.8-.4-.2.9.7-1.1-.4c-.4.7-.9.8-1.1 1.8l.7.8-.8-.3 1.5.9-1.6-.6c-.1.9-.2 1.9-.1 3l.9.6-.8-.1v.1l1.2.7-1.1-.3.4.2h-.5c.1.9.3 1.9.6 3 1.8-2.8 1.5-7.5 3-10.7h-.1.1c.2-.4.4-.8.7-1.1-.9 0-2 .5-2.9 1.5z" opacity=".2"/><path d="m49 37 .3-.4-.8.6.5-1c-.7-.9-.9-1.3-2-2.2l-1 .4.3-.9-1.1 1.3.7-1.5c-1-.7-2.1-1.3-3.3-1.8l-.6.6.3-.9h-.1l-.9 1.1.4-1.1-.3.4.1-.6c-1-.4-1.3-.1-2.5-.4.3 3 1 4.2 2.9 5.6l.7-.5-.3.8h.1l1-1.1-.6 1.4c.9.6 1.2.6 2.2 1.1l.5-.4-.3.5h.1l1.2-1.2-.5 1.5h.1l.6-.7-.2.9c.8.4 1.7.8 2.5 1.3l.5-.2-.1.4h.1l.5-.5-.1.8c.4.3.9.6 1.3.9.1-1.1-.4-2.7-1.5-4.3z" fill="#539b00"/><path d="m39 30.6c.3 3 1 4.2 2.9 5.6l.7-.5-.3.8h.1l1-1.1-.6 1.4c.9.6 1.2.6 2.2 1.1l.5-.4-.3.5h.1l1.2-1.2-.5 1.5h.1l.6-.7-.2.9c.8.4 1.7.8 2.5 1.3l.5-.2-.1.4h.1l.5-.5-.1.8c.4.3.9.6 1.3.9-3.2-5-7.8-6.4-12.2-10.6z" opacity=".2"/><path d="m40 43.8c1.1-.4 3-5 1.8-3.2-.8 1.2-1.8 1.7-2.5 1.8l-.2.7-.1-.6s0 0-.1 0l-.2.4v-.4c-.6 0-.9-.2-.9-.2s.6 2.2 2.2 1.5z" fill="#539b00"/><path d="m40 43.8c1.1-.4 3-5 1.8-3.2-.8 1.2-1.8 1.7-2.5 1.8l-.2.7-.1-.6s0 0-.1 0l-.2.4v-.4c-.6 0-.9-.2-.9-.2s.6 2.2 2.2 1.5z" opacity=".3"/><path d="m44.2 39.9-.5.2.6-.6c0-.1 0-.1 0-.2l-.8.1.8-.6c0-.1 0-.1 0-.2l-.3.1.3-.5c0-1-.3-2.1-1-3.3l-.4.3.3-.6c0-.1-.1-.1-.1-.2l-.5.6.5-.6s0 0 0-.1l-.2.1.1-.3c-.9-1.3-2.5-2.6-4.7-3.8 1.5 3.8 2.3 6.4 2.6 8.3h.6l-.4.5 1-.2-.8.7h.4l-.5.3c.2 2.5-.6 3.2-1 3.8 1.5-.4 3.5-2.1 4-3.8z" fill="#539b00"/></svg>