<svg xmlns:xlink="http://www.w3.org/1999/xlink"  enable-background="new 0 0 128 64" height="64" viewBox="0 0 128 64" width="128" xmlns="http://www.w3.org/2000/svg"><path d="m64 64-64-32 64-32 64 32z" fill="#9c3"/><path d="m64 64-64-32 64-32 64 32z" fill="#9c3"/><path d="m118 27h-12v-6l-4-2h-12v-6l-4-2h-12v-6l-4-2h-12l-4 2v6h-12l-4 2v6h-12l-4 2v6h-12l-4 2v6l4 2h12v6l4 2h12v6l4 2h12v6l4 2h12l4-2v-6h12l4-2v-6h12l4-2v-6h12l4-2v-6zm-96 8h-12v-6h12zm16 8h-12v-6h12zm0-8h-12v-6h12zm0-8h-12v-6h12zm16 24h-12v-6h12zm0-8h-12v-6h12zm0-8h-12v-6h12zm0-8h-12v-6h12zm0-8h-12v-6h12zm16 40h-12v-6h12zm0-8h-12v-6h12zm0-8h-12v-6h12zm0-8h-12v-6h12zm0-8h-12v-6h12zm0-8h-12v-6h12zm0-8h-12v-6h12zm16 40h-12v-6h12zm0-8h-12v-6h12zm0-8h-12v-6h12zm0-8h-12v-6h12zm0-8h-12v-6h12zm16 24h-12v-6h12zm0-8h-12v-6h12zm0-8h-12v-6h12zm16 8h-12v-6h12z" fill="#999"/></svg>