<svg xmlns:xlink="http://www.w3.org/1999/xlink"  enable-background="new 0 0 40 40" height="40" viewBox="0 0 40 40" width="40" xmlns="http://www.w3.org/2000/svg"><path d="m25.1 16.9c-.1-1.4-.8-2.8-2.2-3.8-1.7-1.2-4.2-1.2-5.9 0-1.3.9-2 2.3-2.2 3.8-.1 1.3-.6 2.6-1.6 3.5-2.2 2-3.5 5-3.2 8.3.4 4.7 4.2 8.5 8.8 9 6 .7 11.1-4 11.1-9.9 0-3-1.3-5.6-3.3-7.5-.9-.8-1.4-2.1-1.5-3.4z" fill="#fc0"/><path d="m27.7 21.5c.2.8.3 1.6.3 2.4 0 5.5-4.5 10-10 10-3.1 0-5.9-1.4-7.7-3.6 1.1 4.4 5 7.6 9.7 7.6 5.5 0 10-4.5 10-10 0-2.5-.9-4.7-2.3-6.4z" opacity=".15"/><path d="m19.6 13.2c.7.5 1.1-.1 1.1-.6s-.3-3.1.2-3.9c.4-.8 1.3-2.2.7-2.4-.7-.2-1.5 1.9-1.6 3.7s-.9 2.8-.4 3.2z" fill="#825012"/><path d="m20.3 8.1c3.3-1.4 5.6 1.4 6.3 4.7.6 3.3 2.6 3.8 2.6 3.8s-5.5-1.5-6.9-3.7c-1.6-2.1-2-4.8-2-4.8z" fill="#539b00"/></svg>