<svg xmlns:xlink="http://www.w3.org/1999/xlink"  enable-background="new 0 0 20 40" height="40" viewBox="0 0 20 40" width="20" xmlns="http://www.w3.org/2000/svg"><path d="m10 16c-4.4 0-8 1.8-8 4v16c0 2.2 3.6 4 8 4s8-1.8 8-4v-16c0-2.2-3.6-4-8-4z" fill="#656565"/><path d="m10 24c-4.4 0-8-1.8-8-4v16c0 2.2 3.6 4 8 4s8-1.8 8-4v-16c0 2.2-3.6 4-8 4z" opacity=".2"/><ellipse cx="10" cy="20" opacity=".3" rx="7" ry="3"/><path d="m15.1 22.1 3.2-9.5c.1-.4-.4-.9-1.2-1.2s-1.5-.2-1.7.2l-3.8 11.3c1.4-.1 2.5-.4 3.5-.8z" fill="#e5e5e5"/><path d="m17.3 10.7c-.8-.3-1.5-.2-1.7.2l-1.1 3.3c-.1.4.4.9 1.2 1.2s1.5.2 1.7-.2l1.1-3.3c.1-.4-.4-.9-1.2-1.2z" fill="#9c3"/><path d="m11.6 22.9c1.3-.1 2.5-.4 3.5-.9l3.4-10.2c-.1.4-.9.5-1.7.2s-1.3-.8-1.2-1.2z" opacity=".2"/><path d="m9.8 23-5.6-11.3c-.2-.4-.9-.4-1.7 0-.7.4-1.2 1-1 1.3l4.7 9.5c1.1.3 2.3.5 3.6.5z" fill="#e5e5e5"/><path d="m2.2 11.1c-.7.4-1.2 1-1 1.3l1.6 3.1c.2.4.9.4 1.7 0 .7-.4 1.2-1 1-1.3l-1.6-3.1c-.2-.4-1-.4-1.7 0z" fill="#fc0"/><path d="m9.8 23-6-11.9c.2.4-.3 1-1 1.3-.7.4-1.5.4-1.7 0l5.1 10.1c1.1.3 2.3.5 3.6.5z" opacity=".2"/><path d="m11 9.8c-.8-.1-1.5.2-1.6.6l-1.3 12.5c.6.1 1.2.1 1.9.1h1.1l1.3-12.3c.1-.4-.6-.8-1.4-.9z" fill="#e5e5e5"/><path d="m11.1 9c-.8-.1-1.5.2-1.6.6l-.4 3.5c0 .4.6.8 1.4.9s1.5-.2 1.6-.6l.4-3.5c.1-.4-.6-.8-1.4-.9z" fill="#f90"/><path d="m10.9 10.5c-.8-.1-1.5-.5-1.4-.9l-1.4 13.3c.6.1 1.2.1 1.9.1h1.1l1.4-13c0 .3-.7.6-1.6.5z" opacity=".2"/></svg>