<svg xmlns:xlink="http://www.w3.org/1999/xlink"  enable-background="new 0 0 20 20" height="20" viewBox="0 0 20 20" width="20" xmlns="http://www.w3.org/2000/svg"><path d="m1.4 14.4-.7-1.5.7-.9 1.1.6.7 1.5-.7.9z" fill="#cc291f"/><path d="m1.4 14.4-.7-1.5.7-.9 1.1.6.7 1.5-.7.9z" fill="#fbd7c7"/><path d="m17.1 7.1-.7-1.5-1.1-.6-13.9 7 1.1.6.7 1.5-.7.9 13.9-7z" fill="#cc291f"/><path d="m19.4 5h-4.1c.2.4.5.6.9.6h.2c-.3.6 0 1.4.7 1.5l-.7.9z" fill="#fbd7c7"/><path d="m16.4 5.6-13.9 7 .7 1.5 13.9-7 2.3-2.1z" opacity=".1"/><path d="m17.1 7.1-13.9 7-.7.9 13.9-7 3-3z" opacity=".29"/><path d="m2.3 13.7c0 .2-.2.3-.4.2s-.4-.4-.4-.6.2-.3.4-.2.4.4.4.6z" fill="#2d3134"/><path d="m1.4 14.4-.7-1.5.7-.9 1.1.6.7 1.5-.7.9z" opacity=".11"/><path d="m17.8 5c.2.3.5.6.6.9l1-.9z" fill="#2d3134"/></svg>