<svg xmlns:xlink="http://www.w3.org/1999/xlink"  enable-background="new 0 0 20 20" height="20" viewBox="0 0 20 20" width="20" xmlns="http://www.w3.org/2000/svg"><path d="m17.2 7.1-.7-1.5-1.1-.6-12.8 6.4 1.2.6.6 1.5-.7.9 12.8-6.4z" fill="#cc291f"/><path d="m3.8 12c.1-.4-.2-.8-.6-.7l-.5.1-.7.9-2 2.7 3.7-.6.5-.3c.2-.1.3-.4.2-.6v-.1c.4-.6 0-1.3-.6-1.4z" fill="#fbd7c7"/><path d="m4.4 13.5-4.4 1.5 3.7-.6 12.8-6.4.7-.9z" opacity=".29"/><path d="m16.5 5.6-12.7 6.4-3.8 3 4.4-1.5 12.8-6.4z" opacity=".1"/><path d="m1.7 14.7c-.2-.4-.4-.7-.7-1l-1 1.3z" fill="#2d3134"/></svg>