<svg xmlns:xlink="http://www.w3.org/1999/xlink"  enable-background="new 0 0 80 160" height="160" viewBox="0 0 80 160" width="80" xmlns="http://www.w3.org/2000/svg"><path d="m30.9 138.9c-6.3 3.7-19.8 11.1-12.1 16 6.5 4.2 28.2-.8 35.2-4.6 6.1-3.3 3.6-6.5-6.4-10.8-8-3.5-12.2-3.2-16.7-.6z" opacity=".2"/><path d="m46.3 150c2.7-.1 4.8-.9 6.8-1.2s2.9-1.6 2.1-2.4c-.8-.9-3-2.9-6.2-1.5s-5.3 5.2-2.7 5.1z" fill="#2d3134"/><path d="m56.1 147.6s-2.4-1.6-2-.7c.4 1 2 .7 2 .7z"/><path d="m54.9 145.5s-2.5-1.5-2.5-.6c.1.9 2.5.6 2.5.6z"/><path d="m30.7 143.8c.7 1.4 3.4.2 6.2.1 2.7-.1 5.1-.9 4.4-2.4s-1.4-2.6-5.7-2.1-5.3 3.7-4.9 4.4z" fill="#2d3134"/><path d="m30.7 143.8c.7 1.4 3.4.2 6.2.1 2.7-.1 5.1-.9 4.4-2.4s-1.4-2.6-5.7-2.1-5.3 3.7-4.9 4.4z" opacity=".25"/><path d="m52.2 36.8c-.5 3.9 5.2 8 7.1 15.6 1.8 7 5.1 26.3 3 41.5s-10.6 32.7-11.8 39.5.1 10.6-1.4 14.8c-1.1 3.3-6.8 3.5-7.8 1.8-.3-.6-1.7-6.8-1.9-13.8-1-30.5.2-106.3.2-106.3l10.5 2.9z" fill="#e5e5e5"/><path d="m52.2 36.8c.1 1.7.5 2.8 1.7 4.4s4.1 6.2 2.4 6.9-9.7-3.9-12.2-5.4-4.4-6.5-.3-9.6 5.8-2 6.5-.9c.7 1 1.9 4.6 1.9 4.6z" fill="#fc0"/><path d="m48.1 33.3c2.2.6.2 3.5 1.8 4.3 1.6.7 2.3-.9 2.3-.9s-.5-5.1 2.3-7.6 6.5-2.9 6.5-2.9-1-2.2-4.6-2c-3.7.2-5.9-2.2-10.6-2.2s-11 3-13.3 10.4-6.8 11.2-9 13.8c-5.1 6.1-11.7 18.7-10.9 42.2s10.5 35.2 8.4 43.8c-2.1 8.5-7.6 21.5-4.4 22.7s10.2-6.6 14.6-10.1c2.7-2.2 5.1-3.5 6.6-4.2 8.3-3.9 14.1-16.5 15.7-20 4-8.9 5.3-26.2 6.2-43.3s0-24.5-1.5-28.7c-1.6-4.1-4.5-7.3-5.1-7.3s.3 2-.4 2.9c-.9 1.3-8.7-.4-9.3-5.7-.5-3.8 3.2-5.5 4.7-5.2z" fill="#2d3134"/><path d="m58.4 25.8s-2.8-.1-4.5 1.3c-1.7 1.3-2.1 2.9-1.8 3.3 1.3-2.3 3.4-3.7 6.3-4.6z" fill="#f90"/><path d="m50.7 28.2s.2-.7.8-.9 1.2.2 1.2.2-.3 1.6-2 .7z"/><path d="m53.2 66c-1.5 5.1-1.1 14.7 2.3 21s7.3 15.9 6.4 21.8-1.2 9 .3 9.6c1.5.7 6.3-9.1 5.9-18.5s-2.6-18.5-5.5-26.7-3.3-9.9-4.3-10.2c-1-.4-4-.9-5.1 3z" fill="#2d3134"/><path d="m53.2 66c-1.5 5.1-1.1 14.7 2.3 21s7.3 15.9 6.4 21.8-1.2 9 .3 9.6c1.5.7 6.3-9.1 5.9-18.5s-2.6-18.5-5.5-26.7-3.3-9.9-4.3-10.2c-1-.4-4-.9-5.1 3z" opacity=".25"/></svg>