<svg xmlns:xlink="http://www.w3.org/1999/xlink"  enable-background="new 0 0 20 20" height="20" viewBox="0 0 20 20" width="20" xmlns="http://www.w3.org/2000/svg"><path d="m1.1 13.4c-.4.6 2.2 3.6 7.5 3.8s8.6-2.4 9-4.2-1.1-3.9-2.5-4-2.5 0-4.9 2.8-8.6.6-9.1 1.6z" fill="#cc291f"/><path d="m16.9 10.3c.2.5.2 1.1.1 1.6-.4 1.8-3.8 4.4-9.2 4.3-3.3-.1-5.6-1.3-6.7-2.4.4 1 2.9 3.2 7.4 3.4 5.3.2 8.6-2.4 9-4.2.2-.9-.1-1.9-.6-2.7z" opacity=".15"/><path d="m14.9 8.8.6.6-.1 1.1 1.4.5.9 1.8s.3-.6.3-1.1-.2-1.2-.2-1.2 1.2-1.4 1.3-2.7c.2-2.3-2.1-2-2.1-2l.1.6s1.3.1.9 1.5c-.5 1.5-3.1.9-3.1.9z" fill="#539b00"/></svg>