<svg xmlns:xlink="http://www.w3.org/1999/xlink"  enable-background="new 0 0 40 40" height="40" viewBox="0 0 40 40" width="40" xmlns="http://www.w3.org/2000/svg"><path d="m27.4 19.5c-.4-1.2-2.1-2.1-4.2-2.1-1.3 0-2.4.4-3.2.9-.8-.6-1.9-.9-3.2-.9-2 0-3.7.9-4.2 2.1-1.5.5-2.6 1.6-2.6 2.9.2 4 1.5 11 4.2 13.9.1.1.2.2.3.3.6.6 1.5.9 2.5.9 1.4 0 2.6-.7 3-1.7.4 1 1.6 1.7 3 1.7 1 0 1.9-.4 2.5-.9.1-.1.2-.2.3-.3 2.7-2.8 4-9.9 4.2-13.9 0-1.3-1.1-2.4-2.6-2.9z" fill="#fc0"/><path d="m20.4 18.9c.2-2.8 2.4-5 .7-5.2-1.5-.1-1.7 3.7-1.7 5.2-1 .1-1.8.5-1.8 1 0 .6 1 1 2.3 1s2.3-.5 2.3-1c.1-.5-.7-.9-1.8-1z" fill="#539b00"/><path d="m25.9 19.3c.5 0 1 .1 1.5.2-.1-.3-.2-.5-.4-.7-1.8.1-3.3.7-4.1 1.5.7-.6 1.8-1 3-1z" opacity=".15"/><path d="m14.1 19.3c1.2 0 2.3.4 3 1-.8-.8-2.3-1.4-4.1-1.5-.2.2-.3.5-.4.7.5-.1 1-.2 1.5-.2z" opacity=".15"/><path d="m25.4 23.6c0-1.6-2.4-2.8-5.4-2.8-2 0-3.7.6-4.7 1.4-.5.3-.8.8-.8 1.5 0 4.3.9 10.9 1.6 12.8.5 1.2 1.7 2 3.8 2s3.3-.9 3.8-2c2-4.4 1.7-8.4 1.7-12.9z" fill="#fc0"/><path d="m14.6 23.6c0-.7.3-1.2.8-1.5.4-.3.9-.6 1.6-.9-.9.2-1.7.5-2.2.9-.5.3-.9.7-.9 1.3 0 3.8 1.1 9.8 1.8 11.6.1.1.2.3.3.4-.7-2.6-1.4-8.1-1.4-11.8z" opacity=".15"/><path d="m26.2 23.5c0-.9-1.2-1.8-3.1-2.2 1.4.5 2.3 1.4 2.3 2.3 0 4 .2 7.7-1.1 11.5 0 0 0 0 0-.1 2.1-3.8 1.9-7.5 1.9-11.5z" opacity=".15"/></svg>