<svg xmlns:xlink="http://www.w3.org/1999/xlink"  enable-background="new 0 0 40 20" height="20" viewBox="0 0 40 20" width="40" xmlns="http://www.w3.org/2000/svg"><path d="m39.5 7.5v-1l-37 5.9v1c0 .2.1.3.2.4l11.4 5.7c.6.3 1.2.3 1.8 0l23.4-11.6c.1-.1.2-.3.2-.4z" fill="#2d3134"/><path d="m39.5 7.5v-1l-37 5.9v1c0 .2.1.3.2.4l11.4 5.7c.6.3 1.2.3 1.8 0l23.4-11.6c.1-.1.2-.3.2-.4z" opacity=".2"/><path d="m2.7 12.9 11.4 5.7c.6.3 1.2.3 1.8 0l23.4-11.7c.3-.2.3-.6 0-.7l-11.6-5.8c-.4-.2-1-.2-1.4 0l-23.6 11.7c-.3.2-.3.6 0 .8z" fill="#656565"/><path d="m26 1.5-20 10 11 5.5 20-10z" fill="#36c"/><path d="m28 2.5-8 13 17-8.5z" fill="#fff" opacity=".1"/><ellipse cx="10" cy="15" opacity=".3" rx="1" ry=".5"/><path d="m31.5 3 2 1-.5.3-2-1z" opacity=".3"/></svg>