<svg xmlns:xlink="http://www.w3.org/1999/xlink"  enable-background="new 0 0 20 40" height="40" viewBox="0 0 20 40" width="20" xmlns="http://www.w3.org/2000/svg"><path d="m16.8 8.4-11.6-5.8c-.2-.1-.5-.1-.7 0l-1 .5.5.3v29.1c0 .3.2.6.5.7l12 6v.7l.9-.5c.3-.1.6-.4.6-.8v-28.3c0-.8-.5-1.5-1.2-1.9z" fill="#2d3134"/><path d="m4.2 3.1 11.6 5.8c.7.4 1.2 1.1 1.2 1.9v28.3c0 .6-.7 1-1.2.7l-12.3-6.1c-.3-.1-.5-.4-.5-.7v-29.1c0-.7.7-1.1 1.2-.8z" fill="#656565"/><path d="m17 10.8v28.3c0 .3-.1.5-.4.7l.8-.4c.3-.1.6-.4.6-.8v-28.3z" opacity=".29"/><path d="m16 11.5-12-6v24.5l12 6z" fill="#36c"/><path d="m14 10.5-10-5v19.3z" fill="#fff" opacity=".15"/><path d="m9 34.6c0 .5.4 1.1.9 1.3s.9 0 .9-.4-.4-1.1-.9-1.3c-.5-.3-.9-.1-.9.4z" opacity=".3"/><path d="m4.2 3.1 11.6 5.8c.7.4 1.2 1.1 1.2 1.9v28.3c0 .6-.7 1-1.2.7l-12.3-6.1c-.3-.1-.5-.4-.5-.7v-29.1c0-.7.7-1.1 1.2-.8z" opacity=".11"/><path d="m9 6.4v.5l2 1v-.5z" opacity=".3"/></svg>