<svg xmlns:xlink="http://www.w3.org/1999/xlink"  enable-background="new 0 0 32 24" height="24" viewBox="0 0 32 24" width="32" xmlns="http://www.w3.org/2000/svg"><ellipse cx="16.1" cy="21" opacity=".3" rx="4.8" ry="1.8"/><path d="m10 7-.5.2v.1l1.3-.1-1.2.7c.1 1.4.4 2.9.9 4.5l1.2.1-.9.6 2-.5-1.8 1.1c.5 1.3 1.2 2.7 2.1 4.1l1.2-.2-.9.7s.1.1.1.1l1.6-.5-1.1.8.5-.2-.6.5c.8 1.1 1.7 2.1 2.7 3.2 1.7-3.2 1.5-6 .5-8.7l-1 .1.9-.6v-.1l-1.7.5 1.5-1c-.5-1.2-1.2-2.4-1.9-3.6l-.8.1.6-.5s0-.1-.1-.1l-2 .4 1.4-1.1s0-.1-.1-.1l-1.1.3.8-.7c-.6-1-1.1-1.9-1.6-2.9l-.6-.1.4-.4v-.1l-.8.2.6-.7c-.3-.6-.5-1.2-.7-1.8-.8 1.1-1.4 3-1.4 5.4z" fill="#539b00"/><path d="m13 17.8 1.2-.2-.9.7s.1.1.1.1l1.6-.5-1.1.8.5-.2-.5.5c.8 1.1 1.7 2.1 2.7 3.2-.6-6.6-6.6-13.3-5.7-20.8-.8 1.1-1.4 3-1.4 5.4l.5.2-.5.2v.1l1.3-.1-1.2.7c.1 1.4.4 2.9.9 4.5l1.2.1-.9.6 2-.5-1.8 1.1c.5 1.3 1.1 2.7 2 4.1z" opacity=".2"/><path d="m18.1 13.9 1.1.8-.7-1.3s0 0 .1-.1l.6.4-.4-.6c.7-.8 1.7-1.4 2.9-1.8l.3.7v-.8h.2l.6 1.2-.2-1.4h.1l.3.5v-.6c.6-.1 1.2-.2 1.9-.2l.3.8.2-.8c.5 0 .9 0 1.4.1l.2.8.3-.7h.1v.8l.3-.8c.7.1 1.4.2 2.1.4-5 1.8-11.2 5.8-13.3 10.9-.1.1-.9-4.8 1.6-8.3z" fill="#539b00"/><path d="m18.1 13.9 1.1.8-.7-1.3s0 0 .1-.1l.6.4-.4-.6c.7-.8 1.7-1.4 2.9-1.8l.3.7v-.8h.2l.6 1.2-.2-1.4h.1l.3.5v-.6c.6-.1 1.2-.2 1.9-.2l.3.8.2-.8c.5 0 .9 0 1.4.1l.2.8.3-.7h.1v.8l.3-.8c.7.1 1.4.2 2.1.4-5 1.8-11.2 5.8-13.3 10.9-.1.1-.9-4.8 1.6-8.3z" opacity=".3"/><path d="m20.4 13.9.8.7-.5-1h.1l1 1.3-.7-1.5h.1l.4.4-.2-.5c.6-.4 1.4-.8 2.2-1l.4.6-.1-.7h.1l.7 1.2-.4-1.3c.4-.1.9-.2 1.4-.3l.2.4.1-.5h.1l.2.8.1-.8c1-.1 2.1-.2 3.4-.2-5 1.8-11.2 5.8-13.3 10.9-.1-.1-.1-5.3 3.9-8.5z" fill="#539b00"/><path d="m12.5 13.1-.8 1.3.4-1.7s-.1 0-.1-.1l-.5.6.2-.8c-.9-.7-2-1.2-3.3-1.4l-.3.9-.2-.9c-.1 0-.1 0-.2 0l-.3 1.6-.2-1.6h-.1l-.1.7-.2-.7c-.6 0-1.3.1-1.9.3v1l-.4-.9c-.4.1-.9.3-1.4.4v.9l-.5-.8h-.1l.2 1-.3-.9c-.6.3-1.3.6-2 1 5.3.8 12.5 3.9 16 9.3 0 0-.6-5.8-3.9-9.2z" fill="#539b00"/><path d="m12.5 13.1-.8 1.3.4-1.7s-.1 0-.1-.1l-.5.6.2-.8c-.9-.7-2-1.2-3.3-1.4l-.3.9-.2-.9c-.1 0-.1 0-.2 0l-.3 1.6-.2-1.6h-.1l-.1.7-.2-.7c-.6 0-1.3.1-1.9.3v1l-.4-.9c-.4.1-.9.3-1.4.4v.9l-.5-.8h-.1l.2 1-.3-.9c-.6.3-1.3.6-2 1 5.3.8 12.5 3.9 16 9.3 0 0-.6-5.8-3.9-9.2z" opacity=".3"/><path d="m10.2 13.7-.6 1.1.2-1.3s0 0-.1 0l-.7 1.7.2-1.9s0 0-.1 0l-.1.5.1-.7c-.7-.3-1.5-.5-2.4-.7l-.2.8-.1-.8h-.1l-.5 1.6v-1.6c-.5 0-.9 0-1.4 0l-.1.6-.2-.5s0 0-.1 0v.9l-.3-.9c-1 .1-2.2.3-3.4.6 5.3.8 12.5 3.9 16 9.3.1-.1-1.3-6-6.1-8.7z" fill="#539b00"/><path d="m18.4 7.4-.4-.2.9.7-1.1-.2c-.5 1-1 2.2-1.3 3.6l.8.7h-1.1l1.6.7-1.7-.2c-.2 1.2-.3 2.5-.3 3.9l.9.5h-.9v.1l1.3.5h-1.1l.4.1-.6.1c.1 1.2.2 2.4.5 3.7 2.5-1.3 3.6-3.3 4.1-5.7l-.8-.5.8.1v-.1l-1.4-.6 1.5.1c.2-1.1.2-2.3.3-3.5l-.6-.4h.6v-.1l-1.5-.8h1.6v-.1l-.9-.3.9-.1c0-1 .1-1.9.2-2.9l-.4-.4.4-.1v-.1l-.7-.3.7-.1c.1-.5.2-1 .3-1.5-1 .3-2.2 1.3-3.3 3z" fill="#539b00"/><path d="m16.3 21.4c2.5-1.3 3.6-3.3 4.1-5.7l-.8-.5.8.1v-.1l-1.4-.6 1.5.1c.2-1.1.2-2.3.3-3.5l-.6-.4h.6v-.1l-1.5-.8h1.6v-.1l-.9-.3.9-.1c0-1 .1-1.9.2-2.9l-.4-.4.4-.1v-.1l-.7-.3.7-.1c.1-.5.2-1 .3-1.5-3.3 4.6-3.1 11.6-5.1 17.4z" opacity=".2"/><path d="m14.6 19.1.3-.4-.9.9.6-1.1c-.7-.6-1.6-1-2.7-1.4l-.9.8.4-.9-1.2 1.6.8-1.7c-1-.2-2.1-.4-3.4-.4l-.8.9.3-.9h-.1l-1 1.3.5-1.2-.3.4.1-.6c-1.1.1-2.2.2-3.4.4 1 2.2 2 3.6 3.6 4.2l.7-.8-.4.9h.1l1.1-1.3-.7 1.5c.9.2 1.9.2 3 .3l.6-.6-.2.6h.1l1.2-1.6-.6 1.6h.1l.6-.9-.3.9c.8 0 1.7.1 2.5.2l.5-.4-.1.4h.1l.5-.7-.2.7c.5.1.9.2 1.3.3.1-1.1-.4-2.3-1.4-3.3z" fill="#539b00"/><path d="m14.6 19.1.3-.4-.9.9.6-1.1c-.7-.6-1.6-1-2.7-1.4l-.9.8.4-.9-1.2 1.6.8-1.7c-1-.2-2.1-.4-3.4-.4l-.8.9.3-.9h-.1l-1 1.3.5-1.2-.3.4.1-.6c-1.1.1-2.2.2-3.4.4 3 2.2 9 2.3 12.4 4.4l.1-.1v.1c.4.3.8.6 1.2.9.1-1.1-.4-2.3-1.4-3.3z" opacity=".2"/><path d="m28.4 16.7c-.7-1-5.5-1.4-3.5-.7 1.4.4 2.1 1.2 2.4 1.9h.7l-.6.3v.1l.4.1-.3.1c.1.5.1 1 .1 1s1.8-1.5.8-2.8z" fill="#539b00"/><path d="m28.4 16.7c-.7-1-5.5-1.4-3.5-.7 1.4.4 2.1 1.2 2.4 1.9h.7l-.6.3v.1l.4.1-.3.1c.1.5.1 1 .1 1s1.8-1.5.8-2.8z" opacity=".3"/><path d="m23.5 13.9.3.4-.7-.4c-.1 0-.1 0-.2 0l.3.7-.7-.6c-.1 0-.1 0-.2 0l.2.3-.5-.2c-1 .3-1.9.9-2.9 1.9l.4.3-.5-.1s-.1.1-.1.1l.6.5-.7-.3s0 0-.1.1l.2.2-.3-.1c-1 1.3-1.7 3.2-2.1 5.6 3.1-2.6 5.3-4.1 7-5l-.2-.6.6.3-.5-.9.9.6-.1-.4.5.4c2.3-.9 3.2-.4 3.8-.1-1.1-1.3-3.3-2.7-5-2.7z" fill="#539b00"/></svg>