<svg xmlns:xlink="http://www.w3.org/1999/xlink"  enable-background="new 0 0 40 40" height="40" viewBox="0 0 40 40" width="40" xmlns="http://www.w3.org/2000/svg"><ellipse cx="21.5" cy="14.5" fill="#baa794" rx="7.5" ry="11.5" transform="matrix(.06506667 .9979 -.9979 .06506667 34.5794 -7.8636)"/><path d="m29.2 19.8c-.9.2-1.8.3-2.7.4-6.3.4-11.7-2.6-12-6.7-.2-2.3 1.3-4.5 3.8-6-5 1.1-8.5 4.3-8.3 7.8.3 4.1 5.6 7.1 12 6.7 2.8-.2 5.3-1 7.2-2.2z" opacity=".15"/><ellipse cx="11.1" cy="26" fill="#baa794" rx="7.5" ry="11.5" transform="matrix(.336 .9419 -.9419 .336 31.8655 6.7814)"/><path d="m20 29c-.8.4-1.6.8-2.5 1.1-6 2.1-12 .7-13.4-3.2-.8-2.2 0-4.7 2-6.8-4.5 2.4-7 6.5-5.8 9.8 1.4 3.9 7.4 5.3 13.4 3.2 2.6-1 4.8-2.4 6.3-4.1z" opacity=".15"/><ellipse cx="29.7" cy="23.1" fill="#baa794" rx="7.5" ry="11.5" transform="matrix(.5824 .8129 -.8129 .5824 31.1714 -14.4793)"/><path d="m39 23.5c-.6.6-1.3 1.2-2.1 1.8-5.2 3.7-11.3 4-13.7.6-1.4-1.9-1.2-4.5 0-7.1-3.6 3.6-4.9 8.2-2.9 11 2.4 3.4 8.6 3.1 13.7-.6 2.3-1.6 4-3.6 5-5.7z" opacity=".15"/><ellipse cx="21.9" cy="29.8" fill="#baa794" rx="7.5" ry="11.5" transform="matrix(-.162 .9868 -.9868 -.162 54.9391 13.023)"/><path d="m28.2 36.7c-.9 0-1.8-.1-2.7-.2-6.3-1-10.8-5.2-10.1-9.3.4-2.3 2.3-4.1 5.1-5-5.1 0-9.3 2.3-9.8 5.8-.7 4.1 3.9 8.2 10.1 9.3 2.7.4 5.3.2 7.4-.6z" opacity=".15"/></svg>