<svg xmlns:xlink="http://www.w3.org/1999/xlink"  enable-background="new 0 0 100 100" height="100" viewBox="0 0 100 100" width="100" xmlns="http://www.w3.org/2000/svg"><path d="m10 50v20l60 30 30-15v-25l-60-30z" fill="#2d3134"/><path d="m70 100-60-30v-20l60 30z" opacity=".11"/><path d="m70 100 30-15v-25l-30 20z" opacity=".29"/><path d="m10 78v2l40 20 10-5v-2l-40-20z" fill="#2d3134"/><path d="m50 100-40-20v-2l40 20z" opacity=".11"/><path d="m50 100 10-5v-2l-10 5z" opacity=".29"/><path d="m16 61v11l48 24v-11z" opacity=".3"/><g fill="#9c3"><path d="m16 56-2-1v2l2 1z" opacity=".8"/><path d="m20 58-2-1v2l2 1z" opacity=".6"/><path d="m24 60-2-1v2l2 1z" opacity=".4"/><path d="m28 62-2-1v2l2 1z" opacity=".2"/></g><path d="m48 34-6 3 44 22 6-3z" opacity=".5"/><path d="m48 16v20l40 20 2-1v-20l-40-20z" fill="#2d3134"/><path d="m88 56-40-20v-20l40 20z" opacity=".11"/><path d="m88 56 2-1v-20l-2 1z" opacity=".29"/><path d="m50 3 36 18v36l-36-18z" fill="#e5e5e5"/><path d="m26 72 36 18-10 5-36-18z" fill="#e5e5e5"/><path d="m22 69-6 3 48 24v-6z" opacity=".2"/></svg>