<svg xmlns:xlink="http://www.w3.org/1999/xlink"  enable-background="new 0 0 60 40" height="40" viewBox="0 0 60 40" width="60" xmlns="http://www.w3.org/2000/svg"><path d="m28.7 6.5c-1.2-.6-2.3-.7-3.1-.3l-3.1 1.6c-1 .4-1.5 1.3-1.5 2.6 0 2.5 2 5.6 4.6 6.8 1.2.6 2.4.7 3.2.3 0 0 3.1-1.6 3.3-1.7.7-.4 1.2-1.3 1.2-2.5-.1-2.4-2.1-5.5-4.6-6.8z" fill="#2d3134"/><path d="m28.8 17.5c.3-.2 3.1-1.5 3.2-1.6.7-.4 1.2-1.3 1.2-2.5 0-1-.3-2.1-.9-3.1l-3.1 1.6c.6 1 .9 2.1.9 3.1 0 1.2-.5 2.1-1.3 2.5z" opacity=".29"/><path d="m0 24v1l30 15 20-10v-1l-30-15z" fill="#2d3134"/><path d="m0 15v9l30 15 20-10v-9l-30-15z" fill="#656565"/><path d="m30 40 20-10v-10l-20 10z" opacity=".29"/><path d="m2 17v2l4 2v-2z" opacity=".5"/><path d="m8 20v2l4 2v-2z" opacity=".5"/><path d="m14 23v2l4 2v-2z" opacity=".5"/><path d="m20 26v2l4 2v-2z" opacity=".5"/><path d="m48 28v1l-16 8v-1z" opacity=".3"/><path d="m48 26v1l-16 8v-1z" opacity=".3"/><path d="m48 24v1l-16 8v-1z" opacity=".3"/><path d="m48 22v1l-16 8v-1z" opacity=".3"/><path d="m28 30.6c0 .5-.4.8-1 .5-.5-.3-1-.9-1-1.5 0-.5.4-.8 1-.5s1 .9 1 1.5z" fill="#e5e5e5"/><path d="m27.5 30.3c0 .3-.2.4-.5.2-.3-.1-.5-.5-.5-.8s.2-.4.5-.2.5.6.5.8z" opacity=".7"/><path d="m28 33.4c0 .5-.4.8-1 .5-.5-.3-1-.9-1-1.5 0-.5.4-.8 1-.5s1 1 1 1.5z" fill="#fc0"/><path d="m27.5 33.2c0 .3-.2.4-.5.2-.3-.1-.5-.5-.5-.8s.2-.4.5-.2c.3.1.5.5.5.8z" opacity=".7"/><path d="m28 36.4c0 .5-.4.8-1 .5-.5-.3-1-.9-1-1.5s.4-.8 1-.5 1 1 1 1.5z" fill="#f90"/><path d="m27.5 36.2c0 .3-.2.4-.5.2-.3-.1-.5-.5-.5-.8s.2-.4.5-.2c.3.1.5.5.5.8z" opacity=".7"/><path d="m30 40-30-15v-10l30 15z" opacity=".11"/></svg>