<svg xmlns:xlink="http://www.w3.org/1999/xlink"  enable-background="new 0 0 60 40" height="40" viewBox="0 0 60 40" width="60" xmlns="http://www.w3.org/2000/svg"><path d="m0 24v1l30 15 20-10v-1l-30-15z" fill="#2d3134"/><path d="m0 15v9l30 15 20-10v-9l-30-15z" fill="#656565"/><path d="m30 40-30-15v-10l30 15z" opacity=".11"/><path d="m30 40 20-10v-10l-20 10z" opacity=".29"/><path d="m0 22v1l16 8v-1z" opacity=".3"/><path d="m0 20v1l16 8v-1z" opacity=".3"/><path d="m0 18v1l16 8v-1z" opacity=".3"/><path d="m0 16v1l16 8v-1z" opacity=".3"/><path d="m48 28v1l-16 8v-1z" opacity=".3"/><path d="m48 26v1l-16 8v-1z" opacity=".3"/><path d="m48 24v1l-16 8v-1z" opacity=".3"/><path d="m48 22v1l-16 8v-1z" opacity=".3"/><path d="m22.4 26.8c-1.2-.6-2.3-.7-3.1-.3l-3.1 1.5c-.9.4-1.4 1.3-1.4 2.6 0 2.5 2 5.6 4.6 6.8 1.2.6 2.4.7 3.2.3 0 0 3.1-1.6 3.3-1.7.7-.4 1.2-1.3 1.2-2.5-.1-2.4-2.1-5.5-4.7-6.7z" fill="#2d3134"/><path d="m22.6 37.7c.3-.2 3.1-1.5 3.2-1.6.7-.4 1.2-1.3 1.2-2.5 0-1-.3-2.1-.9-3.1l-3.1 1.5c.6 1 .9 2.1.9 3.1 0 1.3-.5 2.2-1.3 2.6z" opacity=".29"/><path d="m22.8 34.6c0 1.9-1.5 2.7-3.4 1.7-1.9-.9-3.4-3.2-3.4-5.1s1.5-2.7 3.4-1.7 3.4 3.2 3.4 5.1z" opacity=".3"/><path d="m19.3 29.5c-.2-.1-.5-.2-.7-.3-.7.2-1.1.8-1.1 1.8 0 1.7 1.4 3.8 3.1 4.6.7.3 1.3.4 1.8.3.2-.3.3-.8.3-1.3.1-1.9-1.5-4.2-3.4-5.1z" fill="#36c"/><path d="m20.1 31.8c0 .5-.4.8-1 .5s-1-.9-1-1.5c0-.5.4-.8 1-.5s1 1 1 1.5z" fill="#fff" opacity=".3"/><path d="m23.9 35.2c0 2.5-2 3.5-4.6 2.3-2.5-1.3-4.6-4.3-4.6-6.8s2-3.5 4.6-2.3 4.6 4.3 4.6 6.8z" opacity=".11"/></svg>