<svg xmlns:xlink="http://www.w3.org/1999/xlink"  enable-background="new 0 0 8 8" height="8" viewBox="0 0 8 8" width="8" xmlns="http://www.w3.org/2000/svg"><path d="m7.6 4.7c0-.3 0-.6-.1-.9-.2-1.2-1.2-2.1-2.2-2.2-.4-.2-.9-.3-1.3-.3-.5 0-1 .1-1.4.3-1 .1-2 1-2.1 2.3-.1.2-.2.5-.2.8 0 1.9 1.4 2.7 2.8 2.8.2.1.5.1.9.1.4.1.7 0 1-.1 1.2-.2 2.6-1 2.6-2.8z" fill="#f90"/><path d="m6.6 5.6c-.2.4-.5.6-1 .8-.2 0-.6-.1-.7-.1-.2.3-.6.4-1 .4s-.7-.2-1-.5c-.1.1-.4.2-.6.2-.4-.1-.7-.4-.9-.6-.1 0-.2 0-.4 0s-.4-.1-.5-.1c.4 1.2 1.5 1.7 2.6 1.8.2.1.5.1.9.1.4.1.7 0 1-.1 1.2-.1 2.5-.9 2.6-2.6-.2.4-.6.6-1 .7z" opacity=".15"/><path d="m4.6 2c1.2-.2 2.3.5 2.7 1.6-.3-1.3-1.7-2.2-2.7-1.6 0-.2-.1-.2-.2-.2.2-.2.6-.3.6-.3s-.2 0-.4 0c-.1 0-.3.1-.4.2-.1 0-.2 0-.3 0s-.3 0-.4.1c0-.2-.2-.3-.3-.3-.2-.1-.4 0-.4 0s.5.1.6.3c-.1 0-.1.1-.1.1-1-.5-2.5.4-2.8 1.7.4-1.2 1.6-1.9 2.8-1.7v.1c-.6.1-1.8.6-2.1 2.3-.3 1.9 1.2 2.7 1.2 2.7s-1-.9-1-2.3c0-1.9 1.3-2.5 1.9-2.7.1.1.2.1.3.2-.4.3-1 1.1-1 2.3 0 2 .7 2.3.7 2.3s-.4-.3-.4-2.3c0-1.2.5-1.9.8-2.2h.3.3c.3.3.7 1 .7 2.1 0 2-.6 3-.6 3s.9-1 .9-3c0-1.2-.5-1.8-.9-2.1.1-.1.2-.2.2-.3.5.3 1.7 1 1.7 2.9.1 1.9-1.3 2.6-1.3 2.6s2-.9 1.6-3.3c-.3-1.7-1.5-2.1-2-2.2z" opacity=".2"/><path d="m4.4.4c-.9 0-.6.6-1.1 1.3 0 .2-.1.2-.1.3 0 .2.3.4.7.4s.7-.2.7-.4c0-.1 0-.1-.1-.2-.8-1.4.2-1.1.4-.8.1.1.2 0 .2-.1s-.2-.5-.7-.5z" fill="#539b00"/></svg>