<svg xmlns:xlink="http://www.w3.org/1999/xlink"  enable-background="new 0 0 128 128" height="128" viewBox="0 0 128 128" width="128" xmlns="http://www.w3.org/2000/svg"><path d="m116 28-4-4-8-4h-8l-8-8-8-4-4-4-12-4-12 4-4 4-8 4-3 3h-8l-4 2-1 3-3 1v20l-1 1-4 4-3 1v20l-1 1-12 4v24l12 4 4 4 8 4 8 8h8l8 4 4 4 12 4 12-4 4-4 8-4h8l8-8 8-4 4-4 12-4v-64z" fill="#656565"/><path d="m116 36-4 4-8 4-3 3h-8l-4 2-1 3-3 1v20l3-1 1-3 4-2h8l-5 5h-8l-4 2-4 4-3 1v20l-1 1-12 4v24l12-4 4-4 8-4h8l8-8 8-4 4-4 12-4v-64z" opacity=".29"/><path d="m0 72 12 4 4 4 8 4 8 8h8l8 4 4 4 12 4v24l-12-4-4-4-8-4h-8l-8-8-8-4-4-4-12-4z" opacity=".11"/><path d="m76 124-12 4v-24l12-4z" opacity=".1"/><path d="m48 96-8-4v24l8 4z" fill="#fff" opacity=".1"/><path d="m16 80-4-4v24l4 4z" fill="#fff" opacity=".1"/><path d="m12 76-12-4v24l12 4z" opacity=".1"/><path d="m24 84 8 8v24l-8-8z" opacity=".15"/><path d="m52 124 12 4v-24l-12-4z" opacity=".1"/><path d="m13 47 6 2 4 10h14l3 13 13-5 8 4 3 7 13 1v20l-13-1-3-7-8-4-13 5-3-13h-14l-4-10-6-2z" opacity=".11"/><path d="m88 72-4 2v20l-4 2v24l8-4z" fill="#fff" opacity=".1"/><path d="m80 98-3 1v-20l3-1z" opacity=".1"/><path d="m61 71-8-4v20l8 4z" opacity=".15"/><path d="m23 59-4-10v20l4 10z" opacity=".15"/><path d="m19 49-6-2v20l6 2z" fill="#fff" opacity=".1"/><path d="m37 59 3 13v20l-3-13z" fill="#fff" opacity=".1"/><path d="m64 98 13 1v-20l-13-1z" opacity=".1"/><path d="m21 21 10 12 9-3 5 3 4 12 14-8 6 3 3 12 13 1v20l-13-1-3-12-6-3-14 8-4-12-5-3-9 3-10-12z" opacity=".11"/><path d="m89 49 4-2v20l-4 2z" opacity=".15"/><path d="m112 40v64l4-4v-64z" fill="#fff" opacity=".1"/><path d="m116 36v64l12-4v-64z" opacity=".1"/><g fill="#fff"><path d="m88 72-3 1v-20l3-1z" opacity=".1"/><path d="m69 40-6-3v20l6 3z" opacity=".1"/><path d="m40 30-9 3v20l9-3z" opacity=".1"/></g><path d="m31 33-10-12v20l10 12z" opacity=".1"/><path d="m45 33 4 12v20l-4-12z" opacity=".15"/><path d="m72 72-3-12v-20l3 12z" opacity=".15"/><path d="m101 47v20l-5 5v44l8-8v-64z" opacity=".15"/></svg>