<svg xmlns:xlink="http://www.w3.org/1999/xlink"  enable-background="new 0 0 128 128" height="128" viewBox="0 0 128 128" width="128" xmlns="http://www.w3.org/2000/svg"><path d="m64 1-12 4-4 4-8 4-8 8h-8l-8 4-4 4-12 4v15l12 12 4 21 8 15 6 6 10-3 4 12 12 13 8 4 5-9 11-11 8-4 8-16 8-10 8-1 4-4 12-29v-11l-12-4-4-4-8-4h-8l-8-8-8-4-4-4z" fill="#656565"/><path d="m64 0-12 4-4 4-8 4-8 8h-8l-8 4-4 4-12 4v2l12 4 4 4 8 4 8 8h8l8 4 4 4 12 4 12-4 4-4 8-4h8l8-8 8-4 4-4 12-4v-2l-12-4-4-4-8-4h-8l-8-8-8-4-4-4z" fill="#9c3"/><path d="m64 0-12 4-4 4-8 4-8 8h-8l-8 4-4 4-12 4v2l12 4 4 4 8 4 8 8h8l8 4 4 4 12 4 12-4 4-4 8-4h8l8-8 8-4 4-4 12-4v-2l-12-4-4-4-8-4h-8l-8-8-8-4-4-4z" fill="#9c3"/><path d="m0 32 12 4 4 4 8 4 8 8h8l8 4 4 4 12 4v64l-8-4-12-13-4-12-10 3-6-6-8-15-4-21-12-12z" opacity=".11"/><path d="m128 32v12l-12 29-4 4-8 1-8 10-8 16-8 4-11 11-5 9v-64l12-4 4-4 8-4h8l8-8 8-4 4-4z" opacity=".29"/><path d="m80 56 8-4 3.7 32.5-3.7 7.5v12l-8 4 7-35.5z" fill="#fff" opacity=".1"/><path d="m112 40 4-4-1 6 5 12-8 9 4 10-4 4-3-8 7-17z" fill="#fff" opacity=".1"/><path d="m116 36 12-4v12l-12 29-2-8 10-14-3 1z" opacity=".1"/><path d="m104 44-8 8-2 7 7 7-5 21v1l8-10 3-9z" opacity=".15"/><path d="m69 119-5 9v-64l12-4-7 16 8 3 6.3-4.3-15 32z" opacity=".1"/><path d="m48 56-8-4 6 24-6-6-3 8 3 17v4l4 12 4-17-3-10 3-9z" fill="#fff" opacity=".1"/><path d="m16 40-4-4 3 8-2 4-4 5 3 7 4 21v-9l4 2-4-23z" fill="#fff" opacity=".1"/><path d="m12 36-12-4v16l12 12-9-18 9 6z" opacity=".1"/><path d="m24 44 8 8 7 17-7 19 2 6-4 8-6-6 7-15-10-31z" opacity=".15"/><path d="m56 124 8 4v-64l-12-4-2 6 5 7 3 19-6 11z" opacity=".1"/><path d="m69 76 7.4-.7 8.6-2.9-1.7 2.3-6.3 4.3z" fill="#fff" opacity=".1"/></svg>