<svg xmlns:xlink="http://www.w3.org/1999/xlink"  enable-background="new 0 0 128 128" height="128" viewBox="0 0 128 128" width="128" xmlns="http://www.w3.org/2000/svg"><path d="m64 0-12 4-4 4-8 4-8 8h-8l-8 4-4 4-12 4v64l12 4 4 4 8 4 8 8h8l8 4 4 4 12 4 12-4 4-4 8-4h8l8-8 8-4 4-4 12-4v-64l-12-4-4-4-8-4h-8l-8-8-8-4-4-4z" fill="#656565"/><path d="m0 32 12 4 4 4 8 4 8 8h8l8 4 4 4 12 4v64l-12-4-4-4-8-4h-8l-8-8-8-4-4-4-12-4z" opacity=".11"/><path d="m128 32v64l-12 4-4 4-8 4-8 8h-8l-8 4-4 4-12 4v-64l12-4 4-4 8-4h8l8-8 8-4 4-4z" opacity=".29"/><path d="m80 56 8-4 2 11-2 46v7l-8 4 6-24z" fill="#fff" opacity=".1"/><path d="m112 40 4-4-1 22 5 23-8 9 4 10-4 4-3-8 7-28z" fill="#fff" opacity=".1"/><path d="m116 36 12-4v64l-12 4-2-8 12-13-5-27z" opacity=".1"/><path d="m104 44-8 8-2 7 7 18-5 34v5l8-8 3-39z" opacity=".15"/><path d="m76 124-12 4v-64l12-4-7 16 8 22-1 21z" opacity=".1"/><path d="m48 56-8-4 6 24-6-6-3 20 3 22v4l8 4v-14l-3-22 3-9z" fill="#fff" opacity=".1"/><path d="m16 40-4-4 3 8-2 33-4 5 3 18 4 4v-9l4-21-4-23z" fill="#fff" opacity=".1"/><path d="m12 36-12-4v64l12 4-9-29 9-23z" opacity=".1"/><path d="m24 44 8 8 7 17-7 19 2 18-2 10-8-8 7-27-10-31z" opacity=".15"/><path d="m52 124 12 4v-64l-12-4-2 6 5 7 3 19-6 23z" opacity=".1"/></svg>