<svg xmlns:xlink="http://www.w3.org/1999/xlink"  enable-background="new 0 0 128 128" height="128" viewBox="0 0 128 128" width="128" xmlns="http://www.w3.org/2000/svg"><path d="m106 22-2-1h-8l-8-8-8-4-4-4-12-4-12 4-4 4-8 4-3 3h-8l-4 2-1 3-3 1v19l-1 1-4 4-3 1v20l-1 1-12 4v24l12 4 4 4 8 4 8 8h8l8 4 4 4 12 4 12-4 4-4 8-4h8l8-8 8-4 4-4 12-4v-24l-12-6v-18l-10-5z" fill="#656565"/><path d="m40 32 5 3 4 12 14-8 6 3 10-4 3-3 13-4-1-4 12-4v-2l-2-1h-8l-8-8-8-4-4-4-12-4-12 4-4 4-8 4-3 3h-8l-4 2-1 3-3 1v2l10 12z" fill="#9c3"/><path d="m112 79.8-8 4-8 8h-8l-8 4-3 3v.2l-1 1-12 4v24l12-4 4-4 8-4h8l8-8 8-4 4-4 12-4v-24.2l-12 4z" opacity=".29"/><path d="m0 72 12 4 4 4 8 4 8 8h8l8 4 4 4 12 4v24l-12-4-4-4-8-4h-8l-8-8-8-4-4-4-12-4z" opacity=".11"/><path d="m76 124-12 4v-24l12-4z" opacity=".1"/><path d="m48 96-8-4v24l8 4z" fill="#fff" opacity=".1"/><path d="m16 80-4-4v24l4 4z" fill="#fff" opacity=".1"/><path d="m12 76-12-4v24l12 4z" opacity=".1"/><path d="m24 84 8 8v24l-8-8z" opacity=".15"/><path d="m52 124 12 4v-24l-12-4z" opacity=".1"/><path d="m88 92-4 2v10l-4 2v14l8-4z" fill="#fff" opacity=".1"/><path d="m61 71-8-4v20l8 4z" opacity=".15"/><path d="m23 59-4-10v20l4 10z" opacity=".15"/><path d="m19 49-6-2v20l6 2z" fill="#fff" opacity=".1"/><path d="m37 59 3 13v20l-3-13z" fill="#fff" opacity=".1"/><path d="m13 47 6 2 4 10h14l3 13 13-5 8 4 3 7v20l-3-7-8-4-13 5-3-13h-14l-4-10-6-2z" opacity=".11"/><path d="m21 21 10 12 9-3 5 3 4 12 14-8 6 3v20l-6-3-14 8-4-12-5-3-9 3-10-12z" opacity=".11"/><path d="m89 69-1 3h8l5-5h-8z" fill="#656565"/><path d="m84.8 117.6 3.2-1.6h8-8z" fill="#656565"/><path d="m112 80v24l4-4v-24z" fill="#fff" opacity=".1"/><path d="m116 76v24l12-4v-24z" opacity=".1"/><path d="m69 40-6-3v20l6 3z" fill="#fff" opacity=".1"/><path d="m40 30-9 3v20l9-3z" fill="#fff" opacity=".1"/><path d="m31 33-10-12v20l10 12z" opacity=".1"/><path d="m45 33 4 12v20l-4-12z" opacity=".15"/><path d="m79 56-10 4v-20l10-4z" opacity=".15"/><path d="m116 48v18l-8 1-8 11h-5l-6 6-13 6-8 7-4 1v-20l4-1 8-7 11-2 7-8 4 1 9-9z" opacity=".29"/><path d="m101 87v20l-5 5v4l8-8v-24z" opacity=".15"/><path d="m107 52 1 15-8 11v-11l4-6h-6z" opacity=".1"/><path d="m76 90-8 7v-20l8-7z" opacity=".1"/><g fill="#fff"><path d="m64 98 4-1v-20l-4 1z" opacity=".1"/><path d="m87 68 2 16 6-6-1-18z" opacity=".1"/><path d="m94.5 29.1-12.5 3.9v20l14-4-1-18z" opacity=".1"/></g><path d="m69 40v20l10-4 3-3 14-4 1.8-3.2 8.2-2.8v-22l-12 4 .5 4.1-12.5 3.9-3 3z" opacity=".29"/></svg>