<svg xmlns:xlink="http://www.w3.org/1999/xlink"  enable-background="new 0 0 80 160" height="160" viewBox="0 0 80 160" width="80" xmlns="http://www.w3.org/2000/svg"><path d="m35.7 131c-9.1 4.8-22.9 11.3-10.9 18.4 12.7 7.4 30.4 0 37.1-7.2 9.2-9.7-14.5-17.3-26.2-11.2z" opacity=".2"/><path d="m37.3 135.4s-7.9 1.6-8.9 4.1 5 3.9 7.8 3.1 9.8-4 10-4.7c.2-.6-.7-2.6-.7-2.6s5.1 3.4 9.8 2.4 2.3-21.8 2.3-21.8l-17.1 2.9z" fill="#999"/><path d="m37.3 135.4s-7.9 1.6-8.9 4.1 5 3.9 7.8 3.1 9.8-4 10-4.7c.2-.6-.7-2.6-.7-2.6s5.1 3.4 9.8 2.4 2.3-21.8 2.3-21.8l-17.1 2.9z" opacity=".2"/><path d="m22 121.2c1.5 3.4 5.4 8.3 3.9 15.2-1.4 6.6-6.1 6.8-4 9.4s6.4.5 7.1-1.5 1.2-8.9 2.1-12.2 3.6-7.5 3.6-7.5z" fill="#999"/><path d="m22 121.2c1.5 3.4 5.4 8.3 3.9 15.2-1.4 6.6-6.1 6.8-4 9.4s6.4.5 7.1-1.5 1.2-8.9 2.1-12.2 3.6-7.5 3.6-7.5z" opacity=".2"/><path d="m20.7 78.2s-.2-3.3-1.9-8.7-4.4-13.4-3.2-13.9 5.6 6.5 6.9 13.1c1.3 6.5 4.2 10.1 4.2 10.1l-6.5-.6z" fill="#999"/><path d="m54.8 106c-7.7-7.5-16.4-11.2-20.6-12.7.7-1.3.9-2.8.4-4.3-1.6-5.5-3.3-8.8-2.2-10.6s4.6-5.3 5.2-12.3c.6-6.9-1.5-8.6-2.8-8.2s-7.3 6.2-8 11.4 2.3 8.6-1.3 8.1c-3-.5-6.9-.7-9.8 4.9s-5.6 10.6-3.1 13.3c1.9 2.1 2.5 3 5.8 3.4-.8 7.9 1.1 22 5.7 25.1 4.8 3.1 12 4.5 11.2 11.6s-4.2 8.9-5.6 9.7-1.3 4.7 2.2 4.6 5.4-.6 7.7-5.9c2.3-5.2 7.6-20.2 7.6-20.2l4.6-5.3c-1.4 1.7-5.2 6.8-4 11.1 1.5 5.2 6.5 9.6 5 10.7s-6.8 0-9.2 3.3 1.4 5.2 3.7 4.5 12.7-4.2 13.2-6.9-1-4.7-1-4.7 5.2-.9 5.7-6.2c.7-5.3.2-14.1-10.4-24.4z" fill="#999"/><path d="m23.6 86.5s.1-2.7 1.5-3.5c1.5-.8 2.3 0 2.3 0s1 2.2-.5 3.1-3.3.4-3.3.4z" fill="#2d3134"/><path d="m12.8 92.6s.2 1.2 1 1.7c.7.5.9.8.9.8s.8-.9 1-1.4.3-1.2.3-1.2-.6.7-1.7.7-1.5-.6-1.5-.6z" fill="#2d3134"/><path d="m31.2 78.3s-3.3-6.9-1-12.5 4.4-7.2 5.2-7.2 3.1 5.6 1.2 10.9c-1.8 5.3-5.4 8.8-5.4 8.8z" opacity=".2"/></svg>