<svg xmlns:xlink="http://www.w3.org/1999/xlink"  enable-background="new 0 0 80 160" height="160" viewBox="0 0 80 160" width="80" xmlns="http://www.w3.org/2000/svg"><path d="m46.3 151.2c10-2.5 23-8.4 11.7-16.4-12-8.6-30.3-2.7-37.6 3.9-10 8.7 9 16.6 25.9 12.5z" opacity=".2"/><path d="m45.2 141.7s6.7.1 6.7-2-3.9-4.5-3.9-4.5z" fill="#999"/><path d="m45.2 141.7s6.7.1 6.7-2-3.9-4.5-3.9-4.5z" opacity=".2"/><path d="m68 86.5c-1.1-1-1.9-2.3-2.7-4.2s-3.8-3-3.8-3 5.2-17.2 4.3-17.3c-.9-.2-3.8 3.9-4.8 7.7s-3.3 9.4-4.7 9c-1.4-.3-.5-2.8-1-8.8s-6.6-10.1-7.3-10.1c-.6 0-1.5.7-1.9 6.7s4.5 12.6 5.2 15.4-2.7 9.7-9.2 13.1c-9.3 4.8-17.3 11.9-22.9 20.8-5.8 9.1-3.3 23.9-3.3 23.9s-2.2-.6-2.7 1.1 1.9 6.3 6.6 6.4c4.8.1 8.4-.6 11.7-1.7s6.7-2.6 6.7-2.6-4.1 3.9-3.5 6.3 4.3 1.3 7.7.6c3.5-.7 11.8-1.5 11.8-4.6 0-2.8-2-3.1-3.1-3.1s-5.4 1.2-5.4 1.2l6.1-8.9s.8 6.7 1.8 8.1 5.8.7 6.3-.3c.6-1.4-.2-2.8-1.3-3.3-1-.5-2.1-2.4-2.2-4.3s1.6-7.3 4-13.7 2.6-14.1 1.5-19.8c-.2-.9-.3-1.7-.3-2.5.3-.8.9-1.5 1.9-1.9 3.7-1.4 4-3.1 5-5.6 1.2-2.5.6-3.6-.5-4.6z" fill="#999"/><path d="m65.5 85.6s-2.5-1.7-1-2.7c1.4-.9 1 2.7 1 2.7z" fill="#2d3134"/><path d="m69 90.4s-1-2.3-.2-2.6.2 2.6.2 2.6z" fill="#2d3134"/><path d="m61.5 79.3s3.3-10.9 4.2-15.4c.1-.6.1-.9-.1-.6-1.1 1.6-5.4 17.4-5.4 17.4z" opacity=".2"/></svg>