<svg xmlns:xlink="http://www.w3.org/1999/xlink"  enable-background="new 0 0 160 240" height="240" viewBox="0 0 160 240" width="160" xmlns="http://www.w3.org/2000/svg"><path d="m63.4 198.3c-10.9 5.9-45.9 20.8-29.7 30.8 15.2 9.3 47.5-8.3 58.3-14 15.8-8.4 31.7-19.8 22-25.9-9.9-6.2-30-2-50.6 9.1z" opacity=".2"/><path d="m43.5 143c-2.9 7.1-3.4 28.6-4.1 33.3s-2.7 9.2-2.7 15.2-1 21-1 21l1.6-.2s-2.3 7.1 2.2 7.4 5.6-1.7 5.6-1.7-2.7-11.4-1.8-18.2c1.7-12.1 8.4-28.2 15-35.6 6.5-7.3-14.8-21.2-14.8-21.2z" fill="#baa794"/><path d="m99.8 156.2c-1.3 8.4-2.8 21.6-2.2 27.1s1.8 7.7 1.3 8.5-2.5 2.7-5.2 1.7-1.2-6.3-1.2-6.3l-1.3.8s-.1-2.6.6-5 .7-7.2-.2-15-2.9-14.9-2.9-14.9z" fill="#baa794"/><path d="m43.5 143c-2.9 7.1-3.4 28.6-4.1 33.3s-2.7 9.2-2.7 15.2-1 21-1 21l1.6-.2s-2.3 7.1 2.2 7.4 5.6-1.7 5.6-1.7-2.7-11.4-1.8-18.2c1.7-12.1 8.4-28.2 15-35.6 6.5-7.3-14.8-21.2-14.8-21.2z" opacity=".2"/><path d="m99.8 156.2c-1.3 8.4-2.8 21.6-2.2 27.1s1.8 7.7 1.3 8.5-2.5 2.7-5.2 1.7-1.2-6.3-1.2-6.3l-1.3.8s-.1-2.6.6-5 .7-7.2-.2-15-2.9-14.9-2.9-14.9z" opacity=".2"/><path d="m121.5 78.3s2.6-3.3 5.4-4.1 5.6-1.1 5.6-1.1-5.9-14.1-19.6-8.9c-14.8 5.5-12.2 24.2-2.6 25.8 12.9 2.1 16.6-10.1 15.7-9.4-1.7 1.3-14.2 6.5-15.2 1.1s8.1-9.3 10.7-3.4z" fill="#825012"/><path d="m133.6 73c4.8 1.9 9.4 8.8 11.7 10.9s5.1 6.9.3 9.3-10.8 2.2-12.6 8-9.5 26.7-9 29.5c.5 2.7 2 8.8-.7 15.3s-3.6 6.1-4.8 11.2c-1.3 5.1-4.8 11.1-5.3 15.7s-1 19.4-.1 21.9 1.3 3.4 1.3 3.4-2.8 3-6.1 2.1-1-7-1-7l-1.3.7s.3-3 .8-5.2 1-14.6-.4-19.9c-1.5-5.3-3.4-10.4-3.4-10.4s-7 5.3-11.1 7.2-11.1 4.1-11.1 4.1-3.1 8.3-11.4 17.7-10.5 20-10 26.3 2.3 12 1.6 12.9-6 3-7.7.5.2-6.6.2-6.6l-2 .9s1.7-5.5 1.5-7.7-2.6-15.2-1.5-17.8c1.2-2.6 7.9-14.4 6.1-19.6s-2.2-6.4-6.5-10-7.5-12.4-7.5-12.4-3 3.6-3.8 3.6-3.3-7.4.6-12.6 8-11.7 10-14.9c2-3.1 5.9-6 18.7-11.3s17.6-10.9 27.5-13.6 16.8-6.4 21.2-18c1.5-3.9 2.3-7.1 3.7-9.5 2.9-4.9 7.4-6.5 12.1-4.7z" fill="#baa794"/><path d="m131.2 73c1.2-1.6 9.8-4.7 12.3-1 2.5 3.8-1 11.3-1.3 16.8-.2 3.4-.5 6.7 1.2 6.3 3.5-.8 8.3-6.7 9.4-7.1 1.2-.4-2.8 13.1-9.8 14.5-6.9 1.4-8.8-7.6-8.8-11.7 0-4.2-.4-7.7-1-7.8s-3.7-1.7-3.7-4.3c.1-2.5.5-4.2 1.7-5.7z" fill="#825012"/><g fill="#2d3134"><path d="m98.9 191.8c.2-.4.1-1-.1-2.1-2.1 1.4-4.7 1.1-6.7.1-.1 1.5.2 3.1 1.6 3.7 2.7 1 4.7-.9 5.2-1.7z"/><path d="m114.2 198.3s-.2-.6-.9-2.3c-3.2 1.7-5.1 1.5-6.9.1-.2 1.8-.1 3.9 1.7 4.4 3.3.8 6.1-2.2 6.1-2.2z"/><path d="m36.7 217.1c.2 1.4.9 2.6 2.7 2.7 4.5.3 5.6-1.7 5.6-1.7s-.2-.7-.4-1.9c-.3.1-.7.3-1.2.5-2.3.8-4.6 1.4-6.7.4z"/><path d="m52.5 224.7c0 .9.2 1.8.7 2.6 1.7 2.5 6.9.4 7.7-.5.3-.3.2-1.3 0-2.6-3.7 2.8-6.5 2.2-8.4.5z"/></g></svg>