<svg xmlns:xlink="http://www.w3.org/1999/xlink"  enable-background="new 0 0 160 160" height="160" viewBox="0 0 160 160" width="160" xmlns="http://www.w3.org/2000/svg"><path d="m78.6 115.5c-10.9 5.9-45.9 20.8-29.7 30.8 15.2 9.3 47.5-8.3 58.3-14 15.8-8.4 31.7-19.8 22-25.9-9.9-6.1-30-2-50.6 9.1z" opacity=".2"/><path d="m45.7 93.4s6.3 10.7 6 23.5-2.1 20.7-2.1 20.7 5.3 1.6 6.9-1.1c1.5-2.7.5-7.5.5-7.5l1.2.2s.1-3-.8-6.1c-.9-3-.5-11.8.5-18.8.9-7 2.4-13.8 2.4-13.8z" fill="#baa794"/><path d="m100.7 77.2s5.1 6.6 5.1 15-1.4 17.7-1.4 17.7 1.9 1 4.5 0 3.3-1.8 2.9-4.5c-.3-2.7-.6-4.7-.6-4.7l1.4.5s.1-3.8-.8-5.7 1.7-25.6 1.7-25.6z" fill="#baa794"/><path d="m45.7 93.4s6.3 10.7 6 23.5-2.1 20.7-2.1 20.7 5.3 1.6 6.9-1.1c1.5-2.7.5-7.5.5-7.5l1.2.2s.1-3-.8-6.1c-.9-3-.5-11.8.5-18.8.9-7 2.4-13.8 2.4-13.8z" opacity=".2"/><path d="m100.7 77.2s5.1 6.6 5.1 15-1.4 17.7-1.4 17.7 1.9 1 4.5 0 3.3-1.8 2.9-4.5c-.3-2.7-.6-4.7-.6-4.7l1.4.5s.1-3.8-.8-5.7 1.7-25.6 1.7-25.6z" opacity=".2"/><path d="m15.6 39.8s-.7 3.1-4.6 3.7c-4 .6-6-1.2-6.8-.3s1.4 6.4 8.6 5.7 7.4-6.6 7.4-6.6z" fill="#825012"/><path d="m17.9 34.7c-3.2 2.4-2.6 4.1-2.7 8.2-.1 4.2-4.3 11.1-6.2 14.6s-2.9 9.8 2.8 11.1 12.9-9.2 15.6-3.8 8 20.6 12.2 25.6 10.5 8.8 15.9 9.6 8.4 1 10 10c3.5 19.4-.7 34.9-.7 34.9s2.9 2 5.4.5 3-2.7 2.7-4.7-.3-4.2-.3-4.2l1.2.7s0-2.9-.9-5.6.2-15.9 2.3-21.3c2-5.4 7.5-20.5 7.5-20.5s10.2-2.3 16.5-6.5c6-4 8.2-9.2 12.4-4.7s11 11.3 11.1 20.8-3.3 17.9-1.6 18.6 7.1-.2 7.3-2.3c.2-2 .1-7 .1-7l1.5.8s-.6-5.3-1.2-8.3.1-13.8-.6-18.3-2.2-13.7-2.2-20.8-2.1-23.3-2.1-23.3l2.1.8s2-5.4-1.8-8-5-1.8-6.3-2.3c-1.4-.5-6.7-7.5-22.3-2.1-22.5 7.8-38.4 17.2-45.4 17.6-8.4.5-9.7-14.7-19-14.4-7.1.2-11.5 2.9-13.3 4.3z" fill="#baa794"/><path d="m12.9 62.8c-.7-1.1-2-.9-3.3-1.3-1.3-.3-.3-1.5-1.2-1.7-1.2-.2-.6 2.7-.1 3.8.2.4.4.6.7.7 0 .7 0 1.7.6 2.5l.3-.2c-.5-.7-.5-1.6-.4-2.2.5.1 1.2.1 1.8 0 1.1-.1 2.3-.5 1.6-1.6z" fill="#2d3134"/><path d="m26.3 48.2c-.2 2 3.9 2.4 4.5.3.3-1.2-4.4-1.9-4.5-.3z" fill="#2d3134"/><path d="m24.8 40.7c-2.6-.9 4-12.6 14.6-13.1s25.7 5.5 20.7 24.7c-3.9 14.9-27 10.6-26 5.1.3-1.4 17.5 3 18-9 .5-11.4-12.9-9.2-16.1-6.5-1.6 1.3-8.4-.2-11.2-1.2z" fill="#825012"/><path d="m18.6 38.3c2.1.4 3.6-4.2 7.4-6s5.2-1.9 5.2-1.9-1.1-9.5-6.4-12-10.2-1.3-10.8 2.6 2.7 16.9 4.6 17.3z" fill="#825012"/><g fill="#2d3134"><path d="m128.7 112.6c-2.5.4-5.9.6-7.3-.7-.6 3.3-1 5.6-.2 5.9 1.7.7 7.1-.2 7.3-2.3.2-.6.2-1.7.2-2.9z"/><path d="m104.4 109.9s1.9 1 4.5 0 3.3-1.8 2.9-4.5c0 0 0 0 0-.1-1.9.2-4.6.3-6.9-.1-.3 2.8-.5 4.7-.5 4.7z"/><path d="m65.7 140.5c-.5 2.8-.9 4.3-.9 4.3s2.9 2 5.4.5c2.4-1.5 3-2.6 2.7-4.6-1.9.3-5.1.6-7.2-.2z"/><path d="m50.3 133.1c-.4 2.9-.8 4.5-.8 4.5s5.3 1.6 6.9-1.1c.5-.9.7-1.9.8-3-1.9.3-4.8.4-6.9-.4z"/></g></svg>