<svg xmlns:xlink="http://www.w3.org/1999/xlink"  enable-background="new 0 0 240 320" height="320" viewBox="0 0 240 320" width="240" xmlns="http://www.w3.org/2000/svg"><ellipse cx="145.3" cy="286.1" opacity=".2" rx="54.3" ry="27.2"/><path d="m236.8 81.4s2.1-3.2.9-3.1-.9 3.1-.9 3.1z" fill="#fff"/><path d="m234.9 82s2.1-3 .8-3-.8 3-.8 3z" fill="#fff"/><path d="m232.9 82.5s2-2.9.8-2.8c-1.2 0-.8 2.8-.8 2.8z" fill="#fff"/><path d="m230.8 82.7s1.9-2.7.8-2.7-.8 2.7-.8 2.7z" fill="#fff"/><path d="m228.8 82.8s1.9-2.6.8-2.6c-1.2.1-.8 2.6-.8 2.6z" fill="#fff"/><path d="m226.7 82.9s1.8-2.5.7-2.4c-1 0-.7 2.4-.7 2.4z" fill="#fff"/><path d="m188.9 145c1.3.5 8.1-5.4 5.7-6.6s-1.8 3.8-5.7 6.6z" fill="#2d3134"/><path d="m195.5 149.9c1.3.4 5.1-7.6 2.5-7.7-2.5-.1-.8 3.4-2.5 7.7z" fill="#2d3134"/><path d="m199.6 131.6c.3-.9.5-1.6.4-2.1-.3-1.6-2.4-3.7-4.5-4.7-1.8-.8-3.8-2.6-6.8-2.4-2-.9-4.9-1.7-8.5.6l4.8 3c.1 1.4.8 2.7.8 2.7.3.2 1.7 1.5 1.7 1.5s-2.8 6-2.9 6.5 1.3 1.5 2.5.5c1.1-.9 3.7-5.7 3.7-6.4 0-.2-.1-.6-.2-1l4.2 3.4c-.7 2-1.5 4.3-1.7 5-.3 1.2 1.6 1.9 2.9.6 0 2 .1 4 .4 4.4.6.9 2.6.8 3.1-.4.4-1.2.8-9.8.5-10.8-.2-.1-.2-.3-.4-.4z" fill="#baa794"/><path d="m199.6 131.6c.3-.9.5-1.6.4-2.1-.3-1.6-2.4-3.7-4.5-4.7-1.8-.8-3.8-2.6-6.8-2.4-2-.9-4.9-1.7-8.5.6l4.8 3c.1 1.4.8 2.7.8 2.7.3.2 1.7 1.5 1.7 1.5s-2.8 6-2.9 6.5 1.3 1.5 2.5.5c1.1-.9 3.7-5.7 3.7-6.4 0-.2-.1-.6-.2-1l4.2 3.4c-.7 2-1.5 4.3-1.7 5-.3 1.2 1.6 1.9 2.9.6 0 2 .1 4 .4 4.4.6.9 2.6.8 3.1-.4.4-1.2.8-9.8.5-10.8-.2-.1-.2-.3-.4-.4z" opacity=".15"/><path d="m215.7 85.3s16.6 2.9 16.4 4.9c-.2 1.9-7.1 2.7-16.4-4.9z" fill="#2d3134"/><path d="m117.7 271.5c-4.6-.9-2.1-6 1.5-7.8s5.9 1.6 5.9 4.3c-5.7-4.3-4.1 4.2-7.4 3.5z" fill="#2d3134"/><path d="m167 299.2c-2.4-2.7-.1-4.6 4.4-4.9 3-.2 5 2.5 4.7 3.8-4.7-3.1-6.5 4.1-9.1 1.1z" fill="#2d3134"/><path d="m168.9 303.7c-1.2-3 1.4-4 5.4-2.8 2.6.8 3.5 3.8 2.8 4.8-3-4.2-6.9 1.4-8.2-2z" fill="#2d3134"/><path d="m216.8 159.9c1.4 1.7 8-4.4 6.3-5.8s-2.5 3.6-6.3 5.8z" fill="#2d3134"/><path d="m225.9 162.8c1.3.5 8.1-5.4 5.7-6.6s-1.8 3.8-5.7 6.6z" fill="#2d3134"/><path d="m232.5 167.7c1.3.4 5.1-7.6 2.5-7.7-2.5-.1-.8 3.4-2.5 7.7z" fill="#2d3134"/><path d="m111.5 270.5c3 1.2 1.9-6.3 5.8-7.4-4-.2-10 5.7-5.8 7.4z" fill="#2d3134"/><path d="m101.2 220c.8 6.8 5.1 22.8 2.9 29.6-.8 2.4-3.5 5.7-5.3 8.8-1 1.8 1.2 13 1.7 15.3.7 2.9 5.2 10.7 9.2 8.3s9.3-8.2 9.8-10.6-3.3-3.8-4.2-3.5-1.5 3-3.4-.1c-3.8-6.1 3.9-15.2 4.5-21.7s9-41 9-41z" fill="#baa794"/><path d="m101.2 220c.8 6.8 5.1 22.8 2.9 29.6-.8 2.4-3.5 5.7-5.3 8.8-1 1.8 1.2 13 1.7 15.3.7 2.9 5.2 10.7 9.2 8.3s9.3-8.2 9.8-10.6-3.3-3.8-4.2-3.5-1.5 3-3.4-.1c-3.8-6.1 3.9-15.2 4.5-21.7s9-41 9-41z" opacity=".15"/><path d="m109.2 274.3c2.5-1.4 2.9 5.4 1.2 6.5-.3-4.2-3.8-5.1-1.2-6.5z" fill="#2d3134"/><path d="m103.2 221c12.6 2.3 48.5-6.8 73.9-36.6 20.8-24.4 8.7-42.6 6.4-47.3-2.3-4.5-121.9 76.3-80.3 83.9z" fill="#f8ebcb"/><path d="m219.4 86.3c1.8.4 5.4 4 10.4 5 1.6.3 2.2-1.4 2.2-1.4s.7 3.9-2.4 4.5-13.3.2-18.3 1-13 2.1-18.3 11.1c-5.2 9 1.9-25.7 26.4-20.2z" fill="#f8ebcb"/><path d="m220.2 86.7s3.9-5.8 8.5-5.8 10-.7 10-3.9 1.3-7.4-4.4-9.4c-5.7-2.1-16.2-4.6-17.8-5-1.7-.4-4.2-2.9-9.7-1.1s-22.7 9.7-31.4 25.2-18.2 35.3-31.1 42.7c-23.9 13.7-50.6 40.4-62.7 66.3-11.6 25-13.2 58.3-29.6 82s-50.7 40.9-50.7 40.9 41.2-4.7 64.8-27.8c34-33.3 29.8-65.9 42.6-72.9 12.9-7.1 26.8-4.6 31.8 2.3s7.9 11.2 7.9 11.2-4.2 8.1-4.4 16.4-7.9 18.5-7.3 22.2 3.9 11.3 3.9 11.3-.6 6.4-.1 6.7c.4.3 2.4-.1 2.4-.1s1 10.2 4.3 14.3c3.3 4.2 11.4 5.8 18.7 4.1 5.5-1.3 5.7-2.3 4.8-4.2-1.3-2.8-5.5-1.3-5.5-1.3s4.3.1 2.8-2.7c-2.2-4.2-6.2.7-9.5-1.9s-9.5-17.2-8.9-22.7 5.7-15.9 13.9-27.3 11-15.2 9.3-21.9-3.9-14-10.4-25.4c-6.5-11.3-14.8-24.8-8.3-35.8s21.2-16.1 27-9.3 16.2 24.6 21 25.7 7.2-2 9.3-10.1c2.1-8 4.1-16.7 4.1-16.7l10.1-6.7 7.4 5.9s-.3 8.1.3 9 2.6.8 3.1-.4c.4-1.2.8-9.8.5-10.8s-7.4-7.7-9.3-8.6-5.4-3.6-10.4-.4-7.1 6.9-7.2 8.4-6.6 15.7-6.6 15.7-4.6-12.2-7-17.3-6.4-8.8-7.3-13c-.8-4.3-3-18.5 5.4-31.1s15.9-18.4 25.7-16.7z" fill="#baa794"/><path d="m222.7 146.5c.3.2 1.7 1.5 1.7 1.5s-2.8 6-2.9 6.5 1.3 1.5 2.5.5c1.1-.9 3.7-5.7 3.7-6.4.1-.7-1.1-3.9-1.1-3.9l6.3 3s-2.5 7-2.9 8.2c-.3 1.2 1.7 2 3 .5s4.3-7.5 4-9.1-2.4-3.7-4.5-4.7-4.5-3.2-8.4-2.1-1.4 6-1.4 6z" fill="#baa794"/><path d="m156 286.9c3.4 1.2 3.3-8.1 7.2-3-.2-4.7-4.9-8.2-8.4-3.7-3 3.9-2.6 5.3 1.2 6.7z" fill="#2d3134"/><path d="m141.9 287.1c2.7.5.3 5.4-2.8 4.4 2.4-2.3.5-4.8 2.8-4.4z" fill="#2d3134"/><path d="m152.5 284.3c-1.2.7-2.8 6-2.8 6s2.9 4.4 4.4 2.3 3.8-5.4 3.5-6.6c-.3-1.3-3.5-2.6-5.1-1.7z" fill="#baa794"/><path d="m226.9 71.3c.1-.9-7.1-.5-7.5 3-.5 3.6 6.9 3.9 7.5-3z" opacity=".15"/><path d="m225.7 72.9c.1-1.4-4.2-1.8-4.5.6-.3 2.3 4.2 3.6 4.5-.6z" fill="#2d3134"/><g fill="#fff"><path d="m224.9 87.9s-.9 1-.3 1.2.3-1.2.3-1.2z"/><path d="m226.2 88.3s-.9 1-.3 1.2c.6.3.3-1.2.3-1.2z"/><path d="m227.4 88.9s-.9 1-.3 1.2c.6.3.3-1.2.3-1.2z"/><path d="m228.6 89.4s-.9 1-.3 1.2c.6.3.3-1.2.3-1.2z"/><path d="m230.4 89.8s-.9 1-.3 1.2c.6.3.3-1.2.3-1.2z"/><path d="m229.8 89.8s-.9 1-.3 1.2c.6.3.3-1.2.3-1.2z"/><path d="m224.2 87.6s-.8.9-.3 1.1.3-1.1.3-1.1z"/><path d="m225.5 88.2s-.9 1-.3 1.2c.6.3.3-1.2.3-1.2z"/><path d="m226.7 88.7s-.9 1-.3 1.2c.6.3.3-1.2.3-1.2z"/><path d="m228 89.2s-.9 1-.3 1.2c.6.3.3-1.2.3-1.2z"/><path d="m229.2 89.6s-.9 1-.3 1.2c.6.3.3-1.2.3-1.2z"/><path d="m231.4 89.4s-.9 1-.3 1.2c.7.3.3-1.2.3-1.2z"/><path d="m230.9 89.8s-.9 1-.3 1.2.3-1.2.3-1.2z"/><path d="m231.7 88.9s-.9 1-.3 1.2c.6.3.3-1.2.3-1.2z"/><path d="m231.2 88.4s-.8.9-.3 1.1.3-1.1.3-1.1z"/><path d="m230.6 88.2s-.8.9-.3 1.1c.6.2.3-1.1.3-1.1z"/><path d="m230.1 87.9s-.8.8-.3 1 .3-1 .3-1z"/><path d="m229.5 87.8s-.8.8-.3 1 .3-1 .3-1z"/><path d="m228.9 87.6s-.8.8-.3 1 .3-1 .3-1z"/><path d="m228.3 87.5s-.8.8-.3 1c.6.2.3-1 .3-1z"/><path d="m227.7 87.3s-.8.8-.3 1c.6.2.3-1 .3-1z"/><path d="m227.2 87.2s-.7.7-.2.9c.4.1.2-.9.2-.9z"/></g></svg>