<svg xmlns:xlink="http://www.w3.org/1999/xlink"  enable-background="new 0 0 320 240" height="240" viewBox="0 0 320 240" width="320" xmlns="http://www.w3.org/2000/svg"><ellipse cx="158.8" cy="205" opacity=".2" rx="56.1" ry="28.1"/><path d="m102.8 138.3c.6 3.4-6.4 8.9-7.5 6.8-1.8-3.5 5.1-3.4 7.5-6.8z" fill="#2d3134"/><path d="m70.7 124.1c1.4 3.4-4.6 9.4-5.7 7.1-1.7-3.7 3.8-2.9 5.7-7.1z" fill="#2d3134"/><path d="m63.7 117.2c-1 3.3-4.6 4.1-3.4 6.2 1.1 2.2 5.1-3 3.4-6.2z" fill="#2d3134"/><path d="m64.5 127.1c1 4-4.9 11.6-6.2 8.2s4-2.8 6.2-8.2z" fill="#2d3134"/><path d="m88.7 67s-9.8 10.7-12.3 15.7c-2.6 5-6.5 8-6.5 8s-11.3-1-13.2 1.9-10.3 15.3-11.2 19.8c-.9 4.4 2.7 12.1 2.7 12.1s-1.4 9.6.5 13.1c2 3.5 11.6-1 11.6-1.7s-.6-2.4-.6-2.4 5.9-1 6.3-1.6-.1-3.2-.8-3.5-5.4.4-5.4.4l-.4-2.4s2.9-1.9 2.5-2.9-1-2.4-1.7-2.5-1.3-.4-1.3-.4-.3-4.3-1-5.4c-.7-1 2.2-4.2 3.2-8.3s2-5.8 2-5.8 10.3 1 13.7-1.1c3.4-2.2 13.5-12.3 13.5-12.3zm-34.8 65.7v-4.7l2.3 4.8z" fill="#baa794"/><path d="m110.2 110.3c.2 11-5.5 37.2 1.7 40.6s19 6.4 20 7.9-.4 21.7-7 29.3-12.4 7-12.8 10.7 4.2 3.3 4.2 3.3 1 4.7 5 3.2c4.1-1.5 12.9-8.1 12.9-8.1s6 .4 7.2-5 1.2-10.9 1.2-10.9.6 3.9 2.7 3.2 1.5-2.6.6-7.1-2.6-11.8-2.1-16.3 3.1-6.8-2.1-10.8-5.3-2.1-6.3-6.6 1.7-33.4 1.7-33.4z" fill="#baa794"/><path d="m110.2 110.3c.2 11-5.5 37.2 1.7 40.6s19 6.4 20 7.9-.4 21.7-7 29.3-12.4 7-12.8 10.7 4.2 3.3 4.2 3.3 1 4.7 5 3.2c4.1-1.5 12.9-8.1 12.9-8.1s6 .4 7.2-5 1.2-10.9 1.2-10.9.6 3.9 2.7 3.2 1.5-2.6.6-7.1-2.6-11.8-2.1-16.3 3.1-6.8-2.1-10.8-5.3-2.1-6.3-6.6 1.7-33.4 1.7-33.4z" opacity=".15"/><path d="m188.8 103.4c4.6 1.7 12.8 15 24.4 27.6s23.3 17 39.2 8.8-6.2-4.3-11.9-6-37.7-36.1-39.8-42.4c-2.1-6.4-11.9 12-11.9 12z" fill="#f8ebcb"/><path d="m41.5 64.6s-15.6 22.2-4.5 22.7c7.1.3 11.7-7.6 23.9-14.5s16.4-14.4 21.3-12.7 6.6 3.7 6.6 3.7c-1.4 3.9-6.3 18.7 2.4 33.6 8.9 15.4 17.6 23.2 29.8 26.1s41.6-3.1 41.6-3.1l-4-39.6s-13.7 22.8-31.8 11.4-27.5-37-32.3-42c-4.8-4.8-24.2-6.7-53 14.4z" fill="#f8ebcb"/><path d="m41.2 67.6s-10.7 15.9-5.4 17 14.4-11.1 17.7-13.5 13.7-11.5 13.7-11.5-15-3-26 8z" fill="#2d3134"/><path d="m48.5 63.9c-.3.6 2.5 2.1 2.5 2.1s-1.9-3.5-2.5-2.1z" fill="#fff"/><path d="m47.1 64.7c-.3.6 2.4 2.2 2.4 2.2s-1.7-3.6-2.4-2.2z" fill="#fff"/><path d="m45.8 65.5c-.3.6 2.4 2.2 2.4 2.2s-1.7-3.5-2.4-2.2z" fill="#fff"/><path d="m44.5 66.3c-.3.6 2.4 2.2 2.4 2.2s-1.7-3.5-2.4-2.2z" fill="#fff"/><path d="m43.2 67.2c-.3.6 2.3 2.3 2.3 2.3s-1.6-3.6-2.3-2.3z" fill="#fff"/><path d="m41.9 68c-.3.6 2.3 2.3 2.3 2.3s-1.6-3.6-2.3-2.3z" fill="#fff"/><path d="m40.6 68.8c-.3.6 2.3 2.3 2.3 2.3s-1.6-3.6-2.3-2.3z" fill="#fff"/><path d="m39.3 69.6c-.4.6 2.2 2.4 2.2 2.4s-1.5-3.6-2.2-2.4z" fill="#fff"/><path d="m38 70.5c-.4.6 2.2 2.4 2.2 2.4s-1.5-3.7-2.2-2.4z" fill="#fff"/><path d="m36.6 71.2c-.4.6 2.2 2.4 2.2 2.4s-1.4-3.7-2.2-2.4z" fill="#fff"/><path d="m35.1 71.7c-.4.6 2.1 2.5 2.1 2.5s-1.3-3.8-2.1-2.5z" fill="#fff"/><path d="m33.6 72.1c-.4.6 2.1 2.5 2.1 2.5s-1.2-3.7-2.1-2.5z" fill="#fff"/><path d="m32.3 72.8c-.4.6 2.1 2.5 2.1 2.5s-1.2-3.7-2.1-2.5z" fill="#fff"/><path d="m30.8 73.3c-.4.6 2 2.6 2 2.6s-1.1-3.8-2-2.6z" fill="#fff"/><path d="m29.5 74c-.4.6 2 2.6 2 2.6s-1.2-3.8-2-2.6z" fill="#fff"/><path d="m27.8 74.2c-.4.6 2 2.6 2 2.6s-1.1-3.8-2-2.6z" fill="#fff"/><path d="m26.2 74.4c-.4.6 1.9 2.7 1.9 2.7s-1-3.9-1.9-2.7z" fill="#fff"/><path d="m24.6 74.2c-.4.6 1.9 2.7 1.9 2.7s-1-3.9-1.9-2.7z" fill="#fff"/><path d="m219.4 98.3c-11.9-30.4-25.3-37.8-42.1-42.3s-40.1-4.6-49.2-3.9-15.3-21.9-34.1-29.9-32 2.8-43.9 7.7-9.9 7.9-11.7 12.5-13.5 19.3-14.5 20.4c-1.1 1.1-4.4 12.1 2.1 13.2 5.4.9 20.4-8 24.8-11.9 4.5-3.9 16.2-4.5 16.2-4.5s4.5-5.8 17.1-9.1c8.6-2.3 12.7 8.8 20.6 22.8s13.1 25.9 29 25.7 23.9-5 23.9-5 .5 36.5 1.7 48.9c2.2 22.1 7.7 28.5 13.9 31.4 6.1 2.9 10.6 1.5 11 4.7.5 3.2-5.4 21.1-7.9 24.1-2.5 2.9-6.4-3.4-8.3 5.6-2 9.1 9.8 4.7 9.8 4.7s-6.1 3.2-5.6 9.8 8.8 1.7 8.8 1.7-2.9 2.2 4.2 2.5c7.1.2 8.3-8.8 8.1-16-.2-7.1 6.3-34.8 6.3-39s-2.7-2.7-5.2-9.3-9.1-10.1-9.1-10.1 5.3-20.4 6.6-30.5c1.4-10.1-.4-23.6-.4-23.6s12.1-.9 16.8 9c5.8 12.2 17.9 38.9 35 34.9s40.6-22.1 40.6-22.1c-46 19.4-52.6 8-64.5-22.4z" fill="#baa794"/><path d="m175.9 219.1c-5.2-2.9-6 10.3-6 10.3s2-4.1 3.8-4.2c1.9-.1 5.8-4.1 2.2-6.1z" fill="#2d3134"/><path d="m185.4 221c-4.5-3.1-6.4 8.9-6.4 8.9s2.2-3.5 3.8-3.5 5.7-3.2 2.6-5.4z" fill="#2d3134"/><path d="m172.9 203.1c-1.6-2.9-6.8-4.7-9.8.7-3.1 5.4-1.5 10.7-1.5 10.7s2.5-8.2 5.4-7.5 0 3.2 3.7 2.6 3.4-4.2 2.2-6.5z" fill="#2d3134"/><path d="m112.5 206.8s1.4-9.1 5.6-10.1c4.3-1 4.5 3.8 3.2 5.5s-3.8-1.9-8.8 4.6z" fill="#2d3134"/><path d="m107.9 204.9s1.2-8.3 5.2-9.2c3.9-.9 4.1 3.5 2.9 5-1.3 1.6-3.5-1.7-8.1 4.2z" fill="#2d3134"/><path d="m126.5 196.3s-.6-8.3 3.4-12.3c4.1-3.9 8 1.1 7.1 3.9s-3.1 5.4-4.5 3.8c-1.5-1.5-3.2-1-6 4.6z" fill="#2d3134"/><path d="m145.6 186.5s2-4.4-.4-4c-2.5.4.4 4 .4 4z" fill="#2d3134"/><path d="m91.8 147.8 4.9-2.7-.6-2.3-5.1.9z" fill="#baa794"/><path d="m97.7 153.4c.7 2.6 8.2-1.3 8.6-5.2-4.4 3.7-9.8.7-8.6 5.2z" fill="#2d3134"/><path d="m117.7 141.4c-2.3 2.2-10.5.6-9.4 4.6 1.1 3.9 8.8-1.2 9.4-4.6z" fill="#2d3134"/><g fill="#fff"><path d="m51.6 70.3s.8.8.3 1.4c-.5.7-.3-1.4-.3-1.4z"/><path d="m51.1 70.8s.8.8.3 1.4c-.5.7-.3-1.4-.3-1.4z"/><path d="m50.6 71.3s.8.8.3 1.4c-.5.7-.3-1.4-.3-1.4z"/><path d="m50.1 71.8s.8.8.3 1.4-.3-1.4-.3-1.4z"/><path d="m49.6 72.4s.8.8.3 1.4-.3-1.4-.3-1.4z"/><path d="m48.9 73s.8.8.3 1.4c-.5.7-.3-1.4-.3-1.4z"/><path d="m48.3 73.7s.8.8.3 1.4-.3-1.4-.3-1.4z"/><path d="m47.7 74.4s.8.8.3 1.4-.3-1.4-.3-1.4z"/><path d="m47 75s.8.8.3 1.4c-.5.7-.3-1.4-.3-1.4z"/><path d="m46.5 75.7s.8.8.3 1.4c-.5.7-.3-1.4-.3-1.4z"/><path d="m46 76.3s.8.8.3 1.4-.3-1.4-.3-1.4z"/><path d="m45.4 76.9s.8.8.3 1.4c-.5.7-.3-1.4-.3-1.4z"/><path d="m44.8 77.5s.8.8.3 1.4-.3-1.4-.3-1.4z"/><path d="m44.3 78.1s.8.8.3 1.4-.3-1.4-.3-1.4z"/><path d="m43.6 78.7s.8.8.3 1.4-.3-1.4-.3-1.4z"/><path d="m42.9 79.3s.8.8.3 1.4-.3-1.4-.3-1.4z"/><path d="m42.1 79.9s.8.8.3 1.4-.3-1.4-.3-1.4z"/><path d="m41.4 80.4s.8.8.3 1.4-.3-1.4-.3-1.4z"/><path d="m40.7 80.9s.8.8.3 1.4-.3-1.4-.3-1.4z"/><path d="m40.1 81.3s.8.8.3 1.4c-.5.7-.3-1.4-.3-1.4z"/><path d="m39.6 81.7s.8.8.3 1.4-.3-1.4-.3-1.4z"/><path d="m38.9 82.2s.8.8.3 1.4-.3-1.4-.3-1.4z"/><path d="m38.2 82.4s.8.8.3 1.4c-.5.7-.3-1.4-.3-1.4z"/><path d="m37.6 82.7s.8.8.3 1.4-.3-1.4-.3-1.4z"/><path d="m36.9 82.9s.8.8.3 1.4c-.5.7-.3-1.4-.3-1.4z"/><path d="m36.3 82.8s.8.8.3 1.4c-.5.7-.3-1.4-.3-1.4z"/><path d="m35.6 82.6s.8.8.3 1.4-.3-1.4-.3-1.4z"/><path d="m34.9 82.3s.8.8.3 1.4c-.5.7-.3-1.4-.3-1.4z"/><path d="m34.9 82.3s.8.8.3 1.4c-.5.7-.3-1.4-.3-1.4z"/><path d="m34.9 82.3s.8.8.3 1.4c-.5.7-.3-1.4-.3-1.4z"/><path d="m34.9 82.3s.8.8.3 1.4c-.5.7-.3-1.4-.3-1.4z"/><path d="m34.9 82.3s.8.8.3 1.4c-.5.7-.3-1.4-.3-1.4z"/><path d="m34.9 82.3s.8.8.3 1.4c-.5.7-.3-1.4-.3-1.4z"/><path d="m34.9 82.3s.8.8.3 1.4c-.5.7-.3-1.4-.3-1.4z"/><path d="m34.9 82.3s.8.8.3 1.4c-.5.7-.3-1.4-.3-1.4z"/><path d="m34.9 82.3s.8.8.3 1.4-.3-1.4-.3-1.4z"/><path d="m34.9 82.3s.8.8.3 1.4-.3-1.4-.3-1.4z"/><path d="m34.9 82.3s.8.8.3 1.4-.3-1.4-.3-1.4z"/><path d="m34.9 82.3s.8.8.3 1.4-.3-1.4-.3-1.4z"/><path d="m34.9 82.2s.8.8.3 1.4c-.5.7-.3-1.4-.3-1.4z"/><path d="m34.9 82.2s.8.8.3 1.4c-.5.7-.3-1.4-.3-1.4z"/><path d="m34.9 82.2s.8.8.3 1.4c-.5.7-.3-1.4-.3-1.4z"/><path d="m34.9 82.2s.8.8.3 1.4-.3-1.4-.3-1.4z"/><path d="m34.9 82.2s.8.8.3 1.4-.3-1.4-.3-1.4z"/><path d="m34.9 82.1s.8.8.3 1.4c-.5.7-.3-1.4-.3-1.4z"/><path d="m34.9 82.1s.8.8.3 1.4c-.5.7-.3-1.4-.3-1.4z"/><path d="m34.9 82.1s.8.8.3 1.4c-.5.7-.3-1.4-.3-1.4z"/><path d="m34.9 82.1s.8.8.3 1.4-.3-1.4-.3-1.4z"/><path d="m34.7 81.4s.8.8.3 1.4c-.5.7-.3-1.4-.3-1.4z"/><path d="m34.9 80.4s.8.8.3 1.4-.3-1.4-.3-1.4z"/><path d="m35.2 79.4s.8.8.3 1.4c-.5.7-.3-1.4-.3-1.4z"/><path d="m35.5 78.6s.8.8.3 1.4-.3-1.4-.3-1.4z"/><path d="m35.9 77.8s.8.8.3 1.4-.3-1.4-.3-1.4z"/><path d="m36.2 77.1s.8.8.3 1.4-.3-1.4-.3-1.4z"/><path d="m36.5 76.4s.8.8.3 1.4c-.5.7-.3-1.4-.3-1.4z"/><path d="m36.9 75.8s.8.8.3 1.4-.3-1.4-.3-1.4z"/><path d="m37.2 75.1s.8.8.3 1.4c-.5.7-.3-1.4-.3-1.4z"/><path d="m37.5 74.6s.8.8.3 1.4c-.5.7-.3-1.4-.3-1.4z"/><path d="m37.9 74s.8.8.3 1.4c-.5.7-.3-1.4-.3-1.4z"/><path d="m38.3 73.5s.8.8.3 1.4c-.5.7-.3-1.4-.3-1.4z"/><path d="m38.6 73s.8.8.3 1.4-.3-1.4-.3-1.4z"/></g><path d="m67.4 42.9c-.9-4.4-16.1 5.4-15.4 9.4s17.9 2.3 15.4-9.4z" opacity=".15"/><path d="m65.4 45.3c-.4-2.2-10.6 2.6-9.9 5.1.8 2.5 11.1 2.5 9.9-5.1z" fill="#2d3134"/><path d="m25.7 69.4s-.3-2.3 1.5-3.2 2.9-.2 2.9-.2-4.5 2.3-4.4 3.4z" opacity=".15"/><path d="m136.3 89.3s8.8 23 10.1 26.8c1.2 3.7 5.2 9.7.7 13.7s-36.6-9-36.6-9-3 4.6-6 8.5-5.1 5.9-5.1 5.9l2.9 9.4s6.4-2.2 7.6-.8.6 3.4-.3 3.9-10 2.6-11.3 1.3-3.5-7.7-3.5-7.7l-1.7 9.7s5.4-.8 6-.1.5 3.1.3 3.7-9.5 4.2-11.3 2.6c-1.9-1.6-.9-9.4-.9-9.4s-2.1-4.9-1.5-6.3c.5-1.3 1.1-6.6 2.4-9.3 1.2-2.7 18-17.7 20.2-18.3s10.4.5 16.7 2.2c6.3 1.6 10.5 2.6 10.5 2.6s-5.5-10.5-8.5-12.7-13.6-18.6-13.6-18.6z" fill="#baa794"/></svg>