<svg xmlns:xlink="http://www.w3.org/1999/xlink"  enable-background="new 0 0 40 20" height="20" viewBox="0 0 40 20" width="40" xmlns="http://www.w3.org/2000/svg"><path d="m39.1 6.6v-1.3l-36.2 8v1.3c0 .2.1.4.3.5l8.6 4.3c.8.4 1.7.4 2.4 0l24.6-12.3c.2-.1.3-.3.3-.5z" fill="#2d3134"/><path d="m3.2 13.9 8.5 4.3c.8.4 1.7.4 2.4 0l24.7-12.4c.4-.2.4-.8 0-1l-8.8-4.4c-.6-.3-1.3-.3-1.9 0l-24.9 12.5c-.4.2-.4.8 0 1z" fill="#656565"/><path d="m18.4 8.3c.8 0 1.5-.3 1.5-.8 0-.4-.7-.8-1.5-.8s-1.5.3-1.5.8.7.8 1.5.8zm3 1.5c.8 0 1.5-.3 1.5-.8 0-.4-.7-.8-1.5-.8s-1.5.3-1.5.8.7.8 1.5.8zm3 0c-.8 0-1.5.3-1.5.8 0 .4.7.8 1.5.8s1.5-.3 1.5-.8c0-.4-.7-.8-1.5-.8zm-9-1.5c-.8 0-1.5.3-1.5.8 0 .4.7.8 1.5.8s1.5-.3 1.5-.8c0-.4-.7-.8-1.5-.8zm3 1.5c-.8 0-1.5.3-1.5.8 0 .4.7.8 1.5.8s1.5-.3 1.5-.8c0-.4-.7-.8-1.5-.8zm3 1.5c-.8 0-1.5.3-1.5.8 0 .4.7.8 1.5.8s1.5-.3 1.5-.8c0-.4-.7-.8-1.5-.8z" opacity=".15"/><path d="m27 3.5c-3 0-5.5 1.2-5.5 2.8 0 1.5 2.5 2.7 5.5 2.7s5.5-1.2 5.5-2.8c0-1.5-2.5-2.7-5.5-2.7zm0 3.7c-1.1 0-2-.4-2-1s.9-1 2-1 2 .4 2 1-.9 1-2 1z" opacity=".15"/><path d="m32.5 6.4c-.2 1.4-2.6 2.6-5.5 2.6-3 0-5.4-1.2-5.5-2.6v.1c0 1.5 2.5 2.7 5.5 2.7s5.5-1.2 5.5-2.8zm-5.5-.9c1 0 1.9.4 2 .9v-.1c0-.6-.9-1-2-1s-2 .4-2 1v.1c.1-.5 1-.9 2-.9z" opacity=".3"/><g fill="#999"><path d="m23.6 4.6v.7l1.5-.7z"/><path d="m30.4 7.9v-.7l-1.5.7z"/><path d="m23.6 7.9h1.5l-1.5-.7z"/><path d="m30.4 4.6h-1.5l1.5.7z"/></g><path d="m16.9 9.2c-.1.4-.7.6-1.5.6-.7 0-1.4-.3-1.5-.6v.1c0 .4.7.8 1.5.8s1.5-.3 1.5-.8zm4.5.9c.8 0 1.5-.3 1.5-.8v-.1c-.1.4-.7.6-1.5.6-.7 0-1.4-.3-1.5-.6v.1c0 .4.7.8 1.5.8zm-3-1.5c.8 0 1.5-.3 1.5-.8v-.1c-.1.4-.7.6-1.5.6-.7 0-1.4-.3-1.5-.6v.1c0 .4.7.8 1.5.8zm7.5 2.1c-.1.4-.7.6-1.5.6-.7 0-1.4-.3-1.5-.6v.1c0 .4.7.8 1.5.8s1.5-.3 1.5-.8zm-4.5 2.1c-.7 0-1.4-.3-1.5-.6v.1c0 .4.7.8 1.5.8s1.5-.3 1.5-.8v-.1c-.1.4-.8.6-1.5.6zm-1.5-2.1c-.1.4-.7.6-1.5.6-.7 0-1.4-.3-1.5-.6v.1c0 .4.7.8 1.5.8s1.5-.3 1.5-.8z" opacity=".3"/><path d="m12.4 9.8c-.8 0-1.5.3-1.5.8 0 .4.7.8 1.5.8s1.5-.3 1.5-.8c0-.4-.7-.8-1.5-.8zm3 1.5c-.8 0-1.5.3-1.5.8 0 .4.7.8 1.5.8s1.5-.3 1.5-.8c0-.4-.7-.8-1.5-.8zm3 1.5c-.8 0-1.5.3-1.5.8 0 .4.7.8 1.5.8s1.5-.3 1.5-.8c0-.4-.7-.8-1.5-.8z" opacity=".15"/><path d="m13.9 10.7c-.1.4-.7.6-1.5.6-.7 0-1.4-.3-1.5-.6v.1c0 .4.7.8 1.5.8s1.5-.3 1.5-.8zm4.5 3.6c-.7 0-1.4-.3-1.5-.6v.1c0 .4.7.8 1.5.8s1.5-.3 1.5-.8v-.1c-.1.4-.8.6-1.5.6zm-1.5-2.1c-.1.4-.7.6-1.5.6-.7 0-1.4-.3-1.5-.6v.1c0 .4.7.8 1.5.8s1.5-.3 1.5-.8z" opacity=".3"/><ellipse cx="35.4" cy="5.1" opacity=".15" rx="1.5" ry=".8"/><path d="m30.9 2.1c0-.4-.7-.8-1.5-.8s-1.5.3-1.5.8v.3c0 .4.7.8 1.5.8s1.5-.3 1.5-.8c0-.1 0-.3 0-.3z" fill="#cc291f" opacity=".5"/><path d="m29.4 2.8c-.8 0-1.5-.3-1.5-.8v.3c0 .4.7.8 1.5.8s1.5-.3 1.5-.8c0 0 0-.2 0-.3 0 .5-.7.8-1.5.8z" opacity=".3"/><path d="m35.4 5.8c-.7 0-1.4-.3-1.5-.6v.1c0 .4.7.8 1.5.8s1.5-.3 1.5-.8v-.1c-.1.4-.8.6-1.5.6z" opacity=".3"/><path d="m39.1 5.3c0 .2-.1.4-.3.5l-24.6 12.3c-.8.4-1.7.4-2.4 0l-8.5-4.3c-.2-.1-.3-.3-.3-.5v1.3c0 .2.1.4.3.5l8.6 4.3c.8.4 1.7.4 2.4 0l24.5-12.3c.2-.1.3-.3.3-.5z" opacity=".06"/></svg>