<svg xmlns:xlink="http://www.w3.org/1999/xlink"  enable-background="new 0 0 240 240" height="240" viewBox="0 0 240 240" width="240" xmlns="http://www.w3.org/2000/svg"><path d="m29.4 223.5c34.4 22.3 60.4 8.5 99.3-7 43.1-17.1 68.3-43.2 47.8-56.3s-55.9-5.2-92.1 9.6c-33.3 13.6-77 39.3-55 53.7z" opacity=".2"/><path d="m164.5 8.9s-2 6.6.5 11.9 13-2.4 11.2-5.4c-1.8-2.9-8.5-2-11.7-6.5z" fill="#656565"/><path d="m164.5 8.9s-2 6.6.5 11.9 13-2.4 11.2-5.4c-1.8-2.9-8.5-2-11.7-6.5z" opacity=".2"/><path d="m135.4 143.6c1.9 6.2 2.9 12.7 1.7 17.4-1.2 4.8-3.5 10.6 3.9 11.4 7.5.8 16.2.2 15.8-4.6s-4.8-7.9-4.4-13.9 2.7-24.1 2.7-24.1z" fill="#656565"/><path d="m135.4 143.6c1.9 6.2 2.9 12.7 1.7 17.4-1.2 4.8-3.5 10.6 3.9 11.4 7.5.8 16.2.2 15.8-4.6s-4.8-7.9-4.4-13.9 2.7-24.1 2.7-24.1z" opacity=".2"/><path d="m39.9 59.9c-14.8 12.3-35.4 36.8-30.8 62.9s8.1 33.2 8.3 45.9.6 17.4 5.6 26.8c5 9.3 3.3 14.5 2.3 19.1s9.1 8.7 16.8 5.6 7.7-7.1 4.6-14.1c-3.1-7.1-5.2-37.4.6-50.3s10-20.8 10-20.8z" fill="#656565"/><path d="m39.9 59.9c-14.8 12.3-35.4 36.8-30.8 62.9s8.1 33.2 8.3 45.9.6 17.4 5.6 26.8c5 9.3 3.3 14.5 2.3 19.1s9.1 8.7 16.8 5.6 7.7-7.1 4.6-14.1c-3.1-7.1-5.2-37.4.6-50.3s10-20.8 10-20.8z" opacity=".2"/><path d="m43.8 56.6c-16.6 10.6-19.9 22.2-21.8 50s4.4 70.2 6.4 70.6.1-13.3 1-30.3c1.7-29.3 8.5-45.7 8.5-45.7s-3.5 16-1 26c1.6 6.4 13.5 26.2 13.7 40.7s-4.2 25.1-2.3 29.5 6.2 11 5.8 17.7-4.8 11.6.6 16 22.4-.2 22-6.9-6.6-6.2-4.4-21.2 9.1-28.2 15.6-36.3c6.4-8.1 10.8-13.9 10.8-13.9s17.7 3.1 36.5-7.1 28-17 28-17-1.5 13.9-1.5 20.8 1.9 12.5.8 17-3.4 13.5 7.8 12.9 12.1-4.4 10.3-8.1c-1.9-3.7-6-10.2-1.2-19.3s10.8-21.8 15-34.3 7.1-23.7 7.1-23.7 11.5 2.9 17.7 1.9 10.1-3.7 9.4-13.5c-.6-9.8.4-16.5-5.4-22.2s-10.7-9.3-11.7-14-5.7-14.4-14.2-22.2c-7.9-7.3-13-11.6-25.6-6.1s-23.1 7.5-29.8 10.5-11.5 6.2-34 5.7-59.2 19.4-64.1 22.5z" fill="#656565"/><path d="m217.3 13.8s-7.6 4.9-10.1 9.8-4.7 6.5-5.2 6.6-.1 8.8 2.8 9 1.7-3.1 5.6-4.5c3.9-1.3 6.1-3.4 6.6-8.3s.8-11.7.3-12.6z" fill="#656565"/><path d="m217.3 13.8s-7.6 4.9-10.1 9.8-4.7 6.5-5.2 6.6-.1 8.8 2.8 9 1.7-3.1 5.6-4.5c3.9-1.3 6.1-3.4 6.6-8.3s.8-11.7.3-12.6z" opacity=".2"/><path d="m217.4 55.4c3.2-2.2 8.9-11.8 10.8-16.9 1.8-5.1 2.6-2.8 2.4.2s-3.3 24.4-4.2 25.9c-1.8 2.3-11.3-7.7-9-9.2z" fill="#999"/><path d="m211.8 47.7c1.9-.5 3.7-3.5 4.4-3.4s.9 8.6 0 9.1c-1 .4-5.8-5.4-4.4-5.7z" fill="#999"/><path d="m211 59.5s.1 3.3 1.6 3.2 2.8-2 2.8-2-4-1.8-4.4-1.2z" fill="#2d3134"/><g fill="#999"><path d="m157.3 168c-.1-1.5-.6-2.8-1.2-4.1-4.3 4.2-11.6 8.2-20.1 5.3.5 1.8 1.9 3.1 5.2 3.4 7.6.9 16.5.3 16.1-4.6z"/><path d="m181.3 171.2c-.2-.4-.4-.7-.6-1.1-3.9 3.9-10.4 7.8-18.1 6.2 1.1 2.1 3.4 3.5 8.2 3.2 11.4-.6 12.4-4.4 10.5-8.3z"/><path d="m77.4 224.3c-.1-2-.8-3.4-1.6-4.8-4.2 4.9-12.3 10.7-23 9.5.4.8 1.1 1.5 2 2.3 5.6 4.5 23.1-.2 22.6-7z"/><path d="m48.4 209.6c-4.4 5.4-13 8.9-23 6.8 1.3 4 10.1 6.8 17 4 6.5-2.6 7.6-5.6 6-10.8z"/></g></svg>