<svg xmlns:xlink="http://www.w3.org/1999/xlink"  enable-background="new 0 0 320 240" height="240" viewBox="0 0 320 240" width="320" xmlns="http://www.w3.org/2000/svg"><path d="m127.2 222c32.1 20.6 56.1 9 92.2-5.5 39.9-16.1 62.5-42.9 43.3-55s-50.9-4.2-84.9 8.6c-31.3 11.7-71.1 38.7-50.6 51.9z" opacity=".2"/><path d="m80.9 53.1s-1.5 17.4 2.7 24.6c4.3 7.2 7.6 10 7.6 10s12.3-3.9 7-8.5-6.4-12-10-16.2-7.3-9.9-7.3-9.9z" fill="#656565"/><path d="m80.9 53.1s-1.5 17.4 2.7 24.6c4.3 7.2 7.6 10 7.6 10s12.3-3.9 7-8.5-6.4-12-10-16.2-7.3-9.9-7.3-9.9z" opacity=".2"/><path d="m117.4 159.7c2.7 6.7 16.9 36.3 16 42.9s-10.3 16.1 1.9 16.6c14.5.6 18.1-3.6 16.7-7.5-1.3-3.9-3.4-6.6-2.8-14.1s.7-33.3.7-33.3-8-7.7-21.5-8.6c-13.4-.9-11 4-11 4z" fill="#656565"/><path d="m117.4 159.7c2.7 6.7 16.9 36.3 16 42.9s-10.3 16.1 1.9 16.6c14.5.6 18.1-3.6 16.7-7.5-1.3-3.9-3.4-6.6-2.8-14.1s.7-33.3.7-33.3-8-7.7-21.5-8.6c-13.4-.9-11 4-11 4z" opacity=".2"/><path d="m152.4 213.2c-5.3 1.3-16.4 1.1-21.3-4-2.3 5-5.7 10.4 2.8 10.6 14.7.5 18.4-3.2 18.5-6.6z" fill="#999"/><path d="m244.3 127.9c-1.1 11.3-4.5 25.8-3.2 31.6 1.2 5.9 5.4 13.1-10 13.1-14.6 0-3.7-8.3-3.5-12.3.5-10-2.7-19.6-2.7-19.6z" fill="#656565"/><path d="m244.3 127.9c-1.1 11.3-4.5 25.8-3.2 31.6 1.2 5.9 5.4 13.1-10 13.1-14.6 0-3.7-8.3-3.5-12.3.5-10-2.7-19.6-2.7-19.6z" opacity=".2"/><path d="m242.5 167.4c-4.7 1.3-12.5.5-16.6-3.3-2.5 4-6.6 8.5 4.2 8.6 10.4.2 12.1-2.3 12.4-5.3z" fill="#999"/><path d="m121.8 158.4s12 4.5 20.5 6.7 11.6 6.1 13.8 17.7 3.1 23.6 2.2 28.5-12.9 15.6 2.5 17.1c14.7 1.5 19.1-3.8 17.6-9.6s-3-15.2.6-25.4c3.7-10.1 16.8-32 16.8-32s25.3-8.5 36.6-18.7c12.8-11.5 16.3-19.2 16.3-19.2s3.8 11.1 4.4 19.8 0 21.4-1.8 24.4c-3.7 6.2-7.8 12.1 5 12.3 8.5.1 13.2-1.7 10.5-10.3-1.5-4.7 2.3-17.3 6.7-31.8 4.4-14.4 9.7-35.1 8.3-53-1.7-20.8-23.9-51.7-61.7-45.2s-38.1 14-50.7 15.6-35-5.8-51.5 2.8c-15.7 8.2-11.1 13.1-21.8 20-10.8 6.9-13.6 22.3-16.6 29.6s-18.5 25-23.2 33.5c-9.7 17.7-18.1 39.3-6.4 48.8s27.4 4.3 38-5.9c10.7-9.9 27.3-16 33.9-25.7z" fill="#656565"/><path d="m116.7 89c-.1-3.6-3-18.4 8.6-21.5s15.3-5.5 15.3-5.5 6.9 12.7-1.1 20.3-13.2 7.8-14.4 9.6-8.3.1-8.4-2.9z" opacity=".2"/><path d="m92.3 143.3s3.6-4.7 6.9-6c3.6-1.4 6.7-.7 6.7-.7s.5 4.9-4 7.3-9.6-.6-9.6-.6z" fill="#2d3134"/><g fill="#999"><path d="m51.6 167.8c8.7-.8 13.9-5.9 15.4-15.4 1.4-8.8-1.8-11.8-8.4-12.8s-16.7-5.6-21.3-14.7-7.2-3.7-5.7 5c1.9 11.3 11.5 23.7 12.4 28 1.2 5.4 2.2 10.3 7.6 9.9z"/><path d="m62.5 133.6c2.6 4 9.9 2.7 12.5-.3 2.5-3 2.9-6.9-1.8-7.8-7.9-1.5-9.3-5.8-10.8-4.6s-.9 11.2.1 12.7z"/><path d="m178.6 222.1c-5.4 1.3-17.9 1.8-23.6-4.3-2.6 4.6-5.1 10.4 4.9 11.5 11.7 1.1 17.8-2.9 18.7-7.2z"/><path d="m267.6 174.9c-4.4 1.2-14.6 1.7-18.5-3.1-2.3 4.5-3.9 8.7 6.1 8.7 8.6 0 11.9-1.4 12.4-5.6z"/></g></svg>