<svg xmlns:xlink="http://www.w3.org/1999/xlink"  enable-background="new 0 0 160 240" height="240" viewBox="0 0 160 240" width="160" xmlns="http://www.w3.org/2000/svg"><path d="m69 229.1c-8.2 5.8-22.5 6.3-32 2.7-17.5-6.8-17.6-13.7-9.7-19.4s10.7-4.9 21.7-1.6 29.5 11.5 20 18.3z" opacity=".2"/><path d="m67.2 98.8c-.1.5-.5.9-.9.8l-4-.5c-.5-.1-.8-.5-.7-.9v-.1c.1-.5.5-.8.9-.7l4 .5c.4 0 .7.4.7.9z" fill="#e5e5e5"/><circle cx="61.6" cy="98.1" fill="#06547a" r=".9"/><path d="m70 97.1c-.1.5-.5.9-.9.8l-5.3-.6c-.5-.1-.8-.5-.7-.9v-.1c.1-.5.5-.8.9-.7l5.3.6c.4 0 .7.5.7.9z" fill="#e5e5e5"/><circle cx="63.1" cy="96.4" fill="#06547a" r=".9"/><path d="m72.3 95.4c-.1.5-.5.9-.9.8l-6.7-.8c-.5-.1-.8-.5-.7-.9v-.1c.1-.5.5-.8.9-.7l6.7.8c.5 0 .8.5.7.9z" fill="#e5e5e5"/><circle cx="64.1" cy="94.5" fill="#06547a" r=".9"/><path d="m71.1 93.3c-.1.5-.5.9-.9.8l-5.1-.6c-.5-.1-.8-.5-.7-.9v-.1c.1-.5.5-.8.9-.7l5.1.6c.5 0 .8.4.7.9z" fill="#e5e5e5"/><circle cx="64.5" cy="92.5" fill="#06547a" r=".9"/><path d="m48.4 97.3c.3 1.3 2.1 1.3 3.8 1.3 1.7.1 7.6.8 8.5.3s3.6-4.6 3.6-5.7c0-1.4-.3-1.6-1.7-1.8s-10.6-.1-12 0-2.3 1.1-2.4 2.2 0 2.9.2 3.7z" fill="#e5e5e5"/><circle cx="48.2" cy="95.1" fill="#06547a" r="2.4"/><path d="m13.2 93.7c1.5 2.5 31.4 5.4 33.6 4.5s2-5.1.4-6.2c-1.7-1.1-24.8-5.6-27.7-5-3 .4-7.9 4.1-6.3 6.7z" fill="#e5e5e5"/><circle cx="15.9" cy="89.2" fill="#06547a" r="3.9"/><circle cx="18" cy="61.5" fill="#06547a" r="3.9"/><path d="m27.4 213.6c-1.2 1.1-2.7 6.5-1.7 8.7s5.9 2.2 8.2-1.1c1.6-2.4 3.8-2.7 5.8-3.8 3.1-1.7 3.1-5.9 1.3-6.6s-5.7.2-7.7 1.1-4.4.4-5.9 1.7z" fill="#e5e5e5"/><circle cx="30.5" cy="212.5" fill="#06547a" r="3.6"/><path d="m30.3 164.5c-2.5 2-4 19.3-4.6 26-.6 7.4-.2 20 1.6 21.1 1.7 1.1 6.6 1.1 7.2-.8s5.1-39.5 5-42.8-6.5-5.7-9.2-3.5z" fill="#e5e5e5"/><circle cx="35.7" cy="163.8" fill="#06547a" r="4.6"/><path d="m29.6 160.2c.9 4.2 6.6 4.8 9.7 4s3.1-4.3 2.5-9.3-4.2-42.4-4.8-45.5-7.1-8.7-12.5-3.2c-3.8 3.8-3.5 15.8-1.5 23.9 2.7 11.1 6.1 27.8 6.6 30.1z" fill="#e5e5e5"/><path d="m28.5 85.5c.8 2.9 2.6 22.4 2.6 22.4l21.8 4.1 1.9-22.6z" fill="#06547a"/><path d="m117.8 109.9c0 .6-.4.9-.9.9l-4-.3c-.5 0-.8-.4-.8-.9v-.1c0-.5.4-.8.9-.8l4 .3c.5 0 .8.4.8.9z" fill="#e5e5e5"/><circle cx="112.2" cy="109.6" fill="#06547a" r=".9"/><path d="m120.5 108.1c0 .6-.4.9-.9.9l-5.4-.3c-.5 0-.8-.4-.8-.9v-.1c0-.5.4-.8.9-.8l5.4.3c.5.1.8.5.8.9z" fill="#e5e5e5"/><circle cx="113.6" cy="107.7" fill="#06547a" r=".9"/><path d="m122.8 106.3c0 .6-.4.9-.9.9l-6.7-.4c-.5 0-.8-.4-.8-.9v-.1c0-.5.4-.8.9-.8l6.7.4c.4.1.8.5.8.9z" fill="#e5e5e5"/><circle cx="114.5" cy="105.8" fill="#06547a" r=".9"/><path d="m121.5 104.2c0 .6-.4.9-.9.9l-5.1-.3c-.5 0-.8-.4-.8-.9v-.1c0-.5.4-.8.9-.8l5.1.3c.4.1.8.5.8.9z" fill="#e5e5e5"/><circle cx="114.8" cy="103.9" fill="#06547a" r=".9"/><path d="m98.9 109.4c.4 1.2 2.2 1.1 3.9 1.1s7.6.4 8.5-.2 3.3-4.8 3.3-5.9c-.1-1.4-.3-1.6-1.7-1.7s-10.6.5-12 .6-2.2 1.2-2.3 2.3c0 1.3.1 3 .3 3.8z" fill="#e5e5e5"/><circle cx="99.1" cy="106.9" fill="#06547a" r="2.4"/><circle cx="33.2" cy="110.2" fill="#06547a" r="8.6"/><g fill="#e5e5e5"><path d="m30.1 100.9c-3.8.5-5.2 9.4-2.4 14s9 9.4 11.6 10 16.3-4.3 16.4-12.5-2.8-5.3-7.2-4.6c-3.1.5-10.5.3-14.3-2.1-3.9-2.4-3.6-4.8-4.1-4.8z"/><path d="m40.3 50.1c-6-1.3-15.6-1.6-20.3-.1s-6.5 5.2-5.2 8.8 4.7 9.3 6.4 15 3.5 15.4 5.1 17.3c2.6 3 20.5 7.9 25.1 6.5s9.7-12.6 9.8-18 .1-8.1 1-9.4 1.5-3.7-.7-7.4-10.2-10.3-21.2-12.7z"/><path d="m12.8 61.6c-1.7.2-3 24.3-1.9 27.3s7.8-.7 8.9-1.6 1-16.4 0-18.8c-1.1-2.3-4.5-7.2-7-6.9z"/></g><path d="m35.7 30.9c-.1 3.2-.1 7.9-1.9 13.9-.9 3-3.3 4.6-2.7 5.9s5.7 2 8.6 1.9c3.9 0 5.3-.4 5.3-1.3 0-.8.9-7.3 1.6-10.6s1.3-8.3 1.3-8.3z" fill="#06547a"/><path d="m36.5 18.7c3.5-2.4 12.6-4 16.8-.1s3.9 11.5 3 17.2c-.9 5.6-.7 7.1-3.7 6.9-3-.1-5 .3-6.1-1.9s-.7-4.6-3.7-5.4-9-1.4-9.9-3.6-1.7-9.4 3.6-13.1z" fill="#e5e5e5"/><path d="m49.1 29.7c0 2.6-2.1 5.9-4.8 7.2-2.6 1.3-4.8.2-4.8-2.4s2.1-5.9 4.8-7.2c2.6-1.4 4.8-.3 4.8 2.4z" opacity=".2"/><path d="m49.7 30c0 2.6-2.1 5.9-4.8 7.2-2.6 1.3-4.8.2-4.8-2.4s2.1-5.9 4.8-7.2c2.6-1.3 4.8-.3 4.8 2.4z" fill="#e5e5e5"/><path d="m47.3 31.1c0 1.3-1 2.9-2.3 3.5s-2.3.1-2.3-1.2 1-2.9 2.3-3.5c1.2-.6 2.3-.1 2.3 1.2z" fill="#06547a"/><path d="m51.4 97.6c4.6-1.4 9.7-12.6 9.8-18 .1-4.6.1-7.3.7-8.7-.3.2-.8.4-2.1.5-2.7.3-9.2.3-11 3-1.8 2.8-2.5 16.5-1.7 20.9.1.8.9 1.7 2.1 2.5 1 0 1.7 0 2.2-.2z" opacity=".2"/><path d="m44.9 221.7c-1.3 1.3-2.9 7.1-.8 8.8s8.5-.1 11.8-.4c3.4-.3 13.7-1.9 13.5-4.9s-6.6-3.4-9.6-3.7c-2.7-.3-5.4-1.5-7.5-1.5-2.2 0-5.6 0-7.4 1.7z" fill="#e5e5e5"/><circle cx="48.6" cy="220" fill="#06547a" r="3.6"/><path d="m51.7 172.5c-2.8 1.8-5 13.3-6.5 25.3-1.6 13.2-2.2 20.8-.1 21.9 2.5 1.3 7-.1 7.7-2.2.5-1.6 8-37.8 8-39.7.2-4.5-6.1-7.2-9.1-5.3z" fill="#e5e5e5"/><circle cx="57.1" cy="172.5" fill="#06547a" r="4.6"/><path d="m56.9 115.7c.1-8.2-4.6-6.8-7.7-6.5-5.9.4-11.4 10.6-7.4 15.5 3.3 4 15-2.3 15.1-9z" opacity=".2"/><path d="m41.5 120c-.8 8.8 8.2 46.5 9.9 50.4 1.6 3.6 10.5 3.6 11.1-.5.7-4.1 0-49.3-3.2-55.6s-16.6-6.6-17.8 5.7z" fill="#e5e5e5"/><path d="m60.4 110.6c.2 2 6.2 1.9 12.9 1.5 7.4-.4 22.6-1.7 24.4-2.4 1.8-.8 2.7-4.8.9-5.6s-32.1-1.4-34 0c-1.9 1.5-4.5 3.7-4.2 6.5z" fill="#e5e5e5"/><circle cx="63.5" cy="106" fill="#06547a" r="3.9"/><path d="m50 73.5c2.2-1.5 4.9-1.6 6.5-1.9s3.3-.3 3.3-.3.7 3.3-.4 4.1c-1 .8-4.5 3.3-6.3 2.9s-4.7-3.8-3.1-4.8z" fill="#06547a"/><path d="m50.4 77.2c.2-1.9 7.7-5.6 9.9-4.3s8.8 30 6.8 31.2c-1.9 1.2-6.7 4-8.1 3.1s-9-26.8-8.6-30z" fill="#e5e5e5"/></svg>