<svg xmlns:xlink="http://www.w3.org/1999/xlink"  enable-background="new 0 0 160 240" height="240" viewBox="0 0 160 240" width="160" xmlns="http://www.w3.org/2000/svg"><path d="m28.7 229.7c10.3 9.3 15.3 3.7 27.7-1.6 19.2-8.1 20.1-11.1 11.3-17.4s-14.7-4.3-26.9-.7c-12.2 3.7-21.8 11-12.1 19.7z" opacity=".2"/><path d="m46.6 205.4c-2.1 1.2-3.3 8.5.5 9.5s6.6-.3 9.1 1.2c2.4 1.6 9 4.4 12.6 2.9s.9-3.4-.8-4.7c-1.7-1.2-5.7-3.3-8.2-6.2s-6.9-6.4-13.2-2.7z" fill="#e5e5e5"/><circle cx="50.8" cy="204.5" fill="#06547a" r="3.6"/><path d="m53.4 161.9c-1.6 1.3-5.1 14-6 22.6s-1.5 19.2-.3 20.3 6.1.8 7.2-1.5 7.9-34.1 7.9-37-5.1-7.5-8.8-4.4z" fill="#e5e5e5"/><circle cx="59" cy="162.6" fill="#06547a" r="4.5"/><path d="m50.2 99.1c3.2-1.2 11.6-.4 12.5 10.2s4.5 45.4 2 50.6-9.2 4.7-10.8-.7c-2.5-8.3-9.7-44.1-10.1-48.9s.6-9 6.4-11.2z" fill="#e5e5e5"/><path d="m102.9 106.5c-.3.4-.8.6-1.2.3l-3.3-2c-.4-.2-.5-.8-.3-1.2.2-.4.8-.5 1.2-.3l3.3 2c.4.3.5.8.3 1.2z" fill="#e5e5e5"/><circle cx="98.2" cy="103.7" fill="#06547a" r=".9"/><path d="m106 106.1c-.3.4-.8.6-1.2.3l-4.5-2.6c-.4-.2-.5-.8-.3-1.2.2-.4.8-.5 1.2-.3l4.5 2.6c.4.3.5.8.3 1.2z" fill="#e5e5e5"/><circle cx="100.2" cy="102.7" fill="#06547a" r=".9"/><path d="m108.8 105.6c-.3.4-.8.6-1.2.3l-5.6-3.3c-.4-.2-.5-.8-.3-1.2.2-.4.8-.5 1.2-.3l5.6 3.3c.4.2.5.8.3 1.2z" fill="#e5e5e5"/><circle cx="101.8" cy="101.5" fill="#06547a" r=".9"/><path d="m108.6 103.2c-.3.4-.8.6-1.2.3l-4.3-2.5c-.4-.2-.5-.8-.3-1.2.2-.4.8-.5 1.2-.3l4.3 2.5c.4.2.5.8.3 1.2z" fill="#e5e5e5"/><circle cx="102.9" cy="99.9" fill="#06547a" r=".9"/><path d="m86.7 97.7c-.2 1.3 1.4 2 2.9 2.7s6.4 3.7 7.5 3.6 5-2.7 5.5-3.7c.6-1.2.4-1.6-.8-2.3s-9.4-4.3-10.7-4.7c-1.3-.5-2.4.1-3 1-.6 1.1-1.2 2.6-1.4 3.4z" fill="#e5e5e5"/><circle cx="88.1" cy="95.4" fill="#06547a" r="2.4"/><path d="m84.7 96.7c2.3 1 5-2.5 4.1-4s-25.6-18.2-27.9-18.4-4.4 5.7-1.6 8.3 23 13.1 25.4 14.1z" fill="#e5e5e5"/><path d="m32.7 86.8 1.6 17.8s10.3 1.5 13.9.6 9-5.3 9-5.3l5.6-18.9z" fill="#06547a"/><path d="m30.9 213.3c-1.2.9-2 5.9-1.2 8.4s5 9.7 10.8 10.5 5.5-3.7 3.6-7.6c-2-4-4-6.3-5.2-9.4-1.2-3.2-6-3.4-8-1.9z" fill="#e5e5e5"/><circle cx="34.7" cy="212.4" fill="#06547a" r="3.6"/><path d="m34.3 171.2c-1.6.6-3.6 8.1-4.3 19.3-.8 11.1.5 20.9 1.5 21.6s5.9.4 6.5-1 4.9-34.6 4.4-36.2-5.5-4.7-8.1-3.7z" fill="#e5e5e5"/><circle cx="40" cy="172.2" fill="#06547a" r="4.5"/><path d="m36.1 49.2c6.7-2.4 19.7-5.4 23.1-4.1s7 3.3 6.3 8.4-1.3 5.6-1.1 7.8.4 11.6.3 15-.7 6.4-.7 6.4-5.8 1.4-10.1 3.9-18.7 9-20.9 7.8-5.3-10.9-6.9-17.4c-1.7-6.5-3-8.8-4.1-9.9s-5.7-4.2-1.7-7.5c4-3.4 10.2-8.4 15.8-10.4z" fill="#e5e5e5"/><path d="m39.1 79.2c-4.9-.3-6.5-9.3-7.6-10.7s-2.1-.8-6.3-2c-2.4-.7-4.2-1.2-5.4-1.6.6.7 1.3 1.3 1.8 1.8.1.1.1.1.2.2.1.1.2.1.2.2 1.1 1.2 2.4 3.4 4.1 9.9s4.8 16.2 6.9 17.4c2.2 1.3 10.6-14.9 6.1-15.2z" opacity=".2"/><path d="m61.4 104.2c-1.4-2.9-2.8-3.9-5-4.5-1.3 1.5-4 3.6-7.5 5-1.4.5-3.1.8-4.9.9-.3 1.5-.4 3.1-.2 4.8.2 1.8 1.3 7.8 2.8 15.1 7.7-1.4 15.2-14.2 14.8-21.3z" opacity=".2"/><path d="m60.8 101.3c2 6-6.7 21.2-14.5 19.7-2.5-.5-13.3-8.2-14.2-13.1s.9-5.4 2.4-4.9 11.1 2.1 16 .2c4.9-1.8 7.1-5.8 7.5-5.6 1.4.6 2.1 1.8 2.8 3.7z" fill="#e5e5e5"/><path d="m34 168.2c2 6.1 10.2 5.4 11.8 2 1.6-3.3.5-44.7-1.6-50.3-2-5.6-9.3-13.3-15.6-11.7s-4.7 11-1.8 23.1c2.8 12.1 6.6 35 7.2 36.9z" fill="#e5e5e5"/><path d="m40.5 27.6c.3 4.1.9 9.5.2 13.5-.4 2.4-.9 5.6-1.3 7.7-.2 1.3.8 2.5 2.1 2.6 1.8.1 4.4.1 6.4-.7 3.5-1.3 3.5-3.3 3.5-3.3v-10.6z" fill="#06547a"/><path d="m40.1 17.2c3.8-2.8 14-5.3 18.2 2.5s1.4 22.8-1.8 24.3c-3.5 1.7-9.1.1-11-3s-2.8-5.5-5.1-8c-1.6-1.8-2.7-4.4-3.3-7.2-.5-2.8-.1-6.3 3-8.6z" fill="#e5e5e5"/><path d="m38.4 29.4c0 2.6 2.1 5.7 4.7 7s4.7.2 4.7-2.3c0-2.6-2.1-5.7-4.7-7-2.7-1.3-4.7-.3-4.7 2.3z" opacity=".2"/><path d="m37.8 29.7c0 2.6 2.1 5.7 4.7 7s4.7.2 4.7-2.3-2.1-5.7-4.7-7-4.7-.2-4.7 2.3z" fill="#e5e5e5"/><path d="m40.1 30.9c0 1.3 1 2.8 2.3 3.4s2.3.1 2.3-1.1-1-2.8-2.3-3.4c-1.3-.7-2.3-.2-2.3 1.1z" fill="#06547a"/><path d="m45.3 119c.4 2.1.8 4.5 1.3 7l18.4 10.8c-.2-3.2-.5-6.5-.7-9.7l-12.2-6.9z" opacity=".2"/><path d="m62.5 132.1c-.3.4-.8.5-1.2.2l-3.1-2.4c-.4-.3-.4-.8-.1-1.2.3-.4.8-.4 1.2-.1l3.1 2.4c.3.2.4.8.1 1.1z" fill="#e5e5e5"/><circle cx="58.2" cy="128.8" fill="#06547a" r=".9"/><path d="m65.7 132.2c-.3.4-.8.5-1.2.2l-4.1-3.2c-.4-.3-.4-.8-.1-1.2.3-.4.8-.4 1.2-.1l4.1 3.2c.3.2.4.7.1 1.1z" fill="#e5e5e5"/><circle cx="60.4" cy="128.1" fill="#06547a" r=".9"/><path d="m68.5 132c-.3.4-.8.5-1.2.2l-5.1-4c-.4-.3-.4-.8-.1-1.2.3-.4.8-.4 1.2-.1l5.1 4c.3.2.4.7.1 1.1z" fill="#e5e5e5"/><circle cx="62.2" cy="127.1" fill="#06547a" r=".9"/><path d="m68.6 129.6c-.3.4-.8.5-1.2.2l-3.9-3.1c-.4-.3-.4-.8-.1-1.2.3-.4.8-.4 1.2-.1l3.9 3.1c.3.2.4.7.1 1.1z" fill="#e5e5e5"/><circle cx="63.4" cy="125.6" fill="#06547a" r=".9"/><path d="m47.7 121.3c-.4 1.2 1.1 2.1 2.5 3.1 1.4.9 5.9 4.5 6.9 4.6s5.3-2 5.9-2.9c.7-1.1.6-1.5-.5-2.3s-8.8-5.5-10-6.1-2.4-.2-3.1.6c-.6.8-1.5 2.3-1.7 3z" fill="#e5e5e5"/><circle cx="48.6" cy="119.4" fill="#06547a" r="2.4"/><path d="m28.6 108.2c-2.3.6-3.5 2.2-4.1 4.7 7.3 4.5 16.5 10.1 20.6 12.1-.3-2.4-.6-4.1-.9-5-.7-1.9-1.9-3.9-3.5-5.8-2.3-1.7-5-3.7-7.7-5.6-1.4-.7-2.9-.8-4.4-.4z" opacity=".2"/><path d="m11 95.2c-1.1 2.1.2 4.9 4.8 8 4.9 3.3 27.8 17.5 31.1 18.4 1.1.3 3.6-3.5 1.7-5.5s-29.4-21.8-31.1-22.7c-1.7-1-5.1-.8-6.5 1.8z" fill="#e5e5e5"/><circle cx="12.9" cy="95.3" fill="#06547a" r="3.8"/><path d="m21 65.4 8.7 2.5s-.7 1.7-2.8 4-6.7 1.4-7.2-.5c-.4-1.9 1.3-6 1.3-6z" fill="#06547a"/><path d="m20.1 66.3c1.5-1.2 4.5.9 6 2.4 1 1 1.9 2.4 1.1 5.1-.9 2.6-8.9 19.7-10.6 20.4s-7.8 2.2-7.9-.1 8.1-25 11.4-27.8z" fill="#e5e5e5"/></svg>