<svg xmlns:xlink="http://www.w3.org/1999/xlink"  enable-background="new 0 0 80 240" height="240" viewBox="0 0 80 240" width="80" xmlns="http://www.w3.org/2000/svg"><path d="m28.7 229.8c10.3 9.3 15.3 3.7 27.7-1.6 19.2-8.1 20.1-11.1 11.3-17.4s-14.7-4.3-26.9-.7c-12.2 3.7-21.8 11-12.1 19.7z" opacity=".2"/><path d="m17.5 158.7c-.5 0-.9-.4-.9-.8v-3.9c0-.5.4-.8.8-.8.5 0 .8.4.8.8v3.9c.1.4-.2.8-.7.8z" fill="#e5e5e5"/><circle cx="17.5" cy="153.2" fill="#06547a" r=".9"/><path d="m19.4 161.2c-.5 0-.9-.4-.9-.8v-5.2c0-.5.4-.8.8-.8.5 0 .8.4.8.8v5.2c.2.4-.2.8-.7.8z" fill="#e5e5e5"/><circle cx="19.4" cy="154.4" fill="#06547a" r=".9"/><path d="m21.3 163.3c-.5 0-.9-.4-.9-.8v-6.5c0-.5.4-.8.8-.8.5 0 .8.4.8.8v6.5c.2.4-.2.8-.7.8z" fill="#e5e5e5"/><circle cx="21.3" cy="155.2" fill="#06547a" r=".9"/><path d="m23.2 161.9c-.5 0-.9-.4-.9-.8v-5c0-.5.4-.8.8-.8.5 0 .8.4.8.8v5c.2.4-.2.8-.7.8z" fill="#e5e5e5"/><circle cx="23.2" cy="155.4" fill="#06547a" r=".9"/><path d="m16.8 140.3c-1.2.5-1 2.2-.9 3.9s0 7.4.7 8.3 4.9 2.9 6 2.8c1.3-.1 1.6-.4 1.6-1.8s-1.1-10.3-1.4-11.6-1.3-2.1-2.4-2.1-2.8.2-3.6.5z" fill="#e5e5e5"/><path d="m67.4 134.1c-.5 0-.9-.4-.9-.8v-3.9c0-.5.4-.8.8-.8.5 0 .8.4.8.8v3.9c.1.4-.3.8-.7.8z" fill="#e5e5e5"/><circle cx="67.4" cy="128.6" fill="#06547a" r=".9"/><path d="m69.3 136.6c-.5 0-.9-.4-.9-.8v-5.2c0-.5.4-.8.8-.8.5 0 .8.4.8.8v5.2c.1.4-.3.8-.7.8z" fill="#e5e5e5"/><circle cx="69.3" cy="129.9" fill="#06547a" r=".9"/><path d="m71.2 138.7c-.5 0-.9-.4-.9-.8v-6.5c0-.5.4-.8.8-.8.5 0 .8.4.8.8v6.5c.1.4-.2.8-.7.8z" fill="#e5e5e5"/><circle cx="71.2" cy="130.6" fill="#06547a" r=".9"/><path d="m73.1 137.3c-.5 0-.9-.4-.9-.8v-5c0-.5.4-.8.8-.8.5 0 .8.4.8.8v5c.2.4-.2.8-.7.8z" fill="#e5e5e5"/><circle cx="73.1" cy="130.8" fill="#06547a" r=".9"/><circle cx="19" cy="139.8" fill="#06547a" r="2.4"/><path d="m14.8 95.4c-2.4.4-3.7 3.2-3.3 8.7.4 5.8 3.4 32.7 4.7 35.8.4 1.1 5 .7 5.4-2.1s-.9-36.6-1.3-38.5-2.6-4.5-5.5-3.9z" fill="#e5e5e5"/><path d="m66.7 115.7c-1.2.5-1 2.2-.9 3.9s0 7.4.7 8.3 4.9 2.9 6 2.8c1.3-.1 1.6-.4 1.6-1.8s-1.1-10.3-1.4-11.6-1.3-2.1-2.4-2.1c-1.2 0-2.8.2-3.6.5z" fill="#e5e5e5"/><circle cx="69.2" cy="115.3" fill="#06547a" r="2.4"/><path d="m46.6 205.4c-2.1 1.2-3.3 8.5.5 9.5s6.6-.3 9.1 1.2c2.4 1.6 9 4.4 12.6 2.9s.9-3.4-.8-4.7c-1.7-1.2-5.7-3.3-8.2-6.2s-6.9-6.3-13.2-2.7z" fill="#e5e5e5"/><circle cx="50.8" cy="204.5" fill="#06547a" r="3.6"/><path d="m53.4 161.9c-1.6 1.3-5.1 14-6 22.6s-1.5 19.2-.3 20.3 6.1.8 7.2-1.5 7.9-34.1 7.9-37-5.1-7.4-8.8-4.4z" fill="#e5e5e5"/><circle cx="59" cy="162.7" fill="#06547a" r="4.5"/><path d="m50.2 99.2c3.2-1.2 11.6-.4 12.5 10.2s4.5 45.4 2 50.6-9.2 4.7-10.8-.7c-2.5-8.3-9.7-44.1-10.1-48.9-.4-4.9.6-9.1 6.4-11.2z" fill="#e5e5e5"/><path d="m65.9 113.8c.9 2.3 5.3 1.8 5.7.1s-5.1-31-6.6-32.8c-1.4-1.7-7.2.9-7 4.7s6.9 25.6 7.9 28z" fill="#e5e5e5"/><path d="m32.7 86.9 1.6 17.8s10.3 1.5 13.9.6 9-5.3 9-5.3l5.6-19z" fill="#06547a"/><path d="m30.9 213.3c-1.2.9-2 5.9-1.2 8.4s5 9.7 10.8 10.5 5.5-3.7 3.6-7.6c-2-4-4-6.3-5.2-9.4-1.2-3.2-6-3.4-8-1.9z" fill="#e5e5e5"/><circle cx="34.7" cy="212.4" fill="#06547a" r="3.6"/><path d="m34.3 171.2c-1.6.6-3.6 8.1-4.3 19.3-.8 11.1.5 20.9 1.5 21.6s5.9.4 6.5-1 4.9-34.6 4.4-36.2-5.5-4.6-8.1-3.7z" fill="#e5e5e5"/><circle cx="40" cy="172.2" fill="#06547a" r="4.5"/><circle cx="17.2" cy="97.9" fill="#06547a" r="3.8"/><path d="m36.1 49.3c6.7-2.4 19.7-5.4 23.1-4.1s7 3.3 6.3 8.4-1.3 5.6-1.1 7.8.4 11.6.3 15-.7 6.4-.7 6.4-5.8 1.4-10.1 3.9-18.7 9-20.9 7.8-5.3-10.9-6.9-17.4c-1.7-6.5-3-8.8-4.1-9.9s-5.7-4.2-1.7-7.5c4-3.4 10.2-8.4 15.8-10.4z" fill="#e5e5e5"/><path d="m39.1 79.2c-4.9-.3-6.5-9.3-7.6-10.7s-2.1-.8-6.3-2c-2.4-.7-4.2-1.2-5.4-1.6.6.7 1.3 1.3 1.8 1.8.1.1.1.1.2.2.1.1.1.1.2.2 1.1 1.2 2.4 3.4 4.1 9.9s4.8 16.2 6.9 17.4c2.2 1.3 10.6-14.9 6.1-15.2z" opacity=".2"/><path d="m21 65.5 8.7 2.5s-.7 1.7-2.8 4-6.7 1.4-7.2-.5c-.4-2 1.3-6 1.3-6z" fill="#06547a"/><path d="m18.2 67.5c1.1-1.6 4.6-.2 6.4.8 1.2.7 2.5 1.9 2.3 4.7s-4.3 23.7-5.8 24.8-6.4.4-7-1.8 1.6-25 4.1-28.5z" fill="#e5e5e5"/><path d="m61.4 104.2c-1.4-2.9-2.8-3.9-5-4.5-1.3 1.5-4 3.6-7.5 5-1.4.5-3.1.8-4.9.9-.3 1.5-.4 3.1-.2 4.8.2 1.8 1.3 7.8 2.8 15.1 7.7-1.4 15.2-14.2 14.8-21.3z" opacity=".2"/><path d="m60.8 101.4c2 6-6.7 21.2-14.5 19.7-2.5-.5-13.3-8.2-14.2-13.1s.9-5.4 2.4-4.9 11.1 2.1 16 .2 7.1-5.8 7.5-5.6c1.4.6 2.1 1.7 2.8 3.7z" fill="#e5e5e5"/><circle cx="34.2" cy="115.4" fill="#06547a" r="8.3"/><path d="m34 168.2c2 6.1 10.2 5.4 11.8 2 1.6-3.3.5-44.7-1.6-50.3-2-5.6-9.3-13.3-15.6-11.7s-4.7 11-1.8 23.1c2.8 12.2 6.6 35 7.2 36.9z" fill="#e5e5e5"/><path d="m40.5 27.6c.3 4.1.9 9.5.2 13.5-.4 2.4-.9 5.6-1.3 7.7-.2 1.3.8 2.5 2.1 2.6 1.8.1 4.4.1 6.4-.7 3.5-1.3 3.5-3.3 3.5-3.3v-10.5z" fill="#06547a"/><path d="m40.1 17.2c3.8-2.8 14-5.3 18.2 2.5s1.4 22.8-1.8 24.3c-3.5 1.7-9.1.1-11-3s-2.8-5.5-5.1-8c-1.6-1.8-2.7-4.4-3.3-7.2-.5-2.8-.1-6.3 3-8.6z" fill="#e5e5e5"/><path d="m38.4 29.5c0 2.6 2.1 5.7 4.7 7s4.7.2 4.7-2.3c0-2.6-2.1-5.7-4.7-7-2.7-1.4-4.7-.3-4.7 2.3z" opacity=".2"/><path d="m37.8 29.8c0 2.6 2.1 5.7 4.7 7s4.7.2 4.7-2.3-2.1-5.7-4.7-7-4.7-.3-4.7 2.3z" fill="#e5e5e5"/><path d="m40.1 30.9c0 1.3 1 2.8 2.3 3.4s2.3.1 2.3-1.1-1-2.8-2.3-3.4c-1.3-.7-2.3-.2-2.3 1.1z" fill="#06547a"/></svg>