<svg xmlns:xlink="http://www.w3.org/1999/xlink"  enable-background="new 0 0 32 32" height="32" viewBox="0 0 32 32" width="32" xmlns="http://www.w3.org/2000/svg"><path d="m32 24-32-24 16 8z" fill="#2d3134"/><path d="m32 24-32-24 16 8z" fill="#2d3134"/><path d="m16 8 16 16-16 8-16-8v-24z" fill="#762c07"/><path d="m28 25 3-1.5-1-1.5-2 1zm-4 2 3-1.5v-2l-3 1.5zm-4 2 3-1.5v-2l-3 1.5zm-4 2 3-1.5v-2l-3 1.5zm12-11-2 1v2l3-1.5zm-3 1.5-3 1.5v2l3-1.5zm-4 2-3 1.5v2l3-1.5zm-4 2-1 .5v2l1-.5zm9-7.5-2 1v2l3-1.5zm-3 1.5-3 1.5v2l3-1.5zm-4 2-3 1.5v2l3-1.5zm5-5.5-2 1v2l3-1.5zm-3 1.5-3 1.5v2l3-1.5zm-4 2-1 .5v2l1-.5zm5-5.5-2 1v2l3-1.5zm-3 1.5-3 1.5v2l3-1.5zm-1-.5 3-1.5-1-1.5-2 1zm-2 1 1-.5v-2l-1 .5zm0-3 3-1.5-1-1.5-2 1zm0-5v2l1-.5z" fill="#baa794" opacity=".5"/><path d="m16 8 16 16-16 8z" opacity=".29"/><g fill="#baa794" opacity=".5"><path d="m4 25-3-1.5v-2l3 1.5z"/><path d="m8 27-3-1.5v-2l3 1.5z"/><path d="m12 29-3-1.5v-2l3 1.5z"/><path d="m16 31-3-1.5v-2l3 1.5z"/><path d="m0 18 2 1v2l-2-1z"/><path d="m3 19.5 3 1.5v2l-3-1.5z"/><path d="m7 21.5 3 1.5v2l-3-1.5z"/><path d="m14 27-3-1.5v-2l3 1.5z"/><path d="m15 25.5 1 .5v2l-1-.5z"/><path d="m1 15.5 3 1.5v2l-3-1.5z"/><path d="m5 17.5 3 1.5v2l-3-1.5z"/><path d="m9 19.5 3 1.5v2l-3-1.5z"/><path d="m13 21.5 3 1.5v2l-3-1.5z"/><path d="m0 12 2 1v2l-2-1z"/><path d="m3 13.5 3 1.5v2l-3-1.5z"/><path d="m10 19-3-1.5v-2l3 1.5z"/><path d="m14 21-3-1.5v-2l3 1.5z"/><path d="m15 19.5 1 .5v2l-1-.5z"/><path d="m1 9.5 3 1.5v2l-3-1.5z"/><path d="m5 11.5 3 1.5v2l-3-1.5z"/><path d="m9 13.5 3 1.5v2l-3-1.5z"/><path d="m13 15.5 3 1.5v2l-3-1.5z"/><path d="m2 9-2-1v-2l2 1z"/><path d="m6 11-3-1.5v-2l3 1.5z"/><path d="m10 13-3-1.5v-2l3 1.5z"/><path d="m14 15-3-1.5v-2l3 1.5z"/><path d="m15 13.5 1 .5v2l-1-.5z"/><path d="m4 7-3-1.5v-2l3 1.5z"/><path d="m8 9-3-1.5v-2l3 1.5z"/><path d="m12 11-3-1.5v-2l3 1.5z"/><path d="m13 9.5 3 1.5v2l-3-1.5z"/><path d="m0 0 2 1v2l-2-1z"/><path d="m3 1.5 3 1.5v2l-3-1.5z"/><path d="m7 3.5 3 1.5v2l-3-1.5z"/><path d="m11 5.5 3 1.5v2l-3-1.5z"/><path d="m15 7.5 1 .5v2l-1-.5z"/></g><path d="m16 8v24l-16-8v-24z" opacity=".11"/></svg>