<svg xmlns:xlink="http://www.w3.org/1999/xlink"  enable-background="new 0 0 32 40" height="40" viewBox="0 0 32 40" width="32" xmlns="http://www.w3.org/2000/svg"><path d="m16 40 16-32v24z" fill="#762c07"/><path d="m28 33 3-1.5v-2l-3 1.5zm-4 2 3-1.5v-2l-3 1.5zm-4 2 3-1.5v-2l-3 1.5zm-4 2 3-1.5v-2l-3 1.5zm16-13-2 1v2l2-1zm-3 1.5-3 1.5v2l3-1.5zm-4 2-3 1.5v2l3-1.5zm-7 5.5 3-1.5v-2l-3 1.5zm13-11.5-3 1.5v2l3-1.5zm-4 2-3 1.5v2l3-1.5zm-4 2-3 1.5v2l3-1.5zm9-7.5-2 1v2l2-1zm-3 1.5-3 1.5v2l3-1.5zm-7 5.5 3-1.5v-2l-3 1.5zm9-9.5-3 1.5v2l3-1.5zm-4 2-3 1.5v2l3-1.5zm3-2.5 2-1v-2l-2 1zm-4 2 3-1.5v-2l-3 1.5zm2-4 3-1.5v-2l-3 1.5zm4-7-2 1v2l2-1z" fill="#baa794" opacity=".5"/><path d="m16 40 16-32v24z" opacity=".29"/><g transform="matrix(.8944 .4472 -.4472 .8944 10.6334 -5.044)"><path d="m7.1 2.1h17.9v35.8h-17.9z" fill="#2d3134"/><path d="m7.1 2.1h17.9v35.8h-17.9z" fill="#2d3134"/><path d="m7.1 2.1h17.9v35.8h-17.9z" opacity=".11"/></g></svg>