<svg xmlns:xlink="http://www.w3.org/1999/xlink"  enable-background="new 0 0 64 48" height="48" viewBox="0 0 64 48" width="64" xmlns="http://www.w3.org/2000/svg"><path d="m39 16.5-14 23 29-14.5z" fill="#e5e5e5"/><path d="m54 23-12-6-16 24 2-1 2-3 24-12 2 1 2-1zm-6.5-1.3-4.5 6v-8.2zm-6.5-1.2v8l-4-2zm-5.2 7.9 3.8 1.9-7.6 3.7zm9-.8 3.9-5.2 3.3 1.6z" fill="#baa794"/><path d="m42 17-20-10-16 24 20 10 16-24 16 8z" fill="#762c07"/><path d="m26 41-20-10 16-24 20 10z" opacity=".11"/><path d="m42 17-16 24 2-1 2-3 24-12 2 1 2-1z" opacity=".29"/></svg>