<svg xmlns:xlink="http://www.w3.org/1999/xlink"  enable-background="new 0 0 64 48" height="48" viewBox="0 0 64 48" width="64" xmlns="http://www.w3.org/2000/svg"><path d="m40 16-7 7.5-8 16 31-15.5-8-8z" fill="#e5e5e5"/><path d="m40 16-7 7.5-8 16 31-15.5-8-8z" opacity=".29"/><path d="m50 17-20-10h-8l-8 8-8 16 20 10 2-1 7-14 8-8h5.5l6.5 6.5 2 1 1-.5z" fill="#762c07"/><path d="m48.5 18 6.5 6.5 2 1-7.5-7.5z" opacity=".11"/><path d="m42 17-8 8-20-10 8-8z" opacity=".05"/><path d="m8.8 19.1h22.4v17.9h-22.4z" opacity=".11" transform="matrix(.8944 .4472 -.4472 .8944 14.6334 -5.9882)"/><path d="m57 25.5 1-.5-8-8h-8l-8 8-8 16 2-1 7-14 8-8h6.5z" opacity=".29"/></svg>