<svg xmlns:xlink="http://www.w3.org/1999/xlink"  enable-background="new 0 0 60 60" height="60" viewBox="0 0 60 60" width="60" xmlns="http://www.w3.org/2000/svg"><path d="m44.5 13.3c-.8 0-1.5.3-1.5.8v28.3c0 .4.7.8 1.5.8s1.5-.3 1.5-.8v-28.4c0-.4-.7-.7-1.5-.7z" fill="#2d3134"/><path d="m24.5 3.3c-.8 0-1.5.3-1.5.7v28.3c0 .4.7.8 1.5.8s1.5-.3 1.5-.8v-28.3c0-.4-.7-.7-1.5-.7z" fill="#2d3134"/><path d="m0 37v8l30 15 20-10v-8l-30-15z" fill="#2d3134"/><path d="m2 40v4l26 13v-4z" fill="#656565"/><path d="m30 60-30-15v-8l30 15z" opacity=".11"/><path d="m30 60 20-10v-8l-20 10z" opacity=".29"/><path d="m6 43-2-1v2l2 1z" fill="#cc291f"/><g fill="#9c3"><path d="m10 45-2-1v2l2 1z" opacity=".8"/><path d="m14 47-2-1v2l2 1z" opacity=".7"/><path d="m18 49-2-1v2l2 1z" opacity=".5"/><path d="m22 51-2-1v2l2 1z" opacity=".4"/><path d="m26 53-2-1v2l2 1z" opacity=".2"/></g><path d="m15 34.5-1 .5 20 10 1-.5z" opacity=".5"/><path d="m17 33.5-1 .5 20 10 1-.5z" opacity=".5"/><path d="m19 32.5-1 .5 20 10 1-.5z" opacity=".5"/><path d="m21 31.5-1 .5 20 10 1-.5z" opacity=".5"/><path d="m23 30.5-1 .5 20 10 1-.5z" opacity=".5"/></svg>