<svg xmlns:xlink="http://www.w3.org/1999/xlink"  enable-background="new 0 0 640 320" height="320" viewBox="0 0 640 320" width="640" xmlns="http://www.w3.org/2000/svg"><path d="m30 80v5l178 89 120-60v-5l-178-89z" fill="#e5e5e5"/><path d="m38.9 80.5 111-55.6 169.1 84.6-111.1 55.5z" fill="#339"/><path d="m208 174-178-89v-5l178 89z" opacity=".11"/><path d="m208 169v5l120-60v-5z" opacity=".29"/><path d="m306.9 115.5 2.2-1.1-11.9-5.9 9.9-5-2.2-1.1-9.9 5-11.8-5.9 9.9-5-2.2-1.1-9.9 5-11.8-5.9 9.9-5-2.2-1.1-9.9 5-11.8-5.9 9.9-5-2.2-1.1-9.9 5-11.8-5.9 9.9-5-2.2-1.1-9.9 5-28.3-14.1 9.9-5-2.2-1.1-9.9 5-11.8-5.9 9.9-5-2.2-1.1-9.9 5-11.8-5.9 9.9-5-2.2-1.1-9.9 5-11.8-5.9 9.9-5-2.2-1.1-9.9 5-11.8-5.9 9.9-5-2.2-1.1-9.9 5-12.5-6.3-2.2 1.1 12.5 6.2-11.8 5.9-12.5-6.2-2.2 1.1 12.5 6.2-11.8 5.9-12.5-6.2-2.2 1.1 12.5 6.2-28.3 14.2-12.5-6.2-2.2 1.1 12.5 6.2-11.8 5.9-12.5-6.2-2.2 1.1 12.5 6.2-11.8 5.9-12.5-6.2-2.2 1.1 12.5 6.2-12.4 6.2 2.2 1.1 12.4-6.2 11.8 5.9-12.4 6.2 2.2 1.1 12.4-6.2 11.8 5.9-12.4 6.2 2.2 1.1 12.4-6.2 11.8 5.9-12.4 6.2 2.2 1.1 12.4-6.2 11.8 5.9-12.4 6.2 2.2 1.1 12.4-6.2 28.3 14.1-12.4 6.2 2.2 1.1 12.4-6.2 11.8 5.9-12.4 6.2 2.2 1.1 12.4-6.2 11.8 5.9-12.4 6.2 2.2 1.1 12.4-6.2 11.8 5.9-12.4 6.2 2.2 1.1 12.4-6.2 11.8 5.9-12.4 6.2 2.2 1.1 12.4-6.2 11.9 5.9 2.2-1.1-11.9-5.9 11.8-5.9 11.9 5.9 2.2-1.1-11.9-5.9 11.8-5.9 11.9 5.9 2.2-1.1-11.9-5.9 28.3-14.1 11.9 5.9 2.2-1.1-11.9-5.9 11.8-5.9 11.9 5.9 2.2-1.1-11.9-5.9 11.8-5.9zm-28.1-14-11.8 5.9-11.8-5.9 11.8-5.9zm-112.3-28.1 11.8 5.9-28.3 14.1-11.8-5.9zm-30.5 13-11.8-5.9 28.3-14.1 11.8 5.9zm44.5-6 28.3 14.1-28.3 14.1-28.3-14.1zm30.5 15.2 11.8 5.9-28.3 14.1-11.8-5.9zm14 7 11.8 5.9-28.3 14.1-11.8-5.9zm2.2-1.1 11.8-5.9 11.8 5.9-11.8 5.9zm-2.2-1.1-11.8-5.9 11.8-5.9 11.8 5.9zm-14-7-28.3-14.1 11.8-5.9 28.3 14.1zm-30.5-15.3-11.8-5.9 11.8-5.9 11.8 5.9zm-14-7-11.8-5.9 11.8-5.9 11.8 5.9zm-14-7-11.8-5.9 11.8-5.9 11.8 5.9zm-2.2 1.2-28.3 14.1-11.8-5.9 28.3-14.1zm-30.5 15.2-11.8 5.9-11.8-5.9 11.8-5.9zm2.2 1.1 11.8 5.9-11.8 5.9-11.8-5.9zm14 7 11.8 5.9-11.8 5.9-11.8-5.9zm14 7 28.3 14.1-11.8 5.9-28.3-14.1zm30.5 15.3 11.8 5.9-11.8 5.9-11.8-5.9zm14 7 11.8 5.9-11.8 5.9-11.8-5.9zm14 7 11.8 5.9-11.8 5.9-11.8-5.9zm2.2-1.1 28.3-14.1 11.8 5.9-28.3 14.1zm30.5-15.3 11.8-5.9 11.8 5.9-11.8 5.9zm23.6-14-11.8 5.9-11.8-5.9 11.8-5.9zm-14-7-11.8 5.9-11.8-5.9 11.8-5.9zm-14-7-11.8 5.9-28.3-14.1 11.8-5.9zm-30.5-15.2-11.8 5.9-11.8-5.9 11.8-5.9zm-14-7-11.8 5.9-11.8-5.9 11.8-5.9zm-14-7-11.8 5.9-11.8-5.9 11.8-5.9zm-25.8-12.9 11.8 5.9-11.8 5.9-11.8-5.9zm-14 7 11.8 5.9-11.8 5.9-11.8-5.9zm-14 7 11.8 5.9-28.3 14.1-11.8-5.9zm-30.5 15.2 11.8 5.9-11.8 5.9-11.8-5.9zm-25.8 12.9 11.8-5.9 11.8 5.9-11.8 5.9zm14 7 11.8-5.9 11.8 5.9-11.8 5.9zm14 7 11.8-5.9 11.8 5.9-11.8 5.9zm14 7 11.8-5.9 11.8 5.9-11.8 5.9zm14 7 11.8-5.9 28.3 14.1-11.8 5.9zm30.5 15.3 11.8-5.9 11.8 5.9-11.8 5.9zm14 7 11.8-5.9 11.8 5.9-11.8 5.9zm14 7 11.8-5.9 11.8 5.9-11.8 5.9zm25.8 12.8-11.8-5.9 11.8-5.9 11.8 5.9zm14-7-11.8-5.9 11.8-5.9 11.8 5.9zm14-7-11.8-5.9 28.3-14.1 11.8 5.9zm30.5-15.2-11.8-5.9 11.8-5.9 11.8 5.9zm14-7-11.8-5.9 11.8-5.9 11.8 5.9z" fill="#e5e5e5" opacity=".5"/><path d="m266.2 135.9-81.7-40.9 52.8-26.4-4.5-2.2-52.8 26.4-82.8-41.5-4.5 2.3 82.8 41.4-53.8 26.9 4.5 2.2 53.8-26.9 81.7 40.9z" fill="#e5e5e5"/><path d="m342.3 135.1 68.8-34.4c4.8-2.4 10.5-2.4 15.3 0 12.6 6.3 12.6 24.3 0 30.6l-45.9 22.9z" fill="#2d3134"/><path d="m406.4 98.4c-6.3-3.2-12-3.5-16.3-1.6l-41.7 21c-4.5 2-7.4 6.7-7.4 13.5 0 13.1 10.6 29 23.7 35.6 6.5 3.2 12.3 3.6 16.6 1.5 0 0 41.7-20.9 42.6-21.5 3.8-2.3 6.2-6.7 6.2-12.8-.1-13.2-10.7-29.1-23.7-35.7z" fill="#999"/><path d="m381.5 168.2c1.7-.8 41.5-20.8 42.4-21.4 3.8-2.3 6.2-6.7 6.2-12.8 0-5.3-1.7-11-4.6-16.4l-41.7 21c2.9 5.4 4.6 11.1 4.6 16.4-.1 6.4-2.7 11-6.9 13.2z" opacity=".29"/><path d="m388.3 155c0 13.1-10.6 18.4-23.7 11.8-13.1-6.5-23.7-22.5-23.7-35.6s10.6-18.4 23.7-11.8c13.1 6.5 23.7 22.5 23.7 35.6z" opacity=".11"/><path d="m378.3 95.1c-10.6-5.3-20.2-5.9-27.3-2.7l-46 23.1c-7.6 3.4-12.4 11.3-12.4 22.7 0 22 17.8 48.8 39.8 59.8 10.9 5.4 20.7 6 27.9 2.5 0 0 45.9-23 47.5-24 6.4-3.8 10.4-11.3 10.4-21.6-.1-22.1-17.9-48.8-39.9-59.8z" fill="#999"/><path d="m360.7 200.2c2.8-1.4 45.6-22.8 47-23.7 6.4-3.8 10.4-11.3 10.4-21.6 0-8.8-2.9-18.5-7.8-27.5l-46 23.1c4.9 9.1 7.8 18.7 7.8 27.5 0 10.8-4.3 18.5-11.4 22.2z" opacity=".29"/><path d="m372.1 177.9c0 22-17.8 30.9-39.8 19.9s-39.8-37.8-39.8-59.8 17.8-30.9 39.8-19.9c22 11.1 39.8 37.8 39.8 59.8z" opacity=".11"/><path d="m331.5 125.6c-8.8-4.4-16.8-5-22.8-2.3l-58.4 29.4c-6.4 2.9-10.4 9.4-10.4 18.9 0 18.3 14.8 40.6 33.1 49.8 9 4.5 17.2 5 23.2 2.1 0 0 58.3-29.3 59.7-30.1 5.3-3.2 8.6-9.4 8.6-18 .1-18.4-14.7-40.7-33-49.8z" fill="#2d3134"/><path d="m296.7 223.2c2.4-1.2 58.1-29.2 59.3-29.9 5.3-3.2 8.6-9.4 8.6-18 0-7.4-2.4-15.4-6.5-22.9l-58.4 29.4c4.1 7.5 6.5 15.5 6.5 22.9 0 9.1-3.6 15.5-9.5 18.5z" opacity=".29"/><path d="m306.2 204.7c0 18.3-14.8 25.8-33.1 16.6s-33.1-31.5-33.1-49.8 14.8-25.8 33.1-16.6 33.1 31.5 33.1 49.8z" opacity=".06"/><path d="m298.8 135c-10.6-5.3-20.2-5.9-27.3-2.7l-54 27.1c-7.6 3.4-12.4 11.3-12.4 22.7 0 22 17.8 48.8 39.8 59.8 10.9 5.4 20.7 6 27.9 2.5 0 0 54-27 55.6-28 6.4-3.8 10.4-11.3 10.4-21.6-.2-22-18-48.8-40-59.8z" fill="#999"/><path d="m273.1 244.1c2.8-1.4 53.6-26.9 55.1-27.8 6.4-3.8 10.4-11.3 10.4-21.6 0-8.8-2.9-18.5-7.8-27.5l-54 27.1c4.9 9.1 7.8 18.7 7.8 27.5 0 11-4.4 18.7-11.5 22.3z" opacity=".29"/><path d="m284.6 221.9c0 22-17.8 30.9-39.8 19.9s-39.8-37.8-39.8-59.8 17.8-30.9 39.8-19.9 39.8 37.8 39.8 59.8z" opacity=".11"/><path d="m240.7 173.8c-8.1-4.1-15.4-4.5-20.9-2.1l-6 3c-5.8 2.6-9.5 8.6-9.5 17.3 0 16.8 13.6 37.3 30.4 45.7 8.3 4.2 15.8 4.6 21.3 1.9 0 0 5.9-3 7.2-3.7 4.9-2.9 7.9-8.6 7.9-16.5 0-16.7-13.6-37.2-30.4-45.6z" fill="#2d3134"/><path d="m256.4 239.5c2.2-1.1 5.7-2.8 6.8-3.5 4.9-2.9 7.9-8.6 7.9-16.5 0-6.8-2.2-14.1-5.9-21l-6 3c3.7 6.9 5.9 14.3 5.9 21 0 8.4-3.3 14.2-8.7 17z" opacity=".29"/><path d="m265.1 222.5c0 16.8-13.6 23.6-30.4 15.2s-30.4-28.9-30.4-45.7 13.6-23.6 30.4-15.2c16.8 8.5 30.4 28.9 30.4 45.7z" opacity=".11"/><path d="m320 197v5l10 5 6-3v-5l-10-5z" fill="#e5e5e5"/><path d="m330 207-10-5v-5l10 5z" opacity=".11"/><path d="m330 202v5l6-3v-5z" opacity=".29"/><path d="m378 168v5l10 5 6-3v-5l-10-5z" fill="#e5e5e5"/><path d="m388 178-10-5v-5l10 5z" opacity=".11"/><path d="m388 173v5l6-3v-5z" opacity=".29"/><path d="m232.5 184.7c-6.6-3.3-12.5-3.7-16.9-1.7l-31.6 40.3c-1.4.6-2.3 2.1-2.3 4.2 0 4.1 3.3 9.1 7.4 11.1 2 1 3.8 1.1 5.2.5 0 0 55.4-3.4 56.4-4 4-2.4 6.4-7 6.4-13.3 0-13.7-11-30.2-24.6-37.1z" fill="#2d3134"/><path d="m194.3 239.1c.5-.3 55.4-3.4 56.3-4 4-2.4 6.4-7 6.4-13.3 0-5.5-1.8-11.4-4.8-17l-57.2 25c.9 1.7 1.4 3.5 1.4 5.1.1 2.1-.8 3.5-2.1 4.2z" opacity=".29"/><path d="m196.5 234.9c0 4.1-3.3 5.7-7.4 3.7s-7.4-7-7.4-11.1 3.3-5.7 7.4-3.7c4 2.1 7.4 7 7.4 11.1z" opacity=".11"/><path d="m131.8 200.8c23.3-19.2 59.4-13.8 80.6 12s19.6 62.3-3.7 81.4" fill="#e5e5e5"/><path d="m217.9 270.8c0 26.1-21.1 36.7-47.2 23.7-26.1-13.1-47.2-44.9-47.2-71s21.1-36.7 47.2-23.7c26 13.1 47.2 44.9 47.2 71z" fill="#e5e5e5"/><path d="m212.4 212.8c-19.9-24.2-52.9-30.4-76.2-15.3 8.6-4.9 20.8-4.5 34.4 2.3 26.1 13.1 47.2 44.9 47.2 71 0 10.4-3.4 18.4-9.1 23.4 23.3-19.2 24.9-55.6 3.7-81.4z" opacity=".2"/><path d="m151.9 265.6-1.2-1-13.7 7.2 1.2 1z" fill="#999"/><path d="m192.8 281.8-22.5-20.8c0-.3.1-.6.1-.9 0-1.8-.8-3.9-2.1-5.6l18.1-23.3-.9-.1-18.7 21.7c-.7-.7-1.5-1.2-2.3-1.6-1.2-.6-2.3-.8-3.2-.7l-19.4-28.3-1.2.4 18.5 29.1c-.4.6-.7 1.4-.7 2.4 0 1.4.5 3 1.3 4.4l-9.2 6.1.7 1 9.7-5.2c.9 1.1 2.1 2 3.3 2.6 2 1 3.8.9 4.9-.1l22.4 19.1z" opacity=".1"/><path d="m142.6 262.2c-1.7-.9-3.3-1-4.5-.4l-11.5 5.8c-1.3.6-2 1.8-2 3.7 0 3.6 2.9 8 6.5 9.8 1.8.9 3.4 1 4.6.4 0 0 11.5-5.8 11.7-5.9 1.1-.6 1.7-1.8 1.7-3.5 0-3.7-2.9-8.1-6.5-9.9z" fill="#999"/><path d="m135.7 281.4c.5-.2 11.4-5.7 11.7-5.9 1.1-.6 1.7-1.8 1.7-3.5 0-1.4-.5-3-1.3-4.5l-11.5 5.8c.8 1.5 1.3 3.1 1.3 4.5 0 1.7-.7 3-1.9 3.6z" opacity=".29"/><path d="m137.6 277.7c0 3.6-2.9 5.1-6.5 3.3s-6.5-6.2-6.5-9.8 2.9-5.1 6.5-3.3c3.6 1.9 6.5 6.2 6.5 9.8z" opacity=".11"/><path d="m143.9 274.2 48.9 7.3.3 1.2-53.6-5.4-.3-1.3z" fill="#999"/><path d="m139.2 276 4.7-1.8 48.9 7.3z" opacity=".2"/><path d="m140 267.8 46.8-36.6-1.1-.6-51.1 39.5 1.1.6z" fill="#999"/><path d="m135.7 270.7 4.3-2.9 46.8-36.6z" opacity=".2"/><path d="m134.2 265.1 7.8-43-1.2-.7-10.2 44.5 1.2.6z" fill="#999"/><path d="m131.8 266.5 2.4-1.4 7.8-43z" opacity=".2"/><path d="m302 216v5l178 89 120-60v-5l-178-89z" fill="#e5e5e5"/><path d="m310.9 216.5 111-55.6 169.1 84.6-111.1 55.5z" fill="#339"/><path d="m480 310-178-89v-5l178 89z" opacity=".11"/><path d="m480 305v5l120-60v-5z" opacity=".29"/><g fill="#e5e5e5"><path d="m578.9 251.5 2.2-1.1-11.9-5.9 9.9-5-2.2-1.1-9.9 5-11.8-5.9 9.9-5-2.2-1.1-9.9 5-11.8-5.9 9.9-5-2.2-1.1-9.9 5-11.8-5.9 9.9-5-2.2-1.1-9.9 5-11.8-5.9 9.9-5-2.2-1.1-9.9 5-28.3-14.1 9.9-5-2.2-1.1-9.9 5-11.8-5.9 9.9-5-2.2-1.1-9.9 5-11.8-5.9 9.9-5-2.2-1.1-9.9 5-11.8-5.9 9.9-5-2.2-1.1-9.9 5-11.8-5.9 9.9-5-2.2-1.1-9.9 5-12.5-6.2-2.2 1.1 12.5 6.2-11.8 5.9-12.5-6.2-2.2 1.1 12.5 6.2-11.8 5.9-12.5-6.2-2.2 1.1 12.5 6.2-28.3 14.1-12.5-6.2-2.2 1.1 12.5 6.2-11.8 5.9-12.5-6.2-2.2 1.1 12.5 6.2-11.8 5.9-12.5-6.2-2.2 1.1 12.5 6.2-12.4 6.2 2.2 1.1 12.4-6.2 11.8 5.9-12.4 6.2 2.2 1.1 12.4-6.2 11.8 5.9-12.4 6.2 2.2 1.1 12.4-6.2 11.8 5.9-12.4 6.2 2.2 1.1 12.4-6.2 11.8 5.9-12.4 6.2 2.2 1.1 12.4-6.2 28.3 14.1-12.4 6.2 2.2 1.1 12.4-6.2 11.8 5.9-12.4 6.2 2.2 1.1 12.4-6.2 11.8 5.9-12.4 6.2 2.2 1.1 12.4-6.2 11.8 5.9-12.4 6.2 2.2 1.1 12.4-6.2 11.8 5.9-12.4 6.2 2.2 1.1 12.4-6.2 11.9 5.9 2.2-1.1-11.9-5.9 11.8-5.9 11.9 5.9 2.2-1.1-11.9-5.9 11.8-5.9 11.9 5.9 2.2-1.1-11.9-5.9 28.3-14.1 11.9 5.9 2.2-1.1-11.9-5.9 11.8-5.9 11.9 5.9 2.2-1.1-11.9-5.9 11.8-5.9zm-28.1-14-11.8 5.9-11.8-5.9 11.8-5.9zm-112.3-28.1 11.8 5.9-28.3 14.1-11.8-5.9zm-30.5 13-11.8-5.9 28.3-14.1 11.8 5.9zm44.5-6 28.3 14.1-28.3 14.1-28.3-14.1zm30.5 15.2 11.8 5.9-28.3 14.1-11.8-5.9zm14 7 11.8 5.9-28.3 14.1-11.8-5.9zm2.2-1.1 11.8-5.9 11.8 5.9-11.8 5.9zm-2.2-1.1-11.8-5.9 11.8-5.9 11.8 5.9zm-14-7-28.3-14.1 11.8-5.9 28.3 14.1zm-30.5-15.3-11.8-5.9 11.8-5.9 11.8 5.9zm-14-7-11.8-5.9 11.8-5.9 11.8 5.9zm-14-7-11.8-5.9 11.8-5.9 11.8 5.9zm-2.2 1.2-28.3 14.1-11.8-5.9 28.3-14.1zm-30.5 15.2-11.8 5.9-11.8-5.9 11.8-5.9zm2.2 1.1 11.8 5.9-11.8 5.9-11.8-5.9zm14 7 11.8 5.9-11.8 5.9-11.8-5.9zm14 7 28.3 14.1-11.8 5.9-28.3-14.1zm30.5 15.3 11.8 5.9-11.8 5.9-11.8-5.9zm14 7 11.8 5.9-11.8 5.9-11.8-5.9zm14 7 11.8 5.9-11.8 5.9-11.8-5.9zm2.2-1.1 28.3-14.1 11.8 5.9-28.3 14.1zm30.5-15.3 11.8-5.9 11.8 5.9-11.8 5.9zm23.6-14-11.8 5.9-11.8-5.9 11.8-5.9zm-14-7-11.8 5.9-11.8-5.9 11.8-5.9zm-14-7-11.8 5.9-28.3-14.1 11.8-5.9zm-30.5-15.2-11.8 5.9-11.8-5.9 11.8-5.9zm-14-7-11.8 5.9-11.8-5.9 11.8-5.9zm-14-7-11.8 5.9-11.8-5.9 11.8-5.9zm-25.8-12.9 11.8 5.9-11.8 5.9-11.8-5.9zm-14 7 11.8 5.9-11.8 5.9-11.8-5.9zm-14 7 11.8 5.9-28.3 14.1-11.8-5.9zm-30.5 15.2 11.8 5.9-11.8 5.9-11.8-5.9zm-25.8 12.9 11.8-5.9 11.8 5.9-11.8 5.9zm14 7 11.8-5.9 11.8 5.9-11.8 5.9zm14 7 11.8-5.9 11.8 5.9-11.8 5.9zm14 7 11.8-5.9 11.8 5.9-11.8 5.9zm14 7 11.8-5.9 28.3 14.1-11.8 5.9zm30.5 15.3 11.8-5.9 11.8 5.9-11.8 5.9zm14 7 11.8-5.9 11.8 5.9-11.8 5.9zm14 7 11.8-5.9 11.8 5.9-11.8 5.9zm25.8 12.8-11.8-5.9 11.8-5.9 11.8 5.9zm14-7-11.8-5.9 11.8-5.9 11.8 5.9zm14-7-11.8-5.9 28.3-14.1 11.8 5.9zm30.5-15.2-11.8-5.9 11.8-5.9 11.8 5.9zm14-7-11.8-5.9 11.8-5.9 11.8 5.9z" opacity=".5"/><path d="m538.2 271.9-81.7-40.9 52.8-26.4-4.5-2.2-52.8 26.4-82.8-41.5-4.5 2.3 82.8 41.4-53.8 26.9 4.5 2.2 53.8-26.9 81.7 40.9z"/></g></svg>