<svg xmlns:xlink="http://www.w3.org/1999/xlink"  enable-background="new 0 0 80 80" height="80" viewBox="0 0 80 80" width="80" xmlns="http://www.w3.org/2000/svg"><path d="m16.9 4h25.4c3.5 0 6.6 2 8.1 5.1l18.9 39.3c1.2 2.6-.6 5.6-3.5 5.6h-25.4c-3.5 0-6.6-2-8.1-5.1l-18.9-39.3c-1.2-2.6.7-5.6 3.5-5.6z" fill="#e5e5e5"/><path d="m16.5 4.6h25.4c3.5 0 6.6 2 8.1 5.1l18.9 39.3c.6 1.3.5 2.7-.2 3.8 1-1.1 1.4-2.8.7-4.3l-18.9-39.4c-1.5-3.1-4.7-5.1-8.1-5.1h-25.5c-1.4 0-2.6.8-3.3 1.8.7-.7 1.7-1.2 2.9-1.2z" opacity=".2"/><path d="m39.5 62.2v3.7l-2.5 1.2-18.3-5.5v-1.2l1.3-.6z" fill="#656565"/><path d="m37 67.1 2.5-1.2v-3.7l-2.5 1.2z" opacity=".29"/><path d="m37 63.4v3.7l-18.3-5.5v-1.2z" opacity=".11"/><path d="m15 78.1v1.2l1.2.7 23.3-11.7v-3.6l-2.5-1.3z" fill="#656565"/><path d="m16.2 80-1.2-.7v-1.2l1.2.6z" opacity=".11"/><path d="m16.2 78.7v1.3l23.3-11.7v-3.6z" opacity=".29"/><path d="m39.5 62.2v3.7l2.5 1.2 18.3-5.5v-1.2l-1.3-.6z" fill="#656565"/><path d="m42 67.1-2.5-1.2v-3.7l2.5 1.2z" opacity=".11"/><path d="m42 63.4v3.7l18.3-5.5v-1.2z" opacity=".29"/><path d="m64 78.1v1.2l-1.2.7-23.3-11.7v-3.6l2.5-1.3z" fill="#656565"/><path d="m62.8 80 1.2-.7v-1.2l-1.2.6z" opacity=".29"/><path d="m62.8 78.7v1.3l-23.3-11.7v-3.6z" opacity=".11"/><path d="m43.8 41c-1.2.6-2.7.1-3.3-1.2l-3.9-8.1c-.6-1.2-.1-2.7 1.2-3.3 1.2-.6 2.7-.1 3.3 1.2l3.9 8.1c.6 1.2 0 2.7-1.2 3.3z" opacity=".3"/><path d="m41 29.5c-.6-1.2-2.1-1.8-3.3-1.2-.1.1-.4.3-.7.5 0 .2-.1.3-.1.5v34c0 .6 1.1 1.1 2.5 1.1s2.6-.4 2.6-1v-31.9z" fill="#656565"/><path d="m41 29.5c-.6-1.2-2.1-1.8-3.3-1.2-.1.1-.4.3-.7.5 0 .2-.1.3-.1.5v34c0 .6 1.1 1.1 2.5 1.1s2.6-.4 2.6-1v-31.9z" opacity=".2"/></svg>