<svg xmlns:xlink="http://www.w3.org/1999/xlink"  enable-background="new 0 0 80 80" height="80" viewBox="0 0 80 80" width="80" xmlns="http://www.w3.org/2000/svg"><path d="m39.5 62.2v3.7l-2.5 1.2-18.3-5.5v-1.2l1.3-.6z" fill="#656565"/><path d="m37 67.1 2.5-1.2v-3.7l-2.5 1.2z" opacity=".29"/><path d="m37 63.4v3.7l-18.3-5.5v-1.2z" opacity=".11"/><path d="m15 78.1v1.2l1.2.7 23.3-11.7v-3.6l-2.5-1.3z" fill="#656565"/><path d="m16.2 80-1.2-.7v-1.2l1.2.6z" opacity=".11"/><path d="m16.2 78.7v1.3l23.3-11.7v-3.6z" opacity=".29"/><path d="m39.5 62.2v3.7l2.5 1.2 18.3-5.5v-1.2l-1.3-.6z" fill="#656565"/><path d="m42 67.1-2.5-1.2v-3.7l2.5 1.2z" opacity=".11"/><path d="m42 63.4v3.7l18.3-5.5v-1.2z" opacity=".29"/><path d="m64 78.1v1.2l-1.2.7-23.3-11.7v-3.6l2.5-1.3z" fill="#656565"/><path d="m62.8 80 1.2-.7v-1.2l-1.2.6z" opacity=".29"/><path d="m62.8 78.7v1.3l-23.3-11.7v-3.6z" opacity=".11"/><path d="m39.5 30c1.4 0 2.5 1.1 2.5 2.5v30.9c0 .6-1.1 1.1-2.5 1.1s-2.5-.5-2.5-1.1v-30.9c0-1.4 1.1-2.5 2.5-2.5z" fill="#656565"/><path d="m39.5 30c1.4 0 2.5 1.1 2.5 2.5v30.9c0 .6-1.1 1.1-2.5 1.1s-2.5-.5-2.5-1.1v-30.9c0-1.4 1.1-2.5 2.5-2.5z" opacity=".2"/><path d="m48.2 55.9 21.6-10.8c2.2-1.1 2.9-3.9 1.6-5.9l-24.6-37c-1.4-2-4-2.7-6.2-1.6l-21.6 10.7c-2.2 1.1-2.9 3.9-1.6 5.9l24.6 37c1.4 2 4.1 2.8 6.2 1.7z" fill="#e5e5e5"/><path d="m70.2 44.1-21.6 10.8c-2.2 1.1-4.8.4-6.2-1.6l-24.6-37c-.6-1-.8-2.1-.6-3.1-.6 1.3-.6 2.8.3 4.1l24.6 37c1.4 2 4 2.7 6.2 1.6l21.6-10.8c1.2-.6 1.9-1.6 2.2-2.8-.5.7-1.1 1.3-1.9 1.8z" opacity=".2"/></svg>