<svg xmlns:xlink="http://www.w3.org/1999/xlink"  enable-background="new 0 0 240 320" height="320" viewBox="0 0 240 320" width="240" xmlns="http://www.w3.org/2000/svg"><path d="m0 270v10l80 40 80-40v-10l-80-40z" fill="#e5e5e5"/><path d="m80 320-80-40v-10l80 40z" opacity=".11"/><path d="m80 310v10l80-40v-10z" opacity=".29"/><path d="m72 170-32 100 40 20 40-20-32-100-8-4z" fill="#e5e5e5"/><path d="m80 290-40-20 32-100 8 4z" opacity=".11"/><path d="m80 174v116l40-20-32-100z" opacity=".29"/><ellipse cx="112.5" cy="140.4" fill="#e5e5e5" rx="97.9" ry="123.6" transform="matrix(.7063 -.7079 .7079 .7063 -66.3316 120.8999)"/><ellipse cx="112.5" cy="140.4" opacity=".2" rx="97.9" ry="123.6" transform="matrix(.7063 -.7079 .7079 .7063 -66.3316 120.8999)"/><ellipse cx="115.1" cy="138" fill="#e5e5e5" rx="97.3" ry="122.9" transform="matrix(.7063 -.7079 .7079 .7063 -63.8851 121.9904)"/><path d="m196 163-74.2-20.9c-.4-1.4-1.2-2.8-2.4-4-.8-.8-1.8-1.5-2.8-1.9l-6.6-74.3-1.5 1.1 4.5 72.5c-1.3.1-2.5.6-3.4 1.5-.4.4-.8 1-1 1.5l-82.2-22.5.2 2.1 81.6 24.1c.3 1.6 1.1 3.3 2.5 4.6.7.7 1.5 1.3 2.3 1.7l-3.7 68.1 1.6.5 5.7-67.7c1.5 0 2.9-.5 3.9-1.5.6-.6 1-1.3 1.2-2.1l72.9 17.7z" opacity=".15"/><ellipse cx="100.2" cy="153" fill="#fff" opacity=".15" rx="66.4" ry="83.8" transform="matrix(.7063 -.7079 .7079 .7063 -78.8647 115.8419)"/><path d="m172 97 22.5 66.7 1.8-.6-18.1-71.7-1.8.6z" fill="#999"/><path d="m176.4 92-4.4 5 22.5 66.7z" opacity=".2"/><path d="m160.8 85.1-52.6-22 1.6-1.4 57 18.8-.9 1.6z" fill="#999"/><path d="m165.9 82.1-5.1 3-52.6-22z" opacity=".2"/><path d="m176.4 98.5c3.7-3.7 2.9-10.4-1.8-15-4.3-4.3-10.4-5.2-14.1-2.5 0 0-9.2 7.6-9.3 7.7-3.7 3.7-2.9 10.4 1.8 15 4.2 4.1 10 5.2 13.8 2.7-.1.1 9.3-7.6 9.6-7.9z" fill="#999"/><path d="m161.4 96.8c-4.6-4.6-5.4-11.3-1.8-15 .3-.3.6-.5.9-.7 0 0-9.2 7.6-9.3 7.7-3.7 3.7-2.9 10.4 1.8 15 4.2 4.1 10 5.2 13.8 2.7l8.7-7.2c-3.8 2.7-9.9 1.7-14.1-2.5z" opacity=".2"/><path d="m177.1 91.4c2.2-2.2 1.7-6.3-1.1-9.1-2.6-2.6-6.3-3.2-8.6-1.5 0 0-3.3 2.7-3.3 2.8-2.2 2.2-1.7 6.3 1.1 9.1 2.5 2.5 6.1 3.1 8.4 1.6 0 0 3.3-2.7 3.5-2.9z" fill="#656565"/><path d="m168 90.4c-2.8-2.8-3.3-6.9-1.1-9.1.2-.2.3-.3.5-.4 0 0-3.3 2.7-3.3 2.8-2.2 2.2-1.7 6.3 1.1 9.1 2.5 2.5 6.1 3.1 8.4 1.6l3-2.5c-2.3 1.7-6 1.1-8.6-1.5z" opacity=".2"/><path d="m156.4 106.2-47.3 110.3 2.1 1.2 54.9-117.6-2.2-1.2z" fill="#999"/><path d="m163.9 98.9-7.5 7.3-47.3 110.3z" opacity=".2"/><path d="m149.1 97.1-122.6 21.2-.6-2.4 131.4-26.7.6 2.3z" fill="#999"/><path d="m157.9 91.5-8.8 5.6-122.6 21.2z" opacity=".2"/></svg>