<svg xmlns:xlink="http://www.w3.org/1999/xlink"  enable-background="new 0 0 640 320" height="320" viewBox="0 0 640 320" width="640" xmlns="http://www.w3.org/2000/svg"><path d="m507.3 56.7-3.7 36.4h.6l4.8-37.6-.6-.1z" fill="#999"/><path d="m508.4 55.4-1.1 1.3-3.7 36.4z" opacity=".2"/><path d="m501.9 49.5-36.1-5.5.1-.5 37.6 4.7-.1.6z" fill="#999"/><path d="m503.4 48.8-1.5.7-36.1-5.5z" opacity=".2"/><path d="m507.3 51c-1.6-2.1-3.7-3.3-4.5-2.6l-4.2 3.3 6 7.7 4.2-3.3c.8-.7.1-3-1.5-5.1z" fill="#999"/><path d="m507.3 51c-1.6-2.1-3.7-3.3-4.5-2.6l-4.2 3.3c.9-.7 2.9.5 4.5 2.6s2.3 4.4 1.4 5l4.2-3.3c.9-.6.2-2.9-1.4-5z" opacity=".2"/><ellipse cx="501.5" cy="55.4" fill="#999" rx="2" ry="4.9" transform="matrix(.7899 -.6133 .6133 .7899 71.39 319.2223)"/><path d="m505.6 56.4-20.1 43.2.9.5 22.6-45.1-.3-1.4z" fill="#999"/><path d="m508.7 53.6-3.1 2.8-20.1 43.2z" opacity=".2"/><path d="m501.5 51.2-46.8 8.7-.3-1 49.2-10.6 1.3.6z" fill="#999"/><path d="m504.9 48.9-3.4 2.3-46.8 8.7z" opacity=".2"/><path d="m514.6 103.7c0-25.3-20.5-56.1-45.7-68.7-15.2-7.6-28.6-6.9-36.9.3-22.5 18.6-24.1 53.8-3.5 78.8 19.3 23.4 51.2 29.5 73.7 14.8 1.5-.9 2.9-1.9 4.2-3.1 0 0 .1-.1.1-.1 5.2-4.8 8.1-12.3 8.1-22z" fill="#e5e5e5"/><ellipse cx="452.5" cy="93.3" fill="#fff" opacity=".15" rx="28.8" ry="44.6" transform="matrix(.7899 -.6133 .6133 .7899 37.8885 297.0973)"/><path d="m440.1 89.3c-3.5-1.7-6.6-1.9-8.9-.9l-2.6 1.3c-2.5 1.1-4.1 3.7-4.1 7.4 0 7.2 5.8 15.9 13 19.5 3.5 1.8 6.8 2 9.1.8 0 0 2.5-1.3 3.1-1.6 2.1-1.3 3.4-3.7 3.4-7 0-7.2-5.8-15.9-13-19.5z" fill="#2d3134"/><path d="m446.8 117.3c.9-.5 2.4-1.2 2.9-1.5 2.1-1.3 3.4-3.7 3.4-7 0-2.9-1-6-2.5-9l-2.6 1.3c1.6 3 2.5 6.1 2.5 9 .1 3.5-1.4 6-3.7 7.2z" opacity=".29"/><path d="m450.6 110.1c0 7.2-5.8 10.1-13 6.5s-13-12.3-13-19.5 5.8-10.1 13-6.5 13 12.3 13 19.5z" opacity=".11"/><path d="m436.9 98.9c-.9-.5-3-.7-4.5-.6l-50 .8c-.1 0-.5 0-.5 0-2.3.1-4.4.6-6.2 1.6-.1 0-.1.1-.1.1-3.9 2.3-6.3 6.7-6.3 13 0 13.2 10.7 29.2 23.8 35.8 6.5 3.2 12.3 3.6 16.6 1.5h.1c1.7-.8 3.1-2 4.2-3.5l.1-.1s27.4-35.7 27.5-35.9c.8-1.2 1.7-2.2 1.7-3.4-.2-3.4-2.9-7.5-6.4-9.3z" fill="#2d3134"/><path d="m443.1 107.5c-.1-1.2-.6-2.4-1.2-3.6l-29.7 17.3c2.9 5.4 4.7 11.2 4.7 16.5 0 4.3-1.1 7.7-3.1 10.2.1-.1.1-.2.2-.2l.1-.1s27.4-35.7 27.5-35.9c.2-.3.4-.5.5-.8.6-.9 1.1-1.7 1.1-2.7-.1-.2-.1-.5-.1-.7z" opacity=".29"/><path d="m416.8 137.7c0 13.2-10.7 18.5-23.8 11.9-13.2-6.6-23.8-22.6-23.8-35.8s10.7-18.5 23.8-11.9 23.8 22.6 23.8 35.8z" opacity=".11"/><path d="m30 80v5l178 89 120-60v-5l-178-89z" fill="#e5e5e5"/><path d="m38.9 80.5 111-55.6 169.1 84.6-111.1 55.5z" fill="#339"/><path d="m208 174-178-89v-5l178 89z" opacity=".11"/><path d="m208 169v5l120-60v-5z" opacity=".29"/><path d="m306.9 115.5 2.2-1.1-11.9-5.9 9.9-5-2.2-1.1-9.9 5-11.8-5.9 9.9-5-2.2-1.1-9.9 5-11.8-5.9 9.9-5-2.2-1.1-9.9 5-11.8-5.9 9.9-5-2.2-1.1-9.9 5-11.8-5.9 9.9-5-2.2-1.1-9.9 5-28.3-14.1 9.9-5-2.2-1.1-9.9 5-11.8-5.9 9.9-5-2.2-1.1-9.9 5-11.8-5.9 9.9-5-2.2-1.1-9.9 5-11.8-5.9 9.9-5-2.2-1.1-9.9 5-11.8-5.9 9.9-5-2.2-1.1-9.9 5-12.5-6.3-2.2 1.1 12.5 6.2-11.8 5.9-12.5-6.2-2.2 1.1 12.5 6.2-11.8 5.9-12.5-6.2-2.2 1.1 12.5 6.2-28.3 14.2-12.5-6.2-2.2 1.1 12.5 6.2-11.8 5.9-12.5-6.2-2.2 1.1 12.5 6.2-11.8 5.9-12.5-6.2-2.2 1.1 12.5 6.2-12.4 6.2 2.2 1.1 12.4-6.2 11.8 5.9-12.4 6.2 2.2 1.1 12.4-6.2 11.8 5.9-12.4 6.2 2.2 1.1 12.4-6.2 11.8 5.9-12.4 6.2 2.2 1.1 12.4-6.2 11.8 5.9-12.4 6.2 2.2 1.1 12.4-6.2 28.3 14.1-12.4 6.2 2.2 1.1 12.4-6.2 11.8 5.9-12.4 6.2 2.2 1.1 12.4-6.2 11.8 5.9-12.4 6.2 2.2 1.1 12.4-6.2 11.8 5.9-12.4 6.2 2.2 1.1 12.4-6.2 11.8 5.9-12.4 6.2 2.2 1.1 12.4-6.2 11.9 5.9 2.2-1.1-11.9-5.9 11.8-5.9 11.9 5.9 2.2-1.1-11.9-5.9 11.8-5.9 11.9 5.9 2.2-1.1-11.9-5.9 28.3-14.1 11.9 5.9 2.2-1.1-11.9-5.9 11.8-5.9 11.9 5.9 2.2-1.1-11.9-5.9 11.8-5.9zm-28.1-14-11.8 5.9-11.8-5.9 11.8-5.9zm-112.3-28.1 11.8 5.9-28.3 14.1-11.8-5.9zm-30.5 13-11.8-5.9 28.3-14.1 11.8 5.9zm44.5-6 28.3 14.1-28.3 14.1-28.3-14.1zm30.5 15.2 11.8 5.9-28.3 14.1-11.8-5.9zm14 7 11.8 5.9-28.3 14.1-11.8-5.9zm2.2-1.1 11.8-5.9 11.8 5.9-11.8 5.9zm-2.2-1.1-11.8-5.9 11.8-5.9 11.8 5.9zm-14-7-28.3-14.1 11.8-5.9 28.3 14.1zm-30.5-15.3-11.8-5.9 11.8-5.9 11.8 5.9zm-14-7-11.8-5.9 11.8-5.9 11.8 5.9zm-14-7-11.8-5.9 11.8-5.9 11.8 5.9zm-2.2 1.2-28.3 14.1-11.8-5.9 28.3-14.1zm-30.5 15.2-11.8 5.9-11.8-5.9 11.8-5.9zm2.2 1.1 11.8 5.9-11.8 5.9-11.8-5.9zm14 7 11.8 5.9-11.8 5.9-11.8-5.9zm14 7 28.3 14.1-11.8 5.9-28.3-14.1zm30.5 15.3 11.8 5.9-11.8 5.9-11.8-5.9zm14 7 11.8 5.9-11.8 5.9-11.8-5.9zm14 7 11.8 5.9-11.8 5.9-11.8-5.9zm2.2-1.1 28.3-14.1 11.8 5.9-28.3 14.1zm30.5-15.3 11.8-5.9 11.8 5.9-11.8 5.9zm23.6-14-11.8 5.9-11.8-5.9 11.8-5.9zm-14-7-11.8 5.9-11.8-5.9 11.8-5.9zm-14-7-11.8 5.9-28.3-14.1 11.8-5.9zm-30.5-15.2-11.8 5.9-11.8-5.9 11.8-5.9zm-14-7-11.8 5.9-11.8-5.9 11.8-5.9zm-14-7-11.8 5.9-11.8-5.9 11.8-5.9zm-25.8-12.9 11.8 5.9-11.8 5.9-11.8-5.9zm-14 7 11.8 5.9-11.8 5.9-11.8-5.9zm-14 7 11.8 5.9-28.3 14.1-11.8-5.9zm-30.5 15.2 11.8 5.9-11.8 5.9-11.8-5.9zm-25.8 12.9 11.8-5.9 11.8 5.9-11.8 5.9zm14 7 11.8-5.9 11.8 5.9-11.8 5.9zm14 7 11.8-5.9 11.8 5.9-11.8 5.9zm14 7 11.8-5.9 11.8 5.9-11.8 5.9zm14 7 11.8-5.9 28.3 14.1-11.8 5.9zm30.5 15.3 11.8-5.9 11.8 5.9-11.8 5.9zm14 7 11.8-5.9 11.8 5.9-11.8 5.9zm14 7 11.8-5.9 11.8 5.9-11.8 5.9zm25.8 12.8-11.8-5.9 11.8-5.9 11.8 5.9zm14-7-11.8-5.9 11.8-5.9 11.8 5.9zm14-7-11.8-5.9 28.3-14.1 11.8 5.9zm30.5-15.2-11.8-5.9 11.8-5.9 11.8 5.9zm14-7-11.8-5.9 11.8-5.9 11.8 5.9z" fill="#e5e5e5" opacity=".5"/><path d="m266.2 135.9-81.7-40.9 52.8-26.4-4.5-2.2-52.8 26.4-82.8-41.5-4.5 2.3 82.8 41.4-53.8 26.9 4.5 2.2 53.8-26.9 81.7 40.9z" fill="#e5e5e5"/><path d="m386.2 91c-10.6-5.3-20.2-5.9-27.3-2.7l-54 27.1c-7.6 3.4-12.4 11.3-12.4 22.7 0 22 17.8 48.8 39.8 59.8 10.9 5.4 20.7 6 27.9 2.5 0 0 54-27 55.6-28 6.4-3.8 10.4-11.3 10.4-21.6-.3-22-18.1-48.8-40-59.8z" fill="#999"/><path d="m360.4 200.1c2.8-1.4 53.6-26.9 55.1-27.8 6.4-3.8 10.4-11.3 10.4-21.6 0-8.8-2.9-18.5-7.8-27.5l-54 27.1c4.9 9.1 7.8 18.7 7.8 27.5 0 11-4.4 18.7-11.5 22.3z" opacity=".29"/><path d="m371.9 177.9c0 22-17.8 30.9-39.8 19.9s-39.8-37.8-39.8-59.8 17.8-30.9 39.8-19.9 39.8 37.8 39.8 59.8z" opacity=".11"/><path d="m331.5 125.6c-8.8-4.4-16.8-5-22.8-2.3l-58.4 29.4c-6.4 2.9-10.4 9.4-10.4 18.9 0 18.3 14.8 40.6 33.1 49.8 9 4.5 17.2 5 23.2 2.1 0 0 58.3-29.3 59.7-30.1 5.3-3.2 8.6-9.4 8.6-18 .1-18.4-14.7-40.7-33-49.8z" fill="#2d3134"/><path d="m296.7 223.2c2.4-1.2 58.1-29.2 59.3-29.9 5.3-3.2 8.6-9.4 8.6-18 0-7.4-2.4-15.4-6.5-22.9l-58.4 29.4c4.1 7.5 6.5 15.5 6.5 22.9 0 9.1-3.6 15.5-9.5 18.5z" opacity=".29"/><path d="m306.2 204.7c0 18.3-14.8 25.8-33.1 16.6s-33.1-31.5-33.1-49.8 14.8-25.8 33.1-16.6 33.1 31.5 33.1 49.8z" opacity=".06"/><path d="m298.7 135.1c-10.6-5.3-20.2-5.9-27.3-2.7l-46 23.1c-7.6 3.4-12.4 11.3-12.4 22.7 0 22 17.8 48.8 39.8 59.8 10.9 5.4 20.7 6 27.9 2.5 0 0 45.9-23 47.5-24 6.4-3.8 10.4-11.3 10.4-21.6-.2-22.1-18-48.8-39.9-59.8z" fill="#999"/><path d="m281 240.2c2.8-1.4 45.6-22.8 47-23.7 6.4-3.8 10.4-11.3 10.4-21.6 0-8.8-2.9-18.5-7.8-27.5l-46 23.1c4.9 9.1 7.8 18.7 7.8 27.5.1 10.8-4.3 18.5-11.4 22.2z" opacity=".29"/><path d="m292.5 217.9c0 22-17.8 30.9-39.8 19.9s-39.8-37.8-39.8-59.8 17.8-30.9 39.8-19.9 39.8 37.8 39.8 59.8z" opacity=".11"/><path d="m320 197v5l10 5 6-3v-5l-10-5z" fill="#e5e5e5"/><path d="m330 207-10-5v-5l10 5z" opacity=".11"/><path d="m330 202v5l6-3v-5z" opacity=".29"/><path d="m378 168v5l10 5 6-3v-5l-10-5z" fill="#e5e5e5"/><path d="m388 178-10-5v-5l10 5z" opacity=".11"/><path d="m388 173v5l6-3v-5z" opacity=".29"/><path d="m302 216v5l178 89 120-60v-5l-178-89z" fill="#e5e5e5"/><path d="m310.9 216.5 111-55.6 169.1 84.6-111.1 55.5z" fill="#339"/><path d="m480 310-178-89v-5l178 89z" opacity=".11"/><path d="m480 305v5l120-60v-5z" opacity=".29"/><path d="m578.9 251.5 2.2-1.1-11.9-5.9 9.9-5-2.2-1.1-9.9 5-11.8-5.9 9.9-5-2.2-1.1-9.9 5-11.8-5.9 9.9-5-2.2-1.1-9.9 5-11.8-5.9 9.9-5-2.2-1.1-9.9 5-11.8-5.9 9.9-5-2.2-1.1-9.9 5-28.3-14.1 9.9-5-2.2-1.1-9.9 5-11.8-5.9 9.9-5-2.2-1.1-9.9 5-11.8-5.9 9.9-5-2.2-1.1-9.9 5-11.8-5.9 9.9-5-2.2-1.1-9.9 5-11.8-5.9 9.9-5-2.2-1.1-9.9 5-12.5-6.2-2.2 1.1 12.5 6.2-11.8 5.9-12.5-6.2-2.2 1.1 12.5 6.2-11.8 5.9-12.5-6.2-2.2 1.1 12.5 6.2-28.3 14.1-12.5-6.2-2.2 1.1 12.5 6.2-11.8 5.9-12.5-6.2-2.2 1.1 12.5 6.2-11.8 5.9-12.5-6.2-2.2 1.1 12.5 6.2-12.4 6.2 2.2 1.1 12.4-6.2 11.8 5.9-12.4 6.2 2.2 1.1 12.4-6.2 11.8 5.9-12.4 6.2 2.2 1.1 12.4-6.2 11.8 5.9-12.4 6.2 2.2 1.1 12.4-6.2 11.8 5.9-12.4 6.2 2.2 1.1 12.4-6.2 28.3 14.1-12.4 6.2 2.2 1.1 12.4-6.2 11.8 5.9-12.4 6.2 2.2 1.1 12.4-6.2 11.8 5.9-12.4 6.2 2.2 1.1 12.4-6.2 11.8 5.9-12.4 6.2 2.2 1.1 12.4-6.2 11.8 5.9-12.4 6.2 2.2 1.1 12.4-6.2 11.9 5.9 2.2-1.1-11.9-5.9 11.8-5.9 11.9 5.9 2.2-1.1-11.9-5.9 11.8-5.9 11.9 5.9 2.2-1.1-11.9-5.9 28.3-14.1 11.9 5.9 2.2-1.1-11.9-5.9 11.8-5.9 11.9 5.9 2.2-1.1-11.9-5.9 11.8-5.9zm-28.1-14-11.8 5.9-11.8-5.9 11.8-5.9zm-112.3-28.1 11.8 5.9-28.3 14.1-11.8-5.9zm-30.5 13-11.8-5.9 28.3-14.1 11.8 5.9zm44.5-6 28.3 14.1-28.3 14.1-28.3-14.1zm30.5 15.2 11.8 5.9-28.3 14.1-11.8-5.9zm14 7 11.8 5.9-28.3 14.1-11.8-5.9zm2.2-1.1 11.8-5.9 11.8 5.9-11.8 5.9zm-2.2-1.1-11.8-5.9 11.8-5.9 11.8 5.9zm-14-7-28.3-14.1 11.8-5.9 28.3 14.1zm-30.5-15.3-11.8-5.9 11.8-5.9 11.8 5.9zm-14-7-11.8-5.9 11.8-5.9 11.8 5.9zm-14-7-11.8-5.9 11.8-5.9 11.8 5.9zm-2.2 1.2-28.3 14.1-11.8-5.9 28.3-14.1zm-30.5 15.2-11.8 5.9-11.8-5.9 11.8-5.9zm2.2 1.1 11.8 5.9-11.8 5.9-11.8-5.9zm14 7 11.8 5.9-11.8 5.9-11.8-5.9zm14 7 28.3 14.1-11.8 5.9-28.3-14.1zm30.5 15.3 11.8 5.9-11.8 5.9-11.8-5.9zm14 7 11.8 5.9-11.8 5.9-11.8-5.9zm14 7 11.8 5.9-11.8 5.9-11.8-5.9zm2.2-1.1 28.3-14.1 11.8 5.9-28.3 14.1zm30.5-15.3 11.8-5.9 11.8 5.9-11.8 5.9zm23.6-14-11.8 5.9-11.8-5.9 11.8-5.9zm-14-7-11.8 5.9-11.8-5.9 11.8-5.9zm-14-7-11.8 5.9-28.3-14.1 11.8-5.9zm-30.5-15.2-11.8 5.9-11.8-5.9 11.8-5.9zm-14-7-11.8 5.9-11.8-5.9 11.8-5.9zm-14-7-11.8 5.9-11.8-5.9 11.8-5.9zm-25.8-12.9 11.8 5.9-11.8 5.9-11.8-5.9zm-14 7 11.8 5.9-11.8 5.9-11.8-5.9zm-14 7 11.8 5.9-28.3 14.1-11.8-5.9zm-30.5 15.2 11.8 5.9-11.8 5.9-11.8-5.9zm-25.8 12.9 11.8-5.9 11.8 5.9-11.8 5.9zm14 7 11.8-5.9 11.8 5.9-11.8 5.9zm14 7 11.8-5.9 11.8 5.9-11.8 5.9zm14 7 11.8-5.9 11.8 5.9-11.8 5.9zm14 7 11.8-5.9 28.3 14.1-11.8 5.9zm30.5 15.3 11.8-5.9 11.8 5.9-11.8 5.9zm14 7 11.8-5.9 11.8 5.9-11.8 5.9zm14 7 11.8-5.9 11.8 5.9-11.8 5.9zm25.8 12.8-11.8-5.9 11.8-5.9 11.8 5.9zm14-7-11.8-5.9 11.8-5.9 11.8 5.9zm14-7-11.8-5.9 28.3-14.1 11.8 5.9zm30.5-15.2-11.8-5.9 11.8-5.9 11.8 5.9zm14-7-11.8-5.9 11.8-5.9 11.8 5.9z" fill="#e5e5e5" opacity=".5"/><path d="m538.2 271.9-81.7-40.9 52.8-26.4-4.5-2.2-52.8 26.4-82.8-41.5-4.5 2.3 82.8 41.4-53.8 26.9 4.5 2.2 53.8-26.9 81.7 40.9z" fill="#e5e5e5"/><path d="m247.4 178.4c-6.3-3.2-12-3.5-16.3-1.6l-17.3 8.3c-4.5 2-7.4 6.7-7.4 13.5 0 13.1 10.6 29 23.7 35.6 6.5 3.2 12.3 3.6 16.6 1.5 0 0 17.2-8.3 18.2-8.9 3.8-2.3 6.2-6.7 6.2-12.8-.1-13.1-10.7-29-23.7-35.6z" fill="#999"/><path d="m246.9 235.5c1.7-.8 17-8.2 17.9-8.7 3.8-2.3 6.2-6.7 6.2-12.8 0-5.3-1.7-11-4.6-16.4l-17.3 8.3c2.9 5.4 4.6 11.1 4.6 16.4 0 6.5-2.6 11.1-6.8 13.2z" opacity=".29"/><path d="m253.7 222.3c0 13.1-10.6 18.4-23.7 11.8-13.1-6.5-23.7-22.5-23.7-35.6s10.6-18.4 23.7-11.8 23.7 22.5 23.7 35.6z" opacity=".11"/><path d="m224.2 199.7c-3.9-1.9-7.4-2.2-10-1l-3.8 1.9c-9.9 4.9-13.3 17.2-7.3 26.5 5.1 7.8 15.2 10.6 23.5 6.5 4.4-2.1 8-4 8.3-4.1 2.3-1.4 3.8-4.1 3.8-7.9 0-8.2-6.5-17.9-14.5-21.9z" fill="#2d3134"/></svg>