<svg xmlns:xlink="http://www.w3.org/1999/xlink"  enable-background="new 0 0 160 400" height="400" viewBox="0 0 160 400" width="160" xmlns="http://www.w3.org/2000/svg"><path d="m48 353 68 34h12l32-16v-8l-50-25v-4l-26-13-36 18z" fill="#999"/><path d="m116 387-68-34v-8l68 34.2z" opacity=".11"/><path d="m128 379.2v7.8l32-16v-8z" opacity=".29"/><path d="m116 379h12v8h-12z" opacity=".15"/><path d="m106 336 4-2v4z" opacity=".29"/><path d="m80 320 80 40-10-45 10-35-10-45 10-35-10-45 10-35-10-45 10-35-80-40-10 35 10 45-10 35 10 45-10 35 10 45-10 35z" fill="#e5e5e5"/><path d="m81.7 318.6-9.6-43.5 10-35-10-45 10-35-10-45 10-35-10-45 9.2-32.2 76.3 38.1-9.7 33.9 10 45-10 35 10 45-10 35 10 45-10 35 9.2 41.4z" fill="#339"/><path d="m122 376c-3.3 0-6 1.3-6 3v12c0 1.7 2.7 3 6 3s6-1.3 6-3v-12c0-1.7-2.7-3-6-3z" fill="#baa794"/><path d="m122 382c-3.3 0-6-1.3-6-3v12c0 1.7 2.7 3 6 3s6-1.3 6-3v-12c0 1.7-2.7 3-6 3z" opacity=".2"/><ellipse cx="122" cy="379" opacity=".2" rx="4.4" ry="1.9"/><path d="m42 337c-3.3 0-6 1.3-6 3v12c0 1.7 2.7 3 6 3s6-1.3 6-3v-12c0-1.7-2.7-3-6-3z" fill="#baa794"/><path d="m42 343c-3.3 0-6-1.3-6-3v12c0 1.7 2.7 3 6 3s6-1.3 6-3v-12c0 1.7-2.7 3-6 3z" opacity=".2"/><ellipse cx="42" cy="340" opacity=".2" rx="4.4" ry="1.9"/><path d="m44 352v4l36 18 6-3.1v-5.9l-36-18z" fill="#999"/><path d="m80 374-36-18v-4l36 18z" opacity=".11"/><path d="m80 370v4l6-3.1v-5.9z" opacity=".29"/><path d="m89.3 366.2c-1-.5-1.9-.6-2.5-.3l-3.7 1.9c-.7.3-1.2 1-1.2 2.1 0 2 1.7 4.5 3.7 5.5 1 .5 1.9.6 2.6.2 0 0 3.7-1.9 3.8-2 .6-.4 1-1 1-2 0-1.9-1.7-4.3-3.7-5.4z" fill="#39c"/><path d="m88.3 375.8c.3-.1 3.6-1.9 3.8-2 .6-.4 1-1 1-2 0-.8-.3-1.7-.7-2.5l-3.7 1.9c.5.8.7 1.7.7 2.5-.1 1-.5 1.7-1.1 2.1z" opacity=".29"/><path d="m89.3 373.7c0 2-1.7 2.9-3.7 1.8-2-1-3.7-3.5-3.7-5.5s1.7-2.9 3.7-1.8c2.1 1 3.7 3.5 3.7 5.5z" opacity=".11"/><path d="m88.7 373.5c0 1.7-1.4 2.4-3.1 1.5-1.7-.8-3.1-2.9-3.1-4.6s1.4-2.4 3.1-1.5 3.1 2.9 3.1 4.6z" opacity=".11"/><path d="m88.7 373.5c0 1.7-1.4 2.4-3.1 1.5-1.7-.8-3.1-2.9-3.1-4.6s1.4-2.4 3.1-1.5 3.1 2.9 3.1 4.6z" opacity=".11"/><path d="m85 343.1v2.9l24 12 18-9.1v-2.9l-24-12z" fill="#999"/><path d="m109 358-24-12v-2.9l24 12z" opacity=".11"/><path d="m109 355.1v2.9l18-9.1v-2.9z" opacity=".29"/><g fill="#e5e5e5"><path d="m90 325 1 .5-10-45 10-35-10-45 10-35-10-45 10-35-10-45 10-35-1-.5-10 35 10 45-10 35 10 45-10 35 10 45-10 35z" opacity=".3"/><path d="m100 330 1 .5-10-45 10-35-10-45 10-35-10-45 10-35-10-45 10-35-1-.5-10 35 10 45-10 35 10 45-10 35 10 45-10 35z" opacity=".3"/><path d="m110 335 1 .5-10-45 10-35-10-45 10-35-10-45 10-35-10-45 10-35-1-.5-10 35 10 45-10 35 10 45-10 35 10 45-10 35z" opacity=".3"/><path d="m120 340 1 .5-10-45 10-35-10-45 10-35-10-45 10-35-10-45 10-35-1-.5-10 35 10 45-10 35 10 45-10 35 10 45-10 35z" opacity=".3"/><path d="m130 345 1 .5-10-45 10-35-10-45 10-35-10-45 10-35-10-45 10-35-1-.5-10 35 10 45-10 35 10 45-10 35 10 45-10 35z" opacity=".3"/><path d="m140 350 1 .5-10-45 10-35-10-45 10-35-10-45 10-35-10-45 10-35-1-.5-10 35 10 45-10 35 10 45-10 35 10 45-10 35z" opacity=".3"/><path d="m150 355 1 .5-10-45 10-35-10-45 10-35-10-45 10-35-10-45 10-35-1-.5-10 35 10 45-10 35 10 45-10 35 10 45-10 35z" opacity=".3"/><path d="m77 11-.2 1 80 40 .2-1z" opacity=".3"/><path d="m73.8 22.3-.3 1 80 40 .3-1z" opacity=".3"/><path d="m70.3 34-.3 1 80 40 .3-1z"/><path d="m73.3 49 .2 1.3 80 40-.2-1.3z" opacity=".3"/><path d="m76.3 63.5.2 1.3 80 40-.2-1.3z" opacity=".3"/><path d="m79.8 78.8.2 1.2 80 40-.2-1.2z"/><path d="m77 91-.2 1 80 40 .2-1z" opacity=".3"/><path d="m73.8 102.3-.3 1 80 40 .3-1z" opacity=".3"/><path d="m70.3 114-.3 1 80 40 .3-1z"/><path d="m73.3 129 .2 1.3 80 40-.2-1.3z" opacity=".3"/><path d="m76.3 143.5.2 1.3 80 40-.2-1.3z" opacity=".3"/><path d="m79.8 158.8.2 1.2 80 40-.2-1.2z"/><path d="m77 171-.2 1 80 40 .2-1z" opacity=".3"/><path d="m73.8 182.3-.3 1 80 40 .3-1z" opacity=".3"/><path d="m70.3 194-.3 1 80 40 .3-1z"/><path d="m73.3 209 .2 1.3 80 40-.2-1.3z" opacity=".3"/><path d="m76.3 223.5.2 1.3 80 40-.2-1.3z" opacity=".3"/><path d="m79.8 238.8.2 1.2 80 40-.2-1.2z"/><path d="m77 251-.2 1 80 40 .2-1z" opacity=".3"/><path d="m73.8 262.3-.3 1 80 40 .3-1z" opacity=".3"/><path d="m70.3 274-.3 1 80 40 .3-1z"/><path d="m73.3 289 .2 1.3 80 40-.2-1.3z" opacity=".3"/><path d="m76.3 303.5.2 1.3 80 40-.2-1.3z" opacity=".3"/><path d="m79.8 318.8.2 1.2 80 40-.2-1.2z" opacity=".3"/></g><path d="m70 275 10 45 80 40-10-45z" opacity=".2"/><path d="m80 240 80 40-10-45-80-40z" opacity=".2"/><path d="m80 160 80 40-10-45-80-40z" opacity=".2"/><path d="m80 80 80 40-10-45-80-40z" opacity=".2"/></svg>