<svg xmlns:xlink="http://www.w3.org/1999/xlink"  enable-background="new 0 0 240 320" height="320" viewBox="0 0 240 320" width="240" xmlns="http://www.w3.org/2000/svg"><path d="m185 72.2 1.7 67.9h1.1v-70.5h-1.1z" fill="#999"/><path d="m186.7 69.6-1.7 2.6 1.7 67.9z" opacity=".2"/><path d="m173.4 60.3-67.9-1.7v-1.1h70.5v1.1z" fill="#999"/><path d="m176 58.6-2.6 1.7-67.9-1.7z" opacity=".2"/><path d="m186.3 59c-2.1-2.1-4.4-3.1-5.2-2.2l-4.1 4.1 7.5 7.5 4.1-4.1c.8-.9-.2-3.2-2.3-5.3z" fill="#656565"/><path d="m186.3 59c-2.1-2.1-4.4-3.1-5.2-2.2l-4.1 4.1c.8-.8 3.2.2 5.2 2.2 2.1 2.1 3.1 4.4 2.2 5.2l4.1-4.1c.9-.8-.1-3.1-2.2-5.2z" opacity=".2"/><path d="m183.6 61.7c-3.5-3.5-7.5-5.2-9-3.8l-7 7 12.8 12.8 7-7c1.4-1.4-.3-5.5-3.8-9z" fill="#999"/><path d="m183.6 61.7c-3.5-3.5-7.5-5.2-9-3.8l-7 7c1.4-1.4 5.4.3 9 3.8 3.5 3.5 5.2 7.5 3.8 9l7-7c1.4-1.4-.3-5.5-3.8-9z" opacity=".2"/><ellipse cx="174" cy="71.3" fill="#999" rx="3.6" ry="9" transform="matrix(.7063 -.7079 .7079 .7063 .6453 144.1164)"/><path d="m181.8 72.1-26.9 84.3 1.7.7 31.1-88.3-.9-2.5z" fill="#999"/><path d="m186.8 66.3-5 5.8-26.9 84.3z" opacity=".2"/><path d="m173 63.4-84.3 27-.7-1.7 88.3-31.1 2.5.9z" fill="#999"/><path d="m178.8 58.5-5.8 4.9-84.3 27z" opacity=".2"/><path d="m162.6 82.7c48.1 48 71.4 102.5 52.1 121.8s-84.8 6.3-132.9-41.6-60.4-112.8-41.1-132.1 73.9 3.9 121.9 51.9z" fill="#e5e5e5"/><path d="m162.6 82.7c-48-48-102.6-71.2-121.9-51.9-.3.3-.7.7-1 1.1 21.5-16.1 74.3 6.8 120.7 53 46.3 46.2 69.3 99 53.3 120.6.4-.3.7-.6 1.1-1 19.2-19.3-4.1-73.9-52.2-121.8z" opacity=".2"/><ellipse cx="112.9" cy="132.4" fill="#fff" opacity=".15" rx="41.8" ry="82.8" transform="matrix(.7063 -.7079 .7079 .7063 -60.5876 118.8374)"/><path d="m96.1 149.1c-14.1-14-30-20.8-35.7-15.2l-3.6 3.5c.5-.5.5-.5 0 0-5.6 5.7 1.2 21.6 15.2 35.6s30 20.8 35.7 15.2c0 0 0-.1.1-.1 0 0 0 .1-.1.1l3.6-3.5c5.7-5.6-1.1-21.5-15.2-35.6z" fill="#e5e5e5"/><ellipse cx="82.4" cy="162.9" opacity=".1" rx="14.5" ry="36" transform="matrix(.7063 -.7079 .7079 .7063 -91.1089 106.1314)"/><path d="m96.1 149.1c-14.1-14-30-20.8-35.7-15.2l-3.6 3.5c5.6-5.7 21.6 1.1 35.7 15.2 14.1 14 20.9 30 15.2 35.6l3.6-3.5c5.7-5.6-1.1-21.5-15.2-35.6z" opacity=".2"/><path d="m0 270v10l80 40 80-40v-10l-80-40z" fill="#e5e5e5"/><path d="m80 320-80-40v-10l80 40z" opacity=".11"/><path d="m80 310v10l80-40v-10z" opacity=".29"/><path d="m74 160-34 110 40 20 40-20-32-100-8-7z" fill="#e5e5e5"/><path d="m80 290-40-20 34-110 6 3z" opacity=".11"/><path d="m80 163v127l40-20-32-100z" opacity=".29"/></svg>