<svg xmlns:xlink="http://www.w3.org/1999/xlink"  enable-background="new 0 0 80 80" height="80" viewBox="0 0 80 80" width="80" xmlns="http://www.w3.org/2000/svg"><path d="m65.4 72.9-1.3-1.3-21-7.1-11-10.3-1.1-.2-1.1.4h-.1v.5l.9.2 3.3 10.9-14.6 12.2-.8 1.1 1.3.7.5.1.4-.6 20-10 22.8 3.5.7.7.4-.1zm-31.2-13.7 7.9 7.5 7.9 2.2-9.6-1.7-11.1 5.6 7-5.8-.1-.4.1-.1z" fill="#656565"/><g opacity=".3"><path d="m29.4 72.6 6.9-5.8-.1-.4-8.3 7z"/><path d="m42.1 66.1-8.1-7.6.2.7 7.9 7.4 7.9 2.2 5.1.9z"/><path d="m30.8 55.2 3.2 10.8.3-.3-3.3-11-1.1-.2v-.1.6z"/><path d="m63.6 72.5-22.9-3.6-20 10-.9 1 .5.1.4-.6 20-10 22.9 3.6.7.6.4-.1z"/></g><path d="m39.6 62c-2.9 0-5.3 1.2-5.3 2.7v1.5c0 1.5 2.4 2.7 5.3 2.7s5.3-1.2 5.3-2.7v-1.5c.1-1.5-2.3-2.7-5.3-2.7z" fill="#656565"/><path d="m39.6 67.4c-2.9 0-5.3-1.2-5.3-2.7v1.5c0 1.5 2.4 2.7 5.3 2.7s5.3-1.2 5.3-2.7v-1.5c.1 1.5-2.3 2.7-5.3 2.7z" opacity=".2"/><path d="m42 26.6v38.4c0 .6-1.1 1.1-2.5 1.1s-2.5-.4-2.5-1v-38.5z" fill="#656565"/><path d="m42 26.6v38.4c0 .6-1.1 1.1-2.5 1.1s-2.5-.4-2.5-1v-38.5z" opacity=".2"/><ellipse cx="41.8" cy="27.2" fill="#e5e5e5" rx="23.5" ry="29.7" transform="matrix(.7063 -.7079 .7079 .7063 -7.0211 37.5674)"/><ellipse cx="41.8" cy="27.2" opacity=".2" rx="23.5" ry="29.7" transform="matrix(.7063 -.7079 .7079 .7063 -7.0211 37.5674)"/><ellipse cx="42.4" cy="26.7" fill="#e5e5e5" rx="23.4" ry="29.5" transform="matrix(.7063 -.7079 .7079 .7063 -6.4339 37.8292)"/><ellipse cx="38.8" cy="30.3" fill="#fff" opacity=".15" rx="15.9" ry="20.1" transform="matrix(.7063 -.7079 .7079 .7063 -10.0296 36.3533)"/></svg>