<svg xmlns:xlink="http://www.w3.org/1999/xlink"  enable-background="new 0 0 80 80" height="80" viewBox="0 0 80 80" width="80" xmlns="http://www.w3.org/2000/svg"><path d="m52.5 16.4c12 12 17.9 25.6 13 30.5s-21.2 1.6-33.2-10.4-15.1-28.2-10.3-33.1 18.5 1 30.5 13z" fill="#e5e5e5"/><path d="m52.5 16.4c-12-12-25.7-17.8-30.5-13-.1.1-.2.2-.2.3 5.4-4 18.6 1.7 30.2 13.3s17.3 24.7 13.3 30.1c.1-.1.2-.2.3-.2 4.8-4.9-1.1-18.5-13.1-30.5z" opacity=".2"/><ellipse cx="40.1" cy="28.8" fill="#fff" opacity=".15" rx="10.5" ry="20.7" transform="matrix(.7063 -.7079 .7079 .7063 -8.639 36.8591)"/><path d="m45.2 41.8c-1 .9-2.6.9-3.5-.2l-6.1-6.6c-.9-1-.9-2.6.2-3.5 1-.9 2.6-.9 3.5.2l6.1 6.6c.9 1 .8 2.5-.2 3.5z" opacity=".3"/><path d="m65.4 72.9-1.3-1.3-21-7.1-11-10.3-1.1-.2-1.1.4h-.1v.5l.9.2 3.3 10.9-14.6 12.2-.8 1.1 1.3.7.5.1.4-.6 20-10 22.8 3.5.7.7.4-.1zm-31.2-13.7 7.9 7.5 7.9 2.2-9.6-1.7-11.1 5.6 7-5.8-.1-.4.1-.1z" fill="#656565"/><g opacity=".3"><path d="m29.4 72.6 6.9-5.8-.1-.4-8.3 7z"/><path d="m42.1 66.1-8.1-7.6.2.7 7.9 7.4 7.9 2.2 5.1.9z"/><path d="m30.8 55.2 3.2 10.8.3-.3-3.3-11-1.1-.2v-.1.6z"/><path d="m63.6 72.5-22.9-3.6-20 10-.9 1 .5.1.4-.6 20-10 22.9 3.6.7.6.4-.1z"/></g><path d="m39.6 62c-2.9 0-5.3 1.2-5.3 2.7v1.5c0 1.5 2.4 2.7 5.3 2.7s5.3-1.2 5.3-2.7v-1.5c.1-1.5-2.3-2.7-5.3-2.7z" fill="#656565"/><path d="m39.6 67.4c-2.9 0-5.3-1.2-5.3-2.7v1.5c0 1.5 2.4 2.7 5.3 2.7s5.3-1.2 5.3-2.7v-1.5c.1 1.5-2.3 2.7-5.3 2.7z" opacity=".2"/><path d="m39.2 31.6c-.6-.6-1.4-.9-2.2-.8v.1 34.2c0 .6 1.1 1.1 2.5 1.1s2.5-.5 2.5-1.1v-30.5z" fill="#656565"/><path d="m39.2 31.6c-.6-.6-1.4-.9-2.2-.8v.1 34.2c0 .6 1.1 1.1 2.5 1.1s2.5-.5 2.5-1.1v-30.5z" opacity=".2"/></svg>