<svg xmlns:xlink="http://www.w3.org/1999/xlink"  enable-background="new 0 0 320 400" height="400" viewBox="0 0 320 400" width="320" xmlns="http://www.w3.org/2000/svg"><path d="m84 61-23 161-4 2-4-2 23-161 4-2z" fill="#e5e5e5"/><path d="m57 224 4-2 23-161-4 2z" opacity=".29"/><path d="m80 63-23 161-4-2 23-161z" opacity=".11"/><path d="m107 222-7 49-4 2-90-45 7-49 4-2z" fill="#e5e5e5"/><path d="m96 273 4-2 7-49-4 2z" opacity=".29"/><path d="m10.4 225.7 5.8-40.6 82.4 41.2-5.8 40.6z" fill="#339"/><path d="m95.7 254-13.2-6.6 1.8-12.6 13.2 6.6.3-1.9-13.2-6.6 2-13.8-2-1-2 13.8-12-6 2-13.8-2-1-2 13.8-12-6 2-13.8-2-1-2 13.8-12-6.1 2-13.8-2-1-2 13.8-12-5.9 2-13.8-2-1-2 13.8-13.2-6.6-.3 1.9 13.2 6.6-1.8 12.6-13.2-6.6-.3 1.9 13.2 6.6-1.8 12.6 2 1 1.8-12.6 12 5.9-1.8 12.6 2 1 1.8-12.6 12 6.1-1.8 12.6 2 1 1.8-12.6 12 6-1.8 12.6 2 1 1.8-12.6 12 6-1.8 12.6 2 1 1.8-12.6 13.2 6.6zm-57.2-28.7-12-5.9 1.8-12.6 12 5.9zm14 7.1-12-6.1 1.8-12.6 12 6.1zm14 7-12-6 1.8-12.6 12 6zm14 7-12-6 1.8-12.6 12 6z" fill="#e5e5e5" opacity=".5"/><path d="m103 224-7 49-90-45 7-49z" opacity=".11"/><path d="m115 166-7 49-4 2-90-45 7-49 4-2z" fill="#e5e5e5"/><path d="m104 217 4-2 7-49-4 2z" opacity=".29"/><path d="m18.4 169.7 5.8-40.6 82.4 41.2-5.8 40.6z" fill="#339"/><path d="m103.7 198-13.2-6.6 1.8-12.6 13.2 6.6.3-1.9-13.2-6.6 2-13.8-2-1-2 13.8-12-6 2-13.8-2-1-2 13.8-12-6 2-13.8-2-1-2 13.8-12-6.1 2-13.8-2-1-2 13.8-12-5.9 2-13.8-2-1-2 13.8-13.2-6.6-.3 1.9 13.2 6.6-1.8 12.6-13.2-6.6-.3 1.9 13.2 6.6-1.8 12.6 2 1 1.8-12.6 12 5.9-1.8 12.6 2 1 1.8-12.6 12 6.1-1.8 12.6 2 1 1.8-12.6 12 6-1.8 12.6 2 1 1.8-12.6 12 6-1.8 12.6 2 1 1.8-12.6 13.2 6.6zm-57.2-28.7-12-5.9 1.8-12.6 12 5.9zm14 7.1-12-6.1 1.8-12.6 12 6.1zm14 7-12-6 1.8-12.6 12 6zm14 7-12-6 1.8-12.6 12 6z" fill="#e5e5e5" opacity=".5"/><path d="m111 168-7 49-90-45 7-49z" opacity=".11"/><path d="m123 110-7 49-4 2-90-45 7-49 4-2z" fill="#e5e5e5"/><path d="m112 161 4-2 7-49-4 2z" opacity=".29"/><path d="m26.4 113.7 5.8-40.6 82.4 41.2-5.8 40.6z" fill="#339"/><path d="m111.7 142-13.2-6.6 1.8-12.6 13.2 6.6.3-1.9-13.2-6.6 2-13.8-2-1-2 13.8-12-6 2-13.8-2-1-2 13.8-12-6 2-13.8-2-1-2 13.8-12-6.1 2-13.8-2-1-2 13.8-12-5.9 2-13.8-2-1-2 13.8-13.2-6.6-.3 1.9 13.2 6.6-1.8 12.6-13.2-6.6-.3 1.9 13.2 6.6-1.8 12.6 2 1 1.8-12.6 12 5.9-1.8 12.6 2 1 1.8-12.6 12 6.1-1.8 12.6 2 1 1.8-12.6 12 6-1.8 12.6 2 1 1.8-12.6 12 6-1.8 12.6 2 1 1.8-12.6 13.2 6.6zm-57.2-28.7-12-5.9 1.8-12.6 12 5.9zm14 7.1-12-6.1 1.8-12.6 12 6.1zm14 7-12-6 1.8-12.6 12 6zm14 7-12-6 1.8-12.6 12 6z" fill="#e5e5e5" opacity=".5"/><path d="m119 112-7 49-90-45 7-49z" opacity=".11"/><path d="m131 54-7 49-4 2-90-45 7-49 4-2z" fill="#e5e5e5"/><path d="m120 105 4-2 7-49-4 2z" opacity=".29"/><path d="m34.4 57.7 5.8-40.6 82.4 41.2-5.8 40.6z" fill="#339"/><path d="m119.7 86-13.2-6.6 1.8-12.6 13.2 6.6.3-1.9-13.2-6.6 2-13.8-2-1-2 13.8-12-6 2-13.8-2-1-2 13.8-12-6 2-13.8-2-1-2 13.8-12-6.1 2-13.8-2-1-2 13.8-12-5.9 2-13.8-2-1-2 13.8-13.2-6.6-.3 1.9 13.2 6.6-1.8 12.6-13.2-6.6-.3 1.9 13.2 6.6-1.8 12.6 2 1 1.8-12.6 12 5.9-1.8 12.6 2 1 1.8-12.6 12 6.1-1.8 12.6 2 1 1.8-12.6 12 6-1.8 12.6 2 1 1.8-12.6 12 6-1.8 12.6 2 1 1.8-12.6 13.2 6.6zm-57.2-28.7-12-5.9 1.8-12.6 12 5.9zm14 7.1-12-6.1 1.8-12.6 12 6.1zm14 7-12-6 1.8-12.6 12 6zm14 7-12-6 1.8-12.6 12 6z" fill="#e5e5e5" opacity=".5"/><path d="m127 56-7 49-90-45 7-49z" opacity=".11"/><path d="m104 156v7l-2 1-50-25v-7l2-1z" fill="#e5e5e5"/><path d="m102 164 2-1v-7l-2 1z" opacity=".29"/><path d="m102 157v7l-50-25v-7z" opacity=".11"/><path d="m268 153-23 161-4 2-4-2 23-161 4-2z" fill="#e5e5e5"/><path d="m241 316 4-2 23-161-4 2z" opacity=".29"/><path d="m264 155-23 161-4-2 23-161z" opacity=".11"/><path d="m90 135-10 7v98l80 40 80-40v-98l-10-17-60-30z" fill="#656565"/><path d="m160 280-80-40v-98l10-7 60 30 10 17z" opacity=".11"/><path d="m150 165 10 17v98l80-40v-98l-10-17z" opacity=".29"/><path d="m167 244v24l30-15v-24z" opacity=".2"/><path d="m203 226v24l30-15v-24z" opacity=".2"/><path d="m167 214v24l30-15v-24z" opacity=".2"/><path d="m203 196v24l30-15v-24z" opacity=".2"/><path d="m167 184v24l30-15v-24z" opacity=".2"/><path d="m203 166v24l30-15v-24z" opacity=".2"/><path d="m106 121.2v11.8l48 24 60-30.2v-11.8l-48-24z" fill="#999"/><path d="m154 157-48-24v-11.8l48 24z" opacity=".11"/><path d="m154 145.2v11.8l60-30.2v-11.8z" opacity=".29"/><path d="m20 267.8v1l70-32.2v-3.6l-6-3z" fill="#e5e5e5"/><path d="m20 267.8v1l70-32.2v-3.6z" opacity=".29"/><path d="m115.2 154.7c-10.6-5.3-20.2-5.9-27.3-2.7l-12.7 6.8c-7.6 3.4-12.4 11.3-12.4 22.7 0 22 17.8 48.8 39.8 59.8 10.9 5.4 20.7 6 27.9 2.5 0 0 12.6-6.7 14.3-7.7 6.4-3.8 10.4-11.3 10.4-21.6-.2-22-18-48.8-40-59.8z" fill="#e5e5e5"/><path d="m130.8 243.5c2.8-1.4 12.3-6.5 13.8-7.4 6.4-3.8 10.4-11.3 10.4-21.6 0-8.8-2.9-18.5-7.8-27.5l-12.7 6.8c4.9 9.1 7.8 18.7 7.8 27.5 0 10.9-4.4 18.5-11.5 22.2z" opacity=".29"/><path d="m142.3 221.3c0 22-17.8 30.9-39.8 19.9s-39.8-37.8-39.8-59.8 17.8-30.9 39.8-19.9 39.8 37.8 39.8 59.8z" opacity=".11"/><path d="m135.6 219c0 18.3-14.8 25.7-33 16.6s-33-31.4-33-49.7 14.8-25.7 33-16.6 33 31.4 33 49.7z" opacity=".11"/><path d="m135.6 219c0 18.3-14.8 25.7-33 16.6s-33-31.4-33-49.7 14.8-25.7 33-16.6 33 31.4 33 49.7z" opacity=".11"/><path d="m108.9 231.2c-18.3-9.1-33-31.4-33-49.7 0-6.4 1.8-11.4 4.9-14.9-6.9 2.6-11.2 9.3-11.2 19.2 0 18.3 14.8 40.5 33 49.7 11.9 6 22.3 4.9 28.1-1.6-5.8 2.2-13.4 1.5-21.8-2.7z" opacity=".11"/><path d="m147.5 245.2c-2.1-1-3.6-.9-4.9-.6l-28.8 4.7-1.9.7c-3 1.3-4.8 4.4-4.8 8.8 0 8.5 6.9 18.9 15.4 23.1 4.2 2.1 8 2.3 10.8 1 0 0 1-.3 2.2-1.6 4.9-5.4 17.6-20.2 17.8-20.3 1.2-.7 2-2.2 2-4.2-.1-4.3-3.5-9.4-7.8-11.6z" fill="#999"/><path d="m133.4 282.8c.2-.1 1.2-.7 2.3-1.7 4.9-5.2 17.3-19.9 17.6-20.1 1.2-.7 2-2.2 2-4.2 0-1.7-.6-3.6-1.5-5.3l-18.9 12c1.9 3.5 3 7.2 3 10.6 0 4.3-1.7 7.2-4.5 8.7z" opacity=".29"/><path d="m137.9 274.2c0 8.5-6.9 12-15.4 7.7s-15.4-14.6-15.4-23.1 6.9-12 15.4-7.7c8.5 4.2 15.4 14.6 15.4 23.1z" opacity=".11"/><path d="m135.3 273.3c0 7.1-5.7 9.9-12.8 6.4s-12.8-12.1-12.8-19.2 5.7-9.9 12.8-6.4c7 3.5 12.8 12.1 12.8 19.2z" opacity=".11"/><path d="m135.3 273.3c0 7.1-5.7 9.9-12.8 6.4s-12.8-12.1-12.8-19.2 5.7-9.9 12.8-6.4c7 3.5 12.8 12.1 12.8 19.2z" opacity=".29"/><path d="m110.5 219.2c-1.2-.6-2.4-.7-3.2-.3l-1.5.8c-.9.4-1.5 1.3-1.5 2.7 0 2.6 2.1 5.7 4.7 7 1.3.6 2.4.7 3.3.3 0 0 1.5-.8 1.7-.9.8-.5 1.2-1.3 1.2-2.5 0-2.7-2.1-5.8-4.7-7.1z" fill="#e5e5e5"/><path d="m113.7 227c0 2.6-2.1 3.6-4.7 2.3s-4.7-4.4-4.7-7 2.1-3.6 4.7-2.3 4.7 4.4 4.7 7z" opacity=".11"/><path d="m108.7 222.3c-.7-.3-1.3-.4-1.7-.2l-40 21.9c-.5.2-.8.7-.8 1.4 0 1.4 1.1 3.1 2.5 3.8.7.3 1.3.4 1.8.2 0 0 39.9-21.8 40-21.9.4-.2.7-.7.7-1.4 0-1.4-1.1-3.1-2.5-3.8z" fill="#825012"/><path d="m126.8 214.8c-1.2-.6-2.4-.7-3.2-.3l-1.5.8c-.9.4-1.5 1.3-1.5 2.7 0 2.6 2.1 5.7 4.7 7 1.3.6 2.4.7 3.3.3 0 0 1.5-.8 1.7-.9.8-.5 1.2-1.3 1.2-2.5 0-2.6-2.1-5.8-4.7-7.1z" fill="#e5e5e5"/><path d="m130 222.7c0 2.6-2.1 3.6-4.7 2.3s-4.7-4.4-4.7-7 2.1-3.6 4.7-2.3c2.6 1.2 4.7 4.4 4.7 7z" opacity=".11"/><path d="m125 218c-.7-.3-1.3-.4-1.7-.2l-39.9 21.8c-.5.2-.8.7-.8 1.4 0 1.4 1.1 3.1 2.5 3.8.7.3 1.3.4 1.8.2 0 0 39.9-21.8 40-21.9.4-.2.7-.7.7-1.4-.1-1.3-1.2-3-2.6-3.7z" fill="#825012"/><path d="m86.5 178.8c-1.2-.6-2.4-.7-3.2-.3l-1.5.8c-.9.4-1.5 1.3-1.5 2.7 0 2.6 2.1 5.7 4.7 7 1.3.6 2.4.7 3.3.3 0 0 1.5-.8 1.7-.9.8-.5 1.2-1.3 1.2-2.5 0-2.6-2.1-5.8-4.7-7.1z" fill="#e5e5e5"/><path d="m89.7 186.7c0 2.6-2.1 3.6-4.7 2.3s-4.7-4.4-4.7-7 2.1-3.6 4.7-2.3c2.6 1.2 4.7 4.4 4.7 7z" opacity=".11"/><path d="m84.7 182c-.7-.3-1.3-.4-1.7-.2l-40 21.8c-.5.2-.8.7-.8 1.4 0 1.4 1.1 3.1 2.5 3.8.7.3 1.3.4 1.8.2 0 0 39.9-21.8 40-21.9.4-.2.7-.7.7-1.4 0-1.3-1.1-3-2.5-3.7z" fill="#825012"/><path d="m102.8 174.5c-1.2-.6-2.4-.7-3.2-.3l-1.5.8c-.9.4-1.5 1.3-1.5 2.7 0 2.6 2.1 5.7 4.7 7 1.3.6 2.4.7 3.3.3 0 0 1.5-.8 1.7-.9.8-.5 1.2-1.3 1.2-2.5 0-2.6-2.1-5.8-4.7-7.1z" fill="#e5e5e5"/><path d="m106 182.3c0 2.6-2.1 3.6-4.7 2.3s-4.7-4.4-4.7-7 2.1-3.6 4.7-2.3 4.7 4.5 4.7 7z" opacity=".11"/><path d="m101 177.6c-.7-.3-1.3-.4-1.7-.2l-39.9 21.8c-.5.2-.8.7-.8 1.4 0 1.4 1.1 3.1 2.5 3.8.7.3 1.3.4 1.8.2 0 0 39.9-21.8 40-21.9.4-.2.7-.7.7-1.4-.1-1.3-1.2-3-2.6-3.7z" fill="#825012"/><path d="m92.5 210.2c-1.2-.6-2.4-.7-3.2-.3l-1.5.8c-.9.4-1.5 1.3-1.5 2.7 0 2.6 2.1 5.7 4.7 7 1.3.6 2.4.7 3.3.3 0 0 1.5-.8 1.7-.9.8-.5 1.2-1.3 1.2-2.5 0-2.7-2.1-5.8-4.7-7.1z" fill="#e5e5e5"/><path d="m95.7 218c0 2.6-2.1 3.6-4.7 2.3s-4.7-4.4-4.7-7 2.1-3.6 4.7-2.3 4.7 4.4 4.7 7z" opacity=".11"/><path d="m90.7 213.3c-.7-.3-1.3-.4-1.7-.2l-40 21.9c-.5.2-.8.7-.8 1.4 0 1.4 1.1 3.1 2.5 3.8.7.3 1.3.4 1.8.2 0 0 39.9-21.8 40-21.9.4-.2.7-.7.7-1.4 0-1.4-1.1-3.1-2.5-3.8z" fill="#825012"/><path d="m108.8 205.8c-1.2-.6-2.4-.7-3.2-.3l-1.5.8c-.9.4-1.5 1.3-1.5 2.7 0 2.6 2.1 5.7 4.7 7 1.3.6 2.4.7 3.3.3 0 0 1.5-.8 1.7-.9.8-.5 1.2-1.3 1.2-2.5 0-2.6-2.1-5.8-4.7-7.1z" fill="#e5e5e5"/><path d="m112 213.7c0 2.6-2.1 3.6-4.7 2.3s-4.7-4.4-4.7-7 2.1-3.6 4.7-2.3c2.6 1.2 4.7 4.4 4.7 7z" opacity=".11"/><path d="m107 209c-.7-.3-1.3-.4-1.7-.2l-39.9 21.8c-.5.2-.8.7-.8 1.4 0 1.4 1.1 3.1 2.5 3.8.7.3 1.3.4 1.8.2 0 0 39.9-21.8 40-21.9.4-.2.7-.7.7-1.4-.1-1.3-1.2-3-2.6-3.7z" fill="#825012"/><path d="m125 201.5c-1.2-.6-2.4-.7-3.2-.3l-1.5.8c-.9.4-1.5 1.3-1.5 2.7 0 2.6 2.1 5.7 4.7 7 1.3.6 2.4.7 3.3.3 0 0 1.5-.8 1.7-.9.8-.5 1.2-1.3 1.2-2.5 0-2.6-2.1-5.8-4.7-7.1z" fill="#e5e5e5"/><path d="m128.2 209.4c0 2.6-2.1 3.6-4.7 2.3s-4.7-4.4-4.7-7 2.1-3.6 4.7-2.3 4.7 4.4 4.7 7z" opacity=".11"/><path d="m123.2 204.7c-.7-.3-1.3-.4-1.7-.2l-39.9 21.8c-.5.2-.8.7-.8 1.4 0 1.4 1.1 3.1 2.5 3.8.7.3 1.3.4 1.8.2 0 0 39.9-21.8 40-21.9.4-.2.7-.7.7-1.4-.1-1.3-1.2-3-2.6-3.7z" fill="#825012"/><path d="m84.8 194.5c-1.2-.6-2.4-.7-3.2-.3l-1.5.8c-.9.4-1.5 1.3-1.5 2.7 0 2.6 2.1 5.7 4.7 7 1.3.6 2.4.7 3.3.3 0 0 1.5-.8 1.7-.9.8-.5 1.2-1.3 1.2-2.5 0-2.6-2.1-5.8-4.7-7.1z" fill="#e5e5e5"/><path d="m88 202.3c0 2.6-2.1 3.6-4.7 2.3s-4.7-4.4-4.7-7 2.1-3.6 4.7-2.3 4.7 4.5 4.7 7z" opacity=".11"/><path d="m83 197.6c-.7-.3-1.3-.4-1.7-.2l-39.9 21.8c-.5.2-.8.7-.8 1.4 0 1.4 1.1 3.1 2.5 3.8.7.3 1.3.4 1.8.2 0 0 39.9-21.8 40-21.9.4-.2.7-.7.7-1.4-.1-1.3-1.2-3-2.6-3.7z" fill="#825012"/><path d="m101.2 190.2c-1.2-.6-2.4-.7-3.2-.3l-1.5.8c-.9.4-1.5 1.3-1.5 2.7 0 2.6 2.1 5.7 4.7 7 1.3.6 2.4.7 3.3.3 0 0 1.5-.8 1.7-.9.8-.5 1.2-1.3 1.2-2.5-.1-2.7-2.2-5.8-4.7-7.1z" fill="#e5e5e5"/><path d="m104.3 198c0 2.6-2.1 3.6-4.7 2.3s-4.7-4.4-4.7-7 2.1-3.6 4.7-2.3 4.7 4.4 4.7 7z" opacity=".11"/><path d="m99.3 193.3c-.7-.3-1.3-.4-1.7-.2l-39.9 21.9c-.5.2-.8.7-.8 1.4 0 1.4 1.1 3.1 2.5 3.8.7.3 1.3.4 1.8.2 0 0 39.9-21.8 40-21.9.4-.2.7-.7.7-1.4 0-1.4-1.2-3.1-2.6-3.8z" fill="#825012"/><path d="m117.3 185.9c-1.2-.6-2.4-.7-3.2-.3l-1.5.8c-.9.4-1.5 1.3-1.5 2.7 0 2.6 2.1 5.7 4.7 7 1.3.6 2.4.7 3.3.3 0 0 1.5-.8 1.7-.9.8-.5 1.2-1.3 1.2-2.5 0-2.7-2.1-5.8-4.7-7.1z" fill="#e5e5e5"/><path d="m120.5 193.7c0 2.6-2.1 3.6-4.7 2.3s-4.7-4.4-4.7-7 2.1-3.6 4.7-2.3 4.7 4.4 4.7 7z" opacity=".11"/><path d="m115.5 189c-.7-.3-1.3-.4-1.7-.2l-39.9 21.8c-.5.2-.8.7-.8 1.4 0 1.4 1.1 3.1 2.5 3.8.7.3 1.3.4 1.8.2 0 0 39.9-21.8 40-21.9.4-.2.7-.7.7-1.4-.1-1.3-1.2-3-2.6-3.7z" fill="#825012"/><path d="m291 314-7 49-4 2-90-45 7-49 4-2z" fill="#e5e5e5"/><path d="m280 365 4-2 7-49-4 2z" opacity=".29"/><path d="m194.4 317.7 5.8-40.6 82.4 41.2-5.8 40.6z" fill="#339"/><path d="m279.7 346-13.2-6.6 1.8-12.6 13.2 6.6.3-1.9-13.2-6.6 2-13.8-2-1-2 13.8-12-6 2-13.8-2-1-2 13.8-12-6 2-13.8-2-1-2 13.8-12-6.1 2-13.8-2-1-2 13.8-12-5.9 2-13.8-2-1-2 13.8-13.2-6.6-.3 1.9 13.2 6.6-1.8 12.6-13.2-6.6-.3 1.9 13.2 6.6-1.8 12.6 2 1 1.8-12.6 12 5.9-1.8 12.6 2 1 1.8-12.6 12 6.1-1.8 12.6 2 1 1.8-12.6 12 6-1.8 12.6 2 1 1.8-12.6 12 6-1.8 12.6 2 1 1.8-12.6 13.2 6.6zm-57.2-28.7-12-5.9 1.8-12.6 12 5.9zm14 7.1-12-6.1 1.8-12.6 12 6.1zm14 7-12-6 1.8-12.6 12 6zm14 7-12-6 1.8-12.6 12 6z" fill="#e5e5e5" opacity=".5"/><path d="m287 316-7 49-90-45 7-49z" opacity=".11"/><path d="m299 258-7 49-4 2-90-45 7-49 4-2z" fill="#e5e5e5"/><path d="m288 309 4-2 7-49-4 2z" opacity=".29"/><path d="m202.4 261.7 5.8-40.6 82.4 41.2-5.8 40.6z" fill="#339"/><path d="m287.7 290-13.2-6.6 1.8-12.6 13.2 6.6.3-1.9-13.2-6.6 2-13.8-2-1-2 13.8-12-6 2-13.8-2-1-2 13.8-12-6 2-13.8-2-1-2 13.8-12-6.1 2-13.8-2-1-2 13.8-12-5.9 2-13.8-2-1-2 13.8-13.2-6.6-.3 1.9 13.2 6.6-1.8 12.6-13.2-6.6-.3 1.9 13.2 6.6-1.8 12.6 2 1 1.8-12.6 12 5.9-1.8 12.6 2 1 1.8-12.6 12 6.1-1.8 12.6 2 1 1.8-12.6 12 6-1.8 12.6 2 1 1.8-12.6 12 6-1.8 12.6 2 1 1.8-12.6 13.2 6.6zm-57.2-28.7-12-5.9 1.8-12.6 12 5.9zm14 7.1-12-6.1 1.8-12.6 12 6.1zm14 7-12-6 1.8-12.6 12 6zm14 7-12-6 1.8-12.6 12 6z" fill="#e5e5e5" opacity=".5"/><path d="m295 260-7 49-90-45 7-49z" opacity=".11"/><path d="m307 202-7 49-4 2-90-45 7-49 4-2z" fill="#e5e5e5"/><path d="m296 253 4-2 7-49-4 2z" opacity=".29"/><path d="m210.4 205.7 5.8-40.6 82.4 41.2-5.8 40.6z" fill="#339"/><path d="m295.7 234-13.2-6.6 1.8-12.6 13.2 6.6.3-1.9-13.2-6.6 2-13.8-2-1-2 13.8-12-6 2-13.8-2-1-2 13.8-12-6 2-13.8-2-1-2 13.8-12-6.1 2-13.8-2-1-2 13.8-12-5.9 2-13.8-2-1-2 13.8-13.2-6.6-.3 1.9 13.2 6.6-1.8 12.6-13.2-6.6-.3 1.9 13.2 6.6-1.8 12.6 2 1 1.8-12.6 12 5.9-1.8 12.6 2 1 1.8-12.6 12 6.1-1.8 12.6 2 1 1.8-12.6 12 6-1.8 12.6 2 1 1.8-12.6 12 6-1.8 12.6 2 1 1.8-12.6 13.2 6.6zm-57.2-28.7-12-5.9 1.8-12.6 12 5.9zm14 7.1-12-6.1 1.8-12.6 12 6.1zm14 7-12-6 1.8-12.6 12 6zm14 7-12-6 1.8-12.6 12 6z" fill="#e5e5e5" opacity=".5"/><path d="m303 204-7 49-90-45 7-49z" opacity=".11"/><path d="m315 146-7 49-4 2-90-45 7-49 4-2z" fill="#e5e5e5"/><path d="m304 197 4-2 7-49-4 2z" opacity=".29"/><path d="m218.4 149.7 5.8-40.6 82.4 41.2-5.8 40.6z" fill="#339"/><path d="m303.7 178-13.2-6.6 1.8-12.6 13.2 6.6.3-1.9-13.2-6.6 2-13.8-2-1-2 13.8-12-6 2-13.8-2-1-2 13.8-12-6 2-13.8-2-1-2 13.8-12-6.1 2-13.8-2-1-2 13.8-12-5.9 2-13.8-2-1-2 13.8-13.2-6.6-.3 1.9 13.2 6.6-1.8 12.6-13.2-6.6-.3 1.9 13.2 6.6-1.8 12.6 2 1 1.8-12.6 12 5.9-1.8 12.6 2 1 1.8-12.6 12 6.1-1.8 12.6 2 1 1.8-12.6 12 6-1.8 12.6 2 1 1.8-12.6 12 6-1.8 12.6 2 1 1.8-12.6 13.2 6.6zm-57.2-28.7-12-5.9 1.8-12.6 12 5.9zm14 7.1-12-6.1 1.8-12.6 12 6.1zm14 7-12-6 1.8-12.6 12 6zm14 7-12-6 1.8-12.6 12 6z" fill="#e5e5e5" opacity=".5"/><path d="m311 148-7 49-90-45 7-49z" opacity=".11"/><path d="m251 230v7l-2 1-50-25v-7l2-1z" fill="#e5e5e5"/><path d="m249 238 2-1v-7l-2 1z" opacity=".29"/><path d="m249 231v7l-50-25v-7z" opacity=".11"/></svg>