<svg xmlns:xlink="http://www.w3.org/1999/xlink"  enable-background="new 0 0 140 80" height="80" viewBox="0 0 140 80" width="140" xmlns="http://www.w3.org/2000/svg"><path d="m12 46v10l48 24 74-37v-10l-48-24z" fill="#2d3134"/><path d="m60 80-48-24v-10l48 24z" opacity=".11"/><path d="m60 80 74-37v-10l-74 37z" opacity=".29"/><path d="m86 13-66 33 40 20 66-33z" opacity=".5"/><path d="m83 16 36 18-58 29-36-18z" fill="#e5e5e5"/><g fill="#39c"><path d="m85 15 36 18-54 27-36-18z" opacity=".2"/><path d="m85 17 32 16-50 25-32-16z" opacity=".2"/><path d="m89 17 28 14-50 25-28-14z" opacity=".2"/></g><path d="m12 5v4l48 24h74v-4l-48-24z" fill="#2d3134"/><path d="m60 33-48-24v-4l48 24z" opacity=".11"/><path d="m60 29h74v4h-74z" opacity=".29"/><path d="m105 17h-66l4 2h66z" opacity=".5"/><path d="m63 17h-12l4 2h12z" fill="#39c" opacity=".4"/><path d="m61 17h-7l4 2h7z" fill="#39c" opacity=".5"/><path d="m59 17h-3l4 2h3z" fill="#39c" opacity=".5"/></svg>