<svg xmlns:xlink="http://www.w3.org/1999/xlink"  enable-background="new 0 0 80 40" height="40" viewBox="0 0 80 40" width="80" xmlns="http://www.w3.org/2000/svg"><path d="m62 18v13l8 4 2-1v-13l-8-4z" fill="#656565"/><path d="m70 35-8-4v-13l8 4z" opacity=".11"/><path d="m70 35 2-1v-13l-2 1z" opacity=".29"/><path d="m48 32v3l2 1 18-6v-6l-2-1z" fill="#656565"/><path d="m50 36-2-1v-3l2 1z" opacity=".11"/><path d="m50 36 18-6v-6l-18 9z" opacity=".29"/><path d="m46 21v15l2 1 2-1v-15l-2-1z" fill="#656565"/><path d="m48 37-2-1v-15l2 1z" opacity=".11"/><path d="m48 37 2-1v-15l-2 1z" opacity=".29"/><circle cx="48" cy="25" fill="#656565" r="4"/><path d="m21.6 19.7c-2.3-1.1-6.1.3-7.6 1.1-1.4.8-2.2 2.3-2.2 4.4 0 1 .2 2.1.5 3.1l10.4-5.2c1.6-1.5-.1-2.9-1.1-3.4z" fill="#999"/><path d="m21.6 19.7c-2.3-1.1-6.1.3-7.6 1.1-1.4.8-2.2 2.3-2.2 4.4 0 1 .2 2.1.5 3.1l10.4-5.2c1.6-1.5-.1-2.9-1.1-3.4z" opacity=".29"/><path d="m50.7 7.2c-1.9-1-3.7-1.1-5-.5l-28.9 14.4c-1.4.6-2.3 2.1-2.3 4.1 0 4 3.3 8.9 7.3 10.9 2 1 3.8 1.1 5.1.5 0 0 28.9-14.4 29.2-14.6 1.2-.7 1.9-2.1 1.9-3.9 0-4.1-3.3-8.9-7.3-10.9z" fill="#656565"/><path d="m27 36.6c.5-.3 28.9-14.4 29.1-14.6 1.2-.7 1.9-2.1 1.9-3.9 0-1.6-.5-3.4-1.4-5l-29 14.4c.9 1.7 1.4 3.4 1.4 5 .1 2-.7 3.4-2 4.1z" opacity=".29"/><path d="m27.2 31.5c0 3-2.4 4.2-5.5 2.7-3-1.5-5.5-5.2-5.5-8.2s2.4-4.2 5.5-2.7c3.1 1.6 5.5 5.2 5.5 8.2z" opacity=".3"/><path d="m21.8 23.4c-.4-.2-.8-.3-1.1-.4-1.1.4-1.8 1.3-1.8 2.9 0 2.7 2.2 6 4.9 7.4 1.1.6 2.1.7 2.9.5.3-.5.5-1.2.5-2.1 0-3.2-2.4-6.8-5.4-8.3z" fill="#36c"/><path d="m23 27.1c0 .9-.7 1.2-1.6.8s-1.6-1.5-1.6-2.3.7-1.2 1.6-.8 1.6 1.5 1.6 2.3z" fill="#fff" opacity=".3"/><path d="m29.1 32.5c0 4-3.3 5.6-7.3 3.6s-7.3-6.9-7.3-10.9 3.3-5.6 7.3-3.6 7.3 6.9 7.3 10.9z" opacity=".11"/><path d="m27.8 32.1 32-16c-.6-4.2-3.9-8.9-8-10.9-2.1-1.1-4.1-1.2-5.5-.6l-32 16c1.4-.6 3.4-.5 5.5.6 4.1 2.1 7.5 6.8 8 10.9z" fill="#999"/></svg>