<svg xmlns:xlink="http://www.w3.org/1999/xlink"  enable-background="new 0 0 60 60" height="60" viewBox="0 0 60 60" width="60" xmlns="http://www.w3.org/2000/svg"><path d="m24 22v15l2 1 2-1v-15l-2-1z" fill="#656565"/><path d="m26 38-2-1v-15l2 1z" opacity=".11"/><path d="m26 38 2-1v-15l-2 1z" opacity=".29"/><circle cx="26" cy="26.7" fill="#656565" r="4"/><path d="m6 43v6l2 1 18-12v-3l-2-1z" fill="#656565"/><path d="m8 50-2-1v-6l2 1z" opacity=".11"/><path d="m8 50 18-12v-3l-18 9z" opacity=".29"/><path d="m11.8 15.4c-2.3-1.1-6.1.3-7.6 1.1-1.4.8-2.2 2.3-2.2 4.5 0 1 .2 2.1.5 3.1l10.4-5.2c1.5-1.6-.1-3-1.1-3.5z" fill="#999"/><path d="m11.8 15.4c-2.3-1.1-6.1.3-7.6 1.1-1.4.8-2.2 2.3-2.2 4.5 0 1 .2 2.1.5 3.1l10.4-5.2c1.5-1.6-.1-3-1.1-3.5z" opacity=".29"/><path d="m40.9 2.8c-1.9-1-3.7-1.1-5-.5l-28.9 14.5c-1.4.6-2.3 2.1-2.3 4.1 0 4 3.3 8.9 7.3 10.9 2 1 3.8 1.1 5.1.5 0 0 28.9-14.4 29.2-14.6 1.2-.7 1.9-2.1 1.9-3.9 0-4.1-3.3-9-7.3-11z" fill="#656565"/><path d="m17.1 32.2c.6-.2 28.9-14.4 29.2-14.5 1.2-.7 1.9-2.1 1.9-3.9 0-1.6-.5-3.4-1.4-5l-29 14.4c.9 1.7 1.4 3.4 1.4 5 0 2-.8 3.4-2.1 4z" opacity=".29"/><path d="m19.2 28.2c0 4-3.3 5.6-7.3 3.6s-7.3-6.9-7.3-10.9 3.3-5.6 7.3-3.6 7.3 6.9 7.3 10.9z" opacity=".11"/><path d="m18 27.8 32-16c-.6-4.2-3.9-8.9-8-10.9-2.1-1.1-4.1-1.2-5.5-.6l-32 16c1.4-.6 3.4-.5 5.5.6 4.1 2.1 7.5 6.7 8 10.9z" fill="#999"/><path d="m2 38v13l8 4 2-1v-13l-8-4z" fill="#656565"/><path d="m10 55-8-4v-13l8 4z" opacity=".11"/><path d="m10 55 2-1v-13l-2 1z" opacity=".29"/></svg>