<svg xmlns:xlink="http://www.w3.org/1999/xlink"  enable-background="new 0 0 80 160" height="160" viewBox="0 0 80 160" width="80" xmlns="http://www.w3.org/2000/svg"><path d="m0 20v120l40 20 40-20v-120l-40-20z" fill="#2d3134"/><path d="m40 160-40-20v-120l40 20z" opacity=".11"/><path d="m40 160 40-20v-120l-40 20z" opacity=".29"/><path d="m0 26v2l40 20v-2z" fill="#36c" opacity=".8"/><path d="m0 28v1l40 20v-1z" opacity=".5"/><g fill="#9c3"><path d="m6 25-2-1v2l2 1z" opacity=".8"/><path d="m10 27-2-1v2l2 1z" opacity=".6"/><path d="m14 29-2-1v2l2 1z" opacity=".4"/><path d="m18 31-2-1v2l2 1z" opacity=".2"/></g><path d="m0 36v2l40 20v-2z" fill="#36c" opacity=".8"/><path d="m0 38v1l40 20v-1z" opacity=".5"/><path d="m6 35-2-1v2l2 1z" fill="#9c3" opacity=".8"/><path d="m10 37-2-1v2l2 1z" fill="#9c3" opacity=".6"/><path d="m14 39-2-1v2l2 1z" fill="#9c3" opacity=".4"/><path d="m18 41-2-1v2l2 1z" fill="#9c3" opacity=".2"/><path d="m0 46v2l40 20v-2z" fill="#36c" opacity=".8"/><path d="m0 48v1l40 20v-1z" opacity=".5"/><path d="m6 45-2-1v2l2 1z" fill="#9c3" opacity=".8"/><path d="m10 47-2-1v2l2 1z" fill="#9c3" opacity=".6"/><path d="m14 49-2-1v2l2 1z" fill="#9c3" opacity=".4"/><path d="m18 51-2-1v2l2 1z" fill="#9c3" opacity=".2"/><path d="m0 56v2l40 20v-2z" fill="#36c" opacity=".8"/><path d="m0 58v1l40 20v-1z" opacity=".5"/><path d="m6 55-2-1v2l2 1z" fill="#9c3" opacity=".8"/><path d="m10 57-2-1v2l2 1z" fill="#9c3" opacity=".6"/><path d="m14 59-2-1v2l2 1z" fill="#9c3" opacity=".4"/><path d="m18 61-2-1v2l2 1z" fill="#9c3" opacity=".2"/><path d="m0 66v2l40 20v-2z" fill="#36c" opacity=".8"/><path d="m0 68v1l40 20v-1z" opacity=".5"/><path d="m6 65-2-1v2l2 1z" fill="#9c3" opacity=".8"/><path d="m10 67-2-1v2l2 1z" fill="#9c3" opacity=".6"/><path d="m14 69-2-1v2l2 1z" fill="#9c3" opacity=".4"/><path d="m18 71-2-1v2l2 1z" fill="#9c3" opacity=".2"/><path d="m0 76v2l40 20v-2z" fill="#36c" opacity=".8"/><path d="m0 78v1l40 20v-1z" opacity=".5"/><path d="m6 75-2-1v2l2 1z" fill="#9c3" opacity=".8"/><path d="m10 77-2-1v2l2 1z" fill="#9c3" opacity=".6"/><path d="m14 79-2-1v2l2 1z" fill="#9c3" opacity=".4"/><path d="m18 81-2-1v2l2 1z" fill="#9c3" opacity=".2"/><path d="m0 86v2l40 20v-2z" fill="#36c" opacity=".8"/><path d="m0 88v1l40 20v-1z" opacity=".5"/><path d="m6 85-2-1v2l2 1z" fill="#9c3" opacity=".8"/><path d="m10 87-2-1v2l2 1z" fill="#9c3" opacity=".6"/><path d="m14 89-2-1v2l2 1z" fill="#9c3" opacity=".4"/><path d="m18 91-2-1v2l2 1z" fill="#9c3" opacity=".2"/><path d="m0 96v2l40 20v-2z" fill="#36c" opacity=".8"/><path d="m0 98v1l40 20v-1z" opacity=".5"/><path d="m6 95-2-1v2l2 1z" fill="#9c3" opacity=".8"/><path d="m10 97-2-1v2l2 1z" fill="#9c3" opacity=".6"/><path d="m14 99-2-1v2l2 1z" fill="#9c3" opacity=".4"/><path d="m18 101-2-1v2l2 1z" fill="#9c3" opacity=".2"/><path d="m0 106v2l40 20v-2z" fill="#36c" opacity=".8"/><path d="m0 108v1l40 20v-1z" opacity=".5"/><path d="m6 105-2-1v2l2 1z" fill="#9c3" opacity=".8"/><path d="m10 107-2-1v2l2 1z" fill="#9c3" opacity=".6"/><path d="m14 109-2-1v2l2 1z" fill="#9c3" opacity=".4"/><path d="m18 111-2-1v2l2 1z" fill="#9c3" opacity=".2"/><path d="m0 116v2l40 20v-2z" fill="#36c" opacity=".8"/><path d="m0 118v1l40 20v-1z" opacity=".5"/><path d="m6 115-2-1v2l2 1z" fill="#9c3" opacity=".8"/><path d="m10 117-2-1v2l2 1z" fill="#9c3" opacity=".6"/><path d="m14 119-2-1v2l2 1z" fill="#9c3" opacity=".4"/><path d="m18 121-2-1v2l2 1z" fill="#9c3" opacity=".2"/><path d="m0 126v2l40 20v-2z" fill="#36c" opacity=".8"/><path d="m0 128v1l40 20v-1z" opacity=".5"/><path d="m6 125-2-1v2l2 1z" fill="#9c3" opacity=".8"/><path d="m10 127-2-1v2l2 1z" fill="#9c3" opacity=".6"/><path d="m14 129-2-1v2l2 1z" fill="#9c3" opacity=".4"/><path d="m18 131-2-1v2l2 1z" fill="#9c3" opacity=".2"/><path d="m0 136v2l40 20v-2z" fill="#36c" opacity=".8"/><path d="m0 138v1l40 20v-1z" opacity=".5"/><path d="m6 135-2-1v2l2 1z" fill="#9c3" opacity=".8"/><path d="m10 137-2-1v2l2 1z" fill="#9c3" opacity=".6"/><path d="m14 139-2-1v2l2 1z" fill="#9c3" opacity=".4"/><path d="m18 141-2-1v2l2 1z" fill="#9c3" opacity=".2"/><path d="m7 18.5-1 .5 36 18 1-.5z" opacity=".5"/><path d="m11 16.5-1 .5 36 18 1-.5z" opacity=".5"/><path d="m15 14.5-1 .5 36 18 1-.5z" opacity=".5"/><path d="m19 12.5-1 .5 36 18 1-.5z" opacity=".5"/><path d="m23 10.5-1 .5 36 18 1-.5z" opacity=".5"/><path d="m27 8.5-1 .5 36 18 1-.5z" opacity=".5"/><path d="m31 6.5-1 .5 36 18 1-.5z" opacity=".5"/><path d="m35 4.5-1 .5 36 18 1-.5z" opacity=".5"/><path d="m39 2.5-1 .5 36 18 1-.5z" opacity=".5"/></svg>