<svg xmlns:xlink="http://www.w3.org/1999/xlink"  enable-background="new 0 0 60 40" height="40" viewBox="0 0 60 40" width="60" xmlns="http://www.w3.org/2000/svg"><path d="m47 10-12 6h-2l-1 .5v.5l7 3.5 1-.5v-1l12-6v-.5-2.5zm-4.5 5.5c-.4 0-.7-.1-.9-.3.2-.1.5-.3.9-.3s.7.1.9.3c-.2.2-.5.3-.9.3zm3-1.5c-.4 0-.7-.1-.9-.3.2-.1.5-.3.9-.3s.7.1.9.3c-.2.2-.5.3-.9.3zm3-1.5c-.4 0-.7-.1-.9-.3.2-.1.5-.3.9-.3s.7.1.9.3c-.2.2-.5.3-.9.3z" fill="#2d3134"/><path d="m40 19.5-1 .5-7-3.5v.5l7 3.5 1-.5v-1l12-6v-.5l-12 6z" opacity=".3"/><path d="m39.5 21v-1l-17-.1v1c0 .2.1.3.2.4l7.4 3.7c.6.3 1.2.3 1.8 0l7.4-3.7c.1 0 .2-.2.2-.3z" fill="#656565"/><path d="m35.7 22.6v.2c0 .1-.1.3-.2.3l-.9.5c-.1.1-.3 0-.3-.2v-.2c0-.1.1-.3.2-.3l.9-.5c.2 0 .3.1.3.2z" fill="#fff" opacity=".3"/><path d="m37.9 21.6c0 .2-.1.4-.2.4l-.1.1c-.2.1-.4 0-.4-.2 0-.2.1-.3.2-.4l.1-.1c.2-.1.4 0 .4.2z" fill="#fff" opacity=".3"/><path d="m39.5 21v-1l-17-.1v1c0 .2.1.3.2.4l7.4 3.7c.6.3 1.2.3 1.8 0l7.4-3.7c.1 0 .2-.2.2-.3z" opacity=".2"/><path d="m22.7 20.4 7.4 3.7c.6.3 1.2.3 1.8 0l7.4-3.7c.3-.2.3-.6 0-.7l-7.6-3.8c-.4-.2-1-.2-1.4 0l-7.6 3.8c-.3.1-.3.5 0 .7z" fill="#656565"/><path d="m31 16-8 4 8 4 8-4z" fill="#36c"/><path d="m33 17-2 7 8-4z" fill="#fff" opacity=".1"/><path d="m23 21-1 .5v1l-13 6.5v.5l1 2.5h4l13-6.5h2l1-.5v-.5z" fill="#2d3134"/><path d="m29 25h-2l-13 6.5h-4l-1-2.5v.5l1 2.5h4l13-6.5h2l1-.5v-.5z" opacity=".2"/><path d="m47.6 12.3c.2-.1.5-.3.9-.3s.7.1.9.3c.1-.1.1-.2.1-.3 0-.3-.4-.5-1-.5s-1 .2-1 .5c0 .1.1.2.1.3z" opacity=".3"/><path d="m44.6 13.7c.2-.1.5-.3.9-.3s.7.1.9.3c.1-.1.1-.2.1-.3 0-.3-.4-.5-1-.5s-1 .2-1 .5c0 .2.1.3.1.3z" opacity=".3"/><path d="m41.6 15.2c.2-.1.5-.3.9-.3s.7.1.9.3c.1-.1.1-.2.1-.3 0-.3-.4-.5-1-.5s-1 .2-1 .5c0 .2.1.3.1.3z" opacity=".3"/><path d="m14 28c.6 0 1 .2 1 .5v.5c0 .3-.4.5-1 .5s-1-.2-1-.5v-.5c0-.3.4-.5 1-.5z" fill="#2d3134"/><path d="m14 29c.6 0 1-.2 1-.5v.5c0 .3-.4.5-1 .5s-1-.2-1-.5v-.5c0 .3.4.5 1 .5z" opacity=".2"/></svg>