<svg xmlns:xlink="http://www.w3.org/1999/xlink"  enable-background="new 0 0 60 40" height="40" viewBox="0 0 60 40" width="60" xmlns="http://www.w3.org/2000/svg"><path d="m4 22v5l26 13 18-9v-5l-26-13z" fill="#2d3134"/><path d="m30 40 18-9v-5l-18 9z" opacity=".29"/><path d="m18.5 31.8c0 .8-.7 1.2-1.5.7-.8-.4-1.5-1.4-1.5-2.3 0-.8.7-1.2 1.5-.7s1.5 1.4 1.5 2.3z" fill="#656565"/><path d="m18.1 31.6c0 .6-.5.9-1.1.6s-1.1-1.1-1.1-1.7.5-.9 1.1-.6 1.1 1.1 1.1 1.7z" fill="#36c"/><path d="m17 31.1c0 .2-.2.3-.4.2s-.4-.3-.4-.5.2-.3.4-.2.4.3.4.5z" fill="#fff" opacity=".3"/><path d="m30 40-26-13v-5l26 13z" opacity=".11"/><path d="m26 17c-4.4 0-8 1.8-8 4v3c0 2.2 3.6 4 8 4s8-1.8 8-4v-3c0-2.2-3.6-4-8-4z" fill="#2d3134"/><path d="m26 25c-4.4 0-8-1.8-8-4v3c0 2.2 3.6 4 8 4s8-1.8 8-4v-3c0 2.2-3.6 4-8 4z" opacity=".2"/><path d="m26 12c-3.3 0-6 1.3-6 3l-2 6c0 2.2 3.6 4 8 4s8-1.8 8-4l-2-6c0-1.7-2.7-3-6-3z" fill="#2d3134"/><path d="m32 15c0 1.7-2.7 3-6 3-.2 0-.3 0-.5 0-.1 2-1.7 2.7-3.7 1.7-1.1-.5-2-1.5-2.7-2.5l-1.1 3.8c0 2.2 3.6 4 8 4s8-1.8 8-4z" opacity=".1"/><path d="m32.6.9c-1.5-.7-2.8-.8-3.8-.4l-16 8c-1.1.5-1.8 1.6-1.8 3.2 0 3.1 2.5 6.8 5.6 8.4 1.5.8 2.9.8 3.9.4 0 0 16-8 16.3-8.2.9-.5 1.5-1.6 1.5-3-.1-3.1-2.6-6.9-5.7-8.4z" fill="#2d3134"/><path d="m16.6 8.9c-1.5-.7-2.8-.8-3.8-.4l-1 .5c-1.1.5-1.7 1.6-1.7 3.2 0 3.1 2.5 6.8 5.6 8.4 1.5.8 2.9.8 3.9.4 0 0 1-.5 1.3-.7.9-.5 1.5-1.6 1.5-3-.2-3.1-2.7-6.9-5.8-8.4z" fill="#656565"/><path d="m19.6 20.9c.4-.2 17-8.5 17.2-8.6.9-.5 1.5-1.6 1.5-3 0-1.2-.4-2.6-1.1-3.9l-17 8.5c.7 1.3 1.1 2.6 1.1 3.9-.1 1.5-.7 2.6-1.7 3.1z" opacity=".29"/><path d="m20.5 17.4c0 2.7-2.2 3.8-4.9 2.5-2.7-1.4-4.9-4.7-4.9-7.4s2.2-3.8 4.9-2.5 4.9 4.7 4.9 7.4z" opacity=".3"/><path d="m15.6 10c-.4-.2-.7-.3-1-.4-1 .3-1.6 1.2-1.6 2.6 0 2.4 2 5.4 4.4 6.6 1 .5 1.9.6 2.6.4.3-.5.5-1.1.5-1.9 0-2.6-2.2-5.9-4.9-7.3z" fill="#36c"/><path d="m16.7 13.5c0 .8-.6 1.1-1.4.7s-1.4-1.3-1.4-2.1.6-1.1 1.4-.7c.8.3 1.4 1.3 1.4 2.1z" fill="#fff" opacity=".3"/><path d="m21.2 17.8c0 3.1-2.5 4.3-5.6 2.8s-5.6-5.3-5.6-8.4 2.5-4.3 5.6-2.8 5.6 5.3 5.6 8.4z" opacity=".11"/></svg>