<svg xmlns:xlink="http://www.w3.org/1999/xlink"  enable-background="new 0 0 24 16" height="16" viewBox="0 0 24 16" width="24" xmlns="http://www.w3.org/2000/svg"><path d="m16 0-16 8 8 8 16-8z" fill="#999"/><g fill="#36c"><path d="m9.2 4.7 1.4 1.4c.1.1.3.2.5.1l2.5-1.2c.3-.1.3-.5.1-.7l-1.4-1.4c-.1-.1-.3-.2-.5-.1l-2.5 1.2c-.2.1-.3.5-.1.7z"/><path d="m18.1 3.4-2.2 1.1c-.3.1-.3.5-.1.7l1.3 1.3c.1.1.3.2.5.1l2.2-1.1c.3-.1.3-.5.1-.7l-1.3-1.3c-.1-.1-.3-.2-.5-.1z"/><path d="m5.9 12.6 2.2-1.1c.3-.1.3-.5.1-.7l-1.3-1.4c-.1-.1-.4-.2-.5-.1l-2.2 1.1c-.3.1-.3.5-.1.7l1.3 1.3c.1.2.3.3.5.2z"/><path d="m10.4 7.3-2.5 1.3c-.3.1-.3.5-.1.7l1.3 1.3c.1.1.3.2.5.1l2.5-1.2c.3-.1.3-.5.1-.7l-1.3-1.3c-.1-.2-.4-.3-.5-.2z"/><path d="m13.6 8.7 2.5-1.2c.3-.1.3-.5.1-.7l-1.3-1.3c-.1-.1-.3-.2-.5-.1l-2.5 1.2c-.3.1-.3.5-.1.7l1.3 1.3c.1.1.4.2.5.1z"/><path d="m7.1 8.2 2.5-1.2c.3-.1.3-.5.1-.7l-1.4-1.5c-.1-.1-.3-.1-.5 0l-2.5 1.2c-.2.1-.3.5-.1.7l1.4 1.4c.1.1.4.2.5.1z"/><path d="m14.8 11.3-1.4-1.4c-.1-.1-.3-.2-.5-.1l-2.5 1.2c-.3.1-.3.5-.1.7l1.4 1.4c.1.1.3.2.5.1l2.5-1.2c.2-.1.3-.5.1-.7z"/><path d="m15.1 4.2 2.2-1.1c.3-.1.3-.5.1-.7l-1.3-1.4c-.1-.1-.3-.2-.5-.1l-2.3 1.1c-.3.1-.3.5-.1.7l1.4 1.4c.1.1.4.2.5.1z"/><path d="m8.9 11.8-2.2 1.1c-.3.1-.3.5-.1.7l1.3 1.4c.1.1.3.2.5.1l2.2-1.1c.3-.1.3-.5.1-.7l-1.4-1.4c0-.1-.3-.2-.4-.1z"/><path d="m5.7 8.2-1.4-1.4c-.1-.1-.3-.1-.5 0l-2.2 1.1c-.3.1-.4.5-.1.7l1.3 1.4c.1.1.3.2.5.1l2.2-1.1c.4-.2.4-.6.2-.8z"/><path d="m16.9 7.8-2.5 1.2c-.3.1-.3.5-.1.7l1.4 1.4c.1.1.3.2.5.1l2.5-1.2c.3-.1.3-.5.1-.7l-1.4-1.4c-.1-.1-.4-.2-.5-.1z"/><path d="m20.6 5.9-2.2 1.1c-.3.1-.3.5-.1.7l1.4 1.4c.1.1.3.2.5.1l2.2-1.1c.3-.1.3-.5.1-.7l-1.3-1.4c-.2-.1-.4-.2-.6-.1z"/></g></svg>