<svg xmlns:xlink="http://www.w3.org/1999/xlink"  enable-background="new 0 0 40 60" height="60" viewBox="0 0 40 60" width="40" xmlns="http://www.w3.org/2000/svg"><path d="m2 9v40l20 10 18-9v-40l-20-10z" fill="#2d3134"/><path d="m0 10v40l20 10 2-1v-40l-20-10z" fill="#656565"/><path d="m20 60 20-10v-40l-20 10z" opacity=".29"/><path d="m18 46.1c0 4.4-3.6 6.2-8 4s-8-7.6-8-12 3.6-6.2 8-4 8 7.5 8 12z" opacity=".6"/><path d="m16 45.1c0 3.3-2.7 4.7-6 3s-6-5.7-6-9 2.7-4.7 6-3c3.3 1.6 6 5.6 6 9z" fill="#656565"/><path d="m12 43.1c0 1.1-.9 1.6-2 1s-2-1.9-2-3 .9-1.6 2-1c1.1.5 2 1.8 2 3z" opacity=".6"/><path d="m16 28.1c0 3.3-2.7 4.7-6 3s-6-5.7-6-9 2.7-4.7 6-3c3.3 1.6 6 5.6 6 9z" opacity=".6"/><path d="m14.5 27.3c0 2.5-2 3.5-4.5 2.3s-4.5-4.3-4.5-6.7 2-3.5 4.5-2.3 4.5 4.2 4.5 6.7z" fill="#656565"/><path d="m11.5 25.8c0 .8-.7 1.2-1.5.8s-1.5-1.4-1.5-2.2.7-1.2 1.5-.8 1.5 1.4 1.5 2.2z" opacity=".6"/><path d="m20 60-20-10v-40l20 10z" opacity=".11"/></svg>