<svg xmlns:xlink="http://www.w3.org/1999/xlink"  enable-background="new 0 0 32 16" height="16" viewBox="0 0 32 16" width="32" xmlns="http://www.w3.org/2000/svg"><g fill="#baa794"><ellipse cx="9" cy="10" rx="4" ry="2"/><path d="m18.6 3.6c0-1.3-2.1-2.3-4.7-2.3-2.5 0-4.5 1-4.6 2.2-.9.3-1.5.8-1.5 1.4 0 1 1.6 1.8 3.5 1.8 1.2 0 2.3-.3 2.9-.8 2.5-.1 4.4-1.1 4.4-2.3z"/><ellipse cx="3" cy="8" rx="2" ry="1"/><path d="m18.5 9c-2.7 0-4.8 1.1-4.8 2.4 0 .3.1.6.3.9-.9.1-1.6.5-1.6 1 0 .6.9 1 2 1 .9 0 1.6-.3 1.9-.7.7.2 1.4.3 2.2.3 2.7 0 4.8-1.1 4.8-2.4s-2.1-2.5-4.8-2.5z"/><ellipse cx="24.5" cy="9.2" rx="1.5" ry=".8"/><ellipse cx="14.3" cy="7.7" rx="2" ry="1"/><ellipse cx="6.5" cy="7.3" rx="1" ry=".5"/><ellipse cx="18.1" cy="7.7" rx="1" ry=".5"/><ellipse cx="28" cy="8" rx="2" ry="1"/></g><g opacity=".15"><path d="m6.5 7.5c-.4 0-.8-.1-.9-.3 0 .1-.1.1-.1.2 0 .3.4.5 1 .5s1-.2 1-.5c0-.1 0-.1-.1-.2-.1.1-.5.3-.9.3z"/><path d="m14.3 8.3c-1 0-1.8-.3-2-.8v.2c0 .6.9 1 2 1s2-.4 2-1c0-.1 0-.1 0-.2-.3.5-1.1.8-2 .8z"/><path d="m3 8.6c-1 0-1.8-.4-2-.8v.2c0 .6.9 1 2 1s2-.4 2-1c0-.1 0-.1 0-.2-.2.5-1 .8-2 .8z"/><path d="m28 8.6c-1 0-1.8-.4-2-.8v.2c0 .6.9 1 2 1s2-.4 2-1c0-.1 0-.1 0-.2-.2.5-1 .8-2 .8z"/><path d="m18.1 7.8c-.4 0-.8-.1-.9-.3 0 .1-.1.1-.1.2 0 .3.4.5 1 .5s1-.2 1-.5c0-.1 0-.1-.1-.2-.1.2-.5.3-.9.3z"/><path d="m24.5 9.5c-.7 0-1.3-.2-1.4-.6-.1.1-.1.2-.1.3 0 .4.7.8 1.5.8s1.5-.4 1.5-.8c0-.1 0-.2-.1-.2-.1.3-.7.5-1.4.5z"/></g><path d="m25.3 4.9c-.2 0-.5 0-.7.1-.4-.6-1.7-1.1-3.1-1.1-1.8 0-3.3.7-3.3 1.6s1.5 1.6 3.3 1.6c.8 0 1.6-.2 2.2-.4.4.2 1 .4 1.6.4 1.2 0 2.2-.5 2.2-1.1s-1-1.1-2.2-1.1z" fill="#baa794"/><path d="m12.5 9c0 .1.1.2.1.3 0 1.1-1.8 2-4 2-1.5 0-2.8-.4-3.5-1 .3 1 1.9 1.7 3.9 1.7 2.2 0 4-.9 4-2 0-.4-.2-.7-.5-1z" opacity=".15"/><path d="m18.1 2.5c0 .1.1.3.1.4 0 1.2-1.9 2.3-4.4 2.3-.7.5-1.7.8-3 .8s-2.4-.4-3-.9c.2.9 1.7 1.6 3.5 1.6 1.2 0 2.3-.3 2.9-.8 2.5-.1 4.4-1.1 4.4-2.3 0-.4-.2-.8-.5-1.1z" opacity=".15"/><path d="m22.8 10.3c0 .1.1.3.1.4 0 1.3-2.2 2.4-4.8 2.4-.8 0-1.6-.1-2.2-.3-.3.4-1 .7-1.9.7-.6 0-1.2-.1-1.5-.4 0 .6.9 1 2 1 .9 0 1.6-.3 1.9-.7.7.2 1.4.3 2.2.3 2.7 0 4.8-1.1 4.8-2.4-.1-.3-.3-.7-.6-1z" opacity=".15"/><path d="m27 5.3c0 .6-1 1.1-2.2 1.1-.7 0-1.2-.1-1.6-.4-.6.3-1.3.4-2.2.4-1.2 0-2.2-.3-2.8-.8.2.8 1.6 1.5 3.3 1.5.8 0 1.6-.2 2.2-.4.4.2 1 .4 1.6.4 1.2 0 2.2-.5 2.2-1.1 0-.2-.2-.5-.5-.7z" opacity=".15"/><ellipse cx="18" cy="10.8" fill="#fff" opacity=".15" rx="3.1" ry="1.5"/><path d="m13.1 1.5c-1.5 0-2.8.6-2.8 1.4 0 .2.1.3.1.4-.7.2-1.2.5-1.2.9 0 .5.8.9 1.8.9.9 0 1.7-.4 1.8-.8h.3c1.5 0 2.8-.6 2.8-1.4 0-.7-1.2-1.4-2.8-1.4z" fill="#fff" opacity=".15"/><ellipse cx="8.4" cy="9.5" fill="#fff" opacity=".15" rx="2.3" ry="1.1"/></svg>