<svg xmlns:xlink="http://www.w3.org/1999/xlink"  enable-background="new 0 0 20 20" height="20" viewBox="0 0 20 20" width="20" xmlns="http://www.w3.org/2000/svg"><path d="m2.8 8.4c5-6.2 10.4 4.3 8.7 6.9-1.3 2.1-14.9 1-8.7-6.9z" fill="#cc291f"/><path d="m3.8 7.4c-.3.3-.6.6-1 1-5.7 7.1 4.8 8.7 8 7.4-4.3.2-12.3-2.4-7-8.4z" opacity=".2"/><g fill="#fc0"><path d="m2.6 12.7c.4-.4.6.6.6.6s-1-.2-.6-.6z"/><path d="m3.4 10.4c.4-.4.6.6.6.6s-1-.2-.6-.6z"/><path d="m5.5 10.2c.4-.4.7.6.7.6s-1.1-.2-.7-.6z"/><path d="m5.6 14.9c.4-.4.7.6.7.6s-1-.1-.7-.6z"/><path d="m8.2 12.3c.4-.4.7.6.7.6s-1.1-.2-.7-.6z"/><path d="m10.6 12.6c.5-.3.5.7.5.7s-1-.4-.5-.7z"/><path d="m6.2 7.6c.4-.5.8.5.8.5s-1.1 0-.8-.5z"/><path d="m5.5 12.5c.4-.4.6.6.6.6s-1-.2-.6-.6z"/><path d="m8.6 14.6c.3-.5.8.4.8.4s-1.1.1-.8-.4z"/><path d="m8.5 9.7c.4-.4.7.6.7.6s-1.2-.1-.7-.6z"/></g><path d="m3.4 9.2c.8 0 1.6-.7 1.6-.7s-.6-.5-1.1-.5-1 .1-1 .1 1.1-.3 1.4-.8.4-1.2.4-1.2-1.8.5-2.2 1.4c-.1.4-.2.6-.3.7-.1-.1-.2-.2-.3-.3-.3-.2-.8-.9-.8-.9l-.2.2s.2.1.4.5c.1.3.3.7.6.9l-.3.3c-1 .8-.8 3-.8 3s1.2-.4 1.6-1.4c.4-.9.2-1.5.2-1.5 0 .1.1.1.8.2z" fill="#539b00"/><path d="m17.2 10.4c-4.3-5.4-9 3.8-7.6 6 1.3 1.8 13.1.8 7.6-6z" fill="#cc291f"/><path d="m16.4 9.6c.3.2.5.5.8.8 4.9 6.2-4.2 7.6-6.9 6.4 3.7.2 10.7-2 6.1-7.2z" opacity=".2"/><path d="m17.4 14.2c-.4-.3-.5.5-.5.5s.9-.2.5-.5z" fill="#fc0"/><path d="m16.7 12.2c-.4-.3-.5.5-.5.5s.9-.2.5-.5z" fill="#fc0"/><path d="m14.9 11.9c-.3-.4-.6.5-.6.5s1-.1.6-.5z" fill="#fc0"/><path d="m14.8 16.1c-.3-.4-.6.5-.6.5s.9-.1.6-.5z" fill="#fc0"/><path d="m12.6 13.8c-.3-.4-.6.5-.6.5s.9-.1.6-.5z" fill="#fc0"/><path d="m10.5 14.1c-.4-.3-.4.6-.4.6s.8-.3.4-.6z" fill="#fc0"/><path d="m14.3 9.7c-.3-.4-.6.4-.6.4s.9 0 .6-.4z" fill="#fc0"/><path d="m14.9 14c-.4-.3-.5.5-.5.5s.9-.1.5-.5z" fill="#fc0"/><path d="m12.2 15.8c-.2-.4-.7.4-.7.4s1 .1.7-.4z" fill="#fc0"/><path d="m12.3 11.6c-.3-.4-.6.5-.6.5s1-.1.6-.5z" fill="#fc0"/><path d="m18.3 10.9-.3-.3c.2-.2.4-.5.5-.8.2-.3.3-.4.3-.4l-.2-.2s-.4.6-.6.8c-.1.1-.2.2-.3.2-.1-.1-.1-.3-.3-.6-.4-.8-1.9-1.2-1.9-1.2s.1.6.4 1 1.2.8 1.2.8-.4-.1-.8-.1-.9.4-.9.4.7.6 1.4.6c.6 0 .6-.1.6-.1s-.2.5.2 1.3 1.4 1.2 1.4 1.2.2-1.9-.7-2.6z" fill="#539b00"/></svg>