<svg xmlns:xlink="http://www.w3.org/1999/xlink"  enable-background="new 0 0 40 40" height="40" viewBox="0 0 40 40" width="40" xmlns="http://www.w3.org/2000/svg"><ellipse cx="19" cy="25.9" opacity=".3" rx="11.4" ry="5.1"/><ellipse cx="20.1" cy="22.3" fill="#539b00" rx="8.2" ry="3.6"/><path d="m16 20.6s2.8.1 5.4-1.1 3.4-3.1 3.4-3.1l-1.1-.5 1.7-.9-.8-.5 1.2-.8-.8-.4 1-1.3-2.4-1 .2-.7-1.8.2v-.8l-3.2 1.3-.1-1s-2.7 2-3.5 4.5c-.9 2.5.8 6.1.8 6.1z" fill="#9c3"/><path d="m16 19.8s-.3-4.2.3-5.7c.6-1.4 1.8-2.5 1.8-2.5l-.3 3 3.4-3.7-.9 2.4 3.9-1.2-2.4 1.5h2.4l-4.1 1.3 3 .4-3.9 1.3 3.5.1s-2.7 1.3-4 1.9c-1.4.6-2.7 1.2-2.7 1.2z" fill="#539b00"/><path d="m10.3 19.4s-1.7-.2-2.7.2-2.1 1.6-2.1 1.6l.5.1-1.5 1.7.3.2-.8 1.8.9.2-1.3 1.8 1-.3-.4 1.6.5.3.2 1.3 1.5-1.3.3.8 1.1-1 .5 1.1 1.1-1.4.4.8 1.5-1.9 1 .7.8-.9.8-.1.6-1.1 1 .3s1.6-1.2 1.8-2.9-.7-3.3-.7-3.3z" fill="#9c3"/><path d="m15.5 20.3s-4.3-.4-5.8-.3-3 1-3 1l4.3-.1-5.4 1.9 2.9-.4-3.5 2.2h1.1l-1.2 1.4 1-.3-.7 3.2 1.9-3-.1 2.3 2.2-4.1s-.2 1.1-.4 2.1-.2 1.6-.2 1.6 1.3-2.6 1.9-3.5 1-1.6 1-1.6l-.7 3.8s1-1.7 2-3.1c1.1-1.5 1.2-1.6 1.2-1.6l-1 4.1s1.6-2 2.1-3.5c.4-1.5.4-2.1.4-2.1z" fill="#539b00"/><path d="m15.9 20.3s1.2.1 1-3.1-1.2-4.8-1.2-4.8l-.3.4s-.6-1.1-1-1.8-2-1.7-2-1.7v.7l-2.2-1.5-.2.6-2.5-1.4v.8l-1.7-1-.5.5-1.5-.6v1.2l-1.2-.9.1 1.2-.5-.2.4 1.3-.5-.2.4 1.5-.6-.3 1.4 2-.8.1s1.1 1.6 1.7 2.1 1.1.8 1.1.8l-1 .1s1.2 1.3 1.8 1.6 1.2.5 1.2.5l-.8.2s1.8 1.3 4.7 1.6 4.7.3 4.7.3z" fill="#9c3"/><path d="m15 19.8-1.5-.6s-1 .1-2-.1-3.2-.9-3.2-.9l4 .2-1-.8s-.7.2-2 0c-1.3-.1-3.3-1.2-3.3-1.2l4 .4-1.4-1s-1.2-.1-2.2-.5c-1.1-.4-2.4-1.5-2.4-1.5l3.1.7-.7-.7s-1.1-.3-1.8-.6-1.4-1.2-1.4-1.2l2.7.8-2.5-3.3 2.4 2-.9-3s1.4 1.8 1.5 2.6.7 1.5.7 1.5l-.1-3.4s.9 1 1.2 2.1.6 2.4.6 2.4l1.3.6-1.1-5.2s1.4 1.3 1.9 2.9.7 3.2.7 3.2l1.2 1.2s.4-1.7.1-2.8-1-3.1-1-3.1 1.7 1.6 2.1 3.5.3 3.4.3 3.4l.4.5s.4-2.2.1-3.6-.8-3-.8-3 1.3 2.4 1.5 5.7.1 3.1.1 3.1z" fill="#539b00"/><path d="m17.5 18.1c6.3 4.9-4.2 10.5-6.7 8.9-2.1-1.4-1.3-15 6.7-8.9z" fill="#cc291f"/><path d="m18.5 19c-.3-.3-.6-.6-1-.9-7.2-5.5-8.6 5-7.3 8.1-.3-4.3 2.2-12.3 8.3-7.2z" opacity=".2"/><g fill="#fc0"><path d="m13.2 18c.4.4-.6.6-.6.6s.2-1.1.6-.6z"/><path d="m15.5 18.7c.4.4-.6.6-.6.6s.2-1 .6-.6z"/><path d="m15.8 20.8c.4.4-.6.7-.6.7s.1-1.1.6-.7z"/><path d="m11 21c.4.4-.5.7-.5.7s.1-1.1.5-.7z"/><path d="m13.7 23.5c.4.4-.6.7-.6.7s.2-1.1.6-.7z"/><path d="m13.4 25.9c.3.5-.7.5-.7.5s.4-1 .7-.5z"/><path d="m18.4 21.5c.5.3-.5.7-.5.7s0-1.1.5-.7z"/><path d="m13.4 20.9c.4.4-.6.6-.6.6s.2-1.1.6-.6z"/><path d="m11.4 24c.5.3-.4.8-.4.8s-.1-1.1.4-.8z"/><path d="m16.3 23.7c.4.4-.6.7-.6.7s.1-1.1.6-.7z"/></g><path d="m18.4 17.8c-.3-.1-.6-.2-.7-.3.1-.1.2-.2.3-.3.2-.3.9-.8.9-.8l-.2-.2s-.1.2-.5.4c-.3.1-.7.3-.9.6l-.3-.3c-.9-1-3-.7-3-.7s.4 1.2 1.4 1.6c.9.4 1.5.2 1.5.2s0 .1-.1.7c0 .8.7 1.6.7 1.6s.4-.6.4-1.1-.2-1-.2-1 .4 1.1.9 1.4 1.2.4 1.2.4-.5-1.8-1.4-2.2z" fill="#9c3"/><path d="m20.9 21.9s-2.7.8-4.9 2.6c-2.2 1.9-2.3 3.9-2.3 3.9l1.2.2-1.4 1.4.9.2-1 1.1.9.2-.4 1.5 2.6.2v.7l1.7-.7.1.9 2.7-2.2.4.9s2-2.7 2.1-5.3c.1-2.7-2.6-5.6-2.6-5.6z" fill="#9c3"/><path d="m21.6 21.6s1.8 4.4 1.5 6.1c-.2 1.8-1.1 3.3-1.1 3.3l-.6-3.3-2.5 5.1.2-2.8-3.8 2.5 2-2.4-2.5.8 3.9-2.8-3.3.6 3.7-2.7-3.8 1s2.4-2.3 3.7-3.3c1.4-1 2.6-2.1 2.6-2.1z" fill="#539b00"/><path d="m28.6 23.9s1.7.3 2.7-.1c1-.3 2.2-1.5 2.2-1.5l-.5-.2 1.7-1.6-.3-.2.9-1.7-.9-.2 1.3-1.8-1 .2.5-1.6-.5-.3-.2-1.3-1.5 1.3-.2-.8-1.2.9-.5-1.1-1.2 1.4-.4-.8-1.5 1.8-1-.7-.9.8h-.8l-.7 1.1-.9-.4s-1.6 1.1-1.9 2.8.6 3.3.6 3.3z" fill="#9c3"/><path d="m23 23.1s4.4.6 6.1.6 3.1-1 3.1-1l-4.5-.1 5.8-1.7-3.1.3 3.8-2.2h-1.1l1.3-1.4-1 .3.9-3.3-2.1 3.1.2-2.4-2.5 4.2s.3-1.1.6-2.1.3-1.6.3-1.6-1.5 2.7-2.1 3.6c-.7.9-1.2 1.6-1.2 1.6l.9-3.9s-1.1 1.7-2.3 3.2-1.3 1.6-1.3 1.6l1.1-4.5s-1.8 2-2.3 3.6-.6 2.1-.6 2.1z" fill="#539b00"/><path d="m21 21.4s-1.2.1-.6 3.3c.6 3.1 1.9 4.6 1.9 4.6l.2-.4s.7 1 1.3 1.7c.5.6 2.2 1.4 2.2 1.4l-.1-.7 2.4 1.2.1-.7 2.7.8-.1-.7 1.8.7.3-.6 1.6.4-.1-1.2 1.3.7-.3-1.2.5.1-.6-1.2.5.1-.6-1.4.6.1-1.7-1.8.8-.2s-1.4-1.5-2-1.9-1.2-.7-1.2-.7l.9-.2s-1.4-1.1-2.1-1.3-1.3-.3-1.3-.3l.8-.3s-2-1-4.9-.9c-2.6.2-4.3.6-4.3.6z" fill="#9c3"/><path d="m21.1 21.1 1.7.4s1-.2 2.1-.2 3.5.4 3.5.4l-4.3.4 1.2.7s.8-.3 2.1-.3 3.6.8 3.6.8l-4.2.2 1.6.8s1.2-.1 2.4.1 2.7 1.2 2.7 1.2l-3.4-.2.8.6s1.2.1 2 .4c.8.2 1.7 1 1.7 1l-2.9-.4 3.2 3-2.9-1.8 1.4 3s-1.7-1.7-2-2.5-.9-1.5-.9-1.5l.7 3.7s-1.1-.9-1.6-2-1-2.5-1-2.5l-1.4-.4 1.9 5.4s-1.7-1.1-2.5-2.8c-.8-1.6-1.3-3.3-1.3-3.3l-1.4-1s-.2 1.8.3 3c.5 1.1 1.6 3.1 1.6 3.1s-2-1.4-2.8-3.4-.8-3.5-.8-3.5l-.5-.5s0 2.4.5 3.9c.5 1.4 1.3 3 1.3 3s-1.8-2.4-2.5-5.8-.6-3.3-.6-3.3z" fill="#539b00"/><path d="m22.7 21.2c4.7-5.9 9.8 4.1 8.2 6.4-1.3 2.1-14.1 1-8.2-6.4z" fill="#cc291f"/><path d="m23.6 20.3c-.3.2-.6.5-.9.9-5.3 6.7 4.5 8.2 7.5 6.9-4 .3-11.5-2.1-6.6-7.8z" opacity=".2"/><path d="m22.5 25.3c.4-.4.6.6.6.6s-1-.2-.6-.6z" fill="#fc0"/><path d="m23.3 23.1c.4-.4.6.6.6.6s-1.1-.2-.6-.6z" fill="#fc0"/><path d="m25.2 22.9c.4-.4.6.5.6.5s-1-.1-.6-.5z" fill="#fc0"/><path d="m25.4 27.4c.3-.4.7.5.7.5s-1.1-.1-.7-.5z" fill="#fc0"/><path d="m27.8 24.9c.4-.4.6.5.6.5s-1-.1-.6-.5z" fill="#fc0"/><path d="m30 25.2c.5-.3.5.7.5.7s-1-.4-.5-.7z" fill="#fc0"/><path d="m25.9 20.5c.3-.4.7.5.7.5s-1-.1-.7-.5z" fill="#fc0"/><path d="m25.2 25.1c.4-.4.6.6.6.6s-1-.2-.6-.6z" fill="#fc0"/><path d="m28.1 27.1c.3-.5.7.4.7.4s-1 .1-.7-.4z" fill="#fc0"/><path d="m28 22.5c.4-.4.6.5.6.5s-1-.1-.6-.5z" fill="#fc0"/><path d="m23.2 22c.7 0 1.5-.7 1.5-.7s-.5-.4-1-.4-.9.1-.9.1 1-.3 1.3-.8.4-1.1.4-1.1-1.7.4-2.1 1.3c-.1.3-.2.5-.3.6-.1-.1-.2-.2-.3-.3-.3-.2-.7-.8-.7-.8l-.2.2s.2.1.4.5c.1.3.3.7.6.9l-.3.3c-1 .8-.7 2.8-.7 2.8s1.1-.4 1.5-1.3.2-1.4.2-1.4c-.1 0 0 0 .6.1z" fill="#9c3"/></svg>