<svg xmlns:xlink="http://www.w3.org/1999/xlink"  enable-background="new 0 0 64 64" height="64" viewBox="0 0 64 64" width="64" xmlns="http://www.w3.org/2000/svg"><path d="m31.8 21.8s-3.4-10.4-7.1-7.8c1.1-1.6 2.6-2.1 4.4-.9 2.5 1.7 2.9 7.8 2.7 8.7z" fill="#539b00"/><path d="m30.9 24s2.4-11.4-1.5-18.5c3.9 3.8 4.7 9.5 1.5 18.5z" fill="#539b00"/><path d="m31.9 27.4s.7-15.8 8.6-17.1c-3.3-2.2-11.2 6.3-8.6 17.1z" fill="#539b00"/><path d="m17.6 24s-1.1-2.8-.5-3.4 1.8-.3 1.8-.3-1.2-.1-1.3 3.7z" fill="#539b00"/><path d="m17.6 24s-1.1-2.8-.5-3.4 1.8-.3 1.8-.3-1.2-.1-1.3 3.7z" opacity=".2"/><path d="m23.7 25.1s-3.1-6.1-6.5-4.6c1-.9 2.4-1.2 4.1-.5 2.2 1 2.6 4.6 2.4 5.1z" fill="#539b00"/><path d="m24.1 24.4s-3.4-10.4-7.1-7.8c1.1-1.6 2.6-2.1 4.4-.9 2.5 1.7 2.9 7.8 2.7 8.7z" fill="#539b00"/><path d="m23 24h2v16h-2z" fill="#9c3"/><path d="m24.1 26.3s-1-11.6 3.7-18.2c-4.4 3.2-5.8 8.9-3.7 18.2z" fill="#539b00"/><path d="m23.8 27.7s1.3-12.5 8.4-13c-2.8-2.3-9.8 3.2-8.4 13z" fill="#539b00"/><path d="m39.7 25.1s-3.1-6.1-6.5-4.6c1-.9 2.4-1.2 4.1-.5 2.2 1 2.6 4.6 2.4 5.1z" fill="#539b00"/><path d="m40.1 24.4s-3.4-10.4-7.1-7.8c1.1-1.6 2.6-2.1 4.4-.9 2.5 1.7 2.9 7.8 2.7 8.7z" fill="#539b00"/><path d="m39 24h2v16h-2z" fill="#9c3"/><path d="m40.1 26.3s-1-11.6 3.7-18.2c-4.4 3.2-5.8 8.9-3.7 18.2z" fill="#539b00"/><path d="m39.9 28.8s.3-14.2 8.2-15.5c-3.3-2.2-10.8 4.7-8.2 15.5z" fill="#539b00"/><path d="m32.1 29.3s-3.3-6.4-6.9-4.8c1.1-1 2.5-1.3 4.3-.6 2.3 1 2.7 4.8 2.6 5.4z" fill="#539b00"/><path d="m32.1 28.4s-3.4-10.4-7.1-7.8c1.1-1.6 2.6-2.1 4.4-.9 2.5 1.7 2.9 7.8 2.7 8.7z" fill="#539b00"/><path d="m31 28h2v16h-2z" fill="#9c3"/><path d="m32.5 30.4s.2-12.5 7.2-13.7c-2.9-1.9-9.5 4.2-7.2 13.7z" fill="#539b00"/><path d="m16.1 30.6s-3.5-7.6-7-6.1c1-.9 2.4-1.2 4.1-.5 2.3 1 3.1 6.1 2.9 6.6z" fill="#539b00"/><path d="m16.1 28.4s-3.4-10.4-7.1-7.8c1.1-1.6 2.6-2.1 4.4-.9 2.5 1.7 2.9 7.8 2.7 8.7z" fill="#539b00"/><path d="m15.8 29.8s1-11.6-3.7-18.2c4.3 3.3 5.7 8.9 3.7 18.2z" fill="#539b00"/><path d="m16.1 35.7s.7-15.8 8.6-17.1c-3.2-2.2-11.1 6.3-8.6 17.1z" fill="#539b00"/><path d="m1.6 32s-1.1-2.8-.5-3.4c.7-.7 1.9-.4 1.9-.4s-1.3 0-1.4 3.8z" fill="#539b00"/><path d="m1.6 32s-1.1-2.8-.5-3.4c.7-.7 1.9-.4 1.9-.4s-1.3 0-1.4 3.8z" opacity=".2"/><path d="m7.7 33.1s-3.1-6.1-6.5-4.6c1-.9 2.4-1.2 4.1-.5 2.2 1 2.6 4.6 2.4 5.1z" fill="#539b00"/><path d="m8.1 32.4s-3.4-10.4-7.1-7.8c1.1-1.6 2.6-2.1 4.4-.9 2.5 1.7 2.9 7.8 2.7 8.7z" fill="#539b00"/><path d="m7 32h2v16h-2z" fill="#9c3"/><path d="m7 35h2v1h-2z" fill="#baa794"/><path d="m7 41h2v1h-2z" fill="#baa794"/><path d="m7 44h2v1h-2z" fill="#baa794"/><path d="m7.1 38.5s.9-4.9.4-5.9-1.5-.5-1.5-.5 1 .1 1.1 6.4z" fill="#539b00"/><path d="m7.1 38.5s.9-4.9.4-5.9-1.5-.5-1.5-.5 1 .1 1.1 6.4z" opacity=".2"/><path d="m2.2 40.5s2.5-10.4 5.2-7.8c-.8-1.6-1.9-2.1-3.3-.9-1.7 1.6-2 7.7-1.9 8.7z" fill="#539b00"/><path d="m7 38h2v1h-2z" fill="#baa794"/><path d="m8.4 34.3s-1-11.6 3.7-18.2c-4.3 3.2-5.7 8.9-3.7 18.2z" fill="#539b00"/><path d="m8.6 34.8s.2-10.8 6.2-11.8c-2.5-1.7-8.2 3.6-6.2 11.8z" fill="#539b00"/><path d="m23.7 33.1s-3.1-6.1-6.5-4.6c1-.9 2.4-1.2 4.1-.5 2.2 1 2.6 4.6 2.4 5.1z" fill="#539b00"/><path d="m24.1 32.4s-3.4-10.4-7.1-7.8c1.1-1.6 2.6-2.1 4.4-.9 2.5 1.7 2.9 7.8 2.7 8.7z" fill="#539b00"/><path d="m30.6 33.5s1.1-4.5.5-5.4-1.8-.5-1.8-.5 1.2 0 1.3 5.9z" fill="#539b00"/><path d="m30.6 33.5s1.1-4.5.5-5.4-1.8-.5-1.8-.5 1.2 0 1.3 5.9z" opacity=".2"/><path d="m24.5 35.3s3.1-9.6 6.5-7.2c-1-1.5-2.4-2-4.1-.8-2.1 1.5-2.5 7.1-2.4 8z" fill="#539b00"/><path d="m24.2 33.7s.2-12.5 7.2-13.7c-2.9-1.9-9.5 4.1-7.2 13.7z" fill="#539b00"/><path d="m9.6 36s-1.1-2.8-.5-3.4 1.8-.3 1.8-.3-1.2-.1-1.3 3.7z" fill="#539b00"/><path d="m9.6 36s-1.1-2.8-.5-3.4 1.8-.3 1.8-.3-1.2-.1-1.3 3.7z" opacity=".2"/><path d="m16.1 37.3s-3.3-6.4-6.9-4.8c1.1-1 2.5-1.3 4.3-.6 2.3 1 2.7 4.8 2.6 5.4z" fill="#539b00"/><path d="m16.1 36.4s-3.4-10.4-7.1-7.8c1.1-1.6 2.6-2.1 4.4-.9 2.5 1.7 2.9 7.8 2.7 8.7z" fill="#539b00"/><path d="m15 36h2v16h-2z" fill="#9c3"/><path d="m22.8 37.8s1.1-4.5.5-5.4-1.8-.5-1.8-.5 1.2.1 1.3 5.9z" fill="#539b00"/><path d="m22.8 37.8s1.1-4.5.5-5.4-1.8-.5-1.8-.5 1.2.1 1.3 5.9z" opacity=".2"/><path d="m16.7 39.6s3.1-9.6 6.5-7.2c-1-1.5-2.4-2-4.1-.8-2.2 1.5-2.6 7.1-2.4 8z" fill="#539b00"/><path d="m16.5 42.6c-.3-2.9 3.8-6.9 4.3 2.1-1.9-6.1-2.8-4.3-4.3-2.1z" fill="#539b00"/><path d="m15 39h2v1h-2z" fill="#baa794"/><path d="m15 45h2v1h-2z" fill="#baa794"/><path d="m15 48h2v1h-2z" fill="#baa794"/><path d="m15.1 42.3s.8-4.7.4-5.7c-.5-1-1.4-.5-1.4-.5s.9 0 1 6.2z" fill="#539b00"/><path d="m15.1 42.3s.8-4.7.4-5.7c-.5-1-1.4-.5-1.4-.5s.9 0 1 6.2z" opacity=".2"/><path d="m10.4 44.1s2.4-10.1 5.1-7.5c-.8-1.6-1.9-2.1-3.1-.9-1.9 1.6-2.2 7.6-2 8.4z" fill="#539b00"/><path d="m15 42h2v1h-2z" fill="#baa794"/><g fill="#539b00"><path d="m16.7 38.4s.2-12.5 7.2-13.7c-2.9-1.9-9.5 4.2-7.2 13.7z"/><path d="m48.1 30.5s-3.5-7.6-7-6.1c1-.9 2.4-1.2 4.1-.5 2.3 1 3.1 6.1 2.9 6.6z"/><path d="m48.1 28.3s-3.4-10.4-7.1-7.8c1.1-1.6 2.6-2.1 4.4-.9 2.5 1.7 2.9 7.8 2.7 8.7z"/><path d="m48.5 34.5c-.3-2.9 3.8-6.9 4.3 2.1-1.9-6.1-2.8-4.3-4.3-2.1z"/><path d="m47.6 31.7s1-11.6-3.7-18.2c4.3 3.3 5.7 8.9 3.7 18.2z"/><path d="m47.9 35.3s.7-15.8 8.6-17.1c-3.3-2.1-11.2 6.4-8.6 17.1z"/><path d="m33.6 31.9s-1.1-2.8-.5-3.4 1.8-.3 1.8-.3-1.2 0-1.3 3.7z"/></g><path d="m33.6 31.9s-1.1-2.8-.5-3.4 1.8-.3 1.8-.3-1.2 0-1.3 3.7z" opacity=".2"/><path d="m39.7 33s-3.1-6.1-6.5-4.6c1-.9 2.4-1.2 4.1-.5 2.2 1 2.6 4.6 2.4 5.1z" fill="#539b00"/><path d="m40.1 32.3s-3.4-10.4-7.1-7.8c1.1-1.6 2.6-2.1 4.4-.9 2.5 1.7 2.9 7.8 2.7 8.7z" fill="#539b00"/><path d="m40.3 33.4s.2-12.5 7.2-13.7c-2.9-1.9-9.5 4.1-7.2 13.7z" fill="#539b00"/><path d="m55.7 33s-3.1-6.1-6.5-4.6c1-.9 2.4-1.2 4.1-.5 2.2 1 2.6 4.6 2.4 5.1z" fill="#539b00"/><path d="m56.1 32.3s-3.4-10.4-7.1-7.8c1.1-1.6 2.6-2.1 4.4-.9 2.5 1.7 2.9 7.8 2.7 8.7z" fill="#539b00"/><path d="m55 31.9h2v16h-2z" fill="#9c3"/><path d="m62.8 33.7s1.1-4.5.5-5.4-1.8-.5-1.8-.5 1.2.1 1.3 5.9z" fill="#539b00"/><path d="m62.8 33.7s1.1-4.5.5-5.4-1.8-.5-1.8-.5 1.2.1 1.3 5.9z" opacity=".2"/><path d="m56.7 35.5s3.1-9.6 6.5-7.2c-1-1.5-2.4-2-4.1-.8-2.2 1.5-2.6 7.1-2.4 8z" fill="#539b00"/><path d="m56.6 34.9c-.3-2.9 3.9-6.9 4.3 2.1-1.9-6.1-2.8-4.3-4.3-2.1z" fill="#539b00"/><path d="m55 34.9h2v1h-2z" fill="#baa794"/><path d="m55 40.9h2v1h-2z" fill="#baa794"/><path d="m55 43.9h2v1h-2z" fill="#baa794"/><path d="m55 37.9h2v1h-2z" fill="#baa794"/><path d="m56.1 34.2s-1-11.6 3.7-18.2c-4.4 3.3-5.8 8.9-3.7 18.2z" fill="#539b00"/><path d="m56.5 34.4s.2-12.5 7.2-13.7c-2.9-2-9.5 4.1-7.2 13.7z" fill="#539b00"/><path d="m48.1 37.2s-3.3-6.4-6.9-4.8c1.1-1 2.5-1.3 4.3-.6 2.3 1 2.7 4.8 2.6 5.4z" fill="#539b00"/><path d="m48.1 36.3s-3.4-10.4-7.1-7.8c1.1-1.6 2.6-2.1 4.4-.9 2.5 1.7 2.9 7.8 2.7 8.7z" fill="#539b00"/><path d="m47 35.9h2v16h-2z" fill="#9c3"/><path d="m54.8 37.7s1.1-4.5.5-5.4-1.8-.5-1.8-.5 1.2.1 1.3 5.9z" fill="#539b00"/><path d="m54.8 37.7s1.1-4.5.5-5.4-1.8-.5-1.8-.5 1.2.1 1.3 5.9z" opacity=".2"/><path d="m48.7 39.5s3.1-9.6 6.5-7.2c-1-1.5-2.4-2-4.1-.8-2.2 1.5-2.6 7.1-2.4 8z" fill="#539b00"/><path d="m48.5 42.5c-.3-2.9 3.8-6.9 4.3 2.1-1.9-6.1-2.8-4.3-4.3-2.1z" fill="#539b00"/><path d="m47 38.9h2v1h-2z" fill="#baa794"/><path d="m47 44.9h2v1h-2z" fill="#baa794"/><path d="m47 47.9h2v1h-2z" fill="#baa794"/><path d="m47 41.9h2v1h-2z" fill="#baa794"/><path d="m48.5 38.4s.2-12.5 7.2-13.7c-2.9-2-9.5 4.1-7.2 13.7z" fill="#539b00"/><path d="m31.9 39.5s-1.7-8.2-5.4-7.5c1.2-.7 2.6-.7 4.1.4 2 1.5 1.6 6.7 1.3 7.1z" fill="#539b00"/><path d="m32.5 42.5c-.3-2.9 3.8-6.9 4.3 2.1-1.9-6.1-2.8-4.3-4.3-2.1z" fill="#539b00"/><path d="m32.7 39.1s-1-11.6 3.7-18.2c-4.3 3.2-5.8 8.9-3.7 18.2z" fill="#539b00"/><path d="m17.6 39.9s-1.1-2.8-.5-3.4 1.8-.3 1.8-.3-1.2 0-1.3 3.7z" fill="#539b00"/><path d="m17.6 39.9s-1.1-2.8-.5-3.4 1.8-.3 1.8-.3-1.2 0-1.3 3.7z" opacity=".2"/><path d="m23.7 41s-3.1-6.1-6.5-4.6c1-.9 2.4-1.2 4.1-.5 2.2 1 2.6 4.6 2.4 5.1z" fill="#539b00"/><path d="m24.1 40.3s-3.4-10.4-7.1-7.8c1.1-1.6 2.6-2.1 4.4-.9 2.5 1.7 2.9 7.8 2.7 8.7z" fill="#539b00"/><path d="m23 39.9h2v16h-2z" fill="#9c3"/><path d="m23 42.9h2v1h-2z" fill="#baa794"/><path d="m23 48.9h2v1h-2z" fill="#baa794"/><path d="m23 51.9h2v1h-2z" fill="#baa794"/><path d="m23.1 46.4s.9-4.9.4-5.9-1.5-.5-1.5-.5 1 .1 1.1 6.4z" fill="#539b00"/><path d="m23.1 46.4s.9-4.9.4-5.9-1.5-.5-1.5-.5 1 .1 1.1 6.4z" opacity=".2"/><path d="m18.2 48.4s2.5-10.4 5.2-7.8c-.8-1.6-1.9-2.1-3.3-.9-1.7 1.6-2 7.8-1.9 8.7z" fill="#539b00"/><path d="m23 45.9h2v1h-2z" fill="#baa794"/><path d="m24.6 42.7s.2-12.5 7.2-13.7c-2.8-1.9-9.4 4.1-7.2 13.7z" fill="#539b00"/><path d="m39.7 41s-3.1-6.1-6.5-4.6c1-.9 2.4-1.2 4.1-.5 2.2 1 2.6 4.6 2.4 5.1z" fill="#539b00"/><path d="m40.1 40.3s-3.4-10.4-7.1-7.8c1.1-1.6 2.6-2.1 4.4-.9 2.5 1.7 2.9 7.8 2.7 8.7z" fill="#539b00"/><path d="m39 39.9h2v16h-2z" fill="#9c3"/><path d="m39 42.9h2v1h-2z" fill="#baa794"/><path d="m39 48.9h2v1h-2z" fill="#baa794"/><path d="m39 51.9h2v1h-2z" fill="#baa794"/><path d="m39 45.9h2v1h-2z" fill="#baa794"/><path d="m40.6 42.6s-1-11.6 3.7-18.2c-4.3 3.3-5.8 9-3.7 18.2z" fill="#539b00"/><path d="m40.5 42.4s.2-12.5 7.2-13.7c-2.9-2-9.5 4.1-7.2 13.7z" fill="#539b00"/><path d="m25.6 43.9s-1.1-2.8-.5-3.4 1.8-.3 1.8-.3-1.2 0-1.3 3.7z" fill="#539b00"/><path d="m25.6 43.9s-1.1-2.8-.5-3.4 1.8-.3 1.8-.3-1.2 0-1.3 3.7z" opacity=".2"/><path d="m32.1 45.2s-3.3-6.4-6.9-4.8c1.1-1 2.5-1.3 4.3-.6 2.3 1 2.7 4.8 2.6 5.4z" fill="#539b00"/><path d="m32.1 44.3s-3.4-10.4-7.1-7.8c1.1-1.6 2.6-2.1 4.4-.9 2.5 1.7 2.9 7.8 2.7 8.7z" fill="#539b00"/><path d="m31 43.9h2v16h-2z" fill="#9c3"/><path d="m38.8 45.7s1.1-4.5.5-5.4-1.8-.5-1.8-.5 1.2.1 1.3 5.9z" fill="#539b00"/><path d="m38.8 45.7s1.1-4.5.5-5.4-1.8-.5-1.8-.5 1.2.1 1.3 5.9z" opacity=".2"/><path d="m32.7 47.5s3.1-9.6 6.5-7.2c-1-1.5-2.4-2-4.1-.8-2.2 1.5-2.6 7.1-2.4 8z" fill="#539b00"/><path d="m32.5 50.5c-.3-2.9 3.8-6.9 4.3 2.1-1.9-6.1-2.8-4.3-4.3-2.1z" fill="#539b00"/><path d="m31 46.9h2v1h-2z" fill="#baa794"/><path d="m31 52.9h2v1h-2z" fill="#baa794"/><path d="m31 55.9h2v1h-2z" fill="#baa794"/><path d="m31.1 50.2s.8-4.7.4-5.7c-.6-1-1.5-.5-1.5-.5s1 0 1.1 6.2z" fill="#539b00"/><path d="m31.1 50.2s.8-4.7.4-5.7c-.6-1-1.5-.5-1.5-.5s1 0 1.1 6.2z" opacity=".2"/><path d="m26.4 52s2.4-10.1 5.1-7.5c-.8-1.6-1.9-2.1-3.1-.9-1.9 1.7-2.2 7.6-2 8.4z" fill="#539b00"/><path d="m31 49.9h2v1h-2z" fill="#baa794"/><path d="m32.3 44.9s.2-12.5 7.2-13.7c-2.8-1.9-9.4 4.1-7.2 13.7z" fill="#539b00"/><path d="m46.6 43.8s1.1-4.5.5-5.4-1.9-.4-1.9-.4 1.3 0 1.4 5.8z" fill="#539b00"/><path d="m46.6 43.8s1.1-4.5.5-5.4-1.9-.4-1.9-.4 1.3 0 1.4 5.8z" opacity=".2"/><path d="m40.5 45.6s3.1-9.6 6.5-7.2c-1-1.5-2.4-2-4.1-.8-2.2 1.5-2.5 7.2-2.4 8z" fill="#539b00"/></svg>