<svg xmlns:xlink="http://www.w3.org/1999/xlink"  enable-background="new 0 0 32 48" height="48" viewBox="0 0 32 48" width="32" xmlns="http://www.w3.org/2000/svg"><g fill="#539b00"><path d="m15.9 23.3s-3.5-7.6-7-6.1c1-.9 2.4-1.2 4.1-.5 2.2 1 3 6.1 2.9 6.6z"/><path d="m16 20.9s-3.4-10.4-7.1-7.8c1.1-1.6 2.6-2.1 4.4-.9 2.5 1.7 2.9 7.8 2.7 8.7z"/><path d="m16.5 26.5c-.3-2.9 3.8-6.9 4.3 2.1-1.9-6.1-2.8-4.3-4.3-2.1z"/><path d="m16.2 22.2s-1-11.6 3.7-18.2c-4.3 3.3-5.7 8.9-3.7 18.2z"/><path d="m15.9 27.3s.7-15.8 8.6-17.1c-3.3-2.1-11.2 6.4-8.6 17.1z"/><path d="m1.6 23.9s-1.1-2.8-.5-3.4c.7-.6 1.9-.4 1.9-.4s-1.3.1-1.4 3.8z"/></g><path d="m1.6 23.9s-1.1-2.8-.5-3.4c.7-.6 1.9-.4 1.9-.4s-1.3.1-1.4 3.8z" opacity=".2"/><path d="m7.7 25s-3.1-6.1-6.5-4.6c1-.9 2.4-1.2 4.1-.5 2.2 1 2.6 4.6 2.4 5.1z" fill="#539b00"/><path d="m8.1 24.3s-3.4-10.4-7.1-7.8c1.1-1.6 2.6-2.1 4.4-.9 2.5 1.7 2.9 7.8 2.7 8.7z" fill="#539b00"/><path d="m7 23.9h2v16h-2z" fill="#9c3"/><path d="m7 26.9h2v1h-2z" fill="#baa794"/><path d="m7 32.9h2v1h-2z" fill="#baa794"/><path d="m7 35.9h2v1h-2z" fill="#baa794"/><path d="m7.1 30.4s.9-4.9.4-5.9-1.5-.5-1.5-.5 1 .1 1.1 6.4z" fill="#539b00"/><path d="m7.1 30.4s.9-4.9.4-5.9-1.5-.5-1.5-.5 1 .1 1.1 6.4z" opacity=".2"/><path d="m2.2 32.4s2.5-10.4 5.2-7.8c-.8-1.6-1.9-2.1-3.3-.9-1.7 1.6-2 7.8-1.9 8.7z" fill="#539b00"/><path d="m7 29.9h2v1h-2z" fill="#baa794"/><path d="m7.2 25.3s2.2-11.5-1.9-18.5c4 3.7 4.9 9.5 1.9 18.5z" fill="#539b00"/><path d="m8.6 26.7s.2-12.5 7.2-13.7c-2.8-1.9-9.4 4.1-7.2 13.7z" fill="#539b00"/><path d="m23.7 25s-3.1-6.1-6.5-4.6c1-.9 2.4-1.2 4.1-.5 2.2 1 2.6 4.6 2.4 5.1z" fill="#539b00"/><path d="m24.1 24.3s-3.4-10.4-7.1-7.8c1.1-1.6 2.6-2.1 4.4-.9 2.5 1.7 2.9 7.8 2.7 8.7z" fill="#539b00"/><path d="m23 23.9h2v16h-2z" fill="#9c3"/><path d="m30.8 25.7s1.1-4.5.5-5.4-1.8-.5-1.8-.5 1.2.1 1.3 5.9z" fill="#539b00"/><path d="m30.8 25.7s1.1-4.5.5-5.4-1.8-.5-1.8-.5 1.2.1 1.3 5.9z" opacity=".2"/><path d="m24.7 27.5s3.1-9.6 6.5-7.2c-1-1.5-2.4-2-4.1-.8-2.2 1.5-2.6 7.1-2.4 8z" fill="#539b00"/><path d="m24.5 30.5c-.3-2.9 3.8-6.9 4.3 2.1-1.9-6.1-2.8-4.3-4.3-2.1z" fill="#539b00"/><path d="m23 26.9h2v1h-2z" fill="#baa794"/><path d="m23 32.9h2v1h-2z" fill="#baa794"/><path d="m23 35.9h2v1h-2z" fill="#baa794"/><path d="m23 29.9h2v1h-2z" fill="#baa794"/><path d="m24.1 26.2s-1-11.6 3.7-18.2c-4.4 3.3-5.8 8.9-3.7 18.2z" fill="#539b00"/><path d="m24.5 26.4s.2-12.5 7.2-13.7c-2.9-2-9.5 4.1-7.2 13.7z" fill="#539b00"/><path d="m16.1 29.4s-3.4-10.4-7.1-7.8c1.1-1.6 2.6-2.1 4.4-.9 2.4 1.7 2.8 7.8 2.7 8.7z" fill="#539b00"/><path d="m15 27.9h2v16h-2z" fill="#9c3"/><path d="m22.8 29.7s1.1-4.5.5-5.4-1.8-.5-1.8-.5 1.2.1 1.3 5.9z" fill="#539b00"/><path d="m22.8 29.7s1.1-4.5.5-5.4-1.8-.5-1.8-.5 1.2.1 1.3 5.9z" opacity=".2"/><path d="m16.7 31.5s3.1-9.6 6.5-7.2c-1-1.5-2.4-2-4.1-.8-2.2 1.5-2.6 7.1-2.4 8z" fill="#539b00"/><path d="m15 30.9h2v1h-2z" fill="#baa794"/><path d="m15 36.9h2v1h-2z" fill="#baa794"/><path d="m15 39.9h2v1h-2z" fill="#baa794"/><path d="m15 33.9h2v1h-2z" fill="#baa794"/><path d="m16.5 30.4s.2-12.5 7.2-13.7c-2.9-2-9.5 4.1-7.2 13.7z" fill="#539b00"/><path d="m15.2 36s.8-4.7.4-5.7c-.5-1-1.4-.5-1.4-.5s.9.1 1 6.2z" fill="#539b00"/><path d="m15.2 36s.8-4.7.4-5.7c-.5-1-1.4-.5-1.4-.5s.9.1 1 6.2z" opacity=".2"/><path d="m10.5 37.9s2.4-10.1 5.1-7.5c-.8-1.6-1.9-2.1-3.1-.9-1.8 1.6-2.1 7.5-2 8.4z" fill="#539b00"/><path d="m15.8 30.1s-3.3-6.4-6.9-4.8c1.1-1 2.5-1.3 4.3-.6 2.4 1 2.8 4.8 2.6 5.4z" fill="#539b00"/><path d="m16.5 33c-.3-2.9 3.8-6.9 4.3 2.1-1.9-6.1-2.8-4.3-4.3-2.1z" fill="#539b00"/></svg>