<svg xmlns:xlink="http://www.w3.org/1999/xlink"  enable-background="new 0 0 16 32" height="32" viewBox="0 0 16 32" width="16" xmlns="http://www.w3.org/2000/svg"><path d="m1.6 16s-1.1-2.8-.5-3.4 1.9-.4 1.9-.4-1.3 0-1.4 3.8z" fill="#539b00"/><path d="m1.6 16s-1.1-2.8-.5-3.4 1.9-.4 1.9-.4-1.3 0-1.4 3.8z" opacity=".2"/><path d="m7.7 17.1s-3.1-6.1-6.5-4.6c1-.9 2.4-1.2 4.1-.5 2.2 1 2.6 4.6 2.4 5.1z" fill="#539b00"/><path d="m8.1 16.4s-3.4-10.4-7.1-7.8c1.1-1.6 2.6-2.1 4.4-.9 2.5 1.7 2.9 7.8 2.7 8.7z" fill="#539b00"/><path d="m7 16h2v16h-2z" fill="#9c3"/><path d="m14.8 17.8s1.1-4.5.5-5.4-1.8-.5-1.8-.5 1.2.1 1.3 5.9z" fill="#539b00"/><path d="m14.8 17.8s1.1-4.5.5-5.4-1.8-.5-1.8-.5 1.2.1 1.3 5.9z" opacity=".2"/><path d="m8.7 19.6s3.1-9.6 6.5-7.2c-1-1.5-2.4-2-4.1-.8-2.2 1.5-2.6 7.1-2.4 8z" fill="#539b00"/><path d="m8.5 22.6c-.3-2.9 3.8-6.9 4.3 2.1-1.9-6.1-2.8-4.3-4.3-2.1z" fill="#539b00"/><g fill="#baa794"><path d="m7 19h2v1h-2z"/><path d="m7 25h2v1h-2z"/><path d="m7 28h2v1h-2z"/></g><path d="m7.1 22.5s.9-4.9.4-5.9-1.5-.5-1.5-.5 1 .1 1.1 6.4z" fill="#539b00"/><path d="m7.1 22.5s.9-4.9.4-5.9-1.5-.5-1.5-.5 1 .1 1.1 6.4z" opacity=".2"/><path d="m2.2 24.5s2.5-10.4 5.2-7.8c-.8-1.6-1.9-2.1-3.3-.9-1.7 1.6-2 7.7-1.9 8.7z" fill="#539b00"/><path d="m7 22h2v1h-2z" fill="#baa794"/><path d="m8.1 18.3s-1-11.6 3.7-18.2c-4.4 3.2-5.8 8.9-3.7 18.2z" fill="#539b00"/><path d="m8.5 18.4s.2-12.5 7.2-13.7c-2.9-1.9-9.5 4.2-7.2 13.7z" fill="#539b00"/></svg>