<svg xmlns:xlink="http://www.w3.org/1999/xlink"  enable-background="new 0 0 96 96" height="96" viewBox="0 0 96 96" width="96" xmlns="http://www.w3.org/2000/svg"><g clip-rule="evenodd" fill-rule="evenodd"><g fill="#fc0"><path d="m48 25.7 7-21.7-.1 22.8 13.3-18.5-7.1 21.7 18.4-13.5-13.5 18.4 21.7-7.1-18.5 13.3 22.8-.1-21.7 7 21.7 7-22.8-.1 18.5 13.3-21.7-7.1 13.5 18.4-18.4-13.5 7.1 21.7-13.3-18.5.1 22.8-7-21.7-7 21.7.1-22.8-13.3 18.5 7.1-21.7-18.4 13.5 13.5-18.4-21.7 7.1 18.5-13.3-22.8.1 21.7-7-21.7-7 22.8.1-18.5-13.3 21.7 7.1-13.5-18.4 18.4 13.5-7.1-21.7 13.3 18.5-.1-22.8z" opacity=".5"/><path d="m31 31-11.2-21.8 17.3 17.4-3.9-24.3 11 22 3.8-24.3 3.8 24.3 11-22-3.9 24.3 17.3-17.4-11.2 21.8 21.8-11.2-17.4 17.3 24.3-3.9-22 11 24.3 3.8-24.3 3.8 22 11-24.3-3.9 17.4 17.3-21.8-11.2 11.2 21.8-17.3-17.4 3.9 24.3-11-22-3.8 24.3-3.8-24.3-11 22 3.9-24.3-17.3 17.4 11.2-21.8-21.8 11.2 17.4-17.3-24.3 3.9 22-11-24.3-3.8 24.3-3.8-22-11 24.3 3.9-17.4-17.3z" opacity=".3"/><path d="m33.9 33.9-9.4-18.3 14.4 14.6-3.3-20.2 9.3 18.2 3.1-20.2 3.1 20.2 9.3-18.2-3.3 20.2 14.4-14.6-9.4 18.3 18.3-9.4-14.6 14.4 20.2-3.3-18.2 9.3 20.2 3.1-20.2 3.1 18.2 9.3-20.2-3.3 14.6 14.4-18.3-9.4 9.4 18.3-14.4-14.6 3.3 20.2-9.3-18.2-3.1 20.2-3.1-20.2-9.3 18.2 3.3-20.2-14.4 14.6 9.4-18.3-18.3 9.4 14.6-14.4-20.2 3.3 18.2-9.3-20.2-3.1 20.2-3.1-18.2-9.3 20.2 3.3-14.6-14.4z" opacity=".7"/></g><path d="m48 28.8 6-18.8-.1 19.7 11.6-16-6.2 18.7 15.9-11.6-11.6 15.9 18.7-6.2-16 11.6 19.7-.1-18.8 6 18.8 6-19.7-.1 16 11.6-18.7-6.2 11.6 15.9-15.9-11.6 6.2 18.7-11.6-16 .1 19.7-6-18.8-6 18.8.1-19.7-11.6 16 6.2-18.7-15.9 11.6 11.6-15.9-18.7 6.2 16-11.6-19.7.1 18.8-6-18.8-6 19.7.1-16-11.6 18.7 6.2-11.6-15.9 15.9 11.6-6.2-18.7 11.6 16-.1-19.7z" fill="#f90"/><path d="m34.3 34.3-5.1-12.2 10 8.6-1.1-13.1 6.9 11.2 3-12.8 3 12.8 6.9-11.2-1.1 13.1 10-8.6-5.1 12.2 12.2-5.1-8.6 10 13.1-1.1-11.2 6.9 12.8 3-12.8 3 11.2 6.9-13.1-1.1 8.6 10-12.2-5.1 5.1 12.2-10-8.6 1.1 13.1-6.9-11.2-3 12.8-3-12.8-6.9 11.2 1.1-13.1-10 8.6 5.1-12.2-12.2 5.1 8.6-10-13.1 1.1 11.2-6.9-12.8-3 12.8-3-11.2-6.9 13.1 1.1-8.6-10z" fill="#f90"/><path d="m48 75.2c15 0 27.2-12.2 27.2-27.2s-12.2-27.2-27.2-27.2-27.2 12.2-27.2 27.2 12.2 27.2 27.2 27.2z" fill="#f90"/></g></svg>