<svg xmlns:xlink="http://www.w3.org/1999/xlink"  enable-background="new 0 0 32 40" height="40" viewBox="0 0 32 40" width="32" xmlns="http://www.w3.org/2000/svg"><path d="m21.5 13.3c-1.1-1.7-2.6.9-2.6.9s3.6.8 2.6-.9z" fill="#539b00"/><path d="m22.7 15c-2.4-.2-1 3.1-1 3.1s3.4-2.9 1-3.1z" fill="#539b00"/><path d="m21.8 11.6c2-1.2-1-3.1-1-3.1s-1 4.3 1 3.1z" fill="#539b00"/><path d="m24.3 14.1c-1.1 1.3 2.9 3.3 2.9 3.3s-1.8-4.6-2.9-3.3z" fill="#539b00"/><path d="m23.8 12c.7 2.3 2.8-1.3 2.8-1.3s-3.4-1-2.8 1.3z" fill="#539b00"/><path d="m24.2 20.5c.6 2.2 2.4-.8 3.3-1.3-1.3-1-4.9-.6-3.3 1.3z" fill="#539b00"/><path d="m23.8 32h.7l-.4-18.6-.4-.1z" fill="#539b00"/><path d="m24.3 27.1c0 3 3.3-.1 4.5-.4-1.2-1.8-5.8-2.6-4.5.4z" fill="#539b00"/><path d="m23.8 23.1c-.9 2.5-2.6-1.2-3.6-1.8 1.6-1.1 5.7-.3 3.6 1.8z" fill="#539b00"/><g fill="#fc0"><path d="m23 11.5c1.6.3-.3-3.2-.3-3.2s-1.3 2.9.3 3.2z"/><path d="m23.3 14.8c-1.6-.3.3 3.2.3 3.2s1.3-2.9-.3-3.2z"/><path d="m21.7 12.9c-.2-1.8-2.9-.6-2.9-.6s3 2.3 2.9.6z"/><path d="m24.6 13.4c.2 1.8 2.9.6 2.9.6s-3.1-2.3-2.9-.6z"/><path d="m22.3 11.6c1.3-.6-1.7-3.1-1.7-3.1s.4 3.7 1.7 3.1z"/><path d="m24 14.7c-1.3.6 1.7 3.1 1.7 3.1s-.4-3.7-1.7-3.1z"/><path d="m21.9 13.7c-1-1.7-2.4 1.1-2.4 1.1s3.4.6 2.4-1.1z"/><path d="m24.3 12.6c1 1.7 2.4-1.1 2.4-1.1s-3.3-.6-2.4 1.1z"/><path d="m21.8 12.1c.7-1.4-2.7-2.1-2.7-2.1s2 3.4 2.7 2.1z"/><path d="m24.5 14.2c-.7 1.4 2.7 2.1 2.7 2.1s-2.1-3.5-2.7-2.1z"/><path d="m22.5 14.4c-1.5-1.2-1.2 2.5-1.2 2.5s2.7-1.3 1.2-2.5z"/><path d="m23.7 11.9c1.5 1.2 1.2-2.5 1.2-2.5s-2.6 1.3-1.2 2.5z"/></g><path d="m23 11.5c1.6.3-.3-3.2-.3-3.2s-1.3 2.9.3 3.2z" opacity=".2"/><path d="m23.3 14.8c-1.6-.3.3 3.2.3 3.2s1.3-2.9-.3-3.2z" opacity=".2"/><path d="m21.7 12.9c-.2-1.8-2.9-.6-2.9-.6s3 2.3 2.9.6z" opacity=".2"/><path d="m24.6 13.4c.2 1.8 2.9.6 2.9.6s-3.1-2.3-2.9-.6z" opacity=".2"/><path d="m22.3 11.6c1.3-.6-1.7-3.1-1.7-3.1s.4 3.7 1.7 3.1z" opacity=".2"/><path d="m24 14.7c-1.3.6 1.7 3.1 1.7 3.1s-.4-3.7-1.7-3.1z" opacity=".2"/><path d="m21.9 13.7c-1-1.7-2.4 1.1-2.4 1.1s3.4.6 2.4-1.1z" opacity=".2"/><path d="m24.3 12.6c1 1.7 2.4-1.1 2.4-1.1s-3.3-.6-2.4 1.1z" opacity=".2"/><path d="m21.8 12.1c.7-1.4-2.7-2.1-2.7-2.1s2 3.4 2.7 2.1z" opacity=".2"/><path d="m24.5 14.2c-.7 1.4 2.7 2.1 2.7 2.1s-2.1-3.5-2.7-2.1z" opacity=".2"/><path d="m22.5 14.4c-1.5-1.2-1.2 2.5-1.2 2.5s2.7-1.3 1.2-2.5z" opacity=".2"/><path d="m23.7 11.9c1.5 1.2 1.2-2.5 1.2-2.5s-2.6 1.3-1.2 2.5z" opacity=".2"/><path d="m23.3 11.6c1.6.8.5-3 .5-3s-2 2.3-.5 3z" fill="#fc0"/><path d="m22.9 14.6c-1.6-.8-.5 3-.5 3s2.1-2.2.5-3z" fill="#fc0"/><path d="m21.7 12.4c.3-1.6-2.9-1.4-2.9-1.4s2.6 3.1 2.9 1.4z" fill="#fc0"/><path d="m24.6 13.8c-.3 1.6 2.9 1.4 2.9 1.4s-2.7-3-2.9-1.4z" fill="#fc0"/><path d="m22.6 11.5c1.5-.2-1.1-3.3-1.1-3.3s-.4 3.4 1.1 3.3z" fill="#fc0"/><path d="m23.7 14.8c-1.5.2 1.1 3.3 1.1 3.3s.3-3.5-1.1-3.3z" fill="#fc0"/><path d="m21.8 13.3c-.6-1.8-2.7.3-2.7.3s3.2 1.5 2.7-.3z" fill="#fc0"/><path d="m24.5 13c.6 1.8 2.7-.3 2.7-.3s-3.3-1.5-2.7.3z" fill="#fc0"/><path d="m22 11.8c1-1-2.3-2.7-2.3-2.7s1.3 3.7 2.3 2.7z" fill="#fc0"/><path d="m24.3 14.5c-1 1 2.3 2.7 2.3 2.7s-1.3-3.7-2.3-2.7z" fill="#fc0"/><path d="m22.2 14.1c-1.3-1.5-1.9 1.9-1.9 1.9s3.1-.4 1.9-1.9z" fill="#fc0"/><path d="m24 12.2c1.3 1.5 1.9-1.9 1.9-1.9s-3.1.4-1.9 1.9z" fill="#fc0"/><path d="m25.3 14.2c-.2 1.2-1.3 1.8-2.5 1.2s-2-2.1-1.8-3.3 1.3-1.8 2.5-1.2 2 2.1 1.8 3.3z" fill="#825012"/><path d="m13.5 9.3c-1.1-1.7-2.6.9-2.6.9s3.6.8 2.6-.9z" fill="#539b00"/><path d="m13.8 7.6c2-1.2-1-3.1-1-3.1s-1 4.3 1 3.1z" fill="#539b00"/><path d="m16.3 10.1c-1.1 1.3 2.9 3.3 2.9 3.3s-1.8-4.6-2.9-3.3z" fill="#539b00"/><path d="m15.8 8c.7 2.3 2.8-1.3 2.8-1.3s-3.4-1-2.8 1.3z" fill="#539b00"/><path d="m15 7.5c1.6.3-.3-3.2-.3-3.2s-1.3 2.9.3 3.2z" fill="#fc0"/><path d="m15.3 10.8c-1.6-.3.3 3.2.3 3.2s1.3-2.9-.3-3.2z" fill="#fc0"/><path d="m13.7 8.9c-.2-1.8-2.9-.6-2.9-.6s3 2.3 2.9.6z" fill="#fc0"/><path d="m16.6 9.4c.2 1.8 2.9.6 2.9.6s-3.1-2.3-2.9-.6z" fill="#fc0"/><path d="m14.3 7.6c1.3-.6-1.7-3.1-1.7-3.1s.4 3.7 1.7 3.1z" fill="#fc0"/><path d="m16 10.7c-1.3.6 1.7 3.1 1.7 3.1s-.4-3.7-1.7-3.1z" fill="#fc0"/><path d="m13.9 9.7c-1-1.7-2.4 1.1-2.4 1.1s3.4.6 2.4-1.1z" fill="#fc0"/><path d="m16.3 8.6c1 1.7 2.4-1.1 2.4-1.1s-3.3-.6-2.4 1.1z" fill="#fc0"/><path d="m13.8 8.1c.6-1.4-2.7-2.1-2.7-2.1s2 3.4 2.7 2.1z" fill="#fc0"/><path d="m16.5 10.2c-.7 1.4 2.7 2.1 2.7 2.1s-2.1-3.5-2.7-2.1z" fill="#fc0"/><path d="m14.5 10.4c-1.5-1.2-1.2 2.5-1.2 2.5s2.7-1.3 1.2-2.5z" fill="#fc0"/><path d="m15.7 7.9c1.5 1.2 1.2-2.5 1.2-2.5s-2.6 1.3-1.2 2.5z" fill="#fc0"/><path d="m15 7.5c1.6.3-.3-3.2-.3-3.2s-1.3 2.9.3 3.2z" opacity=".2"/><path d="m15.3 10.8c-1.6-.3.3 3.2.3 3.2s1.3-2.9-.3-3.2z" opacity=".2"/><path d="m13.7 8.9c-.2-1.8-2.9-.6-2.9-.6s3 2.3 2.9.6z" opacity=".2"/><path d="m16.6 9.4c.2 1.8 2.9.6 2.9.6s-3.1-2.3-2.9-.6z" opacity=".2"/><path d="m14.3 7.6c1.3-.6-1.7-3.1-1.7-3.1s.4 3.7 1.7 3.1z" opacity=".2"/><path d="m16 10.7c-1.3.6 1.7 3.1 1.7 3.1s-.4-3.7-1.7-3.1z" opacity=".2"/><path d="m13.9 9.7c-1-1.7-2.4 1.1-2.4 1.1s3.4.6 2.4-1.1z" opacity=".2"/><path d="m16.3 8.6c1 1.7 2.4-1.1 2.4-1.1s-3.3-.6-2.4 1.1z" opacity=".2"/><path d="m13.8 8.1c.6-1.4-2.7-2.1-2.7-2.1s2 3.4 2.7 2.1z" opacity=".2"/><path d="m16.5 10.2c-.7 1.4 2.7 2.1 2.7 2.1s-2.1-3.5-2.7-2.1z" opacity=".2"/><path d="m14.5 10.4c-1.5-1.2-1.2 2.5-1.2 2.5s2.7-1.3 1.2-2.5z" opacity=".2"/><path d="m15.7 7.9c1.5 1.2 1.2-2.5 1.2-2.5s-2.6 1.3-1.2 2.5z" opacity=".2"/><path d="m15.3 7.6c1.6.8.5-3 .5-3s-2 2.3-.5 3z" fill="#fc0"/><path d="m14.9 10.6c-1.6-.8-.5 3-.5 3s2.1-2.2.5-3z" fill="#fc0"/><path d="m13.7 8.4c.2-1.6-2.9-1.4-2.9-1.4s2.6 3.1 2.9 1.4z" fill="#fc0"/><path d="m16.6 9.8c-.3 1.6 2.9 1.4 2.9 1.4s-2.7-3-2.9-1.4z" fill="#fc0"/><path d="m14.6 7.5c1.5-.2-1.1-3.3-1.1-3.3s-.4 3.4 1.1 3.3z" fill="#fc0"/><path d="m15.7 10.8c-1.5.2 1.1 3.3 1.1 3.3s.3-3.5-1.1-3.3z" fill="#fc0"/><path d="m13.8 9.3c-.6-1.8-2.8.3-2.8.3s3.3 1.5 2.8-.3z" fill="#fc0"/><path d="m16.5 9c.6 1.8 2.7-.3 2.7-.3s-3.3-1.5-2.7.3z" fill="#fc0"/><path d="m14 7.8c1-1-2.3-2.7-2.3-2.7s1.3 3.7 2.3 2.7z" fill="#fc0"/><path d="m16.3 10.5c-1 1 2.3 2.7 2.3 2.7s-1.3-3.7-2.3-2.7z" fill="#fc0"/><path d="m14.2 10.1c-1.3-1.5-1.9 1.9-1.9 1.9s3.1-.4 1.9-1.9z" fill="#fc0"/><path d="m16 8.2c1.3 1.5 1.9-1.9 1.9-1.9s-3.1.4-1.9 1.9z" fill="#fc0"/><path d="m17.3 10.2c-.2 1.2-1.3 1.8-2.5 1.2s-2-2.1-1.8-3.3 1.3-1.8 2.5-1.2 2 2.1 1.8 3.3z" fill="#825012"/><path d="m5.5 13.3c-1.1-1.7-2.6.9-2.6.9s3.6.8 2.6-.9z" fill="#539b00"/><path d="m6.7 15c-2.4-.2-1 3.1-1 3.1s3.4-2.9 1-3.1z" fill="#539b00"/><path d="m5.8 11.6c2-1.2-1-3.1-1-3.1s-1 4.3 1 3.1z" fill="#539b00"/><path d="m8.3 14.1c-1.1 1.3 2.9 3.3 2.9 3.3s-1.8-4.6-2.9-3.3z" fill="#539b00"/><path d="m7.8 12c.7 2.3 2.8-1.3 2.8-1.3s-3.4-1-2.8 1.3z" fill="#539b00"/><path d="m8.2 20.5c.6 2.2 2.4-.8 3.3-1.3-1.3-1-4.9-.6-3.3 1.3z" fill="#539b00"/><path d="m7.8 32h.7l-.4-18.6-.4-.1z" fill="#539b00"/><path d="m8.3 25.6c0 3 3.3-.1 4.5-.4-1.1-1.8-5.7-2.6-4.5.4z" fill="#539b00"/><path d="m8 24.2c-1 2.5-2.7-1.2-3.6-1.8 1.5-1.1 5.6-.3 3.6 1.8z" fill="#539b00"/><path d="m7 11.5c1.6.3-.3-3.2-.3-3.2s-1.3 2.9.3 3.2z" fill="#fc0"/><path d="m7.3 14.8c-1.6-.4.3 3.2.3 3.2s1.3-2.9-.3-3.2z" fill="#fc0"/><path d="m5.7 12.9c-.2-1.8-2.9-.6-2.9-.6s3 2.3 2.9.6z" fill="#fc0"/><path d="m8.6 13.4c.2 1.8 2.9.6 2.9.6s-3.1-2.3-2.9-.6z" fill="#fc0"/><path d="m6.3 11.6c1.3-.6-1.8-3.1-1.8-3.1s.5 3.7 1.8 3.1z" fill="#fc0"/><path d="m8 14.7c-1.3.6 1.7 3.1 1.7 3.1s-.4-3.7-1.7-3.1z" fill="#fc0"/><path d="m5.9 13.7c-1-1.7-2.4 1.1-2.4 1.1s3.4.6 2.4-1.1z" fill="#fc0"/><path d="m8.3 12.6c1 1.7 2.4-1.1 2.4-1.1s-3.3-.6-2.4 1.1z" fill="#fc0"/><path d="m5.8 12.1c.6-1.4-2.7-2.1-2.7-2.1s2 3.4 2.7 2.1z" fill="#fc0"/><path d="m8.5 14.2c-.7 1.4 2.7 2.1 2.7 2.1s-2.1-3.5-2.7-2.1z" fill="#fc0"/><path d="m6.5 14.4c-1.5-1.2-1.2 2.5-1.2 2.5s2.7-1.3 1.2-2.5z" fill="#fc0"/><path d="m7.7 11.9c1.5 1.2 1.2-2.5 1.2-2.5s-2.6 1.3-1.2 2.5z" fill="#fc0"/><path d="m7 11.5c1.6.3-.3-3.2-.3-3.2s-1.3 2.9.3 3.2z" opacity=".2"/><path d="m7.3 14.8c-1.6-.4.3 3.2.3 3.2s1.3-2.9-.3-3.2z" opacity=".2"/><path d="m5.7 12.9c-.2-1.8-2.9-.6-2.9-.6s3 2.3 2.9.6z" opacity=".2"/><path d="m8.6 13.4c.2 1.8 2.9.6 2.9.6s-3.1-2.3-2.9-.6z" opacity=".2"/><path d="m6.3 11.6c1.3-.6-1.8-3.1-1.8-3.1s.5 3.7 1.8 3.1z" opacity=".2"/><path d="m8 14.7c-1.3.6 1.7 3.1 1.7 3.1s-.4-3.7-1.7-3.1z" opacity=".2"/><path d="m5.9 13.7c-1-1.7-2.4 1.1-2.4 1.1s3.4.6 2.4-1.1z" opacity=".2"/><path d="m8.3 12.6c1 1.7 2.4-1.1 2.4-1.1s-3.3-.6-2.4 1.1z" opacity=".2"/><path d="m5.8 12.1c.6-1.4-2.7-2.1-2.7-2.1s2 3.4 2.7 2.1z" opacity=".2"/><path d="m8.5 14.2c-.7 1.4 2.7 2.1 2.7 2.1s-2.1-3.5-2.7-2.1z" opacity=".2"/><path d="m6.5 14.4c-1.5-1.2-1.2 2.5-1.2 2.5s2.7-1.3 1.2-2.5z" opacity=".2"/><path d="m7.7 11.9c1.5 1.2 1.2-2.5 1.2-2.5s-2.6 1.3-1.2 2.5z" opacity=".2"/><path d="m7.3 11.6c1.6.8.5-3 .5-3s-2 2.3-.5 3z" fill="#fc0"/><path d="m6.9 14.6c-1.6-.8-.5 3-.5 3s2.1-2.2.5-3z" fill="#fc0"/><path d="m5.7 12.4c.2-1.6-2.9-1.4-2.9-1.4s2.6 3.1 2.9 1.4z" fill="#fc0"/><path d="m8.6 13.8c-.3 1.6 2.9 1.4 2.9 1.4s-2.7-3-2.9-1.4z" fill="#fc0"/><path d="m6.6 11.5c1.5-.2-1.1-3.3-1.1-3.3s-.4 3.4 1.1 3.3z" fill="#fc0"/><path d="m7.7 14.8c-1.5.2 1.1 3.3 1.1 3.3s.3-3.5-1.1-3.3z" fill="#fc0"/><path d="m5.8 13.3c-.6-1.8-2.8.3-2.8.3s3.3 1.5 2.8-.3z" fill="#fc0"/><path d="m8.5 13c.6 1.8 2.7-.3 2.7-.3s-3.3-1.5-2.7.3z" fill="#fc0"/><path d="m6 11.8c1-1-2.3-2.7-2.3-2.7s1.3 3.7 2.3 2.7z" fill="#fc0"/><path d="m8.3 14.5c-1 1 2.3 2.7 2.3 2.7s-1.3-3.7-2.3-2.7z" fill="#fc0"/><path d="m6.2 14.1c-1.3-1.5-1.8 1.9-1.8 1.9s3-.4 1.8-1.9z" fill="#fc0"/><path d="m8 12.2c1.3 1.5 1.9-1.9 1.9-1.9s-3.1.4-1.9 1.9z" fill="#fc0"/><path d="m9.3 14.2c-.2 1.2-1.3 1.8-2.5 1.2s-2-2.1-1.8-3.3 1.3-1.8 2.5-1.2 2 2.1 1.8 3.3z" fill="#825012"/><path d="m13.5 17.3c-1.1-1.7-2.6.9-2.6.9s3.6.8 2.6-.9z" fill="#539b00"/><path d="m14.7 19c-2.4-.2-1 3.1-1 3.1s3.4-2.9 1-3.1z" fill="#539b00"/><path d="m13.8 15.6c2-1.2-1-3.1-1-3.1s-1 4.3 1 3.1z" fill="#539b00"/><path d="m16.3 18.1c-1.1 1.3 2.9 3.3 2.9 3.3s-1.8-4.6-2.9-3.3z" fill="#539b00"/><path d="m15.8 16c.7 2.3 2.8-1.3 2.8-1.3s-3.4-1-2.8 1.3z" fill="#539b00"/><path d="m15.8 36h.7l-.4-18.6-.4-.1z" fill="#539b00"/><path d="m16.3 31.3c0 3 3.3-.1 4.5-.4-1.2-1.8-5.8-2.6-4.5.4z" fill="#539b00"/><path d="m16.1 23.9c0 2.2 2.5-.1 3.4-.3-.9-1.4-4.4-2-3.4.3z" fill="#539b00"/><path d="m16 28.2c-.9 2.5-2.6-1.2-3.6-1.8 1.5-1.1 5.6-.3 3.6 1.8z" fill="#539b00"/><path d="m15 15.5c1.6.3-.3-3.2-.3-3.2s-1.3 2.9.3 3.2z" fill="#fc0"/><path d="m15.3 18.8c-1.6-.3.3 3.2.3 3.2s1.3-2.9-.3-3.2z" fill="#fc0"/><path d="m13.7 16.9c-.2-1.8-2.9-.6-2.9-.6s3 2.3 2.9.6z" fill="#fc0"/><path d="m16.6 17.4c.2 1.8 2.9.6 2.9.6s-3.1-2.3-2.9-.6z" fill="#fc0"/><path d="m14.3 15.6c1.3-.6-1.7-3.1-1.7-3.1s.4 3.7 1.7 3.1z" fill="#fc0"/><path d="m16 18.7c-1.3.6 1.7 3.1 1.7 3.1s-.4-3.7-1.7-3.1z" fill="#fc0"/><path d="m13.9 17.7c-1-1.7-2.4 1.1-2.4 1.1s3.4.6 2.4-1.1z" fill="#fc0"/><path d="m16.3 16.6c1 1.7 2.4-1.1 2.4-1.1s-3.3-.6-2.4 1.1z" fill="#fc0"/><path d="m13.8 16.1c.7-1.4-2.7-2.1-2.7-2.1s2 3.4 2.7 2.1z" fill="#fc0"/><path d="m16.5 18.2c-.7 1.4 2.7 2.1 2.7 2.1s-2.1-3.5-2.7-2.1z" fill="#fc0"/><path d="m14.5 18.4c-1.5-1.2-1.2 2.5-1.2 2.5s2.7-1.3 1.2-2.5z" fill="#fc0"/><path d="m15.7 15.9c1.5 1.2 1.2-2.5 1.2-2.5s-2.6 1.3-1.2 2.5z" fill="#fc0"/><path d="m15 15.5c1.6.3-.3-3.2-.3-3.2s-1.3 2.9.3 3.2z" opacity=".2"/><path d="m15.3 18.8c-1.6-.3.3 3.2.3 3.2s1.3-2.9-.3-3.2z" opacity=".2"/><path d="m13.7 16.9c-.2-1.8-2.9-.6-2.9-.6s3 2.3 2.9.6z" opacity=".2"/><path d="m16.6 17.4c.2 1.8 2.9.6 2.9.6s-3.1-2.3-2.9-.6z" opacity=".2"/><path d="m14.3 15.6c1.3-.6-1.7-3.1-1.7-3.1s.4 3.7 1.7 3.1z" opacity=".2"/><path d="m16 18.7c-1.3.6 1.7 3.1 1.7 3.1s-.4-3.7-1.7-3.1z" opacity=".2"/><path d="m13.9 17.7c-1-1.7-2.4 1.1-2.4 1.1s3.4.6 2.4-1.1z" opacity=".2"/><path d="m16.3 16.6c1 1.7 2.4-1.1 2.4-1.1s-3.3-.6-2.4 1.1z" opacity=".2"/><path d="m13.8 16.1c.7-1.4-2.7-2.1-2.7-2.1s2 3.4 2.7 2.1z" opacity=".2"/><path d="m16.5 18.2c-.7 1.4 2.7 2.1 2.7 2.1s-2.1-3.5-2.7-2.1z" opacity=".2"/><path d="m14.5 18.4c-1.5-1.2-1.2 2.5-1.2 2.5s2.7-1.3 1.2-2.5z" opacity=".2"/><path d="m15.7 15.9c1.5 1.2 1.2-2.5 1.2-2.5s-2.6 1.3-1.2 2.5z" opacity=".2"/><path d="m15.3 15.6c1.6.8.5-3 .5-3s-2 2.3-.5 3z" fill="#fc0"/><path d="m14.9 18.6c-1.6-.8-.5 3-.5 3s2.1-2.2.5-3z" fill="#fc0"/><path d="m13.7 16.4c.3-1.6-2.9-1.4-2.9-1.4s2.6 3.1 2.9 1.4z" fill="#fc0"/><path d="m16.6 17.8c-.3 1.6 2.9 1.4 2.9 1.4s-2.7-3-2.9-1.4z" fill="#fc0"/><path d="m14.6 15.5c1.5-.2-1.1-3.3-1.1-3.3s-.4 3.4 1.1 3.3z" fill="#fc0"/><path d="m15.7 18.8c-1.5.2 1.1 3.3 1.1 3.3s.3-3.5-1.1-3.3z" fill="#fc0"/><path d="m13.8 17.3c-.6-1.8-2.7.3-2.7.3s3.2 1.5 2.7-.3z" fill="#fc0"/><path d="m16.5 17c.6 1.8 2.7-.3 2.7-.3s-3.3-1.5-2.7.3z" fill="#fc0"/><path d="m14 15.8c1-1-2.3-2.7-2.3-2.7s1.3 3.7 2.3 2.7z" fill="#fc0"/><path d="m16.3 18.5c-1 1 2.3 2.7 2.3 2.7s-1.3-3.7-2.3-2.7z" fill="#fc0"/><path d="m14.2 18.1c-1.3-1.5-1.9 1.9-1.9 1.9s3.1-.4 1.9-1.9z" fill="#fc0"/><path d="m16 16.2c1.3 1.5 1.9-1.9 1.9-1.9s-3.1.4-1.9 1.9z" fill="#fc0"/><path d="m17.3 18.2c-.2 1.2-1.3 1.8-2.5 1.2s-2-2.1-1.8-3.3 1.3-1.8 2.5-1.2 2 2.1 1.8 3.3z" fill="#825012"/></svg>