<svg xmlns:xlink="http://www.w3.org/1999/xlink"  enable-background="new 0 0 16 24" height="24" viewBox="0 0 16 24" width="16" xmlns="http://www.w3.org/2000/svg"><path d="m5.5 5.3c-1.1-1.7-2.6.9-2.6.9s3.6.8 2.6-.9z" fill="#539b00"/><path d="m6.7 7c-2.4-.2-1 3.1-1 3.1s3.4-2.9 1-3.1z" fill="#539b00"/><path d="m5.8 3.6c2-1.2-1-3.1-1-3.1s-1 4.3 1 3.1z" fill="#539b00"/><path d="m8.3 6.1c-1.1 1.3 2.9 3.3 2.9 3.3s-1.8-4.6-2.9-3.3z" fill="#539b00"/><path d="m7.8 4c.7 2.3 2.8-1.3 2.8-1.3s-3.4-1-2.8 1.3z" fill="#539b00"/><path d="m8.2 12.5c.6 2.2 2.4-.8 3.3-1.3-1.3-1-4.9-.6-3.3 1.3z" fill="#539b00"/><path d="m7.8 24h.7l-.4-18.6-.4-.1z" fill="#539b00"/><path d="m8.3 19.3c0 3 3.3-.1 4.5-.4-1.2-1.8-5.8-2.6-4.5.4z" fill="#539b00"/><path d="m8 16.2c-1 2.5-2.7-1.2-3.6-1.8 1.5-1.1 5.6-.3 3.6 1.8z" fill="#539b00"/><g fill="#fc0"><path d="m7 3.5c1.6.3-.3-3.2-.3-3.2s-1.3 2.9.3 3.2z"/><path d="m7.3 6.8c-1.6-.4.3 3.2.3 3.2s1.3-2.9-.3-3.2z"/><path d="m5.7 4.9c-.2-1.8-3-.6-3-.6s3.1 2.3 3 .6z"/><path d="m8.6 5.4c.2 1.8 2.9.6 2.9.6s-3.1-2.3-2.9-.6z"/><path d="m6.3 3.6c1.3-.6-1.8-3.1-1.8-3.1s.5 3.7 1.8 3.1z"/><path d="m8 6.7c-1.3.6 1.7 3.1 1.7 3.1s-.4-3.7-1.7-3.1z"/><path d="m5.9 5.7c-.9-1.7-2.3 1.1-2.3 1.1s3.3.6 2.3-1.1z"/><path d="m8.3 4.6c1 1.7 2.4-1.1 2.4-1.1s-3.3-.6-2.4 1.1z"/><path d="m5.8 4.1c.6-1.4-2.7-2.1-2.7-2.1s2 3.4 2.7 2.1z"/><path d="m8.5 6.2c-.7 1.4 2.7 2.1 2.7 2.1s-2.1-3.5-2.7-2.1z"/><path d="m6.5 6.4c-1.5-1.2-1.2 2.5-1.2 2.5s2.7-1.3 1.2-2.5z"/><path d="m7.7 3.9c1.5 1.2 1.2-2.5 1.2-2.5s-2.6 1.3-1.2 2.5z"/></g><path d="m7 3.5c1.6.3-.3-3.2-.3-3.2s-1.3 2.9.3 3.2z" opacity=".2"/><path d="m7.3 6.8c-1.6-.4.3 3.2.3 3.2s1.3-2.9-.3-3.2z" opacity=".2"/><path d="m5.7 4.9c-.2-1.8-3-.6-3-.6s3.1 2.3 3 .6z" opacity=".2"/><path d="m8.6 5.4c.2 1.8 2.9.6 2.9.6s-3.1-2.3-2.9-.6z" opacity=".2"/><path d="m6.3 3.6c1.3-.6-1.8-3.1-1.8-3.1s.5 3.7 1.8 3.1z" opacity=".2"/><path d="m8 6.7c-1.3.6 1.7 3.1 1.7 3.1s-.4-3.7-1.7-3.1z" opacity=".2"/><path d="m5.9 5.7c-.9-1.7-2.3 1.1-2.3 1.1s3.3.6 2.3-1.1z" opacity=".2"/><path d="m8.3 4.6c1 1.7 2.4-1.1 2.4-1.1s-3.3-.6-2.4 1.1z" opacity=".2"/><path d="m5.8 4.1c.6-1.4-2.7-2.1-2.7-2.1s2 3.4 2.7 2.1z" opacity=".2"/><path d="m8.5 6.2c-.7 1.4 2.7 2.1 2.7 2.1s-2.1-3.5-2.7-2.1z" opacity=".2"/><path d="m6.5 6.4c-1.5-1.2-1.2 2.5-1.2 2.5s2.7-1.3 1.2-2.5z" opacity=".2"/><path d="m7.7 3.9c1.5 1.2 1.2-2.5 1.2-2.5s-2.6 1.3-1.2 2.5z" opacity=".2"/><path d="m7.3 3.6c1.6.8.5-3 .5-3s-2 2.3-.5 3z" fill="#fc0"/><path d="m6.9 6.6c-1.6-.8-.5 3-.5 3s2.1-2.2.5-3z" fill="#fc0"/><path d="m5.7 4.4c.2-1.6-2.9-1.4-2.9-1.4s2.6 3.1 2.9 1.4z" fill="#fc0"/><path d="m8.6 5.8c-.3 1.6 2.9 1.4 2.9 1.4s-2.7-3-2.9-1.4z" fill="#fc0"/><path d="m6.6 3.5c1.5-.2-1.1-3.3-1.1-3.3s-.4 3.4 1.1 3.3z" fill="#fc0"/><path d="m7.7 6.8c-1.5.2 1.1 3.3 1.1 3.3s.3-3.5-1.1-3.3z" fill="#fc0"/><path d="m5.8 5.3c-.6-1.8-2.8.3-2.8.3s3.3 1.5 2.8-.3z" fill="#fc0"/><path d="m8.5 5c.6 1.8 2.7-.3 2.7-.3s-3.3-1.5-2.7.3z" fill="#fc0"/><path d="m6 3.8c1-1-2.3-2.7-2.3-2.7s1.3 3.7 2.3 2.7z" fill="#fc0"/><path d="m8.3 6.5c-1 1 2.3 2.7 2.3 2.7s-1.3-3.7-2.3-2.7z" fill="#fc0"/><path d="m6.2 6.1c-1.3-1.5-1.8 1.9-1.8 1.9s3-.4 1.8-1.9z" fill="#fc0"/><path d="m8 4.2c1.3 1.5 1.9-1.9 1.9-1.9s-3.1.4-1.9 1.9z" fill="#fc0"/><path d="m9.3 6.2c-.2 1.2-1.3 1.8-2.5 1.2s-2-2.1-1.8-3.3 1.3-1.8 2.5-1.2 2 2.1 1.8 3.3z" fill="#825012"/></svg>