<svg xmlns:xlink="http://www.w3.org/1999/xlink"  enable-background="new 0 0 64 56" height="56" viewBox="0 0 64 56" width="64" xmlns="http://www.w3.org/2000/svg"><path d="m37.5 13.1c-1.1-1.7-2.6.9-2.6.9s3.6.8 2.6-.9z" fill="#539b00"/><path d="m38.7 14.8c-2.4-.2-1 3.1-1 3.1s3.4-2.9 1-3.1z" fill="#539b00"/><path d="m37.8 11.4c2-1.2-1-3.1-1-3.1s-1 4.3 1 3.1z" fill="#539b00"/><path d="m40.3 13.9c-1.1 1.3 2.9 3.3 2.9 3.3s-1.8-4.6-2.9-3.3z" fill="#539b00"/><path d="m39.8 11.8c.7 2.3 2.8-1.3 2.8-1.3s-3.4-1-2.8 1.3z" fill="#539b00"/><g fill="#fc0"><path d="m39 11.3c1.6.3-.3-3.2-.3-3.2s-1.3 2.9.3 3.2z"/><path d="m39.3 14.6c-1.6-.3.3 3.2.3 3.2s1.3-2.9-.3-3.2z"/><path d="m37.7 12.6c-.2-1.8-2.9-.6-2.9-.6s3 2.4 2.9.6z"/><path d="m40.6 13.2c.2 1.8 2.9.6 2.9.6s-3.1-2.3-2.9-.6z"/><path d="m38.3 11.4c1.3-.6-1.7-3.1-1.7-3.1s.4 3.7 1.7 3.1z"/><path d="m40 14.5c-1.3.6 1.7 3.1 1.7 3.1s-.4-3.7-1.7-3.1z"/><path d="m37.9 13.5c-1-1.7-2.4 1.1-2.4 1.1s3.4.6 2.4-1.1z"/><path d="m40.3 12.4c1 1.7 2.4-1.1 2.4-1.1s-3.3-.6-2.4 1.1z"/><path d="m37.8 11.9c.7-1.4-2.7-2.1-2.7-2.1s2 3.4 2.7 2.1z"/><path d="m40.5 14c-.7 1.4 2.7 2.1 2.7 2.1s-2.1-3.5-2.7-2.1z"/><path d="m38.5 14.2c-1.5-1.2-1.2 2.5-1.2 2.5s2.7-1.4 1.2-2.5z"/><path d="m39.7 11.7c1.5 1.2 1.2-2.5 1.2-2.5s-2.6 1.3-1.2 2.5z"/></g><path d="m39 11.3c1.6.3-.3-3.2-.3-3.2s-1.3 2.9.3 3.2z" opacity=".2"/><path d="m39.3 14.6c-1.6-.3.3 3.2.3 3.2s1.3-2.9-.3-3.2z" opacity=".2"/><path d="m37.7 12.6c-.2-1.8-2.9-.6-2.9-.6s3 2.4 2.9.6z" opacity=".2"/><path d="m40.6 13.2c.2 1.8 2.9.6 2.9.6s-3.1-2.3-2.9-.6z" opacity=".2"/><path d="m38.3 11.4c1.3-.6-1.7-3.1-1.7-3.1s.4 3.7 1.7 3.1z" opacity=".2"/><path d="m40 14.5c-1.3.6 1.7 3.1 1.7 3.1s-.4-3.7-1.7-3.1z" opacity=".2"/><path d="m37.9 13.5c-1-1.7-2.4 1.1-2.4 1.1s3.4.6 2.4-1.1z" opacity=".2"/><path d="m40.3 12.4c1 1.7 2.4-1.1 2.4-1.1s-3.3-.6-2.4 1.1z" opacity=".2"/><path d="m37.8 11.9c.7-1.4-2.7-2.1-2.7-2.1s2 3.4 2.7 2.1z" opacity=".2"/><path d="m40.5 14c-.7 1.4 2.7 2.1 2.7 2.1s-2.1-3.5-2.7-2.1z" opacity=".2"/><path d="m38.5 14.2c-1.5-1.2-1.2 2.5-1.2 2.5s2.7-1.4 1.2-2.5z" opacity=".2"/><path d="m39.7 11.7c1.5 1.2 1.2-2.5 1.2-2.5s-2.6 1.3-1.2 2.5z" opacity=".2"/><path d="m39.3 11.4c1.6.8.5-3 .5-3s-2 2.3-.5 3z" fill="#fc0"/><path d="m38.9 14.4c-1.6-.8-.5 3-.5 3s2.1-2.2.5-3z" fill="#fc0"/><path d="m37.7 12.2c.3-1.6-2.9-1.4-2.9-1.4s2.6 3 2.9 1.4z" fill="#fc0"/><path d="m40.6 13.6c-.3 1.6 2.9 1.4 2.9 1.4s-2.7-3-2.9-1.4z" fill="#fc0"/><path d="m38.6 11.3c1.5-.2-1.1-3.3-1.1-3.3s-.4 3.4 1.1 3.3z" fill="#fc0"/><path d="m39.7 14.6c-1.5.2 1.1 3.3 1.1 3.3s.3-3.5-1.1-3.3z" fill="#fc0"/><path d="m37.8 13.1c-.6-1.8-2.7.3-2.7.3s3.2 1.5 2.7-.3z" fill="#fc0"/><path d="m40.5 12.8c.6 1.8 2.7-.3 2.7-.3s-3.3-1.5-2.7.3z" fill="#fc0"/><path d="m38 11.6c1-1-2.3-2.7-2.3-2.7s1.3 3.7 2.3 2.7z" fill="#fc0"/><path d="m40.3 14.3c-1 1 2.3 2.7 2.3 2.7s-1.3-3.7-2.3-2.7z" fill="#fc0"/><path d="m38.2 13.9c-1.3-1.5-1.9 1.9-1.9 1.9s3.1-.5 1.9-1.9z" fill="#fc0"/><path d="m40 12c1.3 1.5 1.9-1.9 1.9-1.9s-3.1.4-1.9 1.9z" fill="#fc0"/><path d="m41.3 14c-.2 1.2-1.3 1.8-2.5 1.2s-2-2.1-1.8-3.3 1.3-1.8 2.5-1.2 2 2 1.8 3.3z" fill="#825012"/><path d="m29.5 9.1c-1.1-1.7-2.6.9-2.6.9s3.6.8 2.6-.9z" fill="#539b00"/><path d="m29.8 7.4c2-1.2-1-3.1-1-3.1s-1 4.3 1 3.1z" fill="#539b00"/><path d="m32.3 9.9c-1.1 1.3 2.9 3.3 2.9 3.3s-1.8-4.6-2.9-3.3z" fill="#539b00"/><path d="m31.8 7.8c.7 2.3 2.8-1.3 2.8-1.3s-3.4-1-2.8 1.3z" fill="#539b00"/><path d="m31 7.3c1.6.3-.3-3.2-.3-3.2s-1.3 2.9.3 3.2z" fill="#fc0"/><path d="m31.3 10.6c-1.6-.3.3 3.2.3 3.2s1.3-2.9-.3-3.2z" fill="#fc0"/><path d="m29.7 8.6c-.2-1.8-2.9-.6-2.9-.6s3 2.4 2.9.6z" fill="#fc0"/><path d="m32.6 9.2c.2 1.8 2.9.6 2.9.6s-3.1-2.3-2.9-.6z" fill="#fc0"/><path d="m30.3 7.4c1.3-.6-1.7-3.1-1.7-3.1s.4 3.7 1.7 3.1z" fill="#fc0"/><path d="m32 10.5c-1.3.6 1.7 3.1 1.7 3.1s-.4-3.7-1.7-3.1z" fill="#fc0"/><path d="m29.9 9.5c-1-1.7-2.4 1.1-2.4 1.1s3.4.6 2.4-1.1z" fill="#fc0"/><path d="m32.3 8.4c1 1.7 2.4-1.1 2.4-1.1s-3.3-.6-2.4 1.1z" fill="#fc0"/><path d="m29.8 7.9c.7-1.4-2.7-2.1-2.7-2.1s2 3.4 2.7 2.1z" fill="#fc0"/><path d="m32.5 10c-.7 1.4 2.7 2.1 2.7 2.1s-2.1-3.5-2.7-2.1z" fill="#fc0"/><path d="m30.5 10.2c-1.5-1.2-1.2 2.5-1.2 2.5s2.7-1.4 1.2-2.5z" fill="#fc0"/><path d="m31.7 7.7c1.5 1.2 1.2-2.5 1.2-2.5s-2.6 1.3-1.2 2.5z" fill="#fc0"/><path d="m31 7.3c1.6.3-.3-3.2-.3-3.2s-1.3 2.9.3 3.2z" opacity=".2"/><path d="m31.3 10.6c-1.6-.3.3 3.2.3 3.2s1.3-2.9-.3-3.2z" opacity=".2"/><path d="m29.7 8.6c-.2-1.8-2.9-.6-2.9-.6s3 2.4 2.9.6z" opacity=".2"/><path d="m32.6 9.2c.2 1.8 2.9.6 2.9.6s-3.1-2.3-2.9-.6z" opacity=".2"/><path d="m30.3 7.4c1.3-.6-1.7-3.1-1.7-3.1s.4 3.7 1.7 3.1z" opacity=".2"/><path d="m32 10.5c-1.3.6 1.7 3.1 1.7 3.1s-.4-3.7-1.7-3.1z" opacity=".2"/><path d="m29.9 9.5c-1-1.7-2.4 1.1-2.4 1.1s3.4.6 2.4-1.1z" opacity=".2"/><path d="m32.3 8.4c1 1.7 2.4-1.1 2.4-1.1s-3.3-.6-2.4 1.1z" opacity=".2"/><path d="m29.8 7.9c.7-1.4-2.7-2.1-2.7-2.1s2 3.4 2.7 2.1z" opacity=".2"/><path d="m32.5 10c-.7 1.4 2.7 2.1 2.7 2.1s-2.1-3.5-2.7-2.1z" opacity=".2"/><path d="m30.5 10.2c-1.5-1.2-1.2 2.5-1.2 2.5s2.7-1.4 1.2-2.5z" opacity=".2"/><path d="m31.7 7.7c1.5 1.2 1.2-2.5 1.2-2.5s-2.6 1.3-1.2 2.5z" opacity=".2"/><path d="m31.3 7.4c1.6.8.5-3 .5-3s-2 2.3-.5 3z" fill="#fc0"/><path d="m30.9 10.4c-1.6-.8-.5 3-.5 3s2.1-2.2.5-3z" fill="#fc0"/><path d="m29.7 8.2c.3-1.6-2.9-1.4-2.9-1.4s2.6 3 2.9 1.4z" fill="#fc0"/><path d="m32.6 9.6c-.3 1.6 2.9 1.4 2.9 1.4s-2.7-3-2.9-1.4z" fill="#fc0"/><path d="m30.6 7.3c1.5-.2-1.1-3.3-1.1-3.3s-.4 3.4 1.1 3.3z" fill="#fc0"/><path d="m31.7 10.6c-1.5.2 1.1 3.3 1.1 3.3s.3-3.5-1.1-3.3z" fill="#fc0"/><path d="m29.8 9.1c-.6-1.8-2.8.2-2.8.2s3.3 1.6 2.8-.2z" fill="#fc0"/><path d="m32.5 8.8c.6 1.8 2.7-.3 2.7-.3s-3.3-1.5-2.7.3z" fill="#fc0"/><path d="m30 7.6c1-1-2.3-2.7-2.3-2.7s1.3 3.7 2.3 2.7z" fill="#fc0"/><path d="m32.3 10.3c-1 1 2.3 2.7 2.3 2.7s-1.3-3.7-2.3-2.7z" fill="#fc0"/><path d="m30.2 9.9c-1.3-1.5-1.9 1.9-1.9 1.9s3.1-.5 1.9-1.9z" fill="#fc0"/><path d="m32 8c1.3 1.5 1.9-1.9 1.9-1.9s-3.1.4-1.9 1.9z" fill="#fc0"/><path d="m33.3 10c-.2 1.2-1.3 1.8-2.5 1.2s-2-2.1-1.8-3.3 1.3-1.8 2.5-1.2 2 2 1.8 3.3z" fill="#825012"/><path d="m21.5 13.1c-1.1-1.7-2.6.9-2.6.9s3.6.8 2.6-.9z" fill="#539b00"/><path d="m22.7 14.8c-2.4-.2-1 3.1-1 3.1s3.4-2.9 1-3.1z" fill="#539b00"/><path d="m21.8 11.4c2-1.2-1-3.1-1-3.1s-1 4.3 1 3.1z" fill="#539b00"/><path d="m24.3 13.9c-1.1 1.3 2.9 3.3 2.9 3.3s-1.8-4.6-2.9-3.3z" fill="#539b00"/><path d="m23.8 11.8c.7 2.3 2.8-1.3 2.8-1.3s-3.4-1-2.8 1.3z" fill="#539b00"/><path d="m23 11.3c1.6.3-.3-3.2-.3-3.2s-1.3 2.9.3 3.2z" fill="#fc0"/><path d="m23.3 14.6c-1.6-.3.3 3.2.3 3.2s1.3-2.9-.3-3.2z" fill="#fc0"/><path d="m21.7 12.6c-.2-1.8-2.9-.6-2.9-.6s3 2.4 2.9.6z" fill="#fc0"/><path d="m24.6 13.2c.2 1.8 2.9.6 2.9.6s-3.1-2.3-2.9-.6z" fill="#fc0"/><path d="m22.3 11.4c1.3-.6-1.7-3.1-1.7-3.1s.4 3.7 1.7 3.1z" fill="#fc0"/><path d="m24 14.5c-1.3.6 1.7 3.1 1.7 3.1s-.4-3.7-1.7-3.1z" fill="#fc0"/><path d="m21.9 13.5c-1-1.7-2.4 1.1-2.4 1.1s3.4.6 2.4-1.1z" fill="#fc0"/><path d="m24.3 12.4c1 1.7 2.4-1.1 2.4-1.1s-3.3-.6-2.4 1.1z" fill="#fc0"/><path d="m21.8 11.9c.7-1.4-2.7-2.1-2.7-2.1s2 3.4 2.7 2.1z" fill="#fc0"/><path d="m24.5 14c-.7 1.4 2.7 2.1 2.7 2.1s-2.1-3.5-2.7-2.1z" fill="#fc0"/><path d="m22.5 14.2c-1.5-1.2-1.2 2.5-1.2 2.5s2.7-1.4 1.2-2.5z" fill="#fc0"/><path d="m23.7 11.7c1.5 1.2 1.2-2.5 1.2-2.5s-2.6 1.3-1.2 2.5z" fill="#fc0"/><path d="m23 11.3c1.6.3-.3-3.2-.3-3.2s-1.3 2.9.3 3.2z" opacity=".2"/><path d="m23.3 14.6c-1.6-.3.3 3.2.3 3.2s1.3-2.9-.3-3.2z" opacity=".2"/><path d="m21.7 12.6c-.2-1.8-2.9-.6-2.9-.6s3 2.4 2.9.6z" opacity=".2"/><path d="m24.6 13.2c.2 1.8 2.9.6 2.9.6s-3.1-2.3-2.9-.6z" opacity=".2"/><path d="m22.3 11.4c1.3-.6-1.7-3.1-1.7-3.1s.4 3.7 1.7 3.1z" opacity=".2"/><path d="m24 14.5c-1.3.6 1.7 3.1 1.7 3.1s-.4-3.7-1.7-3.1z" opacity=".2"/><path d="m21.9 13.5c-1-1.7-2.4 1.1-2.4 1.1s3.4.6 2.4-1.1z" opacity=".2"/><path d="m24.3 12.4c1 1.7 2.4-1.1 2.4-1.1s-3.3-.6-2.4 1.1z" opacity=".2"/><path d="m21.8 11.9c.7-1.4-2.7-2.1-2.7-2.1s2 3.4 2.7 2.1z" opacity=".2"/><path d="m24.5 14c-.7 1.4 2.7 2.1 2.7 2.1s-2.1-3.5-2.7-2.1z" opacity=".2"/><path d="m22.5 14.2c-1.5-1.2-1.2 2.5-1.2 2.5s2.7-1.4 1.2-2.5z" opacity=".2"/><path d="m23.7 11.7c1.5 1.2 1.2-2.5 1.2-2.5s-2.6 1.3-1.2 2.5z" opacity=".2"/><path d="m23.3 11.4c1.6.8.5-3 .5-3s-2 2.3-.5 3z" fill="#fc0"/><path d="m22.9 14.4c-1.6-.8-.5 3-.5 3s2.1-2.2.5-3z" fill="#fc0"/><path d="m21.7 12.2c.3-1.6-2.9-1.4-2.9-1.4s2.6 3 2.9 1.4z" fill="#fc0"/><path d="m24.6 13.6c-.3 1.6 2.9 1.4 2.9 1.4s-2.7-3-2.9-1.4z" fill="#fc0"/><path d="m22.6 11.3c1.5-.2-1.1-3.3-1.1-3.3s-.4 3.4 1.1 3.3z" fill="#fc0"/><path d="m23.7 14.6c-1.5.2 1.1 3.3 1.1 3.3s.3-3.5-1.1-3.3z" fill="#fc0"/><path d="m21.8 13.1c-.6-1.8-2.7.3-2.7.3s3.2 1.5 2.7-.3z" fill="#fc0"/><path d="m24.5 12.8c.6 1.8 2.7-.3 2.7-.3s-3.3-1.5-2.7.3z" fill="#fc0"/><path d="m22 11.6c1-1-2.3-2.7-2.3-2.7s1.3 3.7 2.3 2.7z" fill="#fc0"/><path d="m24.3 14.3c-1 1 2.3 2.7 2.3 2.7s-1.3-3.7-2.3-2.7z" fill="#fc0"/><path d="m22.2 13.9c-1.3-1.5-1.9 1.9-1.9 1.9s3.1-.5 1.9-1.9z" fill="#fc0"/><path d="m24 12c1.3 1.5 1.9-1.9 1.9-1.9s-3.1.4-1.9 1.9z" fill="#fc0"/><path d="m25.3 14c-.2 1.2-1.3 1.8-2.5 1.2s-2-2.1-1.8-3.3 1.3-1.8 2.5-1.2 2 2 1.8 3.3z" fill="#825012"/><path d="m29.5 17.1c-1.1-1.7-2.6.9-2.6.9s3.6.8 2.6-.9z" fill="#539b00"/><path d="m30.7 18.8c-2.4-.2-1 3.1-1 3.1s3.4-2.9 1-3.1z" fill="#539b00"/><path d="m29.8 15.4c2-1.2-1-3.1-1-3.1s-1 4.3 1 3.1z" fill="#539b00"/><path d="m32.3 17.9c-1.1 1.3 2.9 3.3 2.9 3.3s-1.8-4.6-2.9-3.3z" fill="#539b00"/><path d="m31.8 15.8c.7 2.3 2.8-1.3 2.8-1.3s-3.4-1-2.8 1.3z" fill="#539b00"/><path d="m31 15.3c1.6.3-.3-3.2-.3-3.2s-1.3 2.9.3 3.2z" fill="#fc0"/><path d="m31.3 18.6c-1.6-.3.3 3.2.3 3.2s1.3-2.9-.3-3.2z" fill="#fc0"/><path d="m29.7 16.6c-.2-1.8-2.9-.6-2.9-.6s3 2.4 2.9.6z" fill="#fc0"/><path d="m32.6 17.2c.2 1.8 2.9.6 2.9.6s-3.1-2.3-2.9-.6z" fill="#fc0"/><path d="m30.3 15.4c1.3-.6-1.7-3.1-1.7-3.1s.4 3.7 1.7 3.1z" fill="#fc0"/><path d="m32 18.5c-1.3.6 1.7 3.1 1.7 3.1s-.4-3.7-1.7-3.1z" fill="#fc0"/><path d="m29.9 17.5c-1-1.7-2.4 1.1-2.4 1.1s3.4.6 2.4-1.1z" fill="#fc0"/><path d="m32.3 16.4c1 1.7 2.4-1.1 2.4-1.1s-3.3-.6-2.4 1.1z" fill="#fc0"/><path d="m29.8 15.9c.7-1.4-2.7-2.1-2.7-2.1s2 3.4 2.7 2.1z" fill="#fc0"/><path d="m32.5 18c-.7 1.4 2.7 2.1 2.7 2.1s-2.1-3.5-2.7-2.1z" fill="#fc0"/><path d="m30.5 18.2c-1.5-1.2-1.2 2.5-1.2 2.5s2.7-1.4 1.2-2.5z" fill="#fc0"/><path d="m31.7 15.7c1.5 1.2 1.2-2.5 1.2-2.5s-2.6 1.3-1.2 2.5z" fill="#fc0"/><path d="m31 15.3c1.6.3-.3-3.2-.3-3.2s-1.3 2.9.3 3.2z" opacity=".2"/><path d="m31.3 18.6c-1.6-.3.3 3.2.3 3.2s1.3-2.9-.3-3.2z" opacity=".2"/><path d="m29.7 16.6c-.2-1.8-2.9-.6-2.9-.6s3 2.4 2.9.6z" opacity=".2"/><path d="m32.6 17.2c.2 1.8 2.9.6 2.9.6s-3.1-2.3-2.9-.6z" opacity=".2"/><path d="m30.3 15.4c1.3-.6-1.7-3.1-1.7-3.1s.4 3.7 1.7 3.1z" opacity=".2"/><path d="m32 18.5c-1.3.6 1.7 3.1 1.7 3.1s-.4-3.7-1.7-3.1z" opacity=".2"/><path d="m29.9 17.5c-1-1.7-2.4 1.1-2.4 1.1s3.4.6 2.4-1.1z" opacity=".2"/><path d="m32.3 16.4c1 1.7 2.4-1.1 2.4-1.1s-3.3-.6-2.4 1.1z" opacity=".2"/><path d="m29.8 15.9c.7-1.4-2.7-2.1-2.7-2.1s2 3.4 2.7 2.1z" opacity=".2"/><path d="m32.5 18c-.7 1.4 2.7 2.1 2.7 2.1s-2.1-3.5-2.7-2.1z" opacity=".2"/><path d="m30.5 18.2c-1.5-1.2-1.2 2.5-1.2 2.5s2.7-1.4 1.2-2.5z" opacity=".2"/><path d="m31.7 15.7c1.5 1.2 1.2-2.5 1.2-2.5s-2.6 1.3-1.2 2.5z" opacity=".2"/><path d="m31.3 15.4c1.6.8.5-3 .5-3s-2 2.3-.5 3z" fill="#fc0"/><path d="m30.9 18.4c-1.6-.8-.5 3-.5 3s2.1-2.2.5-3z" fill="#fc0"/><path d="m29.7 16.2c.3-1.6-2.9-1.4-2.9-1.4s2.6 3 2.9 1.4z" fill="#fc0"/><path d="m32.6 17.6c-.3 1.6 2.9 1.4 2.9 1.4s-2.7-3-2.9-1.4z" fill="#fc0"/><path d="m30.6 15.3c1.5-.2-1.1-3.3-1.1-3.3s-.4 3.4 1.1 3.3z" fill="#fc0"/><path d="m31.7 18.6c-1.5.2 1.1 3.3 1.1 3.3s.3-3.5-1.1-3.3z" fill="#fc0"/><path d="m29.8 17.1c-.6-1.8-2.7.3-2.7.3s3.2 1.5 2.7-.3z" fill="#fc0"/><path d="m32.5 16.8c.6 1.8 2.7-.3 2.7-.3s-3.3-1.5-2.7.3z" fill="#fc0"/><path d="m30 15.6c1-1-2.3-2.7-2.3-2.7s1.3 3.7 2.3 2.7z" fill="#fc0"/><path d="m32.3 18.3c-1 1 2.3 2.7 2.3 2.7s-1.3-3.7-2.3-2.7z" fill="#fc0"/><path d="m30.2 17.9c-1.3-1.5-1.9 1.9-1.9 1.9s3.1-.5 1.9-1.9z" fill="#fc0"/><path d="m32 16c1.3 1.5 1.9-1.9 1.9-1.9s-3.1.4-1.9 1.9z" fill="#fc0"/><path d="m33.3 18c-.2 1.2-1.3 1.8-2.5 1.2s-2-2.1-1.8-3.3 1.3-1.8 2.5-1.2 2 2 1.8 3.3z" fill="#825012"/><path d="m21.5 21.1c-1.1-1.7-2.6.9-2.6.9s3.6.8 2.6-.9z" fill="#539b00"/><path d="m22.7 22.8c-2.4-.2-1 3.1-1 3.1s3.4-2.9 1-3.1z" fill="#539b00"/><path d="m21.8 19.4c2-1.2-1-3.1-1-3.1s-1 4.3 1 3.1z" fill="#539b00"/><path d="m24.3 21.9c-1.1 1.3 2.9 3.3 2.9 3.3s-1.8-4.6-2.9-3.3z" fill="#539b00"/><path d="m23.8 19.8c.7 2.3 2.8-1.3 2.8-1.3s-3.4-1-2.8 1.3z" fill="#539b00"/><path d="m23 19.3c1.6.3-.3-3.2-.3-3.2s-1.3 2.9.3 3.2z" fill="#fc0"/><path d="m23.3 22.6c-1.6-.3.3 3.2.3 3.2s1.3-2.9-.3-3.2z" fill="#fc0"/><path d="m21.7 20.6c-.2-1.8-2.9-.6-2.9-.6s3 2.4 2.9.6z" fill="#fc0"/><path d="m24.6 21.2c.2 1.8 2.9.6 2.9.6s-3.1-2.3-2.9-.6z" fill="#fc0"/><path d="m22.3 19.4c1.3-.6-1.7-3.1-1.7-3.1s.4 3.7 1.7 3.1z" fill="#fc0"/><path d="m24 22.5c-1.3.6 1.7 3.1 1.7 3.1s-.4-3.7-1.7-3.1z" fill="#fc0"/><path d="m21.9 21.5c-1-1.7-2.4 1.1-2.4 1.1s3.4.6 2.4-1.1z" fill="#fc0"/><path d="m24.3 20.4c1 1.7 2.4-1.1 2.4-1.1s-3.3-.6-2.4 1.1z" fill="#fc0"/><path d="m21.8 19.9c.7-1.4-2.7-2.1-2.7-2.1s2 3.4 2.7 2.1z" fill="#fc0"/><path d="m24.5 22c-.7 1.4 2.7 2.1 2.7 2.1s-2.1-3.5-2.7-2.1z" fill="#fc0"/><path d="m22.5 22.2c-1.5-1.2-1.2 2.5-1.2 2.5s2.7-1.4 1.2-2.5z" fill="#fc0"/><path d="m23.7 19.7c1.5 1.2 1.2-2.5 1.2-2.5s-2.6 1.3-1.2 2.5z" fill="#fc0"/><path d="m23 19.3c1.6.3-.3-3.2-.3-3.2s-1.3 2.9.3 3.2z" opacity=".2"/><path d="m23.3 22.6c-1.6-.3.3 3.2.3 3.2s1.3-2.9-.3-3.2z" opacity=".2"/><path d="m21.7 20.6c-.2-1.8-2.9-.6-2.9-.6s3 2.4 2.9.6z" opacity=".2"/><path d="m24.6 21.2c.2 1.8 2.9.6 2.9.6s-3.1-2.3-2.9-.6z" opacity=".2"/><path d="m22.3 19.4c1.3-.6-1.7-3.1-1.7-3.1s.4 3.7 1.7 3.1z" opacity=".2"/><path d="m24 22.5c-1.3.6 1.7 3.1 1.7 3.1s-.4-3.7-1.7-3.1z" opacity=".2"/><path d="m21.9 21.5c-1-1.7-2.4 1.1-2.4 1.1s3.4.6 2.4-1.1z" opacity=".2"/><path d="m24.3 20.4c1 1.7 2.4-1.1 2.4-1.1s-3.3-.6-2.4 1.1z" opacity=".2"/><path d="m21.8 19.9c.7-1.4-2.7-2.1-2.7-2.1s2 3.4 2.7 2.1z" opacity=".2"/><path d="m24.5 22c-.7 1.4 2.7 2.1 2.7 2.1s-2.1-3.5-2.7-2.1z" opacity=".2"/><path d="m22.5 22.2c-1.5-1.2-1.2 2.5-1.2 2.5s2.7-1.4 1.2-2.5z" opacity=".2"/><path d="m23.7 19.7c1.5 1.2 1.2-2.5 1.2-2.5s-2.6 1.3-1.2 2.5z" opacity=".2"/><path d="m23.3 19.4c1.6.8.5-3 .5-3s-2 2.3-.5 3z" fill="#fc0"/><path d="m22.9 22.4c-1.6-.8-.5 3-.5 3s2.1-2.2.5-3z" fill="#fc0"/><path d="m21.7 20.2c.3-1.6-2.9-1.4-2.9-1.4s2.6 3 2.9 1.4z" fill="#fc0"/><path d="m24.6 21.6c-.3 1.6 2.9 1.4 2.9 1.4s-2.7-3-2.9-1.4z" fill="#fc0"/><path d="m22.6 19.3c1.5-.2-1.1-3.3-1.1-3.3s-.4 3.4 1.1 3.3z" fill="#fc0"/><path d="m23.7 22.6c-1.5.2 1.1 3.3 1.1 3.3s.3-3.5-1.1-3.3z" fill="#fc0"/><path d="m21.8 21.1c-.6-1.8-2.7.3-2.7.3s3.2 1.5 2.7-.3z" fill="#fc0"/><path d="m24.5 20.8c.6 1.8 2.7-.3 2.7-.3s-3.3-1.5-2.7.3z" fill="#fc0"/><path d="m22 19.6c1-1-2.3-2.7-2.3-2.7s1.3 3.7 2.3 2.7z" fill="#fc0"/><path d="m24.3 22.3c-1 1 2.3 2.7 2.3 2.7s-1.3-3.7-2.3-2.7z" fill="#fc0"/><path d="m22.2 21.9c-1.3-1.5-1.9 1.9-1.9 1.9s3.1-.5 1.9-1.9z" fill="#fc0"/><path d="m24 20c1.3 1.5 1.9-1.9 1.9-1.9s-3.1.4-1.9 1.9z" fill="#fc0"/><path d="m25.3 22c-.2 1.2-1.3 1.8-2.5 1.2s-2-2.1-1.8-3.3 1.3-1.8 2.5-1.2 2 2 1.8 3.3z" fill="#825012"/><path d="m13.5 17.1c-1.1-1.7-2.6.9-2.6.9s3.6.8 2.6-.9z" fill="#539b00"/><path d="m13.8 15.4c2-1.2-1-3.1-1-3.1s-1 4.3 1 3.1z" fill="#539b00"/><path d="m16.3 17.9c-1.1 1.3 2.9 3.3 2.9 3.3s-1.8-4.6-2.9-3.3z" fill="#539b00"/><path d="m15.8 15.8c.7 2.3 2.8-1.3 2.8-1.3s-3.4-1-2.8 1.3z" fill="#539b00"/><path d="m15 15.3c1.6.3-.3-3.2-.3-3.2s-1.3 2.9.3 3.2z" fill="#fc0"/><path d="m15.3 18.6c-1.6-.3.3 3.2.3 3.2s1.3-2.9-.3-3.2z" fill="#fc0"/><path d="m13.7 16.6c-.2-1.8-2.9-.6-2.9-.6s3 2.4 2.9.6z" fill="#fc0"/><path d="m16.6 17.2c.2 1.8 2.9.6 2.9.6s-3.1-2.3-2.9-.6z" fill="#fc0"/><path d="m14.3 15.4c1.3-.6-1.7-3.1-1.7-3.1s.4 3.7 1.7 3.1z" fill="#fc0"/><path d="m16 18.5c-1.3.6 1.7 3.1 1.7 3.1s-.4-3.7-1.7-3.1z" fill="#fc0"/><path d="m13.9 17.5c-1-1.7-2.4 1.1-2.4 1.1s3.4.6 2.4-1.1z" fill="#fc0"/><path d="m16.3 16.4c1 1.7 2.4-1.1 2.4-1.1s-3.3-.6-2.4 1.1z" fill="#fc0"/><path d="m13.8 15.9c.7-1.4-2.7-2.1-2.7-2.1s2 3.4 2.7 2.1z" fill="#fc0"/><path d="m16.5 18c-.7 1.4 2.7 2.1 2.7 2.1s-2.1-3.5-2.7-2.1z" fill="#fc0"/><path d="m14.5 18.2c-1.5-1.2-1.2 2.5-1.2 2.5s2.7-1.4 1.2-2.5z" fill="#fc0"/><path d="m15.7 15.7c1.5 1.2 1.2-2.5 1.2-2.5s-2.6 1.3-1.2 2.5z" fill="#fc0"/><path d="m15 15.3c1.6.3-.3-3.2-.3-3.2s-1.3 2.9.3 3.2z" opacity=".2"/><path d="m15.3 18.6c-1.6-.3.3 3.2.3 3.2s1.3-2.9-.3-3.2z" opacity=".2"/><path d="m13.7 16.6c-.2-1.8-2.9-.6-2.9-.6s3 2.4 2.9.6z" opacity=".2"/><path d="m16.6 17.2c.2 1.8 2.9.6 2.9.6s-3.1-2.3-2.9-.6z" opacity=".2"/><path d="m14.3 15.4c1.3-.6-1.7-3.1-1.7-3.1s.4 3.7 1.7 3.1z" opacity=".2"/><path d="m16 18.5c-1.3.6 1.7 3.1 1.7 3.1s-.4-3.7-1.7-3.1z" opacity=".2"/><path d="m13.9 17.5c-1-1.7-2.4 1.1-2.4 1.1s3.4.6 2.4-1.1z" opacity=".2"/><path d="m16.3 16.4c1 1.7 2.4-1.1 2.4-1.1s-3.3-.6-2.4 1.1z" opacity=".2"/><path d="m13.8 15.9c.7-1.4-2.7-2.1-2.7-2.1s2 3.4 2.7 2.1z" opacity=".2"/><path d="m16.5 18c-.7 1.4 2.7 2.1 2.7 2.1s-2.1-3.5-2.7-2.1z" opacity=".2"/><path d="m14.5 18.2c-1.5-1.2-1.2 2.5-1.2 2.5s2.7-1.4 1.2-2.5z" opacity=".2"/><path d="m15.7 15.7c1.5 1.2 1.2-2.5 1.2-2.5s-2.6 1.3-1.2 2.5z" opacity=".2"/><path d="m15.3 15.4c1.6.8.5-3 .5-3s-2 2.3-.5 3z" fill="#fc0"/><path d="m14.9 18.4c-1.6-.8-.5 3-.5 3s2.1-2.2.5-3z" fill="#fc0"/><path d="m13.7 16.2c.3-1.6-2.9-1.4-2.9-1.4s2.6 3 2.9 1.4z" fill="#fc0"/><path d="m16.6 17.6c-.3 1.6 2.9 1.4 2.9 1.4s-2.7-3-2.9-1.4z" fill="#fc0"/><path d="m14.6 15.3c1.5-.2-1.1-3.3-1.1-3.3s-.4 3.4 1.1 3.3z" fill="#fc0"/><path d="m15.7 18.6c-1.5.2 1.1 3.3 1.1 3.3s.3-3.5-1.1-3.3z" fill="#fc0"/><path d="m13.8 17.1c-.6-1.8-2.7.3-2.7.3s3.2 1.5 2.7-.3z" fill="#fc0"/><path d="m16.5 16.8c.6 1.8 2.7-.3 2.7-.3s-3.3-1.5-2.7.3z" fill="#fc0"/><path d="m14 15.6c1-1-2.3-2.7-2.3-2.7s1.3 3.7 2.3 2.7z" fill="#fc0"/><path d="m16.3 18.3c-1 1 2.3 2.7 2.3 2.7s-1.3-3.7-2.3-2.7z" fill="#fc0"/><path d="m14.2 17.9c-1.3-1.5-1.9 1.9-1.9 1.9s3.1-.5 1.9-1.9z" fill="#fc0"/><path d="m16 16c1.3 1.5 1.9-1.9 1.9-1.9s-3.1.4-1.9 1.9z" fill="#fc0"/><path d="m17.3 18c-.2 1.2-1.3 1.8-2.5 1.2s-2-2.1-1.8-3.3 1.3-1.8 2.5-1.2 2 2 1.8 3.3z" fill="#825012"/><path d="m5.5 21.1c-1.1-1.7-2.6.9-2.6.9s3.6.8 2.6-.9z" fill="#539b00"/><path d="m6.7 22.8c-2.4-.2-1 3.1-1 3.1s3.4-2.9 1-3.1z" fill="#539b00"/><path d="m5.8 19.4c2-1.2-1-3.1-1-3.1s-1 4.3 1 3.1z" fill="#539b00"/><path d="m8.3 21.9c-1.1 1.3 2.9 3.3 2.9 3.3s-1.8-4.6-2.9-3.3z" fill="#539b00"/><path d="m7.8 19.8c.7 2.3 2.8-1.3 2.8-1.3s-3.4-1-2.8 1.3z" fill="#539b00"/><path d="m8.2 28.3c.6 2.2 2.4-.8 3.3-1.3-1.3-1-4.9-.6-3.3 1.3z" fill="#539b00"/><path d="m7.8 39.8h.7l-.4-18.6-.4-.1z" fill="#539b00"/><path d="m8.3 33.4c0 3 3.3-.1 4.5-.4-1.1-1.8-5.7-2.6-4.5.4z" fill="#539b00"/><path d="m8 32c-.9 2.5-2.6-1.2-3.6-1.8 1.5-1.1 5.6-.3 3.6 1.8z" fill="#539b00"/><path d="m7 19.3c1.6.3-.3-3.2-.3-3.2s-1.3 2.9.3 3.2z" fill="#fc0"/><path d="m7.3 22.6c-1.6-.3.3 3.2.3 3.2s1.3-2.9-.3-3.2z" fill="#fc0"/><path d="m5.7 20.6c-.2-1.8-2.9-.6-2.9-.6s3 2.4 2.9.6z" fill="#fc0"/><path d="m8.6 21.2c.2 1.8 2.9.6 2.9.6s-3.1-2.3-2.9-.6z" fill="#fc0"/><path d="m6.3 19.4c1.3-.6-1.7-3.1-1.7-3.1s.4 3.7 1.7 3.1z" fill="#fc0"/><path d="m8 22.5c-1.3.6 1.7 3.1 1.7 3.1s-.4-3.7-1.7-3.1z" fill="#fc0"/><path d="m5.9 21.5c-1-1.7-2.4 1.1-2.4 1.1s3.4.6 2.4-1.1z" fill="#fc0"/><path d="m8.3 20.4c1 1.7 2.4-1.1 2.4-1.1s-3.3-.6-2.4 1.1z" fill="#fc0"/><path d="m5.8 19.9c.7-1.4-2.7-2.1-2.7-2.1s2 3.4 2.7 2.1z" fill="#fc0"/><path d="m8.5 22c-.7 1.4 2.7 2.1 2.7 2.1s-2.1-3.5-2.7-2.1z" fill="#fc0"/><path d="m6.5 22.2c-1.5-1.2-1.2 2.5-1.2 2.5s2.7-1.4 1.2-2.5z" fill="#fc0"/><path d="m7.7 19.7c1.5 1.2 1.2-2.5 1.2-2.5s-2.6 1.3-1.2 2.5z" fill="#fc0"/><path d="m7 19.3c1.6.3-.3-3.2-.3-3.2s-1.3 2.9.3 3.2z" opacity=".2"/><path d="m7.3 22.6c-1.6-.3.3 3.2.3 3.2s1.3-2.9-.3-3.2z" opacity=".2"/><path d="m5.7 20.6c-.2-1.8-2.9-.6-2.9-.6s3 2.4 2.9.6z" opacity=".2"/><path d="m8.6 21.2c.2 1.8 2.9.6 2.9.6s-3.1-2.3-2.9-.6z" opacity=".2"/><path d="m6.3 19.4c1.3-.6-1.7-3.1-1.7-3.1s.4 3.7 1.7 3.1z" opacity=".2"/><path d="m8 22.5c-1.3.6 1.7 3.1 1.7 3.1s-.4-3.7-1.7-3.1z" opacity=".2"/><path d="m5.9 21.5c-1-1.7-2.4 1.1-2.4 1.1s3.4.6 2.4-1.1z" opacity=".2"/><path d="m8.3 20.4c1 1.7 2.4-1.1 2.4-1.1s-3.3-.6-2.4 1.1z" opacity=".2"/><path d="m5.8 19.9c.7-1.4-2.7-2.1-2.7-2.1s2 3.4 2.7 2.1z" opacity=".2"/><path d="m8.5 22c-.7 1.4 2.7 2.1 2.7 2.1s-2.1-3.5-2.7-2.1z" opacity=".2"/><path d="m6.5 22.2c-1.5-1.2-1.2 2.5-1.2 2.5s2.7-1.4 1.2-2.5z" opacity=".2"/><path d="m7.7 19.7c1.5 1.2 1.2-2.5 1.2-2.5s-2.6 1.3-1.2 2.5z" opacity=".2"/><path d="m7.3 19.4c1.6.8.5-3 .5-3s-2 2.3-.5 3z" fill="#fc0"/><path d="m6.9 22.4c-1.6-.8-.5 3-.5 3s2.1-2.2.5-3z" fill="#fc0"/><path d="m5.7 20.2c.3-1.6-2.9-1.4-2.9-1.4s2.6 3 2.9 1.4z" fill="#fc0"/><path d="m8.6 21.6c-.3 1.6 2.9 1.4 2.9 1.4s-2.7-3-2.9-1.4z" fill="#fc0"/><path d="m6.6 19.3c1.5-.2-1.1-3.3-1.1-3.3s-.4 3.4 1.1 3.3z" fill="#fc0"/><path d="m7.7 22.6c-1.5.2 1.1 3.3 1.1 3.3s.3-3.5-1.1-3.3z" fill="#fc0"/><path d="m5.8 21.1c-.6-1.8-2.8.2-2.8.2s3.3 1.6 2.8-.2z" fill="#fc0"/><path d="m8.5 20.8c.6 1.8 2.7-.3 2.7-.3s-3.3-1.5-2.7.3z" fill="#fc0"/><path d="m6 19.6c1-1-2.3-2.7-2.3-2.7s1.3 3.7 2.3 2.7z" fill="#fc0"/><path d="m8.3 22.3c-1 1 2.3 2.7 2.3 2.7s-1.3-3.7-2.3-2.7z" fill="#fc0"/><path d="m6.2 21.9c-1.3-1.5-1.9 1.9-1.9 1.9s3.1-.5 1.9-1.9z" fill="#fc0"/><path d="m8 20c1.3 1.5 1.9-1.9 1.9-1.9s-3.1.4-1.9 1.9z" fill="#fc0"/><path d="m9.3 22c-.2 1.2-1.3 1.8-2.5 1.2s-2-2.1-1.8-3.3 1.3-1.8 2.5-1.2 2 2 1.8 3.3z" fill="#825012"/><path d="m13.5 25.1c-1.1-1.7-2.6.9-2.6.9s3.6.8 2.6-.9z" fill="#539b00"/><path d="m14.7 26.8c-2.4-.2-1 3.1-1 3.1s3.4-2.9 1-3.1z" fill="#539b00"/><path d="m13.8 23.4c2-1.2-1-3.1-1-3.1s-1 4.3 1 3.1z" fill="#539b00"/><path d="m16.3 25.9c-1.1 1.3 2.9 3.3 2.9 3.3s-1.8-4.6-2.9-3.3z" fill="#539b00"/><path d="m15.8 23.8c.7 2.3 2.8-1.3 2.8-1.3s-3.4-1-2.8 1.3z" fill="#539b00"/><path d="m15.8 43.8h.7l-.4-18.6-.4-.1z" fill="#539b00"/><path d="m16.3 39.1c0 3 3.3-.1 4.5-.4-1.2-1.8-5.8-2.6-4.5.4z" fill="#539b00"/><path d="m16.1 31.7c0 2.2 2.5-.1 3.4-.3-.9-1.4-4.4-2-3.4.3z" fill="#539b00"/><path d="m16 36c-.9 2.5-2.6-1.2-3.6-1.8 1.5-1.1 5.6-.3 3.6 1.8z" fill="#539b00"/><path d="m15 23.3c1.6.3-.3-3.2-.3-3.2s-1.3 2.9.3 3.2z" fill="#fc0"/><path d="m15.3 26.6c-1.6-.3.3 3.2.3 3.2s1.3-2.9-.3-3.2z" fill="#fc0"/><path d="m13.7 24.6c-.2-1.8-2.9-.6-2.9-.6s3 2.4 2.9.6z" fill="#fc0"/><path d="m16.6 25.2c.2 1.8 2.9.6 2.9.6s-3.1-2.3-2.9-.6z" fill="#fc0"/><path d="m14.3 23.4c1.3-.6-1.7-3.1-1.7-3.1s.4 3.7 1.7 3.1z" fill="#fc0"/><path d="m16 26.5c-1.3.6 1.7 3.1 1.7 3.1s-.4-3.7-1.7-3.1z" fill="#fc0"/><path d="m13.9 25.5c-1-1.7-2.4 1.1-2.4 1.1s3.4.6 2.4-1.1z" fill="#fc0"/><path d="m16.3 24.4c1 1.7 2.4-1.1 2.4-1.1s-3.3-.6-2.4 1.1z" fill="#fc0"/><path d="m13.8 23.9c.7-1.4-2.7-2.1-2.7-2.1s2 3.4 2.7 2.1z" fill="#fc0"/><path d="m16.5 26c-.7 1.4 2.7 2.1 2.7 2.1s-2.1-3.5-2.7-2.1z" fill="#fc0"/><path d="m14.5 26.2c-1.5-1.2-1.2 2.5-1.2 2.5s2.7-1.4 1.2-2.5z" fill="#fc0"/><path d="m15.7 23.7c1.5 1.2 1.2-2.5 1.2-2.5s-2.6 1.3-1.2 2.5z" fill="#fc0"/><path d="m15 23.3c1.6.3-.3-3.2-.3-3.2s-1.3 2.9.3 3.2z" opacity=".2"/><path d="m15.3 26.6c-1.6-.3.3 3.2.3 3.2s1.3-2.9-.3-3.2z" opacity=".2"/><path d="m13.7 24.6c-.2-1.8-2.9-.6-2.9-.6s3 2.4 2.9.6z" opacity=".2"/><path d="m16.6 25.2c.2 1.8 2.9.6 2.9.6s-3.1-2.3-2.9-.6z" opacity=".2"/><path d="m14.3 23.4c1.3-.6-1.7-3.1-1.7-3.1s.4 3.7 1.7 3.1z" opacity=".2"/><path d="m16 26.5c-1.3.6 1.7 3.1 1.7 3.1s-.4-3.7-1.7-3.1z" opacity=".2"/><path d="m13.9 25.5c-1-1.7-2.4 1.1-2.4 1.1s3.4.6 2.4-1.1z" opacity=".2"/><path d="m16.3 24.4c1 1.7 2.4-1.1 2.4-1.1s-3.3-.6-2.4 1.1z" opacity=".2"/><path d="m13.8 23.9c.7-1.4-2.7-2.1-2.7-2.1s2 3.4 2.7 2.1z" opacity=".2"/><path d="m16.5 26c-.7 1.4 2.7 2.1 2.7 2.1s-2.1-3.5-2.7-2.1z" opacity=".2"/><path d="m14.5 26.2c-1.5-1.2-1.2 2.5-1.2 2.5s2.7-1.4 1.2-2.5z" opacity=".2"/><path d="m15.7 23.7c1.5 1.2 1.2-2.5 1.2-2.5s-2.6 1.3-1.2 2.5z" opacity=".2"/><path d="m15.3 23.4c1.6.8.5-3 .5-3s-2 2.3-.5 3z" fill="#fc0"/><path d="m14.9 26.4c-1.6-.8-.5 3-.5 3s2.1-2.2.5-3z" fill="#fc0"/><path d="m13.7 24.2c.3-1.6-2.9-1.4-2.9-1.4s2.6 3 2.9 1.4z" fill="#fc0"/><path d="m16.6 25.6c-.3 1.6 2.9 1.4 2.9 1.4s-2.7-3-2.9-1.4z" fill="#fc0"/><path d="m14.6 23.3c1.5-.2-1.1-3.3-1.1-3.3s-.4 3.4 1.1 3.3z" fill="#fc0"/><path d="m15.7 26.6c-1.5.2 1.1 3.3 1.1 3.3s.3-3.5-1.1-3.3z" fill="#fc0"/><path d="m13.8 25.1c-.6-1.8-2.7.3-2.7.3s3.2 1.5 2.7-.3z" fill="#fc0"/><path d="m16.5 24.8c.6 1.8 2.7-.3 2.7-.3s-3.3-1.5-2.7.3z" fill="#fc0"/><path d="m14 23.6c1-1-2.3-2.7-2.3-2.7s1.3 3.7 2.3 2.7z" fill="#fc0"/><path d="m16.3 26.3c-1 1 2.3 2.7 2.3 2.7s-1.3-3.7-2.3-2.7z" fill="#fc0"/><path d="m14.2 25.9c-1.3-1.5-1.9 1.9-1.9 1.9s3.1-.5 1.9-1.9z" fill="#fc0"/><path d="m16 24c1.3 1.5 1.9-1.9 1.9-1.9s-3.1.4-1.9 1.9z" fill="#fc0"/><path d="m17.3 26c-.2 1.2-1.3 1.8-2.5 1.2s-2-2.1-1.8-3.3 1.3-1.8 2.5-1.2 2 2 1.8 3.3z" fill="#825012"/><path d="m53.5 21.1c-1.1-1.7-2.6.9-2.6.9s3.6.8 2.6-.9z" fill="#539b00"/><path d="m54.7 22.8c-2.4-.2-1 3.1-1 3.1s3.4-2.9 1-3.1z" fill="#539b00"/><path d="m53.8 19.4c2-1.2-1-3.1-1-3.1s-1 4.3 1 3.1z" fill="#539b00"/><path d="m56.3 21.9c-1.1 1.3 2.9 3.3 2.9 3.3s-1.8-4.6-2.9-3.3z" fill="#539b00"/><path d="m55.8 19.8c.7 2.3 2.8-1.3 2.8-1.3s-3.4-1-2.8 1.3z" fill="#539b00"/><path d="m56.2 28.3c.6 2.2 2.4-.8 3.3-1.3-1.3-1-4.9-.6-3.3 1.3z" fill="#539b00"/><path d="m55.8 39.8h.7l-.4-18.6-.4-.1z" fill="#539b00"/><path d="m56.3 34.9c0 3 3.3-.1 4.5-.4-1.2-1.8-5.8-2.7-4.5.4z" fill="#539b00"/><path d="m55.8 30.9c-.9 2.5-2.6-1.2-3.6-1.8 1.6-1.1 5.7-.3 3.6 1.8z" fill="#539b00"/><path d="m55 19.3c1.6.3-.3-3.2-.3-3.2s-1.3 2.9.3 3.2z" fill="#fc0"/><path d="m55.3 22.6c-1.6-.3.3 3.2.3 3.2s1.3-2.9-.3-3.2z" fill="#fc0"/><path d="m53.7 20.6c-.2-1.8-2.9-.6-2.9-.6s3 2.4 2.9.6z" fill="#fc0"/><path d="m56.6 21.2c.2 1.8 2.9.6 2.9.6s-3.1-2.3-2.9-.6z" fill="#fc0"/><path d="m54.3 19.4c1.3-.6-1.7-3.1-1.7-3.1s.4 3.7 1.7 3.1z" fill="#fc0"/><path d="m56 22.5c-1.3.6 1.7 3.1 1.7 3.1s-.4-3.7-1.7-3.1z" fill="#fc0"/><path d="m53.9 21.5c-1-1.7-2.4 1.1-2.4 1.1s3.4.6 2.4-1.1z" fill="#fc0"/><path d="m56.3 20.4c1 1.7 2.4-1.1 2.4-1.1s-3.3-.6-2.4 1.1z" fill="#fc0"/><path d="m53.8 19.9c.7-1.4-2.7-2.1-2.7-2.1s2 3.4 2.7 2.1z" fill="#fc0"/><path d="m56.5 22c-.7 1.4 2.7 2.1 2.7 2.1s-2.1-3.5-2.7-2.1z" fill="#fc0"/><path d="m54.5 22.2c-1.5-1.2-1.2 2.5-1.2 2.5s2.7-1.4 1.2-2.5z" fill="#fc0"/><path d="m55.7 19.7c1.5 1.2 1.2-2.5 1.2-2.5s-2.6 1.3-1.2 2.5z" fill="#fc0"/><path d="m55 19.3c1.6.3-.3-3.2-.3-3.2s-1.3 2.9.3 3.2z" opacity=".2"/><path d="m55.3 22.6c-1.6-.3.3 3.2.3 3.2s1.3-2.9-.3-3.2z" opacity=".2"/><path d="m53.7 20.6c-.2-1.8-2.9-.6-2.9-.6s3 2.4 2.9.6z" opacity=".2"/><path d="m56.6 21.2c.2 1.8 2.9.6 2.9.6s-3.1-2.3-2.9-.6z" opacity=".2"/><path d="m54.3 19.4c1.3-.6-1.7-3.1-1.7-3.1s.4 3.7 1.7 3.1z" opacity=".2"/><path d="m56 22.5c-1.3.6 1.7 3.1 1.7 3.1s-.4-3.7-1.7-3.1z" opacity=".2"/><path d="m53.9 21.5c-1-1.7-2.4 1.1-2.4 1.1s3.4.6 2.4-1.1z" opacity=".2"/><path d="m56.3 20.4c1 1.7 2.4-1.1 2.4-1.1s-3.3-.6-2.4 1.1z" opacity=".2"/><path d="m53.8 19.9c.7-1.4-2.7-2.1-2.7-2.1s2 3.4 2.7 2.1z" opacity=".2"/><path d="m56.5 22c-.7 1.4 2.7 2.1 2.7 2.1s-2.1-3.5-2.7-2.1z" opacity=".2"/><path d="m54.5 22.2c-1.5-1.2-1.2 2.5-1.2 2.5s2.7-1.4 1.2-2.5z" opacity=".2"/><path d="m55.7 19.7c1.5 1.2 1.2-2.5 1.2-2.5s-2.6 1.3-1.2 2.5z" opacity=".2"/><path d="m55.3 19.4c1.6.8.5-3 .5-3s-2 2.3-.5 3z" fill="#fc0"/><path d="m54.9 22.4c-1.6-.8-.5 3-.5 3s2.1-2.2.5-3z" fill="#fc0"/><path d="m53.7 20.2c.3-1.6-2.9-1.4-2.9-1.4s2.6 3 2.9 1.4z" fill="#fc0"/><path d="m56.6 21.6c-.3 1.6 2.9 1.4 2.9 1.4s-2.7-3-2.9-1.4z" fill="#fc0"/><path d="m54.6 19.3c1.5-.2-1.1-3.3-1.1-3.3s-.4 3.4 1.1 3.3z" fill="#fc0"/><path d="m55.7 22.6c-1.5.2 1.1 3.3 1.1 3.3s.3-3.5-1.1-3.3z" fill="#fc0"/><path d="m53.8 21.1c-.6-1.8-2.7.3-2.7.3s3.2 1.5 2.7-.3z" fill="#fc0"/><path d="m56.5 20.8c.6 1.8 2.7-.3 2.7-.3s-3.3-1.5-2.7.3z" fill="#fc0"/><path d="m54 19.6c1-1-2.3-2.7-2.3-2.7s1.3 3.7 2.3 2.7z" fill="#fc0"/><path d="m56.3 22.3c-1 1 2.3 2.7 2.3 2.7s-1.3-3.7-2.3-2.7z" fill="#fc0"/><path d="m54.2 21.9c-1.3-1.5-1.9 1.9-1.9 1.9s3.1-.5 1.9-1.9z" fill="#fc0"/><path d="m56 20c1.3 1.5 1.9-1.9 1.9-1.9s-3.1.4-1.9 1.9z" fill="#fc0"/><path d="m57.3 22c-.2 1.2-1.3 1.8-2.5 1.2s-2-2.1-1.8-3.3 1.3-1.8 2.5-1.2 2 2 1.8 3.3z" fill="#825012"/><path d="m45.5 17.1c-1.1-1.7-2.6.9-2.6.9s3.6.8 2.6-.9z" fill="#539b00"/><path d="m45.8 15.4c2-1.2-1-3.1-1-3.1s-1 4.3 1 3.1z" fill="#539b00"/><path d="m48.3 17.9c-1.1 1.3 2.9 3.3 2.9 3.3s-1.8-4.6-2.9-3.3z" fill="#539b00"/><path d="m47.8 15.8c.7 2.3 2.8-1.3 2.8-1.3s-3.4-1-2.8 1.3z" fill="#539b00"/><path d="m47 15.3c1.6.3-.3-3.2-.3-3.2s-1.3 2.9.3 3.2z" fill="#fc0"/><path d="m47.3 18.6c-1.6-.3.3 3.2.3 3.2s1.3-2.9-.3-3.2z" fill="#fc0"/><path d="m45.7 16.6c-.2-1.8-2.9-.6-2.9-.6s3 2.4 2.9.6z" fill="#fc0"/><path d="m48.6 17.2c.2 1.8 2.9.6 2.9.6s-3.1-2.3-2.9-.6z" fill="#fc0"/><path d="m46.3 15.4c1.3-.6-1.7-3.1-1.7-3.1s.4 3.7 1.7 3.1z" fill="#fc0"/><path d="m48 18.5c-1.3.6 1.7 3.1 1.7 3.1s-.4-3.7-1.7-3.1z" fill="#fc0"/><path d="m45.9 17.5c-1-1.7-2.4 1.1-2.4 1.1s3.4.6 2.4-1.1z" fill="#fc0"/><path d="m48.3 16.4c1 1.7 2.4-1.1 2.4-1.1s-3.3-.6-2.4 1.1z" fill="#fc0"/><path d="m45.8 15.9c.7-1.4-2.7-2.1-2.7-2.1s2 3.4 2.7 2.1z" fill="#fc0"/><path d="m48.5 18c-.7 1.4 2.7 2.1 2.7 2.1s-2.1-3.5-2.7-2.1z" fill="#fc0"/><path d="m46.5 18.2c-1.5-1.2-1.2 2.5-1.2 2.5s2.7-1.4 1.2-2.5z" fill="#fc0"/><path d="m47.7 15.7c1.5 1.2 1.2-2.5 1.2-2.5s-2.6 1.3-1.2 2.5z" fill="#fc0"/><path d="m47 15.3c1.6.3-.3-3.2-.3-3.2s-1.3 2.9.3 3.2z" opacity=".2"/><path d="m47.3 18.6c-1.6-.3.3 3.2.3 3.2s1.3-2.9-.3-3.2z" opacity=".2"/><path d="m45.7 16.6c-.2-1.8-2.9-.6-2.9-.6s3 2.4 2.9.6z" opacity=".2"/><path d="m48.6 17.2c.2 1.8 2.9.6 2.9.6s-3.1-2.3-2.9-.6z" opacity=".2"/><path d="m46.3 15.4c1.3-.6-1.7-3.1-1.7-3.1s.4 3.7 1.7 3.1z" opacity=".2"/><path d="m48 18.5c-1.3.6 1.7 3.1 1.7 3.1s-.4-3.7-1.7-3.1z" opacity=".2"/><path d="m45.9 17.5c-1-1.7-2.4 1.1-2.4 1.1s3.4.6 2.4-1.1z" opacity=".2"/><path d="m48.3 16.4c1 1.7 2.4-1.1 2.4-1.1s-3.3-.6-2.4 1.1z" opacity=".2"/><path d="m45.8 15.9c.7-1.4-2.7-2.1-2.7-2.1s2 3.4 2.7 2.1z" opacity=".2"/><path d="m48.5 18c-.7 1.4 2.7 2.1 2.7 2.1s-2.1-3.5-2.7-2.1z" opacity=".2"/><path d="m46.5 18.2c-1.5-1.2-1.2 2.5-1.2 2.5s2.7-1.4 1.2-2.5z" opacity=".2"/><path d="m47.7 15.7c1.5 1.2 1.2-2.5 1.2-2.5s-2.6 1.3-1.2 2.5z" opacity=".2"/><path d="m47.3 15.4c1.6.8.5-3 .5-3s-2 2.3-.5 3z" fill="#fc0"/><path d="m46.9 18.4c-1.6-.8-.5 3-.5 3s2.1-2.2.5-3z" fill="#fc0"/><path d="m45.7 16.2c.3-1.6-2.9-1.4-2.9-1.4s2.6 3 2.9 1.4z" fill="#fc0"/><path d="m48.6 17.6c-.3 1.6 2.9 1.4 2.9 1.4s-2.7-3-2.9-1.4z" fill="#fc0"/><path d="m46.6 15.3c1.5-.2-1.1-3.3-1.1-3.3s-.4 3.4 1.1 3.3z" fill="#fc0"/><path d="m47.7 18.6c-1.5.2 1.1 3.3 1.1 3.3s.3-3.5-1.1-3.3z" fill="#fc0"/><path d="m45.8 17.1c-.6-1.8-2.7.3-2.7.3s3.2 1.5 2.7-.3z" fill="#fc0"/><path d="m48.5 16.8c.6 1.8 2.7-.3 2.7-.3s-3.3-1.5-2.7.3z" fill="#fc0"/><path d="m46 15.6c1-1-2.3-2.7-2.3-2.7s1.3 3.7 2.3 2.7z" fill="#fc0"/><path d="m48.3 18.3c-1 1 2.3 2.7 2.3 2.7s-1.3-3.7-2.3-2.7z" fill="#fc0"/><path d="m46.2 17.9c-1.3-1.5-1.9 1.9-1.9 1.9s3.1-.5 1.9-1.9z" fill="#fc0"/><path d="m48 16c1.3 1.5 1.9-1.9 1.9-1.9s-3.1.4-1.9 1.9z" fill="#fc0"/><path d="m49.3 18c-.2 1.2-1.3 1.8-2.5 1.2s-2-2.1-1.8-3.3 1.3-1.8 2.5-1.2 2 2 1.8 3.3z" fill="#825012"/><path d="m37.5 21.1c-1.1-1.7-2.6.9-2.6.9s3.6.8 2.6-.9z" fill="#539b00"/><path d="m38.7 22.8c-2.4-.2-1 3.1-1 3.1s3.4-2.9 1-3.1z" fill="#539b00"/><path d="m37.8 19.4c2-1.2-1-3.1-1-3.1s-1 4.3 1 3.1z" fill="#539b00"/><path d="m40.3 21.9c-1.1 1.3 2.9 3.3 2.9 3.3s-1.8-4.6-2.9-3.3z" fill="#539b00"/><path d="m39.8 19.8c.7 2.3 2.8-1.3 2.8-1.3s-3.4-1-2.8 1.3z" fill="#539b00"/><path d="m40.2 28.3c.6 2.2 2.4-.8 3.3-1.3-1.3-1-4.9-.6-3.3 1.3z" fill="#539b00"/><path d="m39 19.3c1.6.3-.3-3.2-.3-3.2s-1.3 2.9.3 3.2z" fill="#fc0"/><path d="m39.3 22.6c-1.6-.3.3 3.2.3 3.2s1.3-2.9-.3-3.2z" fill="#fc0"/><path d="m37.7 20.6c-.2-1.8-2.9-.6-2.9-.6s3 2.4 2.9.6z" fill="#fc0"/><path d="m40.6 21.2c.2 1.8 2.9.6 2.9.6s-3.1-2.3-2.9-.6z" fill="#fc0"/><path d="m38.3 19.4c1.3-.6-1.7-3.1-1.7-3.1s.4 3.7 1.7 3.1z" fill="#fc0"/><path d="m40 22.5c-1.3.6 1.7 3.1 1.7 3.1s-.4-3.7-1.7-3.1z" fill="#fc0"/><path d="m37.9 21.5c-1-1.7-2.4 1.1-2.4 1.1s3.4.6 2.4-1.1z" fill="#fc0"/><path d="m40.3 20.4c1 1.7 2.4-1.1 2.4-1.1s-3.3-.6-2.4 1.1z" fill="#fc0"/><path d="m37.8 19.9c.7-1.4-2.7-2.1-2.7-2.1s2 3.4 2.7 2.1z" fill="#fc0"/><path d="m40.5 22c-.7 1.4 2.7 2.1 2.7 2.1s-2.1-3.5-2.7-2.1z" fill="#fc0"/><path d="m38.5 22.2c-1.5-1.2-1.2 2.5-1.2 2.5s2.7-1.4 1.2-2.5z" fill="#fc0"/><path d="m39.7 19.7c1.5 1.2 1.2-2.5 1.2-2.5s-2.6 1.3-1.2 2.5z" fill="#fc0"/><path d="m39 19.3c1.6.3-.3-3.2-.3-3.2s-1.3 2.9.3 3.2z" opacity=".2"/><path d="m39.3 22.6c-1.6-.3.3 3.2.3 3.2s1.3-2.9-.3-3.2z" opacity=".2"/><path d="m37.7 20.6c-.2-1.8-2.9-.6-2.9-.6s3 2.4 2.9.6z" opacity=".2"/><path d="m40.6 21.2c.2 1.8 2.9.6 2.9.6s-3.1-2.3-2.9-.6z" opacity=".2"/><path d="m38.3 19.4c1.3-.6-1.7-3.1-1.7-3.1s.4 3.7 1.7 3.1z" opacity=".2"/><path d="m40 22.5c-1.3.6 1.7 3.1 1.7 3.1s-.4-3.7-1.7-3.1z" opacity=".2"/><path d="m37.9 21.5c-1-1.7-2.4 1.1-2.4 1.1s3.4.6 2.4-1.1z" opacity=".2"/><path d="m40.3 20.4c1 1.7 2.4-1.1 2.4-1.1s-3.3-.6-2.4 1.1z" opacity=".2"/><path d="m37.8 19.9c.7-1.4-2.7-2.1-2.7-2.1s2 3.4 2.7 2.1z" opacity=".2"/><path d="m40.5 22c-.7 1.4 2.7 2.1 2.7 2.1s-2.1-3.5-2.7-2.1z" opacity=".2"/><path d="m38.5 22.2c-1.5-1.2-1.2 2.5-1.2 2.5s2.7-1.4 1.2-2.5z" opacity=".2"/><path d="m39.7 19.7c1.5 1.2 1.2-2.5 1.2-2.5s-2.6 1.3-1.2 2.5z" opacity=".2"/><path d="m39.3 19.4c1.6.8.5-3 .5-3s-2 2.3-.5 3z" fill="#fc0"/><path d="m38.9 22.4c-1.6-.8-.5 3-.5 3s2.1-2.2.5-3z" fill="#fc0"/><path d="m37.7 20.2c.3-1.6-2.9-1.4-2.9-1.4s2.6 3 2.9 1.4z" fill="#fc0"/><path d="m40.6 21.6c-.3 1.6 2.9 1.4 2.9 1.4s-2.7-3-2.9-1.4z" fill="#fc0"/><path d="m38.6 19.3c1.5-.2-1.1-3.3-1.1-3.3s-.4 3.4 1.1 3.3z" fill="#fc0"/><path d="m39.7 22.6c-1.5.2 1.1 3.3 1.1 3.3s.3-3.5-1.1-3.3z" fill="#fc0"/><path d="m37.8 21.1c-.6-1.8-2.7.3-2.7.3s3.2 1.5 2.7-.3z" fill="#fc0"/><path d="m40.5 20.8c.6 1.8 2.7-.3 2.7-.3s-3.3-1.5-2.7.3z" fill="#fc0"/><path d="m38 19.6c1-1-2.3-2.7-2.3-2.7s1.3 3.7 2.3 2.7z" fill="#fc0"/><path d="m40.3 22.3c-1 1 2.3 2.7 2.3 2.7s-1.3-3.7-2.3-2.7z" fill="#fc0"/><path d="m38.2 21.9c-1.3-1.5-1.9 1.9-1.9 1.9s3.1-.5 1.9-1.9z" fill="#fc0"/><path d="m40 20c1.3 1.5 1.9-1.9 1.9-1.9s-3.1.4-1.9 1.9z" fill="#fc0"/><path d="m41.3 22c-.2 1.2-1.3 1.8-2.5 1.2s-2-2.1-1.8-3.3 1.3-1.8 2.5-1.2 2 2 1.8 3.3z" fill="#825012"/><path d="m45.5 25.1c-1.1-1.7-2.6.9-2.6.9s3.6.8 2.6-.9z" fill="#539b00"/><path d="m46.7 26.8c-2.4-.2-1 3.1-1 3.1s3.4-2.9 1-3.1z" fill="#539b00"/><path d="m45.8 23.4c2-1.2-1-3.1-1-3.1s-1 4.3 1 3.1z" fill="#539b00"/><path d="m48.3 25.9c-1.1 1.3 2.9 3.3 2.9 3.3s-1.8-4.6-2.9-3.3z" fill="#539b00"/><path d="m47.8 23.8c.7 2.3 2.8-1.3 2.8-1.3s-3.4-1-2.8 1.3z" fill="#539b00"/><path d="m47.8 43.8h.7l-.4-18.6-.4-.1z" fill="#539b00"/><path d="m48.3 39.1c0 3 3.3-.1 4.5-.4-1.2-1.8-5.8-2.6-4.5.4z" fill="#539b00"/><path d="m48.1 31.7c0 2.2 2.5-.1 3.4-.3-.9-1.4-4.4-2-3.4.3z" fill="#539b00"/><path d="m48 36c-.9 2.5-2.6-1.2-3.6-1.8 1.5-1.1 5.6-.3 3.6 1.8z" fill="#539b00"/><path d="m47 23.3c1.6.3-.3-3.2-.3-3.2s-1.3 2.9.3 3.2z" fill="#fc0"/><path d="m47.3 26.6c-1.6-.3.3 3.2.3 3.2s1.3-2.9-.3-3.2z" fill="#fc0"/><path d="m45.7 24.6c-.2-1.8-2.9-.6-2.9-.6s3 2.4 2.9.6z" fill="#fc0"/><path d="m48.6 25.2c.2 1.8 2.9.6 2.9.6s-3.1-2.3-2.9-.6z" fill="#fc0"/><path d="m46.3 23.4c1.3-.6-1.7-3.1-1.7-3.1s.4 3.7 1.7 3.1z" fill="#fc0"/><path d="m48 26.5c-1.3.6 1.7 3.1 1.7 3.1s-.4-3.7-1.7-3.1z" fill="#fc0"/><path d="m45.9 25.5c-1-1.7-2.4 1.1-2.4 1.1s3.4.6 2.4-1.1z" fill="#fc0"/><path d="m48.3 24.4c1 1.7 2.4-1.1 2.4-1.1s-3.3-.6-2.4 1.1z" fill="#fc0"/><path d="m45.8 23.9c.7-1.4-2.7-2.1-2.7-2.1s2 3.4 2.7 2.1z" fill="#fc0"/><path d="m48.5 26c-.7 1.4 2.7 2.1 2.7 2.1s-2.1-3.5-2.7-2.1z" fill="#fc0"/><path d="m46.5 26.2c-1.5-1.2-1.2 2.5-1.2 2.5s2.7-1.4 1.2-2.5z" fill="#fc0"/><path d="m47.7 23.7c1.5 1.2 1.2-2.5 1.2-2.5s-2.6 1.3-1.2 2.5z" fill="#fc0"/><path d="m47 23.3c1.6.3-.3-3.2-.3-3.2s-1.3 2.9.3 3.2z" opacity=".2"/><path d="m47.3 26.6c-1.6-.3.3 3.2.3 3.2s1.3-2.9-.3-3.2z" opacity=".2"/><path d="m45.7 24.6c-.2-1.8-2.9-.6-2.9-.6s3 2.4 2.9.6z" opacity=".2"/><path d="m48.6 25.2c.2 1.8 2.9.6 2.9.6s-3.1-2.3-2.9-.6z" opacity=".2"/><path d="m46.3 23.4c1.3-.6-1.7-3.1-1.7-3.1s.4 3.7 1.7 3.1z" opacity=".2"/><path d="m48 26.5c-1.3.6 1.7 3.1 1.7 3.1s-.4-3.7-1.7-3.1z" opacity=".2"/><path d="m45.9 25.5c-1-1.7-2.4 1.1-2.4 1.1s3.4.6 2.4-1.1z" opacity=".2"/><path d="m48.3 24.4c1 1.7 2.4-1.1 2.4-1.1s-3.3-.6-2.4 1.1z" opacity=".2"/><path d="m45.8 23.9c.7-1.4-2.7-2.1-2.7-2.1s2 3.4 2.7 2.1z" opacity=".2"/><path d="m48.5 26c-.7 1.4 2.7 2.1 2.7 2.1s-2.1-3.5-2.7-2.1z" opacity=".2"/><path d="m46.5 26.2c-1.5-1.2-1.2 2.5-1.2 2.5s2.7-1.4 1.2-2.5z" opacity=".2"/><path d="m47.7 23.7c1.5 1.2 1.2-2.5 1.2-2.5s-2.6 1.3-1.2 2.5z" opacity=".2"/><path d="m47.3 23.4c1.6.8.5-3 .5-3s-2 2.3-.5 3z" fill="#fc0"/><path d="m46.9 26.4c-1.6-.8-.5 3-.5 3s2.1-2.2.5-3z" fill="#fc0"/><path d="m45.7 24.2c.3-1.6-2.9-1.4-2.9-1.4s2.6 3 2.9 1.4z" fill="#fc0"/><path d="m48.6 25.6c-.3 1.6 2.9 1.4 2.9 1.4s-2.7-3-2.9-1.4z" fill="#fc0"/><path d="m46.6 23.3c1.5-.2-1.1-3.3-1.1-3.3s-.4 3.4 1.1 3.3z" fill="#fc0"/><path d="m47.7 26.6c-1.5.2 1.1 3.3 1.1 3.3s.3-3.5-1.1-3.3z" fill="#fc0"/><path d="m45.8 25.1c-.6-1.8-2.7.3-2.7.3s3.2 1.5 2.7-.3z" fill="#fc0"/><path d="m48.5 24.8c.6 1.8 2.7-.3 2.7-.3s-3.3-1.5-2.7.3z" fill="#fc0"/><path d="m46 23.6c1-1-2.3-2.7-2.3-2.7s1.3 3.7 2.3 2.7z" fill="#fc0"/><path d="m48.3 26.3c-1 1 2.3 2.7 2.3 2.7s-1.3-3.7-2.3-2.7z" fill="#fc0"/><path d="m46.2 25.9c-1.3-1.5-1.9 1.9-1.9 1.9s3.1-.5 1.9-1.9z" fill="#fc0"/><path d="m48 24c1.3 1.5 1.9-1.9 1.9-1.9s-3.1.4-1.9 1.9z" fill="#fc0"/><path d="m49.3 26c-.2 1.2-1.3 1.8-2.5 1.2s-2-2.1-1.8-3.3 1.3-1.8 2.5-1.2 2 2 1.8 3.3z" fill="#825012"/><path d="m37.5 29.1c-1.1-1.7-2.6.9-2.6.9s3.6.8 2.6-.9z" fill="#539b00"/><path d="m38.7 30.8c-2.4-.2-1 3.1-1 3.1s3.4-2.9 1-3.1z" fill="#539b00"/><path d="m37.8 27.4c2-1.2-1-3.1-1-3.1s-1 4.3 1 3.1z" fill="#539b00"/><path d="m40.3 29.9c-1.1 1.3 2.9 3.3 2.9 3.3s-1.8-4.6-2.9-3.3z" fill="#539b00"/><path d="m39.8 27.8c.7 2.3 2.8-1.3 2.8-1.3s-3.4-1-2.8 1.3z" fill="#539b00"/><path d="m40.2 36.3c.6 2.2 2.4-.8 3.3-1.3-1.3-1-4.9-.6-3.3 1.3z" fill="#539b00"/><path d="m39.8 47.8h.7l-.4-18.6-.4-.1z" fill="#539b00"/><path d="m40.3 42.9c0 3 3.3-.1 4.5-.4-1.2-1.8-5.8-2.7-4.5.4z" fill="#539b00"/><path d="m39.8 38.9c-.9 2.5-2.6-1.2-3.6-1.8 1.6-1.1 5.7-.3 3.6 1.8z" fill="#539b00"/><path d="m39 27.3c1.6.3-.3-3.2-.3-3.2s-1.3 2.9.3 3.2z" fill="#fc0"/><path d="m39.3 30.6c-1.6-.3.3 3.2.3 3.2s1.3-2.9-.3-3.2z" fill="#fc0"/><path d="m37.7 28.6c-.2-1.8-2.9-.6-2.9-.6s3 2.4 2.9.6z" fill="#fc0"/><path d="m40.6 29.2c.2 1.8 2.9.6 2.9.6s-3.1-2.3-2.9-.6z" fill="#fc0"/><path d="m38.3 27.4c1.3-.6-1.7-3.1-1.7-3.1s.4 3.7 1.7 3.1z" fill="#fc0"/><path d="m40 30.5c-1.3.6 1.7 3.1 1.7 3.1s-.4-3.7-1.7-3.1z" fill="#fc0"/><path d="m37.9 29.5c-1-1.7-2.4 1.1-2.4 1.1s3.4.6 2.4-1.1z" fill="#fc0"/><path d="m40.3 28.4c1 1.7 2.4-1.1 2.4-1.1s-3.3-.6-2.4 1.1z" fill="#fc0"/><path d="m37.8 27.9c.7-1.4-2.7-2.1-2.7-2.1s2 3.4 2.7 2.1z" fill="#fc0"/><path d="m40.5 30c-.7 1.4 2.7 2.1 2.7 2.1s-2.1-3.5-2.7-2.1z" fill="#fc0"/><path d="m38.5 30.2c-1.5-1.2-1.2 2.5-1.2 2.5s2.7-1.4 1.2-2.5z" fill="#fc0"/><path d="m39.7 27.7c1.5 1.2 1.2-2.5 1.2-2.5s-2.6 1.3-1.2 2.5z" fill="#fc0"/><path d="m39 27.3c1.6.3-.3-3.2-.3-3.2s-1.3 2.9.3 3.2z" opacity=".2"/><path d="m39.3 30.6c-1.6-.3.3 3.2.3 3.2s1.3-2.9-.3-3.2z" opacity=".2"/><path d="m37.7 28.6c-.2-1.8-2.9-.6-2.9-.6s3 2.4 2.9.6z" opacity=".2"/><path d="m40.6 29.2c.2 1.8 2.9.6 2.9.6s-3.1-2.3-2.9-.6z" opacity=".2"/><path d="m38.3 27.4c1.3-.6-1.7-3.1-1.7-3.1s.4 3.7 1.7 3.1z" opacity=".2"/><path d="m40 30.5c-1.3.6 1.7 3.1 1.7 3.1s-.4-3.7-1.7-3.1z" opacity=".2"/><path d="m37.9 29.5c-1-1.7-2.4 1.1-2.4 1.1s3.4.6 2.4-1.1z" opacity=".2"/><path d="m40.3 28.4c1 1.7 2.4-1.1 2.4-1.1s-3.3-.6-2.4 1.1z" opacity=".2"/><path d="m37.8 27.9c.7-1.4-2.7-2.1-2.7-2.1s2 3.4 2.7 2.1z" opacity=".2"/><path d="m40.5 30c-.7 1.4 2.7 2.1 2.7 2.1s-2.1-3.5-2.7-2.1z" opacity=".2"/><path d="m38.5 30.2c-1.5-1.2-1.2 2.5-1.2 2.5s2.7-1.4 1.2-2.5z" opacity=".2"/><path d="m39.7 27.7c1.5 1.2 1.2-2.5 1.2-2.5s-2.6 1.3-1.2 2.5z" opacity=".2"/><path d="m39.3 27.4c1.6.8.5-3 .5-3s-2 2.3-.5 3z" fill="#fc0"/><path d="m38.9 30.4c-1.6-.8-.5 3-.5 3s2.1-2.2.5-3z" fill="#fc0"/><path d="m37.7 28.2c.3-1.6-2.9-1.4-2.9-1.4s2.6 3 2.9 1.4z" fill="#fc0"/><path d="m40.6 29.6c-.3 1.6 2.9 1.4 2.9 1.4s-2.7-3-2.9-1.4z" fill="#fc0"/><path d="m38.6 27.3c1.5-.2-1.1-3.3-1.1-3.3s-.4 3.4 1.1 3.3z" fill="#fc0"/><path d="m39.7 30.6c-1.5.2 1.1 3.3 1.1 3.3s.3-3.5-1.1-3.3z" fill="#fc0"/><path d="m37.8 29.1c-.6-1.8-2.7.3-2.7.3s3.2 1.5 2.7-.3z" fill="#fc0"/><path d="m40.5 28.8c.6 1.8 2.7-.3 2.7-.3s-3.3-1.5-2.7.3z" fill="#fc0"/><path d="m38 27.6c1-1-2.3-2.7-2.3-2.7s1.3 3.7 2.3 2.7z" fill="#fc0"/><path d="m40.3 30.3c-1 1 2.3 2.7 2.3 2.7s-1.3-3.7-2.3-2.7z" fill="#fc0"/><path d="m38.2 29.9c-1.3-1.5-1.9 1.9-1.9 1.9s3.1-.5 1.9-1.9z" fill="#fc0"/><path d="m40 28c1.3 1.5 1.9-1.9 1.9-1.9s-3.1.4-1.9 1.9z" fill="#fc0"/><path d="m41.3 30c-.2 1.2-1.3 1.8-2.5 1.2s-2-2.1-1.8-3.3 1.3-1.8 2.5-1.2 2 2 1.8 3.3z" fill="#825012"/><path d="m29.5 25.1c-1.1-1.7-2.6.9-2.6.9s3.6.8 2.6-.9z" fill="#539b00"/><path d="m29.8 23.4c2-1.2-1-3.1-1-3.1s-1 4.3 1 3.1z" fill="#539b00"/><path d="m32.3 25.9c-1.1 1.3 2.9 3.3 2.9 3.3s-1.8-4.6-2.9-3.3z" fill="#539b00"/><path d="m31.8 23.8c.7 2.3 2.8-1.3 2.8-1.3s-3.4-1-2.8 1.3z" fill="#539b00"/><path d="m31 23.3c1.6.3-.3-3.2-.3-3.2s-1.3 2.9.3 3.2z" fill="#fc0"/><path d="m31.3 26.6c-1.6-.3.3 3.2.3 3.2s1.3-2.9-.3-3.2z" fill="#fc0"/><path d="m29.7 24.6c-.2-1.8-2.9-.6-2.9-.6s3 2.4 2.9.6z" fill="#fc0"/><path d="m32.6 25.2c.2 1.8 2.9.6 2.9.6s-3.1-2.3-2.9-.6z" fill="#fc0"/><path d="m30.3 23.4c1.3-.6-1.7-3.1-1.7-3.1s.4 3.7 1.7 3.1z" fill="#fc0"/><path d="m32 26.5c-1.3.6 1.7 3.1 1.7 3.1s-.4-3.7-1.7-3.1z" fill="#fc0"/><path d="m29.9 25.5c-1-1.7-2.4 1.1-2.4 1.1s3.4.6 2.4-1.1z" fill="#fc0"/><path d="m32.3 24.4c1 1.7 2.4-1.1 2.4-1.1s-3.3-.6-2.4 1.1z" fill="#fc0"/><path d="m29.8 23.9c.7-1.4-2.7-2.1-2.7-2.1s2 3.4 2.7 2.1z" fill="#fc0"/><path d="m32.5 26c-.7 1.4 2.7 2.1 2.7 2.1s-2.1-3.5-2.7-2.1z" fill="#fc0"/><path d="m30.5 26.2c-1.5-1.2-1.2 2.5-1.2 2.5s2.7-1.4 1.2-2.5z" fill="#fc0"/><path d="m31.7 23.7c1.5 1.2 1.2-2.5 1.2-2.5s-2.6 1.3-1.2 2.5z" fill="#fc0"/><path d="m31 23.3c1.6.3-.3-3.2-.3-3.2s-1.3 2.9.3 3.2z" opacity=".2"/><path d="m31.3 26.6c-1.6-.3.3 3.2.3 3.2s1.3-2.9-.3-3.2z" opacity=".2"/><path d="m29.7 24.6c-.2-1.8-2.9-.6-2.9-.6s3 2.4 2.9.6z" opacity=".2"/><path d="m32.6 25.2c.2 1.8 2.9.6 2.9.6s-3.1-2.3-2.9-.6z" opacity=".2"/><path d="m30.3 23.4c1.3-.6-1.7-3.1-1.7-3.1s.4 3.7 1.7 3.1z" opacity=".2"/><path d="m32 26.5c-1.3.6 1.7 3.1 1.7 3.1s-.4-3.7-1.7-3.1z" opacity=".2"/><path d="m29.9 25.5c-1-1.7-2.4 1.1-2.4 1.1s3.4.6 2.4-1.1z" opacity=".2"/><path d="m32.3 24.4c1 1.7 2.4-1.1 2.4-1.1s-3.3-.6-2.4 1.1z" opacity=".2"/><path d="m29.8 23.9c.7-1.4-2.7-2.1-2.7-2.1s2 3.4 2.7 2.1z" opacity=".2"/><path d="m32.5 26c-.7 1.4 2.7 2.1 2.7 2.1s-2.1-3.5-2.7-2.1z" opacity=".2"/><path d="m30.5 26.2c-1.5-1.2-1.2 2.5-1.2 2.5s2.7-1.4 1.2-2.5z" opacity=".2"/><path d="m31.7 23.7c1.5 1.2 1.2-2.5 1.2-2.5s-2.6 1.3-1.2 2.5z" opacity=".2"/><path d="m31.3 23.4c1.6.8.5-3 .5-3s-2 2.3-.5 3z" fill="#fc0"/><path d="m30.9 26.4c-1.6-.8-.5 3-.5 3s2.1-2.2.5-3z" fill="#fc0"/><path d="m29.7 24.2c.3-1.6-2.9-1.4-2.9-1.4s2.6 3 2.9 1.4z" fill="#fc0"/><path d="m32.6 25.6c-.3 1.6 2.9 1.4 2.9 1.4s-2.7-3-2.9-1.4z" fill="#fc0"/><path d="m30.6 23.3c1.5-.2-1.1-3.3-1.1-3.3s-.4 3.4 1.1 3.3z" fill="#fc0"/><path d="m31.7 26.6c-1.5.2 1.1 3.3 1.1 3.3s.3-3.5-1.1-3.3z" fill="#fc0"/><path d="m29.8 25.1c-.6-1.8-2.7.3-2.7.3s3.2 1.5 2.7-.3z" fill="#fc0"/><path d="m32.5 24.8c.6 1.8 2.7-.3 2.7-.3s-3.3-1.5-2.7.3z" fill="#fc0"/><path d="m30 23.6c1-1-2.3-2.7-2.3-2.7s1.3 3.7 2.3 2.7z" fill="#fc0"/><path d="m32.3 26.3c-1 1 2.3 2.7 2.3 2.7s-1.3-3.7-2.3-2.7z" fill="#fc0"/><path d="m30.2 25.9c-1.3-1.5-1.9 1.9-1.9 1.9s3.1-.5 1.9-1.9z" fill="#fc0"/><path d="m32 24c1.3 1.5 1.9-1.9 1.9-1.9s-3.1.4-1.9 1.9z" fill="#fc0"/><path d="m33.3 26c-.2 1.2-1.3 1.8-2.5 1.2s-2-2.1-1.8-3.3 1.3-1.8 2.5-1.2 2 2 1.8 3.3z" fill="#825012"/><path d="m21.5 29.1c-1.1-1.7-2.6.9-2.6.9s3.6.8 2.6-.9z" fill="#539b00"/><path d="m22.7 30.8c-2.4-.2-1 3.1-1 3.1s3.4-2.9 1-3.1z" fill="#539b00"/><path d="m21.8 27.4c2-1.2-1-3.1-1-3.1s-1 4.3 1 3.1z" fill="#539b00"/><path d="m24.3 29.9c-1.1 1.3 2.9 3.3 2.9 3.3s-1.8-4.6-2.9-3.3z" fill="#539b00"/><path d="m23.8 27.8c.7 2.3 2.8-1.3 2.8-1.3s-3.4-1-2.8 1.3z" fill="#539b00"/><path d="m24.2 36.3c.6 2.2 2.4-.8 3.3-1.3-1.3-1-4.9-.6-3.3 1.3z" fill="#539b00"/><path d="m23.8 47.8h.7l-.4-18.6-.4-.1z" fill="#539b00"/><path d="m24.3 41.4c0 3 3.3-.1 4.5-.4-1.1-1.8-5.7-2.6-4.5.4z" fill="#539b00"/><path d="m24 40c-.9 2.5-2.6-1.2-3.6-1.8 1.5-1.1 5.6-.3 3.6 1.8z" fill="#539b00"/><path d="m23 27.3c1.6.3-.3-3.2-.3-3.2s-1.3 2.9.3 3.2z" fill="#fc0"/><path d="m23.3 30.6c-1.6-.3.3 3.2.3 3.2s1.3-2.9-.3-3.2z" fill="#fc0"/><path d="m21.7 28.6c-.2-1.8-2.9-.6-2.9-.6s3 2.4 2.9.6z" fill="#fc0"/><path d="m24.6 29.2c.2 1.8 2.9.6 2.9.6s-3.1-2.3-2.9-.6z" fill="#fc0"/><path d="m22.3 27.4c1.3-.6-1.7-3.1-1.7-3.1s.4 3.7 1.7 3.1z" fill="#fc0"/><path d="m24 30.5c-1.3.6 1.7 3.1 1.7 3.1s-.4-3.7-1.7-3.1z" fill="#fc0"/><path d="m21.9 29.5c-1-1.7-2.4 1.1-2.4 1.1s3.4.6 2.4-1.1z" fill="#fc0"/><path d="m24.3 28.4c1 1.7 2.4-1.1 2.4-1.1s-3.3-.6-2.4 1.1z" fill="#fc0"/><path d="m21.8 27.9c.7-1.4-2.7-2.1-2.7-2.1s2 3.4 2.7 2.1z" fill="#fc0"/><path d="m24.5 30c-.7 1.4 2.7 2.1 2.7 2.1s-2.1-3.5-2.7-2.1z" fill="#fc0"/><path d="m22.5 30.2c-1.5-1.2-1.2 2.5-1.2 2.5s2.7-1.4 1.2-2.5z" fill="#fc0"/><path d="m23.7 27.7c1.5 1.2 1.2-2.5 1.2-2.5s-2.6 1.3-1.2 2.5z" fill="#fc0"/><path d="m23 27.3c1.6.3-.3-3.2-.3-3.2s-1.3 2.9.3 3.2z" opacity=".2"/><path d="m23.3 30.6c-1.6-.3.3 3.2.3 3.2s1.3-2.9-.3-3.2z" opacity=".2"/><path d="m21.7 28.6c-.2-1.8-2.9-.6-2.9-.6s3 2.4 2.9.6z" opacity=".2"/><path d="m24.6 29.2c.2 1.8 2.9.6 2.9.6s-3.1-2.3-2.9-.6z" opacity=".2"/><path d="m22.3 27.4c1.3-.6-1.7-3.1-1.7-3.1s.4 3.7 1.7 3.1z" opacity=".2"/><path d="m24 30.5c-1.3.6 1.7 3.1 1.7 3.1s-.4-3.7-1.7-3.1z" opacity=".2"/><path d="m21.9 29.5c-1-1.7-2.4 1.1-2.4 1.1s3.4.6 2.4-1.1z" opacity=".2"/><path d="m24.3 28.4c1 1.7 2.4-1.1 2.4-1.1s-3.3-.6-2.4 1.1z" opacity=".2"/><path d="m21.8 27.9c.7-1.4-2.7-2.1-2.7-2.1s2 3.4 2.7 2.1z" opacity=".2"/><path d="m24.5 30c-.7 1.4 2.7 2.1 2.7 2.1s-2.1-3.5-2.7-2.1z" opacity=".2"/><path d="m22.5 30.2c-1.5-1.2-1.2 2.5-1.2 2.5s2.7-1.4 1.2-2.5z" opacity=".2"/><path d="m23.7 27.7c1.5 1.2 1.2-2.5 1.2-2.5s-2.6 1.3-1.2 2.5z" opacity=".2"/><path d="m23.3 27.4c1.6.8.5-3 .5-3s-2 2.3-.5 3z" fill="#fc0"/><path d="m22.9 30.4c-1.6-.8-.5 3-.5 3s2.1-2.2.5-3z" fill="#fc0"/><path d="m21.7 28.2c.3-1.6-2.9-1.4-2.9-1.4s2.6 3 2.9 1.4z" fill="#fc0"/><path d="m24.6 29.6c-.3 1.6 2.9 1.4 2.9 1.4s-2.7-3-2.9-1.4z" fill="#fc0"/><path d="m22.6 27.3c1.5-.2-1.1-3.3-1.1-3.3s-.4 3.4 1.1 3.3z" fill="#fc0"/><path d="m23.7 30.6c-1.5.2 1.1 3.3 1.1 3.3s.3-3.5-1.1-3.3z" fill="#fc0"/><path d="m21.8 29.1c-.6-1.8-2.7.3-2.7.3s3.2 1.5 2.7-.3z" fill="#fc0"/><path d="m24.5 28.8c.6 1.8 2.7-.3 2.7-.3s-3.3-1.5-2.7.3z" fill="#fc0"/><path d="m22 27.6c1-1-2.3-2.7-2.3-2.7s1.3 3.7 2.3 2.7z" fill="#fc0"/><path d="m24.3 30.3c-1 1 2.3 2.7 2.3 2.7s-1.3-3.7-2.3-2.7z" fill="#fc0"/><path d="m22.2 29.9c-1.3-1.5-1.9 1.9-1.9 1.9s3.1-.5 1.9-1.9z" fill="#fc0"/><path d="m24 28c1.3 1.5 1.9-1.9 1.9-1.9s-3.1.4-1.9 1.9z" fill="#fc0"/><path d="m25.3 30c-.2 1.2-1.3 1.8-2.5 1.2s-2-2.1-1.8-3.3 1.3-1.8 2.5-1.2 2 2 1.8 3.3z" fill="#825012"/><path d="m29.5 33.1c-1.1-1.7-2.6.9-2.6.9s3.6.8 2.6-.9z" fill="#539b00"/><path d="m30.7 34.8c-2.4-.2-1 3.1-1 3.1s3.4-2.9 1-3.1z" fill="#539b00"/><path d="m29.8 31.4c2-1.2-1-3.1-1-3.1s-1 4.3 1 3.1z" fill="#539b00"/><path d="m32.3 33.9c-1.1 1.3 2.9 3.3 2.9 3.3s-1.8-4.6-2.9-3.3z" fill="#539b00"/><path d="m31.8 31.8c.7 2.3 2.8-1.3 2.8-1.3s-3.4-1-2.8 1.3z" fill="#539b00"/><path d="m31.8 51.8h.7l-.4-18.6-.4-.1z" fill="#539b00"/><path d="m32.3 47.1c0 3 3.3-.1 4.5-.4-1.2-1.8-5.8-2.6-4.5.4z" fill="#539b00"/><path d="m32.1 39.7c0 2.2 2.5-.1 3.4-.3-.9-1.4-4.4-2-3.4.3z" fill="#539b00"/><path d="m32 44c-.9 2.5-2.6-1.2-3.6-1.8 1.5-1.1 5.6-.3 3.6 1.8z" fill="#539b00"/><path d="m31 31.3c1.6.3-.3-3.2-.3-3.2s-1.3 2.9.3 3.2z" fill="#fc0"/><path d="m31.3 34.6c-1.6-.3.3 3.2.3 3.2s1.3-2.9-.3-3.2z" fill="#fc0"/><path d="m29.7 32.6c-.2-1.8-2.9-.6-2.9-.6s3 2.4 2.9.6z" fill="#fc0"/><path d="m32.6 33.2c.2 1.8 2.9.6 2.9.6s-3.1-2.3-2.9-.6z" fill="#fc0"/><path d="m30.3 31.4c1.3-.6-1.7-3.1-1.7-3.1s.4 3.7 1.7 3.1z" fill="#fc0"/><path d="m32 34.5c-1.3.6 1.7 3.1 1.7 3.1s-.4-3.7-1.7-3.1z" fill="#fc0"/><path d="m29.9 33.5c-1-1.7-2.4 1.1-2.4 1.1s3.4.6 2.4-1.1z" fill="#fc0"/><path d="m32.3 32.4c1 1.7 2.4-1.1 2.4-1.1s-3.3-.6-2.4 1.1z" fill="#fc0"/><path d="m29.8 31.9c.7-1.4-2.7-2.1-2.7-2.1s2 3.4 2.7 2.1z" fill="#fc0"/><path d="m32.5 34c-.7 1.4 2.7 2.1 2.7 2.1s-2.1-3.5-2.7-2.1z" fill="#fc0"/><path d="m30.5 34.2c-1.5-1.2-1.2 2.5-1.2 2.5s2.7-1.4 1.2-2.5z" fill="#fc0"/><path d="m31.7 31.7c1.5 1.2 1.2-2.5 1.2-2.5s-2.6 1.3-1.2 2.5z" fill="#fc0"/><path d="m31 31.3c1.6.3-.3-3.2-.3-3.2s-1.3 2.9.3 3.2z" opacity=".2"/><path d="m31.3 34.6c-1.6-.3.3 3.2.3 3.2s1.3-2.9-.3-3.2z" opacity=".2"/><path d="m29.7 32.6c-.2-1.8-2.9-.6-2.9-.6s3 2.4 2.9.6z" opacity=".2"/><path d="m32.6 33.2c.2 1.8 2.9.6 2.9.6s-3.1-2.3-2.9-.6z" opacity=".2"/><path d="m30.3 31.4c1.3-.6-1.7-3.1-1.7-3.1s.4 3.7 1.7 3.1z" opacity=".2"/><path d="m32 34.5c-1.3.6 1.7 3.1 1.7 3.1s-.4-3.7-1.7-3.1z" opacity=".2"/><path d="m29.9 33.5c-1-1.7-2.4 1.1-2.4 1.1s3.4.6 2.4-1.1z" opacity=".2"/><path d="m32.3 32.4c1 1.7 2.4-1.1 2.4-1.1s-3.3-.6-2.4 1.1z" opacity=".2"/><path d="m29.8 31.9c.7-1.4-2.7-2.1-2.7-2.1s2 3.4 2.7 2.1z" opacity=".2"/><path d="m32.5 34c-.7 1.4 2.7 2.1 2.7 2.1s-2.1-3.5-2.7-2.1z" opacity=".2"/><path d="m30.5 34.2c-1.5-1.2-1.2 2.5-1.2 2.5s2.7-1.4 1.2-2.5z" opacity=".2"/><path d="m31.7 31.7c1.5 1.2 1.2-2.5 1.2-2.5s-2.6 1.3-1.2 2.5z" opacity=".2"/><path d="m31.3 31.4c1.6.8.5-3 .5-3s-2 2.3-.5 3z" fill="#fc0"/><path d="m30.9 34.4c-1.6-.8-.5 3-.5 3s2.1-2.2.5-3z" fill="#fc0"/><path d="m29.7 32.2c.3-1.6-2.9-1.4-2.9-1.4s2.6 3 2.9 1.4z" fill="#fc0"/><path d="m32.6 33.6c-.3 1.6 2.9 1.4 2.9 1.4s-2.7-3-2.9-1.4z" fill="#fc0"/><path d="m30.6 31.3c1.5-.2-1.1-3.3-1.1-3.3s-.4 3.4 1.1 3.3z" fill="#fc0"/><path d="m31.7 34.6c-1.5.2 1.1 3.3 1.1 3.3s.3-3.5-1.1-3.3z" fill="#fc0"/><path d="m29.8 33.1c-.6-1.8-2.7.3-2.7.3s3.2 1.5 2.7-.3z" fill="#fc0"/><path d="m32.5 32.8c.6 1.8 2.7-.3 2.7-.3s-3.3-1.5-2.7.3z" fill="#fc0"/><path d="m30 31.6c1-1-2.3-2.7-2.3-2.7s1.3 3.7 2.3 2.7z" fill="#fc0"/><path d="m32.3 34.3c-1 1 2.3 2.7 2.3 2.7s-1.3-3.7-2.3-2.7z" fill="#fc0"/><path d="m30.2 33.9c-1.3-1.5-1.9 1.9-1.9 1.9s3.1-.5 1.9-1.9z" fill="#fc0"/><path d="m32 32c1.3 1.5 1.9-1.9 1.9-1.9s-3.1.4-1.9 1.9z" fill="#fc0"/><path d="m33.3 34c-.2 1.2-1.3 1.8-2.5 1.2s-2-2.1-1.8-3.3 1.3-1.8 2.5-1.2 2 2 1.8 3.3z" fill="#825012"/></svg>