<svg xmlns:xlink="http://www.w3.org/1999/xlink"  enable-background="new 0 0 32 32" height="32" viewBox="0 0 32 32" width="32" xmlns="http://www.w3.org/2000/svg"><path d="m29.8 20-.2-.4.1-.4c.2-1 .3-2 .3-3 0-7.7-6.3-14-14-14-.8 0-1.6.1-2.4.2l-.5.1-.4-.2c-1.2-.9-2.6-1.3-4.1-1.3-4.2 0-7.6 3.4-7.6 7.6 0 1.4.4 2.7 1 3.9l.2.4-.1.5c-.2.9-.3 1.9-.3 2.8 0 7.7 6.3 14 14 14 .9 0 1.7-.1 2.6-.2l.4-.1.4.2c1.1.6 2.3.9 3.6.9 4.2 0 7.6-3.4 7.6-7.6.1-1.2-.1-2.4-.6-3.4zm-6 3.5c-.7 1-1.7 1.8-3.1 2.3-1.3.6-2.9.8-4.8.8-2.2 0-4-.4-5.5-1.1-1-.6-1.9-1.3-2.5-2.2s-1-1.9-1-2.8c0-.6.2-1 .6-1.4s1-.6 1.6-.6c.5 0 1 .2 1.3.5.4.3.7.7.9 1.3.3.6.6 1.1.9 1.6.3.4.7.7 1.3 1s1.3.4 2.2.4c1.3 0 2.3-.3 3.1-.8s1.1-1.1 1.1-1.9c0-.6-.2-1.1-.6-1.4-.4-.4-1-.7-1.6-.9-.7-.2-1.6-.4-2.8-.7-1.6-.3-2.9-.7-4-1.2s-2-1.1-2.6-1.9c-.7-.8-1-1.8-1-3.1 0-1.2.3-2.2 1-3.1s1.7-1.6 3-2.1 2.8-.7 4.5-.7c1.4 0 2.6.2 3.6.5s1.9.7 2.5 1.3c.7.5 1.2 1.1 1.5 1.7s.5 1.2.5 1.7-.2 1-.6 1.5c-.4.4-.9.7-1.6.7-.6 0-1-.1-1.3-.4s-.6-.6-.9-1.2c-.4-.7-.8-1.3-1.4-1.7-.5-.4-1.4-.6-2.5-.6s-2 .2-2.6.7c-.6.4-.9.9-.9 1.5 0 .3.1.6.3.9s.5.5.9.7.8.4 1.2.5 1.1.3 2.1.5c1.2.3 2.4.6 3.4.9s1.9.7 2.6 1.2 1.3 1.1 1.7 1.8.6 1.6.6 2.7c-.1.9-.4 2.1-1.1 3.1z" fill="#2d3134"/></svg>