<svg xmlns:xlink="http://www.w3.org/1999/xlink"  enable-background="new 0 0 32 32" height="32" viewBox="0 0 32 32" width="32" xmlns="http://www.w3.org/2000/svg"><g clip-rule="evenodd" fill="#2d3134" fill-rule="evenodd"><path d="m28 4.5c0-1.4-1.1-2.5-2.5-2.5h-19c-1.4 0-2.5 1.1-2.5 2.5v4c0 .6.2 1.1.5 1.5-.3.4-.5.9-.5 1.5v4c0 .6.2 1.1.5 1.5-.3.4-.5.9-.5 1.5v4c0 .6.2 1.1.5 1.5-.3.4-.5.9-.5 1.5v4c0 1.4 1.1 2.5 2.5 2.5h19c1.4 0 2.5-1.1 2.5-2.5v-4c0-.6-.2-1.1-.5-1.5.3-.4.5-.9.5-1.5v-4c0-.6-.2-1.1-.5-1.5.3-.4.5-.9.5-1.5v-4c0-.6-.2-1.1-.5-1.5.3-.4.5-.9.5-1.5zm-22 0c0-.3.2-.5.5-.5h19c.3 0 .5.2.5.5v4c0 .3-.2.5-.5.5h-19c-.3 0-.5-.2-.5-.5zm20 7v4c0 .3-.2.5-.5.5h-19c-.3 0-.5-.2-.5-.5v-4c0-.3.2-.5.5-.5h19c.3 0 .5.2.5.5zm0 7v4c0 .3-.2.5-.5.5h-19c-.3 0-.5-.2-.5-.5v-4c0-.3.2-.5.5-.5h19c.3 0 .5.2.5.5zm0 11c0 .3-.2.5-.5.5h-19c-.3 0-.5-.2-.5-.5v-4c0-.3.2-.5.5-.5h19c.3 0 .5.2.5.5z"/><circle cx="22.5" cy="6.5" r="1.5"/><path d="m8 5h1v3h-1z"/><path d="m11 5h1v3h-1z"/><path d="m14 5h1v3h-1z"/><path d="m17 5h1v3h-1z"/><circle cx="22.5" cy="13.5" r="1.5"/><path d="m8 12h1v3h-1z"/><path d="m11 12h1v3h-1z"/><path d="m14 12h1v3h-1z"/><path d="m17 12h1v3h-1z"/><circle cx="22.5" cy="20.5" r="1.5"/><path d="m8 19h1v3h-1z"/><path d="m11 19h1v3h-1z"/><path d="m14 19h1v3h-1z"/><path d="m17 19h1v3h-1z"/><circle cx="22.5" cy="27.5" r="1.5"/><path d="m8 26h1v3h-1z"/><path d="m11 26h1v3h-1z"/><path d="m14 26h1v3h-1z"/><path d="m17 26h1v3h-1z"/></g></svg>