<svg xmlns:xlink="http://www.w3.org/1999/xlink"  enable-background="new 0 0 32 32" height="32" viewBox="0 0 32 32" width="32" xmlns="http://www.w3.org/2000/svg"><g fill="#2d3134"><path d="m28.2 17.9c-.8 6.5-5.4 6.9-6.3 7.2-.4.1-3.8 1-8 .7l-4.6 5.1v-5.9c-6.2-1.8-6-8.4-5.9-11.8-.1-3.5.6-6.3 2.5-8.2 3.4-3.2 10.4-2.7 10.4-2.7 5.9 0 8.7 1.8 9.4 2.5 2.2 1.9 3.3 6.4 2.5 13.1m-.9-14.8c-.8-.7-3.9-3-10.9-3.1 0 0-8.2-.5-12.3 3.3-2.2 2.3-3 5.6-3.1 9.8-.1 4.1-.2 11.9 7.2 14v3.2s0 1.3.8 1.6c1 .3 1.6-.7 2.6-1.7.5-.6 1.3-1.4 1.8-2.1 5 .4 8.9-.6 9.3-.7 1-.3 6.7-1.1 7.7-8.9.9-8-.5-13.1-3.1-15.4"/><path d="m22.8 18.9s-.9-.8-1.4-1.1c-.4-.3-1.1-.8-1.5-1-.7-.4-1.4-.1-1.7.2l-.6.8c-.3.4-.8.3-.9.3-.9-.2-1.8-.8-2.8-1.7-1-1-1.6-1.9-1.8-3v-.1c-.1-.4 0-.6.2-.9.4-.4 1.2-.8 1.3-1.3.3-.8-1-2.4-1.2-2.6 0 0-.9-1.2-1.3-1.5s-.9-.5-1.5-.1c-1.6 1.1-2.2 1.7-2 2.6l.1.4c.8 2.6 2.4 5.4 4.8 7.8 2.3 2.4 4.9 3.9 7.4 4.9.6.2 1.3 0 2-.6.5-.5.9-1 1.3-1.6.2-.5.1-1.1-.4-1.5"/><path d="m16.4 8.7c-.3 0-.6.3-.6.6 0 .2 0 .3.2.5.1.1.3.2.4.2 1 .1 1.8.4 2.3.9.5.6.8 1.4.9 2.5 0 .3.3.6.6.6.3 0 .6-.3.6-.7-.1-1.4-.5-2.6-1.2-3.3-.7-.8-1.8-1.2-3.2-1.3z"/><path d="m21.9 8.1c-1.5-1.7-3.7-2.7-6.5-2.9-.3 0-.6.3-.6.6 0 .4.2.7.6.7 1.2.1 2.3.3 3.2.8.9.4 1.7 1 2.4 1.7 1.3 1.5 2 3.3 1.9 5.5 0 .3.3.6.6.7.3 0 .6-.3.6-.6.1-2.6-.7-4.8-2.2-6.5z"/></g></svg>