<svg xmlns:xlink="http://www.w3.org/1999/xlink"  enable-background="new 0 0 32 32" height="32" viewBox="0 0 32 32" width="32" xmlns="http://www.w3.org/2000/svg"><g fill="#2d3134"><path d="m15.5 15.5c-1.4-1.4-3.7-1.4-5.1 0l-4 4c-.3.3-.3.8 0 1.1s.8.3 1.1 0l4-4c.8-.8 2.1-.8 2.9 0s.8 2.1 0 2.9l-7 7c-.3.3-.3.8 0 1.1.1.1.3.2.5.2s.4-.1.5-.2l7-7c1.5-1.5 1.5-3.7.1-5.1z"/><path d="m17.5 13.5c-2.5-2.5-6.5-2.5-9 0l-2 2c-.3.3-.3.8 0 1.1s.8.3 1.1 0l2-2c1.9-1.9 5-1.9 6.9 0 .9.9 1.4 2.2 1.4 3.5s-.5 2.5-1.4 3.5l-7 7c-.3.3-.3.8 0 1.1.1.1.3.2.5.2s.4-.1.5-.2l7-7c2.5-2.7 2.5-6.7 0-9.2z"/><path d="m12.4 19.6 1.1-1.1c.3-.3.3-.8 0-1.1s-.8-.3-1.1 0l-1.1 1.1c-.3.3-.3.8 0 1.1.1.1.3.2.5.2s.5 0 .6-.2z"/><path d="m10.7 21.3c.3-.3.3-.8 0-1.1s-.8-.3-1.1 0l-3.2 3.2c-.3.3-.3.8 0 1.1.1.1.3.2.5.2s.4-.1.5-.2z"/><path d="m25.5 17.5-3.3-3.3c-.1-.1-.1-.1-.2-.1-.2-.2-.4-.3-.7-.2-.4.1-.7.5-.6.9.6 2.4-.3 6.6-2.4 8.7-.3.3-.3.8 0 1.1.1.1.3.2.5.2s.4-.1.5-.2c1.8-1.8 3-5.1 3-8l2 2c.1.1.3.2.5.2s.4-.1.5-.2c.5-.4.5-.8.2-1.1z"/><path d="m20.3 12.2-1.3-1.3c-3.3-3.3-8.6-3.3-11.9 0-.3.3-.3.8 0 1.1s.8.3 1.1 0c1.3-1.3 3-2 4.9-2s3.6.7 4.9 2l1.3 1.3c.1.1.3.2.5.2s.4-.1.5-.2c.3-.3.3-.8 0-1.1z"/><path d="m25.5 13.5-5.3-5.3c-.3-.3-.8-.3-1.1 0s-.3.8 0 1.1l5.3 5.3c.1.1.3.2.5.2s.4-.1.5-.2c.4-.4.4-.8.1-1.1z"/><path d="m6.8 9.2c2.6-2.6 6.5-3.3 9.8-1.8.4.2.8 0 1-.4s0-.8-.4-1c-3.9-1.8-8.5-1-11.5 2.1-.3.3-.3.8 0 1.1.1.1.3.2.5.2.3 0 .5 0 .6-.2z"/><path d="m8.3 4.5c2.6-1.3 5.7-1.4 8.4-.4 1.4.5 2.7 1.3 3.7 2.4l4 4c.1.1.3.2.5.2s.4-.1.5-.2c.3-.3.3-.8 0-1.1l-4-4c-1.2-1.2-2.7-2.2-4.3-2.8-3.1-1.2-6.6-1-9.6.5-.4.2-.5.6-.3 1 .3.5.8.6 1.1.4z"/><path d="m17 1.8c1.7 0 3.4.7 4.6 1.9l1.9 1.9c.1.1.3.2.5.2s.4-.1.5-.2c.3-.3.3-.8 0-1.1l-1.9-1.9c-1.5-1.5-3.5-2.3-5.7-2.3-.4 0-.8.3-.8.8s.5.7.9.7z"/><path d="m23.9 19.8c-.3-.3-.8-.3-1.1 0s-.3.8 0 1.1l1.7 1.7c.1.1.3.2.5.2s.4-.1.5-.2c.3-.3.3-.8 0-1.1z"/><path d="m17.8 25.2c-.3-.3-.8-.3-1.1 0l-5.3 5.3c-.3.3-.3.8 0 1.1.1.1.3.2.5.2s.4-.1.5-.2l5.3-5.3c.4-.4.4-.8.1-1.1z"/><path d="m25.6 25.5c-1.4-1.4-3.7-1.4-5.1 0l-5 5c-.3.3-.3.8 0 1.1.1.1.3.2.5.2s.4-.1.5-.2l5-5c.8-.8 2.2-.8 3 0 .3.3.8.3 1.1 0s.3-.8 0-1.1z"/><path d="m22.5 27.5-2 2c-.3.3-.3.8 0 1.1.1.1.3.2.5.2s.4-.1.5-.2l2-2c.3-.3.3-.8 0-1.1s-.7-.3-1 0z"/></g></svg>