<svg xmlns:xlink="http://www.w3.org/1999/xlink"  enable-background="new 0 0 32 32" height="32" viewBox="0 0 32 32" width="32" xmlns="http://www.w3.org/2000/svg"><g fill="#2d3134"><path d="m29.7 10c-2.3-5.3-7.6-9-13.7-9s-11.4 3.7-13.7 9zm-3.4-2h-3.5c-.5-1.6-1.2-3-2-4.1 2.1.8 4.1 2.2 5.5 4.1zm-11.3-4.8v4.8h-3.7c1-2.5 2.3-4.2 3.7-4.8zm2 0c1.4.6 2.7 2.3 3.6 4.8h-3.6zm-5.8.6c-.8 1.1-1.5 2.5-2 4.1h-3.5c1.4-1.8 3.3-3.2 5.5-4.1z"/><path d="m2.3 22c2.3 5.3 7.6 9 13.7 9 6.1 0 11.4-3.7 13.7-9zm12.7 6.8c-1.4-.6-2.7-2.3-3.6-4.8h3.6zm2 0v-4.8h3.7c-1 2.5-2.3 4.2-3.7 4.8zm-11.3-4.8h3.5c.5 1.6 1.2 3 2 4.1-2.1-.8-4.1-2.2-5.5-4.1zm15.1 4.2c.8-1.1 1.5-2.5 2-4.1h3.5c-1.4 1.8-3.3 3.2-5.5 4.1z"/><path d="m30 12-1 5-1-5h-2l-1 5-1-5h-2l2 8h2l1-5 1 5h2l2-8z"/><path d="m19 12-1 5-1-5h-2l-1 5-1-5h-2l2 8h2l1-5 1 5h2l2-8z"/><path d="m8 12-1 5-1-5h-2l-1 5-1-5h-2l2 8h2l1-5 1 5h2l2-8z"/></g></svg>