<svg xmlns:xlink="http://www.w3.org/1999/xlink"  enable-background="new 0 0 32 32" height="32" viewBox="0 0 32 32" width="32" xmlns="http://www.w3.org/2000/svg"><g fill="#2d3134"><path d="m27 10c-1.1 0-2 .9-2 2v8c0 1.1.9 2 2 2s2-.9 2-2v-8c0-1.1-.9-2-2-2z"/><path d="m5 10c-1.1 0-2 .9-2 2v8c0 1.1.9 2 2 2s2-.9 2-2v-8c0-1.1-.9-2-2-2z"/><path d="m8 24.4c0 .9.7 1.6 1.5 1.6h1.5v4c0 1.1.8 1.9 1.8 1.9s1.8-.9 1.8-1.9v-4h2.8v4c0 1.1.8 1.9 1.8 1.9s1.8-.9 1.8-1.9v-4h1.5c.8 0 1.5-.7 1.5-1.6v-14.4h-16z"/><path d="m20.5 3.2 1-2c.1-.2 0-.5-.2-.7-.2-.1-.5 0-.7.2l-1 2-.2-.1c-1-.4-2.2-.6-3.4-.6s-2.4.2-3.4.7l-.2.1-1-2c-.1-.2-.4-.3-.7-.2s-.3.4-.1.6l1 2c-2.1 1.3-3.5 3.4-3.6 5.8h16c-.1-2.4-1.5-4.5-3.5-5.8zm-7.5 3.8c-.6 0-1-.4-1-1s.4-1 1-1 1 .4 1 1-.4 1-1 1zm6 0c-.6 0-1-.4-1-1s.4-1 1-1 1 .4 1 1-.4 1-1 1z"/></g></svg>