<svg xmlns:xlink="http://www.w3.org/1999/xlink"  enable-background="new 0 0 32 32" height="32" viewBox="0 0 32 32" width="32" xmlns="http://www.w3.org/2000/svg"><g fill="#2d3134"><path d="m19 20v-8h6v2h-4v1h3v2h-3v3z"/><path d="m26 15h2v5h-2z"/><circle cx="27" cy="13" r="1"/><path d="m25 9h-18c-3.9 0-7 3.1-7 7s3.1 7 7 7h18c3.9 0 7-3.1 7-7s-3.1-7-7-7zm-12 3c.6 0 1 .4 1 1s-.4 1-1 1-1-.4-1-1 .4-1 1-1zm-4 8h-1l-1-5-1 5h-1l-2-8h1.5l1 4 .8-4h1.5l.8 4 1-4h1.4zm3-5h2v5h-2zm13 7h-11s2.6 0 2.6-5.9 3.1-6.1 3.1-6.1h5.3c3.3 0 6 2.7 6 6s-2.7 6-6 6z"/></g></svg>