<svg xmlns:xlink="http://www.w3.org/1999/xlink"  enable-background="new 0 0 32 32" height="32" viewBox="0 0 32 32" width="32" xmlns="http://www.w3.org/2000/svg"><path d="m1 4.7c0-1 .3-1.8 1-2.4s1.6-.9 2.6-.9c1.1 0 1.9.3 2.6.9s1 1.5 1 2.5c0 .9-.3 1.7-1 2.3-.6.6-1.5.9-2.6.9-1.1 0-2-.3-2.6-.9s-1-1.5-1-2.4zm.4 25.3v-19.3h6.4v19.3zm10 0h6.4v-10.8c0-.7.1-1.2.2-1.6.3-.7.7-1.2 1.2-1.7.6-.5 1.2-.7 2.1-.7 2.2 0 3.2 1.5 3.2 4.4v10.4h6.5v-11.1c0-2.9-.7-5-2-6.5s-3.1-2.2-5.4-2.2c-2.5 0-4.4 1.1-5.8 3.2v.1-.1-2.8h-6.4c0 .6.1 2.5.1 5.8-.1 3.2-.1 7.8-.1 13.6z" fill="#2d3134"/></svg>