<svg xmlns:xlink="http://www.w3.org/1999/xlink"  enable-background="new 0 0 32 32" height="32" viewBox="0 0 32 32" width="32" xmlns="http://www.w3.org/2000/svg"><g clip-rule="evenodd" fill="#2d3134" fill-rule="evenodd"><path d="m29.5 23.5c-.8 1.7-1.1 2.4-2.1 3.9-1.4 2.1-3.3 4.6-5.6 4.6-2.1 0-2.6-1.4-5.5-1.3-2.8 0-3.4 1.4-5.5 1.4-2.4 0-4.2-2.3-5.5-4.4-3.8-5.7-4.2-12.5-1.8-16.1 1.7-2.5 4.3-4 6.7-4 2.5 0 4.1 1.4 6.1 1.4s3.2-1.4 6.1-1.4c2.2 0 4.5 1.2 6.1 3.2-5.3 2.9-4.5 10.6 1 12.7z"/><path d="m20.2 5.2c1-1.3 1.8-3.3 1.6-5.2-1.7.1-3.7 1.2-4.9 2.6-1.1 1.3-1.9 3.2-1.6 5.1 1.9.1 3.8-1.1 4.9-2.5z"/></g></svg>