<svg xmlns:xlink="http://www.w3.org/1999/xlink"  enable-background="new 0 0 32 32" height="32" viewBox="0 0 32 32" width="32" xmlns="http://www.w3.org/2000/svg"><g fill="#2d3134"><path d="m22.2 19.3 7.7 7.7c.7.7.7 1.9 0 2.7l-1.4 1.3c-.7.7-1.9.7-2.7 0l-7.7-7.7z"/><path d="m26.4 11.3-1.5-1.5c-.7-.7-.7-1.8 0-2.5l2.9-2.9c-1.9-.5-4 0-5.5 1.5s-2 3.6-1.5 5.5l-15.8 15.6c-.7.7-.7 1.8 0 2.5l1.5 1.5c.7.7 1.8.7 2.5 0l15.7-15.7c1.9.5 4 0 5.5-1.5s2-3.6 1.5-5.5l-2.9 2.9c-.6.8-1.7.8-2.4.1z"/><path d="m18.2 1.8c-2.5-.6-7.3.6-10.1 3.4l-4 4c.4.4.4 1 0 1.3l-.7.7c-.4.4-1 .4-1.3 0l-2 2 4.7 4.7 2-2c-.4-.4-.4-1 0-1.3l.7-.7c.4-.4 1-.4 1.3 0l.7-.7 4 4 2.7-2.7-4-4 .7-.7-.1-.1c-2.4-2.2 1.7-6.4 5.4-7.9z"/></g></svg>