<svg xmlns:xlink="http://www.w3.org/1999/xlink"  enable-background="new 0 0 32 32" height="32" viewBox="0 0 32 32" width="32" xmlns="http://www.w3.org/2000/svg"><g fill="#2d3134"><path d="m24 16c0 4.4-3.6 8-8 8s-8-3.6-8-8 3.6-8 8-8 8 3.6 8 8zm-8-5.5c-3 0-5.5 2.5-5.5 5.5s2.5 5.5 5.5 5.5 5.5-2.5 5.5-5.5-2.5-5.5-5.5-5.5z"/><circle cx="24" cy="8" r="2"/><path d="m24.9 31h-17.8c-3.4 0-6.1-2.7-6.1-6.1v-17.8c0-3.4 2.7-6.1 6.1-6.1h17.8c3.4 0 6.1 2.7 6.1 6.1v17.8c0 3.4-2.7 6.1-6.1 6.1zm-17.6-27c-1.8 0-3.3 1.5-3.3 3.3v17.5c0 1.7 1.5 3.2 3.3 3.2h17.5c1.8 0 3.3-1.5 3.3-3.3v-17.4c-.1-1.8-1.6-3.3-3.3-3.3z"/></g></svg>