<svg xmlns:xlink="http://www.w3.org/1999/xlink"  enable-background="new 0 0 32 32" height="32" viewBox="0 0 32 32" width="32" xmlns="http://www.w3.org/2000/svg"><path d="m31 6.9c-1.1.5-2.3.8-3.5 1 1.3-.8 2.2-2 2.7-3.4-1.2.7-2.5 1.2-3.9 1.5-1.2-1.3-2.8-2-4.5-2-3.4 0-6.2 2.8-6.2 6.2 0 .5.1 1 .2 1.4-5.1-.3-9.7-2.7-12.7-6.4-.5.8-.8 1.9-.8 3 0 2.1 1.1 4 2.7 5.1-1 0-2-.3-2.8-.8v.1c0 3 2.1 5.5 4.9 6-.5.1-1.1.2-1.6.2-.4 0-.8 0-1.2-.1.8 2.4 3.1 4.2 5.7 4.3-2.1 1.7-4.8 2.6-7.6 2.6-.5 0-1 0-1.5-.1 2.7 1.7 6 2.8 9.4 2.8 11.3 0 17.5-9.4 17.5-17.5 0-.3 0-.5 0-.8 1.3-.8 2.4-1.9 3.2-3.1z" fill="#2d3134"/></svg>