<svg xmlns:xlink="http://www.w3.org/1999/xlink"  enable-background="new 0 0 32 32" height="32" viewBox="0 0 32 32" width="32" xmlns="http://www.w3.org/2000/svg"><g fill="#2d3134"><path d="m25.6 4h-19.2c-1.3 0-2.4 1.1-2.4 2.4v19.2c0 1.3 1.1 2.4 2.4 2.4h19.2c1.3 0 2.4-1.1 2.4-2.4v-19.2c0-1.3-1.1-2.4-2.4-2.4zm-.6 19.9c0 .6-.5 1.1-1.1 1.1h-15.8c-.6 0-1.1-.5-1.1-1.1v-15.8c0-.6.5-1.1 1.1-1.1h15.7c.7 0 1.2.5 1.2 1.1z"/><path d="m11 29h2v3h-2z"/><path d="m15 29h2v3h-2z"/><path d="m19 29h2v3h-2z"/><path d="m23 29h2v3h-2z"/><path d="m7 29h2v3h-2z"/><path d="m11 0h2v3h-2z"/><path d="m15 0h2v3h-2z"/><path d="m19 0h2v3h-2z"/><path d="m23 0h2v3h-2z"/><path d="m7 0h2v3h-2z"/><path d="m29 19h3v2h-3z"/><path d="m29 15h3v2h-3z"/><path d="m29 11h3v2h-3z"/><path d="m29 7h3v2h-3z"/><path d="m29 23h3v2h-3z"/><path d="m0 19h3v2h-3z"/><path d="m0 15h3v2h-3z"/><path d="m0 11h3v2h-3z"/><path d="m0 7h3v2h-3z"/><path d="m0 23h3v2h-3z"/><path d="m9 9h14v14h-14z"/></g></svg>