<svg xmlns:xlink="http://www.w3.org/1999/xlink"  enable-background="new 0 0 32 32" height="32" viewBox="0 0 32 32" width="32" xmlns="http://www.w3.org/2000/svg"><path d="m16 1c-8.3 0-15 6.7-15 15 0 6.3 3.9 11.7 9.4 13.9-.2-1.4-.2-2.9.1-4.3.6-2.4 1.1-4.9 1.7-7.3 0-.1-.9-1.9-.1-3.9 1.1-2.8 4.2-2.6 4.4-.1.1 1.3-.9 3.9-1.2 5.3s.6 2.3 1.8 2.5 3-.7 4-2.5c.9-1.8 1.2-4.5.5-6.5-.8-2.4-3.2-3.7-5.5-3.7-2.8 0-5.6 1.3-6.7 4.6-.4 1.7 0 4 .9 4.8.3.3.3.3.2.8-.1.3-.4 1.8-.6 2-.4.3-1.8-1-2.2-1.5-1.4-2-1.6-5.2-.8-7.4.8-2.4 2.5-4.3 5.4-5.4 4.6-1.7 10.4-.5 12.6 4.5.8 1.7.9 4 .5 6-.6 2.7-2.2 5.2-4.7 6.4-1.7.8-4 .9-5.5-.3-.3-.2-.5-.5-.7-.8-.2 1.2-.6 2.4-.9 3.6-.3 1.1-.9 2.5-1.8 3.9 1.2.2 2.7.4 4.2.4 8.3 0 15-6.7 15-15s-6.7-15-15-15z" fill="#2d3134"/></svg>