<svg xmlns:xlink="http://www.w3.org/1999/xlink"  enable-background="new 0 0 80 100" height="100" viewBox="0 0 80 100" width="80" xmlns="http://www.w3.org/2000/svg"><path d="m0 35v55l20 10 50-25v-55l-20-10z" fill="#2d3134"/><path d="m20 100-20-10v-55l20 10z" opacity=".11"/><path d="m20 100 50-25v-55l-50 25z" opacity=".29"/><path d="m0 43v4l20 10v-4z" opacity=".2"/><path d="m0 46v1l20 10v-1z" opacity=".5"/><path d="m0 37v4l20 10v-4z" opacity=".2"/><path d="m0 40v1l20 10v-1z" opacity=".5"/><g fill="#9c3"><path d="m11 71-2-1v2l2 1z" opacity=".8"/><path d="m11 75-2-1v2l2 1z" opacity=".6"/><path d="m11 79-2-1v2l2 1z" opacity=".4"/><path d="m11 83-2-1v2l2 1z" opacity=".2"/></g><path d="m13 64.9c0 1.7-1.3 2.3-3 1.5s-3-2.8-3-4.5 1.3-2.3 3-1.5 3 2.8 3 4.5z" opacity=".5"/><path d="m11.2 64c0 .7-.5.9-1.2.6s-1.2-1.1-1.2-1.8.5-.9 1.2-.6 1.2 1.1 1.2 1.8z" fill="#39c" opacity=".7"/></svg>