<svg xmlns:xlink="http://www.w3.org/1999/xlink"  enable-background="new 0 0 40 80" height="80" viewBox="0 0 40 80" width="40" xmlns="http://www.w3.org/2000/svg"><path d="m35.7 16.8-27.3-13.6c-.5-.2-1-.2-1.4 0l-2 1 1 .5v58.3c0 .6.4 1.2.9 1.5l28 14v1.4l1.9-.9c.7-.2 1.2-.8 1.2-1.6v-56.8c0-1.6-.9-3.1-2.3-3.8z" fill="#2d3134"/><path d="m6.4 4.2 27.2 13.6c1.4.7 2.3 2.2 2.3 3.8v56.7c0 1.2-1.3 2-2.4 1.5l-28.6-14.3c-.5-.3-.9-.9-.9-1.5v-58.3c0-1.2 1.3-2 2.4-1.5z" fill="#656565"/><path d="m36 21.6v56.7c0 .6-.3 1.1-.7 1.4l1.6-.8c.7-.2 1.2-.8 1.2-1.6v-56.7z" opacity=".29"/><path d="m34 23-28-14v49l28 14z" fill="#36c"/><path d="m30 21-24-12v38.6z" fill="#fff" opacity=".15"/><path d="m18.3 67.5c0 1 .8 2.1 1.8 2.6s1.8.1 1.8-.9-.9-2.1-1.9-2.5c-1-.5-1.7-.1-1.7.8z" opacity=".3"/><path d="m19 12.5c0 .6.4 1.2 1 1.5s1 .1 1-.5-.4-1.2-1-1.5-1-.1-1 .5z" opacity=".3"/><path d="m6.4 4.2 27.2 13.6c1.4.7 2.3 2.2 2.3 3.8v56.7c0 1.2-1.3 2-2.4 1.5l-28.6-14.3c-.5-.3-.9-.9-.9-1.5v-58.3c0-1.2 1.3-2 2.4-1.5z" opacity=".11"/></svg>