<svg xmlns:xlink="http://www.w3.org/1999/xlink"  enable-background="new 0 0 80 60" height="60" viewBox="0 0 80 60" width="80" xmlns="http://www.w3.org/2000/svg"><path d="m80 35v-1.9l-80 8.8v2c0 .3.1.6.4.8l28.7 14.4c1.1.6 2.5.6 3.6 0l46.7-23.4c.4-.1.6-.4.6-.7z" fill="#2d3134"/><path d="m80 35v-1.9l-80 8.8v2c0 .3.1.6.4.8l28.7 14.4c1.1.6 2.5.6 3.6 0l46.7-23.4c.4-.1.6-.4.6-.7z" opacity=".2"/><path d="m.5 42.7 28.7 14.4c1.1.6 2.5.6 3.6 0l46.7-23.4c.6-.3.6-1.2 0-1.5l-29.1-14.5c-.9-.4-1.9-.4-2.8 0l-47.1 23.6c-.7.3-.7 1.1 0 1.4z" fill="#656565"/><path d="m47 20-40 20 28 14 40-20z" fill="#36c"/><path d="m57 25-16 26 34-17z" fill="#fff" opacity=".1"/><ellipse cx="19" cy="49" opacity=".3" rx="2" ry="1"/><ellipse cx="62" cy="25.5" opacity=".3" rx="1" ry=".5"/></svg>