<svg xmlns:xlink="http://www.w3.org/1999/xlink"  enable-background="new 0 0 80 40" height="40" viewBox="0 0 80 40" width="80" xmlns="http://www.w3.org/2000/svg"><path d="m40 18-12 13 12-5h17z" fill="#2d3134"/><path d="m40 18v8h17z" opacity=".11"/><path d="m40 18v8l-12 5z" opacity=".29"/><path d="m45 7-7-3-21 3v2l5.6 2.4-18.6 18.6v2l16 8 20-20 28 11 5-11v-2z" fill="#656565"/><path d="m29.6 10.9 12.5-1.8-3 6.6zm9.1 3.3 1.7-3.7-7.1 1z" opacity=".15"/><path d="m20.6 6.8-1.6.2.7.3 1.5-.2z" opacity=".2"/><path d="m23 6.5-1.5.2.6.3 1.5-.3z" opacity=".2"/><path d="m25.5 6.1-1.6.2.6.3 1.6-.2z" opacity=".2"/><path d="m27.9 5.8-1.5.2.6.3 1.5-.3z" opacity=".2"/><path d="m30.3 5.4-1.5.2.6.3 1.5-.2z" opacity=".2"/><path d="m32.8 5.1-1.6.2.6.3 1.6-.3z" opacity=".2"/><path d="m35.2 4.7-1.5.2.6.3 1.5-.2z" opacity=".2"/><path d="m37.6 4.4-1.5.2.6.3 1.5-.3z" opacity=".2"/><path d="m21.6 7.3-1.6.2.6.2 1.6-.2z" opacity=".2"/><path d="m24 6.9-1.5.2.6.3 1.5-.2z" opacity=".2"/><path d="m26.5 6.6-1.6.2.6.2 1.6-.2z" opacity=".2"/><path d="m28.9 6.2-1.6.2.7.3 1.5-.2z" opacity=".2"/><path d="m31.3 5.9-1.5.2.6.2 1.5-.2z" opacity=".2"/><path d="m33.8 5.5-1.6.2.6.3 1.6-.2z" opacity=".2"/><path d="m36.2 5.2-1.5.2.6.2 1.5-.2z" opacity=".2"/><path d="m38.6 4.8-1.5.2.6.3 1.5-.2z" opacity=".2"/><path d="m22.6 7.7-1.6.2.6.3 1.6-.2z" opacity=".2"/><path d="m25 7.3-1.5.3.6.2 1.5-.2z" opacity=".2"/><path d="m27.4 7-1.5.2.6.3 1.6-.2z" opacity=".2"/><path d="m29.9 6.6-1.6.3.6.2 1.6-.2z" opacity=".2"/><path d="m32.3 6.3-1.5.2.6.3 1.5-.2z" opacity=".2"/><path d="m34.7 5.9-1.5.3.6.2 1.6-.2z" opacity=".2"/><path d="m37.2 5.6-1.6.2.7.3 1.5-.2z" opacity=".2"/><path d="m39.6 5.2-1.5.3.6.2 1.5-.2z" opacity=".2"/><path d="m23.6 8.1-1.6.3.6.2 1.6-.2z" opacity=".2"/><path d="m26 7.8-1.5.2.6.3 1.5-.3z" opacity=".2"/><path d="m28.4 7.4-1.5.3.6.2 1.5-.2z" opacity=".2"/><path d="m30.9 7.1-1.6.2.6.3 1.6-.3z" opacity=".2"/><path d="m33.3 6.7-1.5.3.6.2 1.5-.2z" opacity=".2"/><path d="m35.7 6.4-1.5.2.6.3 1.5-.3z" opacity=".2"/><path d="m38.2 6-1.6.3.6.2 1.6-.2z" opacity=".2"/><path d="m40.6 5.7-1.5.2.6.3 1.5-.3z" opacity=".2"/><path d="m24.6 8.6-1.6.2.6.3 1.6-.3z" opacity=".2"/><path d="m27 8.2-1.6.2.7.3 1.5-.2z" opacity=".2"/><path d="m29.4 7.9-1.5.2.6.3 1.5-.3z" opacity=".2"/><path d="m31.9 7.5-1.6.2.6.3 1.6-.2z" opacity=".2"/><path d="m34.3 7.2-1.5.2.6.3 1.5-.3z" opacity=".2"/><path d="m36.7 6.8-1.5.2.6.3 1.5-.2z" opacity=".2"/><path d="m39.2 6.5-1.6.2.6.3 1.6-.3z" opacity=".2"/><path d="m41.6 6.1-1.5.2.6.3 1.5-.2z" opacity=".2"/><path d="m25.5 9-1.5.2.6.3 1.6-.2z" opacity=".2"/><path d="m28 8.7-1.6.2.6.2 1.6-.2z" opacity=".2"/><path d="m30.4 8.3-1.5.2.6.3 1.5-.2z" opacity=".2"/><path d="m32.9 8-1.6.2.6.2 1.6-.2z" opacity=".2"/><path d="m35.3 7.6-1.6.2.7.3 1.5-.2z" opacity=".2"/><path d="m37.7 7.3-1.5.2.6.2 1.5-.2z" opacity=".2"/><path d="m40.2 6.9-1.6.2.6.3 1.6-.2z" opacity=".2"/><path d="m42.6 6.6-1.6.2.7.2 1.5-.2z" opacity=".2"/><path d="m30.6 11.1 8.4 4.2 2.6-5.8zm8.2 3.5-6.5-3.3 8.6-1.2z" fill="#999"/><path d="m20 40 20-20v-2l-20 20z" opacity=".29"/><path d="m20 40-16-8v-2l16 8z" opacity=".11"/><path d="m10.9 31-1 1 1.3.6 1-1zm6.3 3.2-1 1 1.3.6 1-1zm-10.5-5.3-1 1 1.3.6 1-1zm2.1 1.1-1 1 1.3.6 1-1zm9.6 6.2 1.3.6 1-1-1.3-.6zm-5.4-4.1-1 1 1.3.6 1-1zm2.1 1-1 1 1.3.6 1-1zm-5.5-5.2-1.3-.6-1 1 1.3.6zm-.2 1.4 1.3.6 1-1-1.3-.6zm10.7 3.9-1.3-.6-1 1 1.3.6zm-6.3-3.1-1.3-.6-1 1 1.3.6zm4.2 2.1-1.3-.6-1 1 1.3.6zm-2.1-1.1-1.3-.6-1 1 1.3.6zm4.1 3.5 1.3.6 1-1-1.3-.6zm-6.9-5.8 1.3.6 1-1-1.3-.6zm-1.9-2.5-1.3-.6-1 1 1.3.6zm10.5 5.3-1.3-.6-1 1 1.3.6zm-4.2-2.1-1.3-.6-1 1 1.3.6zm2.1 1.1-1.3-.6-1 1 1.3.6zm-8.6-2.9 1.3.6 1-1-1.3-.6zm10.6 5.3 1.3.6 1-1-1.4-.6zm-.4-4.1-1.3-.6-1 1 1.3.6zm-4.4-.7 1.3.6 1-1-1.3-.6zm6.5 1.8-1.3-.6-1 1 1.3.6zm-8.6-2.8 1.3.6 1-1-1.3-.6zm8.5 4.2 1.3.6 1-1-1.3-.6zm-10.6-5.3 1.3.6 1-1-1.3-.6zm.1-1.4-1.3-.6-1 1 1.3.6zm1.6-1.6-1.3-.6-1 1 1.3.6zm6.4 3.2-1.3-.6-1 1 1.3.6zm4.2 2.1-1.3-.6-1 1 1.3.6zm-8.6-2.8 1.3.6 1-1-1.3-.6zm-2.1-1.1 1.3.6 1-1-1.3-.6zm8.6 2.8-1.3-.6-1 1 1.3.6zm2 2.5 1.3.6 1-1-1.3-.6zm-8.9-8.3-1.3-.6-1 1 1.3.6zm10.6 5.3-1.3-.6-1 1 1.3.6zm-4.2-2.1-1.3-.7-1 1 1.3.6zm-6.5-1.8 1.3.6 1-1-1.3-.6zm8.6 2.8-1.3-.6-1 1 1.3.6zm2 2.5 1.3.6 1-1-1.3-.6zm-8.5-4.2 1.3.6 1-1-1.3-.6zm-.5-2.7 1.3.6 1-1-1.3-.6zm10.7 3.9-1.3-.6-1 1 1.3.6zm-8.6-2.8 1.3.6 1-1-1.3-.6zm4.4.7-1.3-.6-1 1 1.3.6zm2.1 1-1.3-.6-1 1 1.3.6zm-8.5-4.2-1.3-.6-1 1 1.3.6zm10.5 6.7 1.3.6 1-1-1.3-.6zm-9-6.9 1.3.6 1-1-1.3-.6zm8.6 2.8-1.3-.6-1 1 1.3.6zm-2.1-1-1.3-.6-1 1 1.3.6zm-4.4-.8 1.3.6 1-1-1.3-.6zm-2-2.4-1.3-.6-1 1 1.3.6zm10.6 5.3-1.3-.6-1 1 1.3.6zm-.2 1.4 1.3.6 1-1-1.3-.6zm-.3-4.1-1.3-.6-1 1 1.3.6zm-2.1-1-1.3-.6-1 1 1.3.6zm-4.4-.8 1.3.6 1-1-1.3-.6zm8.4 4.3 1.3.6 1-1-1.3-.6zm-10.5-5.3 1.3.6 1-1-1.3-.6zm10.7 3.9-1.3-.7-1 1 1.3.6zm-10.6-5.3-1.2-.7-1 1 1.3.6zm12.2 3.7-1.3-.6-1 1 1.3.6zm-.2 1.4 1.3.6 1-1-1.3-.6zm-10.4-6.7-1.3-.6-1 1 1.3.6zm8.5 4.2-1.3-.6-1 1 1.3.6zm-6.5-1.8 1.3.6 1-1-1.3-.6zm4.4.7-1.3-.6-1 1 1.3.6zm-6.5-1.7 1.3.6 1-1-1.3-.6zm10.2 1.2-1.3-.6-1 1 1.3.6zm-4.4-.7 1.3.6 1-1-1.3-.6zm-2.1-1.1 1.3.6 1-1-1.3-.6zm-2.1-1 1.3.6 1-1-1.3-.6zm10.5 5.2 1.3.6 1-1-1.3-.6zm-10.4-6.6-1.3-.6-1 1 1.3.6zm10.6 5.2-1.3-.6-1 1 1.3.6zm.6-.6 1-1-1.3-.6-1 1zm-9.6-6.2-1.3-.6-1 1 1.3.6zm7.5 5.2 1-1-1.3-.6-1 1zm-6.3-3.2 1-1-1.3-.6-1 1zm10.2 3.7-1 1 1.3.6 1-1zm-6-1.6 1-1-1.3-.6-1 1zm-2.1-1.1 1-1-1.3-.6-1 1z" opacity=".2"/><path d="m68 31-28-11v-2l28 11z" opacity=".11"/><path d="m68 31 5-11v-2l-5 11z" opacity=".29"/><path d="m66.8 26.4-.4 1 1 .4.5-1z" opacity=".2"/><path d="m67.6 24.7-.5 1 1.1.4.4-1z" opacity=".2"/><path d="m68.3 23.1-.4.9 1 .5.5-1z" opacity=".2"/><path d="m69.1 21.4-.5 1 1.1.4.4-1z" opacity=".2"/><path d="m69.8 19.7-.4 1 1 .4.5-1z" opacity=".2"/><path d="m70.6 18.1-.5 1 1.1.4.4-1z" opacity=".2"/><path d="m64.9 25.6-.4 1 1 .4.5-1z" opacity=".2"/><path d="m65.7 24-.5.9 1.1.5.4-1z" opacity=".2"/><path d="m66.4 22.3-.4 1 1 .4.5-1z" opacity=".2"/><path d="m67.2 20.6-.5 1 1.1.4.4-1z" opacity=".2"/><path d="m67.9 19-.4 1 1 .4.5-1z" opacity=".2"/><path d="m68.7 17.3-.5 1 1.1.4.4-1z" opacity=".2"/><path d="m63 24.9-.5 1 1.1.4.4-1z" opacity=".2"/><path d="m63.7 23.2-.4 1 1 .4.5-1z" opacity=".2"/><path d="m64.5 21.5-.5 1 1.1.4.4-.9z" opacity=".2"/><path d="m65.2 19.9-.4 1 1 .4.5-1z" opacity=".2"/><path d="m66 18.2-.5 1 1.1.4.4-1z" opacity=".2"/><path d="m66.7 16.6-.4.9 1 .5.5-1z" opacity=".2"/><path d="m61.1 24.1-.5 1 1.1.4.4-1z" opacity=".2"/><path d="m61.8 22.4-.4 1 1 .4.5-.9z" opacity=".2"/><path d="m62.6 20.8-.5 1 1.1.4.4-1z" opacity=".2"/><path d="m63.3 19.1-.4 1 1 .4.5-1z" opacity=".2"/><path d="m64.1 17.5-.5.9 1.1.5.4-1z" opacity=".2"/><path d="m64.8 15.8-.4 1 1 .4.5-1z" opacity=".2"/><path d="m59.1 23.3-.4 1 1 .5.5-1z" opacity=".2"/><path d="m59.9 21.7-.5 1 1.1.4.4-1z" opacity=".2"/><path d="m60.6 20-.4 1 1 .4.5-1z" opacity=".2"/><path d="m61.4 18.4-.5 1 1.1.4.4-1z" opacity=".2"/><path d="m62.1 16.7-.4 1 1 .4.5-1z" opacity=".2"/><path d="m62.9 15-.5 1 1.1.4.4-1z" opacity=".2"/><path d="m57.2 22.6-.4 1 1 .4.5-1z" opacity=".2"/><path d="m58 20.9-.5 1 1.1.4.4-1z" opacity=".2"/><path d="m58.7 19.3-.4 1 1 .4.5-1z" opacity=".2"/><path d="m59.5 17.6-.5 1 1.1.4.4-1z" opacity=".2"/><path d="m60.2 15.9-.4 1 1 .4.5-.9z" opacity=".2"/><path d="m61 14.3-.5 1 1.1.4.4-1z" opacity=".2"/><path d="m55.3 21.8-.5 1 1.1.4.4-1z" opacity=".2"/><path d="m56 20.2-.4 1 1 .4.5-1z" opacity=".2"/><path d="m56.8 18.5-.5 1 1.1.4.4-1z" opacity=".2"/><path d="m57.5 16.8-.4 1 1 .4.5-.9z" opacity=".2"/><path d="m58.3 15.2-.5 1 1.1.4.4-1z" opacity=".2"/><path d="m59 13.5-.4 1 1 .4.5-1z" opacity=".2"/><path d="m53.4 21.1-.5 1 1.1.4.4-1z" opacity=".2"/><path d="m54.1 19.4-.4 1 1 .4.5-1z" opacity=".2"/><path d="m54.9 17.8-.5.9 1.1.5.4-1z" opacity=".2"/><path d="m55.6 16.1-.4 1 1 .4.5-1z" opacity=".2"/><path d="m56.4 14.4-.5 1 1.1.4.4-1z" opacity=".2"/><path d="m57.1 12.8-.4 1 1 .4.5-1z" opacity=".2"/><path d="m51.4 20.3-.4 1 1 .4.5-1z" opacity=".2"/><path d="m52.2 18.7-.5.9 1.1.5.4-1z" opacity=".2"/><path d="m52.9 17-.4 1 1 .4.5-1z" opacity=".2"/><path d="m53.7 15.3-.5 1 1.1.4.4-1z" opacity=".2"/><path d="m54.4 13.7-.4 1 1 .4.5-1z" opacity=".2"/><path d="m55.2 12-.5 1 1.1.4.4-1z" opacity=".2"/><path d="m49.5 19.6-.4 1 1 .4.5-1z" opacity=".2"/><path d="m50.3 17.9-.5 1 1.1.4.4-1z" opacity=".2"/><path d="m51 16.2-.4 1 1 .4.5-.9z" opacity=".2"/><path d="m51.8 14.6-.5 1 1.1.4.4-1z" opacity=".2"/><path d="m52.5 12.9-.4 1 1 .4.5-1z" opacity=".2"/><path d="m53.3 11.3-.5.9 1.1.5.4-1z" opacity=".2"/><path d="m47.6 18.8-.5 1 1.1.4.4-1z" opacity=".2"/><path d="m48.3 17.1-.4 1 1 .4.5-.9z" opacity=".2"/><path d="m49.1 15.5-.5 1 1.1.4.4-1z" opacity=".2"/><path d="m49.8 13.8-.4 1 1 .4.5-1z" opacity=".2"/><path d="m50.6 12.2-.5.9 1.1.5.4-1z" opacity=".2"/><path d="m51.3 10.5-.4 1 1 .4.5-1z" opacity=".2"/><path d="m45.7 18-.5 1 1.1.5.4-1z" opacity=".2"/><path d="m46.4 16.4-.4 1 1 .4.5-1z" opacity=".2"/><path d="m47.2 14.7-.5 1 1.1.4.4-1z" opacity=".2"/><path d="m47.9 13.1-.4 1 1 .4.5-1z" opacity=".2"/><path d="m48.7 11.4-.5 1 1.1.4.4-1z" opacity=".2"/><path d="m49.4 9.7-.4 1 1 .4.5-1z" opacity=".2"/><path d="m43.7 17.3-.4 1 1 .4.5-1z" opacity=".2"/><path d="m44.5 15.6-.5 1 1.1.4.4-1z" opacity=".2"/><path d="m45.2 14-.4 1 1 .4.5-1z" opacity=".2"/><path d="m46 12.3-.5 1 1.1.4.4-1z" opacity=".2"/><path d="m46.7 10.6-.4 1 1 .4.5-.9z" opacity=".2"/><path d="m47.5 9-.5 1 1.1.4.4-1z" opacity=".2"/><path d="m41.8 16.5-.4 1 1 .4.5-1z" opacity=".2"/><path d="m42.6 14.9-.5 1 1.1.4.4-1z" opacity=".2"/><path d="m43.3 13.2-.4 1 1 .4.5-1z" opacity=".2"/><path d="m44.1 11.5-.5 1 1.1.4.4-.9z" opacity=".2"/><path d="m44.8 9.9-.4 1 1 .4.5-1z" opacity=".2"/><path d="m45.6 8.2-.5 1 1.1.4.4-1z" opacity=".2"/><path d="m24 10-7-3v2l5.6 2.4z" opacity=".11"/></svg>