<svg xmlns:xlink="http://www.w3.org/1999/xlink"  enable-background="new 0 0 40 20" height="20" viewBox="0 0 40 20" width="40" xmlns="http://www.w3.org/2000/svg"><path d="m20 20-16-8 8.2-4.1 16 8z" fill="#539b00"/><ellipse cx="6.3" cy="11.9" fill="#fc0" rx="1.2" ry=".6"/><ellipse cx="6.3" cy="11.9" fill="#999" rx=".6" ry=".3"/><ellipse cx="12.2" cy="9" fill="#fc0" rx="1.2" ry=".6"/><ellipse cx="12.2" cy="9" fill="#999" rx=".6" ry=".3"/><ellipse cx="20" cy="18.9" fill="#fc0" rx="1.2" ry=".6"/><ellipse cx="20" cy="18.9" fill="#999" rx=".6" ry=".3"/><ellipse cx="25.8" cy="15.9" fill="#fc0" rx="1.2" ry=".6"/><ellipse cx="25.8" cy="15.9" fill="#999" rx=".6" ry=".3"/><path d="m19.2 12.8-3.4 1.7 3.4 1.7 3.4-1.7z" opacity=".2"/><path d="m16.2 14.2v.3l3 1.5 3-1.5v-.3l-3-1.5z" fill="#e5e5e5"/><path d="m19.2 16-3-1.5v-.3l3 1.5z" opacity=".11"/><path d="m19.2 15.7v.3l3-1.5v-.3z" opacity=".29"/><path d="m14.5 10.3-4.2 2.1 4.2 2.1 4.2-2.1z" opacity=".2"/><path d="m10.7 12.1v.3l3.8 1.9 3.8-1.9v-.3l-3.8-1.9z" fill="#2d3134"/><path d="m14.5 14.3-3.8-1.9v-.3l3.8 1.9z" opacity=".11"/><path d="m14.5 14v.3l3.8-1.9v-.3z" opacity=".29"/><path d="m10.3 9.3-3.4 1.7 2.6 1.3 3.4-1.7z" opacity=".2"/><path d="m7.3 10.7v.3l2.2 1.1 3-1.5v-.3l-2.2-1.1z" fill="#e5e5e5"/><path d="m9.5 12.1-2.2-1.1v-.3l2.2 1.1z" opacity=".11"/><path d="m9.5 11.8v.3l3-1.5v-.3z" opacity=".29"/><path d="m23.2 14.7-1.4.7 1.4.7 1.4-.7z" opacity=".2"/><path d="m22.2 15.2v.2l1 .5 1-.5v-.2l-1-.5z" fill="#2d3134"/><path d="m23.2 15.9-1-.5v-.2l1 .5z" opacity=".11"/><path d="m23.2 15.7v.2l1-.5v-.2z" opacity=".29"/><path d="m21.2 15.7-1.6.8 1.6.8 1.6-.8z" opacity=".2"/><path d="m20 16.3v.2l1.2.6 1.2-.6v-.2l-1.2-.6z" fill="#2d3134"/><path d="m21.2 17.1-1.2-.6v-.2l1.2.6z" opacity=".11"/><path d="m21.2 16.9v.2l1.2-.6v-.2z" opacity=".29"/><path d="m12 13.9-1.4.7 1.2.6 1.4-.7z" opacity=".2"/><path d="m11 14.4v.2l.8.4 1-.5v-.2l-.8-.4z" fill="#2d3134"/><path d="m11.8 15-.8-.4v-.2l.8.4z" opacity=".11"/><path d="m11.8 14.8v.2l1-.5v-.2z" opacity=".29"/><g fill="#fc0"><path d="m15.1 10.2-.4-.2.4-.2.4.2z"/><path d="m15.9 10.6-.4-.2.4-.2.4.2z"/><path d="m16.7 11-.4-.2.4-.2.4.2z"/><path d="m17.5 11.4-.4-.2.4-.2.4.2z"/><path d="m18.3 11.8-.4-.2.4-.2.4.2z"/><path d="m19.1 12.2-.4-.2.4-.2.4.2z"/><path d="m19.9 12.6-.4-.2.4-.2.4.2z"/><path d="m20.7 13-.4-.2.4-.2.4.2z"/><path d="m21.5 13.4-.4-.2.4-.2.4.2z"/><path d="m22.3 13.8-.4-.2.4-.2.4.2z"/><path d="m23.1 14.2-.4-.2.4-.2.4.2z"/><path d="m23.9 14.6-.4-.2.4-.2.4.2z"/></g><path d="m11.9 12.4v1.1l-1.8.9-2.4-1.2v-1.1l1.8-.9z" fill="#e5e5e5"/><path d="m10.1 14.4 1.8-.9v-1.1l-1.8.9z" opacity=".29"/><path d="m10.1 13.3v1.1l-2.4-1.2v-1.1z" opacity=".11"/><path d="m9.8 13.4v.6l-1.8-.9v-.6z" opacity=".3"/><path d="m17.2 15.4v.9l-1.6.8-1.6-.8v-.9l1.6-.8z" fill="#e5e5e5"/><path d="m15.6 17.1 1.6-.8v-.9l-1.6.8z" opacity=".29"/><path d="m15.6 16.2v.9l-1.6-.8v-.9z" opacity=".11"/><path d="m15.3 16.3v.4l-1-.5v-.4z" opacity=".3"/><path d="m19.6 16.6v.9l-1.6.8-1.6-.8v-.9l1.6-.8z" fill="#e5e5e5"/><path d="m18 18.3 1.6-.8v-.9l-1.6.8z" opacity=".29"/><path d="m18 17.4v.9l-1.6-.8v-.9z" opacity=".11"/><path d="m17.7 17.5v.4l-1-.5v-.4z" opacity=".3"/><path d="m25.7 15.7v1l-4 2-.6-.3v-1l4-2z" fill="#2d3134"/><path d="m21.7 18.7 4-2v-1l-4 2z" opacity=".29"/><path d="m21.7 17.7v1l-.6-.3v-1z" opacity=".11"/></svg>