<svg xmlns:xlink="http://www.w3.org/1999/xlink"  enable-background="new 0 0 40 20" height="20" viewBox="0 0 40 20" width="40" xmlns="http://www.w3.org/2000/svg"><path d="m20 20-20-10 12-6 20 10z" fill="#539b00"/><ellipse cx="2.4" cy="10" fill="#fc0" rx="1.2" ry=".6"/><ellipse cx="2.4" cy="10" fill="#999" rx=".6" ry=".3"/><ellipse cx="12" cy="5.1" fill="#fc0" rx="1.2" ry=".6"/><ellipse cx="12" cy="5.1" fill="#999" rx=".6" ry=".3"/><ellipse cx="16.2" cy="16.8" fill="#fc0" rx="1.2" ry=".6"/><ellipse cx="16.2" cy="16.8" fill="#999" rx=".6" ry=".3"/><path d="m12 7.2-3.4 1.7 3.4 1.7 3.4-1.7z" opacity=".2"/><path d="m9 8.6v.3l3 1.5 3-1.5v-.3l-3-1.5z" fill="#e5e5e5"/><path d="m12 10.4-3-1.5v-.3l3 1.5z" opacity=".11"/><path d="m12 10.1v.3l3-1.5v-.3z" opacity=".29"/><path d="m16 9.2-3.4 1.7 2.6 1.3 3.4-1.7z" opacity=".2"/><path d="m13 10.6v.3l2.2 1.1 3-1.5v-.3l-2.2-1.1z" fill="#2d3134"/><path d="m15.2 12-2.2-1.1v-.3l2.2 1.1z" opacity=".11"/><path d="m15.2 11.7v.3l3-1.5v-.3z" opacity=".29"/><path d="m18.1 12.7-2.4 1.2 2.4 1.2 2.4-1.2z" opacity=".2"/><path d="m16.1 13.6v.3l2 1 2-1v-.3l-2-1z" fill="#2d3134"/><path d="m18.1 14.9-2-1v-.3l2 1z" opacity=".11"/><path d="m18.1 14.6v.3l2-1v-.3z" opacity=".29"/><path d="m21.5 11.4-2 1 2 1 2-1z" opacity=".2"/><path d="m19.9 12.2v.2l1.6.8 1.6-.8v-.2l-1.6-.8z" fill="#2d3134"/><path d="m21.5 13.2-1.6-.8v-.2l1.6.8z" opacity=".11"/><path d="m21.5 13v.2l1.6-.8v-.2z" opacity=".29"/><path d="m6.6 8.4-1.4.7 1.4.7 1.4-.7z" opacity=".2"/><path d="m5.6 8.9v.2l1 .5 1-.5v-.2l-1-.5z" fill="#2d3134"/><path d="m6.6 9.6-1-.5v-.2l1 .5z" opacity=".11"/><path d="m6.6 9.4v.2l1-.5v-.2z" opacity=".29"/><path d="m8.4 9.3-1.4.7 1.4.7 1.4-.7z" opacity=".2"/><path d="m7.4 9.8v.2l1 .5 1-.5v-.2l-1-.5z" fill="#2d3134"/><path d="m8.4 10.5-1-.5v-.2l1 .5z" opacity=".11"/><path d="m8.4 10.3v.2l1-.5v-.2z" opacity=".29"/><path d="m22.4 10.1v2.8l5.2 2.6 3-1.5v-2.8l-5.2-2.6z" fill="#e5e5e5"/><path d="m27.6 15.5-5.2-2.6v-2.8l5.2 2.6z" opacity=".11"/><path d="m30.3 11.6-2.4 1.2v1.7l.5-.3v.7l1.4-.7v-.6l.5-.3z" opacity=".3"/><path d="m30.3 13.5v.4l-.4.2v-.4z" fill="#9c3"/><path d="m28.3 14.5v.4l-.4.2v-.4z" fill="#fc0"/><path d="m27.6 12.7v2.8l3-1.5v-2.8z" opacity=".29"/><path d="m13.6 4.7-1.2.6v.7l8.8 4.4 1.2-.6v-.7z" fill="#2d3134"/><g fill="#fc0"><path d="m13.2 3.9-.2.1v1.4l.2.1.2-.1v-1.4z"/><path d="m13.8 3.6-.2.1v1.4l.2.1.2-.1v-1.4z"/><path d="m14.2 4.4-.2.1v1.4l.2.1.2-.1v-1.4z"/><path d="m14.8 4.1-.2.1v1.4l.2.1.2-.1v-1.4z"/><path d="m15.2 4.9-.2.1v1.4l.2.1.2-.1v-1.4z"/><path d="m15.8 4.6-.2.1v1.4l.2.1.2-.1v-1.4z"/><path d="m16.2 5.4-.2.1v1.4l.2.1.2-.1v-1.4z"/><path d="m16.8 5.1-.2.1v1.4l.2.1.2-.1v-1.4z"/><path d="m17.2 5.9-.2.1v1.4l.2.1.2-.1v-1.4z"/><path d="m17.8 5.6-.2.1v1.4l.2.1.2-.1v-1.4z"/><path d="m18.2 6.4-.2.1v1.4l.2.1.2-.1v-1.4z"/><path d="m18.8 6.1-.2.1v1.4l.2.1.2-.1v-1.4z"/><path d="m19.2 6.9-.2.1v1.4l.2.1.2-.1v-1.4z"/><path d="m19.8 6.6-.2.1v1.4l.2.1.2-.1v-1.4z"/><path d="m20.2 7.4-.2.1v1.4l.2.1.2-.1v-1.4z"/><path d="m20.8 7.1-.2.1v1.4l.2.1.2-.1v-1.4z"/><path d="m21.2 7.9-.2.1v1.4l.2.1.2-.1v-1.4z"/><path d="m21.8 7.6-.2.1v1.4l.2.1.2-.1v-1.4z"/></g><path d="m21.2 9.7v.7l1.2-.6v-.7z" opacity=".29"/><path d="m21.2 10.4-8.8-4.4v-.7l8.8 4.4z" opacity=".11"/><path d="m20.8 13.1v2.8l3 1.5 3-1.5v-2.8l-3-1.5z" fill="#e5e5e5"/><path d="m23.8 17.4-3-1.5v-2.8l3 1.5z" opacity=".11"/><path d="m23.8 14.6v2.8l3-1.5v-2.8z" opacity=".29"/><path d="m24.1 14.7v1l2.4-1.2v-1z" opacity=".3"/><path d="m24.1 14.7v.5l2.4-1.2v-.5z" opacity=".3"/><path d="m24.1 16v1l2.4-1.2v-1z" opacity=".3"/><path d="m24.1 16v.5l2.4-1.2v-.5z" opacity=".3"/><path d="m17 15v2.8l3 1.5 3-1.5v-2.8l-3-1.5z" fill="#e5e5e5"/><path d="m20 19.3-3-1.5v-2.8l3 1.5z" opacity=".11"/><path d="m20 16.5v2.8l3-1.5v-2.8z" opacity=".29"/><path d="m20.3 16.6v1l2.4-1.2v-1z" opacity=".3"/><path d="m20.3 16.6v.5l2.4-1.2v-.5z" opacity=".3"/><path d="m20.3 17.9v1l2.4-1.2v-1z" opacity=".3"/><path d="m20.3 17.9v.5l2.4-1.2v-.5z" opacity=".3"/><path d="m10.3 11.2v.9l-2.4 1.2-1.6-.8v-.9l2.4-1.2z" fill="#e5e5e5"/><path d="m7.9 13.3 2.4-1.2v-.9l-2.4 1.2z" opacity=".29"/><path d="m7.9 12.4v.9l-1.6-.8v-.9z" opacity=".11"/><path d="m7.6 12.5v.4l-1-.5v-.4z" opacity=".3"/><path d="m7.1 9.6v.9l-2.4 1.2-1.6-.8v-.9l2.4-1.2z" fill="#e5e5e5"/><path d="m4.7 11.7 2.4-1.2v-.9l-2.4 1.2z" opacity=".29"/><path d="m4.7 10.8v.9l-1.6-.8v-.9z" opacity=".11"/><path d="m4.4 10.9v.4l-1-.5v-.4z" opacity=".3"/><path d="m12.5 12.3v.9l-2.4 1.2-1.6-.8v-.9l2.4-1.2z" fill="#e5e5e5"/><path d="m10.1 14.4 2.4-1.2v-.9l-2.4 1.2z" opacity=".29"/><path d="m10.1 13.5v.9l-1.6-.8v-.9z" opacity=".11"/><path d="m9.8 13.6v.4l-1-.5v-.4z" opacity=".3"/><path d="m9.8 5.4v1l-4 2-.6-.3v-1l4-2z" fill="#2d3134"/><path d="m5.8 8.4 4-2v-1l-4 2z" opacity=".29"/><path d="m5.8 7.4v1l-.6-.3v-1z" opacity=".11"/><path d="m15.9 12.4v1l-4 2-.6-.3v-1l4-2z" fill="#2d3134"/><path d="m11.9 15.4 4-2v-1l-4 2z" opacity=".29"/><path d="m11.9 14.4v1l-.6-.3v-1z" opacity=".11"/><path d="m16.5 14.1v1.4l-1.4.7-1.4-.7v-1.4l1.4-.7z" fill="#2d3134"/><path d="m15.1 14.8v1.4l-.8.4-1.4-.7v-1.4l.8-.4z" fill="#e5e5e5"/><path d="m14.3 16.6 2.2-1.1v-1.4l-2.2 1.1z" opacity=".29"/><path d="m14.3 15.2v1.4l-1.4-.7v-1.4z" fill="#2d3134"/><path d="m14.3 15.2v1.4l-1.4-.7v-1.4z" opacity=".11"/><path d="m13.6 15.1c-.1-.1-.3-.1-.4 0l-.4.2c-.1 0-.2.2-.2.3 0 .3.2.7.5.8.1.1.3.1.4 0 0 0 .4-.2.4-.2.1-.1.1-.2.1-.3.1-.3-.1-.7-.4-.8z" fill="#2d3134"/><path d="m13.6 16.3s.4-.2.4-.2c.1-.1.1-.2.1-.3s0-.2-.1-.4l-.4.2c.1.1.1.2.1.4.1.2 0 .3-.1.3z" opacity=".29"/><path d="m13.6 16c0 .2-.2.3-.4.2s-.4-.4-.4-.6.2-.3.4-.2c.3.1.4.4.4.6z" opacity=".3"/><path d="m13.8 16c0 .3-.2.4-.5.3s-.5-.5-.5-.8.2-.4.5-.3c.2.2.5.6.5.8z" opacity=".11"/></svg>