<svg xmlns:xlink="http://www.w3.org/1999/xlink"  enable-background="new 0 0 32 40" height="40" viewBox="0 0 32 40" width="32" xmlns="http://www.w3.org/2000/svg"><path d="m4 34 12 6v-23l-4-5-8-1z" fill="#baa794"/><path d="m16 17v23l12-6v-23z" fill="#baa794"/><path d="m16 24.5v.5l12-6v-.5z" opacity=".15"/><path d="m16 27v.5l12-6v-.5z" opacity=".15"/><path d="m16 29.5v.5l12-6v-.5z" opacity=".15"/><path d="m16 32v.5l12-6v-.5z" opacity=".15"/><path d="m16 34.5v.5l12-6v-.5z" opacity=".15"/><path d="m16 37v.5l12-6v-.5z" opacity=".15"/><path d="m16 24.5v.5l-12-6v-.5z" opacity=".15"/><path d="m16 19.5v.5l-12-6v-.5z" opacity=".15"/><path d="m16 17v.5l-12-6v-.5z" opacity=".15"/><path d="m16 22v.5l12-6v-.5z" opacity=".15"/><path d="m16 19.5v.5l12-6v-.5z" opacity=".15"/><path d="m16 22v.5l-12-6v-.5z" opacity=".15"/><path d="m16 27v.5l-12-6v-.5z" opacity=".15"/><path d="m16 29.5v.5l-12-6v-.5z" opacity=".15"/><path d="m16 32v.5l-12-6v-.5z" opacity=".15"/><path d="m16 34.5v.5l-12-6v-.5z" opacity=".15"/><path d="m16 37v.5l-12-6v-.5z" opacity=".15"/><path d="m16 17v23l12-6v-23z" opacity=".29"/><path d="m5.5 14.8v19.5l9 4.5v-19.5z" fill="#f8ebcb"/><path d="m5 14v20l.5.3v-19.5l9 4.5v19.5l.5.2v-20z" opacity=".2"/><path d="m7 35v-19.5l.5.3v19.5z" opacity=".15"/><path d="m9 36v-19.5l.5.3v19.5z" opacity=".15"/><path d="m11 37v-19.5l.5.3v19.5z" opacity=".15"/><path d="m13 38v-19.5l.5.3v19.5z" opacity=".15"/><path d="m14 29-1.5-.7v.7l1.5.8z" fill="#656565"/><path d="m4 11v23l12 6v-23l-4-5z" opacity=".11"/><path d="m22 5h-8l-12 6v1h8l7 7 12-6v-1z" fill="#825012"/><path d="m17 18-7-7 12-6 7 7z" opacity=".2"/><path d="m17 18v1l12-6v-1z" opacity=".29"/><path d="m10 11h-8v1h8l7 7v-1z" opacity=".11"/><path d="m12 10h-8l-.5.3h8l7 7 .5-.3z" opacity=".15"/><path d="m14 9h-8l-.5.3h8l7 7 .5-.3z" opacity=".15"/><path d="m16 8h-8l-.5.3h8l7 7 .5-.3z" opacity=".15"/><path d="m18 7h-8l-.5.3h8l7 7 .5-.3z" opacity=".15"/><path d="m20 6h-8l-.5.3h8l7 7 .5-.3z" opacity=".15"/><path d="m22 5h-8l-.5.3h8l7 7 .5-.3z" opacity=".15"/><path d="m4 33.5v.5l12 6 12-6v-.5l-12 6z" opacity=".15"/></svg>