<svg xmlns:xlink="http://www.w3.org/1999/xlink"  enable-background="new 0 0 16 16" height="16" viewBox="0 0 16 16" width="16" xmlns="http://www.w3.org/2000/svg"><circle cx="10" cy="6" fill="#cc291f" r="1"/><path d="m10.8 5.4v.2c0 .6-.4 1-1 1-.3 0-.6-.1-.8-.4.1.5.5.8 1 .8.6 0 1-.4 1-1 0-.2-.1-.5-.2-.6z" opacity=".15"/><path d="m10 5.3-.2.1.1-.2-.2-.1h.3l.2-.1-.1.2.3.2z" fill="#539b00"/><circle cx="6" cy="10" fill="#cc291f" r="1"/><path d="m6.8 9.4v.2c0 .6-.4 1-1 1-.3 0-.6-.1-.8-.4.1.5.5.8 1 .8.6 0 1-.4 1-1 0-.2-.1-.5-.2-.6z" opacity=".15"/><path d="m6 9.3-.2.1.1-.2-.2-.1h.3l.2-.1-.1.2.3.2z" fill="#539b00"/><path d="m8.7 16h-.8c0-1.2-.2-2-.4-2.8-.2-.6-.4-1.3-.4-2.1-.1-.9.3-1.8.6-2.8.4-1 .8-2.1.7-3.2-.1-2.1-1.3-3.2-1.3-3.2l.5-.5c.1 0 1.4 1.2 1.6 3.6.1 1.3-.4 2.5-.8 3.6-.3.9-.7 1.7-.6 2.5 0 .7.2 1.3.4 1.9.2.8.5 1.7.5 3z" fill="#539b00"/><circle cx="9" cy="12" fill="#cc291f" r="1"/><path d="m9.8 11.4v.2c0 .6-.4 1-1 1-.3 0-.6-.1-.8-.4.1.5.5.8 1 .8.6 0 1-.4 1-1 0-.2-.1-.5-.2-.6z" opacity=".15"/><path d="m9 11.3-.2.1.1-.2-.2-.1h.3l.2-.1-.1.2.3.2z" fill="#539b00"/><circle cx="11.8" cy="6.8" fill="#cc291f" r=".9"/><path d="m12.5 6.2v.2c0 .5-.4.9-.9.9-.3 0-.5-.1-.7-.3.1.4.5.7.9.7.5 0 .9-.4.9-.9 0-.2-.1-.4-.2-.6z" opacity=".15"/><path d="m11.8 6.1-.2.1.1-.2h-.2.3l.2-.1-.1.1.3.2z" fill="#539b00"/><circle cx="7" cy="3" fill="#cc291f" r="1"/><path d="m7.8 2.4v.2c0 .6-.4 1-1 1-.3 0-.6-.1-.8-.4.1.5.5.8 1 .8.6 0 1-.4 1-1 0-.2-.1-.5-.2-.6z" opacity=".15"/><g fill="#539b00"><path d="m7 2.3-.2.1.1-.2-.2-.1h.3l.2-.1-.1.2.3.2z"/><path d="m12.2 11.3c.5.1 1 .1 1 .1s-.4-1.4-1.2-1.7c.1-.1.2-.1.2-.1s-3.1-1.2-2.6 0c-1.4-.4-2.2 2.1-2.2 2.2l.5.1s.6-1.8 1.4-1.8c-1 .7 1 2.7 1 2.7s0-.3 0-.8c.2.7.6 1.4.6 1.4s.4-1 .4-1.7c0 .8 1.1 2.2 1.1 2.2s.4-2-.2-2.6zm-.6-.1c-.1 0-.1 0 0 0zm-1.4-.2c0-.2-.1-.5-.1-.6.2.1.4.3.5.4-.3 0-.4 0-.4.2z"/><path d="m12 2.3s-.5-.7-1-1c.4-.1.7-.2.7-.2s-.6-.8-1.2-.8c0-.1.1-.1.1-.1s-2.2 0-1.7.6c-.9 0-1 1.2-1 1.9h.5c0-.3 0-1.1.3-1.4-.2.7 1.4 1.3 1.4 1.3s-.1-.2-.2-.5c.3.4.7.8.7.8s0-.5-.1-1c.5.3 1.5.4 1.5.4zm-2.6-1.1c.1 0 .2.1.3.1-.1.1-.1.2-.1.3-.1-.2-.1-.3-.2-.4z"/><path d="m6.2 7c.8-1.1-2.6-.4-2.6-.4s.6.7 1.2.9c-.1.1-.2.2-.3.3 0-.1-.1-.2-.2-.3-1.4-1.4-2.2 1.4-2.2 1.4s1 0 1.7-.2c-.1 0-.1.1-.1.2h-.1c-1.4-.2-.7 2.8-.7 2.8s1.3-1.7 1.1-2.5c0 0 .1 0 .1-.1 0 .7.4 1.7.4 1.7s.4-.7.6-1.4v.8s2-1.9 1-2.7c.8.1 1.4 1.8 1.4 1.8l.5-.1c-.1-.1-.7-2-1.8-2.2zm-1.4 1.2c.2-.1.3-.3.5-.4 0 .2-.1.4-.1.6-.1-.1-.2-.2-.4-.2z"/><path d="m6.2.1s0 .2.1.4c-.9-.2-2.1.9-2.1.9s.2.1.5.3c-.7.4-1.2 2-1.2 2s.8-.3 1.5-.7c-.3.1-.4.3-.4.3s.9-.2 1.5-.6c-.1.4-.1.8-.1.8s1.6-1 1.7-1.6c.1 0 .2 0 .3-.1 1.4-.5-1.8-1.7-1.8-1.7z"/><path d="m12.6 5.3c.6.5 2.4.6 2.4.6s-.7-.9-1.3-1.3c.3-.1.6-.2.6-.2s-1.4-1.8-2.3-1c.1-.4.1-.8.1-.8s-1.5.8-1.9 1.4h-.1c-1.4.1-1.7 2.7-1.7 2.8l.5.1c.1-.6.4-2.2 1.2-2.3-.4.8 1.7 1.6 1.7 1.6s0-.2-.1-.5c.6.5 1.5 1 1.5 1s-.2-.7-.6-1.4zm-.3-.5s.1 0 0 0c.1 0 .1 0 0 0z"/></g></svg>