<svg xmlns:xlink="http://www.w3.org/1999/xlink"  enable-background="new 0 0 320 640" height="640" viewBox="0 0 320 640" width="320" xmlns="http://www.w3.org/2000/svg"><path d="m243.8 445.6v-10.4l-83.8-41.9-83.8 41.9v10.4l10.5 5.3 55.5-27.8-92.2 121.9v10l10 5 100-135.3 100 135.3 10-5v-10l-92.2-121.9 55.5 27.8z" fill="#999"/><path d="m60 560 100-135.3v-10.5l-100 135.8z" opacity=".29"/><path d="m86.7 440.4 10.4 5.2 62.9-31.4v-10.5z" opacity=".29"/><path d="m160 424.7 100 135.3v-10l-100-135.8z" opacity=".11"/><path d="m233.3 440.4-73.3-36.7v10.5l62.9 31.4z" opacity=".11"/><path d="m225.7 351.1v-8.2l-65.7-32.9-65.7 32.9v8.2l8.2 4.1 43.5-21.8-72.2 95.6v7.8l7.8 3.9 78.4-106.1 78.4 106.1 7.8-3.9v-7.8l-72.2-95.6 43.5 21.8z" fill="#999"/><path d="m81.6 440.7 78.4-106.1v-8.2l-78.4 106.5z" opacity=".29"/><path d="m102.5 347 8.2 4.1 49.3-24.7v-8.2z" opacity=".29"/><path d="m160 334.6 78.4 106.1v-7.8l-78.4-106.5z" opacity=".11"/><path d="m217.5 347-57.5-28.8v8.2l49.3 24.7z" opacity=".11"/><path d="m211.3 277.1v-6.5l-51.3-25.6-51.3 25.6v6.5l6.4 3.2 34-17-56.4 74.6v6.1l6.1 3 61.2-82.8 61.2 82.8 6.1-3v-6.1l-56.4-74.6 34 17z" fill="#999"/><path d="m98.8 347 61.2-82.8v-6.4l-61.2 83.1z" opacity=".29"/><path d="m115.1 273.8 6.4 3.3 38.5-19.3v-6.4z" opacity=".29"/><path d="m160 264.2 61.2 82.8v-6.1l-61.2-83.1z" opacity=".11"/><path d="m204.9 273.8-44.9-22.4v6.4l38.5 19.3z" opacity=".11"/><path d="m200.1 219v-5l-40.1-20-40.1 20v5l5 2.5 26.6-13.2-44.1 58.3v4.7l4.8 2.4 47.8-64.7 47.8 64.7 4.8-2.4v-4.7l-44.1-58.3 26.6 13.2z" fill="#999"/><path d="m112.2 273.7 47.8-64.7v-5l-47.8 64.9z" opacity=".29"/><path d="m124.9 216.5 5 2.5 30.1-15v-5z" opacity=".29"/><path d="m160 209 47.8 64.7v-4.8l-47.8-64.9z" opacity=".11"/><path d="m195.1 216.5-35.1-17.5v5l30.1 15z" opacity=".11"/><path d="m40 560 10 5 10-5 26.7-119.6-10.5-5.2-10.5 5.2z" fill="#999"/><path d="m40 560 10 5 26.2-119.4-10.5-5.2z" opacity=".11"/><path d="m50 565 10-5 20.2-94.3-4-20.1z" opacity=".29"/><path d="m160 600v10l-10 5-73.8-148.4v-10.5l10.5-5.2z" fill="#999"/><path d="m150 615-73.8-148.4v-10.5l73.8 148.9z" opacity=".11"/><path d="m76.2 456.1 73.8 35.9 10-5v-10l-73.3-36.6-10.5 5.2z" fill="#999"/><path d="m76.2 456.1 73.8 35.9v-10l-73.8-36.4z" opacity=".11"/><path d="m280 560-10 5-10-5-26.7-119.6 10.5-5.2 10.5 5.2z" fill="#999"/><path d="m280 560-10 5-26.2-119.4 10.5-5.2z" opacity=".29"/><path d="m270 565-10-5-21.2-97.4 5-17z" opacity=".11"/><path d="m160 600v10l10 5 73.8-148.4v-10.5l-10.5-5.2z" fill="#999"/><path d="m170 615 73.8-148.4v-10.5l-73.8 148.9z" opacity=".29"/><path d="m243.8 456.1-73.8 35.9-10-5v-10l73.3-36.6 10.5 5.2z" fill="#999"/><path d="m243.8 456.1-73.8 35.9v-10l73.8-36.4z" opacity=".29"/><path d="m150 615 10 5 10-5v-133l-10-5-10 5z" fill="#999"/><path d="m150 615 10 5v-133l-10-5z" opacity=".11"/><path d="m160 620 10-5v-133l-10 5z" opacity=".29"/><path d="m65.9 440.7 7.9 3.9 7.8-3.9 20.9-93.7-8.2-4.1-8.2 4.1z" fill="#999"/><path d="m65.9 440.7 7.9 3.9 20.5-93.5-8.2-4.1z" opacity=".11"/><path d="m73.8 444.6 7.8-3.9 15.8-73.9-3.1-15.7z" opacity=".29"/><path d="m160 472.1v7.8l-7.8 3.9-57.9-116.3v-8.2l8.2-4.1z" fill="#999"/><path d="m152.2 483.8-57.9-116.3v-8.2l57.9 116.7z" opacity=".11"/><path d="m94.3 359.3 57.9 28.1 7.8-3.9v-7.9l-57.5-28.6-8.2 4.1z" fill="#999"/><path d="m94.3 359.3 57.9 28.1v-7.8l-57.9-28.5z" opacity=".11"/><path d="m254.1 440.7-7.9 3.9-7.8-3.9-20.9-93.7 8.2-4.1 8.2 4.1z" fill="#999"/><path d="m254.1 440.7-7.9 3.9-20.5-93.5 8.2-4.1z" opacity=".29"/><path d="m246.2 444.6-7.8-3.9-16.7-76.4 4-13.2z" opacity=".11"/><path d="m160 472.1v7.8l7.8 3.9 57.9-116.3v-8.2l-8.2-4.1z" fill="#999"/><path d="m167.8 483.8 57.9-116.3v-8.2l-57.9 116.7z" opacity=".29"/><path d="m225.7 359.3-57.9 28.1-7.8-3.9v-7.9l57.5-28.6 8.2 4.1z" fill="#999"/><path d="m225.7 359.3-57.9 28.1v-7.8l57.9-28.5z" opacity=".29"/><path d="m152.2 483.8 7.8 3.9 7.8-3.9v-104.2l-7.8-4-7.8 4z" fill="#999"/><path d="m152.2 483.8 7.8 3.9v-104.2l-7.8-3.9z" opacity=".11"/><path d="m160 487.7 7.8-3.9v-104.2l-7.8 3.9z" opacity=".29"/><path d="m86.6 347 6.1 3.1 6.1-3.1 16.3-73.2-6.4-3.2-6.4 3.2z" fill="#999"/><path d="m86.6 347 6.1 3.1 16-73-6.4-3.3z" opacity=".11"/><path d="m92.7 350.1 6.1-3.1 12.4-57.7-2.5-12.2z" opacity=".29"/><path d="m160 371.5v6.1l-6.1 3.1-45.2-90.8v-6.4l6.4-3.2z" fill="#999"/><path d="m153.9 380.7-45.2-90.8v-6.4l45.2 91.1z" opacity=".11"/><path d="m108.7 283.5 45.2 21.9 6.1-3.1v-6.1l-44.9-22.4-6.4 3.3z" fill="#999"/><path d="m108.7 283.5 45.2 21.9v-6.1l-45.2-22.2z" opacity=".11"/><path d="m233.4 347-6.1 3.1-6.1-3.1-16.3-73.2 6.4-3.2 6.4 3.2z" fill="#999"/><path d="m233.4 347-6.1 3.1-16-73 6.4-3.3z" opacity=".29"/><path d="m227.3 350.1-6.1-3.1-13-59.6 3.1-10.3z" opacity=".11"/><path d="m160 371.5v6.1l6.1 3.1 45.2-90.8v-6.4l-6.4-3.2z" fill="#999"/><path d="m166.1 380.7 45.2-90.8v-6.4l-45.2 91.1z" opacity=".29"/><path d="m211.3 283.5-45.2 21.9-6.1-3.1v-6.1l44.9-22.4 6.4 3.3z" fill="#999"/><path d="m211.3 283.5-45.2 21.9v-6.1l45.2-22.2z" opacity=".29"/><path d="m153.9 380.7 6.1 3 6.1-3v-81.4l-6.1-3.1-6.1 3.1z" fill="#999"/><path d="m153.9 380.7 6.1 3v-81.4l-6.1-3z" opacity=".11"/><path d="m160 383.7 6.1-3v-81.4l-6.1 3z" opacity=".29"/><path d="m102.6 273.7 4.8 2.4 4.8-2.4 12.7-57.2-5-2.5-5 2.5z" fill="#999"/><path d="m102.6 273.7 4.8 2.4 12.5-57.1-5-2.5z" opacity=".11"/><path d="m107.4 276.1 4.8-2.4 9.7-45.1-2-9.6z" opacity=".29"/><path d="m160 292.9v4.7l-4.8 2.4-35.3-70.9v-5l5-2.6z" fill="#999"/><path d="m155.2 300-35.3-70.9v-5l35.3 71.1z" opacity=".11"/><path d="m119.9 224.1 35.3 17.1 4.8-2.4v-4.8l-35.1-17.5-5 2.5z" fill="#999"/><path d="m119.9 224.1 35.3 17.1v-4.8l-35.3-17.4z" opacity=".11"/><path d="m217.4 273.7-4.8 2.4-4.8-2.4-12.7-57.2 5-2.5 5 2.5z" fill="#999"/><path d="m217.4 273.7-4.8 2.4-12.5-57.1 5-2.5z" opacity=".29"/><path d="m212.6 276.1-4.8-2.4-10.2-46.6 2.5-8.1z" opacity=".11"/><path d="m160 292.9v4.7l4.8 2.4 35.3-70.9v-5l-5-2.6z" fill="#999"/><path d="m164.8 300 35.3-70.9v-5l-35.3 71.1z" opacity=".29"/><path d="m200.1 224.1-35.3 17.1-4.8-2.4v-4.8l35.1-17.5 5 2.5z" fill="#999"/><path d="m200.1 224.1-35.3 17.1v-4.8l35.3-17.4z" opacity=".29"/><path d="m155.2 300 4.8 2.4 4.8-2.4v-63.6l-4.8-2.4-4.8 2.4z" fill="#999"/><path d="m155.2 300 4.8 2.4v-63.6l-4.8-2.4z" opacity=".11"/><path d="m160 302.4 4.8-2.4v-63.6l-4.8 2.4z" opacity=".29"/><path d="m191.4 173.6v-3.9l-31.4-15.7-31.4 15.7v3.9l3.9 2 20.8-10.4-34.6 45.7v3.7l3.8 1.9 37.5-50.7 37.5 50.7 3.8-1.9v-3.7l-34.6-45.7 20.8 10.4z" fill="#999"/><path d="m122.5 216.5 37.5-50.7v-4l-37.5 51z" opacity=".29"/><path d="m132.5 171.6 3.9 2 23.6-11.8v-3.9z" opacity=".29"/><path d="m160 165.8 37.5 50.7v-3.7l-37.5-51z" opacity=".11"/><path d="m187.5 171.6-27.5-13.7v3.9l23.6 11.8z" opacity=".11"/><path d="m115 216.5 3.7 1.9 3.8-1.9 10-44.9-3.9-1.9-4 1.9z" fill="#999"/><path d="m115 216.5 3.7 1.9 9.9-44.8-4-2z" opacity=".11"/><path d="m118.7 218.4 3.8-1.9 7.6-35.4-1.5-7.5z" opacity=".29"/><path d="m160 231.5v3.8l-3.7 1.8-27.7-55.6v-4l3.9-1.9z" fill="#999"/><path d="m156.3 237.1-27.7-55.6v-4l27.7 55.9z" opacity=".11"/><path d="m128.6 177.5 27.7 13.5 3.7-1.9v-3.7l-27.5-13.8-3.9 2z" fill="#999"/><path d="m128.6 177.5 27.7 13.5v-3.8l-27.7-13.6z" opacity=".11"/><path d="m205 216.5-3.7 1.9-3.8-1.9-10-44.9 3.9-1.9 4 1.9z" fill="#999"/><path d="m205 216.5-3.7 1.9-9.9-44.8 4-2z" opacity=".29"/><path d="m201.3 218.4-3.8-1.9-8-36.5 1.9-6.4z" opacity=".11"/><path d="m160 231.5v3.8l3.7 1.8 27.7-55.6v-4l-3.9-1.9z" fill="#999"/><path d="m163.7 237.1 27.7-55.6v-4l-27.7 55.9z" opacity=".29"/><path d="m191.4 177.5-27.7 13.5-3.7-1.9v-3.7l27.5-13.8 3.9 2z" fill="#999"/><path d="m191.4 177.5-27.7 13.5v-3.8l27.7-13.6z" opacity=".29"/><path d="m156.3 237.1 3.7 1.9 3.7-1.9v-49.9l-3.7-1.8-3.7 1.8z" fill="#999"/><path d="m156.3 237.1 3.7 1.9v-49.9l-3.7-1.9z" opacity=".11"/><path d="m160 239 3.7-1.9v-49.9l-3.7 1.9z" opacity=".29"/><path d="m184.5 138.1v-3.1l-24.5-12.2-24.5 12.2v3.1l3.1 1.5 16.2-8.1-27 35.6v2.9l3 1.5 29.2-39.6 29.2 39.6 3-1.5v-2.9l-27-35.6 16.2 8.1z" fill="#999"/><path d="m130.8 171.5 29.2-39.6v-3l-29.2 39.7z" opacity=".29"/><path d="m138.6 136.5 3 1.6 18.4-9.2v-3.1z" opacity=".29"/><path d="m160 131.9 29.2 39.6v-2.9l-29.2-39.7z" opacity=".11"/><path d="m181.4 136.5-21.4-10.7v3.1l18.4 9.2z" opacity=".11"/><path d="m124.9 171.5 2.9 1.4 3-1.4 7.8-35-3.1-1.5-3.1 1.5z" fill="#999"/><path d="m124.9 171.5 2.9 1.4 7.7-34.8-3.1-1.6z" opacity=".11"/><path d="m127.8 172.9 3-1.4 5.9-27.6-1.2-5.8z" opacity=".29"/><path d="m160 183.2v2.9l-2.9 1.5-21.6-43.4v-3.1l3.1-1.5z" fill="#999"/><path d="m157.1 187.6-21.6-43.4v-3.1l21.6 43.6z" opacity=".11"/><path d="m135.5 141.1 21.6 10.5 2.9-1.5v-2.9l-21.4-10.7-3.1 1.6z" fill="#999"/><path d="m135.5 141.1 21.6 10.5v-2.9l-21.6-10.6z" opacity=".11"/><path d="m195.1 171.5-2.9 1.4-3-1.4-7.8-35 3.1-1.5 3.1 1.5z" fill="#999"/><path d="m195.1 171.5-2.9 1.4-7.7-34.8 3.1-1.6z" opacity=".29"/><path d="m192.2 172.9-3-1.4-6.2-28.5 1.5-4.9z" opacity=".11"/><path d="m160 183.2v2.9l2.9 1.5 21.6-43.4v-3.1l-3.1-1.5z" fill="#999"/><path d="m162.9 187.6 21.6-43.4v-3.1l-21.6 43.6z" opacity=".29"/><path d="m184.5 141.1-21.6 10.5-2.9-1.5v-2.9l21.4-10.7 3.1 1.6z" fill="#999"/><path d="m184.5 141.1-21.6 10.5v-2.9l21.6-10.6z" opacity=".29"/><path d="m157.1 187.6 2.9 1.4 2.9-1.4v-38.9l-2.9-1.5-2.9 1.5z" fill="#999"/><path d="m157.1 187.6 2.9 1.4v-38.9l-2.9-1.4z" opacity=".11"/><path d="m160 189 2.9-1.4v-38.9l-2.9 1.4z" opacity=".29"/><path d="m179 110.4v-2.4l-19-9.5-19 9.5v2.4l2.3 1.2 12.7-6.3-21 27.7v2.3l2.3 1.1 22.7-30.8 22.7 30.8 2.3-1.1v-2.3l-21-27.7 12.7 6.3z" fill="#999"/><path d="m137.3 136.4 22.7-30.8v-2.3l-22.7 30.8z" opacity=".29"/><path d="m143.3 109.2 2.4 1.2 14.3-7.1v-2.4z" opacity=".29"/><path d="m160 105.6 22.7 30.8v-2.3l-22.7-30.8z" opacity=".11"/><path d="m176.7 109.2-16.7-8.3v2.4l14.3 7.1z" opacity=".11"/><path d="m132.7 136.4 2.3 1.1 2.3-1.1 6-27.2-2.3-1.2-2.4 1.2z" fill="#999"/><path d="m132.7 136.4 2.3 1.1 6-27.1-2.4-1.2z" opacity=".11"/><path d="m135 137.5 2.3-1.1 4.6-21.4-.9-4.6z" opacity=".29"/><path d="m160 145.5v2.3l-2.3 1.1-16.7-33.7v-2.4l2.3-1.2z" fill="#999"/><path d="m157.7 148.9-16.7-33.7v-2.4l16.7 33.8z" opacity=".11"/><path d="m141 112.8 16.7 8.1 2.3-1.1v-2.3l-16.7-8.3-2.3 1.2z" fill="#999"/><path d="m141 112.8 16.7 8.1v-2.2l-16.7-8.3z" opacity=".11"/><path d="m187.3 136.4-2.3 1.1-2.3-1.1-6-27.2 2.3-1.2 2.4 1.2z" fill="#999"/><path d="m187.3 136.4-2.3 1.1-6-27.1 2.4-1.2z" opacity=".29"/><path d="m185 137.5-2.3-1.1-4.8-22.2 1.1-3.8z" opacity=".11"/><path d="m160 145.5v2.3l2.3 1.1 16.7-33.7v-2.4l-2.3-1.2z" fill="#999"/><path d="m162.3 148.9 16.7-33.7v-2.4l-16.7 33.8z" opacity=".29"/><path d="m179 112.8-16.7 8.1-2.3-1.1v-2.3l16.7-8.3 2.3 1.2z" fill="#999"/><path d="m179 112.8-16.7 8.1v-2.2l16.7-8.3z" opacity=".29"/><path d="m157.7 148.9 2.3 1.1 2.3-1.1v-30.2l-2.3-1.2-2.3 1.2z" fill="#999"/><path d="m157.7 148.9 2.3 1.1v-30.2l-2.3-1.1z" opacity=".11"/><path d="m160 150 2.3-1.1v-30.2l-2.3 1.1z" opacity=".29"/><path d="m160 98.5-21.4 10.7 21.4 10.6 21.4-10.6z" fill="#999"/><path d="m162.5 108c-1.4-.7-3.6-.7-4.9 0-.7.3-1 .8-1 1.2v.6c0 .4.3.9 1 1.2 1.4.7 3.6.7 4.9 0 .7-.3 1-.8 1-1.2v-.6c0-.4-.3-.9-1-1.2z" fill="#656565"/><path d="m162.5 110.5c-1.4.7-3.6.7-4.9 0-.7-.3-1-.8-1-1.2v.6c0 .4.3.9 1 1.2 1.4.7 3.6.7 4.9 0 .7-.3 1-.8 1-1.2v-.6c0 .4-.3.8-1 1.2z" opacity=".1"/><path d="m158 64.6v44.7c0 .3.2.5.6.7.8.4 2 .4 2.8 0 .4-.2.6-.4.6-.7v-44.7z" fill="#656565"/><path d="m158 64.6v44.7c0 .3.2.5.6.7.8.4 2 .4 2.8 0 .4-.2.6-.4.6-.7v-44.7z" opacity=".2"/><circle cx="160" cy="70" fill="#656565" r="8"/></svg>