<svg xmlns:xlink="http://www.w3.org/1999/xlink"  enable-background="new 0 0 480 400" height="400" viewBox="0 0 480 400" width="480" xmlns="http://www.w3.org/2000/svg"><path d="m20 280 140-70 240 120-140 70z" opacity=".3"/><path d="m238.5 319.7c-7.5-3.7-14.2-4.2-19.2-1.9l-14 7c-5.4 2.4-8.8 7.9-8.8 15.9 0 15.5 12.5 34.3 28 42 7.6 3.8 14.6 4.2 19.6 1.8 0 0 13.9-6.9 15.1-7.6 4.5-2.7 7.3-7.9 7.3-15.2 0-15.5-12.5-34.3-28-42z" fill="#2d3134"/><path d="m244.4 384.3c2-1 13.7-6.8 14.8-7.5 4.5-2.7 7.3-7.9 7.3-15.2 0-6.2-2.1-13-5.5-19.3l-14 7c3.4 6.4 5.5 13.1 5.5 19.3 0 7.7-3.1 13.1-8.1 15.7z" opacity=".39"/><path d="m245.5 365c0 11.6-9.4 16.3-21 10.5s-21-19.9-21-31.5 9.4-16.3 21-10.5 21 19.9 21 31.5z" fill="#fc0"/><path d="m226.3 374.8c-11.6-5.8-21-19.9-21-31.5 0-5.7 2.3-9.7 6-11.7-4.7 1.5-7.7 5.8-7.7 12.4 0 11.6 9.4 25.7 21 31.5 5.9 2.9 11.2 3.2 15 1.2-3.7 1.1-8.3.6-13.3-1.9z" fill="#231f20" opacity=".3"/><path d="m235 358.2c0 4.8-3.9 6.8-8.8 4.4-4.8-2.4-8.8-8.3-8.8-13.1s3.9-6.8 8.8-4.4c4.9 2.3 8.8 8.2 8.8 13.1z" fill="#2d3134"/><path d="m235 358.2c0 4.8-3.9 6.8-8.8 4.4-4.8-2.4-8.8-8.3-8.8-13.1s3.9-6.8 8.8-4.4c4.9 2.3 8.8 8.2 8.8 13.1z" opacity=".39"/><path d="m233.3 359c0 4.8-3.9 6.8-8.8 4.4s-8.8-8.3-8.8-13.1 3.9-6.8 8.8-4.4 8.8 8.2 8.8 13.1z" fill="#2d3134"/><path d="m252.5 368.7c0 15.5-12.5 21.7-28 14s-28-26.5-28-42 12.5-21.7 28-14 28 26.5 28 42z" opacity=".06"/><path d="m364.5 256.7c-7.5-3.7-14.2-4.2-19.2-1.9l-14 7c-5.4 2.4-8.8 7.9-8.8 15.9 0 15.5 12.5 34.3 28 42 7.6 3.8 14.6 4.2 19.6 1.8 0 0 13.9-6.9 15.1-7.6 4.5-2.7 7.3-7.9 7.3-15.2 0-15.5-12.5-34.3-28-42z" fill="#2d3134"/><path d="m370.4 321.3c2-1 13.7-6.8 14.8-7.5 4.5-2.7 7.3-7.9 7.3-15.2 0-6.2-2.1-13-5.5-19.3l-14 7c3.4 6.4 5.5 13.1 5.5 19.3 0 7.7-3.1 13.1-8.1 15.7z" opacity=".39"/><path d="m371.5 302c0 11.6-9.4 16.3-21 10.5s-21-19.9-21-31.5 9.4-16.3 21-10.5 21 19.9 21 31.5z" fill="#fc0"/><path d="m352.3 311.8c-11.6-5.8-21-19.9-21-31.5 0-5.7 2.3-9.7 6-11.7-4.7 1.5-7.7 5.8-7.7 12.4 0 11.6 9.4 25.7 21 31.5 5.9 2.9 11.2 3.2 15 1.2-3.7 1.1-8.3.6-13.3-1.9z" fill="#231f20" opacity=".3"/><path d="m361 295.2c0 4.8-3.9 6.8-8.8 4.4-4.8-2.4-8.8-8.3-8.8-13.1s3.9-6.8 8.8-4.4c4.9 2.3 8.8 8.2 8.8 13.1z" fill="#2d3134"/><path d="m361 295.2c0 4.8-3.9 6.8-8.8 4.4-4.8-2.4-8.8-8.3-8.8-13.1s3.9-6.8 8.8-4.4c4.9 2.3 8.8 8.2 8.8 13.1z" opacity=".39"/><path d="m359.3 296c0 4.8-3.9 6.8-8.8 4.4s-8.8-8.3-8.8-13.1 3.9-6.8 8.8-4.4 8.8 8.2 8.8 13.1z" fill="#2d3134"/><path d="m378.5 305.7c0 15.5-12.5 21.7-28 14s-28-26.5-28-42 12.5-21.7 28-14 28 26.5 28 42z" opacity=".06"/><path d="m98.5 249.7c-7.5-3.7-14.2-4.2-19.2-1.9l-14 7c-5.4 2.4-8.8 7.9-8.8 15.9 0 15.5 12.5 34.3 28 42 7.6 3.8 14.6 4.2 19.6 1.8 0 0 13.9-6.9 15.1-7.6 4.5-2.7 7.3-7.9 7.3-15.2 0-15.5-12.5-34.3-28-42z" fill="#2d3134"/><path d="m104.4 314.3c2-1 13.7-6.8 14.8-7.5 4.5-2.7 7.3-7.9 7.3-15.2 0-6.2-2.1-13-5.5-19.3l-14 7c3.4 6.4 5.5 13.1 5.5 19.3 0 7.7-3.1 13.1-8.1 15.7z" opacity=".39"/><path d="m105.5 295c0 11.6-9.4 16.3-21 10.5s-21-19.9-21-31.5 9.4-16.3 21-10.5 21 19.9 21 31.5z" fill="#fc0"/><path d="m86.3 304.8c-11.6-5.8-21-19.9-21-31.5 0-5.7 2.3-9.7 6-11.7-4.7 1.5-7.7 5.8-7.7 12.4 0 11.6 9.4 25.7 21 31.5 5.9 2.9 11.2 3.2 15 1.2-3.7 1.1-8.3.6-13.3-1.9z" fill="#231f20" opacity=".3"/><path d="m95 288.2c0 4.8-3.9 6.8-8.8 4.4-4.8-2.4-8.8-8.3-8.8-13.1s3.9-6.8 8.8-4.4c4.9 2.3 8.8 8.2 8.8 13.1z" fill="#2d3134"/><path d="m95 288.2c0 4.8-3.9 6.8-8.8 4.4-4.8-2.4-8.8-8.3-8.8-13.1s3.9-6.8 8.8-4.4c4.9 2.3 8.8 8.2 8.8 13.1z" opacity=".39"/><path d="m93.3 289c0 4.8-3.9 6.8-8.8 4.4s-8.8-8.3-8.8-13.1 3.9-6.8 8.8-4.4 8.8 8.2 8.8 13.1z" fill="#2d3134"/><path d="m112.5 298.7c0 15.5-12.5 21.7-28 14s-28-26.5-28-42 12.5-21.7 28-14 28 26.5 28 42z" opacity=".06"/><path d="m330 303-10 5v10l122 61 10-5v-10z" fill="#fc0"/><path d="m452 364-10-5-10 5v10l10 5 10-5z" fill="#2d3134"/><path d="m452 374v-10l-10 5v10z" opacity=".29"/><path d="m320 318v-10l122 61v10z" opacity=".11"/><path d="m166 153-140 70v10l240 120 140-70v-10z" fill="#825012"/><path d="m26 233v-10l240 120v10z" opacity=".11"/><path d="m406 283v-10l-140 70v10z" opacity=".29"/><path d="m162 157-38 19 234 117 38-19z" opacity=".2"/><path d="m70 203-38 19 234 117 38-19z" opacity=".2"/><path d="m166 91-10 5v62l4 2 6-3 6 3 4-2v-62z" fill="#825012"/><path d="m156 158v-62l4 2v62z" opacity=".11"/><path d="m166 157v-62l-6 3v62z" opacity=".29"/><path d="m166 157v-62l6 3v62z" opacity=".11"/><path d="m176 158v-62l-4 2v62z" opacity=".29"/><path d="m166 128 4 2v19l-132 66-4-2v-19z" fill="#825012"/><path d="m170 149v-19l-132 66v19z" opacity=".29"/><path d="m34 213v-19l4 2v19z" opacity=".11"/><path d="m170 130-4 2v19l232 116 4-2v-19z" fill="#825012"/><path d="m166 151v-19l232 116v19z" opacity=".11"/><path d="m402 265v-19l-4 2v19z" opacity=".29"/><path d="m166 135-38 19v7l234 117 38-19v-7z" fill="#825012"/><path d="m128 161v-7l234 117v7z" opacity=".11"/><path d="m400 259v-7l-38 19v7z" opacity=".29"/><path d="m70 183-38 19v7l234 117 38-19v-7z" fill="#825012"/><path d="m32 209v-7l234 117v7z" opacity=".11"/><path d="m304 307v-7l-38 19v7z" opacity=".29"/><path d="m42 194-4 2v19l232 116 4-2v-19z" fill="#825012"/><path d="m38 215v-19l232 116v19z" opacity=".11"/><path d="m274 329v-19l-4 2v19z" opacity=".29"/><path d="m166 102 4 2v19l-132 66-4-2v-19z" fill="#825012"/><path d="m170 123v-19l-132 66v19z" opacity=".29"/><path d="m34 187v-19l4 2v19z" opacity=".11"/><path d="m170 104-4 2v19l232 116 4-2v-19z" fill="#825012"/><path d="m166 125v-19l232 116v19z" opacity=".11"/><path d="m402 239v-19l-4 2v19z" opacity=".29"/><path d="m42 168-4 2v19l232 116 4-2v-19z" fill="#825012"/><path d="m38 189v-19l232 116v19z" opacity=".11"/><path d="m274 303v-19l-4 2v19z" opacity=".29"/><path d="m272 274-6 3-6-3-4 2v62l10 5 10-5v-62z" fill="#825012"/><path d="m256 338v-62l10 5v62z" opacity=".11"/><path d="m276 338v-62l-10 5v62z" opacity=".29"/><path d="m36 156-10 5v62l10 5 4-2v-62-6z" fill="#825012"/><path d="m40 164v-6l-6 3z" opacity=".29"/><path d="m26 223v-62l10 5v62z" opacity=".11"/><path d="m40 226v-62l-4 2v62z" opacity=".29"/><path d="m396 206-4 2v68l4 2 10-5v-62z" fill="#825012"/><path d="m392 214v-6l6 3z" opacity=".11"/><path d="m392 276v-62l4 2v62z" opacity=".11"/><path d="m406 273v-62l-10 5v62z" opacity=".29"/></svg>