<svg xmlns:xlink="http://www.w3.org/1999/xlink"  enable-background="new 0 0 480 400" height="400" viewBox="0 0 480 400" width="480" xmlns="http://www.w3.org/2000/svg"><path d="m34 73-10 5v10l240 120 10-5v-10z" fill="#fc0"/><path d="m42 77-8-4-10 5v10l8 4v-10z" fill="#2d3134"/><path d="m24 88v-10l240 120v10z" opacity=".11"/><path d="m274 203v-10l-10 5v10z" opacity=".29"/><path d="m50 215 140-70 240 120-140 70z" opacity=".3"/><path d="m262.5 251.7c-7.5-3.7-14.2-4.2-19.2-1.9l-14 7c-5.4 2.4-8.8 7.9-8.8 15.9 0 15.5 12.5 34.3 28 42 7.6 3.8 14.6 4.2 19.6 1.8 0 0 13.9-6.9 15.1-7.6 4.5-2.7 7.3-7.9 7.3-15.2 0-15.5-12.5-34.3-28-42z" fill="#2d3134"/><path d="m268.4 316.3c2-1 13.7-6.8 14.8-7.5 4.5-2.7 7.3-7.9 7.3-15.2 0-6.2-2.1-13-5.5-19.3l-14 7c3.4 6.4 5.5 13.1 5.5 19.3 0 7.7-3.1 13.1-8.1 15.7z" opacity=".39"/><path d="m269.5 297c0 11.6-9.4 16.3-21 10.5s-21-19.9-21-31.5 9.4-16.3 21-10.5 21 19.9 21 31.5z" fill="#fc0"/><path d="m250.3 306.8c-11.6-5.8-21-19.9-21-31.5 0-5.7 2.3-9.7 6-11.7-4.7 1.5-7.7 5.8-7.7 12.4 0 11.6 9.4 25.7 21 31.5 5.9 2.9 11.2 3.2 15 1.2-3.7 1.1-8.3.6-13.3-1.9z" fill="#231f20" opacity=".3"/><path d="m259 290.2c0 4.8-3.9 6.8-8.8 4.4-4.8-2.4-8.8-8.3-8.8-13.1s3.9-6.8 8.8-4.4c4.9 2.3 8.8 8.2 8.8 13.1z" fill="#2d3134"/><path d="m259 290.2c0 4.8-3.9 6.8-8.8 4.4-4.8-2.4-8.8-8.3-8.8-13.1s3.9-6.8 8.8-4.4c4.9 2.3 8.8 8.2 8.8 13.1z" opacity=".39"/><path d="m257.3 291c0 4.8-3.9 6.8-8.8 4.4s-8.8-8.3-8.8-13.1 3.9-6.8 8.8-4.4 8.8 8.2 8.8 13.1z" fill="#2d3134"/><path d="m276.5 300.7c0 15.5-12.5 21.7-28 14s-28-26.5-28-42 12.5-21.7 28-14 28 26.5 28 42z" opacity=".06"/><path d="m388.5 188.7c-7.5-3.7-14.2-4.2-19.2-1.9l-14 7c-5.4 2.4-8.8 7.9-8.8 15.9 0 15.5 12.5 34.3 28 42 7.6 3.8 14.6 4.2 19.6 1.8 0 0 13.9-6.9 15.1-7.6 4.5-2.7 7.3-7.9 7.3-15.2 0-15.5-12.5-34.3-28-42z" fill="#2d3134"/><path d="m394.4 253.3c2-1 13.7-6.8 14.8-7.5 4.5-2.7 7.3-7.9 7.3-15.2 0-6.2-2.1-13-5.5-19.3l-14 7c3.4 6.4 5.5 13.1 5.5 19.3 0 7.7-3.1 13.1-8.1 15.7z" opacity=".39"/><path d="m395.5 234c0 11.6-9.4 16.3-21 10.5s-21-19.9-21-31.5 9.4-16.3 21-10.5 21 19.9 21 31.5z" fill="#fc0"/><path d="m376.3 243.8c-11.6-5.8-21-19.9-21-31.5 0-5.7 2.3-9.7 6-11.7-4.7 1.5-7.7 5.8-7.7 12.4 0 11.6 9.4 25.7 21 31.5 5.9 2.9 11.2 3.2 15 1.2-3.7 1.1-8.3.6-13.3-1.9z" fill="#231f20" opacity=".3"/><path d="m385 227.2c0 4.8-3.9 6.8-8.8 4.4-4.8-2.4-8.8-8.3-8.8-13.1s3.9-6.8 8.8-4.4c4.9 2.3 8.8 8.2 8.8 13.1z" fill="#2d3134"/><path d="m385 227.2c0 4.8-3.9 6.8-8.8 4.4-4.8-2.4-8.8-8.3-8.8-13.1s3.9-6.8 8.8-4.4c4.9 2.3 8.8 8.2 8.8 13.1z" opacity=".39"/><path d="m383.3 228c0 4.8-3.9 6.8-8.8 4.4s-8.8-8.3-8.8-13.1 3.9-6.8 8.8-4.4 8.8 8.2 8.8 13.1z" fill="#2d3134"/><path d="m402.5 237.7c0 15.5-12.5 21.7-28 14s-28-26.5-28-42 12.5-21.7 28-14 28 26.5 28 42z" opacity=".06"/><path d="m122.5 181.7c-7.5-3.7-14.2-4.2-19.2-1.9l-14 7c-5.4 2.4-8.8 7.9-8.8 15.9 0 15.5 12.5 34.3 28 42 7.6 3.8 14.6 4.2 19.6 1.8 0 0 13.9-6.9 15.1-7.6 4.5-2.7 7.3-7.9 7.3-15.2 0-15.5-12.5-34.3-28-42z" fill="#2d3134"/><path d="m128.4 246.3c2-1 13.7-6.8 14.8-7.5 4.5-2.7 7.3-7.9 7.3-15.2 0-6.2-2.1-13-5.5-19.3l-14 7c3.4 6.4 5.5 13.1 5.5 19.3 0 7.7-3.1 13.1-8.1 15.7z" opacity=".39"/><path d="m129.5 227c0 11.6-9.4 16.3-21 10.5s-21-19.9-21-31.5 9.4-16.3 21-10.5 21 19.9 21 31.5z" fill="#fc0"/><path d="m110.3 236.8c-11.6-5.8-21-19.9-21-31.5 0-5.7 2.3-9.7 6-11.7-4.7 1.5-7.7 5.8-7.7 12.4 0 11.6 9.4 25.7 21 31.5 5.9 2.9 11.2 3.2 15 1.2-3.7 1.1-8.3.6-13.3-1.9z" fill="#231f20" opacity=".3"/><path d="m119 220.2c0 4.8-3.9 6.8-8.8 4.4-4.8-2.4-8.8-8.3-8.8-13.1s3.9-6.8 8.8-4.4c4.9 2.3 8.8 8.2 8.8 13.1z" fill="#2d3134"/><path d="m119 220.2c0 4.8-3.9 6.8-8.8 4.4-4.8-2.4-8.8-8.3-8.8-13.1s3.9-6.8 8.8-4.4c4.9 2.3 8.8 8.2 8.8 13.1z" opacity=".39"/><path d="m117.3 221c0 4.8-3.9 6.8-8.8 4.4s-8.8-8.3-8.8-13.1 3.9-6.8 8.8-4.4 8.8 8.2 8.8 13.1z" fill="#2d3134"/><path d="m136.5 230.7c0 15.5-12.5 21.7-28 14s-28-26.5-28-42 12.5-21.7 28-14 28 26.5 28 42z" opacity=".06"/><path d="m190 85-140 70v10l240 120 140-70v-10z" fill="#825012"/><path d="m50 165v-10l240 120v10z" opacity=".11"/><path d="m430 215v-10l-140 70v10z" opacity=".29"/><path d="m186 89-38 19 234 117 38-19z" opacity=".2"/><path d="m94 135-38 19 234 117 38-19z" opacity=".2"/><path d="m190 23-10 5v62l4 2 6-3 6 3 4-2v-62z" fill="#825012"/><path d="m180 90v-62l4 2v62z" opacity=".11"/><path d="m190 89v-62l-6 3v62z" opacity=".29"/><path d="m190 89v-62l6 3v62z" opacity=".11"/><path d="m200 90v-62l-4 2v62z" opacity=".29"/><path d="m190 60 4 2v19l-132 66-4-2v-19z" fill="#825012"/><path d="m194 81v-19l-132 66v19z" opacity=".29"/><path d="m58 145v-19l4 2v19z" opacity=".11"/><path d="m194 62-4 2v19l232 116 4-2v-19z" fill="#825012"/><path d="m190 83v-19l232 116v19z" opacity=".11"/><path d="m426 197v-19l-4 2v19z" opacity=".29"/><path d="m190 67-38 19v7l234 117 38-19v-7z" fill="#825012"/><path d="m152 93v-7l234 117v7z" opacity=".11"/><path d="m424 191v-7l-38 19v7z" opacity=".29"/><path d="m94 115-38 19v7l234 117 38-19v-7z" fill="#825012"/><path d="m56 141v-7l234 117v7z" opacity=".11"/><path d="m328 239v-7l-38 19v7z" opacity=".29"/><path d="m66 126-4 2v19l232 116 4-2v-19z" fill="#825012"/><path d="m62 147v-19l232 116v19z" opacity=".11"/><path d="m298 261v-19l-4 2v19z" opacity=".29"/><path d="m190 34 4 2v19l-132 66-4-2v-19z" fill="#825012"/><path d="m194 55v-19l-132 66v19z" opacity=".29"/><path d="m58 119v-19l4 2v19z" opacity=".11"/><path d="m194 36-4 2v19l232 116 4-2v-19z" fill="#825012"/><path d="m190 57v-19l232 116v19z" opacity=".11"/><path d="m426 171v-19l-4 2v19z" opacity=".29"/><path d="m66 100-4 2v19l232 116 4-2v-19z" fill="#825012"/><path d="m62 121v-19l232 116v19z" opacity=".11"/><path d="m298 235v-19l-4 2v19z" opacity=".29"/><path d="m296 206-6 3-6-3-4 2v62l10 5 10-5v-62z" fill="#825012"/><path d="m280 270v-62l10 5v62z" opacity=".11"/><path d="m300 270v-62l-10 5v62z" opacity=".29"/><path d="m60 88-10 5v62l10 5 4-2v-62-6z" fill="#825012"/><path d="m64 96v-6l-6 3z" opacity=".29"/><path d="m50 155v-62l10 5v62z" opacity=".11"/><path d="m64 158v-62l-4 2v62z" opacity=".29"/><path d="m420 138-4 2v68l4 2 10-5v-62z" fill="#825012"/><path d="m416 146v-6l6 3z" opacity=".11"/><path d="m416 208v-62l4 2v62z" opacity=".11"/><path d="m430 205v-62l-10 5v62z" opacity=".29"/></svg>