<svg xmlns:xlink="http://www.w3.org/1999/xlink"  enable-background="new 0 0 400 320" height="320" viewBox="0 0 400 320" width="400" xmlns="http://www.w3.org/2000/svg"><path d="m260.4 106.8c-3.5 0-6.4 1.4-6.4 3.2v41.6c0 1.8 2.9 3.2 6.4 3.2s6.4-1.4 6.4-3.2v-41.6c0-1.8-2.9-3.2-6.4-3.2z" fill="#2d3134"/><ellipse cx="260.4" cy="110" opacity=".8" rx="4.8" ry="2"/><path d="m271.9 167.8c0-1.1-.9-2.4-1.9-2.9-.7-.3-1.3-.3-1.6.1-1.2.4-2.5.3-3.6-.4-1.3-.8-2-2.1-2-3.6v-65.4h-4.8v65.4c0 3.2 1.6 6 4.3 7.7 1.5.9 3.1 1.4 4.7 1.4 1.4 0 2.8-.3 4-1 .1-.1.9-.6.9-1.3z" fill="#2d3134"/><path d="m262.8 107v1.2c1.4.3 2.4 1 2.4 1.7 0 1.1-2.1 2-4.8 2s-4.8-.9-4.8-2c0-.7 1-1.4 2.4-1.7v-1.2c-2.3.5-4 1.6-4 3v41.6c0 1.8 2.9 3.2 6.4 3.2s6.4-1.4 6.4-3.2v-41.6c0-1.3-1.7-2.5-4-3z" fill="#2d3134"/><path d="m260.4 113.2c-3.5 0-6.4-1.4-6.4-3.2v41.6c0 1.8 2.9 3.2 6.4 3.2s6.4-1.4 6.4-3.2v-41.6c0 1.8-2.9 3.2-6.4 3.2z" opacity=".2"/><ellipse cx="260.4" cy="95.6" fill="#2d3134" rx="2.4" ry="1.6"/><path d="m330.1 147c-10-5-19-5.4-25.4-1.9l-18.4 9.2c-6.2 3.3-10 10.1-10 19.6 0 19.5 15.8 43.3 35.4 53 10.7 5.4 20.3 5.4 26.8 1.1l14.9-7.5c7.4-2.8 12-10 12-20.6.1-19.4-15.7-43.2-35.3-52.9z" fill="#2d3134"/><path d="m347.1 209.2c0 19.5-15.8 27.4-35.4 17.7s-35.4-33.5-35.4-53 15.8-27.4 35.4-17.7 35.4 33.5 35.4 53z" opacity=".11"/><path d="m313.4 155.3c-10.6-5.3-20.2-5.4-26.6-1.2 6.1-2 14-1.2 22.6 3.1 19.5 9.8 35.4 33.5 35.4 53 0 8.9-3.3 15.4-8.7 18.9 7.8-2.6 12.8-9.9 12.8-20.8-.2-19.5-16-43.2-35.5-53z" fill="#fff" opacity=".1"/><path d="m329.1 200.2c0 9.6-7.8 13.4-17.3 8.7-9.6-4.8-17.3-16.4-17.3-26s7.8-13.4 17.3-8.7c9.5 4.8 17.3 16.5 17.3 26z" fill="#28896d"/><path d="m327.7 199.5c0 8.8-7.1 12.4-15.9 8s-15.9-15.1-15.9-23.9 7.1-12.4 15.9-8c8.7 4.4 15.9 15.1 15.9 23.9z" fill="#28896d"/><path d="m327.7 199.5c0 8.8-7.1 12.4-15.9 8s-15.9-15.1-15.9-23.9 7.1-12.4 15.9-8c8.7 4.4 15.9 15.1 15.9 23.9z" fill="#28896d"/><path d="m327.7 199.5c0 8.8-7.1 12.4-15.9 8s-15.9-15.1-15.9-23.9 7.1-12.4 15.9-8c8.7 4.4 15.9 15.1 15.9 23.9z" opacity=".29"/><path d="m311.8 175.7c-8.8-4.4-15.9-.8-15.9 8 0 4.8 2.1 10.1 5.4 14.6l22.5-11.2c-3-4.8-7.3-9.1-12-11.4z" opacity=".15"/><path d="m314.8 177.5-4.2 2.2c-1.9.9-3.5 2.3-3.5 5.2 0 4.8 3.9 10.6 8.7 13 2.2 1.1 4.2 1.3 5.8.7l5.7-2.7c-1.4-6.9-6.3-14.1-12.5-18.4z" fill="#28896d"/><path d="m314.8 177.5-4.2 2.2c-1.9.9-3.5 2.3-3.5 5.2 0 4.8 3.9 10.6 8.7 13 2.2 1.1 4.2 1.3 5.8.7l5.7-2.7c-1.4-6.9-6.3-14.1-12.5-18.4z" opacity=".29"/><path d="m337.1 180.5c6 9.3 9.7 19.7 9.7 29.1 0 8.8-3.2 15.2-8.6 18.8l14.9-7.5c7.4-2.8 12-10 12-20.6 0-9.4-3.7-19.7-9.6-29.1z" opacity=".29"/><path d="m324.5 193.6c0 4.8-3.9 6.7-8.7 4.3s-8.7-8.2-8.7-13 3.9-6.7 8.7-4.3 8.7 8.2 8.7 13z" fill="#28896d"/><g opacity=".5"><path d="m317.2 184.3c0 .8-.6 1.1-1.4.7s-1.4-1.3-1.4-2.1.6-1.1 1.4-.7 1.4 1.3 1.4 2.1z"/><path d="m317.2 195.6c0 .8-.6 1.1-1.4.7s-1.4-1.3-1.4-2.1.6-1.1 1.4-.7 1.4 1.3 1.4 2.1z"/><path d="m312.8 182.7c.6.8.6 1.7 0 2s-1.4-.2-2-1-.6-1.7 0-2c.6-.2 1.5.2 2 1z"/><path d="m320.8 194.7c.6.8.6 1.7 0 2s-1.4-.2-2-1-.6-1.7 0-2c.6-.2 1.5.2 2 1z"/><path d="m310.2 185c.8.4 1.4 1.3 1.4 2.1s-.6 1.1-1.4.7-1.4-1.3-1.4-2.1.6-1.1 1.4-.7z"/><path d="m321.5 190.7c.8.4 1.4 1.3 1.4 2.1s-.6 1.1-1.4.7-1.4-1.3-1.4-2.1.6-1.1 1.4-.7z"/><path d="m310.8 189.7c.6-.3 1.4.2 2 1s.6 1.7 0 2-1.4-.2-2-1c-.5-.8-.5-1.7 0-2z"/><path d="m318.8 185.7c.6-.3 1.4.2 2 1s.6 1.7 0 2-1.4-.2-2-1c-.5-.8-.5-1.7 0-2z"/></g><path d="m311.8 156.2c-19.5-9.8-35.4-1.8-35.4 17.7s15.8 43.3 35.4 53c19.5 9.8 35.4 1.8 35.4-17.7s-15.9-43.2-35.4-53zm0 66.5c-17.2-8.6-31.1-29.5-31.1-46.7s13.9-24.2 31.1-15.6 31.1 29.5 31.1 46.7-14 24.2-31.1 15.6z" fill="#fff" opacity=".1"/><g opacity=".5"><path d="m309.2 157.7 5.7 2.8-2.8-4.2c-.1 0-.2-.1-.2-.1-1.7-.9-3.4-1.6-5.1-2.2z"/><path d="m314.8 225.6-5.7-2.8 2.1 3.9c.2.1.3.2.5.3 1.7.8 3.3 1.5 4.9 2.1z"/><path d="m293.2 155.4 4.9-.4-3.9-3c-.1 0-.1 0-.2 0-1.5.1-2.9.4-4.2.7z"/><path d="m330.7 227.6-4.9.4 3.2 3h.4c1.4-.1 2.8-.4 4.1-.7z"/><path d="m282.2 162.7 2.8-3.5-3.9-.9s-.1.1-.1.1c-.9 1.1-1.6 2.2-2.2 3.5z"/><path d="m341.4 220-2.8 3.5 3.5 1.3c.1-.1.2-.2.3-.3.8-1 1.5-2.2 2.2-3.4z"/><path d="m279.3 177.8v-5.7l-2.8 1.4v.2c0 1.7.1 3.5.4 5.2z"/><path d="m344.3 204.7v5.7l2.8-.7c0-.2 0-.3 0-.5 0-1.7-.1-3.4-.3-5.1z"/><path d="m284.9 196.6-2.8-6.3-1 3.3c0 .1.1.2.1.3.9 1.9 1.8 3.8 2.8 5.6z"/><path d="m338.4 185.9 2.8 6.3 1.4-2.5c-.1-.2-.1-.4-.2-.5-.8-1.9-1.8-3.7-2.8-5.5z"/><path d="m297.7 214-4.9-5.3 1 4.4c.1.1.1.2.2.2 1.5 1.6 3 3.1 4.6 4.5z"/><path d="m325.4 168.6 4.9 5.3-.4-3.7c-.1-.2-.3-.3-.4-.5-1.4-1.6-2.9-3-4.4-4.4z"/></g><g opacity=".5"><path d="m306.2 144.4c-.5.2-.9.4-1.4.7l-4.6 2.3-.5.9-9.8 4.6c1.3-.4 2.7-.6 4.2-.7h.2l9.8-4.2z"/><path d="m350 163c-1.1-1.3-2.2-2.5-3.3-3.7l-5.6 6.6-16.1-.6c1.5 1.4 3 2.8 4.4 4.4.1.2.3.3.4.5l14.2.3z"/><path d="m311.8 156.2c.1 0 .2.1.2.1l15.7-1.5 3.8-7.1c-.4-.2-.9-.5-1.3-.7-1-.5-2-.9-3-1.4l-3.6 6.3-16.8 2.2c1.6.5 3.2 1.2 5 2.1z"/><path d="m356.7 212.2 7.6-3.7c.6-1.9 1-4 1.1-6.3l-8.1 4.3-10.5-2.4c.2 1.7.3 3.4.3 5.1v.5z"/><path d="m344.5 221.1c-.6 1.2-1.3 2.3-2.2 3.4-.1.1-.2.2-.3.3l2.3.3 6.1-3z"/><path d="m342.6 189.7 13.7 2.9 7-6.1c-.7-2.1-1.5-4.2-2.4-6.3l-7 5.8-14.2-2.3c1 1.8 1.9 3.6 2.8 5.5 0 .1.1.3.1.5z"/></g><path d="m247.6 289.2 124.8-62.4-190.6-95.2-124.8 62.4z" fill="#262626" opacity=".3"/><path d="m204.2 81.5c-11.9-6-22.7-6.4-30.3-2.3l-21.9 11c-7.4 3.9-12 12-12 23.5 0 23.3 18.9 51.7 42.3 63.4 12.8 6.4 24.3 6.4 32 1.3l17.8-8.9c8.8-3.3 14.4-11.9 14.4-24.6 0-23.4-18.9-51.8-42.3-63.4z" fill="#2d3134"/><path d="m224.5 155.9c0 23.3-18.9 32.8-42.3 21.1s-42.2-40-42.2-63.4 18.9-32.8 42.3-21.1 42.2 40 42.2 63.4z" opacity=".11"/><path d="m184.2 91.4c-12.7-6.4-24.1-6.4-31.8-1.4 7.3-2.4 16.7-1.4 27 3.8 23.3 11.7 42.3 40 42.3 63.4 0 10.6-3.9 18.4-10.4 22.6 9.3-3.1 15.3-11.8 15.3-24.9-.2-23.4-19.1-51.8-42.4-63.5z" fill="#fff" opacity=".1"/><path d="m203 145.1c0 11.4-9.3 16.1-20.7 10.4s-20.7-19.6-20.7-31.1 9.3-16.1 20.7-10.4c11.4 5.8 20.7 19.7 20.7 31.1z" fill="#28896d"/><path d="m201.3 144.3c0 10.5-8.5 14.8-19 9.5s-19-18-19-28.5 8.5-14.8 19-9.5 19 17.9 19 28.5z" fill="#28896d"/><path d="m201.3 144.3c0 10.5-8.5 14.8-19 9.5s-19-18-19-28.5 8.5-14.8 19-9.5 19 17.9 19 28.5z" fill="#28896d"/><path d="m201.3 144.3c0 10.5-8.5 14.8-19 9.5s-19-18-19-28.5 8.5-14.8 19-9.5 19 17.9 19 28.5z" opacity=".29"/><path d="m182.3 115.7c-10.5-5.3-19-1-19 9.5 0 5.7 2.5 12 6.4 17.5l26.8-13.4c-3.5-5.7-8.6-10.7-14.2-13.6z" opacity=".15"/><path d="m185.9 117.9-5 2.7c-2.3 1-4.2 2.8-4.2 6.2 0 5.7 4.6 12.7 10.4 15.5 2.7 1.3 5.1 1.5 6.9.8l6.8-3.3c-1.6-8.1-7.5-16.7-14.9-21.9z" fill="#28896d"/><path d="m185.9 117.9-5 2.7c-2.3 1-4.2 2.8-4.2 6.2 0 5.7 4.6 12.7 10.4 15.5 2.7 1.3 5.1 1.5 6.9.8l6.8-3.3c-1.6-8.1-7.5-16.7-14.9-21.9z" opacity=".29"/><path d="m213 121.1c7.2 11.1 11.6 23.6 11.6 34.8 0 10.5-3.9 18.2-10.2 22.4l17.8-8.9c8.8-3.3 14.4-11.9 14.4-24.6 0-11.2-4.4-23.6-11.5-34.7z" opacity=".29"/><path d="m197.5 137.1c0 5.7-4.6 8-10.4 5.2-5.7-2.9-10.4-9.8-10.4-15.5s4.6-8 10.4-5.2c5.7 2.9 10.4 9.8 10.4 15.5z" fill="#28896d"/><g opacity=".5"><path d="m188.8 126c0 .9-.8 1.3-1.7.8s-1.7-1.6-1.7-2.5.8-1.3 1.7-.8c1 .5 1.7 1.6 1.7 2.5z"/><path d="m188.8 139.6c0 .9-.8 1.3-1.7.8s-1.7-1.6-1.7-2.5.8-1.3 1.7-.8c1 .4 1.7 1.5 1.7 2.5z"/><path d="m183.5 124.2c.7 1 .7 2.1 0 2.4s-1.7-.2-2.4-1.2-.7-2.1 0-2.4 1.8.2 2.4 1.2z"/><path d="m193.1 138.5c.7 1 .7 2.1 0 2.4s-1.7-.2-2.4-1.2-.7-2.1 0-2.4 1.7.2 2.4 1.2z"/><path d="m180.4 126.9c.9.5 1.7 1.6 1.7 2.5s-.8 1.3-1.7.8-1.7-1.6-1.7-2.5.7-1.3 1.7-.8z"/><path d="m193.9 133.7c.9.5 1.7 1.6 1.7 2.5s-.8 1.3-1.7.8-1.7-1.6-1.7-2.5.7-1.3 1.7-.8z"/><path d="m181.1 132.6c.7-.3 1.7.2 2.4 1.2s.7 2.1 0 2.4-1.7-.2-2.4-1.2c-.6-1-.6-2.1 0-2.4z"/><path d="m190.7 127.8c.7-.3 1.7.2 2.4 1.2s.7 2.1 0 2.4-1.7-.2-2.4-1.2-.7-2.1 0-2.4z"/></g><path d="m182.3 92.5c-23.3-11.7-42.3-2.2-42.3 21.1s18.9 51.7 42.3 63.4c23.3 11.7 42.3 2.2 42.3-21.1s-19-51.7-42.3-63.4zm0 79.4c-20.5-10.3-37.2-35.2-37.2-55.8 0-20.5 16.6-28.9 37.2-18.6s37.2 35.2 37.2 55.8-16.7 28.9-37.2 18.6z" fill="#fff" opacity=".1"/><g opacity=".5"><path d="m179.2 94.3 6.8 3.4-3.4-5.1c-.1 0-.2-.1-.3-.2-2.1-1-4.1-1.9-6-2.6z"/><path d="m185.9 175.5-6.8-3.4 2.5 4.6c.2.1.4.2.6.3 2 1 4 1.8 5.9 2.5z"/><path d="m160.1 91.5 5.9-.5-4.6-3.5c-.1 0-.2 0-.3 0-1.8.1-3.4.4-5 .9z"/><path d="m204.9 177.8-5.9.5 3.9 3.6h.5c1.7-.1 3.4-.4 4.9-.9z"/><path d="m147 100.3 3.4-4.2-4.6-1.1c0 .1-.1.1-.2.2-1 1.3-1.9 2.7-2.6 4.1z"/><path d="m217.7 168.7-3.4 4.2 4.2 1.6.3-.3c1-1.2 1.9-2.6 2.6-4z"/><path d="m143.4 118.3v-6.8l-3.4 1.7v.3c0 2.1.2 4.1.4 6.3z"/><path d="m221.2 150.4v6.8l3.4-.8c0-.2 0-.4 0-.6 0-2-.1-4-.4-6.1z"/><path d="m150.2 140.7-3.4-7.5-1.2 4c0 .1.1.2.1.3 1 2.3 2.2 4.5 3.4 6.7z"/><path d="m214.1 128 3.4 7.5 1.7-3c-.1-.2-.2-.4-.3-.6-1-2.2-2.1-4.4-3.3-6.5z"/><path d="m165.5 161.5-5.9-6.3 1.2 5.2c.1.1.2.2.2.3 1.8 1.9 3.6 3.7 5.5 5.4z"/><path d="m198.5 107.3 5.9 6.3-.5-4.4c-.2-.2-.3-.4-.5-.5-1.7-1.9-3.5-3.6-5.3-5.2z"/></g><g opacity=".5"><path d="m175.6 78.4c-.6.2-1.1.5-1.7.8l-5.5 2.8-.6 1-11.7 5.5c1.6-.4 3.2-.8 5-.9h.3l11.7-5z"/><path d="m228 100.6c-1.3-1.5-2.6-3-4-4.4l-6.6 7.8-19.3-.7c1.8 1.6 3.6 3.4 5.3 5.2.2.2.3.4.5.5l16.9.4z"/><path d="m182.3 92.5c.1 0 .2.1.3.2l18.7-1.8 4.6-8.5c-.5-.3-1.1-.6-1.6-.8-1.2-.6-2.4-1.1-3.6-1.6l-4.3 7.5-20.1 2.6c1.9.5 3.9 1.4 6 2.4z"/><path d="m235.9 159.4 9.1-4.4c.7-2.3 1.2-4.8 1.3-7.5l-9.7 5.1-12.5-2.9c.3 2.1.4 4.1.4 6.1v.6z"/><path d="m221.4 170.1c-.7 1.4-1.6 2.8-2.6 4-.1.1-.2.2-.3.3l2.7.4 7.2-3.6z"/><path d="m219.2 132.5 16.3 3.4 8.3-7.3c-.8-2.5-1.8-5.1-2.9-7.6l-8.3 7-17-2.7c1.2 2.1 2.3 4.3 3.3 6.5.1.2.2.5.3.7z"/></g><path d="m191.2 64.8 42.1 21.1-26.6 13.3-42.2-21.1z" fill="#656565"/><path d="m255.3 121.4-22-35.5-42.1-21.1-16.2 4.2-26.5 13.3 16-4.2 42.2 21.1 22.1 35.6v15.2l26.6-13.3v-15.2z" fill="#28896d"/><path d="m191.2 64.8-16.2 4.2-26.5 13.3 16-4.2z" opacity=".29"/><path d="m255.3 121.4-22-35.5-26.6 13.3 22 35.5z" opacity=".1"/><path d="m255.4 121.5v15.2l-26.6 13.3v-15.2z" opacity=".29"/><path d="m338.8 229.2v-8.8l-44.8 22.4v8.8z" fill="#28896d"/><path d="m338.8 229.2v-8.8l-44.8 22.4v8.8z" opacity=".29"/><path d="m206 145 140 70-44.8 22.4-140-70z" fill="#2d3134"/><path d="m346 223.8v-8.8l-44.8 22.4v8.8z" fill="#28896d"/><path d="m346 223.8v-8.8l-44.8 22.4v8.8z" opacity=".29"/><path d="m161.2 185v-17.6l140 70v8.8l-7.2-3.4v8.8z" fill="#28896d"/><path d="m161.2 185v-17.6l140 70v8.8l-7.2-3.4v8.8z" opacity=".11"/><path d="m134 123v32l38 19 44-22v-13c0-11.6-6.6-22.3-17-27.5l-21-10.5z" fill="#28896d"/><path d="m172 174-38-19v-32l21 10.5c10.4 5.2 17 15.8 17 27.5z" opacity=".11"/><path d="m172 174 44-22v-13l-44 22z" opacity=".29"/><path d="m216.2 110.4-26.2-11c-4.5-2.3-7.4-6.9-7.4-12v-35.5c0-4.2.7-8-2.7-10.1-.2-.1-.4-.2-.6-.3-.4-.2-.8-.3-1.2-.2-.6 0-1.1.3-1.5.7l-43.5 21-.1.1c-.6.4-1.1 1.1-1.1 1.9v42.4c0 7.6 4.3 14.5 11.1 17.9l29.6 14.8c.4.2.8.3 1.3.2.6 0 1.1-.1 1.7-.4l42.4-21s2-1.1 2-2.5c0-2.4-1.5-4.8-3.8-6z" fill="#656565"/><path d="m138.6 109v-35.5c0-4.2.7-8-2.7-10.1-.2-.1-.4-.2-.6-.3-1.5-.8-3.3.3-3.3 2v42.4c0 7.6 4.3 14.5 11.1 17.9l29.6 14.8c1.5.8 3.3-.3 3.3-2 0-2.6-1.5-5-3.8-6.2l-26.2-11c-4.5-2.3-7.4-7-7.4-12z" opacity=".11"/><path d="m138.6 70.8v38.2l44-21.6v-38.1z" opacity=".29"/><path d="m216.2 110.4-.9-.4-43.3 21.9.2.1c1.8.9 3.1 2.6 3.6 4.5l43.8-22.2c-.6-1.6-1.8-3-3.4-3.9z" fill="#fff" opacity=".15"/><path d="m218 119.1s2-1.1 2-2.5c0-.6-.1-1.2-.2-1.8l-43.9 22.2c.1.4.1.8.1 1.2 0 1.2-1 2.2-2.1 2.3.6 0 1.1-.1 1.7-.4z" opacity=".29"/><path d="m239.4 84.8c-.9-1.9-3.3-2.5-7.5-2.1-5.3.6-12.7 2.9-20.2 6.4-6.3 2.9-12 6.2-16 9.3-4.7 3.6-6.4 6.6-5.5 8.9.9 1.9 3.3 2.5 7.5 2.1 5.3-.6 12.7-2.9 20.2-6.4 8.6-3.9 24-12.6 21.5-18.2zm-26.5 7c5.2-2.4 10.4-4.3 14.7-5.3l-12.5 7.6-10.6 2c2.5-1.4 5.3-2.9 8.4-4.3zm-19.9 14.3c-.1-.3.4-2 4.5-5.2.1-.1.3-.2.4-.3l15.3-2.9-1.8 4.9c-5.3 2.1-10.3 3.5-14 3.9-3.3.4-4.2-.2-4.4-.4zm23.7-5.8c-.6.3-1 .5-1.6.7l1.6-4.4 18.1-11.1c1.2.1 1.8.4 1.8.5.6 1.4-5.4 7.7-19.9 14.3z" fill="#2d3134"/><path d="m230.5 133.6c1.6-.6 2.7-1.8 2.3-2.6l-14.2-36.5c-.3-.8-1.9-1-3.5-.3-1.6.6-2.7 1.8-2.3 2.6l14.2 36.5c.4.8 2 1 3.5.3z" fill="#2d3134"/><path d="m229.4 130.7c1.6-.6 3.2-.5 3.5.3l-14.2-36.5c-.3-.8-1.9-1-3.5-.3-1.6.6-2.7 1.8-2.3 2.6l14.2 36.5c-.3-.8.6-2 2.3-2.6z" opacity=".2"/><path d="m126.2 120.7c-11.9-6-22.7-6.4-30.3-2.3l-21.9 11c-7.4 3.9-12 12-12 23.5 0 23.3 18.9 51.7 42.3 63.4 12.8 6.4 24.3 6.4 32 1.3l17.8-8.9c8.8-3.3 14.4-11.9 14.4-24.6-.1-23.4-19-51.8-42.3-63.4z" fill="#2d3134"/><path d="m146.5 195.1c0 23.3-18.9 32.8-42.3 21.1-23.3-11.7-42.3-40-42.3-63.4s18.9-32.8 42.3-21.1 42.3 40 42.3 63.4z" opacity=".11"/><path d="m106.1 130.6c-12.7-6.4-24.1-6.4-31.8-1.4 7.3-2.4 16.7-1.4 27 3.8 23.3 11.7 42.3 40 42.3 63.4 0 10.6-3.9 18.4-10.4 22.6 9.3-3.1 15.3-11.8 15.3-24.9-.1-23.4-19-51.8-42.4-63.5z" fill="#fff" opacity=".1"/><path d="m124.9 184.3c0 11.4-9.3 16.1-20.7 10.4s-20.7-19.6-20.7-31.1c0-11.4 9.3-16.1 20.7-10.4 11.4 5.8 20.7 19.7 20.7 31.1z" fill="#28896d"/><path d="m123.2 183.5c0 10.5-8.5 14.8-19 9.5s-19-18-19-28.5 8.5-14.8 19-9.5c10.5 5.2 19 17.9 19 28.5z" fill="#28896d"/><path d="m123.2 183.5c0 10.5-8.5 14.8-19 9.5s-19-18-19-28.5 8.5-14.8 19-9.5c10.5 5.2 19 17.9 19 28.5z" fill="#28896d"/><path d="m123.2 183.5c0 10.5-8.5 14.8-19 9.5s-19-18-19-28.5 8.5-14.8 19-9.5c10.5 5.2 19 17.9 19 28.5z" opacity=".29"/><path d="m104.2 154.9c-10.5-5.3-19-1-19 9.5 0 5.7 2.5 12 6.4 17.5l26.8-13.4c-3.4-5.7-8.5-10.7-14.2-13.6z" opacity=".15"/><path d="m107.9 157.1-5 2.7c-2.3 1-4.2 2.8-4.2 6.2 0 5.7 4.6 12.7 10.4 15.5 2.7 1.3 5.1 1.5 6.9.8l6.8-3.3c-1.7-8.1-7.5-16.7-14.9-21.9z" fill="#28896d"/><path d="m107.9 157.1-5 2.7c-2.3 1-4.2 2.8-4.2 6.2 0 5.7 4.6 12.7 10.4 15.5 2.7 1.3 5.1 1.5 6.9.8l6.8-3.3c-1.7-8.1-7.5-16.7-14.9-21.9z" opacity=".29"/><path d="m134.9 160.3c7.2 11.1 11.6 23.6 11.6 34.8 0 10.5-3.9 18.2-10.2 22.4l17.8-8.9c8.8-3.3 14.4-11.9 14.4-24.6 0-11.2-4.4-23.6-11.5-34.7z" opacity=".29"/><path d="m119.4 176.3c0 5.7-4.6 8-10.4 5.2-5.7-2.9-10.4-9.8-10.4-15.5s4.6-8 10.4-5.2c5.8 2.9 10.4 9.8 10.4 15.5z" fill="#28896d"/><g opacity=".5"><path d="m110.8 165.2c0 .9-.8 1.3-1.7.8s-1.7-1.6-1.7-2.5.8-1.3 1.7-.8 1.7 1.6 1.7 2.5z"/><path d="m110.8 178.8c0 .9-.8 1.3-1.7.8s-1.7-1.6-1.7-2.5.8-1.3 1.7-.8c.9.4 1.7 1.5 1.7 2.5z"/><path d="m105.5 163.4c.7 1 .7 2.1 0 2.4s-1.7-.2-2.4-1.2-.7-2.1 0-2.4 1.7.2 2.4 1.2z"/><path d="m115 177.7c.7 1 .7 2.1 0 2.4s-1.7-.2-2.4-1.2-.7-2.1 0-2.4 1.8.2 2.4 1.2z"/><path d="m102.3 166.1c.9.5 1.7 1.6 1.7 2.5s-.8 1.3-1.7.8-1.7-1.6-1.7-2.5.8-1.3 1.7-.8z"/><path d="m115.8 172.9c.9.5 1.7 1.6 1.7 2.5s-.8 1.3-1.7.8-1.7-1.6-1.7-2.5.8-1.3 1.7-.8z"/><path d="m103.1 171.8c.7-.3 1.7.2 2.4 1.2s.7 2.1 0 2.4-1.7-.2-2.4-1.2-.7-2.1 0-2.4z"/><path d="m112.7 167c.7-.3 1.7.2 2.4 1.2s.7 2.1 0 2.4-1.7-.2-2.4-1.2-.7-2.1 0-2.4z"/></g><path d="m104.2 131.7c-23.3-11.7-42.2-2.2-42.2 21.1s18.9 51.7 42.3 63.4c23.3 11.7 42.3 2.2 42.3-21.1s-19-51.7-42.4-63.4zm0 79.4c-20.5-10.2-37.2-35.2-37.2-55.7s16.6-28.9 37.2-18.6 37.2 35.2 37.2 55.8-16.6 28.8-37.2 18.5z" fill="#fff" opacity=".1"/><g opacity=".5"><path d="m101.1 133.5 6.8 3.4-3.4-5.1c-.1 0-.2-.1-.3-.2-2.1-1-4.1-1.9-6-2.6z"/><path d="m107.9 214.7-6.8-3.4 2.5 4.6c.2.1.4.2.6.3 2 1 4 1.8 5.9 2.5z"/><path d="m82.1 130.7 5.9-.5-4.6-3.5c-.1 0-.2 0-.3 0-1.8.1-3.4.4-5 .9z"/><path d="m126.8 217-5.9.5 3.9 3.6h.5c1.7-.1 3.4-.4 4.9-.9z"/><path d="m68.9 139.5 3.4-4.2-4.6-1.1c0 .1-.1.1-.2.2-1 1.3-1.9 2.7-2.6 4.1z"/><path d="m139.7 207.9-3.4 4.2 4.2 1.6c.1-.1.2-.2.3-.3 1-1.2 1.9-2.6 2.6-4z"/><path d="m65.4 157.5v-6.8l-3.4 1.7v.3c0 2.1.2 4.1.4 6.3z"/><path d="m143.2 189.6v6.8l3.4-.8c0-.2 0-.4 0-.6 0-2-.1-4-.4-6.1z"/><path d="m72.1 179.9-3.4-7.5-1.2 4c0 .1.1.2.1.3 1 2.3 2.2 4.5 3.4 6.7z"/><path d="m136.1 167.2 3.4 7.5 1.7-3c-.1-.2-.2-.4-.3-.6-1-2.2-2.1-4.4-3.3-6.5z"/><path d="m87.5 200.7-5.9-6.3 1.2 5.2c.1.1.2.2.2.3 1.8 1.9 3.6 3.7 5.5 5.4z"/><path d="m120.5 146.5 5.9 6.3-.5-4.4c-.2-.2-.3-.4-.5-.5-1.7-1.9-3.5-3.6-5.3-5.2z"/></g><g opacity=".5"><path d="m97.5 117.6c-.6.2-1.1.5-1.7.8l-5.5 2.8-.6 1-11.7 5.5c1.6-.4 3.2-.8 5-.9h.3l11.7-5z"/><path d="m149.9 139.8c-1.3-1.5-2.6-3-4-4.4l-6.6 7.8-19.3-.7c1.8 1.6 3.6 3.4 5.3 5.2.2.2.3.4.5.5l16.9.4z"/><path d="m104.2 131.7c.1 0 .2.1.3.2l18.7-1.8 4.6-8.5c-.5-.3-1.1-.6-1.6-.8-1.2-.6-2.4-1.1-3.6-1.6l-4.3 7.5-20.1 2.6c1.9.5 4 1.4 6 2.4z"/><path d="m157.9 198.6 9.1-4.4c.7-2.3 1.2-4.8 1.3-7.5l-9.7 5.1-12.5-2.9c.3 2.1.4 4.1.4 6.1v.6z"/><path d="m143.3 209.3c-.7 1.4-1.6 2.8-2.6 4-.1.1-.2.2-.3.3l2.7.4 7.2-3.6z"/><path d="m141.1 171.7 16.3 3.4 8.3-7.3c-.8-2.5-1.8-5.1-2.9-7.6l-8.3 7-17-2.7c1.2 2.1 2.3 4.3 3.3 6.5.1.2.2.5.3.7z"/></g><path d="m113.1 104 42.2 21.1-26.6 13.3-42.2-21.1z" fill="#656565"/><path d="m177.3 160.6-22-35.5-42.2-21.1-16.1 4.2-26.6 13.3 16.1-4.2 42.2 21.1 22.1 35.6v24l26.6-13.3v-24z" fill="#28896d"/><path d="m113.1 104-16.1 4.2-26.6 13.3 16.1-4.2z" opacity=".29"/><path d="m177.3 160.6-22-35.5-26.6 13.3 21.9 35.5z" opacity=".1"/><path d="m177.4 160.7v24l-26.6 13.3v-24z" opacity=".29"/><path d="m168.2 191-8 4v23l3.2 1.6 3.2-1.6 4.8-25.4z" fill="#656565"/><path d="m160.2 195 3.2 1.6v23l-3.2-1.6z" opacity=".11"/><path d="m171.4 192.6-8 4v23l3.2-1.6z" opacity=".29"/><path d="m168.2 209-4.8 2.4v3.2l20.4 9.8 1.6-7.2z" fill="#656565"/><path d="m163.4 211.4v3.2l20.4 9.8v-3.2z" opacity=".11"/><path d="m191.8 202.4-8 4v23l3.2 1.6 3.2-1.6 4.8-25.4z" fill="#656565"/><path d="m183.8 206.4 3.2 1.6v23l-3.2-1.6z" opacity=".11"/><path d="m195 204-8 4v23l3.2-1.6z" opacity=".29"/><path d="m209.2 134.8 44.8-22.4 65.6 40.4c11.9 7.2 19.2 20.1 19.2 34v24.8l-44.8 22.4-84.8-42.4z" fill="#28896d"/><g fill="#2d3134"><path d="m288.1 191-6.1-3c-2.6-1.3-5.6.6-5.6 3.5v20.5c0 4.2 2.4 8.1 6.2 9.9l8.6 4.3c1.8.9 3.9.9 5.7 0l41.9-21v-18.4c0-5.8-1.3-11.5-3.7-16.6l-41.5 20.8c-1.7.9-3.8.9-5.5 0z"/><path d="m220.4 157.2v1.6l25.6 12.8v-1.6z"/><path d="m220.4 161.2v1.6l25.6 12.8v-1.6z"/><path d="m220.4 165.2v1.6l25.6 12.8v-1.6z"/><path d="m220.4 169.2v1.6l25.6 12.8v-1.6z"/><path d="m220.4 173.2v1.6l25.6 12.8v-1.6z"/></g><path d="m209.2 191.6v-56.8l65.6 40.4c11.9 7.2 19.2 20.1 19.2 34v24.8z" opacity=".11"/><path d="m209.2 191.6v-56.8l65.6 40.4c11.9 7.2 19.2 20.1 19.2 34v24.8z" opacity=".11"/><path d="m310 204.7v-4c0-1.6-1.7-2.7-3.1-1.9l-10.1 5c-.7.4-1.2 1.1-1.2 1.9v4c0 1.6 1.7 2.7 3.1 1.9l10.1-5c.7-.4 1.2-1.1 1.2-1.9z" fill="#fff"/><ellipse cx="305.4" cy="203.9" fill="#2d3134" opacity=".3" rx="3.9" ry="2.6" transform="matrix(-.6313 .7756 -.7756 -.6313 656.2858 95.7785)"/><ellipse cx="300.4" cy="206.3" fill="#2d3134" opacity=".3" rx="3.9" ry="2.6" transform="matrix(-.6313 .7756 -.7756 -.6313 650.0065 103.5639)"/><path d="m309.6 206-13.5-1.5c-.3.4-.4.8-.4 1.3v4c0 1.6 1.7 2.6 3.1 1.9l10.1-5c.2-.3.5-.5.7-.7z" fill="#fff" opacity=".3"/><path d="m337.2 191.1v-4c0-1.6-1.7-2.7-3.1-1.9l-10.1 5c-.7.4-1.2 1.1-1.2 1.9v4c0 1.6 1.7 2.7 3.1 1.9l10.1-5c.7-.4 1.2-1.1 1.2-1.9z" fill="#fff"/><ellipse cx="332.6" cy="190.3" fill="#2d3134" opacity=".3" rx="3.9" ry="2.6" transform="matrix(-.6313 .7756 -.7756 -.6313 690.1089 52.498)"/><ellipse cx="327.6" cy="192.7" fill="#2d3134" opacity=".3" rx="3.9" ry="2.6" transform="matrix(-.6313 .7756 -.7756 -.6313 683.8296 60.2834)"/><path d="m336.8 192.4-13.5-1.5c-.3.4-.4.8-.4 1.3v4c0 1.6 1.7 2.7 3.1 1.9l10.1-5c.2-.3.5-.5.7-.7z" fill="#fff" opacity=".3"/><path d="m335.1 170.2-44.3 22.2-.7-.4c2.5 5.3 3.9 11.2 3.9 17.2v24.8l44.8-22.4v-24.8c0-5.8-1.3-11.4-3.7-16.6z" opacity=".29"/><path d="m328 163.5-39.4 19.1c-1.7.8-2.3 3-1.2 4.6v.1c.9 1.3 2.5 1.7 3.9 1l39.4-19.1c1.7-.8 2.3-3 1.3-4.5 0 0 0 0 0-.1-.9-1.3-2.6-1.8-4-1.1z" fill="#fff" opacity=".1"/><path d="m213.4 129.8c-3.5 0-6.4 1.4-6.4 3.2v41.6c0 1.8 2.9 3.2 6.4 3.2s6.4-1.4 6.4-3.2v-41.6c0-1.8-2.9-3.2-6.4-3.2z" fill="#2d3134"/><ellipse cx="213.4" cy="133" opacity=".8" rx="4.8" ry="2"/><path d="m224.9 190.8c0-1.1-.9-2.4-1.9-2.9-.7-.3-1.3-.3-1.6.1-1.2.4-2.5.3-3.6-.4-1.3-.8-2-2.1-2-3.6v-65.4h-4.8v65.4c0 3.2 1.6 6 4.3 7.7 1.5.9 3.1 1.4 4.7 1.4 1.4 0 2.8-.3 4-1 .1-.1.9-.6.9-1.3z" fill="#2d3134"/><path d="m215.8 130v1.2c1.4.3 2.4 1 2.4 1.7 0 1.1-2.1 2-4.8 2s-4.8-.9-4.8-2c0-.7 1-1.4 2.4-1.7v-1.2c-2.3.5-4 1.6-4 3v41.6c0 1.8 2.9 3.2 6.4 3.2s6.4-1.4 6.4-3.2v-41.6c0-1.3-1.7-2.5-4-3z" fill="#2d3134"/><path d="m213.4 136.2c-3.5 0-6.4-1.4-6.4-3.2v41.6c0 1.8 2.9 3.2 6.4 3.2s6.4-1.4 6.4-3.2v-41.6c0 1.8-2.9 3.2-6.4 3.2z" opacity=".2"/><ellipse cx="213.4" cy="118.6" fill="#2d3134" rx="2.4" ry="1.6"/><path d="m156 190.1v2.9l42 21 14-7.1v-2.9l-42-21z" fill="#656565"/><path d="m198 214-42-21v-2.9l42 21z" opacity=".11"/><path d="m198 214 14-7.1v-2.9l-14 7.1z" opacity=".29"/><path d="m240.5 192.3c-10-5-19-5.4-25.4-1.9l-18.4 9.2c-6.2 3.3-10 10.1-10 19.6 0 19.5 15.8 43.3 35.4 53 10.7 5.4 20.3 5.4 26.8 1.1l14.9-7.5c7.4-2.8 12-10 12-20.6.1-19.4-15.7-43.2-35.3-52.9z" fill="#2d3134"/><path d="m257.5 254.5c0 19.5-15.8 27.4-35.4 17.7s-35.4-33.5-35.4-53 15.8-27.4 35.4-17.7c19.6 9.8 35.4 33.5 35.4 53z" opacity=".11"/><path d="m223.8 200.6c-10.6-5.3-20.2-5.4-26.6-1.2 6.1-2 14-1.2 22.6 3.1 19.5 9.8 35.4 33.5 35.4 53 0 8.9-3.3 15.4-8.7 18.9 7.8-2.6 12.8-9.9 12.8-20.8-.2-19.5-16-43.2-35.5-53z" fill="#fff" opacity=".1"/><path d="m239.5 245.5c0 9.6-7.8 13.4-17.3 8.7s-17.3-16.4-17.3-26 7.8-13.4 17.3-8.7c9.5 4.8 17.3 16.4 17.3 26z" fill="#28896d"/><path d="m238.1 244.8c0 8.8-7.1 12.4-15.9 8s-15.9-15.1-15.9-23.9 7.1-12.4 15.9-8c8.7 4.4 15.9 15.1 15.9 23.9z" fill="#28896d"/><path d="m238.1 244.8c0 8.8-7.1 12.4-15.9 8s-15.9-15.1-15.9-23.9 7.1-12.4 15.9-8c8.7 4.4 15.9 15.1 15.9 23.9z" fill="#28896d"/><path d="m238.1 244.8c0 8.8-7.1 12.4-15.9 8s-15.9-15.1-15.9-23.9 7.1-12.4 15.9-8c8.7 4.4 15.9 15.1 15.9 23.9z" opacity=".29"/><path d="m222.2 220.9c-8.8-4.4-15.9-.8-15.9 8 0 4.8 2.1 10.1 5.4 14.6l22.5-11.2c-3-4.8-7.3-9-12-11.4z" opacity=".15"/><path d="m225.2 222.8-4.2 2.2c-1.9.9-3.5 2.3-3.5 5.2 0 4.8 3.9 10.6 8.7 13 2.2 1.1 4.2 1.3 5.8.7l5.7-2.7c-1.4-6.9-6.3-14.1-12.5-18.4z" fill="#28896d"/><path d="m225.2 222.8-4.2 2.2c-1.9.9-3.5 2.3-3.5 5.2 0 4.8 3.9 10.6 8.7 13 2.2 1.1 4.2 1.3 5.8.7l5.7-2.7c-1.4-6.9-6.3-14.1-12.5-18.4z" opacity=".29"/><path d="m247.9 225.4c6 9.3 9.7 19.7 9.7 29.1 0 8.8-3.2 15.2-8.6 18.8l14.9-7.5c7.4-2.8 12-10 12-20.6 0-9.4-3.7-19.7-9.6-29.1z" opacity=".29"/><path d="m234.9 238.9c0 4.8-3.9 6.7-8.7 4.3s-8.7-8.2-8.7-13 3.9-6.7 8.7-4.3 8.7 8.2 8.7 13z" fill="#28896d"/><g opacity=".5"><path d="m227.6 229.6c0 .8-.6 1.1-1.4.7s-1.4-1.3-1.4-2.1.6-1.1 1.4-.7c.8.3 1.4 1.3 1.4 2.1z"/><path d="m227.6 240.9c0 .8-.6 1.1-1.4.7s-1.4-1.3-1.4-2.1.6-1.1 1.4-.7 1.4 1.3 1.4 2.1z"/><path d="m223.2 228c.6.8.6 1.7 0 2s-1.4-.2-2-1-.6-1.7 0-2c.6-.2 1.5.2 2 1z"/><path d="m231.2 240c.6.8.6 1.7 0 2s-1.4-.2-2-1-.6-1.7 0-2c.6-.2 1.5.2 2 1z"/><path d="m220.6 230.3c.8.4 1.4 1.3 1.4 2.1s-.6 1.1-1.4.7-1.4-1.3-1.4-2.1.6-1.1 1.4-.7z"/><path d="m231.9 235.9c.8.4 1.4 1.3 1.4 2.1s-.6 1.1-1.4.7-1.4-1.3-1.4-2.1c0-.7.6-1 1.4-.7z"/><path d="m221.2 235c.6-.3 1.4.2 2 1s.6 1.7 0 2-1.4-.2-2-1-.5-1.7 0-2z"/><path d="m229.2 231c.6-.3 1.4.2 2 1s.6 1.7 0 2-1.4-.2-2-1c-.5-.8-.5-1.7 0-2z"/></g><path d="m222.2 201.5c-19.5-9.8-35.4-1.8-35.4 17.7s15.8 43.3 35.4 53c19.5 9.8 35.4 1.8 35.4-17.7s-15.9-43.2-35.4-53zm0 66.5c-17.2-8.6-31.1-29.5-31.1-46.7s13.9-24.2 31.1-15.6 31.1 29.5 31.1 46.7-14 24.2-31.1 15.6z" fill="#fff" opacity=".1"/><g opacity=".5"><path d="m219.6 203 5.7 2.8-2.8-4.2c-.1 0-.2-.1-.2-.1-1.7-.9-3.4-1.6-5.1-2.2z"/><path d="m225.2 270.9-5.7-2.8 2.1 3.9c.2.1.3.2.5.3 1.7.8 3.3 1.5 4.9 2.1z"/><path d="m203.6 200.7 4.9-.4-3.9-3c-.1 0-.1 0-.2 0-1.5.1-2.9.4-4.2.7z"/><path d="m241.1 272.9-4.9.4 3.2 3h.4c1.4-.1 2.8-.4 4.1-.7z"/><path d="m192.6 208 2.8-3.5-3.9-.9s-.1.1-.1.1c-.9 1.1-1.6 2.2-2.2 3.5z"/><path d="m251.8 265.2-2.8 3.5 3.5 1.3.3-.3c.8-1 1.5-2.2 2.2-3.4z"/><path d="m189.7 223.1v-5.7l-2.8 1.4v.2c0 1.7.1 3.5.4 5.2z"/><path d="m254.7 250v5.7l2.8-.7c0-.2 0-.3 0-.5 0-1.7-.1-3.4-.3-5.1z"/><path d="m195.3 241.9-2.8-6.3-1 3.3c0 .1.1.2.1.3.9 1.9 1.8 3.8 2.8 5.6z"/><path d="m248.8 231.2 2.8 6.3 1.4-2.5c-.1-.2-.1-.4-.2-.5-.8-1.9-1.8-3.7-2.8-5.5z"/><path d="m208.1 259.3-4.9-5.3 1 4.4c.1.1.1.2.2.2 1.5 1.6 3 3.1 4.6 4.5z"/><path d="m235.8 213.9 4.9 5.3-.4-3.7c-.1-.2-.3-.3-.4-.5-1.4-1.6-2.9-3-4.4-4.4z"/></g><g opacity=".5"><path d="m216.6 189.7c-.5.2-.9.4-1.4.7l-4.6 2.3-.5.9-9.8 4.6c1.3-.4 2.7-.6 4.2-.7h.2l9.8-4.2z"/><path d="m260.4 208.3c-1.1-1.3-2.2-2.5-3.3-3.7l-5.6 6.6-16.1-.6c1.5 1.4 3 2.8 4.4 4.4.1.2.3.3.4.5l14.2.3z"/><path d="m222.2 201.5c.1 0 .2.1.2.1l15.7-1.5 3.8-7.1c-.4-.2-.9-.5-1.3-.7-1-.5-2-.9-3-1.4l-3.6 6.3-16.8 2.2c1.6.5 3.2 1.2 5 2.1z"/><path d="m267.1 257.5 7.6-3.7c.6-1.9 1-4 1.1-6.3l-8.1 4.3-10.5-2.4c.2 1.7.3 3.4.3 5.1v.5z"/><path d="m254.9 266.4c-.6 1.2-1.3 2.3-2.2 3.4-.1.1-.2.2-.3.3l2.3.3 6.1-3z"/><path d="m253 235 13.7 2.9 7-6.1c-.7-2.1-1.5-4.2-2.4-6.3l-7 5.8-14.2-2.3c1 1.8 1.9 3.6 2.8 5.5 0 .1.1.3.1.5z"/></g></svg>