<svg xmlns:xlink="http://www.w3.org/1999/xlink"  enable-background="new 0 0 400 240" height="240" viewBox="0 0 400 240" width="400" xmlns="http://www.w3.org/2000/svg"><path d="m174.3 44.4c-10-5-19-5.4-25.4-1.9l-18.4 9.2c-6.2 3.3-10 10.1-10 19.6 0 19.5 15.8 43.3 35.4 53 10.7 5.4 20.3 5.4 26.8 1.1l14.9-7.5c7.4-2.8 12-10 12-20.6 0-19.4-15.8-43.2-35.3-52.9z" fill="#2d3134"/><path d="m191.3 106.6c0 19.5-15.8 27.4-35.4 17.7s-35.4-33.5-35.4-53 15.8-27.4 35.4-17.7 35.4 33.5 35.4 53z" opacity=".11"/><path d="m157.5 52.7c-10.6-5.3-20.2-5.4-26.6-1.2 6.1-2 14-1.2 22.6 3.1 19.5 9.8 35.4 33.5 35.4 53 0 8.9-3.3 15.4-8.7 18.9 7.8-2.6 12.8-9.9 12.8-20.8-.2-19.5-16-43.2-35.5-53z" fill="#fff" opacity=".1"/><path d="m173.2 97.6c0 9.6-7.8 13.4-17.3 8.7-9.6-4.8-17.3-16.4-17.3-26s7.8-13.4 17.3-8.7c9.6 4.8 17.3 16.4 17.3 26z" fill="#28896d"/><path d="m171.8 96.9c0 8.8-7.1 12.4-15.9 8s-15.9-15.1-15.9-23.9 7.1-12.4 15.9-8 15.9 15.1 15.9 23.9z" fill="#28896d"/><path d="m171.8 96.9c0 8.8-7.1 12.4-15.9 8s-15.9-15.1-15.9-23.9 7.1-12.4 15.9-8 15.9 15.1 15.9 23.9z" fill="#28896d"/><path d="m171.8 96.9c0 8.8-7.1 12.4-15.9 8s-15.9-15.1-15.9-23.9 7.1-12.4 15.9-8 15.9 15.1 15.9 23.9z" opacity=".29"/><path d="m155.9 73c-8.8-4.4-15.9-.8-15.9 8 0 4.8 2.1 10.1 5.4 14.6l22.5-11.2c-3-4.8-7.3-9-12-11.4z" opacity=".15"/><path d="m159 74.9-4.2 2.2c-1.9.9-3.5 2.3-3.5 5.2 0 4.8 3.9 10.6 8.7 13 2.2 1.1 4.2 1.3 5.8.7l5.7-2.7c-1.5-6.9-6.4-14.1-12.5-18.4z" fill="#28896d"/><path d="m159 74.9-4.2 2.2c-1.9.9-3.5 2.3-3.5 5.2 0 4.8 3.9 10.6 8.7 13 2.2 1.1 4.2 1.3 5.8.7l5.7-2.7c-1.5-6.9-6.4-14.1-12.5-18.4z" opacity=".29"/><path d="m181.6 77.5c6 9.3 9.7 19.7 9.7 29.1 0 8.8-3.2 15.2-8.6 18.8l14.9-7.5c7.4-2.8 12-10 12-20.6 0-9.4-3.7-19.7-9.6-29.1z" opacity=".29"/><path d="m168.6 91c0 4.8-3.9 6.7-8.7 4.3s-8.7-8.2-8.7-13 3.9-6.7 8.7-4.3 8.7 8.2 8.7 13z" fill="#28896d"/><g opacity=".5"><path d="m161.4 81.7c0 .8-.6 1.1-1.4.7s-1.4-1.3-1.4-2.1.6-1.1 1.4-.7c.7.3 1.4 1.3 1.4 2.1z"/><path d="m161.4 93c0 .8-.6 1.1-1.4.7s-1.4-1.3-1.4-2.1.6-1.1 1.4-.7c.7.4 1.4 1.3 1.4 2.1z"/><path d="m157 80.1c.6.8.6 1.7 0 2s-1.4-.2-2-1-.6-1.7 0-2c.5-.2 1.4.2 2 1z"/><path d="m165 92.1c.6.8.6 1.7 0 2s-1.4-.2-2-1-.6-1.7 0-2c.5-.2 1.4.2 2 1z"/><path d="m154.3 82.4c.8.4 1.4 1.3 1.4 2.1s-.6 1.1-1.4.7-1.4-1.3-1.4-2.1.6-1.1 1.4-.7z"/><path d="m165.6 88c.8.4 1.4 1.3 1.4 2.1s-.6 1.1-1.4.7-1.4-1.3-1.4-2.1.6-1 1.4-.7z"/><path d="m155 87.1c.6-.3 1.4.2 2 1s.6 1.7 0 2-1.4-.2-2-1-.6-1.7 0-2z"/><path d="m163 83.1c.6-.3 1.4.2 2 1s.6 1.7 0 2-1.4-.2-2-1-.6-1.7 0-2z"/></g><path d="m155.9 53.6c-19.5-9.8-35.4-1.8-35.4 17.7s15.8 43.3 35.4 53 35.4 1.8 35.4-17.7-15.9-43.2-35.4-53zm0 66.5c-17.2-8.6-31.1-29.5-31.1-46.7s13.9-24.2 31.1-15.6 31.1 29.5 31.1 46.7-13.9 24.2-31.1 15.6z" fill="#fff" opacity=".1"/><g opacity=".5"><path d="m153.3 55.1 5.7 2.9-2.8-4.2c-.1 0-.2-.1-.2-.1-1.7-.9-3.4-1.6-5.1-2.2z"/><path d="m159 123-5.7-2.8 2.1 3.9c.2.1.3.2.5.3 1.7.8 3.3 1.5 4.9 2.1z"/><path d="m137.4 52.8 4.9-.4-3.9-3c-.1 0-.1 0-.2 0-1.5.1-2.9.4-4.2.7z"/><path d="m174.8 125-4.9.4 3.2 3h.4c1.4-.1 2.8-.4 4.1-.7z"/><path d="m126.4 60.1 2.8-3.5-3.9-.9s-.1.1-.1.1c-.9 1.1-1.6 2.2-2.2 3.5z"/><path d="m185.6 117.3-2.8 3.5 3.5 1.3c.1-.1.2-.2.3-.3.8-1 1.5-2.2 2.2-3.4z"/><path d="m123.4 75.2v-5.7l-2.8 1.4v.2c0 1.7.1 3.5.4 5.2z"/><path d="m188.5 102.1v5.7l2.8-.7c0-.2 0-.3 0-.5 0-1.7-.1-3.4-.3-5.1z"/><path d="m129 94-2.8-6.3-1 3.3c0 .1.1.2.1.3.9 1.9 1.8 3.8 2.8 5.6z"/><path d="m182.6 83.3 2.8 6.3 1.4-2.5c-.1-.2-.1-.4-.2-.5-.8-1.9-1.8-3.7-2.8-5.5z"/><path d="m141.9 111.4-4.9-5.3 1 4.4c.1.1.1.2.2.2 1.5 1.6 3 3.1 4.6 4.5z"/><path d="m169.5 66 4.9 5.3-.4-3.7c-.1-.2-.3-.3-.4-.5-1.4-1.6-2.9-3-4.4-4.4z"/></g><g opacity=".5"><path d="m150.3 41.8c-.5.2-.9.4-1.4.7l-4.6 2.3-.5.9-9.8 4.6c1.3-.4 2.7-.6 4.2-.7h.2l9.8-4.2z"/><path d="m194.2 60.4c-1.1-1.3-2.2-2.5-3.3-3.7l-5.6 6.6-16.1-.6c1.5 1.4 3 2.8 4.4 4.4.1.2.3.3.4.5l14.2.3z"/><path d="m155.9 53.6c.1 0 .2.1.2.1l15.7-1.5 3.8-7.1c-.4-.2-.9-.5-1.3-.7-1-.5-2-.9-3-1.4l-3.6 6.3-16.8 2.2c1.6.5 3.3 1.2 5 2.1z"/><path d="m200.8 109.6 7.6-3.7c.6-1.9 1-4 1.1-6.3l-8.1 4.3-10.5-2.4c.2 1.7.3 3.4.3 5.1v.5z"/><path d="m188.6 118.5c-.6 1.2-1.3 2.3-2.2 3.4-.1.1-.2.2-.3.3l2.3.3 6.1-3z"/><path d="m186.8 87.1 13.7 2.9 7-6.1c-.7-2.1-1.5-4.2-2.4-6.3l-7 5.8-14.3-2.4c1 1.8 1.9 3.6 2.8 5.5 0 .2.1.4.2.6z"/></g><path d="m190.4 32.5c-3.5 0-6.4 1.4-6.4 3.2v41.6c0 1.8 2.9 3.2 6.4 3.2s6.4-1.4 6.4-3.2v-41.6c0-1.8-2.9-3.2-6.4-3.2z" fill="#2d3134"/><ellipse cx="190.4" cy="35.7" opacity=".8" rx="4.8" ry="2"/><path d="m201.9 93.5c0-1.1-.9-2.4-1.9-2.9-.7-.3-1.3-.3-1.6.1-1.2.4-2.5.3-3.6-.4-1.3-.8-2-2.1-2-3.6v-65.4h-4.8v65.4c0 3.2 1.6 6 4.3 7.7 1.5.9 3.1 1.4 4.7 1.4 1.4 0 2.8-.3 4-1 .1-.1.9-.6.9-1.3z" fill="#2d3134"/><path d="m192.8 32.7v1.2c1.4.3 2.4 1 2.4 1.7 0 1.1-2.1 2-4.8 2s-4.8-.9-4.8-2c0-.7 1-1.4 2.4-1.7v-1.2c-2.3.5-4 1.6-4 3v41.6c0 1.8 2.9 3.2 6.4 3.2s6.4-1.4 6.4-3.2v-41.6c0-1.4-1.7-2.5-4-3z" fill="#2d3134"/><path d="m190.4 38.9c-3.5 0-6.4-1.4-6.4-3.2v41.6c0 1.8 2.9 3.2 6.4 3.2s6.4-1.4 6.4-3.2v-41.6c0 1.7-2.9 3.2-6.4 3.2z" opacity=".2"/><ellipse cx="190.4" cy="21.3" fill="#2d3134" rx="2.4" ry="1.6"/><path d="m218.2 235 124.8-62.4-185.2-93-124.8 62.4z" fill="#262626" opacity=".3"/><path d="m255.2 78.1v31l-32.2 8.1 5.3-26.1 27.1-13.2" fill="#28896d"/><path d="m255.2 78.1v31l-32.2 8.1 5.3-26.1 27.1-13.2" opacity=".29"/><path d="m293.9 86.1c-11.9-6-22.7-6.4-30.3-2.3l-21.9 11c-7.4 3.9-12 12-12 23.5 0 23.3 18.9 51.7 42.3 63.4 12.8 6.4 24.3 6.4 32 1.3l17.8-8.9c8.8-3.3 14.4-11.9 14.4-24.6-.1-23.4-19-51.8-42.3-63.4z" fill="#2d3134"/><path d="m314.2 160.5c0 23.3-18.9 32.8-42.3 21.1-23.3-11.7-42.3-40-42.3-63.4s18.9-32.8 42.3-21.1 42.3 40 42.3 63.4z" opacity=".11"/><path d="m273.8 96c-12.7-6.4-24.1-6.4-31.8-1.4 7.3-2.4 16.7-1.4 27 3.8 23.3 11.7 42.3 40 42.3 63.4 0 10.6-3.9 18.4-10.4 22.6 9.3-3.1 15.3-11.8 15.3-24.9-.1-23.4-19.1-51.8-42.4-63.5z" fill="#fff" opacity=".1"/><path d="m292.6 149.7c0 11.4-9.3 16.1-20.7 10.4s-20.7-19.6-20.7-31.1 9.3-16.1 20.7-10.4c11.4 5.8 20.7 19.7 20.7 31.1z" fill="#28896d"/><path d="m290.9 148.9c0 10.5-8.5 14.8-19 9.5s-19-18-19-28.5 8.5-14.8 19-9.5 19 17.9 19 28.5z" fill="#28896d"/><path d="m290.9 148.9c0 10.5-8.5 14.8-19 9.5s-19-18-19-28.5 8.5-14.8 19-9.5 19 17.9 19 28.5z" fill="#28896d"/><path d="m290.9 148.9c0 10.5-8.5 14.8-19 9.5s-19-18-19-28.5 8.5-14.8 19-9.5 19 17.9 19 28.5z" opacity=".29"/><path d="m271.9 120.3c-10.5-5.3-19-1-19 9.5 0 5.7 2.5 12 6.4 17.5l26.8-13.4c-3.4-5.7-8.5-10.7-14.2-13.6z" opacity=".15"/><path d="m302.6 125.7c7.2 11.1 11.6 23.6 11.6 34.8 0 10.5-3.9 18.2-10.2 22.4l17.8-8.9c8.8-3.3 14.4-11.9 14.4-24.6 0-11.2-4.4-23.6-11.5-34.7z" opacity=".29"/><path d="m271.9 97.1c-23.3-11.7-42.3-2.2-42.3 21.1s18.9 51.7 42.3 63.4c23.3 11.7 42.3 2.2 42.3-21.1s-19-51.7-42.3-63.4zm0 79.4c-20.5-10.3-37.2-35.2-37.2-55.8 0-20.5 16.6-28.9 37.2-18.6s37.2 35.2 37.2 55.8-16.7 28.9-37.2 18.6z" fill="#fff" opacity=".1"/><g opacity=".5"><path d="m268.8 98.9 6.8 3.4-3.4-5.1c-.1 0-.2-.1-.3-.2-2.1-1-4.1-1.9-6-2.6z"/><path d="m275.6 180.1-6.8-3.4 2.5 4.6.6.3c2 1 4 1.8 5.9 2.5z"/><path d="m249.8 96.1 5.9-.5-4.6-3.5c-.1 0-.2 0-.3 0-1.8.1-3.4.4-5 .9z"/><path d="m294.5 182.4-5.9.5 3.9 3.6h.5c1.7-.1 3.4-.4 4.9-.9z"/><path d="m236.6 104.9 3.4-4.2-4.6-1.1c0 .1-.1.1-.2.2-1 1.3-1.9 2.7-2.6 4.1z"/><path d="m307.3 173.3-3.4 4.2 4.2 1.6c.1-.1.2-.2.3-.3 1-1.2 1.9-2.6 2.6-4z"/><path d="m233.1 122.9v-6.8l-3.4 1.7v.3c0 2.1.2 4.1.4 6.3z"/><path d="m310.8 155v6.8l3.4-.8c0-.2 0-.4 0-.6 0-2-.1-4-.4-6.1z"/><path d="m239.8 145.3-3.4-7.5-1.2 4c0 .1.1.2.1.3 1 2.3 2.2 4.5 3.4 6.7z"/><path d="m303.8 132.6 3.4 7.5 1.7-3c-.1-.2-.2-.4-.3-.6-1-2.2-2.1-4.4-3.3-6.5z"/><path d="m255.1 166.1-5.9-6.3 1.2 5.2c.1.1.2.2.2.3 1.8 1.9 3.6 3.7 5.5 5.4z"/><path d="m288.2 111.9 5.9 6.3-.5-4.4c-.2-.2-.3-.4-.5-.5-1.7-1.9-3.5-3.6-5.3-5.2z"/></g><g opacity=".5"><path d="m265.2 83c-.6.2-1.1.5-1.7.8l-5.5 2.8-.6 1-11.7 5.4c1.6-.4 3.2-.8 5-.9h.3l11.7-5z"/><path d="m317.6 105.2c-1.3-1.5-2.6-3-4-4.4l-6.6 7.8-19.3-.7c1.8 1.6 3.6 3.4 5.3 5.2.2.2.3.4.5.5l16.9.4z"/><path d="m271.9 97.1c.1 0 .2.1.3.2l18.7-1.8 4.6-8.5c-.5-.3-1.1-.6-1.6-.8-1.2-.6-2.4-1.1-3.6-1.6l-4.3 7.5-20.1 2.6c1.9.5 3.9 1.4 6 2.4z"/><path d="m325.6 164 9.1-4.4c.7-2.3 1.2-4.8 1.3-7.5l-9.7 5.1-12.5-2.9c.3 2.1.4 4.1.4 6.1v.6z"/><path d="m311 174.7c-.7 1.4-1.6 2.8-2.6 4-.1.1-.2.2-.3.3l2.7.4 7.2-3.6z"/><path d="m308.8 137.1 16.3 3.4 8.3-7.3c-.8-2.5-1.8-5.1-2.9-7.6l-8.3 7-17-2.7c1.2 2.1 2.3 4.3 3.3 6.5.1.2.2.5.3.7z"/></g><path d="m335.5 130.5-13.6-31-50.6-25.6-16.1 4.2-26.9 13 16-4.3 50.7 25.6 13.6 31.1z" fill="#28896d"/><path d="m271.3 73.9-16.1 4.2-26.9 13 16-4.3z" opacity=".1"/><path d="m335.5 130.5-13.6-31-26.9 12.9 13.5 31.1z" opacity=".29"/><path d="m114.3 55.1 177.8 93.2-59.8 29.9-177.8-93.2z" fill="#2d3134"/><path d="m292.1 157.1v-8.8l-59.8 29.9v8.8z" fill="#28896d"/><path d="m292.1 157.1v-8.8l-59.8 29.9v8.8z" opacity=".29"/><path d="m54.5 85v8.8l177.8 93.2v-8.8z" fill="#28896d"/><path d="m54.5 85v8.8l177.8 93.2v-8.8z" opacity=".11"/><path d="m135.2 31c-4.2-.9-8.2-.4-11.7 1.3l-45.4 22.2-.1.1c-5.6 2.8-9.6 8.3-10.3 15l-.1.1v18.8l89.6 44.8 44.5-22.2.3.2v-.3-64.2-.3z" fill="#28896d"/><path d="m202.1 110.9v-64.4l-44.8 22.4v64.4z" opacity=".29"/><g fill="#2d3134"><path d="m117.3 68.9v1.6l25.6 12.8v-1.6z"/><path d="m117.3 72.9v1.6l25.6 12.8v-1.6z"/><path d="m117.3 76.9v1.6l25.6 12.8v-1.6z"/><path d="m117.3 80.9v1.6l25.6 12.8v-1.6z"/><path d="m117.3 84.9v1.6l25.6 12.8v-1.6z"/><path d="m87.7 85.7v-19.7c0-3.2-1.8-6.2-4.7-7.6l-6.2-3.1c-5.4 3.2-9.1 9.1-9.1 16.1v10l14.9 7.5c2.3 1.1 5.1-.6 5.1-3.2z"/></g><path d="m67.7 88.5v-17.2c0-12 11-20.8 22.7-18.3l66.9 15.9v64.4z" opacity=".11"/><path d="m94.9 82.4c-10-5-19-5.4-25.4-1.9l-18.4 9.2c-6.2 3.3-10 10.1-10 19.6 0 19.5 15.8 43.3 35.4 53 10.7 5.4 20.3 5.4 26.8 1.1l14.9-7.5c7.4-2.8 12-10 12-20.6.1-19.4-15.7-43.2-35.3-52.9z" fill="#2d3134"/><path d="m111.9 144.6c0 19.5-15.8 27.4-35.4 17.7-19.5-9.8-35.4-33.5-35.4-53s15.9-27.5 35.5-17.7 35.3 33.5 35.3 53z" opacity=".11"/><path d="m78.2 90.7c-10.6-5.3-20.2-5.4-26.6-1.2 6.1-2 14-1.2 22.6 3.1 19.5 9.8 35.4 33.5 35.4 53 0 8.9-3.3 15.4-8.7 18.9 7.8-2.6 12.8-9.9 12.8-20.8-.2-19.5-16-43.2-35.5-53z" fill="#fff" opacity=".1"/><path d="m93.9 135.6c0 9.6-7.8 13.4-17.3 8.7-9.6-4.8-17.3-16.4-17.3-26s7.8-13.4 17.3-8.7c9.5 4.8 17.3 16.4 17.3 26z" fill="#28896d"/><path d="m92.5 134.9c0 8.8-7.1 12.4-15.9 8s-15.9-15.1-15.9-23.9 7.1-12.4 15.9-8 15.9 15.1 15.9 23.9z" fill="#28896d"/><path d="m92.5 134.9c0 8.8-7.1 12.4-15.9 8s-15.9-15.1-15.9-23.9 7.1-12.4 15.9-8 15.9 15.1 15.9 23.9z" fill="#28896d"/><path d="m92.5 134.9c0 8.8-7.1 12.4-15.9 8s-15.9-15.1-15.9-23.9 7.1-12.4 15.9-8 15.9 15.1 15.9 23.9z" opacity=".29"/><path d="m76.6 111c-8.8-4.4-15.9-.8-15.9 8 0 4.8 2.1 10.1 5.4 14.6l22.5-11.2c-3-4.8-7.3-9-12-11.4z" opacity=".15"/><path d="m79.6 112.9-4.2 2.2c-1.9.9-3.5 2.3-3.5 5.2 0 4.8 3.9 10.6 8.7 13 2.2 1.1 4.2 1.3 5.8.7l5.7-2.7c-1.4-6.9-6.3-14.1-12.5-18.4z" fill="#28896d"/><path d="m79.6 112.9-4.2 2.2c-1.9.9-3.5 2.3-3.5 5.2 0 4.8 3.9 10.6 8.7 13 2.2 1.1 4.2 1.3 5.8.7l5.7-2.7c-1.4-6.9-6.3-14.1-12.5-18.4z" opacity=".29"/><path d="m102.3 115.5c6 9.3 9.7 19.7 9.7 29.1 0 8.8-3.2 15.2-8.6 18.8l14.9-7.5c7.4-2.8 12-10 12-20.6 0-9.4-3.7-19.7-9.6-29.1z" opacity=".29"/><path d="m89.3 129c0 4.8-3.9 6.7-8.7 4.3s-8.7-8.2-8.7-13 3.9-6.7 8.7-4.3 8.7 8.2 8.7 13z" fill="#28896d"/><g opacity=".5"><path d="m82 119.7c0 .8-.6 1.1-1.4.7s-1.4-1.3-1.4-2.1.6-1.1 1.4-.7c.8.3 1.4 1.3 1.4 2.1z"/><path d="m82 131c0 .8-.6 1.1-1.4.7s-1.4-1.3-1.4-2.1.6-1.1 1.4-.7 1.4 1.3 1.4 2.1z"/><path d="m77.6 118.1c.6.8.6 1.7 0 2s-1.4-.2-2-1-.6-1.7 0-2c.6-.2 1.5.2 2 1z"/><path d="m85.6 130.1c.6.8.6 1.7 0 2s-1.4-.2-2-1-.6-1.7 0-2c.6-.2 1.5.2 2 1z"/><path d="m75 120.4c.8.4 1.4 1.3 1.4 2.1s-.6 1.1-1.4.7-1.4-1.3-1.4-2.1.6-1.1 1.4-.7z"/><path d="m86.3 126c.8.4 1.4 1.3 1.4 2.1s-.6 1.1-1.4.7-1.4-1.3-1.4-2.1.6-1 1.4-.7z"/><path d="m75.6 125.1c.6-.3 1.4.2 2 1s.6 1.7 0 2-1.4-.2-2-1c-.5-.8-.5-1.7 0-2z"/><path d="m83.6 121.1c.6-.3 1.4.2 2 1s.6 1.7 0 2-1.4-.2-2-1c-.5-.8-.5-1.7 0-2z"/></g><path d="m76.6 91.6c-19.5-9.8-35.4-1.8-35.4 17.7s15.8 43.3 35.4 53c19.5 9.8 35.4 1.8 35.4-17.7s-15.9-43.2-35.4-53zm0 66.5c-17.2-8.6-31.1-29.5-31.1-46.7s13.9-24.2 31.1-15.6 31.1 29.5 31.1 46.7-14 24.2-31.1 15.6z" fill="#fff" opacity=".1"/><g opacity=".5"><path d="m74 93.1 5.7 2.8-2.8-4.2c-.1 0-.2-.1-.2-.1-1.7-.9-3.4-1.6-5.1-2.2z"/><path d="m79.6 161-5.7-2.8 2.1 3.9c.2.1.3.2.5.3 1.7.8 3.3 1.5 4.9 2.1z"/><path d="m58 90.8 4.9-.4-3.9-3c-.1 0-.1 0-.2 0-1.5.1-2.9.4-4.2.7z"/><path d="m95.5 163-4.9.4 3.2 3h.4c1.4-.1 2.8-.4 4.1-.7z"/><path d="m47 98.1 2.8-3.5-3.8-.8s-.1.1-.1.1c-.9 1.1-1.6 2.2-2.2 3.5z"/><path d="m106.2 155.3-2.8 3.5 3.5 1.3c.1-.1.2-.2.3-.3.8-1 1.5-2.2 2.2-3.4z"/><path d="m44.1 113.2v-5.7l-2.8 1.4v.2c0 1.7.1 3.5.4 5.2z"/><path d="m109.1 140.1v5.7l2.8-.7c0-.2 0-.3 0-.5 0-1.7-.1-3.4-.3-5.1z"/><path d="m49.7 132-2.8-6.3-1 3.3c0 .1.1.2.1.3.9 1.9 1.8 3.8 2.8 5.6z"/><path d="m103.2 121.3 2.8 6.3 1.4-2.5c-.1-.2-.1-.4-.2-.5-.8-1.9-1.8-3.7-2.8-5.5z"/><path d="m62.5 149.4-4.9-5.3 1 4.4c.1.1.1.2.2.2 1.5 1.6 3 3.1 4.6 4.5z"/><path d="m90.2 104 4.9 5.3-.4-3.7c-.1-.2-.3-.3-.4-.5-1.4-1.6-2.9-3-4.4-4.4z"/></g><g opacity=".5"><path d="m71 79.8c-.5.2-.9.4-1.4.7l-4.6 2.2-.5.9-9.8 4.6c1.3-.4 2.7-.6 4.2-.7h.2l9.8-4.2z"/><path d="m114.8 98.4c-1.1-1.3-2.2-2.5-3.3-3.7l-5.6 6.6-16.1-.6c1.5 1.4 3 2.8 4.4 4.4.1.2.3.3.4.5l14.2.3z"/><path d="m76.6 91.6c.1 0 .2.1.2.1l15.7-1.5 3.8-7.1c-.4-.2-.9-.5-1.3-.7-1-.5-2-.9-3-1.4l-3.6 6.3-16.8 2.2c1.6.5 3.2 1.2 5 2.1z"/><path d="m121.5 147.6 7.6-3.7c.6-1.9 1-4 1.1-6.3l-8.1 4.3-10.5-2.4c.2 1.7.3 3.4.3 5.1v.5z"/><path d="m109.3 156.5c-.6 1.2-1.3 2.3-2.2 3.4-.1.1-.2.2-.3.3l2.3.3 6.1-3z"/><path d="m107.4 125.1 13.7 2.9 7-6.1c-.7-2.1-1.5-4.2-2.4-6.3l-7 5.8-14.2-2.3c1 1.8 1.9 3.6 2.8 5.5 0 .1.1.3.1.5z"/></g><path d="m312.4 110v-4c0-1.6-1.7-2.7-3.1-1.9l-10.1 5c-.7.4-1.2 1.1-1.2 1.9v4c0 1.6 1.7 2.7 3.1 1.9l10.1-5c.7-.4 1.2-1.1 1.2-1.9z" fill="#cc291f"/><ellipse cx="307.8" cy="109.2" fill="#2d3134" opacity=".3" rx="3.9" ry="2.6" transform="matrix(-.6313 .7756 -.7756 -.6313 586.7554 -60.5646)"/><ellipse cx="302.8" cy="111.6" fill="#2d3134" opacity=".3" rx="3.9" ry="2.6" transform="matrix(-.6313 .7756 -.7756 -.6313 580.4761 -52.7793)"/><path d="m312 111.3-13.5-1.5c-.3.4-.4.8-.4 1.3v4c0 1.6 1.7 2.6 3.1 1.9l10.1-5c.2-.3.5-.5.7-.7z" fill="#fff" opacity=".3"/><path d="m312.4 110v-4c0-1.6-1.7-2.7-3.1-1.9l-10.1 5c-.7.4-1.2 1.1-1.2 1.9v4c0 1.6 1.7 2.7 3.1 1.9l10.1-5c.7-.4 1.2-1.1 1.2-1.9z" opacity=".29"/><path d="m259.4 101.2c-4.3-2.2-9-1.7-12.7.4l-51.1 25.5c-3.9 2.3-6.6 6.5-6.6 11.6v5.5l54.7 24.9 51-25.5v-27.2z" fill="#28896d"/><path d="m243.7 169.1-54.7-24.9v-5.5c0-10 10.5-16.4 19.4-12l35.3 15.2z" opacity=".11"/><path d="m243.7 169.1 51-25.5v-27.2l-51 25.5z" opacity=".29"/><path d="m205 119.6 35 17 50-25-35-17z" fill="#656565"/><path d="m293 52c-1-.5-2-.5-3-.3-.5.1-.9.4-1.3.7l-48.7 24.3c-1.7.5-3 2-3 4v1.9c0 1.6 1 48 1 48 0 2-2.1 3.3-3.9 2.4l-25.3-13.5c-2.7-1.3-5.8.6-5.8 3.6 0 .9.5 1.7 1.3 2.2l27.5 13.8c3 1.5 6.3 1.2 8.9-.4l48.6-24.3c3.2-1.3 5.7-4.5 5.7-8.4v-50.7c0-1.4-.8-2.7-2-3.3z" fill="#656565"/><path d="m204.3 125.2 27.5 13.8c6 3 13.1-1.4 13.1-8.1v-50.6c0-1.4-.8-2.7-2-3.3-2.7-1.4-6 .6-6 3.7v1.9c0 1.6 1 48 1 48 0 2-2.1 3.3-3.9 2.4l-25.3-13.5c-2.7-1.3-5.8.6-5.8 3.6.1.9.6 1.7 1.4 2.1z" opacity=".11"/><path d="m245 80.4v50.4c0 3.4-1.8 6.1-4.3 7.7l48.6-24.3c3.2-1.3 5.7-4.5 5.7-8.4v-50.4z" opacity=".29"/><path d="m164.6 66.4 3.1 27.1 3.1 1.6 29.7-15.3v-25.5l-6.2-3.3z" fill="#2d3134"/><path d="m170.8 95.1-3.1-1.6-3.1-27.1 6.2 3.2z" opacity=".11"/><path d="m174.8 76.2 21.9-11.3v-5.3l-21.9 11.4z" fill="#06547a"/><path d="m183.3 76.9c0 1.7 1.4 2.4 3.1 1.6 1.7-.9 3.1-2.9 3.1-4.7s-1.4-2.4-3.1-1.6-3.1 3-3.1 4.7z" fill="#656565"/><path d="m176.6 80.4c0 1.1.9 1.5 2 1s2-1.9 2-3-.9-1.5-2-1-2 1.9-2 3z" fill="#656565"/><path d="m192.1 72.6c0 1.1.9 1.5 2 1s2-1.9 2-3-.9-1.5-2-1-2 1.9-2 3z" fill="#656565"/><path d="m170.8 95.1 29.7-15.3v-25.5l-29.7 15.3z" opacity=".29"/><path d="m184.5 35.2h4v24.7h-4z" fill="#2d3134" transform="matrix(.9313 .3643 -.3643 .9313 30.1211 -64.6791)"/><path d="m209.2 29.4c-3.2-3.9-8-6.9-13.5-8.4-2.5-.7-5-1-7.5-1-8.9 0-16.1 4.4-17.8 11-2.3 8.6 5.2 18.2 16.9 21.4 2.5.7 5 1 7.5 1 8.9 0 16.1-4.4 17.8-11 1.1-4.3-.1-8.9-3.4-13zm-14.2-5.9c5 1.3 9.3 4 12.2 7.5 1.1 1.3 1.9 2.8 2.4 4.2h-17.6l-11.2-11.5c2.2-.8 4.7-1.2 7.4-1.2 2.3.1 4.5.4 6.8 1zm-22.1 8.1c.7-2.8 2.7-5 5.3-6.6l11.6 11.9-4.5 12c-8.6-3.3-14.1-10.7-12.4-17.3zm37 10c-1.4 5.4-7.5 9.1-15.3 9.1-2.2 0-4.5-.3-6.7-.9l4.4-11.8h17.8c.3 1.2.2 2.4-.2 3.6z" fill="#2d3134"/><path d="m143.4 55.5c-3.5 0-6.4 1.4-6.4 3.2v41.6c0 1.8 2.9 3.2 6.4 3.2s6.4-1.4 6.4-3.2v-41.6c0-1.8-2.9-3.2-6.4-3.2z" fill="#2d3134"/><ellipse cx="143.4" cy="58.7" opacity=".8" rx="4.8" ry="2"/><path d="m154.9 116.5c0-1.1-.9-2.4-1.9-2.9-.7-.3-1.3-.3-1.6.1-1.2.4-2.5.3-3.6-.4-1.3-.8-2-2.1-2-3.6v-65.4h-4.8v65.4c0 3.2 1.6 6 4.3 7.7 1.5.9 3.1 1.4 4.7 1.4 1.4 0 2.8-.3 4-1 .1-.1.9-.6.9-1.3z" fill="#2d3134"/><path d="m145.8 55.7v1.2c1.4.3 2.4 1 2.4 1.7 0 1.1-2.1 2-4.8 2s-4.8-.9-4.8-2c0-.7 1-1.4 2.4-1.7v-1.2c-2.3.5-4 1.6-4 3v41.6c0 1.8 2.9 3.2 6.4 3.2s6.4-1.4 6.4-3.2v-41.6c0-1.4-1.7-2.5-4-3z" fill="#2d3134"/><path d="m143.4 61.9c-3.5 0-6.4-1.4-6.4-3.2v41.6c0 1.8 2.9 3.2 6.4 3.2s6.4-1.4 6.4-3.2v-41.6c0 1.7-2.9 3.2-6.4 3.2z" opacity=".2"/><ellipse cx="143.4" cy="44.3" fill="#2d3134" rx="2.4" ry="1.6"/><path d="m127.5 138.7-8 4v23l3.2 1.6 3.2-1.6 4.8-25.4z" fill="#656565"/><path d="m119.5 142.7 3.2 1.6v23l-3.2-1.6z" opacity=".11"/><path d="m130.7 140.3-8 4v23l3.2-1.6z" opacity=".29"/><path d="m127.5 156.7-4.8 2.4v3.2l20.4 9.8 1.6-7.2z" fill="#656565"/><path d="m122.7 159.1v3.2l20.4 9.8v-3.2z" opacity=".11"/><path d="m151.1 150.1-8 4v23l3.2 1.6 3.2-1.6 4.8-25.4z" fill="#656565"/><path d="m143.1 154.1 3.2 1.6v23l-3.2-1.6z" opacity=".11"/><path d="m154.3 151.7-8 4v23l3.2-1.6z" opacity=".29"/><path d="m115.3 137.8v2.9l42.1 21 13.9-7.1v-2.9l-42-21z" fill="#656565"/><path d="m157.4 161.7-42.1-21v-2.9l42.1 21z" opacity=".11"/><path d="m157.4 161.7 13.9-7.1v-2.9l-13.9 7.1z" opacity=".29"/><path d="m187.8 116.2-2.8 27.8-31 8.1 8-22.9 26-13.2" fill="#28896d"/><path d="m187.8 116.2-2.8 27.8-31 8.1 8-22.9 26-13.2" opacity=".29"/><path d="m215 125.1c-11.9-6-22.7-6.4-30.3-2.3l-21.9 11c-7.4 3.9-12 12-12 23.5 0 23.3 18.9 51.7 42.3 63.4 12.8 6.4 24.3 6.4 32 1.3l17.8-8.9c8.8-3.3 14.4-11.9 14.4-24.6 0-23.4-18.9-51.7-42.3-63.4z" fill="#2d3134"/><path d="m235.3 199.5c0 23.3-18.9 32.8-42.3 21.1-23.3-11.7-42.3-40-42.3-63.4s18.9-32.8 42.3-21.1 42.3 40.1 42.3 63.4z" opacity=".11"/><path d="m195 135.1c-12.7-6.4-24.1-6.4-31.8-1.4 7.3-2.4 16.7-1.4 27 3.8 23.3 11.7 42.3 40 42.3 63.4 0 10.6-3.9 18.4-10.4 22.6 9.3-3.1 15.3-11.8 15.3-24.9-.2-23.5-19.1-51.9-42.4-63.5z" fill="#fff" opacity=".1"/><path d="m213.8 188.7c0 11.4-9.3 16.1-20.7 10.4s-20.7-19.6-20.7-31.1c0-11.4 9.3-16.1 20.7-10.4 11.4 5.8 20.7 19.7 20.7 31.1z" fill="#28896d"/><path d="m212.1 187.9c0 10.5-8.5 14.8-19 9.5s-19-18-19-28.5 8.5-14.8 19-9.5c10.5 5.2 19 18 19 28.5z" fill="#28896d"/><path d="m212.1 187.9c0 10.5-8.5 14.8-19 9.5s-19-18-19-28.5 8.5-14.8 19-9.5c10.5 5.2 19 18 19 28.5z" fill="#28896d"/><path d="m212.1 187.9c0 10.5-8.5 14.8-19 9.5s-19-18-19-28.5 8.5-14.8 19-9.5c10.5 5.2 19 18 19 28.5z" opacity=".29"/><path d="m193.1 159.4c-10.5-5.3-19-1-19 9.5 0 5.7 2.5 12 6.4 17.5l26.8-13.4c-3.5-5.7-8.6-10.8-14.2-13.6z" opacity=".15"/><path d="m196.7 161.6-5 2.7c-2.3 1-4.2 2.8-4.2 6.2 0 5.7 4.6 12.7 10.4 15.5 2.7 1.3 5.1 1.5 6.9.8l6.8-3.3c-1.6-8.2-7.5-16.8-14.9-21.9z" fill="#28896d"/><path d="m196.7 161.6-5 2.7c-2.3 1-4.2 2.8-4.2 6.2 0 5.7 4.6 12.7 10.4 15.5 2.7 1.3 5.1 1.5 6.9.8l6.8-3.3c-1.6-8.2-7.5-16.8-14.9-21.9z" opacity=".29"/><path d="m223.8 164.7c7.2 11.1 11.6 23.6 11.6 34.8 0 10.5-3.9 18.2-10.2 22.4l17.8-8.9c8.8-3.3 14.4-11.9 14.4-24.6 0-11.2-4.4-23.6-11.5-34.7z" opacity=".29"/><path d="m208.3 180.8c0 5.7-4.6 8-10.4 5.2-5.7-2.9-10.4-9.8-10.4-15.5s4.6-8 10.4-5.2c5.7 2.8 10.4 9.8 10.4 15.5z" fill="#28896d"/><g opacity=".5"><path d="m199.6 169.7c0 .9-.8 1.3-1.7.8s-1.7-1.6-1.7-2.5.8-1.3 1.7-.8c1 .4 1.7 1.6 1.7 2.5z"/><path d="m199.6 183.2c0 .9-.8 1.3-1.7.8s-1.7-1.6-1.7-2.5.8-1.3 1.7-.8c1 .4 1.7 1.6 1.7 2.5z"/><path d="m194.3 167.8c.7 1 .7 2.1 0 2.4s-1.7-.2-2.4-1.2-.7-2.1 0-2.4 1.8.2 2.4 1.2z"/><path d="m203.9 182.2c.7 1 .7 2.1 0 2.4s-1.7-.2-2.4-1.2-.7-2.1 0-2.4 1.7.2 2.4 1.2z"/><path d="m191.2 170.5c.9.5 1.7 1.6 1.7 2.5s-.8 1.3-1.7.8-1.7-1.6-1.7-2.5.7-1.2 1.7-.8z"/><path d="m204.7 177.3c.9.5 1.7 1.6 1.7 2.5s-.8 1.3-1.7.8-1.7-1.6-1.7-2.5.7-1.3 1.7-.8z"/><path d="m191.9 176.2c.7-.3 1.7.2 2.4 1.2s.7 2.1 0 2.4-1.7-.2-2.4-1.2c-.6-1-.6-2.1 0-2.4z"/><path d="m201.5 171.4c.7-.3 1.7.2 2.4 1.2s.7 2.1 0 2.4-1.7-.2-2.4-1.2-.7-2.1 0-2.4z"/></g><path d="m193.1 136.1c-23.3-11.7-42.3-2.2-42.3 21.1s18.9 51.7 42.3 63.4c23.3 11.7 42.3 2.2 42.3-21.1s-19-51.7-42.3-63.4zm0 79.5c-20.5-10.3-37.2-35.2-37.2-55.8 0-20.5 16.6-28.9 37.2-18.6s37.2 35.2 37.2 55.8-16.7 28.8-37.2 18.6z" fill="#fff" opacity=".1"/><g opacity=".5"><path d="m190 138 6.8 3.4-3.4-5.1c-.1 0-.2-.1-.3-.2-2.1-1-4.1-1.9-6-2.6z"/><path d="m196.7 219.1-6.8-3.4 2.5 4.6c.2.1.4.2.6.3 2 1 4 1.8 5.9 2.5z"/><path d="m170.9 135.2 5.9-.5-4.6-3.5c-.1 0-.2 0-.3 0-1.8.1-3.4.4-5 .9z"/><path d="m215.7 221.5-5.9.5 3.9 3.6h.5c1.7-.1 3.4-.4 4.9-.9z"/><path d="m157.8 143.9 3.4-4.2-4.6-1.1c0 .1-.1.1-.2.2-1 1.3-1.9 2.7-2.6 4.1z"/><path d="m228.5 212.3-3.4 4.2 4.2 1.6.3-.3c1-1.2 1.9-2.6 2.6-4z"/><path d="m154.2 162v-6.8l-3.4 1.7v.3c0 2.1.2 4.1.4 6.3z"/><path d="m232 194.1v6.8l3.4-.8c0-.2 0-.4 0-.6 0-2-.1-4-.4-6.1z"/><path d="m161 184.4-3.4-7.5-1.2 4c0 .1.1.2.1.3 1 2.3 2.2 4.5 3.4 6.7z"/><path d="m224.9 171.6 3.4 7.5 1.7-3c-.1-.2-.2-.4-.3-.6-1-2.2-2.1-4.4-3.3-6.5z"/><path d="m176.3 205.2-5.9-6.3 1.2 5.2c.1.1.2.2.2.3 1.8 1.9 3.6 3.7 5.5 5.4z"/><path d="m209.3 151 5.9 6.3-.5-4.4c-.2-.2-.3-.4-.5-.5-1.7-1.9-3.5-3.6-5.3-5.2z"/></g><g opacity=".5"><path d="m186.4 122c-.6.2-1.1.5-1.7.8l-5.5 2.8-.6 1-11.7 5.5c1.6-.4 3.2-.8 5-.9h.3l11.7-5z"/><path d="m238.8 144.3c-1.3-1.5-2.6-3-4-4.4l-6.6 7.8-19.3-.7c1.8 1.6 3.6 3.4 5.3 5.2.2.2.3.4.5.5l16.9.4z"/><path d="m193.1 136.1c.1 0 .2.1.3.2l18.7-1.8 4.6-8.5c-.5-.3-1.1-.6-1.6-.8-1.2-.6-2.4-1.1-3.6-1.6l-4.3 7.5-20.1 2.6c1.9.5 3.9 1.4 6 2.4z"/><path d="m246.7 203 9.1-4.4c.7-2.3 1.2-4.8 1.3-7.5l-9.7 5.1-12.5-2.9c.3 2.1.4 4.1.4 6.1v.6z"/><path d="m232.2 213.7c-.7 1.4-1.6 2.8-2.6 4-.1.1-.2.2-.3.3l2.7.4 7.2-3.6z"/><path d="m230 176.1 16.3 3.4 8.3-7.3c-.8-2.5-1.8-5.1-2.9-7.6l-8.3 7-17-2.7c1.2 2.1 2.3 4.3 3.3 6.5.1.3.2.5.3.7z"/></g><path d="m266 165-13.5-31-47.1-24-16.9 5.8-26.5 13.4 16.9-5.8 47.1 24 13.6 31z" fill="#28896d"/><path d="m205.4 110-16.9 5.8-26.5 13.4 16.9-5.8z" opacity=".1"/><path d="m266 165-13.5-31-26.5 13.4 13.5 31z" opacity=".29"/><path d="m250.8 140.4v-4c0-1.6-1.7-2.7-3.1-1.9l-10.1 5c-.7.4-1.2 1.1-1.2 1.9v4c0 1.6 1.7 2.7 3.1 1.9l10.1-5c.7-.4 1.2-1.1 1.2-1.9z" fill="#cc291f"/><ellipse cx="246.2" cy="139.6" fill="#2d3134" opacity=".3" rx="3.9" ry="2.6" transform="matrix(-.6313 .7756 -.7756 -.6313 509.8458 36.8006)"/><ellipse cx="241.2" cy="142" fill="#2d3134" opacity=".3" rx="3.9" ry="2.6" transform="matrix(-.6313 .7756 -.7756 -.6313 503.5665 44.5859)"/><path d="m250.4 141.7-13.5-1.5c-.3.4-.4.8-.4 1.3v4c0 1.6 1.7 2.7 3.1 1.9l10.1-5c.2-.3.5-.5.7-.7z" fill="#fff" opacity=".3"/><path d="m250.8 140.4v-4c0-1.6-1.7-2.7-3.1-1.9l-10.1 5c-.7.4-1.2 1.1-1.2 1.9v4c0 1.6 1.7 2.7 3.1 1.9l10.1-5c.7-.4 1.2-1.1 1.2-1.9z" opacity=".29"/></svg>