<svg xmlns:xlink="http://www.w3.org/1999/xlink"  enable-background="new 0 0 40 48" height="48" viewBox="0 0 40 48" width="40" xmlns="http://www.w3.org/2000/svg"><path d="m32.9 43.8c-.7-1.2-1.7-2.1-2.9-2.8l-2.4-1.4c-.2-.6-.5-1.2-.8-1.8l-.5-.9c-.6-1.2-2-2.8-3.3-3.3-.6-.2-1-.8-1-1.5v-2.4c.1-.4.4-.8.9-1 1.2-.4 2.5-1.9 3-3l.4-.9c.3-.5.5-1.1.7-1.6l2.2-1.3c1.1-.6 2-1.5 2.7-2.6l1.4-2.2-.9-.6-1.4 2.1c-.6.9-1.4 1.7-2.3 2.2l-1 .6c.4-1.3.8-2.6 1-4l-1.5-.3c-.3 1.7-.8 3.4-1.4 5.1l-.5-6.5 2.9-5.7-1-1.2-2.2 4.6-.3-4.1-1.1.1.4 6.1-3 6.5h-.6l-.8-2.9-1.1.3.8 2.7c-.2.1-.4.3-.4.6s0 1.4.1 2.8c0 0-.1-.1-.1-.1-.5-.5-1-.8-1.6-1.2l-.9-2.3c-.3-.7-.4-1.5-.3-2.3l.5-2.9-1.2-.2-.4 2.8c-.2 1-.1 2 .3 3l.4 1-.3-.2c-1.1-.5-1.9-1.3-2.6-2.4l-1.1-1.8-1.4.8 1.1 1.8c.8 1.3 1.9 2.3 3.2 3l1.5.7c1.3.7 2.4 1.8 3 3.2.1 2.3.1 4.5-.1 4.8-.6 1.7-1.8 3.1-3.4 3.8l-1.6.9c-1.5.7-2.7 1.9-3.5 3.3l-1 1.6h2.1l.4-.7c.7-1.1 1.6-2 2.8-2.6l.3-.2-.4 1.1c-.4 1-.5 2.2-.4 3.2l.3 2.1h1.4l-.4-2.3c-.1-.9 0-1.7.3-2.6l1-2.5c.6-.4 1.2-.8 1.7-1.3.4-.4.8-.9 1.1-1.3v.5c0 .5.1 1.1.2 1.6l-1.5 5.3h1.2l1-3.4 2.1 4.6h3.1l.3-4c.6 1.6 1.1 3.3 1.5 5h1.7c-.2-1.4-.6-2.8-1-4.1l1.1.7c1 .6 1.9 1.4 2.5 2.4l.2.3h1.4zm-8.6-24.4.5 4.9-.5 1c-.4.8-1.1 1.5-2 1.9-.1 0-.2.1-.3.2v-2.9c.1-.2.1-.4.2-.6zm.3 24.1-2.3-4.8c-.4-.8-.5-1.6-.5-2.4v-1.5c.2.1.4.2.6.3 1 .4 1.8 1.1 2.2 2l.5 1.1z" fill="#825012"/><path d="m25.5 2.8c-.4-.6-1.1-1.1-1.9-1-.5 0-1 .2-1.4.5-.5-.6-1.2-1-2.1-1-1 0-1.9.6-2.3 1.4-.3-.1-.7-.1-1.1-.1-.9 0-1.6.3-2.3.8-.1 0-.1 0-.2 0-2.5 0-4.6 2.1-4.6 4.7 0 2.5 2.1 4.6 4.7 4.6.5 0 1-.1 1.5-.3.6.5 1.4.8 2.2.8.9 0 1.6-.4 2.2-.9.4.1.8.2 1.2.2.8 0 1.6-.2 2.3-.6.5.2 1 .3 1.5.2 2.5 0 4.6-2.1 4.6-4.7.1-2.5-1.9-4.4-4.3-4.6z" fill="#539b00"/><path d="m25.9 10.3c-.5 0-.9-.1-1.3-.2-.8.6-1.7 1-2.8 1-.9 0-1.7-.2-2.4-.7-.6.4-1.2.6-2 .7-.4 0-.9-.1-1.2-.2-.7.4-1.5.6-2.3.6-1.7 0-3.1-.8-3.9-2.1.6 1.9 2.4 3.2 4.4 3.2.5 0 1-.1 1.5-.3.6.5 1.4.8 2.2.8.9 0 1.6-.4 2.2-.9.4.1.8.2 1.2.2.8 0 1.6-.2 2.3-.6.5.2 1 .3 1.5.2 2.4 0 4.3-1.8 4.5-4.1-.7 1.4-2.2 2.4-3.9 2.4z" opacity=".2"/><path d="m22.1 5.4h.4c.5-1.1 1.4-2 2.5-2.4-.1 0-.2 0-.3 0-1.1 0-2.1.6-2.7 1.5-.7.2-1.2.7-1.4 1.4.4-.3.9-.5 1.5-.5z" fill="#fff" opacity=".2"/><path d="m27.2 19.8c0-.1 0-.1 0 0 0-.9-.4-1.6-.9-2.1-.1-1.9-1.2-3.5-2.8-4.4 0-.2.1-.4.1-.6 0-1-.6-1.9-1.5-2.4-.9-1.3-2.5-2.1-4.2-2.1-.8 0-1.5.2-2.1.5-.6-.7-1.4-1.2-2.4-1.2-1.1 0-2.1.6-2.6 1.5-2.8.4-4.9 2.6-5.2 5.4-2.1 0-3.8 1.7-3.8 3.8 0 .9.4 1.8.9 2.5-.6.4-.9 1.1-.9 1.8 0 1.3 1 2.3 2.3 2.3.2 0 .5 0 .7-.1.3 1.2 1.4 2.1 2.7 2.1.7 0 1.4-.3 1.9-.8.9.5 1.9.8 3 .8s2.1-.3 3-.8c.4.3.9.5 1.4.5s1-.2 1.3-.4c.7.5 1.6.8 2.5.8 1 0 1.9-.3 2.7-.9.3.1.7.2 1 .2 2.1 0 3.7-1.7 3.7-3.7.3-1.1-.1-2.1-.8-2.7z" fill="#539b00"/><path d="m24.6 24.5c-.6 0-1.1-.1-1.6-.3-.9 1.2-2.3 2-3.9 2-.3 0-.6 0-.9-.1.7.5 1.6.8 2.5.8 1 0 1.9-.3 2.7-.9.3.1.7.2 1 .2 1.9 0 3.5-1.5 3.7-3.4-.7 1-2 1.7-3.5 1.7z" opacity=".2"/><path d="m14.3 24c-1 0-1.8-.3-2.6-.7-.9.9-2.2 1.4-3.5 1.4s-2.5-.5-3.4-1.2c-.4.2-.9.4-1.5.4-.4 0-.8-.1-1.2-.2.4.7 1.1 1.2 2 1.2.2 0 .5 0 .7-.1.3 1.2 1.4 2.1 2.7 2.1.7 0 1.4-.3 1.9-.8.9.5 1.9.8 3 .8 2.9 0 5.3-2.1 5.9-4.8-.8 1.2-2.3 1.9-4 1.9z" opacity=".2"/><path d="m11.9 10.1h.2c.5-.9 1.4-1.5 2.5-1.5h.5c-.4-.3-1-.5-1.6-.5-1.1 0-2 .6-2.5 1.5-.8.2-1.4.8-1.6 1.6.6-.6 1.5-1.1 2.5-1.1z" fill="#fff" opacity=".2"/><path d="m22.2 13.6c-.1 0-.2 0-.3 0-.9 1-2.2 1.6-3.7 1.6-.2 0-.5 0-.7-.1.3.5.8.8 1.4.8s1.1-.3 1.4-.7c.2 0 .4.1.6.1 1.2 0 2.2-.8 2.5-2-.3.2-.8.3-1.2.3z" opacity=".2"/><path d="m38.9 16.8c-.1-.9-.5-1.6-1.1-2.3 0-.1 0-.3 0-.4-.4-2.3-2.5-3.8-4.8-3.5-.4.1-.7.2-1 .3-.9-1-2.3-1.5-3.7-1.3-2.1.3-3.6 2.3-3.4 4.4-1 .2-1.6 1.1-1.5 2.1 0 .1 0 .2.1.3-1.3.5-2.1 1.8-1.9 3.2.3 1.6 1.8 2.7 3.3 2.4.7-.1 1.3-.5 1.7-.9.4.4 1 .7 1.6.6.2 0 .4-.1.5-.2.4.9 1.4 1.4 2.4 1.3.6-.1 1.1-.4 1.4-.8.8.3 1.6.4 2.5.3 2.6-.5 4.3-2.9 3.9-5.5z" fill="#539b00"/><path d="m36.1 19.8c-.7.1-1.5 0-2.1-.2-.6.8-1.5 1.3-2.6 1.5-1 .2-2 0-2.8-.5-.3.2-.7.4-1.1.5-.3.1-.6 0-.9 0 .4.5 1 .8 1.7.6.2 0 .4-.1.5-.2.4.9 1.4 1.4 2.4 1.3.6-.1 1.1-.4 1.4-.8.8.3 1.6.4 2.5.3 2.2-.4 3.8-2.3 3.9-4.4-.6.9-1.6 1.7-2.9 1.9z" opacity=".2"/><path d="m33.8 17c-1.3.2-2.5-.1-3.5-.8-.1 0-.2 0-.3.1-2.2.4-4.3-.9-5.1-2.8v1c.4 2.2 2.5 3.7 4.7 3.4.4-.1.9-.2 1.2-.4.6.4 1.3.6 2.1.4.7-.1 1.4-.5 1.8-1-.3-.1-.6 0-.9.1z" opacity=".2"/><path d="m26.1 20.3c-.4.5-1 .9-1.8 1-.9.1-1.8-.2-2.4-.7.6 1.1 1.8 1.7 3 1.5.7-.1 1.3-.5 1.7-1-.1-.3-.3-.5-.5-.8z" opacity=".2"/><g fill="#fff"><path d="m26.5 18.3v.5c1-.1 1.9.1 2.7.5-.3-.8-1.1-1.2-2-1.1-.3-.3-.6-.5-1-.6.2.2.3.4.3.7z" opacity=".2"/><path d="m6.5 16.2c.7 0 1.4.2 2 .5.7-.7 1.7-1.1 2.8-1.1 1 0 1.8.3 2.5.9-.7-1.2-2-2.1-3.4-2.1-1 0-1.9.4-2.5.9-.5-.2-.9-.3-1.4-.3-1.5 0-2.7 1-2.9 2.4.7-.8 1.7-1.2 2.9-1.2z" opacity=".2"/></g></svg>