<svg xmlns:xlink="http://www.w3.org/1999/xlink"  enable-background="new 0 0 40 56" height="56" viewBox="0 0 40 56" width="40" xmlns="http://www.w3.org/2000/svg"><ellipse cx="16.5" cy="47" opacity=".3" rx="9.4" ry="5"/><path d="m18 23v24c0 .6-.7 1-1.5 1s-1.5-.4-1.5-1v-24z" fill="#825012"/><path d="m32.8 12.6c.1-.5.2-1.1.2-1.6 0-4.4-3.6-8-8-8-.9 0-1.7.1-2.5.4-1.4-2.1-3.8-3.4-6.5-3.4-3.7 0-6.9 2.6-7.7 6-.1 0-.2 0-.3 0-4.4 0-8 3.6-8 8v10c0 .6.4 1 1 1s1-.4 1-1v4c0 .6.4 1 1 1s1-.4 1-1v5c0 .6.4 1 1 1s1-.4 1-1v-3c0 .6.4 1 1 1s1-.4 1-1v-1c0 .6.4 1 1 1s1-.4 1-1v3c0 .6.4 1 1 1s1-.4 1-1v3c0 .6.4 1 1 1s1-.4 1-1v3c0 .6.4 1 1 1s1-.4 1-1v-3c0 .6.4 1 1 1s1-.4 1-1v1c0 .6.4 1 1 1s1-.4 1-1v-4c0 .6.4 1 1 1s1-.4 1-1v3c0 .6.4 1 1 1s1-.4 1-1v-1c0 .6.4 1 1 1s1-.4 1-1v3c0 .6.4 1 1 1s1-.4 1-1v3c0 .6.4 1 1 1s1-.4 1-1v-4c0 .6.4 1 1 1s1-.4 1-1v-3c0 .6.4 1 1 1s1-.4 1-1v-5c0 .6.4 1 1 1s1-.4 1-1v-7.2c0-4.1-1.6-7-3.2-8.2z" fill="#539b00"/><path d="m1 22c-.6 0-1-.4-1-1v3c0 .6.4 1 1 1s1-.4 1-1v-3c0 .6-.4 1-1 1z" opacity=".2"/><g opacity=".2"><path d="m33 31c-1.2 0-1.1 2-2.6 2-2.7 0-1.7-5-3.4-5-.6 0-1-.1-1-1s-.2-2-1-2c-.6 0-1 .4-1 1s-.4 1-1 1-1-.5-1-1-.4-1-1-1-1 .6-1 1 0 3 0 3c0 .6-.4 1-1 1s-1-.4-1-1c0 0 0-2-1-2-.6 0-1 .4-1 1s0 1 0 1c0 .6-.4 1-1 1-1 0-1 1-1 1 0 .6-.4 1-1 1s-1-.4-1-1c0 0-.4-2-1-2-3 0-5-3.4-5-4 0 0-.1-1-1-1s-1 2-1 2c0 .6-.4 1-1 1s-1-.4-1-1v2c0 .6.4 1 1 1s1-.4 1-1v5c0 .6.4 1 1 1s1-.4 1-1v-3c0 .6.4 1 1 1s1-.4 1-1v-1c0 .6.4 1 1 1s1-.4 1-1v3c0 .6.4 1 1 1s1-.4 1-1v3c0 .6.4 1 1 1s1-.4 1-1v3c0 .6.4 1 1 1s1-.4 1-1v-3c0 .6.4 1 1 1s1-.4 1-1v1c0 .6.4 1 1 1s1-.4 1-1v-4c0 .6.4 1 1 1s1-.4 1-1v3c0 .6.4 1 1 1s1-.4 1-1v-1c0 .6.4 1 1 1s1-.4 1-1v3c0 .6.4 1 1 1s1-.4 1-1v3c0 .6.4 1 1 1s1-.4 1-1v-4c0 .6.4 1 1 1s1-.4 1-1v-3c0 .6.4 1 1 1s1-.4 1-1v-3c0 .6-.4 1-1 1z"/><path d="m35 27c-.6 0-1-.4-1-1v2c0 .6.4 1 1 1s1-.4 1-1v-2c0 .6-.4 1-1 1z"/></g><path d="m15.2 18.3c-1.8 0-3.3-1.5-3.3-3.3 0-.1 0-.2 0-.3v-1.5c-.6.3-1.3.5-2 .5-2 0-3.7-1.5-4-3.5v3.8c0 .6.4 1 1 1s1-.4 1-1v2c0 .6.4 1 1 1s1-.4 1-1v7c0 .6.4 1 1 1s1-.4 1-1v-2c0 .6.4 1 1 1s1-.4 1-1v-1c0 .6.4 1 1 1s1-.4 1-1v-1.8c-.2.1-.4.1-.7.1z" opacity=".2"/><path d="m21 6v5c0 .6.4 1 1 1s1-.4 1-1v-3.4c-1 0-2-1-2-1.6z" opacity=".2"/><path d="m5 14c-.6 0-1-.4-1-1v5c0 .6.4 1 1 1s1-.4 1-1v-5c0 .6-.4 1-1 1z" opacity=".2"/><path d="m23 11.3v2.7c0 .6.4 1 1 1 .5 0 .9-.4 1-.9-1.2-.5-2-1.6-2-2.8z" opacity=".2"/><path d="m30.7 14.6c-.6 0-1.2-.2-1.7-.5-.6.3-1.3.5-2 .5s-1.4-.2-2-.5v1.9c0 .6.4 1 1 1s1-.4 1-1v-1c0 .6.4 1 1 1s1-.4 1-1v3c0 .6.4 1 1 1s1-.4 1-1v-3c0 .6.4 1 1 1s1-.4 1-1v-1.4c-.6.6-1.4 1-2.3 1z" opacity=".2"/></svg>