<svg xmlns:xlink="http://www.w3.org/1999/xlink"  enable-background="new 0 0 16 32" height="32" viewBox="0 0 16 32" width="16" xmlns="http://www.w3.org/2000/svg"><ellipse cx="8" cy="24" opacity=".3" rx="3" ry="1.4"/><path d="m7.2 9.6.3-.1-.8.1.7-.4c-.2-.6-.5-1.2-1-1.8l-.8.1.5-.4-1.2.5 1.1-.6c-.5-.5-1.1-1-1.8-1.4l-.7.2.5-.4s0 0-.1 0l-1 .4.7-.5-.3.1.3-.3c-.6-.3-1.3-.7-2.1-1-.8 1.6-.4 2.7.5 3.7l.7-.2-.5.4 1.1-.4-.9.6c.4.4 1 .8 1.6 1.2l.5-.1-.3.3 1.3-.4-1 .6.7-.3-.4.5c.5.3.9.6 1.3 1h.4l-.2.2.6-.2-.4.4c.1.1.2.2.4.3.1.1.7 3.9.7 3.9l.3.1s-.3-4.4-.3-4.5c.1-.4.1-1 0-1.5z" fill="#539b00"/><path d="m7.8 14.8c-.1-1.3-.2-3.6-.2-3.7.1-.4.1-1 0-1.5h-.4l.3-.1-.8.1.7-.4c-.2-.6-.5-1.2-1-1.8l-.8.1.5-.4-1.2.5 1.1-.6c-.5-.5-1.1-1-1.8-1.4l-.7.2.5-.4s0 0-.1 0l-1 .4.7-.5-.3.1.3-.3c-.6-.3-1.3-.7-2.1-1 .6 2.6 3 3.4 4.5 5.1 1.1 1.2 1.4 2.9 1.6 5.7.1.1.1 0 .2-.1z" opacity=".2"/><path d="m8.9 4.8-.3-.1.5.3h-.6c-.3.6-.6 1.3-.8 2l.4.4h-.5l.9.3h-1c-.1.6-.1 1.4-.1 2.1l.5.2-.5.1v.1l.8.2h-.7.3l-.3.1c0 .5.1.9.2 1.4 0 .2.2 2.4.2 2.4l.1.3s.1-2.3.2-2.3c1.2-.8 1.7-1.9 1.9-3.1l-.5-.3h.5l-.8-.3h.8c.1-.6.1-1.3.2-1.9l-.3-.2.4-.1-1-.3.9-.1-.5-.2.5-.1c0-.5 0-1.1.1-1.6l-.2-.1.2-.1s0 0 0-.1l-.4-.1.4-.1c0-.3.1-.6.2-.9-.6.3-1.3.9-1.9 1.8z" fill="#539b00"/><path d="m7.8 14.5.2.1s.1-2.3.2-2.3c1.2-.8 1.7-1.9 1.9-3.1l-.5-.3h.5l-.8-.3h.8c.1-.6.1-1.3.2-1.9l-.3-.2.4-.1-1-.3.9-.1-.5-.2.5-.1c0-.5 0-1.1.1-1.6l-.2-.1.2-.1s0 0 0-.1l-.4-.1.4-.1c0-.3.1-.6.2-.9-.8 1.1-1.6 3-2 5.3-.3 2.3-.8 3.2-.8 6.5z" opacity=".2"/><path d="m15.8 9.7c-.5-.7-3.5-1.2-2.2-.7.9.3 1.3.9 1.4 1.3h.5l-.5.2.2.1h-.2c.1.4 0 .6 0 .6s1.4-.6.8-1.5z" fill="#539b00"/><path d="m15.8 9.7c-.5-.7-3.5-1.2-2.2-.7.9.3 1.3.9 1.4 1.3h.5l-.5.2.2.1h-.2c.1.4 0 .6 0 .6s1.4-.6.8-1.5z" opacity=".3"/><path d="m12.8 7.6.2.3-.4-.3h-.1l.1.4-.5-.4h-.1l.1.2-.3-.1c-.6.2-1.2.5-1.9 1.1l.2.2-.4-.1s-.1.1-.1.1l.4.3-.5-.2.1.1h-.2c-.6.7-1.5 5.5-1.9 7.5-.1.3.4.1.4.1s.3-2.4.8-3.8c1.8-1.6 2.9-2.7 3.8-3.1l-.1-.4.4.2-.3-.6.6.4-.1-.2.3.3c1.5-.5 2.1-.1 2.5.1-.6-1-1.9-2-3-2.1z" fill="#539b00"/><path d="m8.2 13.6c.5-.6 3.6-.8 2.3-.4-.9.2-1.4.7-1.6 1.2h-.5l.4.2h-.3l.2.1c-.1.4-.4 1.7-.4 1.7s-.8-2-.1-2.8z" fill="#539b00"/><path d="m8.2 13.6c.5-.6 3.6-.8 2.3-.4-.9.2-1.4.7-1.6 1.2h-.5l.4.2h-.3l.2.1c-.1.4-.4 1.7-.4 1.7s-.8-2-.1-2.8z" opacity=".3"/><path d="m11.4 11.8-.2.3.5-.3h.1l-.2.4.5-.4h.1l-.1.2.4-.1c.6.2 1.2.6 1.7 1.3l-.3.2.4-.1s.1.1.1.1l-.4.5.5-.2-.1.1h.2c.5.7.8 2.8.3 3.8-1-2-2.5-3-3.4-3.5l.1-.4-.4.2.3-.6-.6.4.1-.2-.3.3c-1.4-.6-2-.3-2.5-.2.7-1 2.1-1.8 3.2-1.8z" fill="#539b00"/><path d="m14.6 13.8h-.2.2c-.1-.1-.1-.1-.1-.1l-.5.2.4-.3s-.1-.1-.1-.1l-.4.1.3-.2c-.6-.6-1.2-1.1-1.7-1.3l-.4.1.1-.2h-.1l-.5.4.2-.4h-.1l-.5.3.2-.3c-.9 0-2 .5-2.7 1.2 1.1-.4 5.7-1.8 6.2 4.6.5-1.2.2-3.3-.3-4z" opacity=".2"/><path d="m7.8 11.7c-.6-.5-4.2.1-2.6.1 1.1 0 1.6.4 1.9.8l.5-.1-.4.3h.3l-.2.1c.1.3.7 1.4.7 1.4s.7-2-.2-2.6z" fill="#539b00"/><path d="m7.8 11.7c-.6-.5-4.2.1-2.6.1 1.1 0 1.6.4 1.9.8l.5-.1-.4.3h.3l-.2.1c.1.3.7 1.4.7 1.4s.7-2-.2-2.6z" opacity=".3"/><path d="m3.9 10.7.3.2-.6-.1h-.1l.3.4-.6-.2s-.1 0-.1.1l.1.1h-.4c-.6.3-1.3.9-1.9 1.6l.3.1h-.5s-.1.1-.1.1l.5.2-.6-.1.2.1h-.2c-.5.8-.7 2.9.1 3.8.9-2.1 2.6-3.5 3.5-4.2l-.1-.2.5.1-.5-.5.7.2-.1-.2.4.2c1.6-.9 2.3-.8 2.8-.7-.8-.8-2.6-1.3-3.9-1z" fill="#539b00"/><path d="m.5 13.3h.2-.2c.1-.1.1-.1.1-.1l.6.1-.5-.3s.1-.1.1-.1h.5l-.3-.1c.6-.8 1.2-1.3 1.9-1.6h.4l-.3-.2s.1 0 .1-.1l.6.3-.3-.4h.1l.6.1-.3-.2c1-.2 2.3.1 3.3.6-1.3-.1-6.7-.5-6.6 5.8-.6-.9-.5-2.9 0-3.8z" opacity=".2"/><path d="m8.6 15.2-.4.6-.9-.6c.1 2.9-.2 6.4-.3 7.3 0 .2.3.3.9.3s.9-.2.9-.4c.1-1.3-.2-.7-.2-7.2z" fill="#825012"/><path d="m8.6 15.2-.4.6-.9-.6c.1 2.9-.2 6.4-.3 7.3 0 .2.3.3.9.3s.9-.2.9-.4c.1-1.3-.2-.7-.2-7.2z" opacity=".2"/><path d="m8.8 16.7-1.2 2.3-.6-.4c.1 3.1-.1 4.6-.2 5.5 0 .3.5.5 1.1.5s1.1-.2 1.1-.5c0-1.4-.2-.4-.2-7.4z" fill="#825012"/></svg>