<?xml version="1.0" encoding="utf-8"?>
<!-- Generator: Adobe Illustrator 18.1.0, SVG Export Plug-In . SVG Version: 6.00 Build 0)  -->
<svg version="1.1" id="Layer_1" xmlns="http://www.w3.org/2000/svg" xmlns:xlink="http://www.w3.org/1999/xlink" x="0px" y="0px"
	 viewBox="0 0 32 64" enable-background="new 0 0 32 64" xml:space="preserve">
<g>
	<g>
		<ellipse opacity="0.3" cx="15.5" cy="55" rx="7.5" ry="4"/>
		<path fill="#825012" d="M14,28v27c0,0.6,0.7,1,1.5,1s1.5-0.4,1.5-1V28H14z"/>
		<circle fill="#FFFFFF" cx="8.5" cy="23.5" r="6.5"/>
		<circle fill="#FFFFFF" cx="13" cy="15" r="9"/>
		<path fill="#825012" d="M16,43.4c2.6,0,3-0.9,3-3.4v-8h1v10c0,1.7-1.3,3-3,3h-1L16,43.4z"/>
		<path fill="#825012" d="M16,42.8c-1.7,0-3-0.4-3-2.1V31h-1v10c0,1.7,1.3,3,3,3h1L16,42.8z"/>
		<path fill="#825012" d="M14,21.8c-1.7,0-3-0.4-3-2.1V17h-1v3c0,1.7,1.3,3,3,3h1L14,21.8z"/>
		<circle fill="#FFFFFF" cx="20.5" cy="30.5" r="7.5"/>
		<circle fill="#FFFFFF" cx="25" cy="27" r="6"/>
		<path fill="#825012" d="M20,29.8c1.7,0,3-0.4,3-2.1V25h1v3c0,1.7-1.3,3-3,3h-1L20,29.8z"/>
		<path fill="#825012" d="M13,12.8c-1.7,0-3-0.4-3-2.1V8H9v3c0,1.7,1.3,3,3,3h1L13,12.8z"/>
		<rect x="13" y="14.4" fill="#825012" width="1" height="9.6"/>
		<circle fill="#FFFFFF" cx="22" cy="17" r="8"/>
		<circle fill="#FFFFFF" cx="17" cy="8" r="8"/>
		<path fill="#825012" d="M22,19.8c1.7,0,3-0.4,3-2.1V15h1v3c0,1.7-1.3,3-3,3h-1L22,19.8z"/>
		<circle fill="#FFFFFF" cx="13.3" cy="30.8" r="9.3"/>
		<path opacity="0.3" d="M31,27c0-0.4,0-0.8-0.1-1.2c-0.6,3.8-3.9,6.7-7.9,6.7c-0.1,0-0.3,0-0.4,0c0.7,0.3,1.6,0.5,2.4,0.5
			c0.7,0,1.3-0.1,1.9-0.3c-1.4,1.4-3.3,2.3-5.4,2.3c-1,0-2-0.2-2.9-0.6C17,36,14.7,37,12.3,37c-3.5,0-6.6-2-8.1-4.8
			c0.7,4.4,4.5,7.8,9.1,7.8c2.2,0,4.3-0.8,5.9-2.1C19.6,38,20,38,20.5,38c3.5,0,6.5-2.4,7.3-5.7C29.7,31.3,31,29.3,31,27z"/>
		<path opacity="0.3" d="M6,26.5c-1.9-0.8-3.4-2.4-3.9-4.5C2.1,22.5,2,23,2,23.5c0,2.4,1.3,4.4,3.2,5.6C5.3,28.2,5.6,27.3,6,26.5z"
			/>
		<path fill="#825012" d="M14,32.8c-1.7,0-3-0.4-3-2.1V28h-1v3c0,1.7,1.3,3,3,3h1L14,32.8z"/>
		<rect x="15" y="23" fill="#825012" width="2" height="7"/>
		<path fill="#825012" d="M17,13.4c1.7,0,3-0.4,3-2.1V8.6h1v3c0,1.7-1.3,3-3,3h-1L17,13.4z"/>
		<rect x="17" y="6" fill="#825012" width="1" height="9.6"/>
	</g>
</g>
</svg>
