<svg xmlns:xlink="http://www.w3.org/1999/xlink"  enable-background="new 0 0 48 72" height="72" viewBox="0 0 48 72" width="48" xmlns="http://www.w3.org/2000/svg"><path d="m23.6 20.1c.8.2 1.8-.6 3 .2 1.1.8 1.3 2.6 3.2 1.8s3-.5 3.5.7c.5 1.1 5.1-.9 4.8 1.7s-3.6 3.3-5.2 2.4-2.7-1.4-5.4.2c-1.9 1.1-2.2-1.3-3.7-.5s-5.9 2.2-6.4.5 2.3-2.3 2.2-3.5.8-4.4 4-3.5z" fill="#28896d"/><path d="m20.6 22.9c-1 2.8 1.2.2 4.1 1s5.9 1.7 7.1.7c1.2-.9 1.1-2.4-.5-1.9-1.3.5-3.9.9-4.5-.6s-2.3-.7-3.3-1.1c-1.9-.6-2.5.7-2.9 1.9z" fill="#fff" opacity=".2"/><path d="m35.9 23.1c.8 2.5-4.4 2.4-5.2 2.4-.9 0-4.4 1-4.9-.4-.6-1.4-4.6.8-6.2 1.1-1 .2-1-.6-.8-1.4-.8.6-1.7 1.2-1.4 2.2.5 1.7 4.9.3 6.4-.5s1.8 1.6 3.7.5c2.7-1.6 3.9-1.1 5.4-.2 1.6.9 5 .2 5.2-2.4.1-1.2-1-1.4-2.2-1.3z" opacity=".3"/><ellipse cx="24" cy="63" opacity=".3" rx="9" ry="4"/><path d="m32.7 29.6c-1.2 0-2.4.4-3.5 1.1l-2.6 1.8c1.6-3.2 1.5-6.7.5-10.2-.1-.2-.1-.4-.2-.6l2.5-11.9-.9-.2-2.4 9.2c-.1-.6-.3-1.1-.3-1.5l-3.1-11.4-2 .8 3.1 11.1-7.2-3.8-.1 1 7.6 4.6c.6 1.5 1.2 4.4 1.1 6.7l-3.5-1.5c-.5-.2-1.1-.3-1.7-.3h-4.8v2.1h4.8c.3 0 .7.1 1 .2l3.9 1.6v-.1c-.2 1-.5 2-1 2.9l-2.5 5.1c-1.3 2.6-1.6 7.1-1.3 11.1h-3.1c-.7 0-1.4-.4-1.7-1.1l-.3-.5c-.7-1.4-2-2.3-3.5-2.3h-2.7v2.1h2.8c.7 0 1.4.4 1.7 1.1l.2.5c.7 1.4 2 2.3 3.5 2.3h3.3l1.7 14.2v.1c0 .5 1.1.8 2.4.8s2.4-.4 2.4-.8l-2.8-14.6c-.5-2.5-.7-9.1.5-11.4l.4-1 5.4-4.4c.7-.5 1.5-.8 2.4-.8h1.1v-2.1h-1.1z" fill="#825012"/><path d="m16.2 6.2c.8 1.1 2.6-1.1 3.9 0s2.2 3.2 4 2.4c1.9-.8 1.6-2.3 3.2-2.1 2.3.3 2.6-2.7.9-3.1-1.4-.4-1.4-2.7-2.8-2.2-1.9.8-2.9-1.8-4.5-.3-1.8 1.7-1.3 3-2.8 2.8-1.4-.3-2.8 1.3-1.9 2.5z" fill="#28896d"/><path d="m17 4.6c-.1.8 3.7-.8 4.7 0s3.3.8 4.4-.1c1.8-1.4.2-2.4-1.2-2.5-.8-.1-2.4-.9-3-.9-1.7 0-2 2.3-2.7 2.6-.7.4-2.2.2-2.2.9z" fill="#fff" opacity=".2"/><path d="m28.9 3.8v.9c-.2 1.5-1.8.3-3.1 1.3s-2.3 1.8-3.4.5-2.5-1.5-4.2-1.1c-1.4.3-1.8-.1-1.7-1.2-.5.5-.8 1.3-.3 2.1.8 1.1 2.6-1.1 3.9 0s2.2 3.2 4 2.4c1.9-.8 1.6-2.3 3.2-2.1 1.9.1 2.5-1.9 1.6-2.8z" opacity=".3"/><path d="m25.2 11.7c-2.2-.2-3-2.4-1.2-3.2 1.9-.8 1.6-3.3 4.5-2.6 2.7.6 2.5 2.6 3.8 2.9 1.4.4 2.8.9 1.7 2.4-1 1.5-4-.6-5.4-.4-1.1.3-1.4 1.1-3.4.9z" fill="#28896d"/><path d="m27.9 6.5c1.4.2 1.7 1.3 3.3 2.2 1.7.9 1.9 1.2 1.4 1.7-.5.6-4.8-2.6-6.2-1.9-1.3.6 0-2.1 1.5-2z" fill="#fff" opacity=".2"/><path d="m23.5 8.8c.1 1 1.2 1.6 2.5 1 1.6-.8 2.7-.3 5.5.9 2 .8 3.1-.1 2.5-1.2.6.4.8.9.2 1.8-1 1.5-4-.6-5.4-.4-1.3.2-1.7 1-3.6.9-1.9-.3-2.8-2-1.7-3z" opacity=".3"/><path d="m20.9 39.2c1.2 1.2-1.4 2.3-2.3 3-.8.6 1.6 3.4-.3 4.4s-4.4-2-6.4-.7-10.2-1.7-9.9-4.6 3.7-.7 5.1-1.6 2.2-2.7 4-2.2 1.8-1.9 4.8 0c3.1 1.9 3.7.3 5 1.7z" fill="#28896d"/><path d="m19.9 22.7c2.3.1 3.4-2 1.7-3-1.7-1.1-1.1-3.5-4.1-3.2-2.8.2-2.8 2.2-4.2 2.3s-2.9.5-2.1 2.1 4.1 0 5.4.4c1.2.4 1.4 1.3 3.3 1.4z" fill="#28896d"/><path d="m18.1 39.3c1.5.8-1.2 1-1.9 1.9-1.3 1.5-2.7-.8-4.9.7s-6.7.9-6.9-.5 1.4-.5 2.9-1.2 2.5-2.3 4-1.7 2.5-1.3 3.6-.4 2.2.7 3.2 1.2z" fill="#fff" opacity=".2"/><path d="m18 17.1c-1.4-.1-1.8 1.1-3.6 1.7s-2.1.9-1.7 1.5 5.1-1.8 6.4-1c1.3.9.4-2.1-1.1-2.2z" fill="#fff" opacity=".2"/><path d="m2 41.3c0-.2.1-.3.1-.5.4 1.9 1.6 1.8 3.1 2.7 4.2 2.4 5.4 0 8.4.8s3.6.7 3.5-1.9c-.1-2.1 4.7-1.5 2.7-3.8.3.1.7.2 1.1.6 1.2 1.2-1.4 2.3-2.3 3s1.6 3.4-.3 4.4-4.4-2-6.4-.7c-1.9 1.2-10.2-1.8-9.9-4.6z" opacity=".3"/><path d="m26.9 35.8c-1 1 1.2 1.9 1.9 2.4s-1.3 2.8.2 3.6c1.5.9 3.7-1.7 5.3-.6 1.6 1 8.5-1.4 8.2-3.8s-3-.6-4.2-1.3-1.8-2.3-3.3-1.8-1.5-1.6-4 0-3 .3-4.1 1.5z" fill="#28896d"/><path d="m29.2 35.9c-1.2.6 1 .9 1.6 1.6 1 1.3 2.2-.7 4 .6s5.5.8 5.7-.4-1.2-.4-2.4-1-2.1-1.9-3.3-1.4-2.1-1.1-3-.4c-.8.7-1.7.5-2.6 1z" fill="#fff" opacity=".2"/><path d="m42.5 37.5c0-.1 0-.3-.1-.4-.3 1.6-1.3 1.5-2.5 2.2-3.4 2-4.5 0-7 .7s-3 .6-2.9-1.6c.1-1.7-3.8-1.2-2.2-3.2-.3 0-.6.2-.9.5-1 1 1.2 1.9 1.9 2.4s-1.3 2.8.2 3.6c1.5.9 3.7-1.7 5.3-.6 1.6 1.2 8.5-1.2 8.2-3.6z" opacity=".3"/><path d="m11.8 10c-1 1 1.2 1.9 1.9 2.4s-1.3 2.8.2 3.6c1.5.9 3.7-1.7 5.3-.6s8.5-1.4 8.2-3.8-3-.6-4.2-1.3-1.8-2.3-3.3-1.8-1.5-1.6-4 0-3 .3-4.1 1.5z" fill="#28896d"/><path d="m14.1 10.1c-1.2.6 1 .9 1.6 1.6 1 1.3 2.2-.7 4 .6s5.5.8 5.7-.4-1.2-.4-2.4-1-2.1-1.9-3.3-1.4-2.1-1.1-3-.4c-.8.7-1.7.5-2.6 1z" fill="#fff" opacity=".2"/><path d="m27.4 11.7c0-.1 0-.3-.1-.4-.3 1.6-1.3 1.5-2.5 2.2-3.4 2-4.5 0-7 .7s-3 .6-2.9-1.6c.1-1.7-3.8-1.2-2.2-3.2-.3 0-.6.2-.9.5-1 1 1.2 1.9 1.9 2.4s-1.3 2.8.2 3.6c1.5.9 3.7-1.7 5.3-.6 1.7 1.2 8.5-1.3 8.2-3.6z" opacity=".3"/><path d="m22.1 20.1c-.3.9-1.4 1.4-2.6.6-1.4-1-2.7-.7-5.6 0-2.1.5-3.1-.6-2.3-1.6-.6.3-.9.8-.4 1.8.8 1.6 4.1 0 5.4.4s1.5 1.3 3.4 1.4 3-1.5 2.1-2.6z" opacity=".3"/><path d="m10.8 37.9c1.3 1.8 4.3-1.7 6.4 0s3.5 5.3 6.6 4 2.6-3.9 5.3-3.5c3.8.5 4.3-4.4 1.4-5.2-2.3-.6-2.4-4.5-4.6-3.6-3.2 1.3-4.7-3-7.3-.5-3 2.7-2.2 4.9-4.6 4.5s-4.7 2.1-3.2 4.3z" fill="#28896d"/><path d="m12.1 35.2c-.1 1.4 6-1.2 7.8 0 1.7 1.2 5.4 1.3 7.2-.1 3-2.2.3-3.9-1.9-4.1-1.3-.1-4-1.5-5-1.5-2.9 0-3.3 3.8-4.5 4.3-1.2.6-3.5.2-3.6 1.4z" fill="#fff" opacity=".2"/><path d="m31.6 33.8v1.5c-.3 2.4-2.9.5-5.1 2.1s-3.8 3-5.6.9-4.2-2.5-6.9-1.9c-2.3.6-3-.1-2.9-2-.9.9-1.3 2.2-.4 3.4 1.3 1.8 4.3-1.7 6.4 0s3.5 5.3 6.6 4 2.6-3.9 5.3-3.5c3.2.4 4.1-2.9 2.6-4.5z" opacity=".3"/><path d="m27.1 31.4c-2.4-.5-3.1-3-.9-3.7 2.1-.7 2.1-3.4 5.3-2.3 2.9 1 2.4 3.1 3.9 3.7s2.9 1.3 1.6 2.9c-1.3 1.5-4.3-1.2-5.8-1.1-1.6.1-2 .9-4.1.5z" fill="#28896d"/><path d="m30.6 26c1.5.3 1.7 1.6 3.4 2.8 1.7 1.1 2 1.5 1.4 2.1s-5-3.4-6.6-2.8.2-2.4 1.8-2.1z" fill="#fff" opacity=".2"/><path d="m25.5 28c0 1.1 1.1 1.9 2.6 1.4 1.8-.7 3 0 5.9 1.6 2.1 1.1 3.5.3 2.9-1 .6.5.7 1.1 0 2-1.3 1.5-4.3-1.2-5.8-1.1s-1.9 1-4 .5c-2.1-.4-2.9-2.4-1.6-3.4z" opacity=".3"/><path d="m28.3 12.1c-1.6-.2-2.4 2.2-4 1.2-1.9-1.1-3-.1-3.9 1.2-.8 1.2-2.1 1.3-1.1 3.1.8 1.4 2 .7 3.7.6 1.9 0 3 1 3.3 2.6s2.1 2.7 4.1 2 1.2-2.9 3.7-2.5c2.4.4 2.7-1.7 1.9-3.4-.8-1.6-2.4-2.8-4-2.3-2.4.8-1.8-2.2-3.7-2.5z" fill="#28896d"/><path d="m34.3 16.3c.9 1.1.2 2.9-2.4 2s-2.6-3.4-6.1-2.3-4.8-2-3.2-1.8c1.7.2 2.1.6 4.6-1 1.3-.9 2.1 2.5 3.8 2.3 1.6-.1 2.7.1 3.3.8z" fill="#fff" opacity=".2"/><path d="m19.1 16.1c.4 2.1 3.6 1.4 5.7 1.3 2.3-.2 3.7 4.8 5.3 3.3 1.1-1 2.5-1.6 4.2-1.1 1.2.4 1.8-.8 1.8-2.3.7 1.6.4 3.5-2 3.2-2.6-.4-1.8 1.8-3.7 2.5s-3.8-.5-4.1-2c-.3-1.6-1.4-2.6-3.3-2.6-1.7 0-3 .8-3.7-.6-.4-.9-.4-1.4-.2-1.7z" opacity=".3"/><path d="m23.7 39.9c2.6-2 3.5.2 4.3.7.8.4 2-.6 3.3.3s1.4 2.9 3.5 2 3.4-.5 3.9.8c.6 1.3 5.7-.9 5.4 1.9-.3 2.9-4.1 3.7-5.8 2.6-1.8-1-3-1.6-6.1.2-2.1 1.3-2.5-1.5-4.2-.5-1.7.9-6.6 2.4-7.1.5s2.6-2.6 2.5-3.9c0-1.3-1.6-3.1.3-4.6z" fill="#28896d"/><path d="m24.7 40.5c-1.4.6.5 1.8 0 3.1-1.1 3.1 1.4.3 4.5 1.1 3.3.9 6.5 1.9 7.9.9s1.2-2.7-.6-2.1c-1.5.5-4.4 1-5-.7s-2.7-.6-3.7-1.2c-1-.5-1.6-1.7-3.1-1.1z" fill="#fff" opacity=".2"/><path d="m41.7 44c.8 2.8-4.9 2.6-5.9 2.6s-4.9 1.1-5.5-.5-5.2.9-6.9 1.2c-1.1.2-1.1-.7-.9-1.5-.8.7-1.8 1.4-1.5 2.5.5 1.9 5.4.4 7.1-.5s2 1.8 4.2.5c3.1-1.8 4.3-1.2 6.1-.2s5.5.3 5.8-2.6c.1-1.4-1.1-1.5-2.5-1.5z" opacity=".3"/><path d="m14.8 21.8c1.6-.2 2.4 2.2 4 1.2 1.9-1.1 3-.1 3.9 1.2.8 1.2 2.1 1.3 1.1 3.1-.8 1.4-2 .7-3.7.6-1.9 0-3 1-3.3 2.6s-2.1 2.7-4.1 2-1.2-2.9-3.7-2.5c-2.4.4-2.7-1.7-1.9-3.4s2.4-2.8 4-2.3c2.3.8 1.7-2.3 3.7-2.5z" fill="#28896d"/><path d="m8.8 26c-.9 1.1-.2 2.9 2.4 2s2.6-3.4 6.1-2.3 4.8-2.1 3.3-1.9c-1.7.2-2.1.6-4.6-1-1.3-.9-2.1 2.5-3.8 2.3-1.8-.1-2.9.2-3.4.9z" fill="#fff" opacity=".2"/><path d="m24 25.7c-.4 2.1-3.6 1.4-5.7 1.3-2.3-.2-3.7 4.8-5.3 3.3-1.1-1-2.5-1.6-4.2-1.1-1.2.4-1.8-.8-1.8-2.3-.7 1.6-.4 3.5 2 3.2 2.6-.4 1.8 1.8 3.7 2.5s3.8-.5 4.1-2c.3-1.6 1.4-2.6 3.3-2.6 1.7 0 3 .8 3.7-.6.4-.9.4-1.3.2-1.7z" opacity=".3"/></svg>