<svg xmlns:xlink="http://www.w3.org/1999/xlink"  enable-background="new 0 0 48 64" height="64" viewBox="0 0 48 64" width="48" xmlns="http://www.w3.org/2000/svg"><ellipse cx="24" cy="55" opacity=".3" rx="9" ry="4"/><path d="m2.6 31.6c-.9 1.1 4 1.1 4.7 1.5.8.4-1 3 .7 3.6s3.5-2.1 5.2-1.2 9.2-1.1 8.7-3.5c-.6-2.4-4-1.5-5.3-2.1s-2.1-2.1-3.5-1.4c-1.4.6-1.6-1.4-4 .4-2.3 2-5.5 1.5-6.5 2.7z" fill="#28896d"/><path d="m7.5 30.8c-1.1.8 1.1.8 1.8 1.4 1.2 1.2 2.1-1 4.1.1s5.7.1 5.7-1c0-1.2-1.2-.3-2.5-.7s-2.3-1.6-3.5-1c-1.1.6-2.2-.8-3 0-.8.6-1.8.6-2.6 1.2z" fill="#fff" opacity=".2"/><path d="m18.4 2.3c.6.2 1.5-.5 2.4.2.9.6 1 2.1 2.6 1.5s2.5-.4 2.9.5 4.2-.7 4 1.4-3 2.7-4.3 1.9-2.2-1.2-4.4.1c-1.6.9-1.8-1.1-3-.4s-4.8 1.8-5.2.4 1.9-1.9 1.8-2.8.6-3.6 3.2-2.8z" fill="#28896d"/><path d="m16 4.6c-.8 2.3 1 .2 3.3.8 2.4.6 4.8 1.4 5.8.6s.9-2-.4-1.5c-1.1.4-3.2.8-3.6-.5s-1.9-.6-2.7-.9c-1.6-.6-2.1.5-2.4 1.5z" fill="#fff" opacity=".2"/><path d="m28.4 4.7c.6 2-3.6 1.9-4.3 1.9s-3.6.8-4-.3-3.8.7-5 .9c-.8.1-.8-.5-.7-1.1-.6.5-1.3 1-1.1 1.8.4 1.4 4 .3 5.2-.4s1.5 1.3 3 .4c2.3-1.3 3.2-.9 4.5-.1s4.1.2 4.3-1.9c0-1.1-.9-1.2-1.9-1.2z" opacity=".3"/><path d="m32.7 23.3c-1.2 0-2.4.4-3.5 1.1l-2.6 1.7c1.6-3.1 1.5-5.8.5-9.2-.1-.2-.1-.4-.2-.6l1.4-7.5-.9-.2-1.3 5c-.1-.6-.3-1.1-.3-1.4l-.6-3.6-2 .7.5 3.3-6.1-2.8-.1.9 6.6 3.6c.2.8.4 1.6.7 2.5.3 1.1.5 2.2.5 3.3l-3.5-1.4c-.5-.2-1.1-.3-1.7-.3h-4.8v2h4.7c.3 0 .7.1 1 .2l3.9 1.6v-.1c-.2 1-.5 1.9-1 2.7l-2.5 4.8c-1.3 2.5-1.6 6-1.3 9.8h-3.1c-.7 0-1.4-.4-1.7-1.1l-.2-.3c-.7-1.3-2-2.2-3.5-2.2h-2.8v2h2.8c.7 0 1.4.4 1.7 1.1l.2.4c.7 1.3 2 2.2 3.5 2.2h3.3l1.7 14.2v.1c0 .4 1.1.8 2.4.8s2.4-.4 2.4-.8l-2.8-14.6c-.5-2.4-.7-7.9.5-10.1l.4-1 5.4-4.2c.7-.5 1.5-.7 2.4-.7h1.1v-2h-1.1z" fill="#825012"/><path d="m19.2 3.6c-1.2 1.2 1.4 2.3 2.3 3s-1.6 3.4.3 4.4 4.4-2 6.4-.7 10.2-1.7 9.9-4.6c-.4-3-3.7-.8-5.1-1.7s-2.2-2.7-4-2.2c-1.8.6-1.8-1.9-4.8 0s-3.7.4-5 1.8z" fill="#28896d"/><path d="m17.4 12.5c2.3.1 3.4-2 1.7-3-1.8-1.1-1.1-3.5-4.2-3.3-2.8.2-2.8 2.2-4.2 2.3s-2.9.5-2.1 2.2c.8 1.6 4.1 0 5.4.4s1.5 1.3 3.4 1.4z" fill="#28896d"/><path d="m22 3.7c-1.5.8 1.2 1 1.9 1.9 1.3 1.5 2.7-.8 4.9.7s6.7.9 6.9-.5-1.4-.5-2.9-1.2-2.5-2.3-4-1.7-2.5-1.3-3.6-.4c-1.1.8-2.2.7-3.2 1.2z" fill="#fff" opacity=".2"/><path d="m15.5 6.9c-1.4-.1-1.8 1.1-3.6 1.7s-2.1.9-1.7 1.5 5.1-1.8 6.4-1c1.3.9.4-2.1-1.1-2.2z" fill="#fff" opacity=".2"/><path d="m38.1 5.6c0-.2-.1-.3-.1-.5-.4 1.9-1.6 1.8-3.1 2.7-4.2 2.4-5.4 0-8.4.8s-3.6.7-3.5-1.9c.1-2.1-4.7-1.5-2.7-3.8-.3.1-.7.2-1.1.6-1.2 1.2 1.4 2.3 2.3 3s-1.6 3.4.3 4.4 4.4-2 6.4-.7c1.9 1.3 10.2-1.7 9.9-4.6z" opacity=".3"/><path d="m19.6 9.9c-.3.9-1.4 1.4-2.6.6-1.4-1-2.7-.7-5.6 0-2.1.5-3.1-.5-2.3-1.5-.6.3-.9.8-.4 1.8.8 1.6 4.1 0 5.4.4s1.5 1.3 3.4 1.4c1.9 0 3-1.6 2.1-2.7z" opacity=".3"/><path d="m26.9 19.3c.1 2.2 4.5 1 5.3 3.6s0 6.4 3.3 7 4.3-1.7 6.4 0c2.9 2.5 6-1.2 4.1-3.5-1.6-1.8.5-5-1.8-5.6-3.3-.7-2.2-5.1-5.8-4.5-4 .6-4.6 2.8-6.3 1.2s-5.3-.8-5.2 1.8z" fill="#28896d"/><path d="m29.4 17.8c-.8 1.1 5.7 2.3 6.4 4.3s3.8 4.1 6.1 4c3.7-.2 2.4-3.1.7-4.4-1-.8-2.5-3.4-3.3-4-2.3-1.6-4.8 1.3-6.1 1.1-1.3-.3-3-1.9-3.8-1z" fill="#fff" opacity=".2"/><path d="m46.4 27.6c-.2.4-.5.8-.9 1.3-1.6 1.9-2.7-1.2-5.4-1.1s-4.8.4-5.1-2.4-2-4.4-4.7-5.4c-2.2-.8-2.4-1.8-1.2-3.3-1.2.2-2.3 1.1-2.2 2.6.1 2.2 4.5 1 5.3 3.6s0 6.4 3.3 7 4.3-1.7 6.4 0c2.3 2.1 4.9-.2 4.5-2.3z" opacity=".3"/><path d="m43.3 26.2c2 1.1 3.9-.3 2.8-2s.6-3.6-2.3-4.7c-2.6-1-3.5.7-4.8.2-1.4-.5-2.8-.8-2.8 1s3.7 1.8 4.6 2.7c1 1 .8 1.8 2.5 2.8z" fill="#28896d"/><path d="m44 20.3c-1.2-.7-2.1.1-4-.1s-2.2-.1-2.2.6c.1.7 5.4.6 6.2 2s1.3-1.7 0-2.5z" fill="#fff" opacity=".2"/><path d="m46.4 24.8c-.6.7-1.9.7-2.6-.6-.9-1.5-2.1-1.8-5-2.4-2.1-.5-2.5-1.9-1.4-2.4-.7 0-1.2.3-1.2 1.4 0 1.8 3.7 1.8 4.6 2.7s.8 1.8 2.5 2.7 3.4 0 3.1-1.4z" opacity=".3"/><path d="m13.8 12.6c1.6-.2 2.4 2.2 4 1.2 1.9-1.1 3-.1 3.9 1.2.8 1.2 2.1 1.3 1.1 3.1-.8 1.4-2 .7-3.7.6-1.9 0-3 1-3.3 2.6s-2.1 2.7-4.1 2-1.2-2.9-3.7-2.5c-2.4.4-2.7-1.7-1.9-3.4s2.4-2.8 4-2.3c2.3.8 1.7-2.2 3.7-2.5z" fill="#28896d"/><path d="m7.8 16.8c-.9 1.1-.2 2.9 2.4 2s2.6-3.4 6.1-2.3 4.8-2.1 3.3-1.9c-1.7.2-2.1.6-4.6-1-1.3-.9-2.1 2.5-3.8 2.3-1.8 0-2.9.2-3.4.9z" fill="#fff" opacity=".2"/><path d="m23 16.6c-.4 2.1-3.6 1.4-5.7 1.3-2.3-.2-3.7 4.8-5.3 3.3-1.1-1-2.5-1.6-4.2-1.1-1.2.4-1.8-.8-1.8-2.3-.7 1.6-.4 3.5 2 3.2 2.6-.4 1.8 1.8 3.7 2.5s3.8-.5 4.1-2c.3-1.6 1.4-2.6 3.3-2.6 1.7 0 3 .8 3.7-.6.4-.9.4-1.4.2-1.7z" opacity=".3"/><path d="m1.6 32.6c1.8-2.7 3.4-.9 4.3-.8.9.2 1.7-1.2 3.2-.8s2.2 2.3 4 .8c1.7-1.6 3-1.6 4-.5.9 1 5.1-2.7 5.7.1s-2.7 4.8-4.7 4.3c-2-.4-3.4-.6-5.7 2.1-1.6 1.9-2.8-.6-4.1.8s-5.5 4.4-6.6 2.8 1.7-3.3 1.2-4.5-2.6-2.3-1.3-4.3z" fill="#28896d"/><path d="m2.7 32.8c-1.1 1 1.1 1.5 1 3-.1 3.3 1.4-.2 4.7-.4 3.4-.2 6.8-.3 7.8-1.7s.3-3-1.2-1.8c-1.2 1-3.8 2.3-4.9.9s-2.7.3-3.9 0c-1.3-.1-2.2-1-3.5 0z" fill="#fff" opacity=".2"/><path d="m20 30.7c1.7 2.4-3.8 4-4.7 4.3s-4.3 2.6-5.4 1.3-4.6 2.5-6.2 3.3c-1 .5-1.3-.3-1.3-1.2-.6.9-1.3 1.9-.7 2.9 1.1 1.7 5.3-1.3 6.6-2.7s2.5 1.1 4.1-.8c2.3-2.7 3.7-2.5 5.7-2.1s5.3-1.5 4.7-4.3c-.3-1.4-1.5-1.2-2.8-.7z" opacity=".3"/></svg>