<svg xmlns:xlink="http://www.w3.org/1999/xlink"  enable-background="new 0 0 64 64" height="64" viewBox="0 0 64 64" width="64" xmlns="http://www.w3.org/2000/svg"><path d="m17.5 16c.8-1.2 6.2-2 3.9-1.2-1.6.6-2.2 1.5-2.5 2.3l-.8.1.7.2v.1l-.4.1.4.1c-.1.6 0 1.1 0 1.1s-2.3-1.2-1.3-2.8z" fill="#539b00"/><path d="m17.5 16c.8-1.2 6.2-2 3.9-1.2-1.6.6-2.2 1.5-2.5 2.3l-.8.1.7.2v.1l-.4.1.4.1c-.1.6 0 1.1 0 1.1s-2.3-1.2-1.3-2.8z" opacity=".3"/><path d="m22.8 12.3-.3.5.8-.5h.2l-.3.8.8-.8h.2l-.2.3.6-.2c1.1.3 2.2.9 3.3 1.9l-.5.4.7-.2c.1 0 .1.1.2.1l-.6.7.8-.4s0 0 .1.1l-.2.2.3-.1c1.1 1.2 2.7 9.7 3.4 13.3.1.4-.8.1-.8.1s-.5-4.3-1.4-6.8c-3.2-2.9-5.1-4.8-6.7-5.5l.2-.7-.5.5.4-1-1 .7.1-.4-.5.5c-2.7-.9-3.7-.2-4.4.2 1-1.7 3.4-3.5 5.3-3.7z" fill="#539b00"/><ellipse cx="32" cy="40" opacity=".3" rx="6" ry="2.8"/><path d="m30.3 11.5-.6-.2 1.5.1-1.4-.5c.2-1 .6-2.1 1.3-3.3l1.4-.1-1-.5 2.3.5-2-.8c.7-1 1.6-1.9 2.7-2.9l1.4.2-1-.5s.1-.1.1-.1l1.8.4-1.4-.8.6.2-.5-.4c1-.8 2.1-1.5 3.3-2.3 1.8 2.4 1.4 4.5.1 6.4l-1.2-.1 1 .5v.1l-2-.4 1.7.8c-.7.9-1.5 1.7-2.4 2.6l-1-.1.6.4s0 0-.1.1l-2.3-.4 1.7.9s0 0-.1.1l-1.1-.4.9.6c-.7.7-1.4 1.4-2.1 2.1l-.7.1.4.3s0 0-.1.1l-1-.2.7.5c-.2.2-.4.4-.5.7-.1.2-.1 7-.1 7l-.5.3s-.7-7.7-.8-8c-.3-.7-.5-1.7-.4-2.7z" fill="#539b00"/><path d="m30.7 20.8c-.2-2.3-.6-6.3-.6-6.5-.3-.7-.5-1.7-.4-2.7l.6-.1-.6-.2 1.5.1-1.4-.5c.2-1 .6-2.1 1.3-3.3l1.4-.1-1-.5 2.3.5-2-.8c.7-1 1.6-1.9 2.7-2.9l1.4.2-1-.5s.1-.1.1-.1l1.8.4-1.4-.8.6.2-.5-.4c1-.8 2.1-1.5 3.3-2.3-.4 4.7-4.4 6.8-6.5 10.2-1.5 2.4-1.6 5.5-1.3 10.4-.1-.1-.2-.2-.3-.3z" opacity=".2"/><path d="m26 5.5.4-.2-.7.7 1.1-.2c.7.9 1.4 2.1 1.9 3.4l-.7.7 1-.1-1.5.7 1.7-.3c.4 1.1.7 2.4.9 3.7l-.9.5h.9v.1l-1.3.6 1.2-.1-.4.2.6.1c.1.8.1 1.6.1 2.5 0 .3.3 4.3.3 4.3l-.3.3s-.7-4-.9-4.1c-2.2-1.1-3.5-2.9-4.2-4.9l.7-.5-.9.2v-.1l1.3-.6-1.5.2c-.3-1-.6-2.2-.8-3.3l.6-.4h-.6v-.1l1.5-.8h-1.6v-.1l.9-.4h-.9c-.2-.9-.4-1.8-.6-2.8l.3-.4h-.4v-.1l.5-.2-.8-.1c-.2-.5-.3-1-.5-1.5 1.1.2 2.5 1.2 3.8 2.7z" fill="#539b00"/><path d="m30.6 22.1-.2.2s-.7-4-.9-4.1c-2.2-1.1-3.5-2.9-4.2-4.9l.7-.5-1 .3v-.1l1.3-.6-1.5.2c-.3-1-.6-2.2-.8-3.3l.6-.4h-.6v-.1l1.5-.8h-1.6v-.1l.9-.4h-.9c-.2-.9-.4-1.8-.6-2.8l.3-.4h-.4v-.1l.5-.2-.8-.1c-.2-.5-.3-1-.5-1.5 1.8 1.7 3.6 4.9 4.9 8.8 1.3 3.7 2.3 5.2 3.3 10.9z" opacity=".2"/><path d="m45.6 11.2c-1.2-.9-8 .1-5 .2 2 .1 3.1.8 3.6 1.5l1-.2-.8.5v.1h.6l-.5.2c.3.6 1.3 2.8 1.3 2.8s1.5-3.9-.2-5.1z" fill="#539b00"/><path d="m45.6 11.2c-1.2-.9-8 .1-5 .2 2 .1 3.1.8 3.6 1.5l1-.2-.8.5v.1h.6l-.5.2c.3.6 1.3 2.8 1.3 2.8s1.5-3.9-.2-5.1z" opacity=".3"/><path d="m38.3 9.4.5.4-1.1-.3c-.1 0-.2.1-.3.1l.6.7-1.2-.5c-.1 0-.2.1-.3.1l.3.3h-.8c-1.2.6-2.4 1.7-3.5 3.1l.7.2-.9.1c0 .1-.1.1-.1.2l.9.5-1.1-.3s0 .1-.1.1l.3.2h-.4c-1 1.6-1.2 5.5.2 7.1 1.7-4 4.9-6.6 6.7-7.9l-.4-.6.9.1-.8-.9 1.4.4-.2-.4.7.3c3-1.8 4.4-1.5 5.4-1.3-1.7-1.3-5-2.2-7.4-1.7z" fill="#539b00"/><path d="m31.8 14.3h.4l-.2-.2s0-.1.1-.1l1.1.2-.9-.5c0-.1.1-.1.1-.2l.9-.1-.7-.2c1.1-1.4 2.3-2.4 3.5-3.1h.8l-.3-.3c.1 0 .2-.1.3-.1l1.2.5-.6-.7c.1 0 .2-.1.3-.1l1.1.3-.5-.4c1.9-.4 4.4.1 6.2 1.1-2.4-.3-12.7-.9-12.5 11-1.5-1.6-1.3-5.5-.3-7.1z" opacity=".2"/><path d="m33.6 19.8-2.3 2.5-1.1-1c.1 5.8-.1 17.2-.3 18.9 0 .5.9.9 2 .9s2-.4 2-.9c.1-2.5-.3-7.6-.3-20.4z" fill="#825012"/><path d="m32.9 21.8c.3-.9 0-1.8.3-1.9.6-.2.8 1.2.4 2.2s-1.5 1.8-1.8 1.3c0-.2.8-.8 1.1-1.6z" fill="#fc0"/><path d="m33.5 21.9c.3-.7.2-1.7-.1-2.1.5.1.6 1.3.3 2.2-.4 1-1.5 1.8-1.8 1.3.5.2 1.3-.6 1.6-1.4z" opacity=".15"/><path d="m29.7 22c.3.9 1.1 1.4.9 1.7-.4.5-1.4-.5-1.7-1.5s.1-2.4.6-2.1c.3.1-.1 1 .2 1.9z" fill="#fc0"/><path d="m29.1 22.2c.2.8.9 1.5 1.3 1.6-.4.2-1.3-.7-1.6-1.6-.3-1 .1-2.3.6-2.2-.3.3-.5 1.4-.3 2.2z" opacity=".15"/><path d="m33.2 22.5c.7-.6.7-1.6 1.1-1.6.6.1.2 1.5-.5 2.2s-2.1 1.1-2.2.5c0-.2 1-.4 1.6-1.1z" fill="#fc0"/><path d="m33.7 22.9c.6-.6.9-1.5.8-1.9.4.3 0 1.5-.6 2.1-.7.7-2.1 1.1-2.2.5.3.3 1.4 0 2-.7z" opacity=".15"/><path d="m32.2 22.3c.3-.9-.1-1.8.3-1.9.6-.2.9 1.2.5 2.2-.3 1-1.4 1.9-1.8 1.4-.1-.3.7-.9 1-1.7z" fill="#fc0"/><path d="m32.8 22.4c.3-.7.2-1.7-.2-2.1.5.1.7 1.3.4 2.2-.3 1-1.4 1.9-1.8 1.4.5.1 1.3-.6 1.6-1.5z" opacity=".15"/><path d="m31.9 20.3c.2 0 .6 1 .4 2s-.7 1.8-1.1 1.7.2-.9.3-1.9 0-1.9.4-1.8z" fill="#fc0"/><path d="m32 22.2c.1-.8.1-1.5-.1-1.9.2.1.5 1 .3 2s-.6 1.7-1 1.7c.4-.3.7-.9.8-1.8z" opacity=".15"/><path d="m29.3 22.5c.5.7 1.5 1 1.4 1.3-.2.6-1.5 0-2.1-.8s-.7-2.3-.1-2.2c.3-.1.3.9.8 1.7z" fill="#fc0"/><path d="m28.9 22.9c.5.6 1.3 1.1 1.8 1.1-.3.3-1.5-.2-2-1-.6-.8-.7-2.2-.1-2.2-.4.2-.3 1.3.3 2.1z" opacity=".15"/><path d="m30.4 22.2c.3.9 1.1 1.4.9 1.7-.3.5-1.4-.4-1.7-1.4s0-2.4.6-2.2c.2.1-.1 1.1.2 1.9z" fill="#fc0"/><path d="m29.8 22.5c.2.8.9 1.5 1.4 1.6-.4.2-1.3-.6-1.6-1.5-.3-1 0-2.3.6-2.2-.5.2-.7 1.2-.4 2.1z" opacity=".15"/><path d="m31.3 23.9c.3-.1.4-3.6-.2-3.6-.6-.1-.4 3.9.2 3.6z" fill="#fc0"/><path d="m31.1 20.3c.7.1.5 3.5.2 3.6.1-.9.1-2.7-.2-3.6z" opacity=".15"/><path d="m29.5 25.2c-.5-.8-.4-1.7-.8-1.8-.6 0-.5 1.4.1 2.2.6.9 1.9 1.5 2.1.9 0-.2-.9-.5-1.4-1.3z" fill="#fc0"/><path d="m29 25.5c-.4-.7-.6-1.6-.4-2-.4.2-.3 1.4.2 2.2.6.9 1.9 1.4 2.1.9-.5.2-1.5-.4-1.9-1.1z" opacity=".15"/><path d="m30.1 25c-.3-.9.1-1.8-.3-1.9-.6-.2-.9 1.2-.5 2.2.3 1 1.4 1.9 1.8 1.4.1-.3-.7-.9-1-1.7z" fill="#fc0"/><path d="m29.5 25.1c-.3-.7-.2-1.7.2-2.1-.5.1-.7 1.3-.4 2.2.3 1 1.4 1.9 1.8 1.4-.5.1-1.3-.7-1.6-1.5z" opacity=".15"/><path d="m30.4 22.9c-.2 0-.6 1-.4 2s.7 1.8 1.1 1.7-.2-.9-.3-1.9c-.1-.9 0-1.8-.4-1.8z" fill="#fc0"/><path d="m30.3 24.9c-.1-.8-.1-1.5.1-1.9-.2.1-.5 1-.3 2s.6 1.7 1 1.7c-.4-.3-.7-1-.8-1.8z" opacity=".15"/><path d="m33.4 25c-.5.7-1.5 1-1.4 1.3.2.6 1.5 0 2.1-.8s.7-2.3.1-2.2c-.3-.1-.3.9-.8 1.7z" fill="#fc0"/><path d="m33.8 25.4c-.5.6-1.3 1.1-1.8 1.1.3.3 1.5-.2 2-1 .6-.8.7-2.2.1-2.2.4.3.2 1.4-.3 2.1z" opacity=".15"/><path d="m32.8 25c.5-.8.3-1.8.7-1.8.6-.1.6 1.4 0 2.2-.6.9-1.8 1.5-2 1-.1-.2.8-.6 1.3-1.4z" fill="#fc0"/><path d="m33.3 25.3c.4-.7.5-1.6.3-2 .4.2.4 1.4-.1 2.2-.5.9-1.8 1.5-2 1 .4.1 1.4-.4 1.8-1.2z" opacity=".15"/><path d="m31.9 24.9c-.3.9-1.1 1.4-.9 1.7.3.5 1.4-.4 1.7-1.4s0-2.4-.6-2.2c-.2.1.1 1.1-.2 1.9z" fill="#fc0"/><path d="m32.5 25.2c-.2.8-.9 1.5-1.4 1.6.4.2 1.3-.6 1.6-1.5.3-1 0-2.3-.6-2.2.5.1.7 1.2.4 2.1z" opacity=".15"/><path d="m31 26.6c-.3-.2 0-3.6.7-3.6.6 0-.2 3.9-.7 3.6z" fill="#fc0"/><path d="m31.7 23c-.7 0-1 3.4-.7 3.6 0-.9.3-2.7.7-3.6z" opacity=".15"/><ellipse cx="16" cy="48" opacity=".3" rx="6" ry="2.8"/><path d="m14.7 19 .6-.2-1.5.2 1.3-.8c-.3-1-.9-2-1.8-3.1l-1.4.2 1-.7-2.2.8 1.9-1.2c-.8-.8-1.9-1.7-3.1-2.5l-1.3.4.8-.5s-.1 0-.1-.1l-1.8.7 1.2-.8-.6.3.5-.5c-1-.7-2.2-1.2-3.6-1.8-1.4 2.7-.7 4.7.9 6.4l1.2-.3-.9.6s0 0 .1.1l1.9-.7-1.6 1c.8.8 1.8 1.5 2.8 2.2l.9-.2-.6.5s0 0 .1.1l2.2-.7-1.6 1s0 0 .1.1l1.2-.5-.8.7c.8.6 1.6 1.1 2.4 1.8l.7-.1-.4.4s0 0 .1.1l.9-.4-.6.6c.2.2.4.4.6.6s1.2 6.9 1.2 6.9l.5.2s-.6-7.7-.5-8c.2-.8.2-1.7 0-2.7z" fill="#539b00"/><path d="m15.8 28.2c-.2-2.3-.4-6.3-.4-6.5.2-.8.2-1.7 0-2.7h-.6l.6-.2-1.6.2 1.3-.8c-.3-1-.9-2-1.8-3.1l-1.4.2 1-.7-2.2.8 1.9-1.2c-.8-.8-1.9-1.7-3.1-2.5l-1.3.4.8-.5s-.1 0-.1-.1l-1.8.7 1.2-.8-.6.3.5-.5c-1-.7-2.2-1.2-3.6-1.8 1.1 4.6 5.4 6 8 9.1 1.9 2.1 2.4 5.2 2.9 10.1.1-.1.2-.2.3-.4z" opacity=".2"/><path d="m17.8 11.6-.4-.1.9.5-1.3.1c-.6 1-1 2.2-1.4 3.6l.8.6h-.9l1.6.5h-1.7c-.2 1.2-.3 2.4-.3 3.8l.9.4-.9.1v.1l1.3.4-1.2.1.4.1-.6.2c.1.8.1 1.6.3 2.5.1.3.3 4.3.3 4.3l.4.3s.1-4 .3-4.2c2-1.5 3-3.4 3.4-5.5l-.7-.4h.9v-.1l-1.4-.4h1.5c.2-1.1.2-2.2.3-3.4l-.6-.3.6-.1v-.1l-1.6-.6 1.6-.2v-.1l-.9-.2.9-.2c0-.9.1-1.9.2-2.8l-.4-.3.4-.1v-.1l-.7-.2.8-.2c.1-.5.2-1 .3-1.6-1.1.4-2.3 1.5-3.4 3.2z" fill="#539b00"/><path d="m15.9 28.8.3.2s.1-4 .3-4.2c2-1.5 3-3.4 3.4-5.5l-.9-.3h.9v-.1l-1.4-.4h1.5c.2-1.1.2-2.2.3-3.4l-.6-.3.6-.1v-.1l-1.6-.6 1.6-.2v-.1l-.9-.2.9-.2c0-.9.1-1.9.2-2.8l-.4-.3.4-.1v-.1l-.7-.2.8-.2c.1-.5.2-1 .3-1.6-1.5 2-2.8 5.3-3.5 9.4-.7 4-1.5 5.6-1.5 11.4z" opacity=".2"/><path d="m16.6 25c.9-.9 6.4-1.2 4-.6-1.6.4-2.4 1.1-2.8 1.8h-.8l.7.3v.1l-.4.1.4.1c-.2.5-.8 2.5-.8 2.5s-1.5-3-.3-4.3z" fill="#539b00"/><path d="m16.6 25c.9-.9 6.4-1.2 4-.6-1.6.4-2.4 1.1-2.8 1.8h-.8l.7.3v.1l-.4.1.4.1c-.2.5-.8 2.5-.8 2.5s-1.5-3-.3-4.3z" opacity=".3"/><path d="m22.3 22.4-.4.4.8-.4h.2l-.4.7.9-.6h.2l-.2.3.6-.1c1 .3 2.1 1 3.1 2l-.5.3.7-.1s.1.1.1.1l-.7.5.9-.3s0 0 .1.1l-.2.2h.3c1 1.1 1.5 4.3.5 5.8-1.7-3-4.5-4.6-6-5.4l.2-.6-.7.2.6-.9-1 .5.2-.4-.6.5c-2.5-1-3.6-.5-4.4-.2 1.2-1.4 3.7-2.7 5.7-2.6z" fill="#539b00"/><path d="m27.9 25.4h-.3l.2-.2s0 0-.1-.1l-.9.3.7-.5s-.1-.1-.1-.1l-.7.1.5-.3c-1-1-2.1-1.6-3.1-2l-.6.1.2-.3c-.1 0-.1 0-.2 0l-.9.6.4-.7c-.1 0-.2 0-.2 0l-.8.4.4-.4c-1.6 0-3.5.8-4.8 1.8 1.9-.6 10-2.7 10.9 7 .8-1.4.3-4.6-.6-5.7z" opacity=".2"/><path d="m15.1 23.5c-1.2-.9-8 .1-5 .2 2 .1 3.1.8 3.6 1.5l1-.2-.7.4v.1h.6l-.5.2c.3.6 1.3 2.8 1.3 2.8s1.4-3.7-.3-5z" fill="#539b00"/><path d="m15.1 23.5c-1.2-.9-8 .1-5 .2 2 .1 3.1.8 3.6 1.5l1-.2-.7.4v.1h.6l-.5.2c.3.6 1.3 2.8 1.3 2.8s1.4-3.7-.3-5z" opacity=".3"/><path d="m7.8 21.7.5.4-1.1-.3c-.1 0-.2.1-.3.1l.6.7-1.2-.5c-.1 0-.2.1-.3.1l.3.3h-.8c-1.2.6-2.4 1.7-3.5 3.1l.7.2-.9.1c0 .1-.1.1-.1.2l.9.5-1.1-.2s0 .1-.1.1l.3.2h-.4c-1 1.6-1.2 5.5.2 7.1 1.7-4 4.9-6.6 6.7-7.9l-.4-.6.9.1-.8-.9 1.4.4-.2-.4.7.3c3-1.8 4.4-1.5 5.4-1.3-1.7-1.4-5-2.3-7.4-1.8z" fill="#539b00"/><path d="m1.3 26.6h.4l-.3-.2s0-.1.1-.1l1.1.2-.9-.5c0-.1.1-.1.1-.2l.9-.1-.7-.2c1.1-1.4 2.3-2.4 3.5-3.1h.8l-.3-.3c.1 0 .2-.1.3-.1l1.2.5-.5-.6c.1 0 .2-.1.3-.1l1.1.3-.5-.4c1.9-.4 4.4.1 6.2 1.1-2.4-.3-12.7-.9-12.5 11-1.5-1.7-1.3-5.6-.3-7.2z" opacity=".2"/><path d="m12.8 38.3-.6-.1v-9.4c0-1.7.1-3 .4-3.9.4-1.1.9-1.3 1.3-1.3 1.4 0 2.7 2.9 2.7 5.1h-.6c0-2.2-1.3-4.4-2-4.4-.2 0-.4.3-.6.8-.3.8-.4 2-.4 3.7z" fill="#9c3"/><path d="m17.2 27.7-.7 1.1-1.8-1.2c.1 5.8-.4 19-.6 20.7 0 .5.7.7 1.8.7s1.7-.4 1.7-.9c.1-2.5-.4-7.6-.4-20.4z" fill="#825012"/><path d="m17.2 27.7-.7 1.1-1.8-1.2c.1 5.8-.4 19-.6 20.7 0 .5.7.7 1.8.7s1.7-.4 1.7-.9c.1-2.5-.4-7.6-.4-20.4z" opacity=".2"/><path d="m17.6 33.1-2.3 4.4-1.1-1c.1 5.8-.1 10-.3 11.8 0 .5.9.9 2 .9s2-.4 2-.9c.1-2.6-.3-2.3-.3-15.2z" fill="#825012"/><path d="m12.6 40.3s1.5-3.4 0-3.4 0 3.4 0 3.4z" fill="#915645"/><path d="m14.2 32.4c.3-.9 0-1.8.3-1.9.6-.2.8 1.2.4 2.2s-1.5 1.8-1.8 1.3c0-.1.8-.7 1.1-1.6z" fill="#fc0"/><path d="m14.8 32.6c.3-.7.2-1.7-.1-2.1.5.1.6 1.3.3 2.2-.4 1-1.5 1.8-1.8 1.3.5.2 1.3-.6 1.6-1.4z" opacity=".15"/><path d="m11 32.7c.3.9 1.1 1.4.9 1.7-.4.5-1.4-.5-1.7-1.5s.1-2.4.6-2.1c.3 0 0 1 .2 1.9z" fill="#fc0"/><path d="m10.4 32.9c.2.8.9 1.5 1.3 1.6-.4.2-1.3-.7-1.6-1.6-.3-1 .1-2.3.6-2.2-.3.3-.5 1.4-.3 2.2z" opacity=".15"/><path d="m10.8 29c-.3-.9 0-1.8-.3-1.9-.6-.2-.8 1.2-.4 2.2s1.5 1.8 1.8 1.3c0-.2-.8-.8-1.1-1.6z" fill="#fc0"/><path d="m10.2 29.1c-.3-.7-.2-1.7.1-2.1-.5.1-.6 1.3-.3 2.2.4 1 1.5 1.8 1.8 1.3-.5.2-1.3-.6-1.6-1.4z" opacity=".15"/><path d="m11.7 28.8c-.1-.9.5-1.7.2-1.9-.5-.3-1.1 1-1 2s1 2.2 1.4 1.8c.1-.2-.5-1-.6-1.9z" fill="#fc0"/><path d="m11 28.8c-.1-.8.2-1.7.6-2-.5 0-1 1.1-.9 2 .1 1 .9 2.1 1.4 1.8-.4 0-1-.9-1.1-1.8z" opacity=".15"/><path d="m13.6 29c-.2.9-1 1.5-.7 1.8.4.5 1.4-.6 1.6-1.6s-.3-2.4-.8-2.1c-.3.1.1 1-.1 1.9z" fill="#fc0"/><path d="m14.2 29.1c-.2.8-.7 1.6-1.2 1.7.4.2 1.2-.8 1.4-1.7.2-1-.3-2.3-.8-2.1.5.2.8 1.3.6 2.1z" opacity=".15"/><path d="m10.5 29.8c-.7-.6-.7-1.6-1.1-1.6-.6.1-.2 1.5.5 2.2s2.1 1.1 2.2.5c.1-.2-.9-.4-1.6-1.1z" fill="#fc0"/><path d="m10.1 30.2c-.6-.6-.9-1.5-.8-1.9-.4.3 0 1.5.6 2.1.7.7 2.1 1.1 2.2.5-.4.3-1.4-.1-2-.7z" opacity=".15"/><path d="m11.4 29.5c-.3-.9.1-1.8-.3-1.9-.6-.2-.9 1.2-.5 2.2.3 1 1.4 1.9 1.8 1.4.1-.3-.7-.8-1-1.7z" fill="#fc0"/><path d="m10.8 29.6c-.3-.7-.2-1.7.2-2.1-.5.1-.7 1.3-.4 2.2.3 1 1.4 1.9 1.8 1.4-.5.1-1.3-.6-1.6-1.5z" opacity=".15"/><path d="m11.7 27.5c-.2 0-.6 1-.4 2s.7 1.8 1.1 1.7-.2-.9-.3-1.9.1-1.9-.4-1.8z" fill="#fc0"/><path d="m11.6 29.4c-.1-.8-.1-1.5.1-1.9-.2.1-.5 1-.3 2s.6 1.7 1 1.7c-.3-.3-.7-.9-.8-1.8z" opacity=".15"/><path d="m14.7 29.5c-.5.7-1.5 1-1.4 1.3.2.6 1.5 0 2.1-.8s.7-2.3.1-2.2c-.3 0-.3 1-.8 1.7z" fill="#fc0"/><path d="m15.1 29.9c-.5.6-1.3 1.1-1.8 1.1.3.3 1.5-.2 2-1 .6-.8.7-2.2.1-2.2.4.3.3 1.4-.3 2.1z" opacity=".15"/><path d="m14.1 29.6c.5-.8.3-1.8.7-1.8.6-.1.6 1.4 0 2.2-.6.9-1.8 1.5-2 1-.1-.3.8-.7 1.3-1.4z" fill="#fc0"/><path d="m14.6 29.8c.4-.7.5-1.6.3-2 .4.2.4 1.4-.1 2.2-.5.9-1.8 1.5-2 1 .4.1 1.4-.4 1.8-1.2z" opacity=".15"/><path d="m13.3 29.5c-.3.9-1.1 1.4-.9 1.7.3.5 1.4-.4 1.7-1.4s0-2.4-.6-2.2c-.3 0 0 1-.2 1.9z" fill="#fc0"/><path d="m13.8 29.7c-.2.8-.9 1.5-1.4 1.6.4.2 1.3-.6 1.6-1.5.3-1 0-2.3-.6-2.2.5.2.7 1.3.4 2.1z" opacity=".15"/><path d="m12.3 31.2c-.3-.1-.4-3.6.2-3.6.6-.1.4 3.8-.2 3.6z" fill="#fc0"/><path d="m12.6 27.5c-.7.1-.5 3.5-.2 3.6-.2-.9-.1-2.7.2-3.6z" opacity=".15"/><path d="m14.6 33.2c.7-.6.7-1.6 1.1-1.6.6.1.2 1.5-.5 2.2s-2.1 1.1-2.2.5c-.1-.3.9-.4 1.6-1.1z" fill="#fc0"/><path d="m15 33.6c.6-.6.9-1.5.8-1.9.4.3 0 1.5-.6 2.1-.7.7-2.1 1.1-2.2.5.3.3 1.4-.1 2-.7z" opacity=".15"/><path d="m13.5 33c.3-.9-.1-1.8.3-1.9.6-.2.9 1.2.5 2.2s-1.4 1.9-1.8 1.4c-.1-.3.7-.9 1-1.7z" fill="#fc0"/><path d="m14.1 33.1c.3-.7.2-1.7-.2-2.1.5.1.7 1.3.4 2.2-.3 1-1.4 1.9-1.8 1.4.5.1 1.3-.7 1.6-1.5z" opacity=".15"/><path d="m13.2 31c.2 0 .6 1 .4 2s-.7 1.8-1.1 1.7.2-.9.3-1.9 0-1.9.4-1.8z" fill="#fc0"/><path d="m13.4 32.9c.1-.8.1-1.5-.1-1.9.2.1.5 1 .3 2s-.6 1.7-1 1.7c.3-.3.6-1 .8-1.8z" opacity=".15"/><path d="m10.6 33.1c.5.7 1.5 1 1.4 1.3-.2.6-1.5 0-2.1-.8s-.7-2.3-.1-2.2c.3 0 .3 1 .8 1.7z" fill="#fc0"/><path d="m10.2 33.5c.5.6 1.3 1.1 1.8 1.1-.3.3-1.5-.2-2-1-.6-.8-.7-2.2-.1-2.2-.4.3-.2 1.4.3 2.1z" opacity=".15"/><path d="m11.7 32.9c.3.9 1.1 1.4.9 1.7-.3.5-1.4-.4-1.7-1.4s0-2.4.6-2.2c.2.1-.1 1.1.2 1.9z" fill="#fc0"/><path d="m11.1 33.2c.2.8.9 1.5 1.4 1.6-.4.2-1.3-.6-1.6-1.5-.3-1 0-2.3.6-2.2-.4.1-.6 1.2-.4 2.1z" opacity=".15"/><path d="m12.6 34.6c.3-.1.4-3.6-.2-3.6-.6-.1-.4 3.9.2 3.6z" fill="#fc0"/><path d="m12.4 31c.7.1.5 3.5.2 3.6.1-.9.1-2.7-.2-3.6z" opacity=".15"/><ellipse cx="48" cy="48" opacity=".3" rx="6" ry="2.8"/><path d="m46.7 19 .6-.2-1.5.2 1.3-.8c-.3-1-.9-2-1.8-3.1l-1.4.2 1-.7-2.2.8 1.9-1.2c-.8-.8-1.9-1.7-3.1-2.5l-1.3.4.9-.7s-.1 0-.1-.1l-1.8.7 1.2-.8-.6.3.5-.5c-1.1-.6-2.3-1.2-3.6-1.7-1.4 2.7-.7 4.7.9 6.4l1.2-.3-.9.6s0 0 .1.1l1.9-.7-1.6 1c.7.9 1.7 1.6 2.7 2.3l.9-.2-.6.5s0 0 .1.1l2.2-.7-1.6 1s0 0 .1.1l1.2-.5-.8.7c.8.6 1.6 1.1 2.4 1.8l.7-.1-.4.4s0 0 .1.1l.9-.4-.6.6c.2.2.4.4.6.6s1.2 6.9 1.2 6.9l.5.2s-.6-7.7-.5-8c.2-.8.2-1.7 0-2.7z" fill="#539b00"/><path d="m47.8 28.2c-.2-2.3-.4-6.3-.4-6.5.2-.8.2-1.7 0-2.7h-.6l.6-.2-1.6.2 1.3-.8c-.3-1-.9-2-1.8-3.1l-1.4.2 1-.7-2.2.8 1.9-1.2c-.8-.8-1.9-1.7-3.1-2.5l-1.3.4.9-.7s-.1 0-.1-.1l-1.8.7 1.2-.8-.6.3.5-.5c-1.1-.6-2.3-1.2-3.6-1.7 1.1 4.6 5.4 6 8 9.1 1.9 2.1 2.4 5.2 2.9 10.1 0 0 .1-.1.2-.3z" opacity=".2"/><path d="m49.8 11.6-.4-.1.9.5-1.3.1c-.6 1-1 2.2-1.4 3.6l.8.6h-.9l1.6.5h-1.7c-.2 1.2-.3 2.4-.3 3.8l.9.4-.9.1v.1l1.3.4-1.2.1.4.1-.6.2c.1.8.1 1.6.3 2.5.1.3.3 4.3.3 4.3l.4.3s.1-4 .3-4.2c2-1.5 3-3.4 3.4-5.5l-.7-.4h.9v-.1l-1.4-.4h1.5c.2-1.1.2-2.2.3-3.4l-.6-.3.6-.1v-.1l-1.6-.6 1.6-.2v-.1l-.9-.2.9-.2c0-.9.1-1.9.2-2.8l-.4-.3.4-.1v-.1l-.7-.2.8-.2c.1-.5.2-1 .3-1.6-1.1.4-2.3 1.5-3.4 3.2z" fill="#539b00"/><path d="m47.9 28.8.3.2s.1-4 .3-4.2c2-1.5 3-3.4 3.4-5.5l-.9-.3h.9v-.1l-1.4-.4h1.5c.2-1.1.2-2.2.3-3.4l-.6-.3.6-.1v-.1l-1.6-.6 1.6-.2v-.1l-.9-.2.9-.2c0-.9.1-1.9.2-2.8l-.4-.3.4-.1v-.1l-.7-.2.8-.2c.1-.5.2-1 .3-1.6-1.5 2-2.8 5.3-3.5 9.4-.7 4-1.5 5.6-1.5 11.4z" opacity=".2"/><path d="m62.5 18.7c-.8-1.2-6.2-2-3.9-1.2 1.6.6 2.2 1.5 2.5 2.3l.8.1-.7.2v.1l.4.1-.4.1c.1.6 0 1.1 0 1.1s2.4-1.2 1.3-2.8z" fill="#539b00"/><path d="m62.5 18.7c-.8-1.2-6.2-2-3.9-1.2 1.6.6 2.2 1.5 2.5 2.3l.8.1-.7.2v.1l.4.1-.4.1c.1.6 0 1.1 0 1.1s2.4-1.2 1.3-2.8z" opacity=".3"/><path d="m57.2 15 .3.5-.7-.5c-.1 0-.2 0-.2 0l.3.8-.9-.7c-.1 0-.1 0-.2 0l.2.3-.6-.2c-1.1.3-2.2.9-3.3 1.9l.5.4-.7-.2c-.1 0-.1.1-.2.1l.6.7-.8-.4s0 0-.1.1l.2.2-.3-.1c-1.1 1.2-2.7 9.7-3.4 13.3-.1.4.8.1.8.1s.5-4.3 1.4-6.8c3.2-2.9 5.1-4.8 6.7-5.5l-.2-.7.7.3-.4-1 1 .7-.3-.3.5.5c2.7-.9 3.7-.2 4.4.2-1-1.7-3.3-3.5-5.3-3.7z" fill="#539b00"/><path d="m48.3 24.7c.9-1.1 6.4-1.4 4-.7-1.6.4-2.4 1.3-2.8 2h-.8l.7.3v.1l-.4.1.4.1c-.2.6-.8 2.9-.8 2.9s-1.5-3.3-.3-4.8z" fill="#539b00"/><path d="m48.3 24.7c.9-1.1 6.4-1.4 4-.7-1.6.4-2.4 1.3-2.8 2h-.8l.7.3v.1l-.4.1.4.1c-.2.6-.8 2.9-.8 2.9s-1.5-3.3-.3-4.8z" opacity=".3"/><path d="m53.9 21.7-.4.5.8-.4h.2l-.4.8.9-.7c.1 0 .1 0 .2.1l-.2.3.6-.2c1 .4 2.1 1.1 3.1 2.3l-.5.3.7-.1c0 .1.1.1.1.2l-.7.6.9-.3s0 .1.1.1l-.2.2.3-.1c1 1.3 1.5 5 .5 6.8-1.7-3.5-4.5-5.3-6-6.2l.2-.6-.7.3.6-1-1 .6.2-.4-.5.2c-2.5-1.1-3.6-.6-4.4-.3 1.1-1.6 3.7-3.1 5.6-3z" fill="#539b00"/><path d="m59.5 25.2-.3.1.2-.2s0-.1-.1-.1l-.9.3.7-.6c0-.1-.1-.1-.1-.2l-.7.1.5-.3c-1-1.1-2.1-1.9-3.1-2.3l-.6.2.2-.3c-.1 0-.1 0-.2-.1l-.9.7.4-.8c-.1 0-.2 0-.2 0l-.8.4.4-.5c-1.6 0-3.5.9-4.8 2.1 1.9-.7 10-3.2 10.9 8.1.9-1.7.4-5.3-.6-6.6z" opacity=".2"/><path d="m46.9 22.5c-1.2-.9-8 .1-5 .2 2 .1 3.1.8 3.6 1.5l1-.2-.8.5v.1h.6l-.5.2c.3.6 1.3 2.8 1.3 2.8s1.5-3.8-.2-5.1z" fill="#539b00"/><path d="m46.9 22.5c-1.2-.9-8 .1-5 .2 2 .1 3.1.8 3.6 1.5l1-.2-.8.5v.1h.6l-.5.2c.3.6 1.3 2.8 1.3 2.8s1.5-3.8-.2-5.1z" opacity=".3"/><path d="m39.6 20.7.5.4-1.1-.3c-.1 0-.2.1-.3.1l.6.7-1.2-.5c-.1 0-.2.1-.3.1l.3.3h-.8c-1.2.6-2.4 1.7-3.5 3.1l.7.2-.9.1c0 .1-.1.1-.1.2l.9.5-1.1-.2s0 .1-.1.1l.3.2h-.4c-1 1.6-1.2 5.5.2 7.1 1.7-4 4.9-6.6 6.7-7.9l-.4-.6.9.1-.8-.9 1.4.4-.2-.4.7.3c3-1.8 4.4-1.5 5.4-1.3-1.7-1.4-5-2.3-7.4-1.8z" fill="#539b00"/><path d="m33.1 25.6h.4l-.3-.2s0-.1.1-.1l1.1.2-.9-.5c0-.1.1-.1.1-.2l.9-.1-.7-.2c1.1-1.4 2.3-2.4 3.5-3.1h.8l-.3-.3c.1 0 .2-.1.3-.1l1.2.5-.6-.7c.1 0 .2-.1.3-.1l1.1.3-.5-.4c1.9-.4 4.4.1 6.2 1.1-2.4-.3-12.7-.9-12.5 11-1.4-1.6-1.2-5.5-.2-7.1z" opacity=".2"/><path d="m50.7 28.8c0-1.6-.1-2.9-.3-3.7-.2-.5-.4-.8-.6-.8-.6 0-1.8 2.3-1.8 4.4h-.6c0-2.2 1.2-5.1 2.4-5.1.4 0 .8.2 1.2 1.3.2.9.4 2.2.4 3.9v9.9l-.5.1z" fill="#9c3"/><path d="m49.2 27.7-.7 1.1-1.8-1.2c.1 5.8-.4 19-.6 20.7 0 .5.7.7 1.8.7s1.7-.4 1.7-.9c.1-2.5-.4-7.6-.4-20.4z" fill="#825012"/><path d="m49.2 27.7-.7 1.1-1.8-1.2c.1 5.8-.4 19-.6 20.7 0 .5.7.7 1.8.7s1.7-.4 1.7-.9c.1-2.5-.4-7.6-.4-20.4z" opacity=".2"/><path d="m49.6 33.1-2.3 4.4-1.1-1c.1 5.8-.1 10-.3 11.8 0 .5.9.9 2 .9s2-.4 2-.9c.1-2.6-.3-2.3-.3-15.2z" fill="#825012"/><path d="m51.1 40.6s1.6-3.1-.1-3.1.1 3.1.1 3.1z" fill="#915645"/><path d="m52.4 31.4c.3-.9 0-1.8.3-1.9.6-.2.8 1.2.4 2.2s-1.5 1.8-1.8 1.3c0-.1.8-.7 1.1-1.6z" fill="#fc0"/><path d="m53 31.6c.3-.7.2-1.7-.1-2.1.5.1.6 1.3.3 2.2-.4 1-1.5 1.8-1.8 1.3.5.2 1.3-.6 1.6-1.4z" opacity=".15"/><path d="m49.2 31.7c.3.9 1.1 1.4.9 1.7-.4.5-1.4-.5-1.7-1.5s.1-2.4.6-2.1c.3 0-.1 1 .2 1.9z" fill="#fc0"/><path d="m48.6 31.9c.2.8.9 1.5 1.3 1.6-.4.2-1.3-.7-1.6-1.6-.3-1 .1-2.3.6-2.2-.3.3-.5 1.4-.3 2.2z" opacity=".15"/><path d="m49 28.2c-.3-.9 0-1.8-.3-1.9-.6-.2-.8 1.2-.4 2.2s1.5 1.8 1.8 1.3c0-.2-.8-.7-1.1-1.6z" fill="#fc0"/><path d="m48.4 28.4c-.3-.7-.2-1.7.1-2.1-.5.1-.6 1.3-.3 2.2.4 1 1.5 1.8 1.8 1.3-.5.1-1.3-.6-1.6-1.4z" opacity=".15"/><path d="m49.8 28.1c-.1-.9.5-1.7.2-1.9-.5-.3-1.1 1-1 2s1 2.2 1.4 1.8c.2-.3-.5-1-.6-1.9z" fill="#fc0"/><path d="m49.2 28.1c-.1-.8.2-1.7.6-2-.5 0-1 1.1-.9 2 .1 1 .9 2.1 1.4 1.8-.4 0-1-1-1.1-1.8z" opacity=".15"/><path d="m51.8 28.2c-.2.9-1 1.5-.7 1.8.4.5 1.4-.6 1.6-1.6s-.3-2.4-.8-2.1c-.3.1.1 1-.1 1.9z" fill="#fc0"/><path d="m52.4 28.4c-.2.8-.7 1.6-1.2 1.7.4.2 1.2-.8 1.4-1.7.2-1-.3-2.3-.8-2.1.5.2.8 1.2.6 2.1z" opacity=".15"/><path d="m48.7 29.1c-.7-.6-.7-1.6-1.1-1.6-.6.1-.2 1.5.5 2.2s2.1 1.1 2.2.5c0-.3-.9-.5-1.6-1.1z" fill="#fc0"/><path d="m48.3 29.5c-.6-.6-.9-1.5-.8-1.9-.4.3 0 1.5.6 2.1.7.7 2.1 1.1 2.2.5-.4.2-1.4-.1-2-.7z" opacity=".15"/><path d="m49.6 28.7c-.3-.9.1-1.8-.3-1.9-.6-.2-.9 1.2-.5 2.2.3 1 1.4 1.9 1.8 1.4.1-.2-.7-.8-1-1.7z" fill="#fc0"/><path d="m49 28.9c-.3-.7-.2-1.7.2-2.1-.5.1-.7 1.3-.4 2.2.3 1 1.4 1.9 1.8 1.4-.5.1-1.3-.7-1.6-1.5z" opacity=".15"/><path d="m49.9 26.7c-.2 0-.6 1-.4 2s.7 1.8 1.1 1.7-.2-.9-.3-1.9 0-1.8-.4-1.8z" fill="#fc0"/><path d="m49.8 28.7c-.1-.8-.1-1.5.1-1.9-.2.1-.5 1-.3 2s.6 1.7 1 1.7c-.4-.3-.7-1-.8-1.8z" opacity=".15"/><path d="m52.9 28.8c-.5.7-1.5 1-1.4 1.3.2.6 1.5 0 2.1-.8s.7-2.3.1-2.2c-.3-.1-.3.9-.8 1.7z" fill="#fc0"/><path d="m53.3 29.1c-.5.6-1.3 1.1-1.8 1.1.3.3 1.5-.2 2-1 .6-.8.7-2.2.1-2.2.4.3.2 1.4-.3 2.1z" opacity=".15"/><path d="m52.3 28.8c.5-.8.3-1.8.7-1.8.6-.1.6 1.4 0 2.2-.6.9-1.8 1.5-2 1-.1-.2.8-.6 1.3-1.4z" fill="#fc0"/><path d="m52.8 29.1c.4-.7.5-1.6.3-2 .4.2.4 1.4-.1 2.2-.5.9-1.8 1.5-2 1 .4.1 1.4-.5 1.8-1.2z" opacity=".15"/><path d="m51.4 28.7c-.3.9-1.1 1.4-.9 1.7.3.5 1.4-.4 1.7-1.4s0-2.4-.6-2.2c-.2.1.1 1-.2 1.9z" fill="#fc0"/><path d="m52 28.9c-.2.8-.9 1.5-1.4 1.6.4.2 1.3-.6 1.6-1.5.3-1 0-2.3-.6-2.2.5.2.7 1.3.4 2.1z" opacity=".15"/><path d="m50.5 30.4c-.3-.1-.4-3.6.2-3.6.6-.1.4 3.9-.2 3.6z" fill="#fc0"/><path d="m50.8 26.8c-.1 0-.1 0 0 0-.7.1-.5 3.5-.2 3.6-.2-.9-.1-2.7.2-3.6z" opacity=".15"/><path d="m52.7 32.2c.7-.6.7-1.6 1.1-1.6.6.1.2 1.5-.5 2.2s-2.1 1.1-2.2.5c0-.3 1-.4 1.6-1.1z" fill="#fc0"/><path d="m53.2 32.6c.6-.6.9-1.5.8-1.9.4.3 0 1.5-.6 2.1-.7.7-2.1 1.1-2.2.5.3.3 1.4-.1 2-.7z" opacity=".15"/><path d="m51.7 32c.3-.9-.1-1.8.3-1.9.6-.2.9 1.2.5 2.2-.3 1-1.4 1.9-1.8 1.4-.1-.3.7-.9 1-1.7z" fill="#fc0"/><path d="m52.3 32.1c.3-.7.2-1.7-.2-2.1.5.1.7 1.3.4 2.2-.3 1-1.4 1.9-1.8 1.4.5.1 1.3-.7 1.6-1.5z" opacity=".15"/><path d="m51.4 30c.2 0 .6 1 .4 2s-.7 1.8-1.1 1.7.2-.9.3-1.9 0-1.9.4-1.8z" fill="#fc0"/><path d="m51.5 31.9c.1-.8.1-1.5-.1-1.9.2.1.5 1 .3 2s-.6 1.7-1 1.7c.4-.3.7-1 .8-1.8z" opacity=".15"/><path d="m48.8 32.1c.5.7 1.5 1 1.4 1.3-.2.6-1.5 0-2.1-.8s-.7-2.3-.1-2.2c.3 0 .3 1 .8 1.7z" fill="#fc0"/><path d="m48.4 32.5c.5.6 1.3 1.1 1.8 1.1-.3.3-1.5-.2-2-1-.6-.8-.7-2.2-.1-2.2-.4.3-.3 1.4.3 2.1z" opacity=".15"/><path d="m49.9 31.9c.3.9 1.1 1.4.9 1.7-.3.5-1.4-.4-1.7-1.4s0-2.4.6-2.2c.2.1-.1 1.1.2 1.9z" fill="#fc0"/><path d="m49.3 32.2c.2.8.9 1.5 1.4 1.6-.4.2-1.3-.6-1.6-1.5-.3-1 0-2.3.6-2.2-.5.1-.7 1.2-.4 2.1z" opacity=".15"/><path d="m50.8 33.6c.3-.1.4-3.6-.2-3.6-.6-.1-.4 3.9.2 3.6z" fill="#fc0"/><path d="m50.6 30c.7.1.5 3.5.2 3.6.1-.9.1-2.7-.2-3.6z" opacity=".15"/><path d="m49 34.9c-.5-.8-.4-1.7-.8-1.8-.6 0-.5 1.4.1 2.2s1.9 1.5 2.1.9c0-.2-.9-.5-1.4-1.3z" fill="#fc0"/><path d="m48.5 35.2c-.4-.7-.6-1.6-.4-2-.4.2-.3 1.4.2 2.2.6.9 1.9 1.4 2.1.9-.5.1-1.5-.4-1.9-1.1z" opacity=".15"/><path d="m49.6 34.6c-.3-.9.1-1.8-.3-1.9-.6-.2-.9 1.2-.5 2.2.3 1 1.4 1.9 1.8 1.4.1-.2-.7-.8-1-1.7z" fill="#fc0"/><path d="m49 34.8c-.3-.7-.2-1.7.2-2.1-.5.1-.7 1.3-.4 2.2.3 1 1.4 1.9 1.8 1.4-.5.1-1.3-.7-1.6-1.5z" opacity=".15"/><path d="m49.9 32.6c-.2 0-.6 1-.4 2s.7 1.8 1.1 1.7-.2-.9-.3-1.9 0-1.8-.4-1.8z" fill="#fc0"/><path d="m49.8 34.6c-.1-.8-.1-1.5.1-1.9-.2.1-.5 1-.3 2s.6 1.7 1 1.7c-.4-.3-.7-1-.8-1.8z" opacity=".15"/><path d="m52.9 34.7c-.5.7-1.5 1-1.4 1.3.2.6 1.5 0 2.1-.8s.7-2.3.1-2.2c-.3-.1-.3.9-.8 1.7z" fill="#fc0"/><path d="m53.3 35.1c-.5.6-1.3 1.1-1.8 1.1.3.3 1.5-.2 2-1 .6-.8.7-2.2.1-2.2.4.2.2 1.4-.3 2.1z" opacity=".15"/><path d="m52.3 34.7c.5-.8.3-1.8.7-1.8.6-.1.6 1.4 0 2.2-.6.9-1.8 1.5-2 1-.1-.2.8-.6 1.3-1.4z" fill="#fc0"/><path d="m52.8 35c.4-.7.5-1.6.3-2 .4.2.4 1.4-.1 2.2-.5.9-1.8 1.5-2 1 .4.1 1.4-.5 1.8-1.2z" opacity=".15"/><path d="m51.4 34.6c-.3.9-1.1 1.4-.9 1.7.3.5 1.4-.4 1.7-1.4s0-2.4-.6-2.2c-.2.1.1 1-.2 1.9z" fill="#fc0"/><path d="m52 34.8c-.2.8-.9 1.5-1.4 1.6.4.2 1.3-.6 1.6-1.5.3-1 0-2.3-.6-2.2.5.2.7 1.3.4 2.1z" opacity=".15"/><path d="m50.5 36.3c-.3-.2 0-3.6.7-3.6.6 0-.2 3.9-.7 3.6z" fill="#fc0"/><path d="m51.2 32.7c-.7 0-1 3.4-.7 3.6 0-.9.3-2.7.7-3.6z" opacity=".15"/><ellipse cx="32" cy="56" opacity=".3" rx="6" ry="2.8"/><path d="m30.7 27 .6-.2-1.5.2 1.3-.8c-.3-1-.9-2-1.8-3.1l-1.4.2 1-.7-2.2.8 1.9-1.2c-.8-.8-1.9-1.7-3.1-2.5l-1.3.4.9-.7s-.1 0-.1-.1l-1.8.7 1.2-.8-.6.3.5-.5c-1.1-.6-2.3-1.2-3.6-1.7-1.4 2.7-.7 4.7.9 6.4l1.2-.3-.9.6s0 0 .1.1l1.9-.7-1.6 1c.7.9 1.7 1.6 2.7 2.3l.9-.2-.6.5s0 0 .1.1l2.2-.7-1.6 1s0 0 .1.1l1.2-.5-.8.7c.8.6 1.6 1.1 2.4 1.8l.7-.1-.4.4s0 0 .1.1l.9-.4-.6.6.6.6c.2.2 1.2 6.9 1.2 6.9l.5.2s-.6-7.7-.5-8c.2-.8.2-1.7 0-2.7z" fill="#539b00"/><path d="m31.8 36.2c-.2-2.3-.4-6.3-.4-6.5.2-.8.2-1.7 0-2.7h-.6l.6-.2-1.6.2 1.3-.8c-.3-1-.9-2-1.8-3.1l-1.4.2 1-.7-2.2.8 1.9-1.2c-.8-.8-1.9-1.7-3.1-2.5l-1.3.4.9-.7s-.1 0-.1-.1l-1.8.7 1.2-.8-.6.3.5-.5c-1.1-.6-2.3-1.2-3.6-1.7 1.1 4.6 5.4 6 8 9.1 1.9 2.1 2.4 5.2 2.9 10.1 0 0 .1-.1.2-.3z" opacity=".2"/><path d="m33.8 19.6-.4-.1.9.5-1.3.1c-.6 1-1 2.2-1.4 3.6l.8.6h-.9l1.6.5h-1.7c-.2 1.2-.3 2.4-.3 3.8l.9.4-.9.1v.1l1.3.4-1.2.1.4.1-.6.2c.1.8.1 1.6.3 2.5.1.3.3 4.3.3 4.3l.4.3s.1-4 .3-4.2c2-1.5 3-3.4 3.4-5.5l-.7-.4h.9v-.1l-1.4-.4h1.5c.2-1.1.2-2.2.3-3.4l-.6-.3.6-.1v-.1l-1.6-.6 1.6-.2v-.1l-.9-.2.9-.2c0-.9.1-1.9.2-2.8l-.4-.3.4-.1v-.1l-.7-.2.8-.2c.1-.5.2-1 .3-1.6-1.1.4-2.3 1.5-3.4 3.2z" fill="#539b00"/><path d="m31.9 36.8.3.2s.1-4 .3-4.2c2-1.5 3-3.4 3.4-5.5l-.9-.3h.9v-.1l-1.4-.4h1.5c.2-1.1.2-2.2.3-3.4l-.6-.3.6-.1v-.1l-1.6-.6 1.6-.2v-.1l-.9-.2.9-.2c0-.9.1-1.9.2-2.8l-.4-.3.4-.1v-.1l-.7-.2.8-.2c.1-.5.2-1 .3-1.6-1.5 2-2.8 5.3-3.5 9.4-.7 4-1.5 5.6-1.5 11.4z" opacity=".2"/><path d="m32.7 31.5c1.2-.9 8 .1 5 .2-2 .1-3.1.8-3.6 1.5l-1.1-.2.8.5v.1h-.6l.5.2c-.3.6-1.3 2.8-1.3 2.8s-1.4-3.8.3-5.1z" fill="#539b00"/><path d="m32.7 31.5c1.2-.9 8 .1 5 .2-2 .1-3.1.8-3.6 1.5l-1.1-.2.8.5v.1h-.6l.5.2c-.3.6-1.3 2.8-1.3 2.8s-1.4-3.8.3-5.1z" opacity=".3"/><path d="m40 29.7-.5.4 1.1-.3c.1 0 .2.1.3.1l-.6.7 1.2-.5c.1 0 .2.1.3.1l-.3.3h.8c1.2.6 2.4 1.7 3.5 3.1l-.7.2.9.1c0 .1.1.1.1.2l-.9.5 1.1-.2s0 .1.1.1l-.3.2h.4c1 1.6 1.2 5.5-.2 7.1-1.7-4-4.9-6.6-6.7-7.9l.4-.6-.9.1.8-.9-1.4.4.2-.4-.7.3c-3-1.8-4.4-1.5-5.4-1.3 1.7-1.4 5-2.3 7.4-1.8z" fill="#539b00"/><path d="m46.5 34.6h-.4l.3-.2s0-.1-.1-.1l-1.1.2.9-.5c0-.1-.1-.1-.1-.2l-.9-.1.7-.2c-1.1-1.4-2.3-2.4-3.5-3.1h-.8l.3-.3c-.1 0-.2-.1-.3-.1l-1.2.5.6-.7c-.1 0-.2-.1-.3-.1l-1.1.3.5-.4c-1.9-.4-4.4.1-6.2 1.1 2.4-.3 12.7-.9 12.5 11 1.4-1.6 1.2-5.5.2-7.1z" opacity=".2"/><path d="m27.8 48.3-.6-.1v-10.9c0-1.7.1-3 .4-3.9.4-1.1.9-1.3 1.3-1.3 1.4 0 2.7 2.9 2.7 5.1h-.6c0-2.2-1.3-4.4-2-4.4-.2 0-.4.3-.6.8-.3.8-.4 2-.4 3.7z" fill="#9c3"/><path d="m27.6 51.7s2-3.8-.1-3.8.1 3.8.1 3.8z" fill="#915645"/><path d="m31.5 33c-.9-1.1-6.4-1.4-4-.7 1.6.4 2.4 1.3 2.8 2h.8l-.7.3v.1l.4.1-.4.1c.2.6.8 2.9.8 2.9s1.5-3.3.3-4.8z" fill="#539b00"/><path d="m31.5 33c-.9-1.1-6.4-1.4-4-.7 1.6.4 2.4 1.3 2.8 2h.8l-.7.3v.1l.4.1-.4.1c.2.6.8 2.9.8 2.9s1.5-3.3.3-4.8z" opacity=".3"/><path d="m25.8 30 .4.5-.8-.5c-.1 0-.2 0-.2 0l.4.8-.9-.7c-.1 0-.1 0-.2.1l.2.3-.7-.2c-1 .4-2.1 1.1-3.1 2.3l.5.3-.7-.1c0 .1-.1.1-.1.2l.7.6-.9-.3s0 .1-.1.1l.2.2-.3-.1c-1 1.3-1.5 5-.5 6.8 1.7-3.5 4.5-5.3 6-6.2l-.2-.6.7.3-.6-1 1 .6-.2-.4.6.5c2.5-1.1 3.6-.6 4.4-.3-1.1-1.8-3.6-3.3-5.6-3.2z" fill="#539b00"/><path d="m20.2 33.5.3.1-.2-.2s0-.1.1-.1l.9.3-.7-.6c0-.1.1-.1.1-.2l.7.1-.5-.3c1-1.1 2.1-1.9 3.1-2.3l.6.2-.2-.3c.1 0 .1 0 .2-.1l.9.7-.3-.8h.2l.8.4-.4-.4c1.6 0 3.5.9 4.8 2.1-1.9-.7-10-3.2-10.9 8.1-.9-1.8-.4-5.4.5-6.7z" opacity=".2"/><path d="m33.2 35.7-.7 1.1-1.8-1.2c.1 5.8-.4 19-.6 20.7 0 .5.7.7 1.8.7s1.7-.4 1.7-.9c.1-2.5-.4-7.6-.4-20.4z" fill="#825012"/><path d="m33.2 35.7-.7 1.1-1.8-1.2c.1 5.8-.4 19-.6 20.7 0 .5.7.7 1.8.7s1.7-.4 1.7-.9c.1-2.5-.4-7.6-.4-20.4z" opacity=".2"/><path d="m33.6 41.1-2.3 4.4-1.1-1c.1 5.8-.1 10-.3 11.8 0 .5.9.9 2 .9s2-.4 2-.9c.1-2.6-.3-2.3-.3-15.2z" fill="#825012"/><path d="m26.3 36.5c-.5-.8-.4-1.7-.8-1.8-.6 0-.5 1.4.1 2.2s1.9 1.5 2.1.9c.1-.2-.8-.5-1.4-1.3z" fill="#fc0"/><path d="m25.8 36.8c-.4-.7-.6-1.6-.4-2-.4.2-.3 1.4.2 2.2.6.9 1.9 1.4 2.1.9-.4.1-1.4-.4-1.9-1.1z" opacity=".15"/><path d="m27 36.2c-.3-.9.1-1.8-.3-1.9-.6-.2-.9 1.2-.5 2.2.3 1 1.4 1.9 1.8 1.4.1-.2-.7-.8-1-1.7z" fill="#fc0"/><path d="m26.4 36.4c-.3-.7-.2-1.7.2-2.1-.5.1-.7 1.3-.4 2.2.3 1 1.4 1.9 1.8 1.4-.5.1-1.3-.7-1.6-1.5z" opacity=".15"/><path d="m27.3 34.2c-.2 0-.6 1-.4 2s.7 1.8 1.1 1.7-.2-.9-.3-1.9c-.1-.9 0-1.8-.4-1.8z" fill="#fc0"/><path d="m27.1 36.2c-.1-.8-.1-1.5.1-1.9-.2.1-.5 1-.3 2s.6 1.7 1 1.7c-.3-.3-.6-1-.8-1.8z" opacity=".15"/><path d="m29.6 36.3c.4-.8.2-1.8.6-1.8.6-.1.7 1.3.2 2.2s-1.7 1.6-2 1.1c-.1-.2.8-.7 1.2-1.5z" fill="#fc0"/><path d="m30.2 36.6c.4-.7.4-1.7.2-2.1.4.2.5 1.4 0 2.2-.5.9-1.7 1.6-2 1.1.5.1 1.4-.5 1.8-1.2z" opacity=".15"/><path d="m28.8 36.2c-.3.9-1.1 1.4-.9 1.7.3.5 1.4-.4 1.7-1.4s0-2.4-.6-2.2c-.2.1.1 1-.2 1.9z" fill="#fc0"/><path d="m29.4 36.5c-.2.8-.9 1.5-1.4 1.6.4.2 1.3-.6 1.6-1.5.3-1 0-2.3-.6-2.2.4.1.6 1.2.4 2.1z" opacity=".15"/><path d="m27.9 37.9c-.3-.2 0-3.6.7-3.6s-.2 3.9-.7 3.6z" fill="#fc0"/><path d="m28.6 34.3c-.7 0-1 3.4-.7 3.6 0-.9.3-2.7.7-3.6z" opacity=".15"/><path d="m29.2 41.4c.3-.9 0-1.8.3-1.9.6-.2.8 1.2.4 2.2s-1.5 1.8-1.8 1.3c0-.1.8-.7 1.1-1.6z" fill="#fc0"/><path d="m29.8 41.6c.3-.7.2-1.7-.1-2.1.5.1.6 1.3.3 2.2-.4 1-1.5 1.8-1.8 1.3.5.2 1.3-.6 1.6-1.4z" opacity=".15"/><path d="m26 41.7c.3.9 1.1 1.4.9 1.7-.4.5-1.4-.5-1.7-1.5s.1-2.4.6-2.1c.3 0 0 1 .2 1.9z" fill="#fc0"/><path d="m25.4 41.9c.2.8.9 1.5 1.3 1.6-.4.2-1.3-.7-1.6-1.6-.3-1 .1-2.3.6-2.2-.3.3-.5 1.4-.3 2.2z" opacity=".15"/><path d="m25.8 38.2c-.3-.9 0-1.8-.3-1.9-.6-.2-.8 1.2-.4 2.2s1.5 1.8 1.8 1.3c0-.2-.8-.7-1.1-1.6z" fill="#fc0"/><path d="m25.2 38.4c-.3-.7-.2-1.7.1-2.1-.5.1-.6 1.3-.3 2.2.4 1 1.5 1.8 1.8 1.3-.5.1-1.3-.6-1.6-1.4z" opacity=".15"/><path d="m26.7 38.1c-.1-.9.5-1.7.2-1.9-.5-.3-1.1 1-1 2s1 2.2 1.4 1.8c.1-.3-.5-1-.6-1.9z" fill="#fc0"/><path d="m26 38.1c-.1-.8.2-1.7.6-2-.5 0-1 1.1-.9 2 .1 1 .9 2.1 1.4 1.8-.4 0-1-1-1.1-1.8z" opacity=".15"/><path d="m28.6 38.2c-.2.9-1 1.5-.7 1.8.4.5 1.4-.6 1.6-1.6s-.3-2.4-.8-2.1c-.3.1.1 1-.1 1.9z" fill="#fc0"/><path d="m29.2 38.4c-.2.8-.7 1.6-1.2 1.7.4.2 1.2-.8 1.4-1.7.2-1-.3-2.3-.8-2.1.5.2.8 1.2.6 2.1z" opacity=".15"/><path d="m25.5 39.1c-.7-.6-.7-1.6-1.1-1.6-.6.1-.2 1.5.5 2.2s2.1 1.1 2.2.5c.1-.3-.9-.5-1.6-1.1z" fill="#fc0"/><path d="m25.1 39.5c-.6-.6-.9-1.5-.8-1.9-.4.3 0 1.5.6 2.1.7.7 2.1 1.1 2.2.5-.4.2-1.4-.1-2-.7z" opacity=".15"/><path d="m26.4 38.7c-.3-.9.1-1.8-.3-1.9-.6-.2-.9 1.2-.5 2.2.3 1 1.4 1.9 1.8 1.4.1-.2-.7-.8-1-1.7z" fill="#fc0"/><path d="m25.8 38.9c-.3-.7-.2-1.7.2-2.1-.5.1-.7 1.3-.4 2.2.3 1 1.4 1.9 1.8 1.4-.5.1-1.3-.7-1.6-1.5z" opacity=".15"/><path d="m26.7 36.7c-.2 0-.6 1-.4 2s.7 1.8 1.1 1.7-.2-.9-.3-1.9.1-1.8-.4-1.8z" fill="#fc0"/><path d="m26.6 38.7c-.1-.8-.1-1.5.1-1.9-.2.1-.5 1-.3 2s.6 1.7 1 1.7c-.3-.3-.7-1-.8-1.8z" opacity=".15"/><path d="m29.7 38.8c-.5.7-1.5 1-1.4 1.3.2.6 1.5 0 2.1-.8s.7-2.3.1-2.2c-.3-.1-.3.9-.8 1.7z" fill="#fc0"/><path d="m30.1 39.1c-.5.6-1.3 1.1-1.8 1.1.3.3 1.5-.2 2-1 .6-.8.7-2.2.1-2.2.4.3.3 1.4-.3 2.1z" opacity=".15"/><path d="m29.1 38.8c.5-.8.3-1.8.7-1.8.6-.1.6 1.4 0 2.2-.6.9-1.8 1.5-2 1-.1-.2.8-.6 1.3-1.4z" fill="#fc0"/><path d="m29.6 39.1c.4-.7.5-1.6.3-2 .4.2.4 1.4-.1 2.2-.5.9-1.8 1.5-2 1 .4.1 1.4-.5 1.8-1.2z" opacity=".15"/><path d="m28.3 38.7c-.3.9-1.1 1.4-.9 1.7.3.5 1.4-.4 1.7-1.4s0-2.4-.6-2.2c-.3.1 0 1-.2 1.9z" fill="#fc0"/><path d="m28.8 38.9c-.2.8-.9 1.5-1.4 1.6.4.2 1.3-.6 1.6-1.5.3-1 0-2.3-.6-2.2.5.2.7 1.3.4 2.1z" opacity=".15"/><path d="m27.3 40.4c-.3-.1-.4-3.6.2-3.6.6-.1.4 3.9-.2 3.6z" fill="#fc0"/><path d="m27.6 36.8c-.7.1-.5 3.5-.2 3.6-.2-.9-.1-2.7.2-3.6z" opacity=".15"/><path d="m29.6 42.2c.7-.6.7-1.6 1.1-1.6.6.1.2 1.5-.5 2.2s-2.1 1.1-2.2.5c-.1-.3.9-.4 1.6-1.1z" fill="#fc0"/><path d="m30 42.6c.6-.6.9-1.5.8-1.9.4.3 0 1.5-.6 2.1-.7.7-2.1 1.1-2.2.5.3.3 1.4-.1 2-.7z" opacity=".15"/><path d="m28.5 42c.3-.9-.1-1.8.3-1.9.6-.2.9 1.2.5 2.2s-1.4 1.9-1.8 1.4c-.1-.3.7-.9 1-1.7z" fill="#fc0"/><path d="m29.1 42.1c.3-.7.2-1.7-.2-2.1.5.1.7 1.3.4 2.2-.3 1-1.4 1.9-1.8 1.4.5.1 1.3-.7 1.6-1.5z" opacity=".15"/><path d="m28.2 40c.2 0 .6 1 .4 2s-.7 1.8-1.1 1.7.2-.9.3-1.9 0-1.9.4-1.8z" fill="#fc0"/><path d="m28.4 41.9c.1-.8.1-1.5-.1-1.9.2.1.5 1 .3 2s-.6 1.7-1 1.7c.3-.3.6-1 .8-1.8z" opacity=".15"/><path d="m25.6 42.1c.5.7 1.5 1 1.4 1.3-.2.6-1.5 0-2.1-.8s-.7-2.3-.1-2.2c.3 0 .3 1 .8 1.7z" fill="#fc0"/><path d="m25.2 42.5c.5.6 1.3 1.1 1.8 1.1-.3.3-1.5-.2-2-1-.6-.8-.7-2.2-.1-2.2-.4.3-.2 1.4.3 2.1z" opacity=".15"/><path d="m26.7 41.9c.3.9 1.1 1.4.9 1.7-.3.5-1.4-.4-1.7-1.4s0-2.4.6-2.2c.2.1-.1 1.1.2 1.9z" fill="#fc0"/><path d="m26.1 42.2c.2.8.9 1.5 1.4 1.6-.4.2-1.3-.6-1.6-1.5-.3-1 0-2.3.6-2.2-.4.1-.6 1.2-.4 2.1z" opacity=".15"/><path d="m27.6 43.6c.3-.1.4-3.6-.2-3.6-.6-.1-.4 3.9.2 3.6z" fill="#fc0"/><path d="m27.4 40c.7.1.5 3.5.2 3.6.1-.9.1-2.7-.2-3.6z" opacity=".15"/><path d="m25.8 44.9c-.5-.8-.4-1.7-.8-1.8-.6 0-.5 1.4.1 2.2.6.9 1.9 1.5 2.1.9 0-.2-.9-.5-1.4-1.3z" fill="#fc0"/><path d="m25.3 45.2c-.4-.7-.6-1.6-.4-2-.4.2-.3 1.4.2 2.2.6.9 1.9 1.4 2.1.9-.5.1-1.4-.4-1.9-1.1z" opacity=".15"/><path d="m26.4 44.6c-.3-.9.1-1.8-.3-1.9-.6-.2-.9 1.2-.5 2.2.3 1 1.4 1.9 1.8 1.4.1-.2-.7-.8-1-1.7z" fill="#fc0"/><path d="m25.8 44.8c-.3-.7-.2-1.7.2-2.1-.5.1-.7 1.3-.4 2.2.3 1 1.4 1.9 1.8 1.4-.5.1-1.3-.7-1.6-1.5z" opacity=".15"/><path d="m26.7 42.6c-.2 0-.6 1-.4 2s.7 1.8 1.1 1.7-.2-.9-.3-1.9.1-1.8-.4-1.8z" fill="#fc0"/><path d="m26.6 44.6c-.1-.8-.1-1.5.1-1.9-.2.1-.5 1-.3 2s.6 1.7 1 1.7c-.3-.3-.7-1-.8-1.8z" opacity=".15"/><path d="m29.7 44.7c-.5.7-1.5 1-1.4 1.3.2.6 1.5 0 2.1-.8s.7-2.3.1-2.2c-.3-.1-.3.9-.8 1.7z" fill="#fc0"/><path d="m30.1 45.1c-.5.6-1.3 1.1-1.8 1.1.3.3 1.5-.2 2-1 .6-.8.7-2.2.1-2.2.4.2.3 1.4-.3 2.1z" opacity=".15"/><path d="m29.1 44.7c.5-.8.3-1.8.7-1.8.6-.1.6 1.4 0 2.2-.6.9-1.8 1.5-2 1-.1-.2.8-.6 1.3-1.4z" fill="#fc0"/><path d="m29.6 45c.4-.7.5-1.6.3-2 .4.2.4 1.4-.1 2.2-.5.9-1.8 1.5-2 1 .4.1 1.4-.5 1.8-1.2z" opacity=".15"/><path d="m28.3 44.6c-.3.9-1.1 1.4-.9 1.7.3.5 1.4-.4 1.7-1.4s0-2.4-.6-2.2c-.3.1 0 1-.2 1.9z" fill="#fc0"/><path d="m28.8 44.8c-.2.8-.9 1.5-1.4 1.6.4.2 1.3-.6 1.6-1.5.3-1 0-2.3-.6-2.2.5.2.7 1.3.4 2.1z" opacity=".15"/><path d="m27.3 46.3c-.3-.2 0-3.6.7-3.6.6 0-.1 3.9-.7 3.6z" fill="#fc0"/><path d="m28 42.7c-.7 0-1 3.4-.7 3.6 0-.9.3-2.7.7-3.6z" opacity=".15"/></svg>