<svg xmlns:xlink="http://www.w3.org/1999/xlink"  enable-background="new 0 0 480 400" height="400" viewBox="0 0 480 400" width="480" xmlns="http://www.w3.org/2000/svg"><path d="m322.9 363.5c45.8-24.8 113.7-52.3 45.6-94-63.6-38.9-120.4-.2-165.3 23.7-66.2 35.2-85.4 60.6-44.9 86 41.4 25.9 78.3 31 164.6-15.7z" opacity=".2"/><path d="m192.4 327s-5.4-4.3-5.2-.5 5.2.5 5.2.5z" fill="#baa794"/><path d="m292.4 363.1s-10.3-7.4-8.7-.8 8.7.8 8.7.8z" fill="#baa794"/><path d="m378.4 321.9s-8.2-6.7-6.5-1c1.6 5.7 6.5 1 6.5 1z" fill="#baa794"/><path d="m431.3 138.8c1.8.8 2.1 17.5-4.4 16.1-6.4-1.3-6.3-7.2-6.4-8.8 0-1.6 7.9-8.5 10.8-7.3z" fill="#baa794"/><path d="m396.6 195.6c10.2-.7 21.3-4.1 25.7-11.8s11.5-11.8 10.8-17.3-.7-18.3-10.5-24.4-38.9-22.3-38.9-22.3z" fill="#825012"/><path d="m336.4 125.8c5.1-8.1 13.2-16.9 42.7-18.6 29.4-1.7 35.9-17.6 37.9-17.2 2 .3-3 20.7-23 26.1s-38.9 10.2-44.4 19.3c-5.4 9.1-13.2-9.6-13.2-9.6z" fill="#baa794"/><path d="m284.5 86.2c19-16.3 72.8-40 93.8 1s20.3 34.9 25.7 70.4-1 51.1-34.2 61.3-85.3-132.7-85.3-132.7z" fill="#825012"/><path d="m373.2 159.3c7 16.9 4.1 29.7 26.5 41.3-5.4 8.1-15 13.8-29.9 18.4-28.3 8.7-70.3-93.7-82.1-124.3-2-5.3 58.8 0 85.5 64.6z" opacity=".15"/><path d="m413.4 161.1s-2-8.8 2.5-10.2 7.4 3.8 8.8 7.2-8.8 5.9-11.3 3z" opacity=".15"/><path d="m416.5 154.6c4.1-2 7.4 5.4 3.2 6.8s-6-5.4-3.2-6.8z" fill="#2d3134"/><g opacity=".15"><path d="m361.3 69.3-7.8 34.4 17.6-26.8c-3-3.2-6.3-5.7-9.8-7.6z"/><path d="m341.4 64.5.5 32.1 10.1-30.8c-3.4-.8-7-1.2-10.6-1.3z"/><path d="m317.2 95-3.2-25.4c-2.7 1-5.3 2-7.8 3.2z"/><path d="m323 66.9 7 26.5 2.1-28.3c-3 .4-6.1 1-9.1 1.8z"/><path d="m301.2 97.2-5.2-19c-3.8 2.2-7.1 4.5-9.9 6.7z"/><path d="m378.5 87.6-14.7 24.3 20.6-12.9c-1.8-3.3-3.7-7.1-5.9-11.4z"/><path d="m405.6 180.6-17.2 2.6 16.1 6c.6-2.7 1-5.6 1.1-8.6z"/><path d="m376.1 139.9 24.3-3.8c-.7-3.4-1.5-6.3-2.5-9.1z"/><path d="m389.7 109.2-16.9 15.8 22.1-5.3c-1.3-3-3-6.3-5.2-10.5z"/><path d="m405.6 173.3c-.1-3.5-.5-7.3-1-11.3l-21.1 9.3z"/><path d="m379.8 154.7 23.6-.8c-.7-4.7-1.3-8.5-1.9-11.9z"/></g><path d="m424.8 179.7s3.7-10.3 3.2-12.8 4.7-6.2 4.7-6.2 2.4 6.7 1.5 9-9.4 10-9.4 10z" fill="#656565"/><path d="m142.7 270.7c.3 30.2 5.6 36.8 1.9 51-3.8 14.1-.9 22 10.4 23.3s37.2-3.8 36.8-12.9c-.3-9.1-14.8-12.3-15.7-24.2s5.7-20.4 11.6-31.7c6-11.3 9.7-43 9.7-43z" fill="#825012"/><path d="m142.7 270.7c.3 30.2 5.6 36.8 1.9 51-3.8 14.1-.9 22 10.4 23.3s37.2-3.8 36.8-12.9c-.3-9.1-14.8-12.3-15.7-24.2s5.7-20.4 11.6-31.7c6-11.3 9.7-43 9.7-43z" opacity=".15"/><g fill="#baa794"><path d="m276.1 77.4s5.6 18.3 11.7 12-11.7-12-11.7-12z"/><path d="m294.5 62.2s-2.7 22.6 8.6 16.7-8.6-16.7-8.6-16.7z"/><path d="m314.3 54.3s-7.9 19 5 16.9c12.8-2-5-16.9-5-16.9z"/><path d="m335.2 52.3s-12.2 16.3 1.6 17.8c13.8 1.6-1.6-17.8-1.6-17.8z"/><path d="m358.3 58.1s-15.5 9.5-2.9 14.7 2.9-14.7 2.9-14.7z"/><path d="m378.5 73.7s-15.6 3.8-5.7 12.6c10 8.8 5.7-12.6 5.7-12.6z"/><path d="m393.3 102s-14.9-9.3-9.6 2.9 9.6-2.9 9.6-2.9z"/><path d="m407.4 157.9s-8.4-12.2-7 .2 7-.2 7-.2z"/><path d="m401.8 122.1s-11-10.7-7.7 1.4 7.7-1.4 7.7-1.4z"/><path d="m405.9 140s-9.1-12.3-7.8.1 7.8-.1 7.8-.1z"/><path d="m409.2 178.4s-7.2-11.3-6.8-1.6 6.8 1.6 6.8 1.6z"/><path d="m406.8 192.7s-3.6-10.6-4.1-2.8c-.4 7.7 4.1 2.8 4.1 2.8z"/></g><path d="m349 127c-25.7-29.2-60.4-50.2-107.8-31.8-63.6 24.7-96.2 41.2-129.1 119.8-38.3 91.5-97.3 102.9-99.1 108.2-1.9 5.3 36.8 12.4 72.3-5.9 35.5-18.2 79.4-48.9 98.5-54.7 18.5-5.6 34.6-11.1 49.4 2.8 7.3 6.9 10.8 9.9 10.2 14.8s-9.3 15.8-8 34.9c1.2 19.2 1.9 31.2.3 42s-2.5 21.3 12.7 24.1c15.1 2.8 43.9-2.8 41.4-15.8s-16.4-19.2-15.8-33.7 20.1-34.6 20.4-52.5-3.4-27.2-3.4-27.2 10.5-3.4 15.4-4.9c6.7-2.1 11.4-4.6 11.4-4.6s7.7 18.2 7.7 20.4 1.2 30 4 38.6 4.3 11.7 3.7 16.1c-.6 4.3-1.2 17.6 11.7 19.2s33.5-2.3 30.9-12c-2.8-10.2-5.6-8.6-8-15.1-2.5-6.5-5.6-27.8-6.8-41.1s19.2-42.3 12-82.2c-7-39.9-17.2-51.6-24-59.4z" fill="#825012"/><path d="m189.2 340.5s-1.7-9.5-6.3-4.5c-4.5 5 6.3 4.5 6.3 4.5z" fill="#baa794"/><path d="m194.8 333.4s-2.5-3.1-4.5-4.2c-1.2-.7-1.9 4.2-.6 4.6 2.1.6 5.1-.4 5.1-.4z" fill="#baa794"/><path d="m400.9 130.6c5.7-6.3 15.7-11.9 38.7-13.2 29.5-1.7 35.9-17.6 37.9-17.3s-3 20.7-23 26.1c-15.6 4.2-30.6 8.1-39 13.9-2.4 1.6-16.2-7.7-14.6-9.5z" fill="#baa794"/><path d="m295.5 371.1s-3.7-2.6-7.3-4.3c-4-1.8-4.7 7-3.3 7.6 4.3 1.8 10.6-3.3 10.6-3.3z" fill="#baa794"/><path d="m379.9 327.6s-2.6-2.2-5.1-3.5c-2.5-1.4-2 5.4-.9 5.7 2.7.9 6-2.2 6-2.2z" fill="#baa794"/></svg>