<svg xmlns:xlink="http://www.w3.org/1999/xlink"  enable-background="new 0 0 480 400" height="400" viewBox="0 0 480 400" width="480" xmlns="http://www.w3.org/2000/svg"><path d="m339 365.7c45.3-25.9 113.7-52.3 45.6-94-63.6-38.9-120.4-.2-165.3 23.7-66.2 35.2-85.4 60.6-44.9 86 41.4 25.9 95.4 23.8 164.6-15.7z" opacity=".2"/><path d="m253.4 255.6c-.2 7.3-5.1 25.3-10.7 33.2s-3.2 16.1 15.1 17.1c18.4 1.1 26.6-2.8 28.3-8.3 1.7-5.6 11.4-55.8 11.4-55.8z" fill="#825012"/><path d="m176.2 275.7c.9 10 2.2 22.9 1.7 26.7s-3.7 18.4-7.4 23.3-21.2 20.7 1.1 24.4c22.2 3.7 36.6-1.9 37.8-9.3s-2.6-17.5-1.1-24.4 9.1-16.7 8.8-41.2c-.3-24.6-.3-24.6-.3-24.6z" fill="#825012"/><path d="m253.4 255.6c-.2 7.3-5.1 25.3-10.7 33.2s-3.2 16.1 15.1 17.1c18.4 1.1 26.6-2.8 28.3-8.3 1.7-5.6 11.4-55.8 11.4-55.8z" opacity=".15"/><path d="m176.2 275.7c.9 10 2.2 22.9 1.7 26.7s-3.7 18.4-7.4 23.3-21.2 20.7 1.1 24.4c22.2 3.7 36.6-1.9 37.8-9.3s-2.6-17.5-1.1-24.4 9.1-16.7 8.8-41.2c-.3-24.6-.3-24.6-.3-24.6z" opacity=".15"/><path d="m181.9 355.3s13.5-9.5 2.4-10.3-2.4 10.3-2.4 10.3z" fill="#baa794"/><path d="m200.9 351.6s5.5-10.7-2.9-7.6c-8.3 3.2 2.9 7.6 2.9 7.6z" fill="#baa794"/><path d="m166.4 354.4s12.6-5.1 6-9.3-6 9.3-6 9.3z" fill="#baa794"/><path d="m158.5 348.3s8.5-1.8 5.2-6.2c-3.4-4.4-5.2 6.2-5.2 6.2z" fill="#baa794"/><path d="m237.8 303.8s9.1-2.9 5.6-7.2c-3.4-4.3-5.6 7.2-5.6 7.2z" fill="#baa794"/><path d="m245.1 307.9s12.6-2.9 5.4-7.4-5.4 7.4-5.4 7.4z" fill="#baa794"/><path d="m258.3 310.7s11.2-7.4 3.4-9c-7.9-1.5-3.4 9-3.4 9z" fill="#baa794"/><path d="m272.3 311.1s6.6-9.2-.5-8.9.5 8.9.5 8.9z" fill="#baa794"/><path d="m283 306s4.9-9.3-1.3-5.8 1.3 5.8 1.3 5.8z" fill="#baa794"/><path d="m391.1 126.7c21.4 51.9 63.9 30.1 66.9 32.6s-22.8 33.7-57.1 24.8c-46.4-12-9.8-57.4-9.8-57.4z" fill="#825012"/><path d="m391.1 126.7c21.4 51.9 63.9 30.1 66.9 32.6s-22.8 33.7-57.1 24.8c-46.4-12-9.8-57.4-9.8-57.4z" opacity=".15"/><path d="m181.1 162.7c54.7-51 88.3-73.5 135.3-79.4 46-5.7 78 38.8 80.9 60.8 2.9 21.8 2.8 45.4-3.7 67s-9.3 31.2-9.3 31.2 10.2 5.9 8 21.6c-2.2 15.8-3.2 18.8-1.7 21.3s3.2 5.7 3.1 11.1c-.2 5.4 1.1 7.3 3.6 11.9s8.5 19.9-5.3 24.9-46.3 6.3-44.8-5.6 21.3-18.4 16.7-34.1c-4.6-15.8-18.2-32.9-21.9-42.2s-4.2-23.2-4.2-23.2-7.3 11.7-12.7 16.7c-5.4 4.9-9.4 6.6-9.4 6.6s4.8 17.6 7.4 23.8 3.6 14.5 1.2 31.7c-2.3 17.1 1.4 22.4-1.4 30.3s-5.3 12.2-4.2 18.5 10.3 23.8-27.6 28.4c-34.5 4.2-15.3-20.8-12.4-25.3s3.9-9.7 3.7-13.7 5.3-10.7 4.6-17-2.5-25.8-4.9-29.7c-2.5-3.9-28.3-32-38.8-37.2s-39.3 13.6-39.3 13.6z" fill="#825012"/><path d="m110.1 294.6c11.1 7.8 30.3 1.9 41.4-4s25.9 5.9 48.2-8.6 26.6-23.5 26.6-23.5 70.2-3.1 50.7-90.8c-17.2-77-101.8-72.4-125-44.7-2.4 2.8-4.7 8.9-7.5 33.3-3 26.7-11.8 47.3-20.7 62.7-11.6 19.7-48 51.5-13.7 75.6z" fill="#825012"/><path d="m143 202.7c-1.8-8.5-16.7-19.2-43.2-14.5-26.6 4.6-23.3 8-38.7 7.1s-28.5-5.7-29.7-3.7c-.9 1.6 20.2 16 39 16s32.4-9.2 43.2.4 9.6 14.3 11.7 14.2c10.5-.4 18.9-13.7 17.7-19.5z" fill="#baa794"/><path d="m167.8 202.9c7.4-3.3 17.4-.1 18.8 11.9.8 6.8-2.2 15.5-15.4 15.5-13.3 0-14.5 2.5-29 2.5-15.7 0-26.9-6.8-26.9-8.6s21.3 1.2 33-4.9c11.8-6.2 11.2-12.7 19.5-16.4z" fill="#baa794"/><path d="m94.8 242.4s-.6 16.7 9.3 17.5 18.3-6.8 15.2-13.8-19.5-1.6-24.5-3.7z" fill="#baa794"/><path d="m96.1 266.9c4.9-2.3 11.1 2.1 21.4 8.9s12.4-1.4 21.4 1.4c9.1 2.9 11.5 5.1 11.5 5.1s-2.9 11.1-13.2 14.8c-4.8 1.7-25.1 7.8-35.4-8.9-10.1-16.1-5.7-21.3-5.7-21.3z" fill="#656565"/><path d="m107.4 294.5s3.1-7.8 10.5-10.1 18.1-1.4 18.1-1.4-.6 3.7-6.2 5.8c-5.5 2-13.4-3.1-22.4 5.7z" opacity=".3"/><path d="m163.2 250.9s4.1-10.1 11.3-11.7 15.6 5.4 15.6 5.4-1.9 9.5-10.1 11.1c-8.2 1.5-16.8-4.8-16.8-4.8z" opacity=".2"/><path d="m174.9 243.2c7.1-2.6 11.1 7.2 3.7 9.7s-11.5-6.8-3.7-9.7z" fill="#2d3134"/><path d="m362.8 340.7s14.5-7 3.4-9.9c-11.2-3-3.4 9.9-3.4 9.9z" fill="#baa794"/><path d="m349.1 337.1s13.4-2.7 5.7-8-5.7 8-5.7 8z" fill="#baa794"/><path d="m382.5 340.1s8.4-10.7-1.9-8.6 1.9 8.6 1.9 8.6z" fill="#baa794"/><path d="m344.3 330s7.6-.9 5.3-5-5.3 5-5.3 5z" fill="#baa794"/><path d="m269.4 382.6s11.3 0 7.5-6.8c-3.7-6.8-7.5 6.8-7.5 6.8z" fill="#baa794"/><path d="m281 387.3s13.2-5.2 6.1-8.7c-7.2-3.6-6.1 8.7-6.1 8.7z" fill="#baa794"/><path d="m295.2 386.6s9.3-6.6 1.6-7.2c-7.6-.6-1.6 7.2-1.6 7.2z" fill="#baa794"/><path d="m269.3 374.5s5.1-1.2 3.7-4.1-3.7 4.1-3.7 4.1z" fill="#baa794"/><path d="m327.2 232.8c-7.4.6-17 .9-17 .9l5.6 17.8s4-1.7 9.4-6.6 12.7-16.7 12.7-16.7-3.3 4-10.7 4.6z" opacity=".15"/><g opacity=".15"><path d="m222 107.3c-3.9-1-7.9-1.7-11.8-2.2-4 13.6-4.9 26.4-12.8 52.1 10.7-21.4 17.3-35.7 24.6-49.9z"/><path d="m277.7 171.7c-.3-1.3-.5-2.7-.8-4-.6-2.8-1.3-5.4-2.1-8-14.9 6.6-43.6 23.1-43.6 23.1s28.6-6.9 46.5-11.1z"/><path d="m248.7 120.4c-10 11.6-30.8 41.7-30.8 41.7s25.9-23 39.5-33.7c-2.8-3-5.7-5.7-8.7-8z"/><path d="m187.4 105.6c-1.2 14.4-1 45.4-1 45.4s8.2-30.8 12.5-46.4c-3.9.1-7.8.4-11.5 1z"/><path d="m153.3 121.4c2.5 12.4 6.2 30.2 6.2 30.2s2.1-19.9 1.5-36.5c-2.9 1.9-5.6 4-7.7 6.3z"/><path d="m169 110.8c.9 13.9 4.3 37.4 4.3 37.4s3.4-25 5.3-40.8c-3.3 1-6.5 2.1-9.6 3.4z"/><path d="m231.4 110.4c-6.8 12.3-21.2 48-21.2 48s21.8-30.3 31.9-42.6c-3.5-2.1-7.1-3.9-10.7-5.4z"/><path d="m237.9 208.1s20.7 6.8 39.1 11.3c1.1-3.5 2-7.3 2.5-11.5-17-.9-41.6.2-41.6.2z"/><path d="m235.2 195.2s25.7 1.3 45.1 1.4c0-3.7-.2-7.7-.6-11.8-17.4 3.1-44.5 10.4-44.5 10.4z"/><path d="m224.7 172s29.9-17.3 45.3-24.8c-1.9-3.9-4-7.6-6.3-10.9-11.9 8.9-39 35.7-39 35.7z"/><path d="m238.9 221.1s13.9 8 29.1 15.8c2.1-2.7 4.1-5.7 5.8-9.2-15-4.4-34.9-6.6-34.9-6.6z"/><path d="m249.5 251.8c-9.7-7.7-18.4-12.5-18.4-12.5s3 6 11.4 15.5c2.2-.7 4.6-1.7 7-3z"/><path d="m235.8 230.7s7.3 7.9 19.8 17.7c2.6-1.7 5.2-3.8 7.7-6.2-13.2-6.9-27.5-11.5-27.5-11.5z"/></g><g fill="#baa794"><path d="m165.2 100.4s-10.1 22.5 3 17.2c13.2-5.4-3-17.2-3-17.2z"/><path d="m149.4 115.8s-3.3 17.4 4.3 10.5-4.3-10.5-4.3-10.5z"/><path d="m183.8 93.1s-14.6 21.2-1 18.9 1-18.9 1-18.9z"/><path d="m207.9 91.9s-22.2 17.5-4.7 18.7c17.4 1.3 4.7-18.7 4.7-18.7z"/><path d="m232.2 96.4s-24.1 12.6-8.6 16.9c15.4 4.3 8.6-16.9 8.6-16.9z"/><path d="m253 105.7s-23.3 8.6-11.1 16.1c11.8 7.2 11.1-16.1 11.1-16.1z"/><path d="m274 126.5s-25.2-5.1-18.4 8.3 18.4-8.3 18.4-8.3z"/><path d="m284.1 151s-22.2-11.3-18.1 3.5 18.1-3.5 18.1-3.5z"/><path d="m290.2 178.2s-18-15.2-17.7-.3 17.7.3 17.7.3z"/><path d="m290.2 204.5s-14.8-14.8-15.6-3.3c-.8 11.6 15.6 3.3 15.6 3.3z"/><path d="m283 229.4s-6.8-16.9-11.3-7.2 11.3 7.2 11.3 7.2z"/><path d="m271.5 244.7s-2.9-15.9-9.3-7c-6.3 8.8 9.3 7 9.3 7z"/><path d="m257.1 255.2s2.9-13.4-3.9-8c-6.8 5.3 3.9 8 3.9 8z"/><path d="m242.7 262.4s6.4-11.5-1-9.3c-7.5 2.3 1 9.3 1 9.3z"/></g></svg>