<svg xmlns:xlink="http://www.w3.org/1999/xlink"  enable-background="new 0 0 32 24" height="24" viewBox="0 0 32 24" width="32" xmlns="http://www.w3.org/2000/svg"><g fill="#539b00"><path d="m18.6 4.2c-.9 1.5-1.7 1.9-2 2.4v-2.7h-.6v3.2c-.4-.4-1.1-1-1.9-2.3.5 2.2 1.4 3.8 1.9 4.1v6.2c-.4-.4-1.1-1-1.9-2.3.1.5.3 1 .4 1.5-.9 1.4-1.6 1.9-2 2.3v-2.3c.5-.1 1.5-1.8 2-4.2-.9 1.5-1.7 1.9-2 2.4v-6.6h-.5v3.2c-.4-.4-1.1-1-1.9-2.3.1.5.3 1 .4 1.5-.9 1.4-1.6 1.9-2 2.3v-2.7h-.5v7.2c-.4-.4-1.1-1-1.9-2.3.5 2.2 1.4 3.8 1.9 4.1v1.1h.5v-5.7c.5-.1 1.5-1.7 2-4 .5 1.4 1.1 2.4 1.5 2.6v2.2c-.4-.4-1.1-1-1.9-2.3.5 2.1 1.4 3.8 1.9 4.1v2.2c-.4-.4-1.1-1-1.9-2.3.5 2.1 1.4 3.8 1.9 4.1v1.1h.5v-1.7c.5-.1 1.5-1.7 2-4 .5 1.4 1.1 2.4 1.5 2.6v2.2c-.4-.4-1.1-1-1.9-2.3.5 2.1 1.4 3.8 1.9 4.1v1.1h.5v-1.7c.5-.1 1.5-1.8 2-4.2-.9 1.5-1.7 1.9-2 2.4v-2.3c.5-.1 1.5-1.8 2-4.2-.9 1.5-1.7 1.9-2 2.4v-2.3c.5-.1 1.5-1.8 2-4.2-.9 1.5-1.7 1.9-2 2.4v-2c.5-.1 1.5-1.8 2.1-4.1z"/><path d="m6.6 10.2c-.9 1.5-1.7 1.9-2 2.4v-2.7h-.6v3.2c-.4-.4-1.1-1-1.9-2.3.5 2.2 1.4 3.8 1.9 4.1v1h.5v-1.6c.5-.1 1.5-1.8 2.1-4.1z"/><path d="m30.6 10.2c-.9 1.5-1.7 1.9-2 2.4v-2.7h-.6v3.2c-.4-.4-1.1-1-1.9-2.3.1.5.3 1 .4 1.5-.9 1.4-1.6 1.9-2 2.3v-6.7h-.5v3.2c-.4-.4-1.1-1-1.9-2.3.1.5.3 1 .4 1.5-.9 1.4-1.6 1.9-2 2.3v-2.3c.5-.1 1.5-1.8 2-4.2-.9 1.5-1.7 1.9-2 2.4v-2.6h-.5v14.1h.5v-1.7c.5-.1 1.5-1.7 2-4 .5 1.4 1.1 2.4 1.5 2.6v1.1h.5v-1.7c.5-.1 1.5-1.7 2-4 .5 1.4 1.1 2.4 1.5 2.6v1h.5v-1.6c.5-.1 1.5-1.8 2.1-4.1zm-8.5 2.6c.1.5.3 1 .4 1.5-.9 1.4-1.6 1.9-2 2.3v-2.3c.5-.1 1.5-1.7 2-4 .5 1.4 1.1 2.4 1.5 2.6v2.2c-.4-.5-1.1-1-1.9-2.3z"/></g><path d="m11.4 5.5c-.2.6.2 1.3.8 1.4.6.2 1.3-.2 1.4-.8s-.4-3.1-.4-3.1-1.7 1.9-1.8 2.5z" fill="#fc0"/><path d="m11.4 5.5c-.2.6.2 1.3.8 1.4.6.2 1.3-.2 1.4-.8s-.4-3.1-.4-3.1-1.7 1.9-1.8 2.5z" opacity=".15"/><path d="m13.2 5.5c.2.6-.2 1.3-.8 1.4-.6.2-1.3-.2-1.4-.8s.3-3.1.3-3.1 1.7 1.9 1.9 2.5z" fill="#fc0"/><path d="m15.4 3.5c-.2.6.2 1.3.8 1.4.6.2 1.3-.2 1.4-.8s-.4-3.1-.4-3.1-1.7 1.9-1.8 2.5z" fill="#f90"/><path d="m15.4 3.5c-.2.6.2 1.3.8 1.4.6.2 1.3-.2 1.4-.8s-.4-3.1-.4-3.1-1.7 1.9-1.8 2.5z" opacity=".15"/><path d="m17.2 3.5c.2.6-.2 1.3-.8 1.4s-1.3-.2-1.4-.8.3-3.1.3-3.1 1.7 1.9 1.9 2.5z" fill="#f90"/><path d="m7.4 7.5c-.2.6.2 1.2.8 1.4s1.3-.2 1.4-.8-.4-3.1-.4-3.1-1.7 1.9-1.8 2.5z" fill="#f90"/><path d="m7.4 7.5c-.2.6.2 1.2.8 1.4s1.3-.2 1.4-.8-.4-3.1-.4-3.1-1.7 1.9-1.8 2.5z" opacity=".15"/><path d="m9.2 7.5c.1.6-.2 1.2-.8 1.4-.7.2-1.3-.2-1.5-.8-.1-.6.4-3.1.4-3.1s1.7 1.9 1.9 2.5z" fill="#f90"/><path d="m3.4 9.5c-.2.6.2 1.3.8 1.4.6.2 1.3-.2 1.4-.8s-.4-3.1-.4-3.1-1.7 1.9-1.8 2.5z" fill="#cc291f"/><path d="m3.4 9.5c-.2.6.2 1.3.8 1.4.6.2 1.3-.2 1.4-.8s-.4-3.1-.4-3.1-1.7 1.9-1.8 2.5z" opacity=".15"/><path d="m5.2 9.5c.2.6-.2 1.3-.8 1.4-.6.2-1.3-.2-1.4-.8-.2-.6.3-3.1.3-3.1s1.7 1.9 1.9 2.5z" fill="#cc291f"/><path d="m15.4 7.5c-.2.6.2 1.3.8 1.4.6.2 1.3-.2 1.4-.8s-.4-3.1-.4-3.1-1.7 1.9-1.8 2.5z" fill="#fc0"/><path d="m15.4 7.5c-.2.6.2 1.3.8 1.4.6.2 1.3-.2 1.4-.8s-.4-3.1-.4-3.1-1.7 1.9-1.8 2.5z" opacity=".15"/><path d="m17.2 7.5c.2.6-.2 1.3-.8 1.4s-1.3-.2-1.4-.8.3-3.1.3-3.1 1.7 1.9 1.9 2.5z" fill="#fc0"/><path d="m19.4 5.5c-.2.6.2 1.3.8 1.4.6.2 1.3-.2 1.4-.8s-.4-3.1-.4-3.1-1.7 1.9-1.8 2.5z" fill="#fc0"/><path d="m19.4 5.5c-.2.6.2 1.3.8 1.4.6.2 1.3-.2 1.4-.8s-.4-3.1-.4-3.1-1.7 1.9-1.8 2.5z" opacity=".15"/><path d="m21.2 5.5c.2.6-.2 1.3-.8 1.4-.6.2-1.3-.2-1.4-.8s.3-3.1.3-3.1 1.7 1.9 1.9 2.5z" fill="#fc0"/><path d="m11.4 9.5c-.2.6.2 1.3.8 1.4.6.2 1.3-.2 1.4-.8s-.4-3.1-.4-3.1-1.7 1.9-1.8 2.5z" fill="#cc291f"/><path d="m11.4 9.5c-.2.6.2 1.3.8 1.4.6.2 1.3-.2 1.4-.8s-.4-3.1-.4-3.1-1.7 1.9-1.8 2.5z" opacity=".15"/><path d="m13.2 9.5c.2.6-.2 1.3-.8 1.4-.6.2-1.3-.2-1.4-.8-.2-.6.3-3.1.3-3.1s1.7 1.9 1.9 2.5z" fill="#cc291f"/><path d="m7.4 11.5c-.2.6.2 1.3.8 1.4.6.2 1.3-.2 1.4-.8s-.4-3.1-.4-3.1-1.7 1.9-1.8 2.5z" fill="#fc0"/><path d="m7.4 11.5c-.2.6.2 1.3.8 1.4.6.2 1.3-.2 1.4-.8s-.4-3.1-.4-3.1-1.7 1.9-1.8 2.5z" opacity=".15"/><path d="m9.2 11.5c.2.6-.2 1.3-.8 1.4s-1.3-.2-1.4-.8c-.2-.6.3-3.1.3-3.1s1.7 1.9 1.9 2.5z" fill="#fc0"/><path d="m19.4 9.5c-.2.6.2 1.3.8 1.4s1.3-.2 1.4-.8-.4-3.1-.4-3.1-1.7 1.9-1.8 2.5z" fill="#fc0"/><path d="m19.4 9.5c-.2.6.2 1.3.8 1.4s1.3-.2 1.4-.8-.4-3.1-.4-3.1-1.7 1.9-1.8 2.5z" opacity=".15"/><path d="m21.2 9.5c.2.6-.2 1.3-.8 1.4s-1.3-.2-1.4-.8c-.2-.6.3-3.1.3-3.1s1.7 1.9 1.9 2.5z" fill="#fc0"/><path d="m23.4 7.5c-.2.6.2 1.3.8 1.4s1.3-.2 1.4-.8-.4-3.1-.4-3.1-1.7 1.9-1.8 2.5z" fill="#cc291f"/><path d="m23.4 7.5c-.2.6.2 1.3.8 1.4s1.3-.2 1.4-.8-.4-3.1-.4-3.1-1.7 1.9-1.8 2.5z" opacity=".15"/><path d="m25.2 7.5c.2.6-.2 1.3-.8 1.4s-1.3-.2-1.4-.8.3-3.1.3-3.1 1.7 1.9 1.9 2.5z" fill="#cc291f"/><path d="m15.4 11.5c-.2.6.2 1.3.8 1.4.6.2 1.3-.2 1.4-.8.2-.6-.4-3.1-.4-3.1s-1.7 1.9-1.8 2.5z" fill="#f90"/><path d="m15.4 11.5c-.2.6.2 1.3.8 1.4.6.2 1.3-.2 1.4-.8.2-.6-.4-3.1-.4-3.1s-1.7 1.9-1.8 2.5z" opacity=".15"/><path d="m17.2 11.5c.2.6-.2 1.3-.8 1.4s-1.3-.2-1.4-.8c-.2-.6.3-3.1.3-3.1s1.7 1.9 1.9 2.5z" fill="#f90"/><path d="m11.4 13.5c-.2.6.2 1.3.8 1.4.6.2 1.3-.2 1.4-.8.2-.6-.4-3.1-.4-3.1s-1.7 1.9-1.8 2.5z" fill="#f90"/><path d="m11.4 13.5c-.2.6.2 1.3.8 1.4.6.2 1.3-.2 1.4-.8.2-.6-.4-3.1-.4-3.1s-1.7 1.9-1.8 2.5z" opacity=".15"/><path d="m13.2 13.5c.2.6-.2 1.3-.8 1.4-.6.2-1.3-.2-1.4-.8-.2-.6.4-3.1.4-3.1s1.6 1.9 1.8 2.5z" fill="#f90"/><path d="m23.4 11.5c-.2.6.2 1.3.8 1.4s1.3-.2 1.4-.8c.2-.6-.4-3.1-.4-3.1s-1.7 1.9-1.8 2.5z" fill="#f90"/><path d="m23.4 11.5c-.2.6.2 1.3.8 1.4s1.3-.2 1.4-.8c.2-.6-.4-3.1-.4-3.1s-1.7 1.9-1.8 2.5z" opacity=".15"/><path d="m25.2 11.5c.2.6-.2 1.3-.8 1.4s-1.3-.2-1.4-.8c-.2-.6.3-3.1.3-3.1s1.7 1.9 1.9 2.5z" fill="#f90"/><path d="m27.4 9.5c-.2.6.2 1.3.8 1.4s1.3-.2 1.4-.8-.4-3.1-.4-3.1-1.7 1.9-1.8 2.5z" fill="#fc0"/><path d="m27.4 9.5c-.2.6.2 1.3.8 1.4s1.3-.2 1.4-.8-.4-3.1-.4-3.1-1.7 1.9-1.8 2.5z" opacity=".15"/><path d="m29.2 9.5c.2.6-.2 1.3-.8 1.4s-1.3-.2-1.4-.8c-.2-.6.3-3.1.3-3.1s1.7 1.9 1.9 2.5z" fill="#fc0"/><path d="m19.4 13.5c-.2.6.2 1.3.8 1.4s1.3-.2 1.4-.8c.2-.6-.4-3.1-.4-3.1s-1.7 1.9-1.8 2.5z" fill="#cc291f"/><path d="m19.4 13.5c-.2.6.2 1.3.8 1.4s1.3-.2 1.4-.8c.2-.6-.4-3.1-.4-3.1s-1.7 1.9-1.8 2.5z" opacity=".15"/><path d="m21.2 13.5c.2.6-.2 1.3-.8 1.4s-1.3-.2-1.4-.8c-.2-.6.4-3.1.4-3.1s1.6 1.9 1.8 2.5z" fill="#cc291f"/><path d="m15.4 15.5c-.2.6.2 1.3.8 1.4.6.2 1.3-.2 1.4-.8.2-.6-.4-3.1-.4-3.1s-1.7 1.9-1.8 2.5z" fill="#fc0"/><path d="m15.4 15.5c-.2.6.2 1.3.8 1.4.6.2 1.3-.2 1.4-.8.2-.6-.4-3.1-.4-3.1s-1.7 1.9-1.8 2.5z" opacity=".15"/><path d="m17.2 15.5c.2.6-.2 1.3-.8 1.4s-1.3-.2-1.4-.8c-.2-.6.4-3.1.4-3.1s1.6 1.9 1.8 2.5z" fill="#fc0"/></svg>