<svg xmlns:xlink="http://www.w3.org/1999/xlink"  enable-background="new 0 0 64 40" height="40" viewBox="0 0 64 40" width="64" xmlns="http://www.w3.org/2000/svg"><g fill="#539b00"><path d="m50.6 12.2c-.9 1.5-1.7 1.9-2 2.4v-2.7h-.6v3.2c-.4-.4-1.1-1-1.9-2.3.5 2.1 1.4 3.8 1.9 4.1v6.2c-.4-.4-1.1-1-1.9-2.3.1.5.3 1 .4 1.5-.9 1.4-1.6 1.9-2 2.3v-2.3c.5-.1 1.5-1.8 2-4.2-.9 1.5-1.7 1.9-2 2.4v-6.3c.5-.1 1.5-1.8 2-4.2-.9 1.5-1.7 1.9-2 2.4v-2.5h-.5v3.2c-.4-.4-1.1-1-1.9-2.3.1.5.3 1 .4 1.5-.9 1.4-1.6 1.9-2 2.3v-6.7h-.5v3.2c-.4-.4-1.1-1-1.9-2.3.1.5.3 1 .4 1.5-.9 1.4-1.6 1.9-2 2.3v-2.3c.5-.1 1.5-1.8 2-4.2-.9 1.5-1.7 1.9-2 2.4v-2.6h-.5v12 3.2c-.4-.4-1.1-1-1.9-2.3.5 2.1 1.4 3.8 1.9 4.1v1 12.1h.5v-1.7c.5-.1 1.5-1.8 2-4.2-.9 1.5-1.7 1.9-2 2.4v-2.3c.5-.1 1.5-1.7 2-4 .5 1.4 1.1 2.4 1.5 2.6v5.2h.5v-1.7c.5-.1 1.5-1.7 2-4 .5 1.4 1.1 2.4 1.5 2.6v1.1h.5v-5.7c.5-.1 1.5-1.7 2-4 .5 1.4 1.1 2.4 1.5 2.6v2.2c-.4-.4-1.1-1-1.9-2.3.5 2.1 1.4 3.8 1.9 4.1v1.1h.5v-1.7c.5-.1 1.5-1.8 2-4.2-.9 1.5-1.7 1.9-2 2.4v-2.3c.5-.1 1.5-1.8 2-4.2-.9 1.5-1.7 1.9-2 2.4v-2.3c.5-.1 1.5-1.8 2-4.2-.9 1.5-1.7 1.9-2 2.4v-2.3c.5.2 1.5-1.5 2.1-3.8zm-14.1 10.1c.5-.1 1.5-1.8 2-4.2-.9 1.5-1.7 1.9-2 2.4v-2.3c.5-.1 1.5-1.8 2-4.2-.9 1.5-1.7 1.9-2 2.4v-2.3c.5-.1 1.5-1.7 2-4 .5 1.4 1.1 2.4 1.5 2.6v10.2c-.4-.4-1.1-1-1.9-2.3.1.5.3 1 .4 1.5-.9 1.4-1.6 1.9-2 2.3v-.7zm1.6 2.5c.1.5.3 1 .4 1.5-.9 1.4-1.6 1.9-2 2.3v-2.3c.5-.1 1.5-1.7 2-4 .5 1.4 1.1 2.4 1.5 2.6v2.2c-.4-.5-1.1-1-1.9-2.3zm4 2c.1.5.3 1 .4 1.5-.9 1.4-1.6 1.9-2 2.3v-14.3c.5-.1 1.5-1.7 2-4 .5 1.4 1.1 2.4 1.5 2.6v2.2c-.4-.4-1.1-1-1.9-2.3.5 2.1 1.4 3.8 1.9 4.1v2.2c-.4-.4-1.1-1-1.9-2.3.5 2.1 1.4 3.8 1.9 4.1v2.2c-.4-.4-1.1-1-1.9-2.3.5 2.1 1.4 3.8 1.9 4.1v2.2c-.4-.5-1.1-1-1.9-2.3z"/><path d="m62.6 18.2c-.9 1.5-1.7 1.9-2 2.4v-2.7h-.6v3.2c-.4-.4-1.1-1-1.9-2.3.1.5.3 1 .4 1.5-.9 1.4-1.6 1.9-2 2.3v-6.7h-.5v3.2c-.4-.4-1.1-1-1.9-2.3.1.5.3 1 .4 1.5-.9 1.4-1.6 1.9-2 2.3v-2.3c.5-.1 1.5-1.8 2-4.2-.9 1.5-1.7 1.9-2 2.4v-2.7h-.5v14.2h.5v-1.7c.5-.1 1.5-1.7 2-4 .5 1.4 1.1 2.4 1.5 2.6v1.1h.5v-1.7c.5-.1 1.5-1.7 2-4 .5 1.4 1.1 2.4 1.5 2.6v1h.5v-1.6c.5-.1 1.5-1.8 2.1-4.1zm-8.5 2.6c.1.5.3 1 .4 1.5-.9 1.4-1.6 1.9-2 2.3v-2.3c.5-.1 1.5-1.7 2-4 .5 1.4 1.1 2.4 1.5 2.6v2.2c-.4-.5-1.1-1-1.9-2.3z"/><path d="m10.6 16.2c-.9 1.5-1.7 1.9-2 2.4v-2.7h-.6v7.2c-.4-.4-1.1-1-1.9-2.3.5 2.2 1.4 3.8 1.9 4.1v1.1h.5v-5.7c.5-.1 1.5-1.8 2.1-4.1z"/><path d="m6.6 18.2c-.9 1.5-1.7 1.9-2 2.4v-2.7h-.6v3.2c-.4-.4-1.1-1-1.9-2.3.5 2.2 1.4 3.8 1.9 4.1v1h.5v-1.6c.5-.1 1.5-1.8 2.1-4.1z"/><path d="m14.6 18.2c-.9 1.5-1.7 1.9-2 2.4v-6.7h-.6v7.2c-.4-.4-1.1-1-1.9-2.3.5 2.1 1.4 3.8 1.9 4.1v2.2c-.4-.4-1.1-1-1.9-2.3.5 2.1 1.4 3.8 1.9 4.1v1.1h.5v-5.7c.5-.1 1.5-1.8 2.1-4.1z"/><path d="m18.6 24.2c-.9 1.5-1.7 1.9-2 2.4v-2.3c.5-.1 1.5-1.8 2-4.2-.9 1.5-1.7 1.9-2 2.4v-2.3c.5-.1 1.5-1.8 2-4.2-.9 1.5-1.7 1.9-2 2.4v-6.7h-.6v3.2c-.4-.4-1.1-1-1.9-2.3.5 2.1 1.4 3.8 1.9 4.1v6.2c-.4-.4-1.1-1-1.9-2.3.5 2.1 1.4 3.8 1.9 4.1v2.2c-.4-.4-1.1-1-1.9-2.3.5 2.1 1.4 3.8 1.9 4.1v1.3h.5v-1.7c.5-.1 1.5-1.8 2.1-4.1z"/><path d="m34.6 24.2c-.9 1.5-1.7 1.9-2 2.4v-6.3c.5-.1 1.5-1.8 2-4.2-.9 1.5-1.7 1.9-2 2.4v-2.3c.5-.1 1.5-1.8 2-4.2-.9 1.5-1.7 1.9-2 2.4v-2.3c.5-.1 1.5-1.8 2-4.2-.9 1.5-1.7 1.9-2 2.4v-2c.5-.1 1.5-1.8 2-4.2-.9 1.5-1.7 1.9-2 2.4v-2.6h-.6v3.2c-.4-.4-1.1-1-1.9-2.3.5 2.2 1.4 3.8 1.9 4.1v6.2c-.4-.4-1.1-1-1.9-2.3.1.5.3 1 .4 1.5-.9 1.4-1.6 1.9-2 2.3v-2.3c.5-.1 1.5-1.8 2-4.2-.9 1.5-1.7 1.9-2 2.4v-6.6h-.5v3.2c-.4-.4-1.1-1-1.9-2.3.1.5.3 1 .4 1.5-.9 1.4-1.6 1.9-2 2.3v-2.7h-.5v7.2c-.4-.4-1.1-1-1.9-2.3.1.5.3 1 .4 1.5-.9 1.4-1.6 1.9-2 2.3v-2.3c.5-.1 1.5-1.8 2-4.2-.9 1.5-1.7 1.9-2 2.4v-2.6h-.5v3.2c-.4-.4-1.1-1-1.9-2.3.5 2.1 1.4 3.8 1.9 4.1v14.2c-.4-.4-1.1-1-1.9-2.3.5 2.1 1.4 3.8 1.9 4.1v1.1h.5v-1.7c.5-.1 1.5-1.8 2-4.2-.9 1.5-1.7 1.9-2 2.4v-2.3c.5-.1 1.5-1.7 2-4 .5 1.4 1.1 2.4 1.5 2.6v6.2c-.4-.4-1.1-1-1.9-2.3.5 2.1 1.4 3.8 1.9 4.1v1.2h.5v-5.7c.5-.1 1.5-1.7 2-4 .5 1.4 1.1 2.4 1.5 2.6v2.2c-.4-.4-1.1-1-1.9-2.3.5 2.1 1.4 3.8 1.9 4.1v2.2c-.4-.4-1.1-1-1.9-2.3.5 2.1 1.4 3.8 1.9 4.1v1.1h.5v-1.7c.5-.1 1.5-1.7 2-4 .5 1.4 1.1 2.4 1.5 2.6v2.2c-.4-.4-1.1-1-1.9-2.3.5 2.1 1.4 3.8 1.9 4.1v1.1h.5v-1.7c.5-.1 1.5-1.8 2-4.2-.9 1.5-1.7 1.9-2 2.4v-2.3c.5-.1 1.5-1.8 2-4.2-.9 1.5-1.7 1.9-2 2.4v-2.3c.5.1 1.5-1.6 2.1-3.9zm-12.5-3.4c.1.5.3 1 .4 1.5-.9 1.4-1.6 1.9-2 2.3v-6.3c.5-.1 1.5-1.7 2-4 .5 1.4 1.1 2.4 1.5 2.6v2.2c-.4-.4-1.1-1-1.9-2.3.5 2.1 1.4 3.8 1.9 4.1v2.2c-.4-.5-1.1-1-1.9-2.3zm4 2c.1.5.3 1 .4 1.5-.9 1.4-1.6 1.9-2 2.3v-2.3c.5-.1 1.5-1.8 2-4.2-.9 1.5-1.7 1.9-2 2.4v-10.2c.5-.1 1.5-1.7 2-4 .5 1.4 1.1 2.4 1.5 2.6v2.2c-.4-.4-1.1-1-1.9-2.3.5 2.1 1.4 3.8 1.9 4.1v2.2c-.4-.4-1.1-1-1.9-2.3.5 2.1 1.4 3.8 1.9 4.1v6.2c-.4-.5-1.1-1-1.9-2.3zm4 6c.1.5.3 1 .4 1.5-.9 1.4-1.6 1.9-2 2.3v-2.3c.5-.1 1.5-1.8 2-4.2-.9 1.5-1.7 1.9-2 2.4v-6.3c.5-.1 1.5-1.8 2-4.2-.9 1.5-1.7 1.9-2 2.4v-2.3c.5-.1 1.5-1.7 2-4 .5 1.4 1.1 2.4 1.5 2.6v6.2c-.4-.4-1.1-1-1.9-2.3.5 2.1 1.4 3.8 1.9 4.1v6.2c-.4-.3-1.1-.8-1.9-2.1z"/></g><path d="m27.4 5.5c-.2.6.2 1.3.8 1.4s1.3-.2 1.4-.8-.4-3.1-.4-3.1-1.7 1.9-1.8 2.5z" fill="#fc0"/><path d="m27.4 5.5c-.2.6.2 1.3.8 1.4s1.3-.2 1.4-.8-.4-3.1-.4-3.1-1.7 1.9-1.8 2.5z" opacity=".15"/><path d="m29.2 5.5c.2.6-.2 1.3-.8 1.4s-1.3-.2-1.4-.8.3-3.1.3-3.1 1.7 1.9 1.9 2.5z" fill="#fc0"/><path d="m31.4 3.5c-.2.6.2 1.3.8 1.4.6.2 1.3-.2 1.4-.8s-.4-3.1-.4-3.1-1.7 1.9-1.8 2.5z" fill="#f90"/><path d="m31.4 3.5c-.2.6.2 1.3.8 1.4.6.2 1.3-.2 1.4-.8s-.4-3.1-.4-3.1-1.7 1.9-1.8 2.5z" opacity=".15"/><path d="m33.2 3.5c.2.6-.2 1.3-.8 1.4-.6.2-1.3-.2-1.4-.8s.3-3.1.3-3.1 1.7 1.9 1.9 2.5z" fill="#f90"/><path d="m23.4 7.5c-.2.6.2 1.3.8 1.4.6.2 1.3-.2 1.4-.8s-.4-3.1-.4-3.1-1.7 1.9-1.8 2.5z" fill="#f90"/><path d="m23.4 7.5c-.2.6.2 1.3.8 1.4.6.2 1.3-.2 1.4-.8s-.4-3.1-.4-3.1-1.7 1.9-1.8 2.5z" opacity=".15"/><path d="m25.2 7.5c.2.6-.2 1.3-.8 1.4-.6.2-1.3-.2-1.4-.8-.2-.6.3-3.1.3-3.1s1.7 1.9 1.9 2.5z" fill="#f90"/><path d="m19.4 9.5c-.2.6.2 1.3.8 1.4.6.2 1.3-.2 1.4-.8s-.4-3.1-.4-3.1-1.7 1.9-1.8 2.5z" fill="#cc291f"/><path d="m19.4 9.5c-.2.6.2 1.3.8 1.4.6.2 1.3-.2 1.4-.8s-.4-3.1-.4-3.1-1.7 1.9-1.8 2.5z" opacity=".15"/><path d="m21.2 9.5c.2.6-.2 1.3-.8 1.4-.6.2-1.3-.2-1.4-.8-.2-.6.3-3.1.3-3.1s1.7 1.9 1.9 2.5z" fill="#cc291f"/><path d="m31.4 7.5c-.2.6.2 1.3.8 1.4.6.2 1.3-.2 1.4-.8s-.4-3.1-.4-3.1-1.7 1.9-1.8 2.5z" fill="#fc0"/><path d="m31.4 7.5c-.2.6.2 1.3.8 1.4.6.2 1.3-.2 1.4-.8s-.4-3.1-.4-3.1-1.7 1.9-1.8 2.5z" opacity=".15"/><path d="m33.2 7.5c.2.6-.2 1.3-.8 1.4-.6.2-1.3-.2-1.4-.8s.3-3.1.3-3.1 1.7 1.9 1.9 2.5z" fill="#fc0"/><path d="m35.4 5.5c-.2.6.2 1.3.8 1.4.6.2 1.3-.2 1.4-.8s-.4-3.1-.4-3.1-1.7 1.9-1.8 2.5z" fill="#cc291f"/><path d="m35.4 5.5c-.2.6.2 1.3.8 1.4.6.2 1.3-.2 1.4-.8s-.4-3.1-.4-3.1-1.7 1.9-1.8 2.5z" opacity=".15"/><path d="m37.2 5.5c.2.6-.2 1.3-.8 1.4-.6.2-1.3-.2-1.4-.8s.3-3.1.3-3.1 1.7 1.9 1.9 2.5z" fill="#cc291f"/><path d="m27.4 9.5c-.2.6.2 1.3.8 1.4s1.3-.2 1.4-.8-.4-3.1-.4-3.1-1.7 1.9-1.8 2.5z" fill="#cc291f"/><path d="m27.4 9.5c-.2.6.2 1.3.8 1.4s1.3-.2 1.4-.8-.4-3.1-.4-3.1-1.7 1.9-1.8 2.5z" opacity=".15"/><path d="m29.2 9.5c.2.6-.2 1.3-.8 1.4s-1.3-.2-1.4-.8c-.2-.6.3-3.1.3-3.1s1.7 1.9 1.9 2.5z" fill="#cc291f"/><path d="m23.4 11.5c-.2.6.2 1.3.8 1.4s1.3-.2 1.4-.8c.2-.6-.4-3.1-.4-3.1s-1.7 1.9-1.8 2.5z" fill="#fc0"/><path d="m23.4 11.5c-.2.6.2 1.3.8 1.4s1.3-.2 1.4-.8c.2-.6-.4-3.1-.4-3.1s-1.7 1.9-1.8 2.5z" opacity=".15"/><path d="m25.2 11.5c.2.6-.2 1.3-.8 1.4s-1.3-.2-1.4-.8c-.2-.6.3-3.1.3-3.1s1.7 1.9 1.9 2.5z" fill="#fc0"/><path d="m35.4 9.5c-.2.6.2 1.3.8 1.4s1.3-.2 1.4-.8-.4-3.1-.4-3.1-1.7 1.9-1.8 2.5z" fill="#fc0"/><path d="m35.4 9.5c-.2.6.2 1.3.8 1.4s1.3-.2 1.4-.8-.4-3.1-.4-3.1-1.7 1.9-1.8 2.5z" opacity=".15"/><path d="m37.2 9.5c.2.6-.2 1.3-.8 1.4s-1.3-.2-1.4-.8c-.2-.6.3-3.1.3-3.1s1.7 1.9 1.9 2.5z" fill="#fc0"/><path d="m39.4 7.5c-.2.6.2 1.3.8 1.4s1.3-.2 1.4-.8-.4-3.1-.4-3.1-1.7 1.9-1.8 2.5z" fill="#fc0"/><path d="m39.4 7.5c-.2.6.2 1.3.8 1.4s1.3-.2 1.4-.8-.4-3.1-.4-3.1-1.7 1.9-1.8 2.5z" opacity=".15"/><path d="m41.2 7.5c.2.6-.2 1.3-.8 1.4s-1.3-.2-1.4-.8.3-3.1.3-3.1 1.7 1.9 1.9 2.5z" fill="#fc0"/><path d="m31.4 11.5c-.2.6.2 1.3.8 1.4.6.2 1.3-.2 1.4-.8.2-.6-.4-3.1-.4-3.1s-1.7 1.9-1.8 2.5z" fill="#f90"/><path d="m31.4 11.5c-.2.6.2 1.3.8 1.4.6.2 1.3-.2 1.4-.8.2-.6-.4-3.1-.4-3.1s-1.7 1.9-1.8 2.5z" opacity=".15"/><path d="m33.2 11.5c.2.6-.2 1.3-.8 1.4-.6.2-1.3-.2-1.4-.8-.2-.6.3-3.1.3-3.1s1.7 1.9 1.9 2.5z" fill="#f90"/><path d="m27.4 13.5c-.2.6.2 1.3.8 1.4s1.3-.2 1.4-.8c.2-.6-.4-3.1-.4-3.1s-1.7 1.9-1.8 2.5z" fill="#f90"/><path d="m27.4 13.5c-.2.6.2 1.3.8 1.4s1.3-.2 1.4-.8c.2-.6-.4-3.1-.4-3.1s-1.7 1.9-1.8 2.5z" opacity=".15"/><path d="m29.2 13.5c.2.6-.2 1.3-.8 1.4s-1.3-.2-1.4-.8c-.2-.6.4-3.1.4-3.1s1.6 1.9 1.8 2.5z" fill="#f90"/><path d="m39.4 11.5c-.2.6.2 1.3.8 1.4s1.3-.2 1.4-.8c.2-.6-.4-3.1-.4-3.1s-1.7 1.9-1.8 2.5z" fill="#f90"/><path d="m39.4 11.5c-.2.6.2 1.3.8 1.4s1.3-.2 1.4-.8c.2-.6-.4-3.1-.4-3.1s-1.7 1.9-1.8 2.5z" opacity=".15"/><path d="m41.2 11.5c.2.6-.2 1.3-.8 1.4s-1.3-.2-1.4-.8c-.2-.6.3-3.1.3-3.1s1.7 1.9 1.9 2.5z" fill="#f90"/><path d="m43.4 9.5c-.2.6.2 1.3.8 1.4s1.3-.2 1.4-.8-.4-3.1-.4-3.1-1.7 1.9-1.8 2.5z" fill="#fc0"/><path d="m43.4 9.5c-.2.6.2 1.3.8 1.4s1.3-.2 1.4-.8-.4-3.1-.4-3.1-1.7 1.9-1.8 2.5z" opacity=".15"/><path d="m45.2 9.5c.2.6-.2 1.3-.8 1.4s-1.3-.2-1.4-.8c-.2-.6.3-3.1.3-3.1s1.7 1.9 1.9 2.5z" fill="#fc0"/><path d="m35.4 13.5c-.2.6.2 1.3.8 1.4s1.3-.2 1.4-.8c.2-.6-.4-3.1-.4-3.1s-1.7 1.9-1.8 2.5z" fill="#cc291f"/><path d="m35.4 13.5c-.2.6.2 1.3.8 1.4s1.3-.2 1.4-.8c.2-.6-.4-3.1-.4-3.1s-1.7 1.9-1.8 2.5z" opacity=".15"/><path d="m37.2 13.5c.2.6-.2 1.3-.8 1.4s-1.3-.2-1.4-.8c-.2-.6.4-3.1.4-3.1s1.6 1.9 1.8 2.5z" fill="#cc291f"/><path d="m31.4 15.5c-.2.6.2 1.3.8 1.4.6.2 1.3-.2 1.4-.8.2-.6-.4-3.1-.4-3.1s-1.7 1.9-1.8 2.5z" fill="#fc0"/><path d="m31.4 15.5c-.2.6.2 1.3.8 1.4.6.2 1.3-.2 1.4-.8.2-.6-.4-3.1-.4-3.1s-1.7 1.9-1.8 2.5z" opacity=".15"/><path d="m33.2 15.5c.2.6-.2 1.3-.8 1.4-.6.2-1.3-.2-1.4-.8-.2-.6.4-3.1.4-3.1s1.6 1.9 1.8 2.5z" fill="#fc0"/><path d="m43.4 13.5c-.2.6.2 1.3.8 1.4.6.2 1.3-.2 1.4-.8.2-.6-.4-3.1-.4-3.1s-1.7 1.9-1.8 2.5z" fill="#fc0"/><path d="m43.4 13.5c-.2.6.2 1.3.8 1.4.6.2 1.3-.2 1.4-.8.2-.6-.4-3.1-.4-3.1s-1.7 1.9-1.8 2.5z" opacity=".15"/><path d="m45.2 13.5c.2.6-.2 1.3-.8 1.4-.6.2-1.3-.2-1.4-.8-.2-.6.4-3.1.4-3.1s1.6 1.9 1.8 2.5z" fill="#fc0"/><path d="m47.4 11.5c-.2.6.2 1.3.8 1.4.6.2 1.3-.2 1.4-.8.2-.6-.4-3.1-.4-3.1s-1.7 1.9-1.8 2.5z" fill="#f90"/><path d="m47.4 11.5c-.2.6.2 1.3.8 1.4.6.2 1.3-.2 1.4-.8.2-.6-.4-3.1-.4-3.1s-1.7 1.9-1.8 2.5z" opacity=".15"/><path d="m49.2 11.5c.2.6-.2 1.3-.8 1.4-.6.2-1.3-.2-1.4-.8-.2-.6.3-3.1.3-3.1s1.7 1.9 1.9 2.5z" fill="#f90"/><path d="m39.4 15.5c-.2.6.2 1.3.8 1.4s1.3-.2 1.4-.8c.2-.6-.4-3.1-.4-3.1s-1.7 1.9-1.8 2.5z" fill="#f90"/><path d="m39.4 15.5c-.2.6.2 1.3.8 1.4s1.3-.2 1.4-.8c.2-.6-.4-3.1-.4-3.1s-1.7 1.9-1.8 2.5z" opacity=".15"/><path d="m41.2 15.5c.2.6-.2 1.3-.8 1.4s-1.3-.2-1.4-.8c-.2-.6.4-3.1.4-3.1s1.6 1.9 1.8 2.5z" fill="#f90"/><path d="m35.4 17.5c-.2.6.2 1.3.8 1.4s1.3-.2 1.4-.8c.2-.6-.4-3.1-.4-3.1s-1.7 1.9-1.8 2.5z" fill="#fc0"/><path d="m35.4 17.5c-.2.6.2 1.3.8 1.4s1.3-.2 1.4-.8c.2-.6-.4-3.1-.4-3.1s-1.7 1.9-1.8 2.5z" opacity=".15"/><path d="m37.2 17.5c.2.6-.2 1.3-.8 1.4s-1.3-.2-1.4-.8c-.2-.6.4-3.1.4-3.1s1.6 1.9 1.8 2.5z" fill="#fc0"/><path d="m47.4 15.5c-.2.6.2 1.3.8 1.4s1.3-.2 1.4-.8c.2-.6-.4-3.1-.4-3.1s-1.7 1.9-1.8 2.5z" fill="#fc0"/><path d="m47.4 15.5c-.2.6.2 1.3.8 1.4s1.3-.2 1.4-.8c.2-.6-.4-3.1-.4-3.1s-1.7 1.9-1.8 2.5z" opacity=".15"/><path d="m49.2 15.5c.2.6-.2 1.3-.8 1.4s-1.3-.2-1.4-.8c-.2-.6.4-3.1.4-3.1s1.6 1.9 1.8 2.5z" fill="#fc0"/><path d="m51.4 13.5c-.2.6.2 1.3.8 1.4s1.3-.2 1.4-.8c.2-.6-.4-3.1-.4-3.1s-1.7 1.9-1.8 2.5z" fill="#cc291f"/><path d="m51.4 13.5c-.2.6.2 1.3.8 1.4s1.3-.2 1.4-.8c.2-.6-.4-3.1-.4-3.1s-1.7 1.9-1.8 2.5z" opacity=".15"/><path d="m53.2 13.5c.2.6-.2 1.3-.8 1.4s-1.3-.2-1.4-.8c-.2-.6.4-3.1.4-3.1s1.6 1.9 1.8 2.5z" fill="#cc291f"/><path d="m43.4 17.5c-.2.6.2 1.3.8 1.4s1.3-.2 1.4-.8c.2-.6-.4-3.1-.4-3.1s-1.7 1.9-1.8 2.5z" fill="#cc291f"/><path d="m43.4 17.5c-.2.6.2 1.3.8 1.4s1.3-.2 1.4-.8c.2-.6-.4-3.1-.4-3.1s-1.7 1.9-1.8 2.5z" opacity=".15"/><path d="m45.2 17.5c.2.6-.2 1.3-.8 1.4s-1.3-.2-1.4-.8c-.2-.6.4-3.1.4-3.1s1.6 1.9 1.8 2.5z" fill="#cc291f"/><path d="m39.4 19.5c-.2.6.2 1.3.8 1.4s1.3-.2 1.4-.8c.2-.6-.4-3.1-.4-3.1s-1.7 1.9-1.8 2.5z" fill="#fc0"/><path d="m39.4 19.5c-.2.6.2 1.3.8 1.4s1.3-.2 1.4-.8c.2-.6-.4-3.1-.4-3.1s-1.7 1.9-1.8 2.5z" opacity=".15"/><path d="m41.2 19.5c.2.6-.2 1.3-.8 1.4s-1.3-.2-1.4-.8c-.2-.6.4-3.1.4-3.1s1.6 1.9 1.8 2.5z" fill="#fc0"/><path d="m51.4 17.5c-.2.6.2 1.3.8 1.4s1.3-.2 1.4-.8c.2-.6-.4-3.1-.4-3.1s-1.7 1.9-1.8 2.5z" fill="#fc0"/><path d="m51.4 17.5c-.2.6.2 1.3.8 1.4s1.3-.2 1.4-.8c.2-.6-.4-3.1-.4-3.1s-1.7 1.9-1.8 2.5z" opacity=".15"/><path d="m53.2 17.5c.2.6-.2 1.3-.8 1.4s-1.3-.2-1.4-.8c-.2-.6.4-3.1.4-3.1s1.6 1.9 1.8 2.5z" fill="#fc0"/><path d="m55.4 15.5c-.2.6.2 1.3.8 1.4s1.3-.2 1.4-.8c.2-.6-.4-3.1-.4-3.1s-1.7 1.9-1.8 2.5z" fill="#fc0"/><path d="m55.4 15.5c-.2.6.2 1.3.8 1.4s1.3-.2 1.4-.8c.2-.6-.4-3.1-.4-3.1s-1.7 1.9-1.8 2.5z" opacity=".15"/><path d="m57.2 15.5c.2.6-.2 1.3-.8 1.4s-1.3-.2-1.4-.8c-.2-.6.4-3.1.4-3.1s1.6 1.9 1.8 2.5z" fill="#fc0"/><path d="m47.4 19.5c-.2.6.2 1.3.8 1.4s1.3-.2 1.4-.8c.2-.6-.4-3.1-.4-3.1s-1.7 1.9-1.8 2.5z" fill="#f90"/><path d="m47.4 19.5c-.2.6.2 1.3.8 1.4s1.3-.2 1.4-.8c.2-.6-.4-3.1-.4-3.1s-1.7 1.9-1.8 2.5z" opacity=".15"/><path d="m49.2 19.5c.2.6-.2 1.3-.8 1.4s-1.3-.2-1.4-.8c-.2-.6.4-3.1.4-3.1s1.6 1.9 1.8 2.5z" fill="#f90"/><path d="m43.4 21.5c-.2.6.2 1.3.8 1.4s1.3-.2 1.4-.8c.2-.6-.4-3.1-.4-3.1s-1.7 1.9-1.8 2.5z" fill="#f90"/><path d="m43.4 21.5c-.2.6.2 1.3.8 1.4s1.3-.2 1.4-.8c.2-.6-.4-3.1-.4-3.1s-1.7 1.9-1.8 2.5z" opacity=".15"/><path d="m45.2 21.5c.2.6-.2 1.3-.8 1.4s-1.3-.2-1.4-.8c-.2-.6.4-3.1.4-3.1s1.6 1.9 1.8 2.5z" fill="#f90"/><path d="m55.4 19.5c-.2.6.2 1.3.8 1.4s1.3-.2 1.4-.8c.2-.6-.4-3.1-.4-3.1s-1.7 1.9-1.8 2.5z" fill="#f90"/><path d="m55.4 19.5c-.2.6.2 1.3.8 1.4s1.3-.2 1.4-.8c.2-.6-.4-3.1-.4-3.1s-1.7 1.9-1.8 2.5z" opacity=".15"/><path d="m57.2 19.5c.2.6-.2 1.3-.8 1.4s-1.3-.2-1.4-.8c-.2-.6.4-3.1.4-3.1s1.6 1.9 1.8 2.5z" fill="#f90"/><path d="m59.4 17.5c-.2.6.2 1.3.8 1.4s1.3-.2 1.4-.8c.2-.6-.4-3.1-.4-3.1s-1.7 1.9-1.8 2.5z" fill="#fc0"/><path d="m59.4 17.5c-.2.6.2 1.3.8 1.4s1.3-.2 1.4-.8c.2-.6-.4-3.1-.4-3.1s-1.7 1.9-1.8 2.5z" opacity=".15"/><path d="m61.2 17.5c.2.6-.2 1.3-.8 1.4s-1.3-.2-1.4-.8c-.2-.6.4-3.1.4-3.1s1.6 1.9 1.8 2.5z" fill="#fc0"/><path d="m51.4 21.5c-.2.6.2 1.3.8 1.4s1.3-.2 1.4-.8c.2-.6-.4-3.1-.4-3.1s-1.7 1.9-1.8 2.5z" fill="#cc291f"/><path d="m51.4 21.5c-.2.6.2 1.3.8 1.4s1.3-.2 1.4-.8c.2-.6-.4-3.1-.4-3.1s-1.7 1.9-1.8 2.5z" opacity=".15"/><path d="m53.2 21.5c.2.6-.2 1.3-.8 1.4s-1.3-.2-1.4-.8c-.2-.6.4-3.1.4-3.1s1.6 1.9 1.8 2.5z" fill="#cc291f"/><path d="m47.4 23.5c-.2.6.2 1.3.8 1.4s1.3-.2 1.4-.8c.2-.6-.4-3.1-.4-3.1s-1.7 1.9-1.8 2.5z" fill="#fc0"/><path d="m47.4 23.5c-.2.6.2 1.3.8 1.4s1.3-.2 1.4-.8c.2-.6-.4-3.1-.4-3.1s-1.7 1.9-1.8 2.5z" opacity=".15"/><path d="m49.2 23.5c.2.6-.2 1.3-.8 1.4s-1.3-.2-1.4-.8c-.2-.6.4-3.1.4-3.1s1.6 1.9 1.8 2.5z" fill="#fc0"/><path d="m11.4 13.5c-.2.6.2 1.3.8 1.4.6.2 1.3-.2 1.4-.8.2-.6-.4-3.1-.4-3.1s-1.7 1.9-1.8 2.5z" fill="#fc0"/><path d="m11.4 13.5c-.2.6.2 1.3.8 1.4.6.2 1.3-.2 1.4-.8.2-.6-.4-3.1-.4-3.1s-1.7 1.9-1.8 2.5z" opacity=".15"/><path d="m13.2 13.5c.2.6-.2 1.3-.8 1.4-.6.2-1.3-.2-1.4-.8-.2-.6.4-3.1.4-3.1s1.6 1.9 1.8 2.5z" fill="#fc0"/><path d="m15.4 11.5c-.2.6.2 1.3.8 1.4.6.2 1.3-.2 1.4-.8.2-.6-.4-3.1-.4-3.1s-1.7 1.9-1.8 2.5z" fill="#f90"/><path d="m15.4 11.5c-.2.6.2 1.3.8 1.4.6.2 1.3-.2 1.4-.8.2-.6-.4-3.1-.4-3.1s-1.7 1.9-1.8 2.5z" opacity=".15"/><path d="m17.2 11.5c.2.6-.2 1.3-.8 1.4s-1.3-.2-1.4-.8c-.2-.6.3-3.1.3-3.1s1.7 1.9 1.9 2.5z" fill="#f90"/><path d="m7.4 15.5c-.2.6.2 1.3.8 1.4.6.2 1.3-.2 1.4-.8s-.4-3.1-.4-3.1-1.7 1.9-1.8 2.5z" fill="#f90"/><path d="m7.4 15.5c-.2.6.2 1.3.8 1.4.6.2 1.3-.2 1.4-.8s-.4-3.1-.4-3.1-1.7 1.9-1.8 2.5z" opacity=".15"/><path d="m9.2 15.5c.2.6-.2 1.3-.8 1.4-.6.2-1.3-.2-1.4-.8-.2-.6.3-3.1.3-3.1s1.7 1.9 1.9 2.5z" fill="#f90"/><path d="m3.4 17.5c-.2.6.2 1.3.8 1.4.6.2 1.3-.2 1.4-.8s-.4-3.1-.4-3.1-1.7 1.9-1.8 2.5z" fill="#cc291f"/><path d="m3.4 17.5c-.2.6.2 1.3.8 1.4.6.2 1.3-.2 1.4-.8s-.4-3.1-.4-3.1-1.7 1.9-1.8 2.5z" opacity=".15"/><path d="m5.2 17.5c.2.6-.2 1.3-.8 1.4-.6.2-1.3-.2-1.4-.8-.2-.6.3-3.1.3-3.1s1.7 1.9 1.9 2.5z" fill="#cc291f"/><path d="m15.4 15.5c-.2.6.2 1.3.8 1.4.6.2 1.3-.2 1.4-.8.2-.6-.4-3.1-.4-3.1s-1.7 1.9-1.8 2.5z" fill="#fc0"/><path d="m15.4 15.5c-.2.6.2 1.3.8 1.4.6.2 1.3-.2 1.4-.8.2-.6-.4-3.1-.4-3.1s-1.7 1.9-1.8 2.5z" opacity=".15"/><path d="m17.2 15.5c.2.6-.2 1.3-.8 1.4s-1.3-.2-1.4-.8c-.2-.6.4-3.1.4-3.1s1.6 1.9 1.8 2.5z" fill="#fc0"/><path d="m19.4 13.5c-.2.6.2 1.3.8 1.4s1.3-.2 1.4-.8c.2-.6-.4-3.1-.4-3.1s-1.7 1.9-1.8 2.5z" fill="#f90"/><path d="m19.4 13.5c-.2.6.2 1.3.8 1.4s1.3-.2 1.4-.8c.2-.6-.4-3.1-.4-3.1s-1.7 1.9-1.8 2.5z" opacity=".15"/><path d="m21.2 13.5c.2.6-.2 1.3-.8 1.4s-1.3-.2-1.4-.8c-.2-.6.4-3.1.4-3.1s1.6 1.9 1.8 2.5z" fill="#f90"/><path d="m11.4 17.5c-.2.6.2 1.3.8 1.4.6.2 1.3-.2 1.4-.8.2-.6-.4-3.1-.4-3.1s-1.7 1.9-1.8 2.5z" fill="#cc291f"/><path d="m11.4 17.5c-.2.6.2 1.3.8 1.4.6.2 1.3-.2 1.4-.8.2-.6-.4-3.1-.4-3.1s-1.7 1.9-1.8 2.5z" opacity=".15"/><path d="m13.2 17.5c.2.6-.2 1.3-.8 1.4-.6.2-1.3-.2-1.4-.8-.2-.6.4-3.1.4-3.1s1.6 1.9 1.8 2.5z" fill="#cc291f"/><path d="m7.4 19.5c-.2.6.2 1.3.8 1.4.6.2 1.3-.2 1.4-.8s-.4-3.1-.4-3.1-1.7 1.9-1.8 2.5z" fill="#fc0"/><path d="m7.4 19.5c-.2.6.2 1.3.8 1.4.6.2 1.3-.2 1.4-.8s-.4-3.1-.4-3.1-1.7 1.9-1.8 2.5z" opacity=".15"/><path d="m9.2 19.5c.2.6-.2 1.3-.8 1.4s-1.3-.2-1.4-.8c-.2-.6.3-3.1.3-3.1s1.7 1.9 1.9 2.5z" fill="#fc0"/><path d="m19.4 17.5c-.2.6.2 1.3.8 1.4s1.3-.2 1.4-.8c.2-.6-.4-3.1-.4-3.1s-1.7 1.9-1.8 2.5z" fill="#fc0"/><path d="m19.4 17.5c-.2.6.2 1.3.8 1.4s1.3-.2 1.4-.8c.2-.6-.4-3.1-.4-3.1s-1.7 1.9-1.8 2.5z" opacity=".15"/><path d="m21.2 17.5c.2.6-.2 1.3-.8 1.4s-1.3-.2-1.4-.8c-.2-.6.4-3.1.4-3.1s1.6 1.9 1.8 2.5z" fill="#fc0"/><path d="m23.4 15.5c-.2.6.2 1.3.8 1.4s1.3-.2 1.4-.8c.2-.6-.4-3.1-.4-3.1s-1.7 1.9-1.8 2.5z" fill="#fc0"/><path d="m23.4 15.5c-.2.6.2 1.3.8 1.4s1.3-.2 1.4-.8c.2-.6-.4-3.1-.4-3.1s-1.7 1.9-1.8 2.5z" opacity=".15"/><path d="m25.2 15.5c.2.6-.2 1.3-.8 1.4s-1.3-.2-1.4-.8c-.2-.6.4-3.1.4-3.1s1.6 1.9 1.8 2.5z" fill="#fc0"/><path d="m15.4 19.5c-.2.6.2 1.3.8 1.4.6.2 1.3-.2 1.4-.8.2-.6-.4-3.1-.4-3.1s-1.7 1.9-1.8 2.5z" fill="#f90"/><path d="m15.4 19.5c-.2.6.2 1.3.8 1.4.6.2 1.3-.2 1.4-.8.2-.6-.4-3.1-.4-3.1s-1.7 1.9-1.8 2.5z" opacity=".15"/><path d="m17.2 19.5c.2.6-.2 1.3-.8 1.4s-1.3-.2-1.4-.8c-.2-.6.4-3.1.4-3.1s1.6 1.9 1.8 2.5z" fill="#f90"/><path d="m11.4 21.5c-.2.6.2 1.3.8 1.4.6.2 1.3-.2 1.4-.8.2-.6-.4-3.1-.4-3.1s-1.7 1.9-1.8 2.5z" fill="#f90"/><path d="m11.4 21.5c-.2.6.2 1.3.8 1.4.6.2 1.3-.2 1.4-.8.2-.6-.4-3.1-.4-3.1s-1.7 1.9-1.8 2.5z" opacity=".15"/><path d="m13.2 21.5c.2.6-.2 1.3-.8 1.4-.6.2-1.3-.2-1.4-.8-.2-.6.4-3.1.4-3.1s1.6 1.9 1.8 2.5z" fill="#f90"/><path d="m23.4 19.5c-.2.6.2 1.3.8 1.4s1.3-.2 1.4-.8c.2-.6-.4-3.1-.4-3.1s-1.7 1.9-1.8 2.5z" fill="#f90"/><path d="m23.4 19.5c-.2.6.2 1.3.8 1.4s1.3-.2 1.4-.8c.2-.6-.4-3.1-.4-3.1s-1.7 1.9-1.8 2.5z" opacity=".15"/><path d="m25.2 19.5c.2.6-.2 1.3-.8 1.4s-1.3-.2-1.4-.8c-.2-.6.4-3.1.4-3.1s1.6 1.9 1.8 2.5z" fill="#f90"/><path d="m27.4 17.5c-.2.6.2 1.3.8 1.4s1.3-.2 1.4-.8c.2-.6-.4-3.1-.4-3.1s-1.7 1.9-1.8 2.5z" fill="#cc291f"/><path d="m27.4 17.5c-.2.6.2 1.3.8 1.4s1.3-.2 1.4-.8c.2-.6-.4-3.1-.4-3.1s-1.7 1.9-1.8 2.5z" opacity=".15"/><path d="m29.2 17.5c.2.6-.2 1.3-.8 1.4s-1.3-.2-1.4-.8c-.2-.6.4-3.1.4-3.1s1.6 1.9 1.8 2.5z" fill="#cc291f"/><path d="m19.4 21.5c-.2.6.2 1.3.8 1.4s1.3-.2 1.4-.8c.2-.6-.4-3.1-.4-3.1s-1.7 1.9-1.8 2.5z" fill="#cc291f"/><path d="m19.4 21.5c-.2.6.2 1.3.8 1.4s1.3-.2 1.4-.8c.2-.6-.4-3.1-.4-3.1s-1.7 1.9-1.8 2.5z" opacity=".15"/><path d="m21.2 21.5c.2.6-.2 1.3-.8 1.4s-1.3-.2-1.4-.8c-.2-.6.4-3.1.4-3.1s1.6 1.9 1.8 2.5z" fill="#cc291f"/><path d="m15.4 23.5c-.2.6.2 1.3.8 1.4.6.2 1.3-.2 1.4-.8.2-.6-.4-3.1-.4-3.1s-1.7 1.9-1.8 2.5z" fill="#fc0"/><path d="m15.4 23.5c-.2.6.2 1.3.8 1.4.6.2 1.3-.2 1.4-.8.2-.6-.4-3.1-.4-3.1s-1.7 1.9-1.8 2.5z" opacity=".15"/><path d="m17.2 23.5c.2.6-.2 1.3-.8 1.4s-1.3-.2-1.4-.8c-.2-.6.4-3.1.4-3.1s1.6 1.9 1.8 2.5z" fill="#fc0"/><path d="m27.4 21.5c-.2.6.2 1.3.8 1.4.6.2 1.3-.2 1.4-.8.2-.6-.4-3.1-.4-3.1s-1.7 1.9-1.8 2.5z" fill="#fc0"/><path d="m27.4 21.5c-.2.6.2 1.3.8 1.4.6.2 1.3-.2 1.4-.8.2-.6-.4-3.1-.4-3.1s-1.7 1.9-1.8 2.5z" opacity=".15"/><path d="m29.2 21.5c.2.6-.2 1.3-.8 1.4-.6.2-1.3-.2-1.4-.8-.2-.6.4-3.1.4-3.1s1.6 1.9 1.8 2.5z" fill="#fc0"/><path d="m31.4 19.5c-.2.6.2 1.3.8 1.4.6.2 1.3-.2 1.4-.8.2-.6-.4-3.1-.4-3.1s-1.7 1.9-1.8 2.5z" fill="#f90"/><path d="m31.4 19.5c-.2.6.2 1.3.8 1.4.6.2 1.3-.2 1.4-.8.2-.6-.4-3.1-.4-3.1s-1.7 1.9-1.8 2.5z" opacity=".15"/><path d="m33.2 19.5c.2.6-.2 1.3-.8 1.4-.6.2-1.3-.2-1.4-.8-.2-.6.4-3.1.4-3.1s1.6 1.9 1.8 2.5z" fill="#f90"/><path d="m23.4 23.5c-.2.6.2 1.3.8 1.4.6.2 1.3-.2 1.4-.8.2-.6-.4-3.1-.4-3.1s-1.7 1.9-1.8 2.5z" fill="#f90"/><path d="m23.4 23.5c-.2.6.2 1.3.8 1.4.6.2 1.3-.2 1.4-.8.2-.6-.4-3.1-.4-3.1s-1.7 1.9-1.8 2.5z" opacity=".15"/><path d="m25.2 23.5c.2.6-.2 1.3-.8 1.4-.6.2-1.3-.2-1.4-.8-.2-.6.4-3.1.4-3.1s1.6 1.9 1.8 2.5z" fill="#f90"/><path d="m19.4 25.5c-.2.6.2 1.3.8 1.4.6.2 1.3-.2 1.4-.8.2-.6-.4-3.1-.4-3.1s-1.7 1.9-1.8 2.5z" fill="#cc291f"/><path d="m19.4 25.5c-.2.6.2 1.3.8 1.4.6.2 1.3-.2 1.4-.8.2-.6-.4-3.1-.4-3.1s-1.7 1.9-1.8 2.5z" opacity=".15"/><path d="m21.2 25.5c.2.6-.2 1.3-.8 1.4-.6.2-1.3-.2-1.4-.8-.2-.6.4-3.1.4-3.1s1.6 1.9 1.8 2.5z" fill="#cc291f"/><path d="m31.4 23.5c-.2.6.2 1.3.8 1.4.6.2 1.3-.2 1.4-.8.2-.6-.4-3.1-.4-3.1s-1.7 1.9-1.8 2.5z" fill="#fc0"/><path d="m31.4 23.5c-.2.6.2 1.3.8 1.4.6.2 1.3-.2 1.4-.8.2-.6-.4-3.1-.4-3.1s-1.7 1.9-1.8 2.5z" opacity=".15"/><path d="m33.2 23.5c.2.6-.2 1.3-.8 1.4-.6.2-1.3-.2-1.4-.8-.2-.6.4-3.1.4-3.1s1.6 1.9 1.8 2.5z" fill="#fc0"/><path d="m35.4 21.5c-.2.6.2 1.3.8 1.4s1.3-.2 1.4-.8c.2-.6-.4-3.1-.4-3.1s-1.7 1.9-1.8 2.5z" fill="#cc291f"/><path d="m35.4 21.5c-.2.6.2 1.3.8 1.4s1.3-.2 1.4-.8c.2-.6-.4-3.1-.4-3.1s-1.7 1.9-1.8 2.5z" opacity=".15"/><path d="m37.2 21.5c.2.6-.2 1.3-.8 1.4s-1.3-.2-1.4-.8c-.2-.6.4-3.1.4-3.1s1.6 1.9 1.8 2.5z" fill="#cc291f"/><path d="m27.4 25.5c-.2.6.2 1.3.8 1.4s1.3-.2 1.4-.8c.2-.6-.4-3.1-.4-3.1s-1.7 1.9-1.8 2.5z" fill="#cc291f"/><path d="m27.4 25.5c-.2.6.2 1.3.8 1.4s1.3-.2 1.4-.8c.2-.6-.4-3.1-.4-3.1s-1.7 1.9-1.8 2.5z" opacity=".15"/><path d="m29.2 25.5c.2.6-.2 1.3-.8 1.4s-1.3-.2-1.4-.8c-.2-.6.4-3.1.4-3.1s1.6 1.9 1.8 2.5z" fill="#cc291f"/><path d="m23.4 27.5c-.2.6.2 1.3.8 1.4s1.3-.2 1.4-.8c.2-.6-.4-3.1-.4-3.1s-1.7 1.9-1.8 2.5z" fill="#fc0"/><path d="m23.4 27.5c-.2.6.2 1.3.8 1.4s1.3-.2 1.4-.8c.2-.6-.4-3.1-.4-3.1s-1.7 1.9-1.8 2.5z" opacity=".15"/><path d="m25.2 27.5c.2.6-.2 1.3-.8 1.4s-1.3-.2-1.4-.8c-.2-.6.4-3.1.4-3.1s1.6 1.9 1.8 2.5z" fill="#fc0"/><path d="m35.4 25.5c-.2.6.2 1.3.8 1.4s1.3-.2 1.4-.8c.2-.6-.4-3.1-.4-3.1s-1.7 1.9-1.8 2.5z" fill="#fc0"/><path d="m35.4 25.5c-.2.6.2 1.3.8 1.4s1.3-.2 1.4-.8c.2-.6-.4-3.1-.4-3.1s-1.7 1.9-1.8 2.5z" opacity=".15"/><path d="m37.2 25.5c.2.6-.2 1.3-.8 1.4s-1.3-.2-1.4-.8c-.2-.6.4-3.1.4-3.1s1.6 1.9 1.8 2.5z" fill="#fc0"/><path d="m39.4 23.5c-.2.6.2 1.3.8 1.4s1.3-.2 1.4-.8c.2-.6-.4-3.1-.4-3.1s-1.7 1.9-1.8 2.5z" fill="#fc0"/><path d="m39.4 23.5c-.2.6.2 1.3.8 1.4s1.3-.2 1.4-.8c.2-.6-.4-3.1-.4-3.1s-1.7 1.9-1.8 2.5z" opacity=".15"/><path d="m41.2 23.5c.2.6-.2 1.3-.8 1.4s-1.3-.2-1.4-.8c-.2-.6.4-3.1.4-3.1s1.6 1.9 1.8 2.5z" fill="#fc0"/><path d="m31.4 27.5c-.2.6.2 1.3.8 1.4.6.2 1.3-.2 1.4-.8.2-.6-.4-3.1-.4-3.1s-1.7 1.9-1.8 2.5z" fill="#f90"/><path d="m31.4 27.5c-.2.6.2 1.3.8 1.4.6.2 1.3-.2 1.4-.8.2-.6-.4-3.1-.4-3.1s-1.7 1.9-1.8 2.5z" opacity=".15"/><path d="m33.2 27.5c.2.6-.2 1.3-.8 1.4-.6.2-1.3-.2-1.4-.8-.2-.6.4-3.1.4-3.1s1.6 1.9 1.8 2.5z" fill="#f90"/><path d="m27.4 29.5c-.2.6.2 1.3.8 1.4s1.3-.2 1.4-.8c.2-.6-.4-3.1-.4-3.1s-1.7 1.9-1.8 2.5z" fill="#f90"/><path d="m27.4 29.5c-.2.6.2 1.3.8 1.4s1.3-.2 1.4-.8c.2-.6-.4-3.1-.4-3.1s-1.7 1.9-1.8 2.5z" opacity=".15"/><path d="m29.2 29.5c.2.6-.2 1.3-.8 1.4s-1.3-.2-1.4-.8c-.2-.6.4-3.1.4-3.1s1.6 1.9 1.8 2.5z" fill="#f90"/><path d="m39.4 27.5c-.2.6.2 1.3.8 1.4s1.3-.2 1.4-.8c.2-.6-.4-3.1-.4-3.1s-1.7 1.9-1.8 2.5z" fill="#f90"/><path d="m39.4 27.5c-.2.6.2 1.3.8 1.4s1.3-.2 1.4-.8c.2-.6-.4-3.1-.4-3.1s-1.7 1.9-1.8 2.5z" opacity=".15"/><path d="m41.2 27.5c.2.6-.2 1.3-.8 1.4s-1.3-.2-1.4-.8c-.2-.6.4-3.1.4-3.1s1.6 1.9 1.8 2.5z" fill="#f90"/><path d="m43.4 25.5c-.2.6.2 1.3.8 1.4s1.3-.2 1.4-.8c.2-.6-.4-3.1-.4-3.1s-1.7 1.9-1.8 2.5z" fill="#fc0"/><path d="m43.4 25.5c-.2.6.2 1.3.8 1.4s1.3-.2 1.4-.8c.2-.6-.4-3.1-.4-3.1s-1.7 1.9-1.8 2.5z" opacity=".15"/><path d="m45.2 25.5c.2.6-.2 1.3-.8 1.4s-1.3-.2-1.4-.8c-.2-.6.4-3.1.4-3.1s1.6 1.9 1.8 2.5z" fill="#fc0"/><path d="m35.4 29.5c-.2.6.2 1.3.8 1.4s1.3-.2 1.4-.8c.2-.6-.4-3.1-.4-3.1s-1.7 1.9-1.8 2.5z" fill="#cc291f"/><path d="m35.4 29.5c-.2.6.2 1.3.8 1.4s1.3-.2 1.4-.8c.2-.6-.4-3.1-.4-3.1s-1.7 1.9-1.8 2.5z" opacity=".15"/><path d="m37.2 29.5c.2.6-.2 1.3-.8 1.4s-1.3-.2-1.4-.8c-.2-.6.4-3.1.4-3.1s1.6 1.9 1.8 2.5z" fill="#cc291f"/><path d="m31.4 31.5c-.2.6.2 1.3.8 1.4.6.2 1.3-.2 1.4-.8.2-.6-.4-3.1-.4-3.1s-1.7 1.9-1.8 2.5z" fill="#fc0"/><path d="m31.4 31.5c-.2.6.2 1.3.8 1.4.6.2 1.3-.2 1.4-.8.2-.6-.4-3.1-.4-3.1s-1.7 1.9-1.8 2.5z" opacity=".15"/><path d="m33.2 31.5c.2.6-.2 1.3-.8 1.4-.6.2-1.3-.2-1.4-.8-.2-.6.4-3.1.4-3.1s1.6 1.9 1.8 2.5z" fill="#fc0"/></svg>