<svg xmlns:xlink="http://www.w3.org/1999/xlink"  enable-background="new 0 0 160 160" height="160" viewBox="0 0 160 160" width="160" xmlns="http://www.w3.org/2000/svg"><path d="m117.7 59.7s7.7 9.2 4.4 12.6c-3.4 3.4-4.4-12.6-4.4-12.6z" fill="#cc291f"/><path d="m83.1 130.7c-7.6 4.7-8.2 10.3 1.7 15.6 10.8 5.8 17.2 4.5 25.6-.3 7.4-4.3 5.7-10.1-6.7-15-10-4.1-15.2-3.6-20.6-.3z" opacity=".2"/><path d="m95.2 118.6s2.6 9.7 2.8 13.5-.1 5.3-1.5 6.6-3.7 2.6-2.6 3.1c1.1.6 2.3-1 2.7-1.4s.9-.7.9-.7-.2 3.7 2.3 4.2 8.2 1.8 9.1.7c.7-.8-.5-1.2-1.3-1.3s-3.1-1-3.1-1 5-1.6 5-2.4-.9-.9-2.6-.4-5.1 1.3-5.7-2.4-1.5-20.4-1.5-20.4z" fill="#915645"/><path d="m84.2 114.7c.4 1.8 2.6 14.6 2 17.5s-.8 4.5-2.2 4.3-2.5-1.2-3.4-.6c-.9.7 3.9 4.4 5.6 4.5s12.2-.8 12.4-1.6-1.5-1.5-2.6-1.3c-1.1.1-4.1-.1-4.1-.1s2.1-1.5 2-2.3-1.3-.7-2-.3-1.8 1.2-2.2 1.2-1-2.1-1-6.1c0-3.9-.1-17.5-.1-17.5z" fill="#915645"/><path d="m118.5 61.1c3.2 8.3 8.1 33.5-5.6 46.3-4.1 3.8-7.9 6.1-9.5 8-3 3.7-3.7 4.2-6.1 4.1-4.7-.3-4-5.7-5.8-5.7s-1.2 3.4-5.4 3.2c-4.2-.1-3.4-7.3-7.9-10.4s-21-18.7-3.2-34.9 31.2-20.9 34.4-20c3.3.9 8.1 6.7 9.1 9.4z" fill="#4a2121"/><g fill="#baa794"><path d="m44.9 57.9-9.7-9c-2.2-2.1-4.6-2.1-5.3.1-.5 1.5.4 4 2.1 5.6l9.7 9c2.2 2.1 4.6 2.1 5.3-.1.5-1.6-.5-4.1-2.1-5.6z"/><path d="m42.4 64.2-9.8-6.7c-2.3-1.6-4.4-1-4.8 1.2-.3 1.9 1.1 4.5 3 5.8l9.8 6.7c2.3 1.6 4.4 1 4.8-1.2.3-1.8-1.1-4.5-3-5.8z"/><path d="m125.6 103.1c-.3-2.5-2.5-5-4.8-5.5l-9.8-2.2c-1.9-.4-3.3 1-3 3.1.3 2.5 2.5 5 4.8 5.5l9.8 2.2c1.9.5 3.2-.9 3-3.1z"/><path d="m111.7 95.4 9.7-.2c1.6 0 2.6-1.7 2.1-3.7-.7-2.7-3.1-4.9-5.3-4.9l-9.7.2c-1.6 0-2.6 1.7-2.1 3.7.7 2.7 3.1 4.9 5.3 4.9z"/><path d="m109.5 86.7 9.3-2.8c1.3-.4 1.8-2.2 1.2-4.1-1-2.8-3.5-4.6-5.6-4l-8.9 2.7c.2-.1.4-.2.6-.3l8.6-5.6c1-.7 1.2-2.6.4-4.3-1.4-2.7-3.9-4.1-5.5-3l-7.7 5 7.6-8.4c.8-.9.6-2.9-.4-4.4-1.6-2.5-4-3.4-5.3-2l-6.7 7.5 6-10.8c.6-1.1.1-3.1-1-4.5-1.8-2.2-4-2.6-4.9-.9l-5.4 9.8 4.1-12.8c.4-1.3-.4-3.4-1.7-4.6-1.9-1.7-3.8-1.7-4.4.1l-3.8 12 2-14.3c.2-1.5-.9-3.6-2.4-4.6-1.8-1.2-3.5-.8-3.8 1l-2 13.8v-15.3c0-1.7-1.4-3.8-3.1-4.6s-3.1 0-3.1 1.8v15.3l-2-15.6c-.3-2-2-4-3.8-4.4-1.5-.3-2.6.8-2.4 2.5l2.1 16.2-3.8-15.4c-.6-2.3-2.5-4.1-4.4-4.1-1.3 0-2.1 1.4-1.7 3.1l4.1 16.5-5.4-14.7c-.9-2.5-3.1-4.1-4.9-3.5-1.2.4-1.6 2-1 3.6l6 16.2-6.7-13.5c-1.3-2.6-3.7-3.9-5.3-2.9-1 .6-1.2 2.5-.4 4.1l7.6 15.3v.1l-7.8-12c-1.7-2.6-4.2-3.5-5.5-2-.8.9-.7 3 .4 4.6l8.7 13.4c.2.3.4.6.6.9l-9-11.3c-2-2.4-4.5-2.9-5.6-1-.7 1.2-.1 3.5 1.2 5.1l9.3 11.3c2 2.4 4.5 2.9 5.6 1 .7-1.2.1-3.5-1.2-5.1l-.4-.4c1.6 1.9 3.7 2.4 4.9 1.1.8-.9.7-3-.4-4.6v-.1c1.3 1.6 3.1 2.3 4.4 1.5.9-.6 1.1-2.3.5-3.9 1.1 1.5 2.7 2.4 4.1 2 1-.3 1.5-1.6 1.2-3.1.9 1.5 2.3 2.5 3.7 2.5 1.1 0 1.9-1 1.8-2.3.7 1.4 2 2.6 3.3 2.9 1.2.3 2.2-.4 2.4-1.5.5 1.4 1.6 2.7 2.9 3.3s2.4.3 2.9-.7c.2 1.3 1.2 2.8 2.4 3.7 1.4.9 2.7.9 3.3.1 0 1.3.7 2.9 1.8 3.9 1.4 1.3 2.9 1.6 3.7.9-.3 1.1.1 2.9 1.2 4.2 1.4 1.7 3 2.3 4.1 1.7-.7.9-.5 2.8.5 4.3 1.3 2 3.1 3 4.4 2.5-1 .7-1.2 2.6-.4 4.3 1.2 2.4 3.2 3.7 4.9 3.3l-.4.1c-1.3.4-1.8 2.2-1.2 4.1 1 2.9 3.5 4.7 5.6 4.1z"/></g><path d="m120.8 102.1c-.3-2.5-2.5-5-4.8-5.5l-5-1.1 5.8-.1c1.6 0 2.6-1.7 2.1-3.7-.7-2.7-3.1-4.9-5.3-4.9l-4.7.1 5.6-1.7c1.3-.4 1.8-2.2 1.2-4.1-1-2.8-3.5-4.6-5.6-4l-4.4 1.3 5.2-3.4c1-.7 1.2-2.6.4-4.3-1.4-2.7-3.9-4.1-5.5-3l-4 2.6 4.5-5c.8-.9.6-2.9-.4-4.4-1.6-2.5-4-3.4-5.3-2l-3.6 4 3.6-6.5c.6-1.1.1-3.1-1-4.5-1.8-2.2-4-2.6-4.9-.9l-3 5.4 2.4-7.7c.4-1.3-.4-3.4-1.7-4.6-1.9-1.7-3.8-1.7-4.4.1l-2.1 6.8 1.2-8.5c.2-1.5-.9-3.6-2.4-4.6-1.8-1.2-3.5-.8-3.8 1l-1.1 8v-9c0-1.7-1.4-3.8-3.1-4.6s-3.1 0-3.1 1.8v9l-1.2-9.1c-.3-2-2-4-3.8-4.4-1.5-.3-2.6.8-2.4 2.5l1.2 9.6-2.2-8.7c-.6-2.3-2.5-4.1-4.4-4.1-1.3 0-2.1 1.4-1.7 3.1l2.4 9.9-3-8.1c-.9-2.5-3.1-4.1-4.9-3.5-1.2.4-1.6 2-1 3.6l3.6 9.7-3.6-7.3c-1.3-2.6-3.7-3.9-5.3-2.9-1 .6-1.2 2.5-.3 4.1l4.5 9.1-4.1-6.3c-1.7-2.6-4.2-3.5-5.5-2-.8.9-.7 3 .4 4.6l5.2 8.1-4.4-5.3c-2-2.4-4.5-2.9-5.6-1-.7 1.2-.1 3.5 1.2 5.1l5.7 6.8-4.7-4.3c-2.2-2.1-4.6-2.1-5.3.1-.5 1.5.4 4 2.1 5.6l5.8 5.4-5-3.4c-2.3-1.6-4.4-1-4.8 1.2-.3 1.9 1.1 4.5 3 5.8l9.8 6.7c2.3 1.6 4.4 1 4.8-1.2.2-1.2-.3-2.7-1.2-4 1.2.2 2.2-.3 2.6-1.6.3-1 0-2.5-.7-3.8 1.2.4 2.2.1 2.8-1 .4-.8.4-2.1-.1-3.4 1.1.5 2.2.5 3-.4.6-.6.7-1.7.4-2.9 1 .7 2.2.8 3 .2.7-.4.9-1.4.8-2.4.9.8 2 1.1 3 .8.7-.2 1.2-.9 1.3-1.9.8.8 1.9 1.4 2.9 1.4.8 0 1.4-.5 1.7-1.3.7.9 1.7 1.6 2.7 1.8.9.2 1.6-.1 2-.7.6 1 1.4 1.8 2.4 2.2s1.8.4 2.4-.1c.4 1 1.2 1.9 2 2.6 1 .7 2 .9 2.7.6.3 1 .9 2.1 1.7 2.8 1 .9 2 1.4 2.9 1.3.1 1 .5 2.1 1.3 3 1 1.2 2.1 1.8 3 1.9-.1 1 .2 2.2.8 3.2.9 1.4 2 2.3 3 2.5-.3.9-.2 2.1.4 3.2.8 1.5 1.9 2.6 3 3.1-.5.8-.6 2-.1 3.2.6 1.6 1.7 2.9 2.8 3.6-.7.7-1 1.8-.7 3.1.4 1.6 1.4 3 2.6 3.9-.9.5-1.4 1.5-1.2 2.9.3 2.5 2.5 5 4.8 5.5l9.8 2.2c1.8.6 3.2-.8 2.9-2.9z" fill="#4a2121"/><path d="m113 100.7-.2-1.5c-.2-1.7-1.2-3.3-2.4-3.9 1-.4 1.5-1.8 1-3.5l-.4-1.5c-.4-1.7-1.6-3.1-2.8-3.4.9-.6 1.1-2.3.5-3.9l-.5-1.5c-.6-1.7-1.9-2.8-3-2.9.7-.9.7-2.7-.1-4.2l-.7-1.4c-.8-1.6-2.1-2.5-3.2-2.3.5-1.1.3-3-.6-4.4l-.8-1.3c-.9-1.5-2.3-2.1-3.2-1.5.4-1.3-.1-3.2-1.2-4.5l-.8-1c-1.1-1.3-2.4-1.6-3.2-.8.2-1.5-.5-3.3-1.7-4.4l-1-.9c-1.1-1.1-2.4-1-3 0-.1-1.6-.9-3.3-2.1-4.1l-1.1-.8c-1.2-.8-2.4-.5-2.8.7-.3-1.6-1.3-3.2-2.5-3.8l-1.1-.5c-1.2-.6-2.2.1-2.5 1.5-.5-1.6-1.6-3-2.8-3.3l-1.1-.2c-1.2-.3-2.1.7-2.1 2.2-.6-1.6-1.9-2.8-3-2.7h-1c-1.1 0-1.8 1.2-1.7 2.8-.8-1.5-2.1-2.4-3.2-2.1l-.9.4c-1.1.3-1.5 1.8-1.2 3.4-.9-1.4-2.3-2-3.2-1.4l-.8.5c-.9.6-1.2 2.2-.6 3.8-1-1.2-2.4-1.5-3.2-.6l-.7.8c-.8.9-.8 2.6-.1 4.2-1.1-1-2.4-.9-3 .2l-.5 1c-.6 1.1-.4 2.9.5 4.4-1.2-.7-2.3-.4-2.7.9l-.3 1.1c-.4 1.3 0 3.2 1 4.5-1.2-.5-2.2.2-2.4 1.7l-.2 1.3c-.2 1.7.7 3.9 2.1 4.8 0 0 32 20.5 34.2 20.2 2.2 2.3 34.2 10.9 34.2 10.9 1.4.2 2.3-1.1 2.1-3z" fill="#915645"/><path d="m89.5 96.9c.4-.3.4-.9.2-1.6l-.2-.6c-.2-.7-.8-1.2-1.2-1.2.3-.4.3-1.1 0-1.7l-.3-.6c-.3-.6-.9-1-1.3-.9.2-.5.1-1.2-.3-1.8l-.3-.5c-.4-.6-.9-.8-1.3-.6.1-.5 0-1.3-.5-1.8l-.3-.5c-.4-.5-1-.6-1.3-.3.1-.6-.2-1.3-.7-1.8l-.4-.4c-.5-.4-1-.4-1.2 0 0-.6-.4-1.3-.9-1.7l-.4-.3c-.5-.3-1-.2-1.1.3-.1-.7-.5-1.3-1-1.5l-.4-.2c-.5-.2-.9 0-1 .6-.2-.7-.7-1.2-1.1-1.3l-.4-.1c-.5-.1-.8.3-.9.9-.3-.6-.8-1.1-1.2-1.1h-.4c-.5 0-.7.5-.7 1.2-.3-.6-.9-1-1.3-.8h-.6c-.4.1-.6.7-.5 1.4-.4-.6-.9-.8-1.3-.6l-.3.2c-.4.2-.5.9-.3 1.6-.4-.5-1-.6-1.3-.3l-.3.3c-.3.4-.3 1.1 0 1.7-.5-.4-1-.4-1.2.1l-.2.4c-.2.5-.2 1.2.2 1.8-.4-.2-.7-.2-.9.1 6.8 4.1 12.9 7.6 13.8 7.5.9 1 7 3 13.8 5.1-.2-.6-.6-.9-1-1z" fill="#4a2121" opacity=".5"/><path d="m56.2 91.8c-1.2-1.3-3.6-2-5.3-1.6l-11.9 2.8c-1.8.4-2.2 1.8-1.1 3.1 1.2 1.3 3.6 2 5.3 1.6l11.9-2.8c1.8-.4 2.3-1.8 1.1-3.1z" fill="#baa794"/><path d="m67.1 100.4c-1.9-.5-4.3.1-5.2 1.2l-6.3 7.9c-.9 1.2-.1 2.5 1.8 3s4.3-.1 5.2-1.2l6.3-7.9c1-1.2.1-2.5-1.8-3z" fill="#baa794"/><path d="m59.2 97.2c-1.6-1.2-4-1.6-5.3-.9l-8.9 4.8c-1.3.7-1.1 2.3.5 3.5s4 1.6 5.3.9l8.9-4.8c1.3-.7 1.1-2.3-.5-3.5z" fill="#baa794"/><path d="m74.5 102.6c-2.1.1-4 1.2-4.2 2.4l-.9 8.7c-.1 1.3 1.5 2.3 3.7 2.2 2.1-.1 4-1.2 4.2-2.4l.9-8.7c.1-1.3-1.5-2.3-3.7-2.2z" fill="#baa794"/><path d="m62.9 95.2c-1-.8-2.4-1.2-3.5-1.3l.8-.2c1.8-.4 2.2-1.8 1.1-3.1-1.2-1.3-3.6-2-5.3-1.6l-12 2.9c-1.8.4-2.2 1.8-1.1 3.1 1.2 1.3 3.6 2 5.3 1.6l9.1-2.1-8.7 4.7c-1.3.7-1.1 2.3.5 3.5 1.6 1.2 4 1.6 5.3.9l8.9-4.8c1.4-.8 1.2-2.4-.4-3.6z" fill="#4a2121"/><path d="m74.9 98.9c-1.3 0-2.6.5-3.3 1.1.9-1.2.1-2.5-1.9-3-1.9-.5-4.3.1-5.2 1.2l-6.3 7.9c-.9 1.2-.1 2.5 1.8 3s4.3-.1 5.2-1.2l5.6-7.1c-.1.1-.1.3-.1.5l-.9 8.7c-.1 1.3 1.5 2.3 3.7 2.2 2.1-.1 4-1.2 4.2-2.4l.9-8.7c.1-1.2-1.5-2.2-3.7-2.2z" fill="#4a2121"/><path d="m76.4 91.6h-.6c.2-.6.1-1-.2-1.1l-1.3-.3c-.5-.1-1.9.8-3.6 2.2.3-.4.4-.7.1-.9l-1.1-.8c-.2-.1-.6-.2-1.1-.1 1.9-.8 3.2-1.5 2.8-1.8l-.8-.9c-.8-1.2-18.6 1.9-18.6 1.9-1.6.4-2 1.6-1 2.8l.8.9c1 1.1 2.9 1.7 4.4 1.5-1 .4-1.7.7-1.7.7-1.2.6-1 2.1.5 3.1l1.1.8c1.4 1.1 3.6 1.5 4.8.8 0 0 3.1-2.1 5.9-4.2-2.5 2.4-4.5 4.5-4.5 4.5-.8 1.1-.1 2.3 1.7 2.7l1.3.3c1.7.4 3.9-.1 4.7-1.1 0 0 .4-.7 1.1-1.7-.5 1.8-.8 3.1-.8 3.1-.1 1.1 1.4 2 3.3 2h1.5c1.9-.1 3.6-1 3.7-2.2-.2.1-.4-12.2-2.4-12.2z" fill="#915645"/><path d="m95.5 109.3-7.6-9.2c-.9-1.3-2.1-1.5-4-1.1-1.4.2-2.1 1-2.2 1.8-.8-.8-2.2-1.4-3.7-1.5s-2.7.4-3.2 1.1c-.3-.9-1.4-1.7-2.9-2.1s-3-.3-3.9.3c.2-.8-.4-1.8-1.7-2.5-1.3-.7-2.8-.9-4.1-.6.7-.7.6-1.6-.3-2.5-.9-.8-2.4-1.4-3.8-1.4 1-.5 1.5-1.3 1.1-2.2s-1.6-1.7-3-2c1.3-.2 2.3-.8 2.4-1.7.1-1.3-.2-1.8-2.3-2.2l-15.7-3.2c-2.1-.4-4 .4-4.1 1.7s1.5 2.6 3.6 2.9l13.8 2.3-13.3.7c-2 .1-3.2 1.3-2.6 2.6s2.8 2.3 4.8 2.2l13.3-.7-11.2 3.5c-1.7.5-2.1 2-.8 3.2s3.7 1.7 5.4 1.2l11.2-3.5-7.7 6c-1.2.9-.7 2.4 1.1 3.4 1.8.9 4.2 1 5.4 0l7.7-6-3.3 7.7c-.5 1.2.8 2.6 2.9 3.2 2.1.6 4.2.1 4.7-1.1l3.3-7.7 1.5 8.5c.2 1.3 2.2 2.5 4.3 2.6s3.7-.8 3.4-2.1l-1.5-8.5 6.1 8.2c.9 1.3 3.3 2 5.2 1.7 1.8-.4 2.6-1.7 1.7-3z" fill="#baa794"/><path d="m92.8 105.7-6.8-8.3c-.9-1.3-2.9-2.3-4.8-2-.7.1-1.3.4-1.6.7-.7-.3-1.4-.5-2.2-.5-.8 0-1.5.1-2.1.3-.5-.4-1.2-.7-1.9-.9-.8-.2-1.5-.3-2.2-.2-.3-.4-.8-.9-1.4-1.2-.7-.3-1.4-.6-2.1-.7 0-.4-.3-.9-.7-1.4-.5-.4-1.1-.8-1.8-1 .2-.4.2-.9 0-1.3-.2-.5-.7-.9-1.2-1.3.4-.3.7-.7.8-1.2.1-1.3-1.5-2.1-3.6-2.4l-14.4-2.9c-2.1-.4-4 .4-4.1 1.7s1.5 2.6 3.6 2.9l7.8 1.3-7.5.4c-2 .1-3.2 1.3-2.6 2.6s2.8 2.3 4.8 2.2l7.5-.4-6.3 2c-1.7.5-2.1 2-.8 3.2s3.7 1.7 5.4 1.2l6.3-2-4.3 3.4c-1.2.9-.7 2.4 1.1 3.4 1.8.9 4.2 1 5.4 0l4.3-3.4-1.9 4.3c-.5 1.2.8 2.6 2.9 3.2s4.2.1 4.7-1.1l1.9-4.3.9 4.8c.2 1.3 2.2 2.5 4.3 2.6s3.7-.8 3.4-2.1l-.9-4.8 3.5 4.7c.9 1.3 3.3 2 5.2 1.7 1.6-.6 2.4-1.9 1.4-3.2z" fill="#4a2121"/><path d="m88.4 99.6s-10.1-11.6-11.8-11.3l-.3.1v-.2c.1-1.1-19.5-5.3-19.5-5.3-1.8-.3-3.4.3-3.6 1.4l-.1.8c-.1.8.6 1.6 1.7 2.1-1 .4-1.4 1.1-1 2l.4.9c.4.8 1.4 1.5 2.7 1.8-.6.6-.5 1.4.2 2.2l.8.8c.8.7 2.1 1.2 3.3 1.2-.2.7.4 1.6 1.5 2.1l1.2.6c1.1.6 2.5.7 3.5.5.3.8 1.2 1.5 2.5 1.8l1.4.4c1.3.4 2.6.2 3.4-.3.7.7 1.9 1.3 3.2 1.4l1.4.1c1.3.1 2.4-.3 2.8-1 1 .6 2.4.9 3.5.7l1.2-.2c1.8-.4 2.5-1.5 1.6-2.6z" fill="#915645"/><path d="m114.1 25.7c2.5-.1 6.1 1.4 6.5 9.3s.6 8.6-.1 8.6-.9-5-1.8-9.1-2.4-4.2-3.4-4.1c-.8.1-1.2-4.7-1.2-4.7z" fill="#cc291f"/><path d="m116.9 29.4c-.3-3.3-5.4-7.9-10.3-2.7s1.4 13.4 1.2 18-1.7 7.3-1.7 7.3 7.1 2.7 10.3 7c2.7 3.5 3.1 5 3.1 5s-.8-6.7-3.2-12.3-2.8-15.2-1.2-17.8c1.7-2.7 2-3 1.8-4.5z" fill="#baa794"/><path d="m112.5 28s.4-1 1.2-1 1.4.8 1.4.8-.5.9-1.1.9-1.5-.7-1.5-.7z" fill="#2d3134"/></svg>