<svg xmlns:xlink="http://www.w3.org/1999/xlink"  enable-background="new 0 0 80 60" height="60" viewBox="0 0 80 60" width="80" xmlns="http://www.w3.org/2000/svg"><path d="m0 6v12.5c1.3 3.2 3.7 5.9 6.8 7.4l55.7 27.9c2.9 1.5 6.1 2.4 9.4 2.7l1.6.2c1.8.2 3.4-1.3 3.4-3.1v-9.1c-1.3-3.2-3.7-5.9-6.8-7.4l-15.1-7.6v-2l-21-10.5-2 1-19.7-9.8c-1.5-.8-3.2-1.3-4.9-1.4z" fill="#e5e5e5"/><path d="m73.6 59.2-1.6-.2c-3.3-.3-6.5-1.2-9.4-2.7l-55.8-27.9c-3.1-1.5-5.5-4.2-6.8-7.4v-15c1.3 3.2 3.7 5.9 6.8 7.4l55.7 27.9c2.9 1.5 6.1 2.4 9.4 2.7l5 .5v11.6c.1 1.8-1.5 3.2-3.3 3.1z" fill="#2d3134"/><path d="m53 28.5 2-1v2z" opacity=".29"/><g fill="#999"><path d="m70.8 52.9c0 1.1-.9 1.6-2 1s-2-1.9-2-3 .9-1.6 2-1 2 1.9 2 3z" opacity=".2"/><path d="m61.3 44.7c-1.9-1-3.5-.2-3.5 1.7s1.6 4.3 3.5 5.3 3.5.2 3.5-1.7c0-2-1.6-4.4-3.5-5.3zm0 5c-.8-.4-1.5-1.4-1.5-2.3 0-.8.7-1.2 1.5-.7s1.5 1.4 1.5 2.3c0 .7-.7 1.1-1.5.7z" opacity=".2"/><path d="m6.4 20.8c0 1.1-.9 1.6-2 1s-2-1.9-2-3 .9-1.6 2-1 2 1.9 2 3z" opacity=".2"/><path d="m11.4 19.8c-1.9-1-3.5-.2-3.5 1.7s1.6 4.3 3.5 5.3 3.5.2 3.5-1.7c0-2-1.6-4.4-3.5-5.3zm0 5c-.8-.4-1.5-1.4-1.5-2.3 0-.8.7-1.2 1.5-.7s1.5 1.4 1.5 2.3c0 .8-.7 1.1-1.5.7z" opacity=".2"/></g><path d="m73.6 59.2-1.6-.2c-3.3-.3-6.5-1.2-9.4-2.7l-55.8-27.9c-3.1-1.5-5.5-4.2-6.8-7.4v-15c1.3 3.2 3.7 5.9 6.8 7.4l55.7 27.9c2.9 1.5 6.1 2.4 9.4 2.7l5 .5v11.6c.1 1.8-1.5 3.2-3.3 3.1z" opacity=".11"/><path d="m34.5 28.6c-1.1-.6-2.1-.5-2.8 0l-1.3.5c-.6.3-1 1-1 2v6.2c0 1.9 1.6 4.3 3.5 5.3.8.4 1.5.5 2.1.3l.1-.1c.2-.1.3-.1.4-.2l1.1-.5c.8-.3 1.3-1 1.3-2 0-1.4 0-4.9 0-6.2.1-2-1.5-4.3-3.4-5.3z" fill="#999"/><path d="m35.1 42.9h.1z" fill="#999"/><path d="m36.5 34.6v6.2c0 .9-.3 1.5-.8 1.8l1.1-.5c.8-.3 1.3-1 1.3-2 0-1.4 0-4.9 0-6.2z" opacity=".29"/><path d="m34.6 42c-.3 0-.7-.1-1.1-.3-1.6-.8-2.9-2.8-2.9-4.4v-6.2c0-.8.3-1.2.9-1.2.3 0 .7.1 1.1.3 1.6.8 2.9 2.8 2.9 4.4v6.2c0 .4-.1.7-.3.9-.1.2-.3.3-.6.3z" fill="#2d3134"/><path d="m34.5 34.1c0 .8-.7 1.2-1.5.7s-1.5-1.4-1.5-2.3c0-.8.7-1.2 1.5-.7s1.5 1.4 1.5 2.3z" fill="#36c"/><path d="m33 33.1c0 .3-.2.4-.5.2-.3-.1-.5-.5-.5-.7s.2-.4.5-.2c.3.1.5.4.5.7z" fill="#fff" opacity=".3"/><path d="m34.5 39.4c0 .8-.7 1.2-1.5.7s-1.5-1.4-1.5-2.3c0-.8.7-1.2 1.5-.7s1.5 1.5 1.5 2.3z" fill="#36c"/><path d="m33 38.5c0 .3-.2.4-.5.2-.3-.1-.5-.5-.5-.7s.2-.4.5-.2c.3.1.5.4.5.7z" fill="#fff" opacity=".3"/><path d="m36.5 34.6c0-1.9-1.6-4.3-3.5-5.3s-3.5-.2-3.5 1.7v6.2c0 1.9 1.6 4.3 3.5 5.3s3.5.2 3.5-1.7c0-1.3 0-4.8 0-6.2z" opacity=".11"/><path d="m32 20-1 .5 2 1 1-.5z" opacity=".2"/><path d="m36 22-1 .5 2 1 1-.5z" opacity=".2"/><path d="m40 24-1 .5 2 1 1-.5z" opacity=".2"/><path d="m44 26-1 .5 2 1 1-.5z" opacity=".2"/><path d="m48 28-1 .5 2 1 1-.5z" opacity=".2"/><path d="m30 21-1 .5 2 1 1-.5z" opacity=".2"/><path d="m34 23-1 .5 2 1 1-.5z" opacity=".2"/><path d="m38 25-1 .5 2 1 1-.5z" opacity=".2"/><path d="m42 27-1 .5 2 1 1-.5z" opacity=".2"/><path d="m46 29-1 .5 2 1 1-.5z" opacity=".2"/></svg>