<svg xmlns:xlink="http://www.w3.org/1999/xlink"  enable-background="new 0 0 60 40" height="40" viewBox="0 0 60 40" width="60" xmlns="http://www.w3.org/2000/svg"><path d="m36 1c-6.6 0-12.7 1.3-17 3.5v6c4.3-2.1 10.4-3.5 17-3.5 11.5 0 21.2 4.1 23.5 9.5.3-.8.5-2.6.5-3.5 0-6.6-10.7-12-24-12z" fill="#2d3134"/><path d="m47.9 22-.9.5v-1.9c0-1.6-.9-3.1-2.3-3.8l-27.3-13.6c-.5-.2-1-.2-1.4 0l-8 4 1 .5-.5 14c0 .6.4 1.2.9 1.5l28.5 13.8v1.4l7.9-3.9c.7-.2 1.2-.8 1.2-1.6v-1.3l1.3-.7c.4-.2.7-.6.7-1.1v-7c0-.6-.6-1-1.1-.8zm.1 8-1 .5v-7l1-.5z" fill="#656565"/><path d="m36.7 20.8-27.3-13.6c-.5-.3-1-.2-1.4 0l-3 1.4c-.6.3-1 .8-1 1.5v13.9c0 .6.4 1.2.9 1.5l28.7 14.3c.6.3 1.2.2 1.7-.1l2.6-1.3c.7-.2 1.2-.8 1.2-1.6v-12.2c-.1-1.6-1-3.1-2.4-3.8z" fill="#e5e5e5"/><path d="m47 20.6-11 5.5v12.2c0 .6-.3 1.1-.7 1.4l10.6-5.3.5-.2c.4-.3.7-.8.7-1.4v-1.3l1.3-.7c.4-.2.7-.6.7-1.1v-7c0-.6-.6-.9-1.1-.7l-1 .5zm1 2.4v7l-1 .5v-7z" opacity=".29"/><path d="m6.4 8.7 27.2 13.6c1.4.7 2.3 2.2 2.3 3.8v12.2c0 1.2-1.3 2-2.4 1.5l-28.6-14.3c-.5-.3-.9-.9-.9-1.5v-13.8c0-1.3 1.3-2.1 2.4-1.5z" opacity=".11"/><path d="m47 23.7v6c7.7-2 13-6 13-10.7v-6c0 4.6-5.3 8.7-13 10.7z" fill="#2d3134"/><path d="m47 23.7v6c7.7-2 13-6 13-10.7v-6c0 4.6-5.3 8.7-13 10.7z" opacity=".29"/></svg>