<svg xmlns:xlink="http://www.w3.org/1999/xlink"  enable-background="new 0 0 60 40" height="40" viewBox="0 0 60 40" width="60" xmlns="http://www.w3.org/2000/svg"><path d="m23.3 19.2 27.2 13.6c.5.2 1 .2 1.4 0l3-1.5c.6-.3 1-.8 1-1.5v-13.8c0-.6-.4-1.2-.9-1.5l-28.6-14.3c-.6-.3-1.2-.2-1.7.1l-2.6 1.3c-.6.2-1.1.8-1.1 1.6v12.2c0 1.6.9 3.1 2.3 3.8z" fill="#e5e5e5"/><path d="m12.1 17.9.9-.5v1.9c0 1.6.9 3.1 2.3 3.8l27.2 13.6c.5.2 1 .2 1.4 0l8-4c.6-.3 1-.8 1-1.5v-13.7c0-.6-.4-1.2-.9-1.5l-28.6-14.3c-.6-.3-1.2-.2-1.7.1l-7.6 3.8c-.6.2-1.1.8-1.1 1.6v1.3l-1.3.7c-.4.1-.7.6-.7 1v7c0 .6.6 1 1.1.7zm-.1-7.9 1-.5v7l-1 .5z" fill="#656565"/><path d="m42.6 36.8-27.3-13.6c-1.4-.7-2.3-2.2-2.3-3.8v-12.2c0-1.2 1.3-2 2.4-1.5l28.7 14.3c.6.3.9.9.9 1.5v13.8c0 1.3-1.3 2.1-2.4 1.5z" opacity=".11"/><path d="m42.1 21-24.6-12.3v.2 8.7c0 1.6.9 3.1 2.3 3.8l23.2 11.6c0-.1 0-.1 0-.2v-10.3c0-.6-.4-1.2-.9-1.5z" fill="#2d3134"/><path d="m40.6 34.3-23.3-11.6c-1.4-.7-2.3-2.2-2.3-3.8v-8.7c0-1.2 1.3-2 2.4-1.5l24.7 12.3c.6.3.9.9.9 1.5v10.3c0 1.3-1.3 2.1-2.4 1.5z" opacity=".1"/><path d="m56 17.6-11 5.5v12.2c0 .6-.3 1.1-.7 1.4l11-5.5c.4-.3.7-.8.7-1.4z" opacity=".29"/><path d="m23.4 12.5c-1.2-.6-2.3-.7-3.1-.3l-1.6.8c-.9.4-1.4 1.3-1.4 2.6 0 2.5 2 5.6 4.6 6.8 1.2.6 2.4.7 3.2.3 0 0 1.6-.8 1.8-.9.7-.4 1.2-1.3 1.2-2.5-.1-2.4-2.1-5.5-4.7-6.8z" fill="#2d3134"/><path d="m25.1 22.7c.3-.2 1.6-.8 1.7-.9.7-.4 1.2-1.3 1.2-2.5 0-1-.3-2.1-.9-3.1l-1.6.8c.6 1 .9 2.1.9 3.1 0 1.3-.5 2.2-1.3 2.6z" opacity=".29"/><path d="m25.3 19.6c0 1.9-1.5 2.7-3.4 1.7-1.9-.9-3.4-3.2-3.4-5.1s1.5-2.7 3.4-1.7c1.8.9 3.4 3.2 3.4 5.1z" opacity=".3"/><path d="m21.8 14.5c-.8-.4-1.5-.5-2.1-.3-.4.4-.7.9-.7 1.7 0 1.9 1.5 4.2 3.4 5.1.8.4 1.5.5 2.1.3.4-.4.7-.9.7-1.7.1-1.9-1.5-4.2-3.4-5.1z" fill="#36c"/><path d="m26.4 20.2c0 2.5-2 3.5-4.6 2.3s-4.6-4.3-4.6-6.8 2-3.5 4.6-2.3 4.6 4.3 4.6 6.8z" opacity=".11"/><path d="m36.4 19c-1.2-.6-2.3-.7-3.1-.3l-1.6.8c-.9.4-1.4 1.3-1.4 2.6 0 2.5 2 5.6 4.6 6.8 1.2.6 2.4.7 3.2.3 0 0 1.6-.8 1.8-.9.7-.4 1.2-1.3 1.2-2.5-.1-2.4-2.1-5.5-4.7-6.8z" fill="#2d3134"/><path d="m38.1 29.2c.3-.2 1.6-.8 1.7-.9.7-.4 1.2-1.3 1.2-2.5 0-1-.3-2.1-.9-3.1l-1.6.8c.6 1 .9 2.1.9 3.1 0 1.3-.5 2.2-1.3 2.6z" opacity=".29"/><path d="m38.3 26.1c0 1.9-1.5 2.7-3.4 1.7-1.9-.9-3.4-3.2-3.4-5.1s1.5-2.7 3.4-1.7c1.8.9 3.4 3.2 3.4 5.1z" opacity=".3"/><path d="m34.8 21c-.8-.4-1.5-.5-2.1-.3-.4.3-.7.9-.7 1.7 0 1.9 1.5 4.2 3.4 5.1.8.4 1.5.5 2.1.3.4-.4.7-.9.7-1.7.1-1.9-1.5-4.2-3.4-5.1z" fill="#36c"/><path d="m39.4 26.7c0 2.5-2 3.5-4.6 2.3-2.5-1.3-4.6-4.3-4.6-6.8s2-3.5 4.6-2.3 4.6 4.3 4.6 6.8z" opacity=".11"/><path d="m45 33.5-1 .5v-7l1-.5v-1l-1.3.7c-.4.2-.7.6-.7 1.1v7c0 .6.6.9 1.1.7l.9-.5z" opacity=".29"/><path d="m13 10.3c-7.7 2-13 6-13 10.7 0 1 .3 2 .8 3 1.7-3.3 6.2-6.1 12.2-7.7z" fill="#2d3134"/><path d="m13 10.3c-7.7 2-13 6-13 10.7 0 1 .3 2 .8 3 1.7-3.3 6.2-6.1 12.2-7.7z" opacity=".29"/><path d="m45 26.8c-4.1 3.7-12 6.2-21 6.2-13.3 0-24-5.4-24-12v6c0 6.6 10.7 12 24 12 9 0 16.9-2.5 21-6.2z" fill="#2d3134"/></svg>