<svg xmlns:xlink="http://www.w3.org/1999/xlink"  enable-background="new 0 0 60 80" height="80" viewBox="0 0 60 80" width="60" xmlns="http://www.w3.org/2000/svg"><path d="m6 19-4 40v2l38 19 8-4v-44l-38-19-4 2z" fill="#2d3134"/><path d="m40 78v2l-38-19v-2l4-40v-4l38 19v4z" opacity=".11"/><path d="m40 78v2l8-4v-44l-4 2v4z" opacity=".29"/><path d="m5 21-4 40 12 6 4-2 1-10-1-2 1.6-16 1.4-2 1-10-12-6z" fill="#2d3134"/><path d="m13 67-12-6 4-40 12 6z" fill="#fff" opacity=".1"/><path d="m13 67 4-2 1-10-1-2 1.6-16 1.4-2 1-10-4 2z" opacity=".3"/><path d="m23 42.7-.3 3.2 3.2 1.7 1.3-.7.4-3.3-3.3-1.6z" fill="#2d3134"/><path d="m25.9 47.6-3.2-1.7.3-3.2 3.2 1.6z" fill="#fff" opacity=".1"/><path d="m25.9 47.6 1.3-.7.4-3.3-1.4.7z" opacity=".3"/><path d="m28.2 45.3-.3 3.2 3.2 1.7 1.3-.7.4-3.3-3.3-1.6z" fill="#2d3134"/><path d="m31.1 50.2-3.2-1.7.3-3.2 3.3 1.6z" fill="#fff" opacity=".1"/><path d="m31.1 50.2 1.3-.7.4-3.3-1.3.7z" opacity=".3"/><path d="m33.4 47.9-.3 3.2 3.3 1.7 1.3-.7.3-3.2-3.3-1.7z" fill="#2d3134"/><path d="m36.4 52.8-3.3-1.7.3-3.2 3.3 1.6z" fill="#fff" opacity=".1"/><path d="m36.4 52.8 1.3-.7.3-3.2-1.3.6z" opacity=".3"/><path d="m22.3 49.2-.3 3.2 3.3 1.7 1.3-.7.3-3.2-3.3-1.7z" fill="#2d3134"/><path d="m25.3 54.1-3.3-1.7.3-3.2 3.3 1.6z" fill="#fff" opacity=".1"/><path d="m25.3 54.1 1.3-.7.3-3.2-1.3.6z" opacity=".3"/><path d="m27.6 51.8-.4 3.3 3.3 1.6 1.3-.7.3-3.2-3.2-1.7z" fill="#2d3134"/><path d="m30.5 56.7-3.3-1.6.4-3.3 3.2 1.6z" fill="#fff" opacity=".1"/><path d="m30.5 56.7 1.3-.7.3-3.2-1.3.6z" opacity=".3"/><path d="m32.8 54.4-.4 3.3 3.3 1.6 1.3-.6.3-3.3-3.2-1.6z" fill="#2d3134"/><path d="m35.7 59.3-3.3-1.6.4-3.3 3.2 1.6z" fill="#fff" opacity=".1"/><path d="m35.7 59.3 1.3-.6.3-3.3-1.3.6z" opacity=".3"/><path d="m21.7 55.7-.4 3.3 3.3 1.6 1.3-.6.3-3.3-3.2-1.6z" fill="#2d3134"/><path d="m24.6 60.6-3.3-1.6.4-3.3 3.2 1.6z" fill="#fff" opacity=".1"/><path d="m24.6 60.6 1.3-.6.3-3.3-1.3.6z" opacity=".3"/><path d="m26.9 58.3-.3 3.3 3.2 1.6 1.3-.6.4-3.3-3.3-1.6z" fill="#2d3134"/><path d="m29.8 63.2-3.2-1.6.3-3.3 3.3 1.7z" fill="#fff" opacity=".1"/><path d="m29.8 63.2 1.3-.6.4-3.3-1.3.7z" opacity=".3"/><path d="m32.1 60.9-.3 3.3 3.3 1.6 1.3-.6.3-3.3-3.3-1.6z" fill="#2d3134"/><path d="m35.1 65.8-3.3-1.6.3-3.3 3.3 1.7z" fill="#fff" opacity=".1"/><path d="m35.1 65.8 1.3-.6.3-3.3-1.3.7z" opacity=".3"/><path d="m21 62.2-.3 3.3 3.3 1.6 1.3-.6.3-3.3-3.3-1.6z" fill="#2d3134"/><path d="m24 67.1-3.3-1.6.3-3.3 3.3 1.7z" fill="#fff" opacity=".1"/><path d="m24 67.1 1.3-.6.3-3.3-1.3.7z" opacity=".3"/><path d="m26.2 64.9-.3 3.2 3.3 1.7 1.3-.7.3-3.3-3.2-1.6z" fill="#2d3134"/><path d="m29.2 69.8-3.3-1.7.3-3.2 3.3 1.6z" fill="#fff" opacity=".1"/><path d="m29.2 69.8 1.3-.7.3-3.3-1.3.7z" opacity=".3"/><path d="m31.5 67.5-.4 3.2 3.3 1.7 1.3-.7.3-3.3-3.2-1.6z" fill="#2d3134"/><path d="m34.4 72.4-3.3-1.7.4-3.2 3.2 1.6z" fill="#fff" opacity=".1"/><path d="m34.4 72.4 1.3-.7.3-3.3-1.3.7z" opacity=".3"/><path d="m39 46-16-8 1-10 16 8z" fill="#36c"/><path d="m39 46-11-16 12 6z" fill="#fff" opacity=".1"/></svg>