<svg xmlns:xlink="http://www.w3.org/1999/xlink"  enable-background="new 0 0 60 80" height="80" viewBox="0 0 60 80" width="60" xmlns="http://www.w3.org/2000/svg"><path d="m35 67 12 6 4-2-4-35-12-6-4 2z" fill="#2d3134"/><path d="m47 73 4-2-4-35-4 2z" opacity=".29"/><path d="m2 21v38 2l38 19 8-4v-2l-4-35v-5l-38-19-4 2z" fill="#2d3134"/><path d="m40 80-38-19v-44l38 19z" opacity=".11"/><path d="m40 80 8-4v-2l-4-35v-5l-4 2z" opacity=".29"/><path d="m22.1 36.1v-3.1l-2.2-1v3.1c-.9-.1-1.6.5-1.6 1.6 0 1.5 1.2 3.2 2.6 4 1.5.7 2.6.1 2.6-1.3.1-1.1-.5-2.4-1.4-3.3z" opacity=".3"/><path d="m10 57v2l4 2v-2z" opacity=".5"/><path d="m16 60v2l4 2v-2z" opacity=".5"/><path d="m22 63v2l4 2v-2z" opacity=".5"/><path d="m28 66v2l4 2v-2z" opacity=".5"/></svg>