<svg xmlns:xlink="http://www.w3.org/1999/xlink"  enable-background="new 0 0 48 16" height="16" viewBox="0 0 48 16" width="48" xmlns="http://www.w3.org/2000/svg"><path d="m48 16-19.5-9.7c-7.9-3.9-17.1-3.9-25 0-1.2.6-1 2.4.3 2.7l20.4 5c5.2 1.3 10.6 2 15.9 2z" fill="#39c"/><g fill="#fff"><path d="m40.5 14.2c-3.3-.6-4.6-1.6-5.2-2.8s-2-2.9-5.6-3.3c-3.1-.4-4.3-1.7-7-4-6.4-1.6-13.2-.9-19.2 2.2-1.2.6-1 2.4.3 2.7l20.4 5c5.2 1.3 10.6 2 15.9 2h4c-.4-1-1.1-1.3-3.6-1.8z" opacity=".1"/><path d="m36.9 15.9c-.4-.8-1.1-1.2-3.4-1.6-3.3-.6-4.6-1.6-5.2-2.8s-2-2.9-5.6-3.3c-3.1-.4-3.7-2.1-7-4-.7-.3-1.7-.6-2.8-.7-3.2.3-6.4 1.3-9.4 2.8-1.2.6-1 2.4.3 2.7l20.4 5c4.1 1.1 8.4 1.7 12.7 1.9z" opacity=".1"/><path d="m24.3 13c-.6-1.2-2-2.9-5.6-3.3-3.1-.4-3.7-2.1-7-4-.3-.2-.6-.3-.9-.4-1.1-.3-2.3-.3-3.5-.1-1 .2-2.1.4-3.1.8-.3.1-.5.1-.7.3-1.2.6-1 2.4.3 2.7l20.4 5c.4.1.9.2 1.3.3-.6-.4-.9-.8-1.2-1.3z" opacity=".1"/></g><path d="m28 13.2c-.3-.6-.9-1-1.6-1-.1 0-.2 0-.3 0-.3-.6-.9-1.1-1.7-1.1-.4 0-.7.1-1 .3-.3-.3-.8-.5-1.2-.5-.4-.6-1.1-1.1-1.8-1.1-.1 0-.3 0-.4 0-.4-.8-1.1-1.3-2-1.3-1.1 0-1.9.7-2.2 1.7-.2-1.2-1.2-2.2-2.5-2.2-.7 0-1.3.3-1.8.8-.2-.1-.4-.2-.6-.3-.1-1.1-1-2.1-2.2-2.1-.5.2-1 .4-1.3.6-.3-.1-.6-.2-.9-.2-.2 0-.5 0-.7.2-.3-.8-1.1-1.3-2-1.3-1.2 0-2.2 1-2.2 2.2-.1 1.1.9 2.1 2 2.1.4.6 1 1 1.7 1 .6 0 1.2-.3 1.6-.8.4.5 1 .9 1.7.9.2.9 1 1.5 1.9 1.5.4 0 .7-.1 1-.3.5.5 1.1.8 1.9.8.5 0 1-.1 1.3-.4.2.6.9 1.1 1.6 1.1.6 0 1.1-.3 1.4-.8h.3c.2 0 .4 0 .6-.1.4.7 1.1 1.1 1.9 1.1h.1c.4.5.9.8 1.6.8.5 0 .9-.2 1.2-.4.3.2.7.4 1.1.4.2 0 .3 0 .5-.1.3.6.9.9 1.6.9.4 0 .7-.1 1-.3.2.1.3.1.5.1.7 0 1.2-.5 1.2-1.2-.2-.4-.7-.9-1.3-1z" fill="#39c"/><path d="m28 13.2c-.3-.6-.9-1-1.6-1-.1 0-.2 0-.3 0-.3-.6-.9-1.1-1.7-1.1-.4 0-.7.1-1 .3-.3-.3-.8-.5-1.2-.5-.4-.6-1.1-1.1-1.8-1.1-.1 0-.3 0-.4 0-.4-.8-1.1-1.3-2-1.3-1.1 0-1.9.7-2.2 1.7-.2-1.2-1.2-2.2-2.5-2.2-.7 0-1.3.3-1.8.8-.2-.1-.4-.2-.6-.3-.1-1.1-1-2.1-2.2-2.1-.5.2-1 .4-1.3.6-.3-.1-.6-.2-.9-.2-.2 0-.5 0-.7.2-.3-.8-1.1-1.3-2-1.3-1.2 0-2.2 1-2.2 2.2-.1 1.1.9 2.1 2 2.1.4.6 1 1 1.7 1 .6 0 1.2-.3 1.6-.8.4.5 1 .9 1.7.9.2.9 1 1.5 1.9 1.5.4 0 .7-.1 1-.3.5.5 1.1.8 1.9.8.5 0 1-.1 1.3-.4.2.6.9 1.1 1.6 1.1.6 0 1.1-.3 1.4-.8h.3c.2 0 .4 0 .6-.1.4.7 1.1 1.1 1.9 1.1h.1c.4.5.9.8 1.6.8.5 0 .9-.2 1.2-.4.3.2.7.4 1.1.4.2 0 .3 0 .5-.1.3.6.9.9 1.6.9.4 0 .7-.1 1-.3.2.1.3.1.5.1.7 0 1.2-.5 1.2-1.2-.2-.4-.7-.9-1.3-1z" fill="#fff" opacity=".6"/><path d="m26.4 13.2c-.2 0-.4.1-.6.2-.2-.6-.7-1-1.4-1-.2 0-.5.1-.7.2-.2-.5-.7-.8-1.2-.8-.1 0-.2 0-.2 0-.3-.6-.9-1-1.6-1-.6 0-1.2.3-1.5.8-.2-.1-.4-.1-.6-.1-.2-.9-.9-1.5-1.8-1.5-.3 0-.5.1-.7.1-.2-.4-.7-.7-1.2-.7-.4 0-.7.1-.9.4-.3-.5-.9-.9-1.6-.9-.6 0-1.1.3-1.4.6-.2-.2-.5-.3-.8-.3-.2 0-.3 0-.4.1 0-1-.8-1.8-1.8-1.8-.5.1-.8.3-1.1.5-.3-.2-.5-.4-.9-.4-.1 0-.2 0-.3.1-.2-.4-.6-.6-1.1-.6-.1 0-.1 0-.2 0-.2-.4-.6-.7-1.1-.7-.7 0-1.2.6-1.2 1.2s.4 1 .9 1.2c.1.8.7 1.5 1.6 1.5.4 0 .7-.1.9-.3.2 0 .3.1.5.1h.2c.3.7.9 1.2 1.7 1.2.3 0 .7-.1.9-.3.1.6.7 1.1 1.4 1.1.2 0 .5-.1.7-.2.3.5.9.8 1.5.8.7 0 1.2-.3 1.6-.8.2.2.6.4 1 .4h.1c.2.8.9 1.4 1.8 1.4.2 0 .4 0 .6-.1.2.4.7.7 1.2.7.4 0 .7-.1 1-.4.3.2.7.4 1.1.4s.7-.1 1-.3c.2.2.5.3.9.3.2 0 .3 0 .5-.1.2.6.7 1.1 1.4 1.1.5 0 .9-.2 1.2-.6.2.2.4.4.8.4.5 0 1-.4 1-1-.2-.5-.7-.9-1.2-.9z" fill="#fff"/></svg>