<svg xmlns:xlink="http://www.w3.org/1999/xlink"  enable-background="new 0 0 40 24" height="24" viewBox="0 0 40 24" width="40" xmlns="http://www.w3.org/2000/svg"><path d="m32 24-32-16 4.2-2.1c3.7-1.8 8-1.8 11.7 0l14.5 7.3c1 .5 1.4 1.6 1.1 2.6-1 2.7-.8 5.6.5 8.2z" fill="#39c"/><path d="m31.4 15.8c.3-1-.1-2.1-1.1-2.6l-14.5-7.3c-3.7-1.8-8-1.8-11.7 0l-3.5 1.8c.5.4 1.5.7 3.4.9 3.8.6 5.4 1.6 6.1 2.8s2.3 2.9 6.5 3.3c3.6.4 2.3 1 8.2 4 1.8.9 3.8 1.3 6.1 1.4-.1-1.5 0-2.9.5-4.3z" fill="#fff" opacity=".1"/><path d="m30.3 13.2-14.5-7.3c-3.7-1.8-8-1.8-11.7 0l-.4.3c1.1.4 3 .9 4.3 1.1 4 .6 5.7 1.6 6.4 2.8s2.4 2.9 6.9 3.3c3.8.4 2.4 1 8.7 4 .3.2.7.3 1 .4.1-.7.2-1.3.5-2 .3-1.1-.2-2.2-1.2-2.6z" fill="#fff" opacity=".1"/><path d="m32.1 12.5c-.2-.9-1-1.6-1.9-1.6-.3 0-.5.1-.7.1-.3-.6-.9-1.1-1.6-1.2-.2-1.1-1.2-2-2.4-2-.4 0-.9.1-1.2.3-.1 0-.2-.1-.3-.1-.3-.9-1.1-1.6-2.1-1.6-.2 0-.4 0-.6.1-.4-.7-1.1-1.1-1.9-1.1-.2 0-.5 0-.7.1-.2-.8-1-1.4-1.9-1.4-.4 0-.8.1-1.1.3-.3-.3-.8-.6-1.3-.6-.2 0-.3 0-.5.1-.4-.6-1-.9-1.7-.9-.4 0-.7.1-1 .3-.2-.1-.3-.1-.5-.1-.7 0-1.2.5-1.2 1.2 0 .6.5 1.1 1.1 1.2.3.6.9 1 1.6 1h.3c.3.6.9 1.1 1.7 1.1.3 0 .6-.1.9-.2.4.5.9.8 1.6.8.2 0 .4 0 .5-.1.2 1 1.1 1.7 2.1 1.7h.4c.3.7 1 1.2 1.8 1.3.3.6 1 1.1 1.8 1.1h.2c.4.5 1.1.9 1.8.9.3.9 1.1 1.5 2.1 1.5.4 0 .8-.1 1.1-.3.3.4.8.8 1.3.9.3.5.8.8 1.4.8.9 0 1.7-.8 1.7-1.7 0-1.1-.3-1.6-.8-1.9z" fill="#39c"/><g fill="#fff"><path d="m32.1 12.5c-.2-.9-1-1.6-1.9-1.6-.3 0-.5.1-.7.1-.3-.6-.9-1.1-1.6-1.2-.2-1.1-1.2-2-2.4-2-.4 0-.9.1-1.2.3-.1 0-.2-.1-.3-.1-.3-.9-1.1-1.6-2.1-1.6-.2 0-.4 0-.6.1-.4-.7-1.1-1.1-1.9-1.1-.2 0-.5 0-.7.1-.2-.8-1-1.4-1.9-1.4-.4 0-.8.1-1.1.3-.3-.3-.8-.6-1.3-.6-.2 0-.3 0-.5.1-.4-.6-1-.9-1.7-.9-.4 0-.7.1-1 .3-.2-.1-.3-.1-.5-.1-.7 0-1.2.5-1.2 1.2 0 .6.5 1.1 1.1 1.2.3.6.9 1 1.6 1h.3c.3.6.9 1.1 1.7 1.1.3 0 .6-.1.9-.2.4.5.9.8 1.6.8.2 0 .4 0 .5-.1.2 1 1.1 1.7 2.1 1.7h.4c.3.7 1 1.2 1.8 1.3.3.6 1 1.1 1.8 1.1h.2c.4.5 1.1.9 1.8.9.3.9 1.1 1.5 2.1 1.5.4 0 .8-.1 1.1-.3.3.4.8.8 1.3.9.3.5.8.8 1.4.8.9 0 1.7-.8 1.7-1.7 0-1.1-.3-1.6-.8-1.9z" opacity=".6"/><path d="m32 13.4c0-.1 0-.2 0-.3 0-.8-.6-1.4-1.4-1.4-.1 0-.1 0-.2 0 0-1-.8-1.8-1.8-1.8-.4 0-.7.1-1 .3-.2-.6-.7-1-1.3-1-.2 0-.5.1-.7.2-.2-.7-.9-1.3-1.8-1.3-.4 0-.7.1-1 .3 0-.9-.7-1.5-1.6-1.5-.2 0-.3 0-.4.1-.1-.6-.7-1.1-1.4-1.1-.2 0-.4 0-.5.1-.3-.5-.9-.8-1.5-.8-.4 0-.7.1-1 .3-.1-.6-.6-1-1.2-1-.2 0-.4.1-.6.1-.2-.5-.7-.9-1.3-.9-.4 0-.8.2-1.1.5-.2-.2-.4-.3-.7-.3-.5 0-1 .4-1 1 0 .5.4 1 1 1 .2 0 .3 0 .4-.1.2.5.7.9 1.3.9.3 0 .6-.1.8-.3.4.3.7.6 1.2.6.2 0 .3 0 .5-.1 0 .9.8 1.7 1.7 1.7.4 0 .8-.1 1.1-.4.2.2.6.4.9.4h.2c.1.8.7 1.4 1.6 1.4.3 0 .5-.1.7-.2v.1c0 1 .8 1.8 1.8 1.8.5 0 .9-.2 1.2-.5.2.4.7.7 1.2.7.2 0 .4 0 .5-.1.1 1 .8 1.7 1.8 1.7.3 0 .5-.1.7-.1.2.6.7 1 1.3 1 .1.3.4.5.8.5.5 0 .9-.4.9-.9.2-.2.1-.5-.1-.6z"/></g></svg>