<svg xmlns:xlink="http://www.w3.org/1999/xlink"  enable-background="new 0 0 16 32" height="32" viewBox="0 0 16 32" width="16" xmlns="http://www.w3.org/2000/svg"><path d="m8 22.5-2 1v.5l2 1 2-1v-.5z" fill="#825012"/><path d="m10 24-2 1v-.5l2-1z" opacity=".29"/><path d="m8 25-2-1v-.5l2 1z" opacity=".11"/><path d="m8 3-1 .5v20l1 .5 1-.5v-20z" fill="#825012"/><path d="m9 23.5-1 .5v-20l1-.5z" opacity=".29"/><path d="m8 24-1-.5v-20l1 .5z" opacity=".11"/><path d="m3 3-1 .5v4l11 5.5 3-1.5-2-3z" fill="#825012"/><path d="m13 13-11-5.5v-2-2l11 5.5 2 3z" opacity=".11"/><path d="m13 13 1-.5 2-1-2-3-1 .5 2 3z" opacity=".29"/></svg>