<svg xmlns:xlink="http://www.w3.org/1999/xlink"  enable-background="new 0 0 160 320" height="320" viewBox="0 0 160 320" width="160" xmlns="http://www.w3.org/2000/svg"><circle cx="44.7" cy="37.4" fill="#e5e5e5" r="3.4"/><path d="m45.6 38.5 4.8 6 12.6 3.5" fill="none" stroke="#999" stroke-linecap="round" stroke-miterlimit="10" stroke-width="2"/><path d="m50 60.2c-2.2 0-4 .9-4 2v12c0 1.1 1.8 2 4 2s4-.9 4-2v-12c0-1.1-1.8-2-4-2z" fill="#e5e5e5"/><path d="m50 64.2c-2.2 0-4-.9-4-2v12c0 1.1 1.8 2 4 2s4-.9 4-2v-12c0 1.1-1.8 2-4 2z" opacity=".2"/><path d="m50 40.7c-1.1 0-2 .4-2 1v20.5c0 .6.9 1 2 1s2-.4 2-1v-20.5c0-.6-.9-1-2-1z" fill="#e5e5e5"/><path d="m50 42.7c-1.1 0-2-.4-2-1v20.5c0 .6.9 1 2 1s2-.4 2-1v-20.5c0 .5-.9 1-2 1z" opacity=".2"/><path d="m102 126c-2.2 0-4 .9-4 2v8c0 1.1 1.8 2 4 2s4-.9 4-2v-8c0-1.1-1.8-2-4-2z" fill="#e5e5e5"/><path d="m102 130c-2.2 0-4-.9-4-2v8c0 1.1 1.8 2 4 2s4-.9 4-2v-8c0 1.1-1.8 2-4 2z" opacity=".2"/><path d="m80 79.4c-1.7 0-3 .7-3 1.5v229.1c0 .8 1.3 1.5 3 1.5s3-.7 3-1.5v-229.1c0-.9-1.3-1.5-3-1.5z" fill="#656565"/><path d="m80 82.4c-1.7 0-3-.7-3-1.5v229.1c0 .8 1.3 1.5 3 1.5s3-.7 3-1.5v-229.1c0 .8-1.3 1.5-3 1.5z" opacity=".2"/><path d="m54 65.2-4 2v2l54 27 4-2v-2z" fill="#999"/><path d="m104 94.2-54-27v2l54 27z" opacity=".11"/><path d="m104 94.2v2l4-2v-2z" opacity=".29"/><path d="m98 130 4 2v2l-20 10-4-2v-2z" fill="#999"/><path d="m82 142 20-10v2l-20 10z" opacity=".29"/><path d="m82 142v2l-4-2v-2z" opacity=".11"/><path d="m69 150 12 6v17l-6 3-12-6v-17z" fill="#e5e5e5"/><path d="m75 159 6-3v17l-6 3z" opacity=".29"/><path d="m75 159v17l-12-6v-17z" opacity=".11"/><path d="m99 137.1-40.3-20.1-7.1 25.9 1.3 1.5 40.3 20.2 7.1-25.9z" fill="#999"/><path d="m99 137.1-7.1 25.9-40.3-20.1 1.3 1.5 40.3 20.2 7.1-25.9z" opacity=".2"/><g fill="#36c"><path d="m77.2 129.5-1.2 4.5c-.1.4-.5.6-.9.4l-6.2-3.1c-.7-.3-1.2-1.4-1-2.1l1.2-4.5c.1-.4.5-.6.9-.4l6.2 3.1c.7.3 1.2 1.4 1 2.1z"/><path d="m58.2 127.8 5.7 2.8c.7.3 1.2 1.4 1 2.1l-1.2 4.3c-.1.4-.5.6-.9.4l-5.7-2.8c-.7-.3-1.2-1.4-1-2.1l1.2-4.3c.1-.5.4-.6.9-.4z"/><path d="m92.4 152.2-5.7-2.8c-.7-.3-1.2-1.4-1-2.1l1.2-4.3c.1-.4.5-.6.9-.4l5.7 2.8c.7.3 1.2 1.4 1 2.1l-1.2 4.3c-.1.5-.4.6-.9.4z"/><path d="m77.8 137.6 6.2 3.1c.7.3 1.2 1.4 1 2.1l-1.2 4.3c-.1.4-.5.6-.9.4l-6.2-3.1c-.7-.3-1.2-1.4-1-2.1l1.2-4.3c0-.5.4-.7.9-.4z"/><path d="m72.8 142.4-6.2-3.1c-.7-.3-1.2-1.4-1-2.1l1.2-4.3c.1-.4.5-.6.9-.4l6.2 3.1c.7.3 1.2 1.4 1 2.1l-1.2 4.3c0 .5-.4.7-.9.4z"/><path d="m85.1 139.4-6.2-3.1c-.7-.3-1.2-1.4-1-2.1l1.2-4.5c.1-.4.5-.6.9-.4l6.2 3.1c.7.3 1.2 1.4 1 2.1l-1.2 4.5c0 .5-.4.6-.9.4z"/><path d="m73.4 150.5 1.2-4.4c.1-.4.5-.6.9-.4l6.2 3.1c.7.3 1.2 1.4 1 2.1l-1.2 4.4c-.1.4-.5.6-.9.4l-6.2-3.1c-.7-.3-1.2-1.4-1-2.1z"/><path d="m65 129.3-5.7-2.8c-.7-.3-1.2-1.4-1-2.1l1.2-4.5c.1-.4.5-.6.9-.4l5.7 2.8c.7.3 1.2 1.4 1 2.1l-1.2 4.5c-.1.5-.5.6-.9.4z"/><path d="m85.6 150.7 5.7 2.8c.7.3 1.2 1.4 1 2.1l-1.2 4.4c-.1.4-.5.6-.9.4l-5.7-2.8c-.7-.3-1.2-1.4-1-2.1l1.2-4.4c.1-.5.5-.6.9-.4z"/><path d="m87.9 139.2 1.2-4.5c.1-.4.5-.6.9-.4l5.7 2.8c.7.3 1.2 1.4 1 2.1l-1.2 4.5c-.1.4-.5.6-.9.4l-5.7-2.8c-.6-.3-1.1-1.4-1-2.1z"/><path d="m65.5 140.6 6.2 3.1c.7.3 1.2 1.4 1 2.1l-1.2 4.4c-.1.4-.5.6-.9.4l-6.2-3.1c-.7-.3-1.2-1.4-1-2.1l1.2-4.5c.1-.4.4-.5.9-.3z"/><path d="m56 135.9 5.7 2.8c.7.3 1.2 1.4 1 2.1l-1.2 4.5c-.1.4-.5.6-.9.4l-5.7-2.8c-.7-.3-1.2-1.4-1-2.1l1.2-4.5c.1-.5.4-.7.9-.4z"/></g><path d="m102 108c-4.4 0-8 1.8-8 4v16c0 2.2 3.6 4 8 4s8-1.8 8-4v-16c0-2.2-3.6-4-8-4z" fill="#e5e5e5"/><path d="m102 116c-4.4 0-8-1.8-8-4v16c0 2.2 3.6 4 8 4s8-1.8 8-4v-16c0 2.2-3.6 4-8 4z" opacity=".2"/><path d="m102 129c-4.4 0-8-1.8-8-4v1c0 2.2 3.6 4 8 4s8-1.8 8-4v-1c0 2.2-3.6 4-8 4z" opacity=".2"/><path d="m102 126c-4.4 0-8-1.8-8-4v1c0 2.2 3.6 4 8 4s8-1.8 8-4v-1c0 2.2-3.6 4-8 4z" opacity=".2"/><path d="m102 123c-4.4 0-8-1.8-8-4v1c0 2.2 3.6 4 8 4s8-1.8 8-4v-1c0 2.2-3.6 4-8 4z" opacity=".2"/><path d="m102 120c-4.4 0-8-1.8-8-4v1c0 2.2 3.6 4 8 4s8-1.8 8-4v-1c0 2.2-3.6 4-8 4z" opacity=".2"/><path d="m102 117c-4.4 0-8-1.8-8-4v1c0 2.2 3.6 4 8 4s8-1.8 8-4v-1c0 2.2-3.6 4-8 4z" opacity=".2"/><path d="m107 88.7c-2.2 0-4 .9-4 2v12c0 1.1 1.8 2 4 2s4-.9 4-2v-12c0-1.1-1.8-2-4-2z" fill="#e5e5e5"/><path d="m107 92.7c-2.2 0-4-.9-4-2v12c0 1.1 1.8 2 4 2s4-.9 4-2v-12c0 1.1-1.8 2-4 2z" opacity=".2"/><path d="m107 69.2c-1.1 0-2 .4-2 1v20.5c0 .6.9 1 2 1s2-.4 2-1v-20.5c0-.6-.9-1-2-1z" fill="#e5e5e5"/><path d="m107 71.2c-1.1 0-2-.4-2-1v20.5c0 .6.9 1 2 1s2-.4 2-1v-20.5c0 .5-.9 1-2 1z" opacity=".2"/><path d="m80 77c-1.1 0-2 .4-2 1v2c0 .5.9 1 2 1s2-.4 2-1v-2c0-.6-.9-1-2-1z" fill="#999"/><path d="m80 79c-1.1 0-2-.4-2-1v2c0 .5.9 1 2 1s2-.4 2-1v-2c0 .5-.9 1-2 1z" opacity=".2"/><path d="m92 77.6 29-14.4" fill="none" stroke="#999" stroke-linecap="round" stroke-miterlimit="10" stroke-width="2"/><path d="m110 68.2 11-5.5v-16.5l-4.5 2.3c-2 1-3.4 2.9-3.8 5.1z" fill="#e5e5e5"/><path d="m96.9 72.9c-.6-.3-1.1-.4-1.6-.2l-3.7 2c-1.6.7-2.1 2.7-1.2 4.1.8 1.2 2.3 1.7 3.7 1.1.7-.3 4.4-2.3 4.4-2.3.4-.2.6-.6.6-1.2 0-1.3-.9-2.9-2.2-3.5z" fill="#e5e5e5"/><path d="m48.9 45.4-8.4 5.6" fill="none" stroke="#999" stroke-linecap="round" stroke-miterlimit="10" stroke-width="2"/><path d="m40.3 48.5c-.7-.4-1.4-.4-1.8-.2l-.6.4c-1.8.9-2.5 3.2-1.3 4.9.9 1.4 2.8 2 4.3 1.2.8-.4 1.4-.8 1.5-.8.4-.3.7-.8.7-1.5-.1-1.4-1.3-3.2-2.8-4z" fill="#e5e5e5"/><path d="m59.6 49.4c.2.8.6 1.3 1.1 1.5l.7.2c1.9.8 4-.3 4.6-2.2.5-1.6-.4-3.4-1.9-4-.9-.4-1.5-.5-1.6-.6-.5-.2-1 0-1.6.4-1.2.9-1.8 3-1.3 4.7z" fill="#e5e5e5"/><path d="m80 67c-.6 0-1 .2-1 .5v10.3c0 .3.4.5 1 .5s1-.2 1-.5v-10.3c0-.3-.4-.5-1-.5z" fill="#999"/><path d="m80 68c-.6 0-1-.2-1-.5v10.3c0 .3.4.5 1 .5s1-.2 1-.5v-10.3c0 .3-.4.5-1 .5z" opacity=".2"/></svg>