<svg xmlns:xlink="http://www.w3.org/1999/xlink"  enable-background="new 0 0 20 40" height="40" viewBox="0 0 20 40" width="20" xmlns="http://www.w3.org/2000/svg"><path d="m10 27c3.3 0 6 1.3 6 3v1c0 1.7-2.7 3-6 3s-6-1.3-6-3v-1c0-1.7 2.7-3 6-3z" fill="#2d3134"/><path d="m10 33c3.3 0 6-1.3 6-3v1c0 1.7-2.7 3-6 3s-6-1.3-6-3v-1c0 1.7 2.7 3 6 3z" opacity=".2"/><path d="m10 24c1.1 0 2 .4 2 1v5c0 .6-.9 1-2 1s-2-.4-2-1v-5c0-.6.9-1 2-1z" fill="#2d3134"/><path d="m10 26c1.1 0 2-.4 2-1v5c0 .6-.9 1-2 1s-2-.4-2-1v-5c0 .6.9 1 2 1z" opacity=".2"/><circle cx="10" cy="20" fill="#999" r="9"/><path d="m6.2 18.4c-1.1-.5-2.1-.6-2.8-.3l-1.9.9c-.8.4-1.3 1.2-1.3 2.3 0 2.3 1.8 5 4.1 6.1 1.1.6 2.1.6 2.9.3 0 0 1.8-.8 2-.9.7-.4 1.1-1.2 1.1-2.2 0-2.3-1.9-5.1-4.1-6.2z" fill="#2d3134"/><path d="m7.3 27.7c.3-.1 1.8-.8 1.9-.9.7-.4 1.1-1.2 1.1-2.2 0-.9-.3-1.9-.8-2.8l-1.8.8c.5.9.8 1.9.8 2.8-.1 1.1-.5 1.9-1.2 2.3z" opacity=".29"/><path d="m7.4 24.9c0 1.7-1.4 2.4-3.1 1.5s-3.1-2.9-3.1-4.6 1.4-2.4 3.1-1.5c1.7.8 3.1 2.9 3.1 4.6z" opacity=".3"/><path d="m4.4 20.3c-.2-.1-.4-.2-.6-.3-.6.2-1 .8-1 1.6 0 1.5 1.2 3.4 2.8 4.1.6.3 1.2.4 1.7.3.2-.3.3-.7.3-1.2-.2-1.6-1.6-3.7-3.2-4.5z" fill="#36c"/><path d="m5 22.4c0 .5-.4.7-.9.4-.5-.2-.9-.8-.9-1.3s.4-.7.9-.4c.5.2.9.8.9 1.3z" fill="#fff" opacity=".3"/><path d="m8.4 25.4c0 2.3-1.8 3.2-4.1 2s-4.1-3.9-4.1-6.1 1.8-3.2 4.1-2c2.3 1.1 4.1 3.8 4.1 6.1z" opacity=".11"/></svg>