<svg xmlns:xlink="http://www.w3.org/1999/xlink"  enable-background="new 0 0 32 40" height="40" viewBox="0 0 32 40" width="32" xmlns="http://www.w3.org/2000/svg"><path d="m2.1 17.1 17.3-9 4.7-4.7-16.5 8.2z" fill="#762c07"/><path d="m2.1 17.1 17.3-9 4.7-4.7-16.5 8.2z" opacity=".39"/><path d="m24 10.8-1.5.7v20.3l1.5.7 1.5-.7v-20.3z" fill="#baa794"/><path d="m25.5 31.8-1.5.7v-20.2l1.5-.8z" opacity=".29"/><path d="m22.5 31.8 1.5.7v-20.2l-1.5-.8z" opacity=".11"/><path d="m16 24c-4.4 0-8 1.8-8 4v8c0 2.2 3.6 4 8 4s8-1.8 8-4v-8c0-2.2-3.6-4-8-4z" fill="#f8ebcb"/><path d="m16 32c-4.4 0-8-1.8-8-4v8c0 2.2 3.6 4 8 4s8-1.8 8-4v-8c0 2.2-3.6 4-8 4z" opacity=".2"/><path d="m16 34c-4.4 0-8-1.8-8-4v1c0 2.2 3.6 4 8 4s8-1.8 8-4v-1c0 2.2-3.6 4-8 4z" opacity=".2"/><ellipse cx="16" cy="28" opacity=".4" rx="7" ry="3.3"/><path d="m16 26.5c-3.2 0-5.9 1-6.7 2.4.1.2.2.3.4.5 1.1-1.1 3.5-1.9 6.3-1.9s5.2.8 6.3 1.9c.2-.2.3-.3.4-.5-.8-1.4-3.5-2.4-6.7-2.4z" opacity=".1"/><path d="m16.5 21.9h-.5v9.3h.5z" fill="#2d3134"/><path d="m23.1 18.5c-.2-.1-.3-.1-.4 0l-14.6 7.3c-.1 0-.2.2-.2.3 0 .3.3.7.6.9.2.1.3.1.4 0 0 0 14.6-7.4 14.7-7.4.1-.1.2-.2.2-.3-.1-.3-.3-.7-.7-.8z" fill="#baa794"/><path d="m16 21.9c-.2-.1-.3-.1-.4 0l-1.6.8h.4c.4.2.6.6.6 1 0 .2-.1.3-.2.3 0 0 1.6-.8 1.6-.8.1-.1.2-.2.2-.3 0-.3-.2-.8-.6-1z" fill="#2d3134"/><path d="m8.9 27s14.6-7.4 14.6-7.4c.1-.1.2-.2.2-.3s0-.3-.1-.4l-14.6 7.4c.1.1.1.3.1.4 0 .2-.1.3-.2.3z" opacity=".29"/><path d="m9.1 26.7c0 .3-.3.5-.6.3s-.6-.6-.6-.9.3-.5.6-.3.6.6.6.9z" opacity=".11"/><path d="m9 18-1.5.8v20.2l1.5.8 1.5-.8v-20.2z" fill="#baa794"/><path d="m10.5 39-1.5.8v-20.3l1.5-.7z" opacity=".29"/><path d="m7.5 39 1.5.8v-20.3l-1.5-.7z" opacity=".11"/><path d="m4.5 15-1.5.8-.5 1.2 10.5 5.3 1.5-.8v-1.5z" fill="#baa794"/><path d="m14.5 21.5-1.5.8v-1.5l1.5-.8z" opacity=".29"/><path d="m2.5 17 10.5 5.3v-1.5l-10-5z" opacity=".11"/><path d="m23.9 2.4-16.5 8.3 5.5 11v.8l16.5-8.3v-.8z" fill="#762c07"/><path d="m12.9 21.7 16.5-8.3v.8l-16.5 8.3z" opacity=".39"/><path d="m7.4 10.7-5.5 5.5v.8l.3.1 4.8-4.9 4.9 9.7 1 .6v-.8z" fill="#762c07"/><path d="m7.4 10.7-5.5 5.5v.8l.3.1 4.8-4.9 4.9 9.7 1 .6v-.8z" opacity=".06"/><path d="m5 30.9c-.1 0-.3-.1-.3-.2-.1-.2 0-.4.2-.5l1.4-.7v-2.2c0-.1.1-.3.2-.3l1.6-.8c.2-.1.4 0 .5.2s0 .4-.2.5l-1.4.6v2.2c0 .1-.1.3-.2.3l-1.6.8c-.1.1-.1.1-.2.1z" fill="#2d3134"/></svg>