<svg xmlns:xlink="http://www.w3.org/1999/xlink"  enable-background="new 0 0 40 96" height="96" viewBox="0 0 40 96" width="40" xmlns="http://www.w3.org/2000/svg"><path d="m20 78-14.5 7.3-.5-.3v-.5l14.5-7.2.5.2z" fill="#baa794"/><path d="m20 78-14.5 7.3v-.6l14.5-7.2z" opacity=".29"/><path d="m20 78 14.5 7.3.5-.3v-.5l-14.5-7.2-.5.2z" fill="#baa794"/><path d="m20 78 14.5 7.3v-.6l-14.5-7.2z" opacity=".11"/><path d="m20 61.8-14.5 22.8-.5-.2v-.5l14.5-22.9.5.2z" fill="#baa794"/><path d="m20 61.8-14.5 22.8v-.5l14.5-22.9z" opacity=".29"/><path d="m20 61.8 14.5 22.8.5-.2v-.5l-14.5-22.9-.5.2z" fill="#baa794"/><path d="m20 61.8 14.5 22.8v-.5l-14.5-22.9z" opacity=".11"/><path d="m20 61.8-10.3 5.1-.4-.3v-.5l10.2-5.1.5.2z" fill="#baa794"/><path d="m20 61.8-10.3 5.1v-.5l10.3-5.2z" opacity=".29"/><path d="m20 61.8 10.3 5.1.5-.3v-.5l-10.3-5.1-.5.2z" fill="#baa794"/><path d="m20 61.8 10.3 5.1v-.5l-10.3-5.2z" opacity=".11"/><path d="m20 50.6-9.8 15.6-.4-.3v-.5l9.7-15.5.5.2z" fill="#baa794"/><path d="m20 50.6-9.8 15.6v-.5l9.8-15.6z" opacity=".29"/><path d="m20 50.6 9.8 15.6.5-.3v-.5l-9.8-15.5-.5.2z" fill="#baa794"/><path d="m20 50.6 9.8 15.6v-.5l-9.8-15.6z" opacity=".11"/><path d="m20 50.6-6.8 3.4-.4-.2v-.6l6.7-3.3.5.2z" fill="#baa794"/><path d="m20 50.6-6.8 3.4v-.5l6.8-3.4z" opacity=".29"/><path d="m20 50.6 6.8 3.4.5-.2v-.6l-6.8-3.3-.5.2z" fill="#baa794"/><path d="m20 50.6 6.8 3.4v-.5l-6.8-3.4z" opacity=".11"/><path d="m20 41.6-6.8 12-.4-.3v-.5l6.7-11.9.5.2z" fill="#baa794"/><path d="m20 41.6-6.8 12v-.5l6.8-12z" opacity=".29"/><path d="m20 41.6 6.8 12 .5-.3v-.5l-6.8-11.9-.5.2z" fill="#baa794"/><path d="m20 41.6 6.8 12v-.5l-6.8-12z" opacity=".11"/><path d="m20 41.6-4.3 2.2-.4-.3v-.5l4.2-2.1.5.2z" fill="#baa794"/><path d="m20 41.6-4.3 2.2v-.6l4.3-2.1z" opacity=".29"/><path d="m20 41.6 4.3 2.2.5-.3v-.5l-4.3-2.1-.5.2z" fill="#baa794"/><path d="m20 41.6 4.3 2.2v-.6l-4.3-2.1z" opacity=".11"/><path d="m24 33.7-9 4.6-3-1.6v-1l9-4.5 3 1.5z" fill="#baa794"/><path d="m24 33.7-9 4.6v-1.1l9-4.5z" opacity=".29"/><path d="m12 35.7v1l3 1.6v-1.1z" opacity=".11"/><path d="m31 37.3-3 1.5-7-3.5v-1.1l3-1.4 7 3.4z" fill="#baa794"/><path d="m31 37.3-3 1.5v-1.1l3-1.5z" opacity=".29"/><path d="m21 34.2v1l7 3.6v-1.1z" opacity=".11"/><path d="m20 39.5c-.6 0-1 .2-1 .5v46.8c0 .3.4.5 1 .5s1-.2 1-.5v-46.8c0-.3-.4-.5-1-.5z" fill="#999"/><path d="m20 40.5c-.6 0-1-.2-1-.5v46.8c0 .3.4.5 1 .5s1-.2 1-.5v-46.8c0 .3-.4.5-1 .5z" opacity=".2"/><path d="m35.3 87.8.5.2.5-.2-15.8-63.5-.5-.3-.5.3z" fill="#baa794"/><path d="m35.3 87.8.5.2-15.8-63.5-.5-.2z" opacity=".11"/><path d="m35.8 88 .5-.2-15.8-63.5-.5.2z" opacity=".29"/><path d="m3.8 87.8.4.2.5-.2 15.8-63.6-.5-.2-.5.2z" fill="#baa794"/><path d="m3.8 87.8.4.2 15.8-63.5-.5-.3z" opacity=".11"/><path d="m4.2 88 .5-.2 15.8-63.6-.5.3z" opacity=".29"/><path d="m35 85.5-14.5 7.3-.5-.3v-.5l14.5-7.2.5.2z" fill="#baa794"/><path d="m35 85.5-14.5 7.3v-.6l14.5-7.2z" opacity=".29"/><path d="m5 85.5 14.5 7.3.5-.3v-.5l-14.5-7.2-.5.2z" fill="#baa794"/><path d="m5 85.5 14.5 7.3v-.6l-14.5-7.2z" opacity=".11"/><path d="m30.8 67.1-10.3 25.2-.5-.3v-.5l10.3-25.2.5.3z" fill="#baa794"/><path d="m30.8 67.1-10.3 25.2v-.5l10.3-25.2z" opacity=".29"/><path d="m9.3 67.1 10.2 25.2.5-.3v-.5l-10.3-25.2-.4.3z" fill="#baa794"/><path d="m9.3 67.1 10.2 25.2v-.5l-10.2-25.2z" opacity=".11"/><path d="m30.8 67.1-10.3 5.1-.5-.3v-.5l10.3-5.1.5.3z" fill="#baa794"/><path d="m30.8 67.1-10.3 5.1v-.5l10.3-5.1z" opacity=".29"/><path d="m9.3 67.1 10.2 5.1.5-.3v-.5l-10.3-5.1-.4.3z" fill="#baa794"/><path d="m9.3 67.1 10.2 5.1v-.5l-10.2-5.1z" opacity=".11"/><path d="m27.3 54.3-6.8 17.4-.5-.2v-.5l6.8-17.4.5.2z" fill="#baa794"/><path d="m27.3 54.3-6.8 17.4v-.5l6.8-17.4z" opacity=".29"/><path d="m12.8 54.3 6.7 17.4.5-.2v-.5l-6.8-17.4-.4.2z" fill="#baa794"/><path d="m12.8 54.3 6.7 17.4v-.5l-6.7-17.4z" opacity=".11"/><path d="m27.3 54.3-6.8 3.4-.5-.3v-.5l6.8-3.3.5.2z" fill="#baa794"/><path d="m27.3 54.3-6.8 3.4v-.5l6.8-3.4z" opacity=".29"/><path d="m12.8 54.3 6.7 3.4.5-.3v-.5l-6.8-3.3-.4.2z" fill="#baa794"/><path d="m12.8 54.3 6.7 3.4v-.5l-6.7-3.4z" opacity=".11"/><path d="m24.8 43.9-4.3 13.2-.5-.2v-.5l4.3-13.2.5.2z" fill="#baa794"/><path d="m24.8 43.9-4.3 13.2v-.5l4.3-13.2z" opacity=".29"/><path d="m15.3 43.9 4.2 13.2.5-.2v-.5l-4.3-13.2-.4.2z" fill="#baa794"/><path d="m15.3 43.9 4.2 13.2v-.5l-4.2-13.2z" opacity=".11"/><path d="m24.8 43.9-4.3 2.2-.5-.3v-.5l4.3-2.1.5.2z" fill="#baa794"/><path d="m24.8 43.9-4.3 2.2v-.5l4.3-2.2z" opacity=".29"/><path d="m15.3 43.9 4.2 2.2.5-.3v-.5l-4.3-2.1-.4.2z" fill="#baa794"/><path d="m15.3 43.9 4.2 2.2v-.5l-4.2-2.2z" opacity=".11"/><path d="m19.5 95.8.5.2.5-.2v-72l-.5-.3-.5.3z" fill="#baa794"/><path d="m19.5 95.8.5.2v-72l-.5-.2z" opacity=".11"/><path d="m20 96 .5-.2v-72l-.5.2z" opacity=".29"/><path d="m28 20 2-5 8-4-2 5 2 3-8 4z" fill="#999"/><path d="m20 24.4c-.1 0-.3-.1-.3-.2-.1-.2 0-.4.2-.5l16-8c.2-.1.4 0 .5.2s0 .4-.2.5l-16 8c-.1 0-.1 0-.2 0z" fill="#999"/><path d="m20 24.4c-.1 0-.3-.1-.3-.2-.1-.2 0-.4.2-.5l16-8c.2-.1.4 0 .5.2s0 .4-.2.5l-16 8c-.1 0-.1 0-.2 0z" opacity=".29"/><path d="m31 37.3-9 4.5-3-1.5v-1.1l9-4.4 3 1.4z" fill="#baa794"/><path d="m31 37.3-9 4.5v-1l9-4.6z" opacity=".29"/><path d="m19 39.3v1l3 1.5v-1z" opacity=".11"/><path d="m21.6 21.9c-.3-.2-.6-.2-.8-.1l-3.7 1.9c-.2.1-.4.3-.4.7 0 .6.5 1.4 1.1 1.7.3.2.6.2.8.1 0 0 3.7-1.9 3.8-1.9.2-.1.3-.3.3-.6.1-.7-.5-1.5-1.1-1.8z" fill="#999"/><path d="m18.7 26.1c.1 0 3.7-1.9 3.7-1.9.2-.1.3-.3.3-.6s-.1-.5-.2-.8l-3.7 1.9c.1.3.2.5.2.8s-.1.5-.3.6z" opacity=".29"/><path d="m19 25.5c0 .6-.5.9-1.1.6s-1.1-1.1-1.1-1.7.5-.9 1.1-.6 1.1 1 1.1 1.7z" opacity=".11"/><path d="m17.7 19.6-2.9-8.9c-1.3-.2-2.4-.1-3.4.3l5 8.8c.4-.3.8-.3 1.3-.2zm-2.7 2.4c0-.3 0-.5.1-.7l-7.9-5.2c-.1.6-.2 1.2-.2 1.9s.1 1.4.2 2.1l7.9 2.7c-.1-.3-.1-.5-.1-.8zm1-2.1-6.3-8.1c-.8.6-1.5 1.4-2 2.4l7.5 6.6c.2-.4.5-.7.8-.9zm6.8 4.7 7.5.8c-.5-1.5-1.1-3-2-4.4l-6.3 1.9c.3.5.6 1.1.8 1.7zm-3.8-4.6c.3.1.5.3.8.5l1.2-7.3c-.6-.4-1.3-.8-2-1.2-.7-.3-1.3-.6-2-.8l1.2 8.5c.3.1.5.2.8.3zm2.6 2.3 5-3.7c-1-1.3-2.2-2.6-3.4-3.7l-2.9 6c.5.4.9.9 1.3 1.4zm-2.6 5.7c-.3-.1-.5-.3-.8-.5l-1.2 7.3c.6.4 1.3.8 2 1.2.7.3 1.3.6 2 .8l-1.2-8.5c-.3-.1-.5-.2-.8-.3zm-3.8-4.6-7.5-.8c.5 1.5 1.1 3 2 4.4l6.3-1.9c-.3-.5-.6-1.1-.8-1.7zm6.8 4.7 6.3 8.1c.8-.6 1.5-1.4 2-2.4l-7.5-6.6c-.2.4-.5.7-.8.9zm8.8-.2-7.9-2.7c0 .3.1.5.1.8s0 .5-.1.7l7.9 5.2c.1-.6.2-1.2.2-1.9s-.1-1.4-.2-2.1zm-14.4-2.2-5 3.7c1 1.3 2.2 2.6 3.4 3.7l2.9-6c-.5-.4-.9-.9-1.3-1.4zm3.9 2.7 2.9 8.9c1.3.2 2.4.1 3.4-.3l-5-8.8c-.4.3-.8.3-1.3.2z" fill="#656565"/><path d="m19 20c-2.2-1.1-4-.2-4 2s1.8 4.9 4 6 4 .2 4-2-1.8-4.9-4-6zm0 7.6c-2-1-3.6-3.4-3.6-5.4s1.6-2.8 3.6-1.8 3.6 3.4 3.6 5.4-1.6 2.8-3.6 1.8z" fill="#656565"/><path d="m19 20c-2.2-1.1-4-.2-4 2s1.8 4.9 4 6 4 .2 4-2-1.8-4.9-4-6zm0 7.6c-2-1-3.6-3.4-3.6-5.4s1.6-2.8 3.6-1.8 3.6 3.4 3.6 5.4-1.6 2.8-3.6 1.8z" opacity=".11"/></svg>