<svg xmlns:xlink="http://www.w3.org/1999/xlink"  enable-background="new 0 0 96 56" height="56" viewBox="0 0 96 56" width="96" xmlns="http://www.w3.org/2000/svg"><g fill="#39c"><path d="m6 34.6s7-6.5 20.6-4.3c15.6 2.6 28.2-.8 29.8-12.5 1.7-13.1-11.8-18.1-19.1-11.4s-3.3 14.3.6 15.8c4.9 2 9.6.5 10.8-3.1 1.3-3.8-2.6-7.5-7-3.5 1.2-5.6 5.8-5.8 8.1-4.8 2.7 1.2 5.6 6.8 1.1 12.2-5.9 6.9-21.9 3.7-22.2-7.8-.5-18.1 30.4-21.5 32.6-2.2 1.9 15.8-14.9 23.8-29.5 21.1-11.5-2.2-18.6-2.8-25.8.5z" opacity=".15"/><path d="m2 42.6s20-13.8 43.6-.3c23.5 13.5 43.6 3.3 42.3-9.4-1.5-14.5-18.6-15.2-21.6-5.2-2.2 7.4 6.3 11 10.6 10.2-7 3.3-16.3-3.2-13.8-13 3.1-12.1 20.2-13.6 28.1-1 10.6 16.8-8.9 39.3-35.6 29.9-23.1-8.1-23.2-20.4-53.6-11.2z" opacity=".2"/></g></svg>