<svg xmlns:xlink="http://www.w3.org/1999/xlink"  enable-background="new 0 0 96 56" height="56" viewBox="0 0 96 56" width="96" xmlns="http://www.w3.org/2000/svg"><g fill="#39c"><path d="m3 55s13-48.1 61.8-43.7c33.9 3.1 31.5 22.6 26.1 28.6-9 9.8-25.2 9.8-25.2 9.8s17.7-3.3 21.6-14.3c3.9-11.1-14.4-19.6-31.7-18.4-36.6 2.3-52.6 38-52.6 38z" opacity=".2"/><path d="m10.6 49s14.3-23 34.5-27.1c23.1-4.7 35.2 5.1 35.2 5.1s-19.2-4.1-38.5 1.2c-19.1 5.2-31.2 20.8-31.2 20.8z" opacity=".15"/><path d="m31.7 38s19.4 7.6 34.4 1.8c17.8-6.8 23-20.6 19.7-32.7-1-3.6-2.9-6.6-7.2-6.7-5.5-.1-8.8 3.5-8.8 3.5s10.5-6.4 12.4 3.9c2.2 12.5-7.7 26-23 30.2-14.3 4-27.5 0-27.5 0z" opacity=".15"/><path d="m37 35.3s14.6 4.7 28.3-4.4c13.6-9.1 9.8-23.3 9.8-23.3s-2.5 14.6-13.8 21c-14.9 8.4-24.3 6.7-24.3 6.7z" opacity=".1"/></g></svg>