<svg xmlns:xlink="http://www.w3.org/1999/xlink"  enable-background="new 0 0 160 240" height="240" viewBox="0 0 160 240" width="160" xmlns="http://www.w3.org/2000/svg"><path d="m119.9 219.4c16.3-7.5 51.2-20.5 28.7-36.3-21-14.7-52.3 2.3-68.3 9.6-23.5 10.6-47.4 25.6-34 35.1 13.6 9.9 43 5.8 73.6-8.4z" opacity=".2"/><path d="m119.2 145.7c2.1 4.6 6.2 12.1 7 16.8.7 4.6.5 19.8-2 23.9s-7.3 10.3-2.7 10.9 7.8-1.2 7.8-3.2 2-7 3.4-8.9c1.4-2 .2-3.9.2-6.2s.7-15.9 1.4-19.3 2-5.3 0-9.1c-2-3.7-2.7-16.4-2.7-16.4z" fill="#e5e5e5"/><path d="m128.4 164.8c-2.1.5 2 .8 5.2 1.1.1-1.1.2-2.1.3-3-2 .7-4.3 1.6-5.5 1.9z" fill="#2d3134"/><path d="m126.1 162.4c0 .3.1.7.1 1.1 5.3-2.3 8.8-9.6 8.8-9.6-3.1 3.5-6.5 5.4-9.4 6.5.3.7.4 1.4.5 2z" fill="#2d3134"/><path d="m122.6 152.8c.4.9.9 1.9 1.3 2.8 3.8-1.2 5.6-3.6 5.6-3.6s-3.8.9-6.9.8z" fill="#2d3134"/><path d="m119.2 145.7c2.1 4.6 6.2 12.1 7 16.8.7 4.6.5 19.8-2 23.9s-7.3 10.3-2.7 10.9 7.8-1.2 7.8-3.2 2-7 3.4-8.9c1.4-2 .2-3.9.2-6.2s.7-15.9 1.4-19.3 2-5.3 0-9.1c-2-3.7-2.7-16.4-2.7-16.4z" opacity=".15"/><path d="m150.2 116.9c2.3 13.5.5 23 2.5 28s-.6 11.9-.6 11.9-6.8-8.9-5.7-19.3 3.8-20.6 3.8-20.6z" fill="#2d3134"/><path d="m33.3 74.1c-4.9.2-7.1.7-10 3s-9.7 7.6-9.8 10.2c-.2 2.5.5 3.7 0 5.3-.5 1.5-10.7 18-9.5 23.5s5.6 12.2 11.5 9.7 6.3-6.1 9.7-8.1 9.5-5.4 9.5-5.4 8.6 23.6 9.7 26.9c1.1 3.2 7.5 20.1 8.7 27.1s5.2 35.7 3.2 40.6c-2 5-7 10.9-4.8 12.5 2.1 1.6 10.2.9 11.2-2.9 1.1-3.7.2-7.3 1.2-8.9s1.4-4.8.7-7c-.7-2.1 2.1-34.9 2.1-34.9s6.8 24.8 7.3 31.4.2 16.8-1.4 19.6-6.6 8.6-2.7 10 9.6-1.1 10.3-3.6.9-7.1.9-8.2 2.1-2.7 2-4.8c-.2-2.1-1.1-8.4-.5-16.2s3.4-36.4 3.4-36.4 15 1.8 29.2-6.8c13-7.8 15.5-10.3 15.5-10.3s9.4 14.6 10.9 21.2c1.4 6.6 1.4 25.1-1.2 29.8-2.7 4.6-7.1 10.7-3 11.9s8.9-.9 8.9-3 1.4-7.1 2.9-8.7c1.4-1.6.4-6.1.4-8.2s1-14.1 2.1-17.5c1-3 1.8-6.1.3-9.3-1.4-3.2-2.8-7-2.5-13 .4-6.1 11.6-38-5.7-50.5s-29.6 2.9-43.3 7-26.6 2.9-33.9 1.2c-7.3-1.6-22.5-27.5-33.3-27.2z" fill="#e5e5e5"/><g fill="#2d3134"><path d="m16.4 107.9c.2-2.6-6.7-1.9-10.6-.1-1.4 2-2.3 7.1-2.1 8.2 1.2 5.6 5.6 12.8 12.2 9.7 3.5-1.6 6.7-5.3 8.3-7.6-1.9-2.4-8.5.8-7.8-10.2z"/><path d="m38.7 123.4c.4 1.2.9 2.4 1.3 3.5 2.9-1.8 6.8-5.1 10.4-10.6 4.5-6.9 5.8-17.1 6.1-23.6-1.4-1.6-3-3.3-4.5-5-.6 2.3-1.3 5.2-2.2 8.8-3.8 15.2-12.1 15.8-14.5 15.7 1.1-2.6 3.5-13.9 7.1-17.8 3.8-4.1 2.3-12.1 1.7-14.7-.9-.8-1.8-1.6-2.7-2.2.1 2.3.2 11.3-1.9 14.3-2.4 3.4-5.5 16.4-4.8 20.4s1.1 3 2.5 7c8.5-5 16.1-19.2 16.1-19.2s-4.4 18.1-14.6 23.4z"/><path d="m28.9 99.9c-7.5-2.7-8-8.9-8.8-11.5-1.2 5.2.7 12.1 5.9 14.8 2.7 1.4 3.5 8.3 3.7 11.8.3-.2.6-.3.8-.5 1.8-5.4 4.8-12.2-1.6-14.6z"/><path d="m61 116.5c1.1-10.1 1.6-15.1 1.8-17.5-1.5-1.3-3.2-3-5-4.9 0 6.1-.6 34.8-13.6 41 0 .1 14.9-.4 16.8-18.6z"/><path d="m50.5 156.9 7.3-1.1s-4.1-.7-8.6-3.1c.4 1.5.9 2.9 1.3 4.2z"/><path d="m53.1 166.7c6.6-1.5 8.6-3 8.6-3s-4.2.1-9.5-1.2c.4 1.4.7 2.6.9 3.7z"/><path d="m54.4 173.7c5.3.2 10.8-4.9 12.2-6.3 0-.1 0-.1 0-.2-4.9 2.9-9.5 3.4-12.9 3.2.2 1 .3 2.1.5 3.3z"/><path d="m68.1 137.1c4.3-9.6 1.7-28.8.6-35.4-.8-.1-1.5-.3-2.2-.4-.6-.1-1.2-.4-1.8-.8 1.8 10.4 5.5 41.2-14.2 45 0-.1 12.4 3.2 17.6-8.4z"/><path d="m62.9 158.4c-6.4 4.7 15.9-7.6 18.4-15.3s1.2-21.5-1-28.6c-1.2-4.1-2.6-8.6-3.5-11.7-2.1-.1-4.1-.3-5.9-.6 2 5.8 6.1 18.4 6.5 27 .7 11.2-5.5 22.5-14.5 29.2z"/><path d="m28 88.5s-2.5-7.7-3.6-9.4c-1.1-1.8 1.6 6 .7 9.8z"/><path d="m33 85.1c-.4 2.4-1.4 3.5-1.4 3.5l3.7 1s1.2-4-.8-7.3-5-6.3-5-6.3 3.9 6.7 3.5 9.1z"/><path d="m141.6 161.5c.1.3.1.7.2 1.1 2.8.4 8 .8 10.4 1 .5-2.1.7-4.1 0-6.3-2.3 1.1-7.6 3.3-10.6 4.2z"/><path d="m68.2 161.9c6.6-3.5 14.3-1.9 17.4-1 .2-2.2.4-3.6.4-3.6-5.9-7.5-22.8 7.3-17.8 4.6z"/><path d="m93.8 136.4c-2.4-14.2-13.4-30.8-15.4-33.7-.1 0-.1 0-.2 0 1 3.1 7.5 22.3 10.4 34.6 3.2 13.4-2.7 20.1-2.7 20.1s2.3.3 6 .1c1.6-3.4 3.7-10.5 1.9-21.1z"/><path d="m19 104c-3.1-1-5.1-.1-5.4.1 1.1-4.5 3.6-9.4 4.9-13.9 1.6-5.8 6.5-12.6 6.5-12.6s-8 5.2-8.9 9.3-4.6 14.4-7.2 18.6c-1.5 2.4-2.3 3.9-2.3 3.9l6.5-1.7c0-1.2.3-2.4.6-3.7.3 0 6.5.4 8.4 5.8 1.1 3.1 2.1 6 2.8 7.9.1-.1.2-.1.3-.2.8-.5 1.8-1 2.8-1.6-1.4-3.9-3.7-10.2-9-11.9z"/><path d="m58.5 177.1c-2.5.6 4.1 1 7.2 1.3.1-1.4.2-2.8.3-4.1-1.9.9-5.8 2.5-7.5 2.8z"/><path d="m119.5 90.9c-3.1 1.4-6.1 3.1-9.2 4.7 0 0 .1.1.1.1 3.9 4.8 7.6 26.9 7.6 26.9s-.7-7.8-.1-20.1c.3-5.7.9-9.3 1.6-11.6z"/><path d="m142.3 166.3c.1.9.1 1.9.2 2.9 3.1.2 6.7-1.8 6.7-1.8z"/><path d="m140.9 159.1c3.7-2.2 7.8-6.1 9.3-7.5 0-.1 0-.2-.1-.2-1.9.9-7.7 3.8-10.5 4.7.5 1 .9 2 1.3 3z"/><path d="m136.6 149.3c5.5-1.5 10-.8 13.2.3-.2-1.1-.3-2.2-.3-3.5-5.8-1-12.9 3.2-12.9 3.2z"/><path d="m133.1 144.1c.4.6.8 1.3 1.2 1.9.7-.5 3.2-2 7.4-3 2.9-.8 6-.8 8-.8.2-1.3.6-3.1 1.1-5.2-3.2 1.2-9.2 3.2-12.1 3.4-3.5.2-5.1 2.8-5.6 3.7z"/><path d="m133.6 122.8c-5.9 7.7-6.5 21.4-6.5 21.4s5.9-16.2 11.8-19.1c3.9-2 10.5-8.4 14.4-12.4-.2-3-.7-5.9-1.6-8.6-4.5 4.1-13.7 13-18.1 18.7z"/><path d="m142.2 130c-10.7 5.7-11.4 10.3-11.4 10.3s3.7-2.1 9.7-4.9c3.9-1.8 8.3-3.1 11.3-3.9.5-3 1.1-6.3 1.3-9.6-2.1 2.2-5.6 5.2-10.9 8.1z"/><path d="m131.7 117.7c4.3-9 12.7-15.2 17.8-18.4-1.1-1.9-2.6-3.7-4.4-5.3-8.9 5.8-13.4 23.7-13.4 23.7z"/><path d="m77.4 164.3c-3.9 2.9-6.2 1.4-6.2 1.4s-2.5 1.4 4.6 2.3c3.7.4 6.9.4 9.1.2.2-1.7.3-3.2.4-4.6-1.1-.5-4.7-1.6-7.9.7z"/><path d="m128.6 88.3c-4.5 4.1-6.3 18.1-7.1 32.7-.7 12.9-1.2 23.2-1.4 26.8.1.2.2.4.3.7 6.9-11.9 5.9-38.8 11.5-47.5 3.4-5.3 6.5-8.4 8.4-10.1-4-2.2-7.9-2.9-11.7-2.6z"/><path d="m81.2 180.6c-3.3 1.4-7.9 1.5-10.2 1.5.2.9.5 1.9.7 2.8 1.2-.2 3-.6 5.7-1.4 5.9-2 8.4-4.8 3.8-2.9z"/><path d="m68.9 173.7c.1.2.1.4.2.6 1.7 2.1 11.6 2.8 15 3 .1-1.4.3-2.7.4-4.1-3.5.4-12.6 1.3-15.6.5z"/><path d="m55.3 182.4c.1 1 .2 2 .3 2.9 3 .1 6.5-1.9 6.5-1.9z"/><path d="m103.5 155.7c1.4-5.8 3.6-17.4 2.1-26.2-1.8-10.1-11.9-21.7-17.2-27.1-2.9.3-5.7.4-8.3.4 4.4 4.2 12.6 12.8 17.9 23.3 6.1 12.1 2.5 25.8.8 30.7 1.5-.3 3-.7 4.7-1.1z"/><path d="m112.5 152.1c2.3-4.1 6.3-13.2 3.7-22.5-2.5-9.4-10.5-22.7-14-30.2-.6.2-1.2.4-1.8.6-2.3.7-4.7 1.2-6.9 1.7 5.2 6.1 14.1 17.3 17.3 24.5 3.7 8.4 1.6 21.7.7 26.5.3-.2.7-.4 1-.6z"/></g><path d="m24.5 77c0-3.9-4.6-15.5-3.1-17.7s4.9 3.1 7.3 8.6 4.6 6.3 4.6 6.3z" fill="#e5e5e5"/><path d="m22.9 78.3c1.8 2.6 8.9-4.8 17.3-.7 12.6 6.2 17.7 27.1 35.8 25.2-9.9-5.2-10.9-9.8-13.1-13.2-4.4-7-12.8-18.6-20.7-21-16.3-5-23 4.1-19.3 9.7z" fill="#2d3134"/><path d="m25.1 92.5 6.2-.6s.3 2.4-2.8 2.8-3.4-2.2-3.4-2.2z"/><path d="m8.9 120.6s5.6-1.9 3.9-5.1-3.9 5.1-3.9 5.1z"/><path d="m5.3 119.4s-2.7-3.2-1.7-4.7 1.7 4.7 1.7 4.7z"/><path d="m36.8 81.7c3.6 2 2.1 7.2 2.1 3s2.4-15.1.5-20.8c-2.4-7.1-8-4.9-7.3 1.7.8 6.6 1 14.1 4.7 16.1z" fill="#e5e5e5"/><path d="m36 79.2s5.3-9.5 1.5-14.5c-6.8-8.8-1.5 14.5-1.5 14.5z" opacity=".15"/><path d="m54.3 145.5c-6.3-14.5-14.5-27.7-14.5-27.7l-5.2-5.6s8.6 23.6 9.7 26.9c1.1 3.2 7.5 20.1 8.7 27.1s5.2 35.7 3.2 40.6c-2 5-7 10.9-4.8 12.5 2.1 1.6 10.2.9 11.2-2.9 1.1-3.7.2-7.3 1.2-8.9 1.1-1.6 1.4-4.8.7-7-.7-2.1 2.1-34.9 2.1-34.9s-6.1-5.7-12.3-20.1z" opacity=".15"/><path d="m147.2 196.5c-2.5-.2-5.8-.8-8.5-2.7-2.5 4.2-4.9 8.6-1.4 9.6 4.3 1.3 9.4-.9 9.4-3.2-.2-.8.1-2.2.5-3.7z" fill="#2d3134"/><path d="m130.1 191.3c-2-.3-5.1-1-7.9-2.3-2.4 3.8-4.7 8-.9 8.4 4.9.6 8.2-1.3 8.2-3.4.1-.6.3-1.6.6-2.7z" fill="#2d3134"/><path d="m51.1 219.5c2.2 1.7 10.7.9 11.8-3 .3-1.2.5-2.3.6-3.4-2.5 0-6.6-.2-9.7-1.9-2.1 3.7-4.2 7.1-2.7 8.3z" fill="#2d3134"/><path d="m71.4 218.2c-2.1 3.1-5 7.4-1.6 8.6 4.1 1.5 10.1-1.1 10.9-3.7.3-1.1.5-2.7.7-4.1-3.3.1-7.2 0-10-.8z" fill="#2d3134"/></svg>