<svg xmlns:xlink="http://www.w3.org/1999/xlink"  enable-background="new 0 0 160 240" height="240" viewBox="0 0 160 240" width="160" xmlns="http://www.w3.org/2000/svg"><path d="m59.8 194.6c-15.5 7.4-48.7 20.2-27.1 35 20.2 13.9 50-2.8 65.1-9.9 22.3-10.4 48.1-26.4 35.2-35.4-13-9.2-44-3.5-73.2 10.3z" opacity=".2"/><path d="m95.9 145.6s.5 28.9 0 32.6.7 4.5 1.2 7.5-.5 4.9 1.4 6.2 8.9.5 9.3-1.5-3.1-4.2-4-8.7c-1-4.5 0-17.6 1.1-22.6s2.1-20 2.1-20z" fill="#e5e5e5"/><path d="m96 151.9v2.3c3.3.5 7.4-.1 9.6-.5.1-1.1.3-2.2.4-3.3-2.5.2-6.5 1.3-10 1.5z" fill="#2d3134"/><path d="m102.2 162.3c2.4 1.8-.9-2.4-6.2-3.9v3.4c2.6-.4 4.9-.5 6.2.5z" fill="#2d3134"/><path d="m96.1 170.1c3-.7 6-1.5 6-1.5s-3-.3-5.9-.9c-.1.8-.1 1.6-.1 2.4z" fill="#2d3134"/><path d="m95.9 145.6s.5 28.9 0 32.6.7 4.5 1.2 7.5-.5 4.9 1.4 6.2 8.9.5 9.3-1.5-3.1-4.2-4-8.7c-1-4.5 0-17.6 1.1-22.6s2.1-20 2.1-20z" opacity=".15"/><path d="m132.5 50.4c9-1.9 14.6 5.4 16.8 7.4s3.6 3.3 2.7 6.8 2.7 12.3 3.7 14.9c1.1 2.6-.8 11.8-6.5 11.6s-11.1-6.4-11.1-6.4-3 10.8-5.3 16.3c-2.2 5.5-1 28.7-4.2 43.9s-5.3 38.2-3.9 42.4c1.4 4.3 4.8 6.7 4.2 8.8s-9.6 3-10.6 1.3-.7-4.9-1-6.8-2.3-3-1.8-6.5c.5-3.6 1.1-6.8 1-15s-2.4-29.7-2.4-29.7-6.6 6.4-18.1 9.3-19.7 3.2-19.7 3.2-9.6 16.8-14.2 29.2c-4.6 12.5-5.1 31.6-2.6 35.8s8.1 8 6.7 10.3c-1.4 2.4-9.9 3.9-11.2 1.9s-.5-4.8-2-6.3-3.8-2-3.3-5.8.6-21.6-.2-25.2-1.9-5.7 1-12.1-3.4-26.3-3.4-26.3-8.7 25.1-9.2 30 0 26.1 1.8 28.8 7 5.6 5.9 8.6-9.6 3.4-10.7 2.5c-1.1-1-.5-5.2-2.1-6.4-1.7-1.2-4.2-3.2-3.6-5.8s.7-17.2-.8-21.5-4-7.1-2.5-11.9 4-18.2 2.7-29.4-8.7-35.7 10.3-48.5 40.5 2.8 63.4-13.2c23.4-16.6 19.4-33.8 30.2-36.2z" fill="#e5e5e5"/><g fill="#2d3134"><path d="m127.9 147.9c.2-1.1.4-2.1.6-3.1 0-.1 0-.2.1-.3-3.3.1-10.1 2.3-13.9 1.3 0 .4.1.8.1 1.2 3.1 2.5 10 1.5 13.1.9z"/><path d="m118.9 107c1.2 15.8-.3 22.5-4.9 32.4v.3c.1-.1.3-.2.6-.5 7.6-2.5 13-4.3 15.4-5 .3-2.7.5-5.5.6-8.2-1.4 1.9-3.3 4.4-4.8 6.1-2.2 2.6-8.6 5.8-11 6.9 3.1-3.2 12.7-16.4 10.5-27.3-2.7-13.5-9.4-25.9-22.9-25.5-.2.1-.3.2-.5.3-1.6 1.1-3.1 2-4.6 2.8 4.9.5 20.6 3.7 21.6 17.7z"/><path d="m124.4 90.7c1 5.6 5.1 18.2 6.9 23.8.2-4.9.5-9 1-11.7-.5-6.9-1.7-14.4-8.4-18.3-4.9-2.8-9.2-4.9-12.1-6.3-.6.7-1.3 1.4-2.1 2 4.8 1.7 13.7 5.2 14.7 10.5z"/><path d="m127 153.2c-3.7.3-8.9.5-8.9.5s4.2 1.3 8.5 1.9c.2-.9.3-1.7.4-2.4z"/><path d="m129.1 141.8c.2-1.2.4-2.4.5-3.7-5.6 2.4-11.8 2.9-11.8 2.9s7.7.6 11.3.8z"/><path d="m82.5 95.6c4.8 0 15.9-1.8 20.7 8.6 4.8 10.3 6.8 7.6 5.9 38.9.3-.2.7-.4 1-.6 2.3-4 7.6-15.1 3.9-26.8-4.7-14.7-11-23.5-19.6-22.9-1.7.1-3.7.1-5.9 0-4.1 1.1-8.2 1.4-12.1 1.5 2.2.8 4.5 1.3 6.1 1.3z"/><path d="m29.3 200.8v2.5c1.7-.2 3.3 0 4.3.7 2.2 1.7-.1-1.3-4.3-3.2z"/><path d="m141.6 79.3s1.6-4.6 1.9-12.5c.2-5.8-2.3-11-5.2-16.4-1.6-.3-3.3-.4-5.2-.1l-.4 1.1s3.6 7.2 7.2 11.7 1.7 16.2 1.7 16.2z"/><path d="m152 67.9c-1.2.5-2.8 1.3-3.6 1.7-1.3.6-3.1 3.7-3.6 8.4s-5.7 6.2-5.7 6.2 4.5-.2 7-7c1.6-4.4 4.6-6 6.5-6.6-.2-.9-.4-1.8-.6-2.7z"/><path d="m128.6 84.5c2.6 1.9 4.6 8.9 5.6 12.7.9-2.5 1.7-5.3 2.4-7.5-.2-2-1-4.2-3.4-5.6-7.1-4.3-11.4-18.9-11.4-18.9l-.9.5c-.9 1.7-1.9 3.4-3.1 5.2 1.2 3.3 4.2 8.7 10.8 13.6z"/><path d="m117.8 167.6s1.6 4.9 3.7 5.7c.6.2 1.7.5 3 .7.1-1.5.2-3.1.4-4.7-4.8-.1-7.1-1.7-7.1-1.7z"/><path d="m58.6 195.6c-2.7-.5-6.5-1.4-9.2-3.1.1 1 .2 2.4.3 4.1 2 0 5.4.8 8.6 1.7.1-.9.2-1.8.3-2.7z"/><path d="m125.9 160.6c-1.3-.2-2.6-.4-3.1-.4-.8 0-3.8-.3-7-1.2.1.9.1 1.8.2 2.7 3.3.8 7 1.9 9.4 2.7.2-1.3.4-2.5.5-3.8z"/><path d="m94.4 142.5c3.6-9-2.8-14.4-11.6-25s-23.7-12-30.4-9.6-11.8 5.4-16 11.9c0 0 6.7-.2 19.7-4s24.7 8.2 32.5 16.9c5.8 6.6.9 14.4-1.9 17.8.8-.1 1.7-.3 2.6-.5 1.7-1.3 3.6-3.7 5.1-7.5z"/><path d="m51 175c0 1.8-.2 3.4-.7 4.6 2.9-.2 10.9-2.5 10.9-2.5s-7.1-.7-10.2-2.1z"/><path d="m78.6 148.7s.8-6.7-9.4-5.9-26-5.5-26-5.5-.5 7 4.8 8.4 29.7 1.2 30.6 3z"/><path d="m63 152.3c-8.2 1.8-10.8-.1-10.8-.1s3.1 5.3 7.8 5.3c4.1 0 10.5-2.7 14-1.6l.3-.6c-2.2-1.7-6.6-4-11.3-3z"/><path d="m80.1 151.6c.8-1.5 2.4-4.7 4.5-10.4 3.3-8.6-9.6-11.7-22.8-16.4-13.3-4.7-24.4 5.3-24.4 5.3 3.3-1.8 29.2 4.2 38.6 7.8 7.6 2.9 5.2 10.8 4 13.7z"/><path d="m137.1 73.8c-3.3-4.5-7.1-15.3-9.1-20.9-1.6 1.6-2.7 3.7-4 6.4 1.3 3.7 3.4 8.6 6 11 4.5 4.3 7.8 8.7 8 14.4.1 0 4.2-3.9-.9-10.9z"/><path d="m57.9 208.2c0-1.4 0-3 0-4.6-5.2.6-7-.7-7-.7s2.8 4.7 7 5.3z"/><path d="m62.8 161.8c-6 .4-8.8-1.7-8.8-1.7s1.6 4.9 3.7 5.7c1.5.6 7.2 1.4 10.2 1.9.9-1.8 1.8-3.6 2.6-5.2-1.5-.5-4.2-.9-7.7-.7z"/><path d="m31.6 111.8c4.3-5.4 9-7.8 9-7.8s-4 0-8.7 2.1c-2.5 3.3-4.1 6.9-5 10.7 1.6-1.5 3.3-3.1 4.7-5z"/><path d="m50.8 171.7c3.3.1 9.7 2 13.7 3.3.5-1.2 1-2.3 1.6-3.5-1.5-.2-2.9-.5-3.5-.5-1.2 0-8.2-.8-12.3-3.5.2 1.4.4 2.8.5 4.2z"/><path d="m57.6 96.8s-6.2 2.3-5.5 2.6c3.4 1.3 20.5 3.9 27.5 5.8 8.5 2.2 17.5 8.3 18.5 20.7s-1.7 22.6-1.7 22.6c4.5-.5 14.1-13.5 8.5-26s-11.9-22.2-29.7-23.5-17.6-2.2-17.6-2.2z"/><path d="m48.7 97.9s-.7-1.1-2.2-1.9c-2 .6-4 1.5-6 2.6 4.4-.8 8.2-.7 8.2-.7z"/><path d="m90.3 149.9h.1c-.2-.2-.2-.2-.1 0z"/><path d="m37.5 193.1c0-.1 0-.1 0 0-.6-.2-6.6-1.3-8-1.3-.2 0-.5 0-.9-.1.2.9.3 2 .4 3.2 3.3 1 5.8 1.9 5.8 1.9z"/><path d="m56.5 189.3c.6.2 1.7.5 3.1.7.3-1.6.7-3.2 1.1-4.7-5.3.1-7.9-1.7-7.9-1.7s1.5 4.9 3.7 5.7z"/></g><path d="m128.2 54.5c0-1.4.3-3.7-.9-8.8s3.4-11.5 5.9-11.5 0 8.6.5 13.7-5.5 6.6-5.5 6.6z" fill="#e5e5e5"/><path d="m111 79.1s10.8-8.5 18.5-19.1c3.2-4.4 6.6-10.1 10-9.2 3.4.8 8.8 6.1 8.8 6.1s1.4-10.6-9.3-13.1c-6.1-1.4-11.8 6.5-15.6 13-3.8 6.6-8.9 18.1-12.4 22.3z" fill="#2d3134"/><path d="m32.9 217.2c1.1 1.6.8 5.1 1.7 6 1.1 1 9.6.5 10.7-2.5s-4.2-5.9-5.9-8.6c-1.8-2.6-2.3-23.9-1.8-28.8s9.2-30 9.2-30l-6.3-14.6s-8.2 39-8.3 40.4 1.4 28.3 1.2 30.9c-.1 1.2-.3 4.2-.5 7.2z" opacity=".15"/><path d="m108 190.3c.2-1.3-1-2.6-2.2-4.5-2.3 1-5.6 1.9-8.9.9.2 2.4-.4 4.1 1.4 5.3 2 1.3 9.4.4 9.7-1.7z" fill="#2d3134"/><path d="m117.1 191.4c.1 2 .1 4.6.9 6.1 1 1.7 10.5.9 11.1-1.4.4-1.6-1.1-3.3-2.6-5.7-2.4 1.2-5.9 2.3-9.4 1z" fill="#2d3134"/><path d="m32.9 217.5c.9 1.8.6 5 1.5 5.9 1.1 1 10.1.5 11.2-2.6.6-1.6-.6-3.2-2.2-4.8-2.1 1.1-6.3 3-10.5 1.5z" fill="#2d3134"/><path d="m53.1 223.5c.8 1.7.4 4 1.5 5.7 1.4 2.1 10.2.5 11.7-2 .8-1.3-.4-2.9-2-4.8-2.3 1.4-6.9 3.2-11.2 1.1z" fill="#2d3134"/><path d="m150.3 65.4 1.8-1.4s.2 1.1-.4 1.7c-.5.5-1.4-.3-1.4-.3z"/><path d="m140.1 86.7c2.2 2.1 5.9 4.7 9.3 4.5 6-.3 7.6-7.7 6.3-11.7-.2-.6-.8-2.9-1.6-4-.5 1.4-3.6 4.2-4 8.8-.3 3.3-7.2 3.3-10 2.4z" fill="#2d3134"/><path d="m36.6 112.1s-5.8 7.8-7.2 25.3c-.9 11.4-5 26.4-4.4 35.4s7.1 16.9 7.1 16.9 1.6-12.7 4.3-22c2.7-9-4.1-27.2-4.7-31.6-.9-6.8 3-21.4 4.9-24z" fill="#2d3134"/><path d="m139.2 51.6s2.2-1.1 2.5-4.3c.2-3.2 4.8-10.5 6.5-10.1 1.7.5 1.7 6.3-.3 10.4-2 4.2-3.1 4.9-2.8 7.4.3 2.6-5.7-.8-5.9-3.4z" fill="#e5e5e5"/><path d="m148.1 37.2c-1-.3-3 2.2-4.5 4.9 1.9.8 3.9 1.7 5.3 2.3.8-3.4.4-6.8-.8-7.2z" fill="#2d3134"/><path d="m133.2 34.2c-1.3 0-3.2 1.8-4.6 4.3 2.7.9 4.3 1.3 5.5 1.4.3-3.2.4-5.7-.9-5.7z" fill="#2d3134"/></svg>